G04*
G04 #@! TF.GenerationSoftware,Altium Limited,Altium Designer,24.5.2 (23)*
G04*
G04 Layer_Physical_Order=4*
G04 Layer_Color=16711680*
%FSLAX25Y25*%
%MOIN*%
G70*
G04*
G04 #@! TF.SameCoordinates,91EA9AA5-0895-4C73-9A31-942236B58547*
G04*
G04*
G04 #@! TF.FilePolarity,Positive*
G04*
G01*
G75*
%ADD16C,0.03937*%
%ADD29R,0.05118X0.04724*%
%ADD30R,0.03701X0.04016*%
%ADD31R,0.04016X0.03701*%
%ADD32R,0.04724X0.05118*%
%ADD34R,0.05906X0.05906*%
%ADD94C,0.00720*%
%ADD95C,0.00728*%
%ADD96C,0.01000*%
%ADD97C,0.01968*%
%ADD99C,0.01575*%
%ADD100C,0.03150*%
%ADD101C,0.03937*%
%ADD103C,0.05906*%
%ADD104R,0.05906X0.05906*%
%ADD105C,0.02244*%
%ADD106C,0.05512*%
%ADD107R,0.06496X0.06496*%
%ADD108C,0.06496*%
%ADD109R,0.04803X0.04803*%
%ADD110C,0.04803*%
%ADD111R,0.04803X0.04803*%
%ADD112C,0.02000*%
%ADD113C,0.03150*%
%ADD114C,0.02756*%
%ADD115R,0.08661X0.04724*%
%ADD116R,0.08661X0.13780*%
G04:AMPARAMS|DCode=117|XSize=59.06mil|YSize=17.72mil|CornerRadius=1.97mil|HoleSize=0mil|Usage=FLASHONLY|Rotation=180.000|XOffset=0mil|YOffset=0mil|HoleType=Round|Shape=RoundedRectangle|*
%AMROUNDEDRECTD117*
21,1,0.05906,0.01378,0,0,180.0*
21,1,0.05512,0.01772,0,0,180.0*
1,1,0.00394,-0.02756,0.00689*
1,1,0.00394,0.02756,0.00689*
1,1,0.00394,0.02756,-0.00689*
1,1,0.00394,-0.02756,-0.00689*
%
%ADD117ROUNDEDRECTD117*%
%ADD118R,0.05512X0.03937*%
%ADD119R,0.04724X0.08661*%
%ADD120R,0.13780X0.08661*%
%ADD121C,0.01772*%
%ADD122C,0.04724*%
G36*
X39370Y340312D02*
X399571D01*
Y268701D01*
X399649Y268311D01*
X399870Y267980D01*
X400200Y267759D01*
X400591Y267681D01*
X446637D01*
X446905Y267035D01*
X443691Y263820D01*
X329865D01*
X329597Y264467D01*
X333473Y268342D01*
X334018Y269159D01*
X334210Y270122D01*
Y275590D01*
X334018Y276554D01*
X333473Y277370D01*
X332656Y277916D01*
X331693Y278107D01*
X330730Y277916D01*
X329913Y277370D01*
X329368Y276554D01*
X329176Y275590D01*
Y274451D01*
X328476Y274027D01*
X327756Y274170D01*
X326793Y273979D01*
X325976Y273433D01*
X325925Y273382D01*
X325380Y272566D01*
X325188Y271603D01*
Y269692D01*
X272335Y216839D01*
X272112Y216505D01*
X266185Y210579D01*
X265640Y209762D01*
X265448Y208799D01*
Y178118D01*
X264748Y177828D01*
X264228Y178347D01*
X263331Y178866D01*
X262329Y179134D01*
X262008D01*
X261725Y179351D01*
X261007Y179648D01*
X260236Y179750D01*
X258661D01*
Y185630D01*
X246063D01*
Y179750D01*
X237663D01*
X237153Y180450D01*
X237239Y181102D01*
Y191929D01*
X237126Y192786D01*
X238124Y193605D01*
X238831Y194466D01*
X239618Y194504D01*
X239736Y194298D01*
X240436Y193599D01*
X241292Y193104D01*
X242242Y192850D01*
Y196604D01*
Y200359D01*
X241292Y200104D01*
X240726Y199778D01*
X240026Y200139D01*
Y209998D01*
X240028Y210000D01*
X240726Y210360D01*
X241292Y210034D01*
X242242Y209779D01*
Y213533D01*
Y217288D01*
X241292Y217034D01*
X240436Y216539D01*
X239736Y215840D01*
X239364Y215194D01*
X239153Y215113D01*
X238764Y215081D01*
X238555Y215124D01*
X237789Y216057D01*
X237743Y216126D01*
X237686Y216163D01*
X237240Y216745D01*
X236934Y217484D01*
X236839Y218210D01*
X236852Y218277D01*
Y220063D01*
X237678D01*
X238552Y220425D01*
X239221Y221094D01*
X239583Y221968D01*
Y222914D01*
X239221Y223788D01*
X238552Y224457D01*
X237678Y224819D01*
X236732D01*
X236732Y224819D01*
X235201D01*
X234915Y224762D01*
X234403Y224694D01*
X233760Y224428D01*
X233117Y224694D01*
X232605Y224762D01*
X232318Y224819D01*
X230788D01*
X230788Y224819D01*
X229842D01*
X228968Y224457D01*
X228299Y223788D01*
X227937Y222914D01*
Y221968D01*
X228299Y221094D01*
X228968Y220425D01*
X229842Y220063D01*
X230668D01*
Y217685D01*
X230684Y217604D01*
X230826Y216165D01*
X231269Y214704D01*
X231989Y213358D01*
X232906Y212240D01*
X232952Y212171D01*
X233008Y212134D01*
X233454Y211552D01*
X233760Y210814D01*
X233856Y210087D01*
X233842Y210021D01*
Y201772D01*
X233864Y201663D01*
X233697Y200824D01*
X233222Y200113D01*
X233130Y200051D01*
X232113Y199035D01*
X232113Y199035D01*
X231600Y198521D01*
X231051Y199070D01*
X230177Y199432D01*
X229232D01*
X228358Y199070D01*
X227856Y198568D01*
X227195Y198559D01*
X227020Y198616D01*
X226850Y198911D01*
X226150Y199610D01*
X225294Y200104D01*
X224344Y200359D01*
Y196604D01*
X223844D01*
Y196104D01*
X220084D01*
X219927Y195900D01*
X213617D01*
Y202284D01*
X213773Y202343D01*
X214317Y202400D01*
X214459Y202187D01*
X214790Y201967D01*
X215180Y201889D01*
X220479D01*
X220869Y201967D01*
X221200Y202187D01*
X221421Y202518D01*
X221499Y202908D01*
Y207452D01*
X221421Y207842D01*
X221200Y208173D01*
X220869Y208394D01*
X220479Y208471D01*
X215180D01*
X214790Y208394D01*
X214459Y208173D01*
X214317Y207960D01*
X213773Y208017D01*
X213617Y208076D01*
Y216859D01*
X233928Y237171D01*
X263779D01*
X264807Y237306D01*
X265765Y237703D01*
X266587Y238334D01*
X271443Y243189D01*
X272089Y242921D01*
Y225394D01*
X272281Y224430D01*
X272827Y223614D01*
X273643Y223068D01*
X274606Y222877D01*
X275570Y223068D01*
X276386Y223614D01*
X276932Y224430D01*
X277123Y225394D01*
Y244036D01*
X293118Y260031D01*
X293664Y260848D01*
X293855Y261811D01*
X293664Y262774D01*
X293118Y263591D01*
X292302Y264136D01*
X291339Y264328D01*
X290375Y264136D01*
X289792Y263747D01*
X289092Y264056D01*
Y284334D01*
Y307821D01*
X288957Y308849D01*
X288560Y309807D01*
X287929Y310629D01*
X287107Y311260D01*
X286149Y311657D01*
X285121Y311792D01*
X284093Y311657D01*
X283136Y311260D01*
X282313Y310629D01*
X281682Y309807D01*
X281286Y308849D01*
X281150Y307821D01*
Y284334D01*
Y264128D01*
X262135Y245113D01*
X234823D01*
X234555Y245759D01*
X238000Y249205D01*
X238546Y250021D01*
X238737Y250984D01*
Y258858D01*
X238546Y259821D01*
X238000Y260638D01*
X237184Y261184D01*
X236221Y261375D01*
X235257Y261184D01*
X234441Y260638D01*
X233895Y259821D01*
X233704Y258858D01*
Y252027D01*
X204520Y222843D01*
X203974Y222026D01*
X203956Y221935D01*
X203733Y221793D01*
X203185Y221646D01*
X202765Y221887D01*
X202111Y222063D01*
X201433D01*
X200778Y221887D01*
X200191Y221549D01*
X199803Y221161D01*
X199416Y221549D01*
X198828Y221887D01*
X198174Y222063D01*
X197496D01*
X196841Y221887D01*
X196254Y221549D01*
X195866Y221161D01*
X195479Y221549D01*
X194892Y221887D01*
X194237Y222063D01*
X193559D01*
X192904Y221887D01*
X192317Y221549D01*
X191929Y221161D01*
X191542Y221549D01*
X190954Y221887D01*
X190300Y222063D01*
X189622D01*
X188967Y221887D01*
X188380Y221549D01*
X187900Y221069D01*
X187561Y220482D01*
X187386Y219827D01*
Y219149D01*
X187561Y218494D01*
X187900Y217907D01*
X188288Y217520D01*
X187900Y217132D01*
X187710Y216803D01*
X186917Y216606D01*
X186557Y216966D01*
X185429Y217720D01*
X184175Y218239D01*
X182844Y218504D01*
X181487D01*
X180156Y218239D01*
X179637Y218024D01*
X179055Y218413D01*
Y218504D01*
X165276D01*
Y204724D01*
X179055D01*
Y204815D01*
X179637Y205204D01*
X180156Y204989D01*
X181487Y204724D01*
X182844D01*
X184175Y204989D01*
X185429Y205508D01*
X186557Y206262D01*
X186917Y206622D01*
X187710Y206425D01*
X187900Y206096D01*
X188288Y205709D01*
X187900Y205321D01*
X187561Y204734D01*
X187386Y204079D01*
Y203401D01*
X187561Y202746D01*
X187900Y202159D01*
X188380Y201680D01*
X188967Y201341D01*
X189622Y201165D01*
X190300D01*
X190954Y201341D01*
X191542Y201680D01*
X191929Y202067D01*
X192317Y201680D01*
X192904Y201341D01*
X193559Y201165D01*
X194237D01*
X194892Y201341D01*
X195479Y201680D01*
X195866Y202067D01*
X196254Y201680D01*
X196841Y201341D01*
X197496Y201165D01*
X198174D01*
X198828Y201341D01*
X199416Y201680D01*
X199803Y202067D01*
X200191Y201680D01*
X200778Y201341D01*
X201433Y201165D01*
X202111D01*
X202765Y201341D01*
X203082Y201524D01*
X203782Y201178D01*
Y179515D01*
X203082Y179376D01*
X202956Y179681D01*
X202202Y180809D01*
X201242Y181769D01*
X201085Y181874D01*
X200803Y182465D01*
X200803D01*
X200803Y182465D01*
Y185917D01*
X196850D01*
X192898D01*
Y182515D01*
X192808Y182394D01*
X192629Y182254D01*
X191929Y182595D01*
Y193307D01*
X178184D01*
Y196850D01*
X178048Y197878D01*
X177652Y198836D01*
X177021Y199658D01*
X176198Y200289D01*
X175240Y200686D01*
X174213Y200821D01*
X147638D01*
X146610Y200686D01*
X145652Y200289D01*
X144830Y199658D01*
X144199Y198836D01*
X143802Y197878D01*
X143771Y197638D01*
X137402D01*
Y191622D01*
X137364Y191339D01*
Y180152D01*
X133858D01*
X133858Y180152D01*
X130939Y180152D01*
Y186008D01*
X132177D01*
Y191339D01*
Y196669D01*
X131564D01*
X130939Y196850D01*
X130804Y197878D01*
X130408Y198836D01*
X129776Y199658D01*
X128954Y200289D01*
X127996Y200686D01*
X126969Y200821D01*
X109252Y200821D01*
X108224Y200686D01*
X107266Y200289D01*
X106444Y199658D01*
X105813Y198836D01*
X105416Y197878D01*
X105281Y196850D01*
Y170276D01*
X105416Y169248D01*
X105813Y168290D01*
X106444Y167468D01*
X107266Y166837D01*
X108224Y166440D01*
X109252Y166305D01*
X109630D01*
Y166051D01*
X113189D01*
X116748D01*
Y166305D01*
X117504D01*
Y166051D01*
X121063D01*
Y165551D01*
X121563D01*
Y162189D01*
X124622D01*
Y165684D01*
X125322Y165924D01*
X130724Y158979D01*
X130900Y158806D01*
X131050Y158609D01*
X131267Y158443D01*
X131462Y158251D01*
X131676Y158129D01*
X131873Y157978D01*
X132125Y157874D01*
X132363Y157739D01*
X132602Y157676D01*
X132831Y157582D01*
X133101Y157546D01*
X133366Y157477D01*
X133613Y157479D01*
X133858Y157446D01*
X149606D01*
X150634Y157582D01*
X151592Y157978D01*
X152414Y158609D01*
X153045Y159432D01*
X153442Y160390D01*
X153577Y161417D01*
Y176181D01*
X153442Y177209D01*
X153045Y178167D01*
X152414Y178989D01*
X151592Y179620D01*
X150634Y180017D01*
X149606Y180152D01*
X146100D01*
Y181735D01*
X146800Y182163D01*
X147638Y182053D01*
X154494D01*
Y170276D01*
X154629Y169248D01*
X155026Y168290D01*
X155657Y167468D01*
X156479Y166837D01*
X157437Y166440D01*
X158465Y166305D01*
X166717D01*
Y166051D01*
X170276D01*
X173835D01*
Y166305D01*
X174213D01*
X175240Y166440D01*
X176198Y166837D01*
X177021Y167468D01*
X177652Y168290D01*
X177694Y168392D01*
X178367Y168187D01*
X178150Y167096D01*
Y165739D01*
X178414Y164408D01*
X178934Y163154D01*
X179688Y162025D01*
X180296Y161417D01*
X179688Y160809D01*
X178934Y159681D01*
X178414Y158427D01*
X178150Y157096D01*
Y155739D01*
X178414Y154408D01*
X178934Y153154D01*
X179688Y152025D01*
X180296Y151417D01*
X179688Y150809D01*
X178934Y149681D01*
X178414Y148427D01*
X178150Y147096D01*
Y145739D01*
X178414Y144408D01*
X178934Y143154D01*
X179688Y142025D01*
X180296Y141417D01*
X179688Y140809D01*
X178934Y139681D01*
X178414Y138427D01*
X178150Y137096D01*
Y135739D01*
X178414Y134408D01*
X178934Y133154D01*
X179688Y132025D01*
X180647Y131066D01*
X180768Y130985D01*
X180565Y130315D01*
X178150D01*
Y116535D01*
X178240D01*
X178629Y115953D01*
X178414Y115435D01*
X178150Y114104D01*
Y112747D01*
X178414Y111416D01*
X178934Y110162D01*
X179688Y109033D01*
X180296Y108425D01*
X179688Y107817D01*
X178934Y106689D01*
X178414Y105435D01*
X178150Y104104D01*
Y102747D01*
X178414Y101416D01*
X178934Y100162D01*
X179688Y99033D01*
X180296Y98425D01*
X179688Y97817D01*
X178934Y96689D01*
X178414Y95435D01*
X178150Y94104D01*
Y92747D01*
X178414Y91416D01*
X178934Y90162D01*
X179688Y89033D01*
X180296Y88425D01*
X179688Y87817D01*
X178934Y86689D01*
X178414Y85435D01*
X178150Y84104D01*
Y82747D01*
X178414Y81415D01*
X178934Y80162D01*
X179688Y79033D01*
X180296Y78425D01*
X179688Y77817D01*
X178934Y76689D01*
X178414Y75435D01*
X178150Y74104D01*
Y72747D01*
X178414Y71416D01*
X178934Y70162D01*
X179688Y69033D01*
X180647Y68074D01*
X181776Y67320D01*
X183030Y66800D01*
X184361Y66535D01*
X185718D01*
X187049Y66800D01*
X188303Y67320D01*
X189431Y68074D01*
X190391Y69033D01*
X191145Y70162D01*
X191664Y71416D01*
X191929Y72747D01*
Y74104D01*
X191664Y75435D01*
X191145Y76689D01*
X190391Y77817D01*
X189783Y78425D01*
X190391Y79033D01*
X190595Y79338D01*
X191295D01*
X191499Y79033D01*
X192458Y78074D01*
X193587Y77320D01*
X194043Y77131D01*
X194160Y76325D01*
X193687Y75852D01*
X193167Y74951D01*
X192898Y73946D01*
Y73925D01*
X196850D01*
X200803D01*
Y73946D01*
X200534Y74951D01*
X200013Y75852D01*
X199541Y76325D01*
X199658Y77131D01*
X200114Y77320D01*
X201242Y78074D01*
X202202Y79033D01*
X202956Y80162D01*
X203475Y81415D01*
X203740Y82747D01*
Y84104D01*
X203475Y85435D01*
X202956Y86689D01*
X202202Y87817D01*
X201594Y88425D01*
X202202Y89033D01*
X202956Y90162D01*
X203475Y91416D01*
X203740Y92747D01*
Y94104D01*
X203475Y95435D01*
X202956Y96689D01*
X202202Y97817D01*
X201594Y98425D01*
X202202Y99033D01*
X202956Y100162D01*
X203475Y101416D01*
X203740Y102747D01*
Y102890D01*
X204440Y103102D01*
X204520Y102984D01*
X220177Y87326D01*
Y87284D01*
X220453Y85896D01*
X220995Y84589D01*
X221781Y83412D01*
X222782Y82411D01*
X223959Y81625D01*
X224104Y81565D01*
X224241Y80878D01*
X223963Y80601D01*
X223404Y79632D01*
X223114Y78551D01*
Y78492D01*
X227362D01*
Y77992D01*
X227862D01*
Y73744D01*
X227922D01*
X229002Y74034D01*
X229971Y74593D01*
X230248Y74871D01*
X230935Y74734D01*
X230995Y74589D01*
X231781Y73412D01*
X232201Y72992D01*
X231781Y72572D01*
X230995Y71395D01*
X230935Y71250D01*
X230248Y71114D01*
X229971Y71391D01*
X229002Y71951D01*
X227922Y72240D01*
X227862D01*
Y67992D01*
Y63744D01*
X227922D01*
X229002Y64034D01*
X229971Y64593D01*
X230248Y64871D01*
X230935Y64734D01*
X230995Y64589D01*
X231781Y63412D01*
X232782Y62411D01*
X233959Y61625D01*
X235266Y61083D01*
X236654Y60807D01*
X238070D01*
X239458Y61083D01*
X240766Y61625D01*
X241942Y62411D01*
X242943Y63412D01*
X243081Y63618D01*
X243778Y63687D01*
X244530Y62934D01*
Y54397D01*
X244722Y53433D01*
X245268Y52617D01*
X248220Y49664D01*
X249037Y49119D01*
X250000Y48927D01*
X254882D01*
Y47467D01*
X268740D01*
Y48441D01*
X270420D01*
X270921Y47940D01*
X270921Y47940D01*
X271538Y47466D01*
X272047Y47256D01*
Y46109D01*
X275836D01*
X276104Y45462D01*
X275482Y44840D01*
X258858D01*
X257895Y44648D01*
X257079Y44102D01*
X256533Y43286D01*
X256341Y42323D01*
X256533Y41360D01*
X257079Y40543D01*
X257895Y39998D01*
X258858Y39806D01*
X276524D01*
X277487Y39998D01*
X278304Y40543D01*
X280443Y42682D01*
X281113Y42479D01*
X281139Y42344D01*
X281685Y41527D01*
X282501Y40982D01*
X283465Y40790D01*
X284428Y40982D01*
X285244Y41527D01*
X287213Y43496D01*
X287758Y44312D01*
X287950Y45276D01*
Y49849D01*
X290158D01*
Y49978D01*
X290858Y50268D01*
X290976Y50149D01*
X291850Y49787D01*
X292796D01*
X293670Y50149D01*
X294339Y50818D01*
X294701Y51692D01*
Y52638D01*
X294339Y53512D01*
X293670Y54181D01*
X293184Y54383D01*
X293001Y55190D01*
X297302Y59491D01*
X343408D01*
X344371Y59683D01*
X345188Y60228D01*
X386819Y101859D01*
X387365Y102676D01*
X387556Y103639D01*
Y136950D01*
X411229Y160622D01*
X411774Y161438D01*
X411966Y162402D01*
X411966Y162402D01*
Y170276D01*
X411774Y171239D01*
X411229Y172055D01*
X410412Y172601D01*
X409449Y172792D01*
X408486Y172601D01*
X407669Y172055D01*
X407124Y171239D01*
X406932Y170276D01*
Y167459D01*
X406570Y167271D01*
X406232Y167184D01*
X405491Y167680D01*
X404528Y167871D01*
X403564Y167680D01*
X402748Y167134D01*
X402202Y166317D01*
X402011Y165354D01*
Y162460D01*
X392407Y152856D01*
X392095Y152934D01*
X391732Y153171D01*
Y154062D01*
X391464Y155063D01*
X390946Y155961D01*
X390213Y156694D01*
X389315Y157212D01*
X388314Y157480D01*
X387418D01*
X386375Y158523D01*
Y164370D01*
X386184Y165333D01*
X385638Y166150D01*
X375109Y176679D01*
Y180412D01*
X374917Y181375D01*
X374371Y182191D01*
X373555Y182737D01*
X372592Y182929D01*
X371628Y182737D01*
X370812Y182191D01*
X370266Y181375D01*
X370075Y180412D01*
Y179146D01*
X369375Y178772D01*
X368989Y179029D01*
X368026Y179221D01*
X367063Y179029D01*
X366247Y178483D01*
X365701Y177667D01*
X365510Y176704D01*
X365575Y176376D01*
X364930Y176031D01*
X358816Y182145D01*
Y184943D01*
X359463Y185211D01*
X360300Y184374D01*
X360300Y184374D01*
X361070Y183859D01*
X361979Y183678D01*
X366673D01*
X366682Y183675D01*
X367628D01*
X368502Y184037D01*
X369171Y184706D01*
X369533Y185580D01*
Y186526D01*
X369171Y187400D01*
X368502Y188068D01*
X367628Y188431D01*
X366682D01*
X366673Y188427D01*
X362962D01*
X362378Y189011D01*
X362543Y189837D01*
X362790Y189939D01*
X363459Y190608D01*
X363821Y191482D01*
Y192428D01*
X363459Y193302D01*
X362790Y193971D01*
X361960Y194315D01*
X361683Y194592D01*
X360912Y195107D01*
X360004Y195288D01*
X358601D01*
X358258Y195988D01*
X358528Y196642D01*
Y197588D01*
X358167Y198462D01*
X357498Y199131D01*
X356624Y199493D01*
X355678D01*
X355669Y199489D01*
X351399D01*
X351132Y200136D01*
X352150Y201154D01*
X352150Y201154D01*
X352471Y201635D01*
X352487Y201651D01*
X352495Y201671D01*
X352664Y201924D01*
X352724Y202223D01*
X352849Y202525D01*
Y203471D01*
X352487Y204345D01*
X351818Y205014D01*
X350944Y205376D01*
X349998D01*
X349124Y205014D01*
X348455Y204345D01*
X348335Y204055D01*
X347774Y203494D01*
X347127Y203762D01*
Y207769D01*
X347131Y207778D01*
Y208723D01*
X346769Y209597D01*
X346100Y210266D01*
X345226Y210628D01*
X344280D01*
X343625Y210357D01*
X342926Y210701D01*
Y212598D01*
X342745Y213507D01*
X342230Y214277D01*
X335681Y220826D01*
X335677Y220835D01*
X335008Y221504D01*
X334134Y221866D01*
X333188D01*
X332314Y221504D01*
X331645Y220835D01*
X331283Y219961D01*
Y219015D01*
X331645Y218141D01*
X332314Y217472D01*
X332323Y217469D01*
X338177Y211615D01*
Y199836D01*
X315648Y177307D01*
X314303D01*
X314303Y177307D01*
X313394Y177126D01*
X313111Y176937D01*
X312826Y176819D01*
X312157Y176150D01*
X311795Y175276D01*
Y174330D01*
X311842Y174216D01*
X311454Y173634D01*
X295713D01*
X295703Y173658D01*
X295034Y174327D01*
X294160Y174689D01*
X293214D01*
X292340Y174327D01*
X291671Y173658D01*
X291309Y172784D01*
Y172316D01*
X291298Y172258D01*
X291309Y172200D01*
Y171838D01*
X291448Y171503D01*
X291478Y171350D01*
X291565Y171220D01*
X291671Y170964D01*
X291867Y170768D01*
X291993Y170579D01*
X292991Y169581D01*
X292991Y169581D01*
X293761Y169066D01*
X294670Y168886D01*
X294670Y168886D01*
X302346D01*
Y168031D01*
X302709Y167157D01*
X303377Y166488D01*
X304251Y166126D01*
X305197D01*
X305206Y166130D01*
X311505D01*
X311773Y165483D01*
X308361Y162071D01*
X307846Y161300D01*
X307665Y160392D01*
Y151072D01*
X307661Y151064D01*
Y150118D01*
X308024Y149244D01*
X308692Y148575D01*
X309566Y148213D01*
X310512D01*
X311386Y148575D01*
X312055Y149244D01*
X312417Y150118D01*
Y151064D01*
X312414Y151072D01*
Y151843D01*
X313114Y152311D01*
X313503Y152150D01*
X314449D01*
X315323Y152512D01*
X315992Y153181D01*
X316354Y154055D01*
Y155001D01*
X316351Y155009D01*
Y160631D01*
X323621Y167901D01*
X329724D01*
X330633Y168082D01*
X331403Y168597D01*
X335340Y172534D01*
X335855Y173304D01*
X336036Y174213D01*
Y177560D01*
X347046Y188571D01*
X354452D01*
X354664Y187871D01*
X354520Y187774D01*
X353974Y186957D01*
X353782Y185994D01*
Y181102D01*
X353974Y180139D01*
X354520Y179323D01*
X376420Y157422D01*
Y115216D01*
X362048Y100844D01*
X343864D01*
X343575Y101544D01*
X343784Y101753D01*
X344146Y102627D01*
Y103573D01*
X343784Y104447D01*
X343115Y105116D01*
X342241Y105478D01*
X341295D01*
X340421Y105116D01*
X339752Y104447D01*
X339390Y103573D01*
Y102627D01*
X339752Y101753D01*
X339961Y101544D01*
X339671Y100844D01*
X311054D01*
X310786Y101490D01*
X312803Y103507D01*
X313349Y104324D01*
X313541Y105287D01*
Y132379D01*
X347252Y166091D01*
X347798Y166907D01*
X347989Y167870D01*
Y169155D01*
X348352Y169343D01*
X348689Y169430D01*
X349430Y168935D01*
X350394Y168743D01*
X353117D01*
X353568Y168218D01*
X353412Y167548D01*
X352984Y167370D01*
X352315Y166701D01*
X351953Y165827D01*
Y164881D01*
X352315Y164007D01*
X352984Y163338D01*
X353858Y162976D01*
X354804D01*
X355678Y163338D01*
X356347Y164007D01*
X356548Y164493D01*
X357355Y164676D01*
X369530Y152501D01*
Y133096D01*
X368830Y132957D01*
X368551Y133631D01*
X367882Y134299D01*
X367008Y134661D01*
X366062D01*
X365188Y134299D01*
X364520Y133631D01*
X364158Y132756D01*
Y131810D01*
X364520Y130937D01*
X365188Y130268D01*
X366062Y129905D01*
X367008D01*
X367882Y130268D01*
X368551Y130937D01*
X368830Y131610D01*
X369530Y131471D01*
Y124016D01*
X369722Y123053D01*
X370268Y122236D01*
X371084Y121690D01*
X372047Y121499D01*
X373010Y121690D01*
X373827Y122236D01*
X374373Y123053D01*
X374564Y124016D01*
Y124491D01*
Y153543D01*
X374373Y154507D01*
X373827Y155323D01*
X356110Y173039D01*
X355294Y173585D01*
X354331Y173777D01*
X350394D01*
X349430Y173585D01*
X348836Y174030D01*
X348973Y174722D01*
Y175197D01*
X348782Y176160D01*
X348236Y176977D01*
X347420Y177522D01*
X346457Y177714D01*
X345923Y177608D01*
X345223Y178119D01*
Y178948D01*
X345031Y179911D01*
X344485Y180728D01*
X343669Y181273D01*
X342706Y181465D01*
X341743Y181273D01*
X340926Y180728D01*
X340381Y179911D01*
X340189Y178948D01*
Y168551D01*
X338014Y166376D01*
X337314Y166666D01*
Y167058D01*
X336952Y167932D01*
X336283Y168601D01*
X335409Y168963D01*
X334463D01*
X333589Y168601D01*
X332920Y167932D01*
X332558Y167058D01*
Y166112D01*
X332920Y165238D01*
X333589Y164569D01*
X334463Y164207D01*
X334855D01*
X335144Y163507D01*
X307543Y135906D01*
X306998Y135089D01*
X306875Y134474D01*
X306132Y134327D01*
X305913Y134654D01*
X305097Y135199D01*
X304134Y135391D01*
X303171Y135199D01*
X302354Y134654D01*
X301809Y133837D01*
X301617Y132874D01*
Y130606D01*
X300061D01*
Y130141D01*
X299586Y129638D01*
X297078D01*
Y126787D01*
X296578D01*
Y126287D01*
X293570D01*
Y124386D01*
X292601D01*
Y122891D01*
X289405D01*
Y138330D01*
X292050D01*
Y136793D01*
X293743D01*
Y135827D01*
X293935Y134864D01*
X294480Y134047D01*
X295297Y133502D01*
X296260Y133310D01*
X297223Y133502D01*
X298040Y134047D01*
X298585Y134864D01*
X298777Y135827D01*
Y136793D01*
X301105D01*
Y145455D01*
X300137D01*
Y148104D01*
X293019D01*
Y145455D01*
X292050D01*
Y143363D01*
X289405D01*
Y146653D01*
X289328Y147044D01*
X289107Y147374D01*
X288776Y147596D01*
X288386Y147673D01*
X282466D01*
Y202682D01*
X329897Y250113D01*
X453682D01*
X456365Y247430D01*
X457181Y246884D01*
X458145Y246693D01*
X468955D01*
X469918Y246884D01*
X470735Y247430D01*
X471280Y248247D01*
X471472Y249210D01*
X471280Y250173D01*
X470735Y250990D01*
X469918Y251535D01*
X468955Y251727D01*
X468233D01*
X467681Y252427D01*
X467770Y252876D01*
X467579Y253839D01*
X467033Y254655D01*
X466217Y255201D01*
X465254Y255393D01*
X464977D01*
X464533Y255934D01*
X464585Y256199D01*
X464394Y257162D01*
X463848Y257979D01*
X463032Y258524D01*
X462069Y258716D01*
X461862D01*
X461391Y259416D01*
X461515Y260037D01*
X461323Y261000D01*
X460777Y261817D01*
X459961Y262362D01*
X458998Y262554D01*
X458034Y262362D01*
X457218Y261817D01*
X456691Y262280D01*
X457050Y262816D01*
X457241Y263779D01*
X457050Y264743D01*
X456504Y265559D01*
X455688Y266105D01*
X454724Y266296D01*
X453784Y266109D01*
X453475Y266305D01*
X453219Y266585D01*
X453390Y267443D01*
X453585Y267681D01*
X488155D01*
Y239207D01*
X482283D01*
Y244094D01*
X469685D01*
Y226378D01*
X482283D01*
Y231265D01*
X490989D01*
X491378Y230683D01*
X491243Y230359D01*
X491108Y229331D01*
Y223425D01*
X491243Y222397D01*
X491640Y221440D01*
X492135Y220795D01*
X491883Y220094D01*
X488961D01*
Y217035D01*
X492323D01*
Y216535D01*
X492823D01*
Y212976D01*
X493076D01*
Y195866D01*
X493212Y194838D01*
X493608Y193881D01*
X494239Y193058D01*
X495062Y192427D01*
X496020Y192031D01*
X497047Y191895D01*
X505556D01*
X506584Y192031D01*
X507541Y192427D01*
X508364Y193058D01*
X508995Y193881D01*
X509391Y194838D01*
X509527Y195866D01*
Y195992D01*
X510227Y196396D01*
X510498Y196240D01*
X511311Y196022D01*
Y199409D01*
Y202797D01*
X510498Y202579D01*
X510227Y202423D01*
X509527Y202827D01*
Y205992D01*
X510227Y206396D01*
X510498Y206240D01*
X511311Y206022D01*
Y209409D01*
Y212797D01*
X510498Y212579D01*
X510227Y212423D01*
X509527Y212827D01*
Y215992D01*
X510227Y216396D01*
X510498Y216240D01*
X511311Y216022D01*
Y219409D01*
Y222797D01*
X510498Y222579D01*
X510227Y222423D01*
X509527Y222827D01*
Y225992D01*
X510227Y226396D01*
X510498Y226240D01*
X511311Y226022D01*
Y229410D01*
Y232797D01*
X510498Y232579D01*
X509722Y232131D01*
X509456Y231865D01*
X508553Y231893D01*
X508364Y232139D01*
X507541Y232770D01*
X506693Y233121D01*
Y239567D01*
X496097D01*
Y240929D01*
X499894D01*
Y244291D01*
Y247654D01*
X496097D01*
Y267681D01*
X537162D01*
Y181735D01*
X533465D01*
X533465Y181735D01*
Y181735D01*
X533380Y181719D01*
X531827Y181596D01*
X530231Y181213D01*
X528713Y180585D01*
X527313Y179727D01*
X526064Y178660D01*
X524998Y177411D01*
X524140Y176011D01*
X523511Y174494D01*
X523128Y172897D01*
X522999Y171260D01*
X523128Y169623D01*
X523511Y168026D01*
X524140Y166509D01*
X524998Y165109D01*
X526064Y163860D01*
X527313Y162793D01*
X528713Y161935D01*
X530231Y161307D01*
X531827Y160923D01*
X533380Y160801D01*
X533465Y160784D01*
X537162D01*
Y72948D01*
X536130Y72897D01*
X532429Y72348D01*
X528798Y71439D01*
X525275Y70178D01*
X521892Y68578D01*
X518682Y66654D01*
X515676Y64425D01*
X512903Y61912D01*
X510390Y59139D01*
X508161Y56133D01*
X506237Y52923D01*
X504637Y49540D01*
X503376Y46016D01*
X502467Y42386D01*
X501918Y38685D01*
X501734Y34947D01*
X501755Y34530D01*
X501741Y34461D01*
Y3996D01*
X501729Y3937D01*
X501729D01*
X501625Y3280D01*
X501622Y3265D01*
X501241Y2696D01*
X500672Y2315D01*
X500066Y2195D01*
X500000Y2208D01*
X39370D01*
X39304Y2195D01*
X38698Y2315D01*
X38129Y2696D01*
X37748Y3265D01*
X37745Y3280D01*
X37641Y3937D01*
X37641D01*
X37629Y3996D01*
Y34461D01*
X37615Y34530D01*
X37636Y34947D01*
X37452Y38685D01*
X36903Y42386D01*
X35994Y46016D01*
X34733Y49540D01*
X33133Y52923D01*
X31209Y56133D01*
X28980Y59139D01*
X26467Y61912D01*
X23694Y64425D01*
X20688Y66654D01*
X17478Y68578D01*
X14095Y70178D01*
X10572Y71439D01*
X6942Y72348D01*
X3240Y72897D01*
X2208Y72948D01*
Y160784D01*
X5906D01*
X5906Y160784D01*
Y160784D01*
X5990Y160801D01*
X7543Y160923D01*
X9139Y161307D01*
X10657Y161935D01*
X12057Y162793D01*
X13306Y163860D01*
X14372Y165109D01*
X15230Y166509D01*
X15859Y168026D01*
X16242Y169623D01*
X16371Y171260D01*
X16242Y172897D01*
X15859Y174494D01*
X15230Y176011D01*
X14372Y177411D01*
X13306Y178660D01*
X12057Y179727D01*
X10657Y180585D01*
X9139Y181213D01*
X7543Y181596D01*
X5990Y181719D01*
X5906Y181735D01*
X2196D01*
Y269571D01*
X3240Y269623D01*
X6942Y270172D01*
X10572Y271081D01*
X14095Y272342D01*
X17478Y273942D01*
X20688Y275866D01*
X23694Y278095D01*
X26467Y280608D01*
X28980Y283381D01*
X31209Y286387D01*
X33133Y289597D01*
X34733Y292980D01*
X35994Y296503D01*
X36903Y300133D01*
X37452Y303835D01*
X37636Y307573D01*
X37615Y307990D01*
X37629Y308059D01*
Y338523D01*
X37641Y338583D01*
X37641D01*
X37745Y339239D01*
X37748Y339254D01*
X38129Y339824D01*
X38698Y340205D01*
X39304Y340325D01*
X39370Y340312D01*
D02*
G37*
G36*
X505556Y195866D02*
X497047D01*
Y221457D01*
X495079Y223425D01*
Y229331D01*
X505556D01*
Y195866D01*
D02*
G37*
G36*
X233268Y181102D02*
X219488D01*
Y178150D01*
X213583D01*
Y181102D01*
Y191929D01*
X233268D01*
Y181102D01*
D02*
G37*
G36*
X174213Y186024D02*
Y170276D01*
X158465D01*
Y186024D01*
X147638D01*
Y196850D01*
X174213D01*
Y186024D01*
D02*
G37*
G36*
X126969Y176181D02*
X133858Y176181D01*
Y176181D01*
X149606D01*
Y161417D01*
X133858D01*
X126969Y170276D01*
X109252D01*
Y196850D01*
X126969Y196850D01*
Y176181D01*
D02*
G37*
G36*
X221654Y174028D02*
Y172441D01*
X234252D01*
Y173793D01*
X246063D01*
Y167913D01*
X258661D01*
X258833Y167284D01*
Y155804D01*
X256949D01*
Y154836D01*
X254299D01*
Y151277D01*
X253299D01*
Y154836D01*
X250437D01*
Y151661D01*
X249790Y151393D01*
X244440Y156744D01*
X244547Y157284D01*
Y158700D01*
X244271Y160088D01*
X243729Y161396D01*
X242943Y162572D01*
X241942Y163573D01*
X240766Y164359D01*
X239458Y164901D01*
X238070Y165177D01*
X236654D01*
X235266Y164901D01*
X235078Y164823D01*
X234547Y165177D01*
Y165177D01*
X233283D01*
Y167217D01*
X227953D01*
Y167717D01*
D01*
Y167217D01*
X222622D01*
Y165177D01*
X220177D01*
Y150807D01*
X220177D01*
X220532Y150277D01*
X220453Y150088D01*
X220177Y148700D01*
Y147284D01*
X220453Y145896D01*
X220995Y144589D01*
X221781Y143412D01*
X222201Y142992D01*
X221781Y142572D01*
X220995Y141395D01*
X220453Y140088D01*
X220177Y138700D01*
Y137285D01*
X220453Y135896D01*
X220995Y134589D01*
X221781Y133412D01*
X222201Y132992D01*
X221781Y132572D01*
X220995Y131395D01*
X220453Y130088D01*
X220177Y128700D01*
Y127285D01*
X220453Y125896D01*
X220995Y124589D01*
X221781Y123412D01*
X222201Y122992D01*
X221781Y122572D01*
X220995Y121396D01*
X220453Y120088D01*
X220177Y118700D01*
Y117285D01*
X220453Y115896D01*
X220995Y114589D01*
X221781Y113412D01*
X222201Y112992D01*
X221781Y112572D01*
X220995Y111396D01*
X220453Y110088D01*
X220177Y108700D01*
Y107295D01*
X220051Y107173D01*
X219568Y106914D01*
X213617Y112865D01*
Y170063D01*
X216036D01*
Y173425D01*
X216536D01*
Y173925D01*
X220094D01*
Y174258D01*
X220516Y174314D01*
X220953Y174495D01*
X221654Y174028D01*
D02*
G37*
G36*
X267692Y120554D02*
Y116167D01*
X265610D01*
Y117717D01*
X256949D01*
Y116748D01*
X254299D01*
Y113189D01*
Y109630D01*
X256949D01*
Y108661D01*
X256307Y108521D01*
X250393D01*
X243904Y115010D01*
X244271Y115896D01*
X244547Y117285D01*
Y118700D01*
X244349Y119695D01*
X244844Y120395D01*
X253227D01*
X253334Y120416D01*
X255516D01*
X255906Y120339D01*
X257244D01*
Y119685D01*
X257337Y119218D01*
X257602Y118822D01*
X257998Y118558D01*
X258465Y118465D01*
X263976D01*
X264443Y118558D01*
X264839Y118822D01*
X265104Y119218D01*
X265197Y119685D01*
Y120339D01*
X266184D01*
X266574Y120416D01*
X266905Y120637D01*
X266992Y120767D01*
X267692Y120554D01*
D02*
G37*
G36*
X276539Y123015D02*
Y117126D01*
X276617Y116736D01*
X276838Y116405D01*
X277169Y116184D01*
X277559Y116106D01*
X288386D01*
X288776Y116184D01*
X289107Y116405D01*
X289328Y116736D01*
X289405Y117126D01*
Y117857D01*
X292601D01*
Y116748D01*
X293019Y116677D01*
Y113815D01*
X300137D01*
Y116677D01*
X300807Y116748D01*
X306806D01*
Y114499D01*
X304270Y111963D01*
X300137D01*
Y112815D01*
X293019D01*
Y111963D01*
X291730D01*
X290767Y111772D01*
X289950Y111226D01*
X288861Y110137D01*
X288776Y110194D01*
X288386Y110272D01*
X279528D01*
X279137Y110194D01*
X278807Y109973D01*
X278586Y109642D01*
X278508Y109252D01*
Y97029D01*
X277861Y96761D01*
X277174Y97448D01*
Y98374D01*
X276982Y99338D01*
X276437Y100154D01*
X276386Y100205D01*
X275570Y100751D01*
X274606Y100942D01*
X273643Y100751D01*
X272827Y100205D01*
X272281Y99388D01*
X272089Y98425D01*
X272140Y98170D01*
Y96406D01*
X272332Y95443D01*
X272877Y94626D01*
X276075Y91429D01*
X276891Y90883D01*
X277854Y90692D01*
X278508D01*
Y79724D01*
X278586Y79334D01*
X278807Y79003D01*
X279137Y78782D01*
X279528Y78705D01*
X288386D01*
X288776Y78782D01*
X289107Y79003D01*
X289328Y79334D01*
X289405Y79724D01*
Y80456D01*
X292601D01*
Y78979D01*
X307805D01*
Y85199D01*
Y86362D01*
X308846D01*
X309809Y86554D01*
X310626Y87099D01*
X311171Y87916D01*
X311363Y88879D01*
X311171Y89842D01*
X310626Y90659D01*
X309809Y91204D01*
X308846Y91396D01*
X307805D01*
Y92837D01*
X308333Y93251D01*
X363484D01*
X364447Y93442D01*
X365264Y93988D01*
X380175Y108899D01*
X380822Y108631D01*
Y105386D01*
X341929Y66493D01*
X297302D01*
X291150Y72646D01*
X290333Y73191D01*
X290158Y73226D01*
Y74803D01*
X281228D01*
X280709Y74803D01*
X280527Y75428D01*
Y77575D01*
X277272D01*
Y74606D01*
X276772D01*
Y74106D01*
X273016D01*
Y71763D01*
X273016Y71638D01*
X272713Y71063D01*
X272047D01*
Y70125D01*
X268740D01*
Y71143D01*
X254882D01*
Y70534D01*
X254182Y70244D01*
X245874Y78551D01*
X245058Y79097D01*
X244444Y79219D01*
X244271Y80088D01*
X243729Y81396D01*
X242943Y82572D01*
X242523Y82992D01*
X242943Y83412D01*
X243729Y84589D01*
X244271Y85896D01*
X244547Y87284D01*
Y88700D01*
X244331Y89785D01*
X245238Y90692D01*
X254886D01*
Y82973D01*
X254963Y82582D01*
X255185Y82252D01*
X255515Y82030D01*
X255906Y81953D01*
X257310D01*
X257337Y81817D01*
X257602Y81421D01*
X257998Y81156D01*
X258465Y81063D01*
X263976D01*
X264443Y81156D01*
X264839Y81421D01*
X265104Y81817D01*
X265131Y81953D01*
X266184D01*
X266574Y82030D01*
X266905Y82252D01*
X267126Y82582D01*
X267204Y82973D01*
Y100348D01*
X267815Y100566D01*
X268560Y100664D01*
X269254Y100952D01*
X269851Y101409D01*
X272172Y103731D01*
X272776Y104194D01*
X273249Y104811D01*
X273547Y105529D01*
X273648Y106300D01*
Y124992D01*
X274295Y125260D01*
X276539Y123015D01*
D02*
G37*
G36*
X299852Y92837D02*
Y92458D01*
X299586Y91868D01*
X297078D01*
Y89018D01*
X296578D01*
Y88518D01*
X293570D01*
Y86616D01*
X292601D01*
Y85489D01*
X289405D01*
Y93251D01*
X299324D01*
X299852Y92837D01*
D02*
G37*
G36*
X251920Y65387D02*
X252736Y64842D01*
X253699Y64650D01*
X254882D01*
Y63191D01*
X268740D01*
Y64168D01*
X272047D01*
Y63189D01*
X278140D01*
X278585Y62648D01*
X278572Y62585D01*
Y60495D01*
X277272D01*
Y57526D01*
X276772D01*
Y57026D01*
X273016D01*
Y54809D01*
X272425Y54297D01*
X272424Y54296D01*
X271654Y54398D01*
X268740D01*
Y55420D01*
X254882D01*
Y53961D01*
X251043D01*
X249564Y55439D01*
Y63976D01*
X249373Y64939D01*
X248827Y65756D01*
X244811Y69772D01*
X244246Y70150D01*
X243729Y71395D01*
X242943Y72572D01*
X242776Y72740D01*
X243027Y73478D01*
X243091Y73531D01*
X243714Y73592D01*
X251920Y65387D01*
D02*
G37*
%LPC*%
G36*
X104365Y333110D02*
X103116D01*
X101891Y332867D01*
X100738Y332389D01*
X99699Y331695D01*
X99222Y331217D01*
X98740Y330868D01*
X98259Y331217D01*
X97781Y331695D01*
X96743Y332389D01*
X95589Y332867D01*
X94365Y333110D01*
X93116D01*
X91891Y332867D01*
X90738Y332389D01*
X89700Y331695D01*
X89222Y331217D01*
X88740Y330868D01*
X88259Y331217D01*
X87781Y331695D01*
X86743Y332389D01*
X85589Y332867D01*
X84364Y333110D01*
X83116D01*
X81891Y332867D01*
X80738Y332389D01*
X79699Y331695D01*
X79222Y331217D01*
X78740Y330868D01*
X78259Y331217D01*
X77781Y331695D01*
X76743Y332389D01*
X75589Y332867D01*
X74365Y333110D01*
X73116D01*
X71891Y332867D01*
X70738Y332389D01*
X69700Y331695D01*
X69222Y331217D01*
X68740Y330868D01*
X68259Y331217D01*
X67781Y331695D01*
X66743Y332389D01*
X65589Y332867D01*
X64364Y333110D01*
X63116D01*
X61891Y332867D01*
X60738Y332389D01*
X60696Y332361D01*
X60079Y332691D01*
Y333110D01*
X47402D01*
Y320433D01*
Y308622D01*
X60079D01*
Y309041D01*
X60696Y309371D01*
X60738Y309344D01*
X61891Y308866D01*
X63116Y308622D01*
X64364D01*
X65589Y308866D01*
X66743Y309344D01*
X67781Y310037D01*
X68259Y310515D01*
X68740Y310864D01*
X69222Y310515D01*
X69700Y310037D01*
X70738Y309344D01*
X71891Y308866D01*
X73116Y308622D01*
X74365D01*
X75589Y308866D01*
X76743Y309344D01*
X77781Y310037D01*
X78259Y310515D01*
X78740Y310864D01*
X79222Y310515D01*
X79699Y310037D01*
X80738Y309344D01*
X81891Y308866D01*
X83116Y308622D01*
X84364D01*
X85589Y308866D01*
X86743Y309344D01*
X87781Y310037D01*
X88259Y310515D01*
X88740Y310864D01*
X89222Y310515D01*
X89700Y310037D01*
X90738Y309344D01*
X91891Y308866D01*
X93116Y308622D01*
X94365D01*
X95589Y308866D01*
X96743Y309344D01*
X97781Y310037D01*
X98259Y310515D01*
X98740Y310864D01*
X99222Y310515D01*
X99699Y310037D01*
X100738Y309344D01*
X101891Y308866D01*
X103116Y308622D01*
X104365D01*
X105589Y308866D01*
X106743Y309344D01*
X107781Y310037D01*
X108664Y310920D01*
X109357Y311958D01*
X109694Y312770D01*
X110394Y312631D01*
Y308622D01*
X123071D01*
Y309041D01*
X123688Y309371D01*
X123730Y309344D01*
X124883Y308866D01*
X126108Y308622D01*
X127357D01*
X128581Y308866D01*
X129735Y309344D01*
X130773Y310037D01*
X131251Y310515D01*
X131732Y310864D01*
X132214Y310515D01*
X132692Y310037D01*
X133730Y309344D01*
X134883Y308866D01*
X136108Y308622D01*
X137357D01*
X138581Y308866D01*
X139735Y309344D01*
X140773Y310037D01*
X141251Y310515D01*
X141732Y310864D01*
X142214Y310515D01*
X142692Y310037D01*
X143730Y309344D01*
X144883Y308866D01*
X146108Y308622D01*
X147357D01*
X148581Y308866D01*
X149735Y309344D01*
X150773Y310037D01*
X151251Y310515D01*
X151732Y310864D01*
X152214Y310515D01*
X152692Y310037D01*
X153730Y309344D01*
X154883Y308866D01*
X156108Y308622D01*
X157357D01*
X157480Y308521D01*
Y296339D01*
X157571D01*
X157960Y295757D01*
X157745Y295238D01*
X157480Y293907D01*
Y292550D01*
X157745Y291219D01*
X158265Y289965D01*
X159019Y288836D01*
X159978Y287877D01*
X161107Y287123D01*
X162360Y286603D01*
X163691Y286339D01*
X165049D01*
X166380Y286603D01*
X167634Y287123D01*
X168762Y287877D01*
X169722Y288836D01*
X170476Y289965D01*
X170995Y291219D01*
X171260Y292550D01*
Y293907D01*
X170995Y295238D01*
X170780Y295757D01*
X171169Y296339D01*
X171260D01*
Y310118D01*
X171260D01*
X171141Y310405D01*
X171656Y310920D01*
X172350Y311958D01*
X172827Y313112D01*
X173071Y314336D01*
Y315585D01*
X172827Y316810D01*
X172350Y317963D01*
X171656Y319001D01*
X170773Y319884D01*
X169735Y320578D01*
X168581Y321056D01*
X167357Y321299D01*
X166108D01*
X164883Y321056D01*
X163730Y320578D01*
X162692Y319884D01*
X162214Y319406D01*
X161732Y319057D01*
X161251Y319406D01*
X160773Y319884D01*
X159735Y320578D01*
X158581Y321056D01*
X157357Y321299D01*
X156108D01*
X154883Y321056D01*
X153730Y320578D01*
X152692Y319884D01*
X152214Y319406D01*
X151732Y319057D01*
X151251Y319406D01*
X150773Y319884D01*
X149735Y320578D01*
X148581Y321056D01*
X147357Y321299D01*
X146108D01*
X144883Y321056D01*
X143730Y320578D01*
X142692Y319884D01*
X142214Y319406D01*
X141732Y319057D01*
X141251Y319406D01*
X140773Y319884D01*
X139735Y320578D01*
X138581Y321056D01*
X137357Y321299D01*
X136108D01*
X134883Y321056D01*
X133730Y320578D01*
X132692Y319884D01*
X132214Y319406D01*
X131732Y319057D01*
X131251Y319406D01*
X130773Y319884D01*
X129735Y320578D01*
X128581Y321056D01*
X127357Y321299D01*
X126108D01*
X124883Y321056D01*
X123730Y320578D01*
X123688Y320550D01*
X123071Y320880D01*
Y321299D01*
X110394D01*
Y317290D01*
X109694Y317151D01*
X109357Y317963D01*
X108664Y319001D01*
X107781Y319884D01*
X106910Y320466D01*
X106838Y320762D01*
Y320971D01*
X106910Y321266D01*
X107781Y321848D01*
X108664Y322731D01*
X109357Y323769D01*
X109835Y324923D01*
X110079Y326147D01*
Y327396D01*
X109835Y328621D01*
X109357Y329774D01*
X108664Y330812D01*
X107781Y331695D01*
X106743Y332389D01*
X105589Y332867D01*
X104365Y333110D01*
D02*
G37*
G36*
X127232Y330159D02*
Y327272D01*
X130120D01*
X129902Y328085D01*
X129454Y328860D01*
X128821Y329494D01*
X128045Y329941D01*
X127232Y330159D01*
D02*
G37*
G36*
X147232D02*
Y327272D01*
X150120D01*
X149902Y328085D01*
X149454Y328860D01*
X148821Y329494D01*
X148045Y329941D01*
X147232Y330159D01*
D02*
G37*
G36*
X167232D02*
Y327272D01*
X170120D01*
X169902Y328085D01*
X169454Y328860D01*
X168821Y329494D01*
X168045Y329941D01*
X167232Y330159D01*
D02*
G37*
G36*
X157232D02*
Y327272D01*
X160120D01*
X159902Y328085D01*
X159454Y328860D01*
X158821Y329494D01*
X158045Y329941D01*
X157232Y330159D01*
D02*
G37*
G36*
X120134Y330173D02*
X117232D01*
Y327272D01*
X120134D01*
Y330173D01*
D02*
G37*
G36*
X137232Y330159D02*
Y327272D01*
X140120D01*
X139902Y328085D01*
X139454Y328860D01*
X138821Y329494D01*
X138045Y329941D01*
X137232Y330159D01*
D02*
G37*
G36*
X146232Y330159D02*
X145419Y329941D01*
X144644Y329494D01*
X144010Y328860D01*
X143562Y328085D01*
X143345Y327272D01*
X146232D01*
Y330159D01*
D02*
G37*
G36*
X126232D02*
X125419Y329941D01*
X124644Y329494D01*
X124010Y328860D01*
X123563Y328085D01*
X123345Y327272D01*
X126232D01*
Y330159D01*
D02*
G37*
G36*
X166232D02*
X165419Y329941D01*
X164644Y329494D01*
X164010Y328860D01*
X163563Y328085D01*
X163345Y327272D01*
X166232D01*
Y330159D01*
D02*
G37*
G36*
X156232D02*
X155419Y329941D01*
X154644Y329494D01*
X154010Y328860D01*
X153562Y328085D01*
X153345Y327272D01*
X156232D01*
Y330159D01*
D02*
G37*
G36*
X136232D02*
X135419Y329941D01*
X134644Y329494D01*
X134010Y328860D01*
X133563Y328085D01*
X133345Y327272D01*
X136232D01*
Y330159D01*
D02*
G37*
G36*
X116232Y330173D02*
X113331D01*
Y327272D01*
X116232D01*
Y330173D01*
D02*
G37*
G36*
X170120Y326272D02*
X167232D01*
Y323384D01*
X168045Y323602D01*
X168821Y324050D01*
X169454Y324683D01*
X169902Y325459D01*
X170120Y326272D01*
D02*
G37*
G36*
X160120D02*
X157232D01*
Y323384D01*
X158045Y323602D01*
X158821Y324050D01*
X159454Y324683D01*
X159902Y325459D01*
X160120Y326272D01*
D02*
G37*
G36*
X150120D02*
X147232D01*
Y323384D01*
X148045Y323602D01*
X148821Y324050D01*
X149454Y324683D01*
X149902Y325459D01*
X150120Y326272D01*
D02*
G37*
G36*
X140120D02*
X137232D01*
Y323384D01*
X138045Y323602D01*
X138821Y324050D01*
X139454Y324683D01*
X139902Y325459D01*
X140120Y326272D01*
D02*
G37*
G36*
X130120D02*
X127232D01*
Y323384D01*
X128045Y323602D01*
X128821Y324050D01*
X129454Y324683D01*
X129902Y325459D01*
X130120Y326272D01*
D02*
G37*
G36*
X166232D02*
X163345D01*
X163563Y325459D01*
X164010Y324683D01*
X164644Y324050D01*
X165419Y323602D01*
X166232Y323384D01*
Y326272D01*
D02*
G37*
G36*
X156232D02*
X153345D01*
X153562Y325459D01*
X154010Y324683D01*
X154644Y324050D01*
X155419Y323602D01*
X156232Y323384D01*
Y326272D01*
D02*
G37*
G36*
X146232D02*
X143345D01*
X143562Y325459D01*
X144010Y324683D01*
X144644Y324050D01*
X145419Y323602D01*
X146232Y323384D01*
Y326272D01*
D02*
G37*
G36*
X136232D02*
X133345D01*
X133563Y325459D01*
X134010Y324683D01*
X134644Y324050D01*
X135419Y323602D01*
X136232Y323384D01*
Y326272D01*
D02*
G37*
G36*
X126232D02*
X123345D01*
X123563Y325459D01*
X124010Y324683D01*
X124644Y324050D01*
X125419Y323602D01*
X126232Y323384D01*
Y326272D01*
D02*
G37*
G36*
X120134D02*
X117232D01*
Y323370D01*
X120134D01*
Y326272D01*
D02*
G37*
G36*
X116232D02*
X113331D01*
Y323370D01*
X116232D01*
Y326272D01*
D02*
G37*
G36*
X218996Y330743D02*
X202264D01*
X201236Y330607D01*
X200278Y330211D01*
X199456Y329580D01*
X198825Y328757D01*
X198428Y327799D01*
X198293Y326772D01*
Y312992D01*
X198428Y311964D01*
X198825Y311007D01*
X199456Y310184D01*
X200278Y309553D01*
X201236Y309156D01*
X202264Y309021D01*
X203740D01*
Y298307D01*
X203831D01*
X204220Y297725D01*
X204005Y297206D01*
X203740Y295875D01*
Y294518D01*
X204005Y293187D01*
X204524Y291933D01*
X205278Y290805D01*
X206238Y289845D01*
X207366Y289091D01*
X208620Y288572D01*
X209951Y288307D01*
X211309D01*
X212640Y288572D01*
X213893Y289091D01*
X215022Y289845D01*
X215982Y290805D01*
X216736Y291933D01*
X217255Y293187D01*
X217520Y294518D01*
Y295875D01*
X217255Y297206D01*
X217040Y297725D01*
X217429Y298307D01*
X217520D01*
Y309021D01*
X218996D01*
X220024Y309156D01*
X220982Y309553D01*
X221804Y310184D01*
X222435Y311007D01*
X222832Y311964D01*
X222967Y312992D01*
Y326772D01*
X222832Y327799D01*
X222435Y328757D01*
X221804Y329580D01*
X220982Y330211D01*
X220024Y330607D01*
X218996Y330743D01*
D02*
G37*
G36*
X150285Y276575D02*
X148928D01*
X147597Y276310D01*
X146343Y275791D01*
X145214Y275037D01*
X144255Y274077D01*
X143501Y272949D01*
X142981Y271695D01*
X142717Y270364D01*
Y269006D01*
X142981Y267675D01*
X143501Y266422D01*
X144255Y265293D01*
X145214Y264333D01*
X146343Y263579D01*
X147597Y263060D01*
X148928Y262795D01*
X150285D01*
X151616Y263060D01*
X152870Y263579D01*
X153998Y264333D01*
X154958Y265293D01*
X155712Y266422D01*
X156231Y267675D01*
X156496Y269006D01*
Y270364D01*
X156231Y271695D01*
X155712Y272949D01*
X154958Y274077D01*
X153998Y275037D01*
X152870Y275791D01*
X151616Y276310D01*
X150285Y276575D01*
D02*
G37*
G36*
X16266Y265748D02*
X15230D01*
X14228Y265480D01*
X13331Y264961D01*
X12598Y264228D01*
X12079Y263331D01*
X11811Y262329D01*
Y261293D01*
X12079Y260291D01*
X12598Y259394D01*
X13331Y258661D01*
X14228Y258142D01*
X15230Y257874D01*
X16266D01*
X17268Y258142D01*
X18165Y258661D01*
X18898Y259394D01*
X19417Y260291D01*
X19685Y261293D01*
Y262329D01*
X19417Y263331D01*
X18898Y264228D01*
X18165Y264961D01*
X17268Y265480D01*
X16266Y265748D01*
D02*
G37*
G36*
X150127Y253953D02*
X150106D01*
Y250500D01*
X153559D01*
Y250520D01*
X153290Y251526D01*
X152769Y252427D01*
X152033Y253163D01*
X151132Y253683D01*
X150127Y253953D01*
D02*
G37*
G36*
X149106D02*
X149086D01*
X148081Y253683D01*
X147179Y253163D01*
X146443Y252427D01*
X145923Y251526D01*
X145653Y250520D01*
Y250500D01*
X149106D01*
Y253953D01*
D02*
G37*
G36*
X515213Y252811D02*
X512311D01*
Y249909D01*
X515213D01*
Y252811D01*
D02*
G37*
G36*
X511311D02*
X508410D01*
Y249909D01*
X511311D01*
Y252811D01*
D02*
G37*
G36*
X527024D02*
X524122D01*
Y249909D01*
X527024D01*
Y252811D01*
D02*
G37*
G36*
X523122D02*
X520221D01*
Y249909D01*
X523122D01*
Y252811D01*
D02*
G37*
G36*
X153559Y249500D02*
X150106D01*
Y246047D01*
X150127D01*
X151132Y246317D01*
X152033Y246837D01*
X152769Y247573D01*
X153290Y248474D01*
X153559Y249480D01*
Y249500D01*
D02*
G37*
G36*
X149106D02*
X145653D01*
Y249480D01*
X145923Y248474D01*
X146443Y247573D01*
X147179Y246837D01*
X148081Y246317D01*
X149086Y246047D01*
X149106D01*
Y249500D01*
D02*
G37*
G36*
X527024Y248909D02*
X524122D01*
Y246008D01*
X527024D01*
Y248909D01*
D02*
G37*
G36*
X523122D02*
X520221D01*
Y246008D01*
X523122D01*
Y248909D01*
D02*
G37*
G36*
X515213Y248909D02*
X512311D01*
Y246008D01*
X515213D01*
Y248909D01*
D02*
G37*
G36*
X511311D02*
X508410D01*
Y246008D01*
X511311D01*
Y248909D01*
D02*
G37*
G36*
X505724Y247654D02*
X500894D01*
Y244791D01*
X505724D01*
Y247654D01*
D02*
G37*
G36*
Y243791D02*
X500894D01*
Y240929D01*
X505724D01*
Y243791D01*
D02*
G37*
G36*
X512311Y242797D02*
Y239910D01*
X515199D01*
X514981Y240722D01*
X514533Y241498D01*
X513900Y242131D01*
X513124Y242579D01*
X512311Y242797D01*
D02*
G37*
G36*
X511311D02*
X510498Y242579D01*
X509722Y242131D01*
X509089Y241498D01*
X508641Y240722D01*
X508423Y239910D01*
X511311D01*
Y242797D01*
D02*
G37*
G36*
X524122D02*
Y239909D01*
X527010D01*
X526792Y240722D01*
X526344Y241498D01*
X525711Y242131D01*
X524935Y242579D01*
X524122Y242797D01*
D02*
G37*
G36*
X523122D02*
X522309Y242579D01*
X521533Y242131D01*
X520900Y241498D01*
X520452Y240722D01*
X520234Y239909D01*
X523122D01*
Y242797D01*
D02*
G37*
G36*
X527010Y238909D02*
X524122D01*
Y236022D01*
X524935Y236240D01*
X525711Y236687D01*
X526344Y237321D01*
X526792Y238096D01*
X527010Y238909D01*
D02*
G37*
G36*
X515199Y238910D02*
X512311D01*
Y236022D01*
X513124Y236240D01*
X513900Y236687D01*
X514533Y237321D01*
X514981Y238096D01*
X515199Y238910D01*
D02*
G37*
G36*
X511311D02*
X508423D01*
X508641Y238096D01*
X509089Y237321D01*
X509722Y236687D01*
X510498Y236240D01*
X511311Y236022D01*
Y238910D01*
D02*
G37*
G36*
X523122Y238909D02*
X520234D01*
X520452Y238096D01*
X520900Y237321D01*
X521533Y236687D01*
X522309Y236240D01*
X523122Y236022D01*
Y238909D01*
D02*
G37*
G36*
X258631Y236221D02*
X257274D01*
X255943Y235956D01*
X255424Y235741D01*
X254842Y236130D01*
Y236221D01*
X241063D01*
Y222441D01*
X254842D01*
Y222532D01*
X255424Y222920D01*
X255943Y222706D01*
X257274Y222441D01*
X258631D01*
X259962Y222706D01*
X261216Y223225D01*
X262345Y223979D01*
X263304Y224939D01*
X264058Y226067D01*
X264578Y227321D01*
X264843Y228652D01*
Y230009D01*
X264578Y231340D01*
X264058Y232594D01*
X263304Y233723D01*
X262345Y234682D01*
X261216Y235436D01*
X259962Y235956D01*
X258631Y236221D01*
D02*
G37*
G36*
X512311Y232797D02*
Y229909D01*
X515199D01*
X514981Y230722D01*
X514533Y231498D01*
X513900Y232131D01*
X513124Y232579D01*
X512311Y232797D01*
D02*
G37*
G36*
X524122D02*
Y229909D01*
X527010D01*
X526792Y230722D01*
X526344Y231498D01*
X525711Y232131D01*
X524935Y232579D01*
X524122Y232797D01*
D02*
G37*
G36*
X523122D02*
X522309Y232579D01*
X521533Y232131D01*
X520900Y231498D01*
X520452Y230722D01*
X520234Y229909D01*
X523122D01*
Y232797D01*
D02*
G37*
G36*
X95009Y232299D02*
X94988D01*
Y228847D01*
X98441D01*
Y228867D01*
X98172Y229872D01*
X97651Y230773D01*
X96915Y231509D01*
X96014Y232030D01*
X95009Y232299D01*
D02*
G37*
G36*
X93988D02*
X93968D01*
X92962Y232030D01*
X92061Y231509D01*
X91325Y230773D01*
X90805Y229872D01*
X90535Y228867D01*
Y228847D01*
X93988D01*
Y232299D01*
D02*
G37*
G36*
X527010Y228909D02*
X524122D01*
Y226022D01*
X524935Y226240D01*
X525711Y226688D01*
X526344Y227321D01*
X526792Y228097D01*
X527010Y228909D01*
D02*
G37*
G36*
X515199Y228909D02*
X512311D01*
Y226022D01*
X513124Y226240D01*
X513900Y226688D01*
X514533Y227321D01*
X514981Y228097D01*
X515199Y228909D01*
D02*
G37*
G36*
X523122Y228909D02*
X520234D01*
X520452Y228097D01*
X520900Y227321D01*
X521533Y226688D01*
X522309Y226240D01*
X523122Y226022D01*
Y228909D01*
D02*
G37*
G36*
X98441Y227847D02*
X94988D01*
Y224394D01*
X95009D01*
X96014Y224663D01*
X96915Y225184D01*
X97651Y225919D01*
X98172Y226821D01*
X98441Y227826D01*
Y227847D01*
D02*
G37*
G36*
X93988D02*
X90535D01*
Y227826D01*
X90805Y226821D01*
X91325Y225919D01*
X92061Y225184D01*
X92962Y224663D01*
X93968Y224394D01*
X93988D01*
Y227847D01*
D02*
G37*
G36*
X512311Y222797D02*
Y219910D01*
X515199D01*
X514981Y220722D01*
X514533Y221498D01*
X513900Y222131D01*
X513124Y222579D01*
X512311Y222797D01*
D02*
G37*
G36*
X524122D02*
Y219909D01*
X527010D01*
X526792Y220722D01*
X526344Y221498D01*
X525711Y222131D01*
X524935Y222579D01*
X524122Y222797D01*
D02*
G37*
G36*
X523122D02*
X522309Y222579D01*
X521533Y222131D01*
X520900Y221498D01*
X520452Y220722D01*
X520234Y219909D01*
X523122D01*
Y222797D01*
D02*
G37*
G36*
X527010Y218909D02*
X524122D01*
Y216022D01*
X524935Y216240D01*
X525711Y216687D01*
X526344Y217321D01*
X526792Y218096D01*
X527010Y218909D01*
D02*
G37*
G36*
X515199Y218910D02*
X512311D01*
Y216022D01*
X513124Y216240D01*
X513900Y216687D01*
X514533Y217321D01*
X514981Y218096D01*
X515199Y218910D01*
D02*
G37*
G36*
X523122Y218909D02*
X520234D01*
X520452Y218096D01*
X520900Y217321D01*
X521533Y216687D01*
X522309Y216240D01*
X523122Y216022D01*
Y218909D01*
D02*
G37*
G36*
X243242Y217288D02*
Y214034D01*
X246496D01*
X246242Y214983D01*
X245747Y215840D01*
X245048Y216539D01*
X244192Y217034D01*
X243242Y217288D01*
D02*
G37*
G36*
X224344D02*
Y214034D01*
X227599D01*
X227344Y214983D01*
X226850Y215840D01*
X226150Y216539D01*
X225294Y217034D01*
X224344Y217288D01*
D02*
G37*
G36*
X223344D02*
X222394Y217034D01*
X221538Y216539D01*
X220839Y215840D01*
X220344Y214983D01*
X220090Y214034D01*
X223344D01*
Y217288D01*
D02*
G37*
G36*
X491823Y216035D02*
X488961D01*
Y212976D01*
X491823D01*
Y216035D01*
D02*
G37*
G36*
X512311Y212797D02*
Y209910D01*
X515199D01*
X514981Y210722D01*
X514533Y211498D01*
X513900Y212131D01*
X513124Y212579D01*
X512311Y212797D01*
D02*
G37*
G36*
X524122D02*
Y209909D01*
X527010D01*
X526792Y210722D01*
X526344Y211498D01*
X525711Y212131D01*
X524935Y212579D01*
X524122Y212797D01*
D02*
G37*
G36*
X523122D02*
X522309Y212579D01*
X521533Y212131D01*
X520900Y211498D01*
X520452Y210722D01*
X520234Y209909D01*
X523122D01*
Y212797D01*
D02*
G37*
G36*
X246496Y213034D02*
X243242D01*
Y209779D01*
X244192Y210034D01*
X245048Y210528D01*
X245747Y211227D01*
X246242Y212084D01*
X246496Y213034D01*
D02*
G37*
G36*
X227599D02*
X224344D01*
Y209779D01*
X225294Y210034D01*
X226150Y210528D01*
X226850Y211227D01*
X227344Y212084D01*
X227599Y213034D01*
D02*
G37*
G36*
X223344D02*
X220090D01*
X220344Y212084D01*
X220839Y211227D01*
X221538Y210528D01*
X222394Y210034D01*
X223344Y209779D01*
Y213034D01*
D02*
G37*
G36*
X527010Y208909D02*
X524122D01*
Y206022D01*
X524935Y206240D01*
X525711Y206687D01*
X526344Y207321D01*
X526792Y208097D01*
X527010Y208909D01*
D02*
G37*
G36*
X515199Y208910D02*
X512311D01*
Y206022D01*
X513124Y206240D01*
X513900Y206687D01*
X514533Y207321D01*
X514981Y208097D01*
X515199Y208910D01*
D02*
G37*
G36*
X523122Y208909D02*
X520234D01*
X520452Y208097D01*
X520900Y207321D01*
X521533Y206687D01*
X522309Y206240D01*
X523122Y206022D01*
Y208909D01*
D02*
G37*
G36*
X95167Y215551D02*
X93810D01*
X92479Y215286D01*
X91225Y214767D01*
X90096Y214013D01*
X89137Y213053D01*
X88383Y211925D01*
X87863Y210671D01*
X87598Y209340D01*
Y207983D01*
X87863Y206652D01*
X88383Y205398D01*
X89137Y204270D01*
X90096Y203310D01*
X91225Y202556D01*
X92479Y202036D01*
X93810Y201772D01*
X95167D01*
X96498Y202036D01*
X97752Y202556D01*
X98880Y203310D01*
X99840Y204270D01*
X100594Y205398D01*
X101113Y206652D01*
X101378Y207983D01*
Y209340D01*
X101113Y210671D01*
X100594Y211925D01*
X99840Y213053D01*
X98880Y214013D01*
X97752Y214767D01*
X96498Y215286D01*
X95167Y215551D01*
D02*
G37*
G36*
X248510Y210162D02*
X247604D01*
X247343Y210128D01*
X247079Y210127D01*
X247021Y210119D01*
X246961Y210111D01*
X246943Y210107D01*
X246925Y210106D01*
X246869Y210099D01*
X246645Y210036D01*
X246576Y210027D01*
X246575Y210026D01*
X246408Y210004D01*
X246349Y209988D01*
X246316Y209975D01*
X246281Y209970D01*
X246226Y209954D01*
X246107Y209903D01*
X245981Y209875D01*
X245926Y209856D01*
X245816Y209799D01*
X245697Y209766D01*
X245642Y209742D01*
X245595Y209715D01*
X245543Y209698D01*
X245492Y209675D01*
X245388Y209609D01*
X245272Y209565D01*
X245221Y209538D01*
X245129Y209471D01*
X245128Y209470D01*
X245023Y209423D01*
X244972Y209392D01*
X244921Y209361D01*
X244741Y209214D01*
X244721Y209205D01*
X244695Y209183D01*
X244576Y209116D01*
X244529Y209080D01*
X244436Y208990D01*
X244331Y208917D01*
X244287Y208877D01*
X244282Y208871D01*
X244240Y208842D01*
X244197Y208803D01*
X244074Y208658D01*
X243930Y208535D01*
X243890Y208492D01*
X243861Y208450D01*
X243855Y208445D01*
X243816Y208402D01*
X243742Y208296D01*
X243652Y208203D01*
X243616Y208156D01*
X243549Y208037D01*
X243527Y208011D01*
X243523Y208001D01*
X243418Y207881D01*
X243386Y207834D01*
X243380Y207822D01*
X243372Y207812D01*
X243340Y207761D01*
X243286Y207639D01*
X243224Y207550D01*
X243212Y207516D01*
X243139Y207408D01*
X243111Y207353D01*
X243091Y207294D01*
X243058Y207241D01*
X243034Y207190D01*
X243018Y207137D01*
X242990Y207090D01*
X242966Y207035D01*
X242933Y206916D01*
X242876Y206806D01*
X242857Y206751D01*
X242829Y206625D01*
X242778Y206506D01*
X242762Y206451D01*
X242757Y206416D01*
X242744Y206383D01*
X242728Y206324D01*
X242706Y206157D01*
X242705Y206156D01*
X242696Y206087D01*
X242634Y205863D01*
X242626Y205807D01*
X242625Y205789D01*
X242621Y205771D01*
X242613Y205712D01*
X242605Y205653D01*
X242605Y205527D01*
X242603Y205521D01*
X242603Y205381D01*
X242570Y205128D01*
Y205010D01*
X242603Y204757D01*
X242603Y204617D01*
X242605Y204611D01*
X242605Y204485D01*
X242613Y204426D01*
X242621Y204367D01*
X242625Y204349D01*
X242626Y204330D01*
X242634Y204275D01*
X242696Y204051D01*
X242705Y203982D01*
X242706Y203981D01*
X242728Y203813D01*
X242744Y203754D01*
X242757Y203722D01*
X242762Y203687D01*
X242778Y203631D01*
X242829Y203513D01*
X242857Y203387D01*
X242876Y203332D01*
X242933Y203222D01*
X242966Y203103D01*
X242990Y203048D01*
X243018Y203000D01*
X243034Y202948D01*
X243058Y202897D01*
X243091Y202844D01*
X243111Y202785D01*
X243139Y202730D01*
X243212Y202622D01*
X243224Y202588D01*
X243286Y202499D01*
X243340Y202377D01*
X243372Y202326D01*
X243380Y202315D01*
X243386Y202304D01*
X243418Y202256D01*
X243523Y202137D01*
X243527Y202127D01*
X243549Y202101D01*
X243616Y201982D01*
X243652Y201935D01*
X243742Y201842D01*
X243816Y201736D01*
X243855Y201693D01*
X243861Y201688D01*
X243890Y201646D01*
X243930Y201603D01*
X244074Y201480D01*
X244197Y201335D01*
X244240Y201296D01*
X244282Y201267D01*
X244287Y201260D01*
X244331Y201221D01*
X244436Y201148D01*
X244529Y201058D01*
X244576Y201022D01*
X244695Y200955D01*
X244721Y200933D01*
X244741Y200924D01*
X244921Y200777D01*
X245023Y200715D01*
X245128Y200668D01*
X245129Y200667D01*
X245221Y200600D01*
X245272Y200573D01*
X245388Y200529D01*
X245492Y200463D01*
X245543Y200440D01*
X245595Y200423D01*
X245642Y200395D01*
X245697Y200372D01*
X245816Y200339D01*
X245926Y200282D01*
X245981Y200262D01*
X246107Y200235D01*
X246226Y200184D01*
X246281Y200168D01*
X246316Y200163D01*
X246349Y200149D01*
X246408Y200134D01*
X246575Y200112D01*
X246576Y200111D01*
X246645Y200102D01*
X246869Y200039D01*
X246925Y200031D01*
X246943Y200031D01*
X246961Y200026D01*
X247021Y200019D01*
X247079Y200011D01*
X247343Y200010D01*
X247604Y199976D01*
X248510D01*
X248771Y200010D01*
X249035Y200011D01*
X249093Y200019D01*
X249152Y200026D01*
X249170Y200031D01*
X249189Y200031D01*
X249244Y200039D01*
X249468Y200102D01*
X249537Y200111D01*
X249539Y200112D01*
X249706Y200134D01*
X249765Y200149D01*
X249798Y200163D01*
X249833Y200168D01*
X249888Y200184D01*
X250007Y200235D01*
X250133Y200262D01*
X250188Y200282D01*
X250298Y200339D01*
X250416Y200372D01*
X250471Y200395D01*
X250519Y200424D01*
X250571Y200440D01*
X250622Y200463D01*
X250726Y200529D01*
X250841Y200572D01*
X250892Y200600D01*
X250981Y200664D01*
X250986Y200668D01*
X251091Y200715D01*
X251142Y200746D01*
X251193Y200777D01*
X251373Y200924D01*
X251393Y200933D01*
X251418Y200955D01*
X251537Y201022D01*
X251585Y201057D01*
X251677Y201148D01*
X251783Y201221D01*
X251827Y201261D01*
X251832Y201267D01*
X251874Y201296D01*
X251917Y201335D01*
X252039Y201480D01*
X252184Y201603D01*
X252224Y201646D01*
X252253Y201688D01*
X252259Y201693D01*
X252298Y201736D01*
X252372Y201842D01*
X252462Y201935D01*
X252498Y201982D01*
X252565Y202101D01*
X252586Y202127D01*
X252591Y202137D01*
X252696Y202256D01*
X252727Y202304D01*
X252733Y202315D01*
X252742Y202326D01*
X252773Y202377D01*
X252828Y202499D01*
X252889Y202588D01*
X252902Y202622D01*
X252975Y202730D01*
X253002Y202785D01*
X253023Y202844D01*
X253056Y202897D01*
X253080Y202948D01*
X253096Y203001D01*
X253124Y203048D01*
X253148Y203103D01*
X253181Y203222D01*
X253237Y203331D01*
X253257Y203386D01*
X253284Y203513D01*
X253336Y203631D01*
X253351Y203687D01*
X253357Y203722D01*
X253370Y203754D01*
X253386Y203814D01*
X253408Y203981D01*
X253408Y203982D01*
X253417Y204051D01*
X253480Y204275D01*
X253488Y204330D01*
X253488Y204349D01*
X253493Y204367D01*
X253501Y204426D01*
X253509Y204485D01*
X253509Y204611D01*
X253510Y204617D01*
X253510Y204757D01*
X253544Y205010D01*
Y205128D01*
X253510Y205381D01*
X253510Y205521D01*
X253509Y205527D01*
X253509Y205653D01*
X253501Y205712D01*
X253493Y205771D01*
X253488Y205789D01*
X253488Y205807D01*
X253480Y205863D01*
X253417Y206087D01*
X253408Y206156D01*
X253408Y206157D01*
X253386Y206324D01*
X253370Y206383D01*
X253357Y206416D01*
X253351Y206451D01*
X253336Y206506D01*
X253284Y206625D01*
X253257Y206751D01*
X253237Y206807D01*
X253181Y206916D01*
X253148Y207035D01*
X253124Y207090D01*
X253096Y207137D01*
X253080Y207190D01*
X253056Y207241D01*
X253023Y207294D01*
X253002Y207353D01*
X252975Y207408D01*
X252902Y207516D01*
X252889Y207550D01*
X252828Y207639D01*
X252773Y207761D01*
X252742Y207812D01*
X252733Y207822D01*
X252727Y207834D01*
X252696Y207881D01*
X252591Y208001D01*
X252586Y208011D01*
X252565Y208037D01*
X252498Y208156D01*
X252462Y208203D01*
X252372Y208296D01*
X252298Y208402D01*
X252259Y208445D01*
X252253Y208450D01*
X252224Y208492D01*
X252184Y208535D01*
X252039Y208658D01*
X251917Y208803D01*
X251874Y208842D01*
X251832Y208871D01*
X251827Y208877D01*
X251783Y208916D01*
X251677Y208990D01*
X251585Y209081D01*
X251537Y209116D01*
X251418Y209183D01*
X251393Y209205D01*
X251373Y209214D01*
X251193Y209361D01*
X251091Y209423D01*
X250986Y209470D01*
X250981Y209474D01*
X250892Y209538D01*
X250841Y209565D01*
X250726Y209609D01*
X250622Y209675D01*
X250571Y209698D01*
X250519Y209714D01*
X250471Y209742D01*
X250416Y209766D01*
X250298Y209799D01*
X250188Y209856D01*
X250133Y209875D01*
X250007Y209903D01*
X249888Y209954D01*
X249833Y209970D01*
X249798Y209975D01*
X249765Y209988D01*
X249706Y210004D01*
X249539Y210026D01*
X249537Y210027D01*
X249468Y210036D01*
X249244Y210099D01*
X249189Y210106D01*
X249170Y210107D01*
X249152Y210111D01*
X249093Y210119D01*
X249035Y210127D01*
X248771Y210128D01*
X248510Y210162D01*
D02*
G37*
G36*
X512311Y202797D02*
Y199909D01*
X515199D01*
X514981Y200722D01*
X514533Y201498D01*
X513900Y202131D01*
X513124Y202579D01*
X512311Y202797D01*
D02*
G37*
G36*
X524122D02*
Y199909D01*
X527010D01*
X526792Y200722D01*
X526344Y201498D01*
X525711Y202131D01*
X524935Y202579D01*
X524122Y202797D01*
D02*
G37*
G36*
X523122D02*
X522309Y202579D01*
X521533Y202131D01*
X520900Y201498D01*
X520452Y200722D01*
X520234Y199909D01*
X523122D01*
Y202797D01*
D02*
G37*
G36*
X74553Y198819D02*
X74494Y198811D01*
X74461Y198818D01*
X72341D01*
X72341Y198818D01*
X71395D01*
X70521Y198456D01*
X69852Y197787D01*
X69490Y196913D01*
Y195967D01*
X69852Y195093D01*
X70521Y194424D01*
X70719Y194342D01*
X70931Y193497D01*
X70666Y193173D01*
X69958Y191848D01*
X69521Y190410D01*
X69383Y189003D01*
X69366Y188915D01*
X69366D01*
X69366Y188915D01*
Y170559D01*
X69363Y170559D01*
X69363Y170559D01*
X69365Y170543D01*
X69404Y170142D01*
X69430Y169886D01*
X69431Y169874D01*
X69554Y168621D01*
X70120Y166757D01*
X71038Y165040D01*
X71445Y164543D01*
X71613Y164292D01*
X71644Y164271D01*
X71728Y164145D01*
X71825Y164080D01*
X72273Y163534D01*
X72275Y163535D01*
X72275Y163535D01*
X73772Y162039D01*
X73772Y162039D01*
X74440Y161370D01*
X75314Y161008D01*
X76260D01*
X76261Y161008D01*
X77235D01*
X77280Y161017D01*
X77461Y160981D01*
X78035Y160677D01*
X78045Y160667D01*
X78047Y160665D01*
X78048Y160663D01*
X78073Y160647D01*
X78554Y160237D01*
X79690Y159266D01*
X80182Y158965D01*
X79992Y158291D01*
X66929D01*
X66210Y158197D01*
X65539Y157919D01*
X64964Y157477D01*
X56683Y149197D01*
X49613D01*
X49413Y149681D01*
X48659Y150809D01*
X47699Y151769D01*
X46571Y152523D01*
X46115Y152712D01*
X45998Y153518D01*
X46470Y153990D01*
X46990Y154892D01*
X47260Y155897D01*
Y155917D01*
X43307D01*
X39354D01*
Y155897D01*
X39624Y154892D01*
X40144Y153990D01*
X40616Y153518D01*
X40500Y152712D01*
X40044Y152523D01*
X38915Y151769D01*
X37955Y150809D01*
X37752Y150504D01*
X37052D01*
X36848Y150809D01*
X35888Y151769D01*
X34760Y152523D01*
X34304Y152712D01*
X34187Y153518D01*
X34659Y153990D01*
X35179Y154892D01*
X35449Y155897D01*
Y155917D01*
X31496D01*
X27543D01*
Y155897D01*
X27813Y154892D01*
X28333Y153990D01*
X28805Y153518D01*
X28689Y152712D01*
X28232Y152523D01*
X27104Y151769D01*
X26144Y150809D01*
X25390Y149681D01*
X24871Y148427D01*
X24606Y147096D01*
Y145739D01*
X24871Y144408D01*
X25390Y143154D01*
X26144Y142025D01*
X26752Y141417D01*
X26144Y140809D01*
X25390Y139681D01*
X24871Y138427D01*
X24606Y137096D01*
Y135739D01*
X24871Y134408D01*
X25390Y133154D01*
X26144Y132025D01*
X27104Y131066D01*
X27225Y130985D01*
X27022Y130315D01*
X24606D01*
Y116535D01*
X24697D01*
X25086Y115953D01*
X24871Y115435D01*
X24606Y114104D01*
Y112747D01*
X24871Y111416D01*
X25390Y110162D01*
X26144Y109033D01*
X26752Y108425D01*
X26144Y107817D01*
X25390Y106689D01*
X24871Y105435D01*
X24606Y104104D01*
Y102747D01*
X24871Y101416D01*
X25390Y100162D01*
X26144Y99033D01*
X26752Y98425D01*
X26144Y97817D01*
X25390Y96689D01*
X24871Y95435D01*
X24606Y94104D01*
Y92747D01*
X24871Y91416D01*
X25390Y90162D01*
X26144Y89033D01*
X26752Y88425D01*
X26144Y87817D01*
X25390Y86689D01*
X24871Y85435D01*
X24606Y84104D01*
Y82747D01*
X24871Y81415D01*
X25390Y80162D01*
X26144Y79033D01*
X27104Y78074D01*
X28232Y77320D01*
X28689Y77131D01*
X28805Y76325D01*
X28333Y75852D01*
X27813Y74951D01*
X27543Y73946D01*
Y73925D01*
X31496D01*
X35449D01*
Y73946D01*
X35179Y74951D01*
X34659Y75852D01*
X34187Y76325D01*
X34304Y77131D01*
X34760Y77320D01*
X35888Y78074D01*
X36848Y79033D01*
X37052Y79338D01*
X37752D01*
X37955Y79033D01*
X38563Y78425D01*
X37955Y77817D01*
X37201Y76689D01*
X36682Y75435D01*
X36417Y74104D01*
Y72747D01*
X36682Y71416D01*
X37201Y70162D01*
X37955Y69033D01*
X38915Y68074D01*
X40044Y67320D01*
X41297Y66800D01*
X42628Y66535D01*
X43986D01*
X45317Y66800D01*
X46571Y67320D01*
X47699Y68074D01*
X48659Y69033D01*
X49413Y70162D01*
X49932Y71416D01*
X50197Y72747D01*
Y74104D01*
X49932Y75435D01*
X49413Y76689D01*
X48659Y77817D01*
X48051Y78425D01*
X48659Y79033D01*
X49413Y80162D01*
X49932Y81415D01*
X50197Y82747D01*
Y84104D01*
X49932Y85435D01*
X49413Y86689D01*
X48659Y87817D01*
X48051Y88425D01*
X48659Y89033D01*
X49413Y90162D01*
X49932Y91416D01*
X50197Y92747D01*
Y94104D01*
X49932Y95435D01*
X49413Y96689D01*
X48659Y97817D01*
X48051Y98425D01*
X48659Y99033D01*
X49413Y100162D01*
X49932Y101416D01*
X50197Y102747D01*
Y104104D01*
X49932Y105435D01*
X49413Y106689D01*
X48659Y107817D01*
X48051Y108425D01*
X48659Y109033D01*
X49413Y110162D01*
X49932Y111416D01*
X50197Y112747D01*
Y114104D01*
X49932Y115435D01*
X49717Y115953D01*
X50106Y116535D01*
X50197D01*
Y127142D01*
X120896D01*
X139937Y108101D01*
Y94488D01*
X140032Y93769D01*
X140309Y93098D01*
X140751Y92523D01*
X148820Y84453D01*
Y64314D01*
X148915Y63595D01*
X149193Y62924D01*
X149635Y62349D01*
X150210Y61907D01*
X150881Y61629D01*
X151600Y61535D01*
X152320Y61629D01*
X152990Y61907D01*
X153016Y61927D01*
X153716Y61582D01*
Y58238D01*
X146941Y51462D01*
X146294Y51730D01*
Y74370D01*
X146159Y75398D01*
X145762Y76356D01*
X145131Y77178D01*
X144308Y77809D01*
X143351Y78206D01*
X142323Y78341D01*
X71457D01*
X70429Y78206D01*
X69471Y77809D01*
X68649Y77178D01*
X68018Y76356D01*
X67621Y75398D01*
X67486Y74370D01*
Y50748D01*
X67621Y49720D01*
X68018Y48763D01*
X68649Y47940D01*
X69471Y47309D01*
X70429Y46912D01*
X71457Y46777D01*
X142323D01*
X143174Y46889D01*
X143874Y46468D01*
Y41339D01*
X143969Y40619D01*
X144246Y39949D01*
X144688Y39373D01*
X145264Y38931D01*
X145934Y38654D01*
X146653Y38559D01*
X147373Y38654D01*
X148043Y38931D01*
X148619Y39373D01*
X149061Y39949D01*
X149338Y40619D01*
X149433Y41339D01*
Y46093D01*
X158462Y55121D01*
X158903Y55697D01*
X159181Y56367D01*
X159276Y57087D01*
Y68398D01*
X159976Y68537D01*
X159994Y68492D01*
X160436Y67916D01*
X167326Y61027D01*
X167902Y60585D01*
X168572Y60307D01*
X169291Y60212D01*
X184347D01*
X185067Y60307D01*
X185737Y60585D01*
X186313Y61027D01*
X186755Y61602D01*
X187032Y62273D01*
X187127Y62992D01*
X187032Y63712D01*
X186755Y64382D01*
X186313Y64958D01*
X185737Y65399D01*
X185067Y65677D01*
X184347Y65772D01*
X170443D01*
X165181Y71033D01*
Y87598D01*
X165086Y88318D01*
X164809Y88988D01*
X164367Y89564D01*
X163791Y90006D01*
X163121Y90283D01*
X162402Y90378D01*
X161682Y90283D01*
X161012Y90006D01*
X160436Y89564D01*
X159994Y88988D01*
X159976Y88943D01*
X159276Y89083D01*
Y90551D01*
X159181Y91271D01*
X158903Y91941D01*
X158462Y92517D01*
X153540Y97438D01*
X152965Y97880D01*
X152294Y98157D01*
X151575Y98252D01*
X150855Y98157D01*
X150185Y97880D01*
X149609Y97438D01*
X149168Y96862D01*
X148890Y96192D01*
X148795Y95472D01*
X148890Y94753D01*
X149168Y94083D01*
X149609Y93507D01*
X153716Y89400D01*
Y88409D01*
X153016Y88119D01*
X145496Y95640D01*
Y109252D01*
X145402Y109971D01*
X145124Y110642D01*
X144682Y111217D01*
X124013Y131887D01*
X123437Y132328D01*
X122767Y132606D01*
X122047Y132701D01*
X49874D01*
X49515Y133401D01*
X49932Y134408D01*
X50197Y135739D01*
Y137096D01*
X49932Y138427D01*
X49413Y139681D01*
X48659Y140809D01*
X48051Y141417D01*
X48659Y142025D01*
X49413Y143154D01*
X49613Y143638D01*
X57835D01*
X58554Y143732D01*
X59224Y144010D01*
X59800Y144452D01*
X68081Y152732D01*
X104331D01*
X105050Y152827D01*
X105721Y153104D01*
X106296Y153546D01*
X106738Y154122D01*
X107016Y154792D01*
X107110Y155512D01*
X107059Y155900D01*
X107577Y156552D01*
X107980Y156512D01*
X109416Y156077D01*
X110740Y155370D01*
X111814Y154487D01*
X111876Y154395D01*
X123261Y143010D01*
X123353Y142948D01*
X124533Y141940D01*
X125950Y141073D01*
X127484Y140437D01*
X129099Y140049D01*
X130646Y139928D01*
X130754Y139906D01*
X165538D01*
X165639Y139926D01*
X166422Y139770D01*
X166575Y139668D01*
X166763Y139342D01*
X167243Y138863D01*
X167830Y138524D01*
X168484Y138348D01*
X169162D01*
X169817Y138524D01*
X170405Y138863D01*
X170884Y139342D01*
X171223Y139929D01*
X171398Y140584D01*
Y141262D01*
X171223Y141917D01*
X170884Y142504D01*
X170853Y142535D01*
X170418Y142998D01*
X170853Y143461D01*
X170884Y143492D01*
X171223Y144079D01*
X171398Y144734D01*
Y145412D01*
X171223Y146067D01*
X170884Y146654D01*
X170405Y147133D01*
X169817Y147472D01*
X169162Y147648D01*
X168484D01*
X167830Y147472D01*
X167243Y147133D01*
X166763Y146654D01*
X166575Y146328D01*
X166422Y146226D01*
X165639Y146070D01*
X165538Y146090D01*
X131566D01*
X131482Y146073D01*
X130378Y146182D01*
X129237Y146528D01*
X128185Y147090D01*
X127328Y147794D01*
X127280Y147865D01*
X127279Y147866D01*
X127278Y147868D01*
X126988Y148157D01*
X126737Y148408D01*
X126495Y148618D01*
X126495Y148618D01*
X125783Y149203D01*
X125721Y149295D01*
X116244Y158773D01*
X116221Y158788D01*
X114596Y160175D01*
X112752Y161305D01*
X112309Y161489D01*
X112449Y162189D01*
X112689D01*
Y165051D01*
X109630D01*
Y162968D01*
X109080Y162535D01*
X108651Y162638D01*
X106521Y162806D01*
X106495Y162811D01*
X87804D01*
X87694Y162789D01*
X86310Y162926D01*
X84874Y163361D01*
X83551Y164068D01*
X82923Y164583D01*
X82414Y165043D01*
X82411Y165046D01*
X82410Y165048D01*
X77995Y169463D01*
X77223Y169978D01*
X76563Y170109D01*
X76023Y171120D01*
X75648Y172354D01*
X75531Y173546D01*
X75550Y173638D01*
Y185130D01*
X75540Y185179D01*
X75589Y185429D01*
X75909Y185997D01*
X76427Y186437D01*
X76937Y186855D01*
X78150Y188333D01*
X78194Y188350D01*
X78302Y188361D01*
X78938Y188302D01*
X79278Y187714D01*
X79977Y187014D01*
X80834Y186520D01*
X81784Y186265D01*
Y190020D01*
X82284D01*
D01*
X81784D01*
Y193774D01*
X80834Y193520D01*
X80534Y193346D01*
X80331Y193397D01*
X79824Y193745D01*
X79673Y194890D01*
X79144Y196169D01*
X78301Y197267D01*
X77203Y198109D01*
X75925Y198639D01*
X74553Y198819D01*
D02*
G37*
G36*
X243242Y200359D02*
Y197104D01*
X246496D01*
X246242Y198054D01*
X245747Y198911D01*
X245048Y199610D01*
X244192Y200104D01*
X243242Y200359D01*
D02*
G37*
G36*
X223344D02*
X222394Y200104D01*
X221538Y199610D01*
X220839Y198911D01*
X220344Y198054D01*
X220090Y197104D01*
X223344D01*
Y200359D01*
D02*
G37*
G36*
X527010Y198909D02*
X524122D01*
Y196022D01*
X524935Y196240D01*
X525711Y196687D01*
X526344Y197321D01*
X526792Y198097D01*
X527010Y198909D01*
D02*
G37*
G36*
X515199Y198909D02*
X512311D01*
Y196022D01*
X513124Y196240D01*
X513900Y196687D01*
X514533Y197321D01*
X514981Y198097D01*
X515199Y198909D01*
D02*
G37*
G36*
X523122Y198909D02*
X520234D01*
X520452Y198097D01*
X520900Y197321D01*
X521533Y196687D01*
X522309Y196240D01*
X523122Y196022D01*
Y198909D01*
D02*
G37*
G36*
X309767Y203759D02*
X308821D01*
X307946Y203397D01*
X307278Y202728D01*
X306916Y201854D01*
Y201453D01*
X306828Y200894D01*
X306269Y200806D01*
X305868D01*
X304994Y200444D01*
X304325Y199776D01*
X303963Y198901D01*
Y198500D01*
X303875Y197942D01*
X303316Y197854D01*
X302915D01*
X302041Y197492D01*
X301372Y196823D01*
X301010Y195949D01*
Y195548D01*
X300922Y194989D01*
X300363Y194901D01*
X299962D01*
X299088Y194539D01*
X298419Y193870D01*
X298057Y192996D01*
Y192050D01*
X298419Y191176D01*
X299088Y190507D01*
X299962Y190145D01*
X300363D01*
X300922Y190057D01*
X301010Y189498D01*
Y189097D01*
X301372Y188223D01*
X302041Y187554D01*
X302915Y187192D01*
X303861D01*
X304735Y187554D01*
X305404Y188223D01*
X305766Y189097D01*
Y189498D01*
X305854Y190057D01*
X306413Y190145D01*
X306814D01*
X307688Y190507D01*
X308357Y191176D01*
X308719Y192050D01*
Y192451D01*
X308807Y193010D01*
X309365Y193098D01*
X309767D01*
X310641Y193460D01*
X311309Y194129D01*
X311488Y194177D01*
X312037Y193755D01*
X312899Y193398D01*
X313824Y193277D01*
X325088D01*
X325252Y193182D01*
X326253Y192913D01*
X327290D01*
X328291Y193182D01*
X329189Y193700D01*
X329922Y194433D01*
X330440Y195331D01*
X330709Y196332D01*
Y197369D01*
X330440Y198370D01*
X329922Y199268D01*
X329189Y200001D01*
X328291Y200519D01*
X327290Y200787D01*
X326253D01*
X325252Y200519D01*
X325088Y200424D01*
X315305D01*
X314773Y200956D01*
X314033Y201523D01*
X313171Y201881D01*
X312246Y202002D01*
X311643Y201923D01*
X311310Y202728D01*
X310641Y203397D01*
X309767Y203759D01*
D02*
G37*
G36*
X246496Y196104D02*
X243242D01*
Y192850D01*
X244192Y193104D01*
X245048Y193599D01*
X245747Y194298D01*
X246242Y195155D01*
X246496Y196104D01*
D02*
G37*
G36*
X136039Y196669D02*
X133177D01*
Y191839D01*
X136039D01*
Y196669D01*
D02*
G37*
G36*
X82784Y193774D02*
Y190520D01*
X86038D01*
X85783Y191469D01*
X85289Y192326D01*
X84590Y193025D01*
X83733Y193520D01*
X82784Y193774D01*
D02*
G37*
G36*
X63886Y193774D02*
Y190520D01*
X67140D01*
X66886Y191469D01*
X66391Y192326D01*
X65692Y193025D01*
X64836Y193520D01*
X63886Y193774D01*
D02*
G37*
G36*
X62886Y193774D02*
X61936Y193520D01*
X61080Y193025D01*
X60380Y192326D01*
X59886Y191469D01*
X59631Y190520D01*
X62886D01*
Y193774D01*
D02*
G37*
G36*
X200803Y190370D02*
X197350D01*
Y186917D01*
X200803D01*
Y190370D01*
D02*
G37*
G36*
X196350D02*
X192898D01*
Y186917D01*
X196350D01*
Y190370D01*
D02*
G37*
G36*
X62886Y189520D02*
X59631D01*
X59886Y188570D01*
X60380Y187714D01*
X61080Y187014D01*
X61936Y186520D01*
X62886Y186265D01*
Y189520D01*
D02*
G37*
G36*
X86038D02*
X82784D01*
Y186265D01*
X83733Y186520D01*
X84590Y187014D01*
X85289Y187714D01*
X85783Y188570D01*
X86038Y189520D01*
D02*
G37*
G36*
X67140D02*
X63886D01*
Y186265D01*
X64836Y186520D01*
X65692Y187014D01*
X66391Y187714D01*
X66886Y188570D01*
X67140Y189520D01*
D02*
G37*
G36*
X136039Y190839D02*
X133177D01*
Y186008D01*
X136039D01*
Y190839D01*
D02*
G37*
G36*
X90551Y184697D02*
X85252D01*
X84862Y184619D01*
X84531Y184398D01*
X84310Y184067D01*
X84232Y183677D01*
Y179134D01*
X84310Y178744D01*
X84531Y178413D01*
X84862Y178192D01*
X85252Y178114D01*
X90551D01*
X90941Y178192D01*
X91272Y178413D01*
X91493Y178744D01*
X91571Y179134D01*
Y183677D01*
X91493Y184067D01*
X91272Y184398D01*
X90941Y184619D01*
X90551Y184697D01*
D02*
G37*
G36*
X58524Y186648D02*
X57618D01*
X57357Y186614D01*
X57093Y186613D01*
X57034Y186606D01*
X56976Y186598D01*
X56957Y186593D01*
X56939Y186592D01*
X56884Y186585D01*
X56659Y186522D01*
X56590Y186513D01*
X56589Y186512D01*
X56422Y186490D01*
X56363Y186475D01*
X56330Y186461D01*
X56295Y186456D01*
X56240Y186440D01*
X56121Y186389D01*
X55995Y186362D01*
X55940Y186342D01*
X55830Y186286D01*
X55711Y186252D01*
X55656Y186229D01*
X55609Y186201D01*
X55556Y186184D01*
X55505Y186161D01*
X55402Y186095D01*
X55287Y186052D01*
X55236Y186024D01*
X55147Y185960D01*
X55142Y185956D01*
X55037Y185909D01*
X54986Y185878D01*
X54935Y185847D01*
X54755Y185700D01*
X54735Y185691D01*
X54709Y185669D01*
X54590Y185602D01*
X54543Y185567D01*
X54450Y185476D01*
X54344Y185403D01*
X54301Y185363D01*
X54296Y185357D01*
X54254Y185328D01*
X54211Y185289D01*
X54088Y185144D01*
X53944Y185021D01*
X53904Y184978D01*
X53875Y184936D01*
X53869Y184931D01*
X53830Y184888D01*
X53756Y184782D01*
X53666Y184689D01*
X53630Y184642D01*
X53563Y184523D01*
X53541Y184497D01*
X53537Y184487D01*
X53432Y184368D01*
X53400Y184320D01*
X53395Y184309D01*
X53386Y184298D01*
X53354Y184247D01*
X53300Y184125D01*
X53238Y184037D01*
X53226Y184002D01*
X53153Y183894D01*
X53125Y183839D01*
X53105Y183780D01*
X53072Y183727D01*
X53048Y183676D01*
X53032Y183623D01*
X53004Y183576D01*
X52980Y183521D01*
X52947Y183402D01*
X52890Y183293D01*
X52871Y183238D01*
X52843Y183111D01*
X52792Y182993D01*
X52776Y182938D01*
X52771Y182902D01*
X52758Y182870D01*
X52742Y182811D01*
X52720Y182643D01*
X52719Y182642D01*
X52710Y182573D01*
X52648Y182349D01*
X52640Y182294D01*
X52640Y182275D01*
X52635Y182257D01*
X52627Y182198D01*
X52619Y182139D01*
X52619Y182013D01*
X52617Y182007D01*
X52617Y181867D01*
X52584Y181614D01*
Y181496D01*
X52617Y181243D01*
X52617Y181103D01*
X52619Y181097D01*
X52619Y180971D01*
X52627Y180912D01*
X52635Y180853D01*
X52640Y180835D01*
X52640Y180817D01*
X52648Y180762D01*
X52710Y180537D01*
X52719Y180468D01*
X52720Y180467D01*
X52742Y180300D01*
X52758Y180241D01*
X52771Y180208D01*
X52776Y180173D01*
X52792Y180118D01*
X52843Y179999D01*
X52871Y179873D01*
X52890Y179817D01*
X52947Y179708D01*
X52980Y179589D01*
X53004Y179534D01*
X53032Y179487D01*
X53048Y179434D01*
X53072Y179383D01*
X53105Y179330D01*
X53125Y179271D01*
X53153Y179216D01*
X53226Y179108D01*
X53238Y179074D01*
X53300Y178985D01*
X53354Y178864D01*
X53386Y178812D01*
X53395Y178802D01*
X53400Y178790D01*
X53432Y178743D01*
X53537Y178623D01*
X53541Y178613D01*
X53563Y178587D01*
X53630Y178468D01*
X53666Y178421D01*
X53756Y178328D01*
X53830Y178222D01*
X53869Y178179D01*
X53875Y178174D01*
X53904Y178132D01*
X53944Y178089D01*
X54088Y177966D01*
X54211Y177822D01*
X54254Y177782D01*
X54296Y177753D01*
X54301Y177747D01*
X54344Y177708D01*
X54450Y177634D01*
X54543Y177543D01*
X54590Y177508D01*
X54709Y177441D01*
X54735Y177419D01*
X54755Y177410D01*
X54935Y177264D01*
X55037Y177201D01*
X55142Y177154D01*
X55147Y177150D01*
X55236Y177086D01*
X55287Y177059D01*
X55402Y177015D01*
X55505Y176950D01*
X55556Y176926D01*
X55609Y176910D01*
X55656Y176882D01*
X55711Y176858D01*
X55830Y176825D01*
X55940Y176768D01*
X55995Y176749D01*
X56121Y176721D01*
X56240Y176670D01*
X56295Y176654D01*
X56330Y176649D01*
X56363Y176636D01*
X56422Y176620D01*
X56589Y176598D01*
X56590Y176597D01*
X56659Y176588D01*
X56884Y176526D01*
X56939Y176518D01*
X56957Y176517D01*
X56976Y176513D01*
X57034Y176505D01*
X57093Y176497D01*
X57357Y176497D01*
X57618Y176462D01*
X58524D01*
X58785Y176497D01*
X59049Y176497D01*
X59107Y176505D01*
X59166Y176513D01*
X59184Y176517D01*
X59203Y176518D01*
X59258Y176526D01*
X59483Y176588D01*
X59551Y176597D01*
X59553Y176598D01*
X59720Y176620D01*
X59779Y176636D01*
X59812Y176649D01*
X59847Y176654D01*
X59902Y176670D01*
X60021Y176721D01*
X60147Y176749D01*
X60202Y176768D01*
X60312Y176825D01*
X60431Y176858D01*
X60486Y176882D01*
X60533Y176910D01*
X60585Y176926D01*
X60636Y176950D01*
X60740Y177015D01*
X60855Y177059D01*
X60906Y177086D01*
X60999Y177153D01*
X61000Y177154D01*
X61105Y177201D01*
X61156Y177232D01*
X61207Y177264D01*
X61387Y177410D01*
X61407Y177419D01*
X61433Y177441D01*
X61552Y177508D01*
X61599Y177544D01*
X61691Y177634D01*
X61797Y177707D01*
X61840Y177747D01*
X61846Y177753D01*
X61888Y177782D01*
X61931Y177822D01*
X62053Y177966D01*
X62198Y178089D01*
X62238Y178132D01*
X62266Y178174D01*
X62273Y178179D01*
X62312Y178222D01*
X62386Y178328D01*
X62476Y178421D01*
X62512Y178468D01*
X62579Y178587D01*
X62600Y178613D01*
X62605Y178623D01*
X62710Y178743D01*
X62741Y178790D01*
X62747Y178802D01*
X62756Y178812D01*
X62787Y178864D01*
X62841Y178985D01*
X62903Y179074D01*
X62916Y179108D01*
X62989Y179216D01*
X63016Y179271D01*
X63037Y179330D01*
X63070Y179383D01*
X63094Y179434D01*
X63110Y179487D01*
X63138Y179534D01*
X63161Y179589D01*
X63195Y179708D01*
X63252Y179818D01*
X63271Y179873D01*
X63298Y179999D01*
X63350Y180118D01*
X63365Y180173D01*
X63371Y180208D01*
X63384Y180241D01*
X63400Y180300D01*
X63422Y180467D01*
X63422Y180468D01*
X63431Y180537D01*
X63494Y180762D01*
X63502Y180817D01*
X63502Y180835D01*
X63507Y180853D01*
X63515Y180912D01*
X63523Y180971D01*
X63523Y181097D01*
X63525Y181103D01*
X63524Y181243D01*
X63558Y181496D01*
Y181614D01*
X63524Y181867D01*
X63525Y182007D01*
X63523Y182013D01*
X63523Y182139D01*
X63515Y182198D01*
X63507Y182257D01*
X63502Y182275D01*
X63502Y182294D01*
X63494Y182349D01*
X63431Y182573D01*
X63422Y182642D01*
X63422Y182643D01*
X63400Y182811D01*
X63384Y182870D01*
X63371Y182902D01*
X63365Y182938D01*
X63350Y182993D01*
X63298Y183111D01*
X63271Y183237D01*
X63252Y183292D01*
X63195Y183402D01*
X63161Y183521D01*
X63138Y183577D01*
X63110Y183624D01*
X63094Y183676D01*
X63070Y183727D01*
X63037Y183780D01*
X63016Y183839D01*
X62989Y183894D01*
X62916Y184002D01*
X62903Y184037D01*
X62841Y184125D01*
X62787Y184247D01*
X62756Y184298D01*
X62747Y184309D01*
X62741Y184320D01*
X62710Y184368D01*
X62605Y184487D01*
X62600Y184497D01*
X62579Y184523D01*
X62512Y184642D01*
X62476Y184689D01*
X62386Y184782D01*
X62312Y184888D01*
X62273Y184931D01*
X62266Y184936D01*
X62238Y184978D01*
X62198Y185021D01*
X62053Y185144D01*
X61931Y185289D01*
X61888Y185328D01*
X61846Y185357D01*
X61840Y185364D01*
X61797Y185403D01*
X61691Y185476D01*
X61599Y185567D01*
X61552Y185602D01*
X61433Y185669D01*
X61407Y185691D01*
X61387Y185700D01*
X61207Y185847D01*
X61105Y185909D01*
X61000Y185956D01*
X60999Y185957D01*
X60906Y186024D01*
X60855Y186051D01*
X60740Y186095D01*
X60636Y186161D01*
X60585Y186184D01*
X60533Y186201D01*
X60486Y186229D01*
X60431Y186252D01*
X60312Y186286D01*
X60202Y186342D01*
X60147Y186362D01*
X60021Y186389D01*
X59902Y186440D01*
X59847Y186456D01*
X59812Y186461D01*
X59779Y186475D01*
X59720Y186490D01*
X59553Y186512D01*
X59551Y186513D01*
X59483Y186522D01*
X59258Y186585D01*
X59203Y186592D01*
X59184Y186593D01*
X59166Y186598D01*
X59107Y186606D01*
X59049Y186613D01*
X58785Y186614D01*
X58524Y186648D01*
D02*
G37*
G36*
X82784Y176845D02*
Y173591D01*
X86038D01*
X85783Y174540D01*
X85289Y175397D01*
X84590Y176096D01*
X83733Y176591D01*
X82784Y176845D01*
D02*
G37*
G36*
X63886Y176845D02*
Y173591D01*
X67140D01*
X66886Y174540D01*
X66391Y175397D01*
X65692Y176096D01*
X64836Y176591D01*
X63886Y176845D01*
D02*
G37*
G36*
X62886Y176845D02*
X61936Y176591D01*
X61080Y176096D01*
X60380Y175397D01*
X59886Y174540D01*
X59631Y173591D01*
X62886D01*
Y176845D01*
D02*
G37*
G36*
X81784Y176845D02*
X80834Y176591D01*
X79977Y176096D01*
X79278Y175397D01*
X78784Y174540D01*
X78529Y173591D01*
X81784D01*
Y176845D01*
D02*
G37*
G36*
X288859Y177575D02*
X287913D01*
X287039Y177213D01*
X286370Y176544D01*
X286008Y175670D01*
Y174724D01*
X286370Y173850D01*
X287039Y173181D01*
X287913Y172819D01*
X288859D01*
X289733Y173181D01*
X290402Y173850D01*
X290764Y174724D01*
Y175670D01*
X290402Y176544D01*
X289733Y177213D01*
X288859Y177575D01*
D02*
G37*
G36*
X62886Y172591D02*
X59631D01*
X59886Y171641D01*
X60380Y170784D01*
X61080Y170085D01*
X61936Y169591D01*
X62886Y169336D01*
Y172591D01*
D02*
G37*
G36*
X86038D02*
X82784D01*
Y169336D01*
X83733Y169591D01*
X84590Y170085D01*
X85289Y170784D01*
X85783Y171641D01*
X86038Y172591D01*
D02*
G37*
G36*
X81784D02*
X78529D01*
X78784Y171641D01*
X79278Y170784D01*
X79977Y170085D01*
X80834Y169591D01*
X81784Y169336D01*
Y172591D01*
D02*
G37*
G36*
X67140D02*
X63886D01*
Y169336D01*
X64836Y169591D01*
X65692Y170085D01*
X66391Y170784D01*
X66886Y171641D01*
X67140Y172591D01*
D02*
G37*
G36*
X50197Y193307D02*
X24606D01*
Y179528D01*
X24697D01*
X25086Y178946D01*
X24871Y178427D01*
X24606Y177096D01*
Y175739D01*
X24871Y174408D01*
X25390Y173154D01*
X26144Y172025D01*
X27104Y171066D01*
X28232Y170312D01*
X28689Y170123D01*
X28805Y169317D01*
X28333Y168844D01*
X27813Y167943D01*
X27543Y166938D01*
Y166917D01*
X31496D01*
X35449D01*
Y166938D01*
X35179Y167943D01*
X34659Y168844D01*
X34187Y169317D01*
X34304Y170123D01*
X34760Y170312D01*
X35888Y171066D01*
X36848Y172025D01*
X37052Y172330D01*
X37752D01*
X37955Y172025D01*
X38915Y171066D01*
X40044Y170312D01*
X40500Y170123D01*
X40616Y169317D01*
X40144Y168844D01*
X39624Y167943D01*
X39354Y166938D01*
Y166917D01*
X43307D01*
X47260D01*
Y166938D01*
X46990Y167943D01*
X46470Y168844D01*
X45998Y169317D01*
X46115Y170123D01*
X46571Y170312D01*
X47699Y171066D01*
X48659Y172025D01*
X49413Y173154D01*
X49932Y174408D01*
X50197Y175739D01*
Y177096D01*
X49932Y178427D01*
X49717Y178946D01*
X50106Y179528D01*
X50197D01*
Y193307D01*
D02*
G37*
G36*
X47260Y165917D02*
X43807D01*
Y162465D01*
X43828D01*
X44833Y162734D01*
X45734Y163254D01*
X46470Y163990D01*
X46990Y164892D01*
X47260Y165897D01*
Y165917D01*
D02*
G37*
G36*
X42807D02*
X39354D01*
Y165897D01*
X39624Y164892D01*
X40144Y163990D01*
X40880Y163254D01*
X41781Y162734D01*
X42787Y162465D01*
X42807D01*
Y165917D01*
D02*
G37*
G36*
X35449Y165917D02*
X31996D01*
Y162465D01*
X32016D01*
X33022Y162734D01*
X33923Y163254D01*
X34659Y163990D01*
X35179Y164892D01*
X35449Y165897D01*
Y165917D01*
D02*
G37*
G36*
X30996D02*
X27543D01*
Y165897D01*
X27813Y164892D01*
X28333Y163990D01*
X29069Y163254D01*
X29970Y162734D01*
X30976Y162465D01*
X30996D01*
Y165917D01*
D02*
G37*
G36*
X173835Y165051D02*
X170776D01*
Y162189D01*
X173835D01*
Y165051D01*
D02*
G37*
G36*
X169776D02*
X166717D01*
Y162189D01*
X169776D01*
Y165051D01*
D02*
G37*
G36*
X120563D02*
X117504D01*
Y162189D01*
X120563D01*
Y165051D01*
D02*
G37*
G36*
X116748D02*
X113689D01*
Y162189D01*
X116748D01*
Y165051D01*
D02*
G37*
G36*
X350124Y163119D02*
X349178D01*
X348304Y162757D01*
X347635Y162088D01*
X347273Y161214D01*
Y160268D01*
X347635Y159394D01*
X348304Y158725D01*
X349178Y158363D01*
X350124D01*
X350998Y158725D01*
X351667Y159394D01*
X352029Y160268D01*
Y161214D01*
X351667Y162088D01*
X350998Y162757D01*
X350124Y163119D01*
D02*
G37*
G36*
X43828Y160370D02*
X43807D01*
Y156917D01*
X47260D01*
Y156938D01*
X46990Y157943D01*
X46470Y158844D01*
X45734Y159580D01*
X44833Y160101D01*
X43828Y160370D01*
D02*
G37*
G36*
X42807D02*
X42787D01*
X41781Y160101D01*
X40880Y159580D01*
X40144Y158844D01*
X39624Y157943D01*
X39354Y156938D01*
Y156917D01*
X42807D01*
Y160370D01*
D02*
G37*
G36*
X32016D02*
X31996D01*
Y156917D01*
X35449D01*
Y156938D01*
X35179Y157943D01*
X34659Y158844D01*
X33923Y159580D01*
X33022Y160101D01*
X32016Y160370D01*
D02*
G37*
G36*
X30996D02*
X30976D01*
X29970Y160101D01*
X29069Y159580D01*
X28333Y158844D01*
X27813Y157943D01*
X27543Y156938D01*
Y156917D01*
X30996D01*
Y160370D01*
D02*
G37*
G36*
X165754Y160022D02*
X164808D01*
X163934Y159660D01*
X163265Y158991D01*
X162903Y158117D01*
Y157171D01*
X163265Y156297D01*
X163934Y155628D01*
X164808Y155266D01*
X165754D01*
X166628Y155628D01*
X167297Y156297D01*
X167659Y157171D01*
Y158117D01*
X167297Y158991D01*
X166628Y159660D01*
X165754Y160022D01*
D02*
G37*
G36*
X345157Y158152D02*
X344211D01*
X343337Y157790D01*
X342668Y157121D01*
X342306Y156247D01*
Y155301D01*
X342668Y154427D01*
X343337Y153758D01*
X344211Y153396D01*
X345157D01*
X346031Y153758D01*
X346700Y154427D01*
X347062Y155301D01*
Y156247D01*
X346700Y157121D01*
X346031Y157790D01*
X345157Y158152D01*
D02*
G37*
G36*
X473898Y164779D02*
X472952D01*
X472078Y164418D01*
X471409Y163749D01*
X471047Y162875D01*
Y161929D01*
X471409Y161055D01*
X472078Y160386D01*
X472237Y160320D01*
Y159562D01*
X472078Y159496D01*
X471409Y158827D01*
X471047Y157953D01*
Y157007D01*
X471409Y156133D01*
X472078Y155464D01*
X472237Y155398D01*
Y154641D01*
X472078Y154575D01*
X471409Y153906D01*
X471047Y153032D01*
Y152086D01*
X471409Y151212D01*
X472078Y150543D01*
X472952Y150181D01*
X473898D01*
X474772Y150543D01*
X475441Y151212D01*
X475803Y152086D01*
Y153032D01*
X475441Y153906D01*
X474772Y154575D01*
X474613Y154641D01*
Y155398D01*
X474772Y155464D01*
X475441Y156133D01*
X475803Y157007D01*
Y157953D01*
X475441Y158827D01*
X474772Y159496D01*
X474613Y159562D01*
Y160320D01*
X474772Y160386D01*
X475441Y161055D01*
X475803Y161929D01*
Y162875D01*
X475441Y163749D01*
X474772Y164418D01*
X473898Y164779D01*
D02*
G37*
G36*
X467993D02*
X467047D01*
X466173Y164418D01*
X465504Y163749D01*
X465142Y162875D01*
Y161929D01*
X465504Y161055D01*
X466173Y160386D01*
X466332Y160320D01*
Y159562D01*
X466173Y159496D01*
X465504Y158827D01*
X465142Y157953D01*
Y157007D01*
X465504Y156133D01*
X466173Y155464D01*
X466332Y155398D01*
Y154641D01*
X466173Y154575D01*
X465504Y153906D01*
X465142Y153032D01*
Y152086D01*
X465504Y151212D01*
X466173Y150543D01*
X467047Y150181D01*
X467993D01*
X468867Y150543D01*
X469536Y151212D01*
X469898Y152086D01*
Y153032D01*
X469536Y153906D01*
X468867Y154575D01*
X468708Y154641D01*
Y155398D01*
X468867Y155464D01*
X469536Y156133D01*
X469898Y157007D01*
Y157953D01*
X469536Y158827D01*
X468867Y159496D01*
X468708Y159562D01*
Y160320D01*
X468867Y160386D01*
X469536Y161055D01*
X469898Y161929D01*
Y162875D01*
X469536Y163749D01*
X468867Y164418D01*
X467993Y164779D01*
D02*
G37*
G36*
X300137Y151967D02*
X297078D01*
Y149104D01*
X300137D01*
Y151967D01*
D02*
G37*
G36*
X296078D02*
X293019D01*
Y149104D01*
X296078D01*
Y151967D01*
D02*
G37*
G36*
X515213Y146512D02*
X512311D01*
Y143610D01*
X515213D01*
Y146512D01*
D02*
G37*
G36*
X511311D02*
X508410D01*
Y143610D01*
X511311D01*
Y146512D01*
D02*
G37*
G36*
X527024D02*
X524122D01*
Y143610D01*
X527024D01*
Y146512D01*
D02*
G37*
G36*
X523122D02*
X520221D01*
Y143610D01*
X523122D01*
Y146512D01*
D02*
G37*
G36*
X469329Y145095D02*
X468383D01*
X467509Y144732D01*
X466840Y144063D01*
X466478Y143190D01*
Y142244D01*
X466840Y141369D01*
X467509Y140701D01*
X468383Y140339D01*
X469329D01*
X470203Y140701D01*
X470872Y141369D01*
X471234Y142244D01*
Y143190D01*
X470872Y144063D01*
X470203Y144732D01*
X469329Y145095D01*
D02*
G37*
G36*
X449109D02*
X448163D01*
X447289Y144732D01*
X446620Y144063D01*
X446258Y143190D01*
Y142244D01*
X446620Y141369D01*
X447289Y140701D01*
X448163Y140339D01*
X449109D01*
X449983Y140701D01*
X450652Y141369D01*
X451014Y142244D01*
Y143190D01*
X450652Y144063D01*
X449983Y144732D01*
X449109Y145095D01*
D02*
G37*
G36*
X435512D02*
X434566D01*
X433692Y144732D01*
X433023Y144063D01*
X432661Y143190D01*
Y142244D01*
X433023Y141369D01*
X433692Y140701D01*
X434566Y140339D01*
X435512D01*
X436386Y140701D01*
X437055Y141369D01*
X437417Y142244D01*
Y143190D01*
X437055Y144063D01*
X436386Y144732D01*
X435512Y145095D01*
D02*
G37*
G36*
X421733D02*
X420787D01*
X419913Y144732D01*
X419244Y144063D01*
X418882Y143190D01*
Y142244D01*
X419244Y141369D01*
X419913Y140701D01*
X420787Y140339D01*
X421733D01*
X422607Y140701D01*
X423276Y141369D01*
X423638Y142244D01*
Y143190D01*
X423276Y144063D01*
X422607Y144732D01*
X421733Y145095D01*
D02*
G37*
G36*
X401063D02*
X400117D01*
X399244Y144732D01*
X398575Y144063D01*
X398213Y143190D01*
Y142244D01*
X398575Y141369D01*
X399244Y140701D01*
X400117Y140339D01*
X401063D01*
X401938Y140701D01*
X402606Y141369D01*
X402969Y142244D01*
Y143190D01*
X402606Y144063D01*
X401938Y144732D01*
X401063Y145095D01*
D02*
G37*
G36*
X527024Y142610D02*
X524122D01*
Y139709D01*
X527024D01*
Y142610D01*
D02*
G37*
G36*
X523122D02*
X520221D01*
Y139709D01*
X523122D01*
Y142610D01*
D02*
G37*
G36*
X515213Y142610D02*
X512311D01*
Y139709D01*
X515213D01*
Y142610D01*
D02*
G37*
G36*
X511311D02*
X508410D01*
Y139709D01*
X511311D01*
Y142610D01*
D02*
G37*
G36*
X512311Y136498D02*
Y133610D01*
X515199D01*
X514981Y134423D01*
X514533Y135199D01*
X513900Y135832D01*
X513124Y136280D01*
X512311Y136498D01*
D02*
G37*
G36*
X511311D02*
X510498Y136280D01*
X509722Y135832D01*
X509089Y135199D01*
X508641Y134423D01*
X508423Y133610D01*
X511311D01*
Y136498D01*
D02*
G37*
G36*
X524122Y136498D02*
Y133610D01*
X527010D01*
X526792Y134423D01*
X526344Y135199D01*
X525711Y135832D01*
X524935Y136280D01*
X524122Y136498D01*
D02*
G37*
G36*
X523122Y136498D02*
X522309Y136280D01*
X521533Y135832D01*
X520900Y135199D01*
X520452Y134423D01*
X520234Y133610D01*
X523122D01*
Y136498D01*
D02*
G37*
G36*
X320355Y135252D02*
X319409D01*
X318535Y134890D01*
X317866Y134221D01*
X317504Y133347D01*
Y132401D01*
X317866Y131527D01*
X318535Y130858D01*
X319409Y130496D01*
X320355D01*
X321229Y130858D01*
X321898Y131527D01*
X322260Y132401D01*
Y133347D01*
X321898Y134221D01*
X321229Y134890D01*
X320355Y135252D01*
D02*
G37*
G36*
X527010Y132610D02*
X524122D01*
Y129723D01*
X524935Y129940D01*
X525711Y130388D01*
X526344Y131022D01*
X526792Y131797D01*
X527010Y132610D01*
D02*
G37*
G36*
X515199Y132610D02*
X512311D01*
Y129723D01*
X513124Y129940D01*
X513900Y130388D01*
X514533Y131022D01*
X514981Y131797D01*
X515199Y132610D01*
D02*
G37*
G36*
X511311D02*
X508423D01*
X508641Y131797D01*
X509089Y131022D01*
X509722Y130388D01*
X510498Y129940D01*
X511311Y129723D01*
Y132610D01*
D02*
G37*
G36*
X523122Y132610D02*
X520234D01*
X520452Y131797D01*
X520900Y131022D01*
X521533Y130388D01*
X522309Y129940D01*
X523122Y129723D01*
Y132610D01*
D02*
G37*
G36*
X296078Y129638D02*
X293570D01*
Y127287D01*
X296078D01*
Y129638D01*
D02*
G37*
G36*
X416812Y127378D02*
X415866D01*
X414992Y127016D01*
X414370Y126395D01*
X414171Y126270D01*
X413615Y126160D01*
X413437Y126338D01*
X413433Y126347D01*
X412764Y127016D01*
X411890Y127378D01*
X410944D01*
X410070Y127016D01*
X409401Y126347D01*
X409039Y125473D01*
Y124527D01*
X409401Y123653D01*
X410070Y122984D01*
X410079Y122980D01*
X427744Y105316D01*
Y100920D01*
X415354D01*
X414327Y100785D01*
X413369Y100388D01*
X412546Y99757D01*
X411915Y98934D01*
X411519Y97977D01*
X411383Y96949D01*
Y95659D01*
X407721D01*
Y92600D01*
X411083D01*
Y91600D01*
X407721D01*
Y88541D01*
X407721D01*
Y88500D01*
X407721D01*
Y85441D01*
X411083D01*
Y84441D01*
X407721D01*
Y81382D01*
X407721D01*
Y81177D01*
X407721D01*
Y78118D01*
X411083D01*
Y77118D01*
X407721D01*
Y74059D01*
Y71144D01*
X411083D01*
Y70144D01*
X407721D01*
Y67084D01*
X411383D01*
Y56102D01*
X411519Y55075D01*
X411915Y54117D01*
X412546Y53294D01*
X413369Y52663D01*
X414327Y52267D01*
X415354Y52131D01*
X450787D01*
X451815Y52267D01*
X452773Y52663D01*
X453595Y53294D01*
X454226Y54117D01*
X454623Y55075D01*
X454758Y56102D01*
Y96431D01*
X460968D01*
X461313Y95731D01*
X461128Y95489D01*
X460731Y94532D01*
X460596Y93504D01*
Y84319D01*
X460341D01*
Y80760D01*
Y77201D01*
X460596D01*
Y62992D01*
X460731Y61964D01*
X461128Y61007D01*
X461759Y60184D01*
X462581Y59553D01*
X463539Y59157D01*
X464567Y59021D01*
X483268D01*
X484296Y59157D01*
X485253Y59553D01*
X486076Y60184D01*
X486707Y61007D01*
X487103Y61964D01*
X487239Y62992D01*
Y93504D01*
X487103Y94532D01*
X486707Y95489D01*
X486076Y96312D01*
X485253Y96943D01*
X484296Y97340D01*
X483268Y97475D01*
X477165D01*
Y103740D01*
X464567D01*
Y102388D01*
X454758D01*
Y107283D01*
X454623Y108311D01*
X454226Y109269D01*
X453595Y110091D01*
X452773Y110722D01*
X451815Y111119D01*
X450787Y111254D01*
X438976D01*
X437949Y111119D01*
X436991Y110722D01*
X436168Y110091D01*
X435920Y109767D01*
X434990Y109706D01*
X418358Y126338D01*
X418355Y126347D01*
X417686Y127016D01*
X416812Y127378D01*
D02*
G37*
G36*
X512311Y126498D02*
Y123610D01*
X515199D01*
X514981Y124423D01*
X514533Y125199D01*
X513900Y125832D01*
X513124Y126280D01*
X512311Y126498D01*
D02*
G37*
G36*
X511311D02*
X510498Y126280D01*
X509722Y125832D01*
X509089Y125199D01*
X508641Y124423D01*
X508423Y123610D01*
X511311D01*
Y126498D01*
D02*
G37*
G36*
X524122Y126498D02*
Y123610D01*
X527010D01*
X526792Y124423D01*
X526344Y125199D01*
X525711Y125832D01*
X524935Y126280D01*
X524122Y126498D01*
D02*
G37*
G36*
X523122Y126498D02*
X522309Y126280D01*
X521533Y125832D01*
X520900Y125199D01*
X520452Y124423D01*
X520234Y123610D01*
X523122D01*
Y126498D01*
D02*
G37*
G36*
X527010Y122610D02*
X524122D01*
Y119723D01*
X524935Y119940D01*
X525711Y120388D01*
X526344Y121022D01*
X526792Y121797D01*
X527010Y122610D01*
D02*
G37*
G36*
X515199Y122610D02*
X512311D01*
Y119723D01*
X513124Y119940D01*
X513900Y120388D01*
X514533Y121022D01*
X514981Y121797D01*
X515199Y122610D01*
D02*
G37*
G36*
X511311D02*
X508423D01*
X508641Y121797D01*
X509089Y121022D01*
X509722Y120388D01*
X510498Y119940D01*
X511311Y119723D01*
Y122610D01*
D02*
G37*
G36*
X523122Y122610D02*
X520234D01*
X520452Y121797D01*
X520900Y121022D01*
X521533Y120388D01*
X522309Y119940D01*
X523122Y119723D01*
Y122610D01*
D02*
G37*
G36*
X320355Y119504D02*
X319409D01*
X318535Y119142D01*
X317866Y118473D01*
X317504Y117599D01*
Y116653D01*
X317866Y115779D01*
X318535Y115110D01*
X319409Y114748D01*
X320355D01*
X321229Y115110D01*
X321898Y115779D01*
X322260Y116653D01*
Y117599D01*
X321898Y118473D01*
X321229Y119142D01*
X320355Y119504D01*
D02*
G37*
G36*
X512311Y116498D02*
Y113610D01*
X515199D01*
X514981Y114423D01*
X514533Y115199D01*
X513900Y115832D01*
X513124Y116280D01*
X512311Y116498D01*
D02*
G37*
G36*
X511311D02*
X510498Y116280D01*
X509722Y115832D01*
X509089Y115199D01*
X508641Y114423D01*
X508423Y113610D01*
X511311D01*
Y116498D01*
D02*
G37*
G36*
X524122Y116498D02*
Y113610D01*
X527010D01*
X526792Y114423D01*
X526344Y115199D01*
X525711Y115832D01*
X524935Y116280D01*
X524122Y116498D01*
D02*
G37*
G36*
X523122Y116498D02*
X522309Y116280D01*
X521533Y115832D01*
X520900Y115199D01*
X520452Y114423D01*
X520234Y113610D01*
X523122D01*
Y116498D01*
D02*
G37*
G36*
X345945Y115895D02*
X344999D01*
X344125Y115533D01*
X343457Y114864D01*
X343094Y113990D01*
Y113044D01*
X343457Y112170D01*
X344125Y111501D01*
X344999Y111139D01*
X345945D01*
X346819Y111501D01*
X347488Y112170D01*
X347850Y113044D01*
Y113990D01*
X347488Y114864D01*
X346819Y115533D01*
X345945Y115895D01*
D02*
G37*
G36*
X527010Y112610D02*
X524122D01*
Y109723D01*
X524935Y109941D01*
X525711Y110388D01*
X526344Y111022D01*
X526792Y111797D01*
X527010Y112610D01*
D02*
G37*
G36*
X515199Y112610D02*
X512311D01*
Y109723D01*
X513124Y109941D01*
X513900Y110388D01*
X514533Y111022D01*
X514981Y111797D01*
X515199Y112610D01*
D02*
G37*
G36*
X511311D02*
X508423D01*
X508641Y111797D01*
X509089Y111022D01*
X509722Y110388D01*
X510498Y109941D01*
X511311Y109723D01*
Y112610D01*
D02*
G37*
G36*
X523122Y112610D02*
X520234D01*
X520452Y111797D01*
X520900Y111022D01*
X521533Y110388D01*
X522309Y109941D01*
X523122Y109723D01*
Y112610D01*
D02*
G37*
G36*
X476197Y111827D02*
X471366D01*
Y108965D01*
X476197D01*
Y111827D01*
D02*
G37*
G36*
X470366D02*
X465535D01*
Y108965D01*
X470366D01*
Y111827D01*
D02*
G37*
G36*
X476197Y107965D02*
X471366D01*
Y105102D01*
X476197D01*
Y107965D01*
D02*
G37*
G36*
X470366D02*
X465535D01*
Y105102D01*
X470366D01*
Y107965D01*
D02*
G37*
G36*
X512311Y106498D02*
Y103610D01*
X515199D01*
X514981Y104423D01*
X514533Y105199D01*
X513900Y105832D01*
X513124Y106280D01*
X512311Y106498D01*
D02*
G37*
G36*
X511311D02*
X510498Y106280D01*
X509722Y105832D01*
X509089Y105199D01*
X508641Y104423D01*
X508423Y103610D01*
X511311D01*
Y106498D01*
D02*
G37*
G36*
X524122Y106498D02*
Y103610D01*
X527010D01*
X526792Y104423D01*
X526344Y105199D01*
X525711Y105832D01*
X524935Y106280D01*
X524122Y106498D01*
D02*
G37*
G36*
X523122Y106498D02*
X522309Y106280D01*
X521533Y105832D01*
X520900Y105199D01*
X520452Y104423D01*
X520234Y103610D01*
X523122D01*
Y106498D01*
D02*
G37*
G36*
X527010Y102610D02*
X524122D01*
Y99723D01*
X524935Y99941D01*
X525711Y100388D01*
X526344Y101022D01*
X526792Y101797D01*
X527010Y102610D01*
D02*
G37*
G36*
X515199Y102610D02*
X512311D01*
Y99723D01*
X513124Y99941D01*
X513900Y100388D01*
X514533Y101022D01*
X514981Y101797D01*
X515199Y102610D01*
D02*
G37*
G36*
X511311D02*
X508423D01*
X508641Y101797D01*
X509089Y101022D01*
X509722Y100388D01*
X510498Y99941D01*
X511311Y99723D01*
Y102610D01*
D02*
G37*
G36*
X523122Y102610D02*
X520234D01*
X520452Y101797D01*
X520900Y101022D01*
X521533Y100388D01*
X522309Y99941D01*
X523122Y99723D01*
Y102610D01*
D02*
G37*
G36*
X512311Y96498D02*
Y93610D01*
X515199D01*
X514981Y94423D01*
X514533Y95199D01*
X513900Y95832D01*
X513124Y96280D01*
X512311Y96498D01*
D02*
G37*
G36*
X511311D02*
X510498Y96280D01*
X509722Y95832D01*
X509089Y95199D01*
X508641Y94423D01*
X508423Y93610D01*
X511311D01*
Y96498D01*
D02*
G37*
G36*
X524122Y96498D02*
Y93610D01*
X527010D01*
X526792Y94423D01*
X526344Y95199D01*
X525711Y95832D01*
X524935Y96280D01*
X524122Y96498D01*
D02*
G37*
G36*
X523122Y96498D02*
X522309Y96280D01*
X521533Y95832D01*
X520900Y95199D01*
X520452Y94423D01*
X520234Y93610D01*
X523122D01*
Y96498D01*
D02*
G37*
G36*
X527010Y92610D02*
X524122D01*
Y89723D01*
X524935Y89941D01*
X525711Y90388D01*
X526344Y91022D01*
X526792Y91797D01*
X527010Y92610D01*
D02*
G37*
G36*
X515199Y92610D02*
X512311D01*
Y89723D01*
X513124Y89941D01*
X513900Y90388D01*
X514533Y91022D01*
X514981Y91797D01*
X515199Y92610D01*
D02*
G37*
G36*
X511311D02*
X508423D01*
X508641Y91797D01*
X509089Y91022D01*
X509722Y90388D01*
X510498Y89941D01*
X511311Y89723D01*
Y92610D01*
D02*
G37*
G36*
X523122Y92610D02*
X520234D01*
X520452Y91797D01*
X520900Y91022D01*
X521533Y90388D01*
X522309Y89941D01*
X523122Y89723D01*
Y92610D01*
D02*
G37*
G36*
X459341Y84319D02*
X456479D01*
Y81260D01*
X459341D01*
Y84319D01*
D02*
G37*
G36*
Y80260D02*
X456479D01*
Y77201D01*
X459341D01*
Y80260D01*
D02*
G37*
G36*
X226862Y77492D02*
X223114D01*
Y77433D01*
X223404Y76352D01*
X223963Y75384D01*
X224754Y74593D01*
X225723Y74034D01*
X226803Y73744D01*
X226862D01*
Y77492D01*
D02*
G37*
G36*
X200803Y72925D02*
X197350D01*
Y69472D01*
X197371D01*
X198376Y69742D01*
X199277Y70262D01*
X200013Y70998D01*
X200534Y71899D01*
X200803Y72905D01*
Y72925D01*
D02*
G37*
G36*
X196350D02*
X192898D01*
Y72905D01*
X193167Y71899D01*
X193687Y70998D01*
X194423Y70262D01*
X195325Y69742D01*
X196330Y69472D01*
X196350D01*
Y72925D01*
D02*
G37*
G36*
X35449Y72925D02*
X31996D01*
Y69472D01*
X32016D01*
X33022Y69742D01*
X33923Y70262D01*
X34659Y70998D01*
X35179Y71899D01*
X35449Y72905D01*
Y72925D01*
D02*
G37*
G36*
X30996D02*
X27543D01*
Y72905D01*
X27813Y71899D01*
X28333Y70998D01*
X29069Y70262D01*
X29970Y69742D01*
X30976Y69472D01*
X30996D01*
Y72925D01*
D02*
G37*
G36*
X226862Y72240D02*
X226803D01*
X225723Y71951D01*
X224754Y71391D01*
X223963Y70600D01*
X223404Y69632D01*
X223114Y68551D01*
Y68492D01*
X226862D01*
Y72240D01*
D02*
G37*
G36*
Y67492D02*
X223114D01*
Y67433D01*
X223404Y66352D01*
X223963Y65384D01*
X224754Y64593D01*
X225723Y64034D01*
X226803Y63744D01*
X226862D01*
Y67492D01*
D02*
G37*
G36*
X98459Y35866D02*
X97210D01*
X95986Y35623D01*
X94832Y35145D01*
X93794Y34451D01*
X93316Y33973D01*
X92835Y33624D01*
X92353Y33973D01*
X91875Y34451D01*
X90837Y35145D01*
X89684Y35623D01*
X88459Y35866D01*
X87210D01*
X85986Y35623D01*
X84832Y35145D01*
X83794Y34451D01*
X83316Y33973D01*
X82835Y33624D01*
X82353Y33973D01*
X81875Y34451D01*
X80837Y35145D01*
X79684Y35623D01*
X78459Y35866D01*
X77210D01*
X75986Y35623D01*
X74832Y35145D01*
X73794Y34451D01*
X73316Y33973D01*
X72835Y33624D01*
X72353Y33973D01*
X71875Y34451D01*
X70837Y35145D01*
X69684Y35623D01*
X68459Y35866D01*
X67210D01*
X65986Y35623D01*
X64832Y35145D01*
X63794Y34451D01*
X63316Y33973D01*
X62835Y33624D01*
X62353Y33973D01*
X61875Y34451D01*
X60837Y35145D01*
X59684Y35623D01*
X58459Y35866D01*
X57210D01*
X55986Y35623D01*
X54832Y35145D01*
X54791Y35117D01*
X54173Y35447D01*
Y35866D01*
X41496D01*
Y23189D01*
X54173D01*
Y23608D01*
X54791Y23938D01*
X54832Y23910D01*
X55986Y23433D01*
X57210Y23189D01*
X58459D01*
X59684Y23433D01*
X60837Y23910D01*
X61875Y24604D01*
X62353Y25082D01*
X62835Y25431D01*
X63316Y25082D01*
X63794Y24604D01*
X64832Y23910D01*
X65986Y23433D01*
X67210Y23189D01*
X68459D01*
X69684Y23433D01*
X70837Y23910D01*
X71875Y24604D01*
X72353Y25082D01*
X72835Y25431D01*
X73316Y25082D01*
X73794Y24604D01*
X74832Y23910D01*
X75986Y23433D01*
X77210Y23189D01*
X78459D01*
X79684Y23433D01*
X80837Y23910D01*
X81875Y24604D01*
X82353Y25082D01*
X82835Y25431D01*
X83316Y25082D01*
X83794Y24604D01*
X84832Y23910D01*
X85986Y23433D01*
X87210Y23189D01*
X88459D01*
X89684Y23433D01*
X90837Y23910D01*
X91875Y24604D01*
X92353Y25082D01*
X92835Y25431D01*
X93316Y25082D01*
X93794Y24604D01*
X94832Y23910D01*
X95986Y23433D01*
X97210Y23189D01*
X98459D01*
X99684Y23433D01*
X100837Y23910D01*
X101875Y24604D01*
X102758Y25487D01*
X103452Y26525D01*
X103930Y27679D01*
X104173Y28903D01*
Y30152D01*
X103930Y31376D01*
X103452Y32530D01*
X102758Y33568D01*
X101875Y34451D01*
X100837Y35145D01*
X99684Y35623D01*
X98459Y35866D01*
D02*
G37*
G36*
X116660Y19685D02*
X115623D01*
X114622Y19417D01*
X113724Y18898D01*
X112991Y18165D01*
X112473Y17268D01*
X112205Y16266D01*
Y15230D01*
X112473Y14228D01*
X112991Y13331D01*
X113724Y12598D01*
X114622Y12079D01*
X115623Y11811D01*
X116660D01*
X117661Y12079D01*
X118559Y12598D01*
X119292Y13331D01*
X119810Y14228D01*
X120079Y15230D01*
Y16266D01*
X119810Y17268D01*
X119292Y18165D01*
X118559Y18898D01*
X117661Y19417D01*
X116660Y19685D01*
D02*
G37*
%LPD*%
G36*
X218996Y312992D02*
X202264D01*
Y326772D01*
X218996D01*
Y312992D01*
D02*
G37*
G36*
X483268Y62992D02*
X464567D01*
Y93504D01*
X483268D01*
Y62992D01*
D02*
G37*
G36*
X450787Y56102D02*
X415354D01*
Y96949D01*
X438976D01*
Y107283D01*
X450787D01*
Y56102D01*
D02*
G37*
%LPC*%
G36*
X220094Y172925D02*
X217036D01*
Y170063D01*
X220094D01*
Y172925D01*
D02*
G37*
G36*
X233283Y171079D02*
X228453D01*
Y168217D01*
X233283D01*
Y171079D01*
D02*
G37*
G36*
X227453D02*
X222622D01*
Y168217D01*
X227453D01*
Y171079D01*
D02*
G37*
G36*
X253299Y116748D02*
X250437D01*
Y113689D01*
X253299D01*
Y116748D01*
D02*
G37*
G36*
Y112689D02*
X250437D01*
Y109630D01*
X253299D01*
Y112689D01*
D02*
G37*
G36*
X276272Y77575D02*
X273016D01*
Y75106D01*
X276272D01*
Y77575D01*
D02*
G37*
G36*
X296078Y91868D02*
X293570D01*
Y89518D01*
X296078D01*
Y91868D01*
D02*
G37*
G36*
X276272Y60495D02*
X273016D01*
Y58026D01*
X276272D01*
Y60495D01*
D02*
G37*
%LPD*%
D16*
X416339Y328740D02*
D03*
X116142Y15748D02*
D03*
X15748Y261811D02*
D03*
X387795Y153543D02*
D03*
X326772Y196850D02*
D03*
X261811Y175197D02*
D03*
D29*
X216535Y180905D02*
D03*
Y173425D02*
D03*
X296578Y141124D02*
D03*
Y148604D02*
D03*
Y105834D02*
D03*
Y113315D02*
D03*
X113189Y173031D02*
D03*
Y165551D02*
D03*
X121063Y173031D02*
D03*
Y165551D02*
D03*
X170276Y173031D02*
D03*
Y165551D02*
D03*
D30*
X258701Y67167D02*
D03*
X264921D02*
D03*
X258701Y51444D02*
D03*
X264921D02*
D03*
D31*
X304038Y126787D02*
D03*
Y120567D02*
D03*
X296578Y126787D02*
D03*
Y120567D02*
D03*
X303829Y89018D02*
D03*
Y82798D02*
D03*
X296578Y89018D02*
D03*
Y82798D02*
D03*
D32*
X492323Y216535D02*
D03*
X499803D02*
D03*
X467321Y80760D02*
D03*
X459841D02*
D03*
X418563Y70644D02*
D03*
X411083D02*
D03*
X418563Y77618D02*
D03*
X411083D02*
D03*
X418563Y84941D02*
D03*
X411083D02*
D03*
X418563Y92100D02*
D03*
X411083D02*
D03*
X261280Y151277D02*
D03*
X253799D02*
D03*
X261280Y113189D02*
D03*
X253799D02*
D03*
D34*
X210630Y305197D02*
D03*
X164370Y303228D02*
D03*
X31496Y186417D02*
D03*
X43307D02*
D03*
X185039D02*
D03*
X196850D02*
D03*
X31496Y123425D02*
D03*
X43307D02*
D03*
X185039D02*
D03*
X196850D02*
D03*
D94*
X293672Y172258D02*
X294670Y171260D01*
X316142Y168504D02*
X350471Y202833D01*
Y202998D01*
X416339Y125000D02*
X434055Y107283D01*
Y103347D02*
Y107283D01*
X411417Y125000D02*
X430118Y106299D01*
Y100394D02*
Y106299D01*
X329523Y175022D02*
Y177161D01*
X327795Y173294D02*
X329523Y175022D01*
X327795Y173273D02*
Y173294D01*
X329523Y177161D02*
X345276Y192913D01*
X310039Y160392D02*
X346763Y197115D01*
X310039Y150591D02*
Y160392D01*
X340551Y198852D02*
Y212598D01*
X316632Y174933D02*
X340551Y198852D01*
X333661Y219488D02*
X340551Y212598D01*
X360004Y192913D02*
X360962Y191955D01*
X345276Y192913D02*
X360004D01*
X360962Y191955D02*
X361443D01*
X346063Y190945D02*
X357087D01*
X333661Y178543D02*
X346063Y190945D01*
X357087D02*
X361979Y186053D01*
X313976Y161614D02*
X322638Y170276D01*
X329724D02*
X333661Y174213D01*
X322638Y170276D02*
X329724D01*
X333661Y174213D02*
Y178543D01*
X294670Y171260D02*
X315880D01*
X304724Y168504D02*
X316142D01*
X315880Y171260D02*
X344753Y200132D01*
X313976Y154528D02*
Y161614D01*
X314173Y174803D02*
X314303Y174933D01*
X316632D01*
X346763Y197115D02*
X356151D01*
X361979Y186053D02*
X367155D01*
X344753Y200132D02*
Y208250D01*
D95*
X74227Y187678D02*
X74999Y188295D01*
X75684Y189006D01*
X76271Y189800D01*
X76752Y190663D01*
X77116Y191581D01*
X77359Y192538D01*
X77476Y193518D01*
X77327Y194439D01*
X76896Y195266D01*
X76226Y195915D01*
X75386Y196321D01*
X74461Y196440D01*
X74227Y187678D02*
X73654Y186932D01*
X73294Y186063D01*
X73172Y185130D01*
X124943Y144691D02*
X125751Y143982D01*
X126645Y143385D01*
X127609Y142910D01*
X128627Y142564D01*
X129682Y142354D01*
X130754Y142284D01*
X168824Y140923D02*
X168120Y141501D01*
X167316Y141930D01*
X166445Y142195D01*
X165538Y142284D01*
X79725Y162350D02*
X79725Y162350D01*
X80440Y161694D01*
X81207Y161101D01*
X82022Y160575D01*
X82879Y160120D01*
X83771Y159740D01*
X83771Y159740D02*
X84750Y159420D01*
X85754Y159190D01*
X86775Y159051D01*
X87804Y159005D01*
X78961Y162932D02*
X78128Y163270D01*
X77235Y163386D01*
X79717Y162358D02*
X79721Y162353D01*
X113558Y156076D02*
X112831Y156735D01*
X112042Y157320D01*
X111201Y157824D01*
X110314Y158244D01*
X109390Y158574D01*
X108438Y158813D01*
X107467Y158957D01*
X106487Y159005D01*
X73409Y165827D02*
X73956Y165217D01*
X125599Y146184D02*
X126304Y145553D01*
X127076Y145005D01*
X127904Y144548D01*
X128779Y144185D01*
X129688Y143924D01*
X130621Y143765D01*
X131566Y143712D01*
X165538D02*
X166445Y143801D01*
X167316Y144066D01*
X168120Y144495D01*
X168824Y145073D01*
X114562Y157092D02*
X113828Y157764D01*
X113039Y158370D01*
X112199Y158905D01*
X111316Y159364D01*
X110397Y159745D01*
X109448Y160044D01*
X108476Y160260D01*
X107489Y160390D01*
X106495Y160433D01*
X124040Y147614D02*
X125056Y146727D01*
X80733Y163362D02*
X81460Y162703D01*
X82248Y162118D01*
X83090Y161614D01*
X83977Y161194D01*
X84901Y160864D01*
X85853Y160625D01*
X86823Y160481D01*
X87804Y160433D01*
X73172Y173638D02*
X73221Y172701D01*
X73368Y171774D01*
X73612Y170868D01*
X73950Y169992D01*
X74377Y169157D01*
X74890Y168371D01*
X125596Y146186D02*
X125599Y146184D01*
X79717Y162358D02*
X78961Y162932D01*
X73295Y165973D02*
X73409Y165827D01*
X71743Y170547D02*
X71809Y169567D01*
X72001Y168603D01*
X72317Y167673D01*
X72750Y166791D01*
X73295Y165973D01*
X71743Y170559D02*
X71743Y170547D01*
X73294Y192659D02*
X72636Y191857D01*
X72146Y190942D01*
X71845Y189948D01*
X71743Y188915D01*
X237649Y210612D02*
X237544Y211669D01*
X237236Y212686D01*
X236735Y213623D01*
X236061Y214444D01*
X234474Y218277D02*
X234578Y217219D01*
X234886Y216203D01*
X235387Y215266D01*
X236061Y214444D01*
X234687Y222228D02*
X234474Y221713D01*
X235201Y222441D02*
X234687Y222228D01*
X229823Y196426D02*
X230099Y195562D01*
X230620Y194821D01*
X231340Y194271D01*
X232192Y193962D01*
X233098Y193924D01*
X237624Y197280D02*
X237649Y197474D01*
X233446Y193942D02*
X234385Y194088D01*
X235273Y194426D01*
X236072Y194939D01*
X236749Y195605D01*
X237273Y196397D01*
X237624Y197280D01*
X233046Y217685D02*
X233150Y216628D01*
X233458Y215611D01*
X233959Y214674D01*
X234633Y213853D01*
X233046Y221713D02*
X232833Y222228D01*
X232318Y222441D01*
X236221Y210021D02*
X236116Y211078D01*
X235808Y212095D01*
X235307Y213032D01*
X234633Y213853D01*
X234811Y198370D02*
X235410Y199099D01*
X235854Y199931D01*
X236128Y200833D01*
X236221Y201772D01*
X71868Y196440D02*
X74461D01*
X73172Y173638D02*
Y185130D01*
X130754Y142284D02*
X165538D01*
X79721Y162353D02*
X79725Y162350D01*
X87804Y159005D02*
X106487D01*
X83771Y159740D02*
X83771Y159740D01*
X75787Y163386D02*
X77235D01*
X113558Y156076D02*
X124943Y144691D01*
X73956Y165217D02*
X75787Y163386D01*
X131566Y143712D02*
X165538D01*
X114562Y157092D02*
X124040Y147614D01*
X87804Y160433D02*
X106495D01*
X125056Y146727D02*
X125596Y146186D01*
X80730Y163365D02*
X80733Y163362D01*
X76313Y167781D02*
X80730Y163365D01*
X71743Y170559D02*
Y188915D01*
X73294Y192659D02*
X73948Y193313D01*
X230315Y222441D02*
X232318D01*
X235201D02*
X237205D01*
X234474Y218277D02*
Y221713D01*
X237624Y197280D02*
X237624D01*
X233098Y193924D02*
X233446Y193942D01*
X233098Y193924D02*
X233098D01*
X237649Y197691D02*
Y210612D01*
X233046Y217685D02*
Y221713D01*
X233460Y197019D02*
X234811Y198370D01*
X236221Y201772D02*
Y210021D01*
X237649Y197474D02*
X237649Y197691D01*
X229704Y197054D02*
X229823Y196426D01*
D96*
X238583Y76772D02*
X244094D01*
X253699Y67167D02*
X258701D01*
X244094Y76772D02*
X253699Y67167D01*
X237362Y77992D02*
X238583Y76772D01*
X250000Y51444D02*
X258701D01*
X247047Y54397D02*
X250000Y51444D01*
X247047Y54397D02*
Y63976D01*
X243032Y67992D02*
X247047Y63976D01*
X237362Y67992D02*
X243032D01*
X237362Y87992D02*
X238979D01*
X244195Y93209D01*
X261221D01*
X206299Y104763D02*
X223070Y87992D01*
X206299Y104763D02*
Y221063D01*
X223070Y87992D02*
X227362D01*
X206299Y221063D02*
X236221Y250984D01*
X232386Y102968D02*
X239778D01*
X246979Y95768D02*
X261221D01*
X239778Y102968D02*
X246979Y95768D01*
X227362Y107992D02*
X232386Y102968D01*
X238465Y107992D02*
X248130Y98327D01*
X237362Y107992D02*
X238465D01*
X244439Y107923D02*
X251476Y100886D01*
X261221D01*
X239349Y112994D02*
X242107Y110236D01*
X242126D01*
X244439Y107923D01*
X232361Y112994D02*
X239349D01*
X227362Y117992D02*
X232361Y112994D01*
X249350Y106004D02*
X261221D01*
X237362Y117992D02*
X249350Y106004D01*
X233184Y122912D02*
X253227D01*
X227362Y127992D02*
X228104D01*
X233184Y122912D01*
X253227D02*
X253248Y122933D01*
X237362Y127992D02*
X241560D01*
X244188Y125364D02*
X261092D01*
X241560Y127992D02*
X244188Y125364D01*
X241025Y132991D02*
X245873Y128142D01*
X232364Y132991D02*
X241025D01*
X227362Y137992D02*
X232364Y132991D01*
X245873Y128142D02*
X261129D01*
X240945Y137992D02*
X248327Y130610D01*
X237362Y137992D02*
X240945D01*
X248327Y130610D02*
X261221D01*
X240582Y142909D02*
X250322Y133169D01*
X232273Y142909D02*
X240582D01*
X227362Y147819D02*
X232273Y142909D01*
X250322Y133169D02*
X261221D01*
X227362Y147819D02*
Y147992D01*
X239803D02*
X252067Y135728D01*
X237362Y147992D02*
X239803D01*
X232513Y152748D02*
X239969D01*
X227362Y157898D02*
X232513Y152748D01*
X239969D02*
X254429Y138287D01*
X239632Y157992D02*
X254219Y143405D01*
X237362Y157992D02*
X239632D01*
X252067Y135728D02*
X261221D01*
X254219Y143405D02*
X261221D01*
X253248Y122933D02*
X261221D01*
X281089Y46887D02*
Y62585D01*
X276524Y42323D02*
X281089Y46887D01*
Y62585D02*
X285433Y66929D01*
X258858Y42323D02*
X276524D01*
X285433Y45276D02*
Y53786D01*
X285433D02*
X288038D01*
X296260Y62008D01*
X343408D01*
X254921Y81693D02*
X256201Y82973D01*
X261221D01*
Y82874D02*
X266535D01*
X267717Y81693D01*
X280585Y138296D02*
X284047D01*
X278248Y140633D02*
X280585Y138296D01*
X278248Y140633D02*
Y204429D01*
X276547Y139928D02*
Y205134D01*
X280847Y135629D02*
X283956D01*
X276547Y139928D02*
X280847Y135629D01*
X283956D02*
X284055Y135728D01*
X280726Y133053D02*
X283939D01*
X284055Y133169D01*
X274847Y138932D02*
X280726Y133053D01*
X274847Y138932D02*
Y205949D01*
X280477Y130614D02*
X284051D01*
X273146Y137945D02*
X280477Y130614D01*
X273146Y137945D02*
Y155894D01*
X271445Y136816D02*
X280263Y127998D01*
X284002D01*
X271445Y136816D02*
Y155190D01*
X280177Y125510D02*
X284037D01*
X269744Y135943D02*
X280177Y125510D01*
X269744Y135943D02*
Y154485D01*
X268043Y135071D02*
X280091Y123023D01*
X283965D01*
X284055Y122933D01*
X268043Y135071D02*
Y153781D01*
X283465Y43307D02*
X285433Y45276D01*
X383858Y157480D02*
Y164370D01*
X372592Y175637D02*
X383858Y164370D01*
X372592Y175637D02*
Y180412D01*
X383858Y157480D02*
X387795Y153543D01*
X303845Y120374D02*
X304038Y120567D01*
X284055Y120374D02*
X303845D01*
X296578Y82798D02*
X303829D01*
X284055Y82973D02*
X296578D01*
X261129Y128142D02*
X261221Y128051D01*
X284055Y100886D02*
X306622D01*
X311024Y105287D02*
Y133422D01*
X306622Y100886D02*
X311024Y105287D01*
X372047Y124491D02*
Y153543D01*
X354331Y171260D02*
X372047Y153543D01*
X296578Y105834D02*
X297097Y105315D01*
X304134D01*
X363484Y95768D02*
X380906Y113189D01*
X284055Y95768D02*
X363484D01*
X380906Y113189D02*
Y163825D01*
X363091Y98327D02*
X378937Y114173D01*
Y158465D01*
X284055Y98327D02*
X363091D01*
X285433Y66929D02*
Y70866D01*
X248130Y98327D02*
X261221D01*
X261092Y125364D02*
X261221Y125492D01*
X274606Y225394D02*
Y245079D01*
X291339Y261811D01*
X296260Y63976D02*
X342971D01*
X285433Y70866D02*
X289370D01*
X296260Y63976D01*
X343408Y62008D02*
X385039Y103639D01*
X342971Y63976D02*
X383339Y104343D01*
X274606Y98425D02*
X274657Y98374D01*
Y96406D02*
X277854Y93209D01*
X284055D01*
X274657Y96406D02*
Y98374D01*
X342706Y167509D02*
Y178948D01*
X236221Y250984D02*
Y258858D01*
X372047Y124016D02*
Y124491D01*
X350394Y171260D02*
X354331D01*
X356299Y181102D02*
X378937Y158465D01*
X368026Y176704D02*
X380906Y163825D01*
X267965Y208799D02*
X274169Y215004D01*
X311024Y133422D02*
X345472Y167870D01*
X309323Y134126D02*
X342706Y167509D01*
X305312Y109446D02*
X309323Y113457D01*
Y134126D01*
X345472Y167870D02*
Y173737D01*
X291730Y109446D02*
X305312D01*
X267965Y153859D02*
Y208799D01*
X274114Y215059D02*
X327705Y268650D01*
X269685Y208114D02*
X331693Y270122D01*
X269685Y154544D02*
Y208114D01*
X271386Y207410D02*
X325280Y261303D01*
X273087Y206594D02*
X326095Y259602D01*
X279949Y145445D02*
Y203725D01*
X278248Y204429D02*
X328150Y254331D01*
X274847Y205949D02*
X326799Y257902D01*
X273087Y155953D02*
Y206594D01*
X279949Y145445D02*
X281988Y143405D01*
X276547Y205134D02*
X327613Y256199D01*
X279949Y203725D02*
X328854Y252630D01*
X271386Y155249D02*
Y207410D01*
X326799Y257902D02*
X456862D01*
X328854Y252630D02*
X454724D01*
X253799Y151277D02*
X253937Y151415D01*
Y157480D01*
X271386Y155249D02*
X271445Y155190D01*
X267965Y153859D02*
X268043Y153781D01*
X273087Y155953D02*
X273146Y155894D01*
X269685Y154544D02*
X269744Y154485D01*
X383339Y104343D02*
Y140228D01*
X385039Y103639D02*
Y137992D01*
X409449Y162402D01*
X383339Y140228D02*
X404528Y161417D01*
X356299Y181102D02*
Y185994D01*
X284622Y283834D02*
X285121Y284334D01*
X291929Y126969D02*
X296397D01*
X296578Y126787D01*
X291929Y89173D02*
X296423D01*
X296578Y89018D01*
X296452Y113189D02*
X296578Y113315D01*
X291142Y113189D02*
X296452D01*
X256282Y120374D02*
X261221D01*
X255396Y119488D02*
X256282Y120374D01*
X254921Y119488D02*
X255396D01*
X267077Y120325D02*
X267126Y120276D01*
X261221Y120374D02*
X261270Y120325D01*
X267077D01*
X248104Y112723D02*
X253333D01*
X253799Y113189D01*
X288287Y106004D02*
X291730Y109446D01*
X284055Y106004D02*
X288287D01*
X284055Y103445D02*
X290453D01*
X292842Y105834D01*
X296578D01*
X458145Y249210D02*
X468955D01*
X454724Y252630D02*
X458145Y249210D01*
X455905Y254331D02*
X457361Y252876D01*
X328150Y254331D02*
X455905D01*
X457361Y252876D02*
X465254D01*
X450547Y259602D02*
X454724Y263779D01*
X326095Y259602D02*
X450547D01*
X325280Y261303D02*
X444733D01*
X450873Y267443D01*
X327613Y256199D02*
X462069D01*
X456862Y257902D02*
X458998Y260037D01*
X303829Y89018D02*
X303968Y88879D01*
X308846D01*
X304134Y126884D02*
Y132874D01*
X304038Y126787D02*
X304134Y126884D01*
X296260Y140806D02*
X296300Y140847D01*
X296260Y135827D02*
Y140806D01*
X284055Y140847D02*
X296300D01*
X404528Y161417D02*
Y165354D01*
X254429Y138287D02*
X261221D01*
X327705Y268650D02*
Y271603D01*
X327756Y271654D01*
X281988Y143405D02*
X284055D01*
X331693Y270122D02*
Y275590D01*
X346457Y174722D02*
Y175197D01*
X345472Y173737D02*
X346457Y174722D01*
X409449Y162402D02*
Y170276D01*
D97*
X260236Y176772D02*
X261811Y175197D01*
X252362Y176772D02*
X260236D01*
X227953D02*
X252362D01*
X264946Y51420D02*
X271654D01*
X273027Y50046D01*
X276772D01*
X264942Y67146D02*
X276751D01*
X264921Y67167D02*
X264942Y67146D01*
X276751D02*
X276772Y67126D01*
X261280Y151277D02*
X261811Y151808D01*
Y175197D01*
X270670Y106300D02*
Y126574D01*
X263699Y149702D02*
X265858Y147543D01*
X262657Y149702D02*
X263699D01*
X265858Y131386D02*
Y147543D01*
X261280Y151080D02*
X262657Y149702D01*
X261280Y151080D02*
Y151277D01*
Y113189D02*
X270669D01*
X265858Y131386D02*
X270670Y126574D01*
X446457Y99410D02*
X470866D01*
D99*
X122047Y129921D02*
X142717Y109252D01*
Y94488D02*
Y109252D01*
X51181Y129921D02*
X122047D01*
X142717Y94488D02*
X151600Y85605D01*
Y64314D02*
Y85605D01*
X37992Y129921D02*
X51181D01*
X31496Y123425D02*
X37992Y129921D01*
X162402Y69882D02*
X169291Y62992D01*
X184347D01*
X43307Y146417D02*
X57835D01*
X66929Y155512D01*
X104331D01*
X162402Y69882D02*
Y87598D01*
X146653Y47244D02*
X156496Y57087D01*
X151575Y95472D02*
X156496Y90551D01*
Y57087D02*
Y90551D01*
X146653Y41339D02*
Y47244D01*
D100*
X313824Y196850D02*
X326559D01*
X312246Y198428D02*
X313824Y196850D01*
D101*
X222874Y97992D02*
X227362D01*
X209646Y111221D02*
X222874Y97992D01*
X227362D02*
X237362D01*
X492126Y235236D02*
X500394D01*
X490158Y290354D02*
X492126Y288386D01*
Y235236D02*
Y288386D01*
X475984Y235236D02*
X492126D01*
X209646Y111221D02*
Y218504D01*
X232283Y241142D01*
X285121Y262484D02*
Y284334D01*
X232283Y241142D02*
X263779D01*
X285121Y262484D01*
Y284334D02*
Y307821D01*
D103*
X210630Y295197D02*
D03*
X257953Y229331D02*
D03*
X182165Y211614D02*
D03*
X164370Y293228D02*
D03*
X94488Y228346D02*
D03*
Y208661D02*
D03*
X149606Y250000D02*
D03*
Y269685D02*
D03*
X31496Y136417D02*
D03*
Y146417D02*
D03*
Y156417D02*
D03*
Y166417D02*
D03*
Y176417D02*
D03*
X43307Y136417D02*
D03*
Y146417D02*
D03*
Y156417D02*
D03*
Y166417D02*
D03*
Y176417D02*
D03*
X185039Y136417D02*
D03*
Y146417D02*
D03*
Y156417D02*
D03*
Y166417D02*
D03*
Y176417D02*
D03*
X196850Y136417D02*
D03*
Y146417D02*
D03*
Y156417D02*
D03*
Y166417D02*
D03*
Y176417D02*
D03*
X31496Y73425D02*
D03*
Y83425D02*
D03*
Y93425D02*
D03*
Y103425D02*
D03*
Y113425D02*
D03*
X43307Y73425D02*
D03*
Y83425D02*
D03*
Y93425D02*
D03*
Y103425D02*
D03*
Y113425D02*
D03*
X185039Y73425D02*
D03*
Y83425D02*
D03*
Y93425D02*
D03*
Y103425D02*
D03*
Y113425D02*
D03*
X196850Y73425D02*
D03*
Y83425D02*
D03*
Y93425D02*
D03*
Y103425D02*
D03*
Y113425D02*
D03*
D104*
X247953Y229331D02*
D03*
X172165Y211614D02*
D03*
D105*
X87598Y181555D02*
D03*
X218529Y205069D02*
D03*
D106*
X82284Y173091D02*
D03*
X63386D02*
D03*
X82284Y190020D02*
D03*
X63386D02*
D03*
X223844Y213533D02*
D03*
X242742D02*
D03*
X223844Y196604D02*
D03*
X242742D02*
D03*
D107*
X227362Y157992D02*
D03*
D108*
X237362D02*
D03*
X227362Y147992D02*
D03*
X237362D02*
D03*
X227362Y137992D02*
D03*
X237362D02*
D03*
X227362Y127992D02*
D03*
X237362D02*
D03*
X227362Y117992D02*
D03*
X237362D02*
D03*
X227362Y107992D02*
D03*
X237362D02*
D03*
X227362Y97992D02*
D03*
X237362D02*
D03*
X227362Y87992D02*
D03*
X237362D02*
D03*
X227362Y77992D02*
D03*
X237362D02*
D03*
X227362Y67992D02*
D03*
X237362D02*
D03*
D109*
X53740Y314961D02*
D03*
X116732D02*
D03*
X53740Y326772D02*
D03*
X47835Y29528D02*
D03*
X116732Y326772D02*
D03*
D110*
X63740Y314961D02*
D03*
X73740D02*
D03*
X83740D02*
D03*
X93740D02*
D03*
X103740D02*
D03*
X126732D02*
D03*
X136732D02*
D03*
X146732D02*
D03*
X156732D02*
D03*
X166732D02*
D03*
X63740Y326772D02*
D03*
X73740D02*
D03*
X83740D02*
D03*
X93740D02*
D03*
X103740D02*
D03*
X57835Y29528D02*
D03*
X67835D02*
D03*
X77835D02*
D03*
X87835D02*
D03*
X97835D02*
D03*
X523622Y133110D02*
D03*
Y123110D02*
D03*
Y113110D02*
D03*
Y103110D02*
D03*
Y93110D02*
D03*
X511811Y239409D02*
D03*
Y229410D02*
D03*
Y219409D02*
D03*
Y209409D02*
D03*
Y199409D02*
D03*
X523622Y239409D02*
D03*
Y229410D02*
D03*
Y219409D02*
D03*
Y209409D02*
D03*
Y199409D02*
D03*
X126732Y326772D02*
D03*
X136732D02*
D03*
X146732D02*
D03*
X156732D02*
D03*
X166732D02*
D03*
X511811Y133110D02*
D03*
Y123110D02*
D03*
Y113110D02*
D03*
Y103110D02*
D03*
Y93110D02*
D03*
D111*
X523622Y143110D02*
D03*
X511811Y249410D02*
D03*
X523622D02*
D03*
X511811Y143110D02*
D03*
D112*
X437474Y316979D02*
D03*
X440004Y318590D02*
D03*
X461410Y330587D02*
D03*
X422457Y302312D02*
D03*
X404622Y290293D02*
D03*
X402904Y292752D02*
D03*
X426699Y306555D02*
D03*
X442727Y319848D02*
D03*
X419567Y312363D02*
D03*
X432613Y324738D02*
D03*
X407335Y289012D02*
D03*
X435182Y315043D02*
D03*
X458412Y330500D02*
D03*
X425931Y318727D02*
D03*
X415324Y308120D02*
D03*
X446453Y330138D02*
D03*
X430247Y322893D02*
D03*
X423810Y316606D02*
D03*
X424578Y304433D02*
D03*
X443500Y329610D02*
D03*
X413203Y305999D02*
D03*
X463279Y319820D02*
D03*
X428052Y320848D02*
D03*
X433063Y312918D02*
D03*
X449429Y330521D02*
D03*
X435144Y326348D02*
D03*
X421688Y314484D02*
D03*
X440609Y328808D02*
D03*
X417446Y310242D02*
D03*
X430942Y310797D02*
D03*
X420335Y300191D02*
D03*
X466274Y319634D02*
D03*
X454559Y320854D02*
D03*
X452423Y330700D02*
D03*
X428821Y308676D02*
D03*
X457559Y320912D02*
D03*
X437818Y327709D02*
D03*
X455423Y330758D02*
D03*
X445598Y320721D02*
D03*
X464111Y331894D02*
D03*
X454572Y299059D02*
D03*
X451578Y298868D02*
D03*
X448582Y298716D02*
D03*
X445601Y298379D02*
D03*
X442655Y297811D02*
D03*
X439782Y296946D02*
D03*
X437022Y295770D02*
D03*
X434385Y294340D02*
D03*
X431923Y292626D02*
D03*
X429649Y290669D02*
D03*
X418585Y277639D02*
D03*
X419920Y274952D02*
D03*
X422444Y273331D02*
D03*
X435653Y283776D02*
D03*
X437957Y285699D02*
D03*
X440506Y287280D02*
D03*
X443259Y288472D02*
D03*
X446169Y289203D02*
D03*
X452156Y289250D02*
D03*
X455156Y289192D02*
D03*
X458697Y285863D02*
D03*
X459661Y283022D02*
D03*
X460989Y280331D02*
D03*
X462779Y277924D02*
D03*
X464930Y275833D02*
D03*
X466743Y273443D02*
D03*
X469111Y271602D02*
D03*
X472105Y271405D02*
D03*
X472570Y283713D02*
D03*
X470336Y285715D02*
D03*
X463894Y298795D02*
D03*
X460894Y298785D02*
D03*
X457899Y298958D02*
D03*
D113*
X168824Y140923D02*
D03*
Y145073D02*
D03*
X430169Y62201D02*
D03*
Y58264D02*
D03*
X137795Y302165D02*
D03*
X124016Y186024D02*
D03*
X112205D02*
D03*
Y189961D02*
D03*
Y193898D02*
D03*
X116142D02*
D03*
Y189961D02*
D03*
Y186024D02*
D03*
X120079D02*
D03*
Y189961D02*
D03*
Y193898D02*
D03*
X124016D02*
D03*
Y189961D02*
D03*
X156496Y188976D02*
D03*
Y194882D02*
D03*
X160433Y183071D02*
D03*
Y188976D02*
D03*
Y194882D02*
D03*
X168307D02*
D03*
X164370D02*
D03*
X168307Y183071D02*
D03*
X172244Y188976D02*
D03*
Y183071D02*
D03*
X168307Y188976D02*
D03*
X164370D02*
D03*
Y183071D02*
D03*
X172244Y194882D02*
D03*
X147638Y302165D02*
D03*
X204724Y323819D02*
D03*
Y319882D02*
D03*
Y315945D02*
D03*
X201772Y203740D02*
D03*
Y207677D02*
D03*
Y211614D02*
D03*
Y215551D02*
D03*
Y219488D02*
D03*
X197835Y203740D02*
D03*
Y207677D02*
D03*
Y211614D02*
D03*
Y215551D02*
D03*
Y219488D02*
D03*
X193898Y203740D02*
D03*
Y207677D02*
D03*
Y211614D02*
D03*
Y215551D02*
D03*
Y219488D02*
D03*
X189961Y203740D02*
D03*
Y207677D02*
D03*
Y211614D02*
D03*
Y215551D02*
D03*
Y219488D02*
D03*
X426388Y58264D02*
D03*
X422451Y58265D02*
D03*
X418514D02*
D03*
X426388Y62201D02*
D03*
X422451Y62202D02*
D03*
X418514D02*
D03*
X216535Y319882D02*
D03*
X210630Y323819D02*
D03*
X216535D02*
D03*
X210630Y319882D02*
D03*
Y315945D02*
D03*
X216535D02*
D03*
X285121Y307821D02*
D03*
D114*
X407985Y62474D02*
D03*
X215551Y185039D02*
D03*
X259748Y60064D02*
D03*
X268606D02*
D03*
X267717Y81693D02*
D03*
X254921D02*
D03*
X350471Y202998D02*
D03*
X341768Y103100D02*
D03*
X165354Y151575D02*
D03*
X151600Y64314D02*
D03*
X283465Y43307D02*
D03*
X258858Y42323D02*
D03*
X104331Y155512D02*
D03*
X165281Y157644D02*
D03*
X75787Y167323D02*
D03*
Y163386D02*
D03*
X184017Y63103D02*
D03*
X175197Y33465D02*
D03*
X201772D02*
D03*
X151575Y95472D02*
D03*
X146653Y41339D02*
D03*
X162402Y87598D02*
D03*
X372592Y180412D02*
D03*
X416339Y125000D02*
D03*
X434055Y103347D02*
D03*
X411417Y125000D02*
D03*
X430118Y100394D02*
D03*
X344684Y155774D02*
D03*
X349651Y160741D02*
D03*
X354331Y165354D02*
D03*
X345472Y113517D02*
D03*
X354056Y115107D02*
D03*
X71868Y196440D02*
D03*
X73948Y193313D02*
D03*
X230315Y222441D02*
D03*
X237205D02*
D03*
X304134Y105315D02*
D03*
X274606Y98425D02*
D03*
Y225394D02*
D03*
X291339Y261811D02*
D03*
X342706Y178948D02*
D03*
X300435Y192523D02*
D03*
X303388Y195476D02*
D03*
X306341Y198428D02*
D03*
X309294Y201381D02*
D03*
X303388Y189570D02*
D03*
X306341Y192523D02*
D03*
X309294Y195476D02*
D03*
X312246Y198428D02*
D03*
X327795Y173273D02*
D03*
X288386Y175197D02*
D03*
X292323Y52165D02*
D03*
X236221Y258858D02*
D03*
X372047Y124016D02*
D03*
X366535Y132283D02*
D03*
X233460Y197019D02*
D03*
X229704Y197054D02*
D03*
X304724Y168504D02*
D03*
X230315Y189961D02*
D03*
X225394D02*
D03*
X220472D02*
D03*
X215551D02*
D03*
X220472Y185039D02*
D03*
X490158Y290354D02*
D03*
X253937Y157480D02*
D03*
X400591Y142717D02*
D03*
X368026Y176704D02*
D03*
X356299Y185994D02*
D03*
X314173Y174803D02*
D03*
X293687Y172311D02*
D03*
X291929Y126969D02*
D03*
Y89173D02*
D03*
X291142Y113189D02*
D03*
X267126Y120276D02*
D03*
X254921Y119488D02*
D03*
X308846Y88879D02*
D03*
X248104Y112723D02*
D03*
X450873Y267443D02*
D03*
X462069Y256199D02*
D03*
X473425Y152559D02*
D03*
Y157480D02*
D03*
Y162402D02*
D03*
X467520D02*
D03*
Y157480D02*
D03*
Y152559D02*
D03*
X382874Y300197D02*
D03*
X500984Y198819D02*
D03*
Y202756D02*
D03*
Y206693D02*
D03*
Y210630D02*
D03*
X480315Y70866D02*
D03*
Y65945D02*
D03*
X474409D02*
D03*
X468504D02*
D03*
Y70866D02*
D03*
X480315Y75787D02*
D03*
X474409D02*
D03*
X468504D02*
D03*
X474409Y70866D02*
D03*
X304134Y132874D02*
D03*
X296260Y135827D02*
D03*
X334936Y166585D02*
D03*
X319882Y132874D02*
D03*
X331693Y275590D02*
D03*
X327756Y271654D02*
D03*
X458998Y260037D02*
D03*
X465254Y252876D02*
D03*
X404528Y165354D02*
D03*
X409449Y170276D02*
D03*
X468955Y249210D02*
D03*
X454724Y263779D02*
D03*
X322835Y164370D02*
D03*
X458661Y151575D02*
D03*
X335510Y134179D02*
D03*
X424213Y177165D02*
D03*
X411118Y149892D02*
D03*
X448819Y151575D02*
D03*
X435039D02*
D03*
X421260D02*
D03*
X346457Y175197D02*
D03*
X350394Y171260D02*
D03*
X319882Y117126D02*
D03*
X310039Y150591D02*
D03*
X313976Y154528D02*
D03*
X356151Y197115D02*
D03*
X367155Y186053D02*
D03*
X333661Y219488D02*
D03*
X344753Y208250D02*
D03*
X361443Y191955D02*
D03*
X448636Y142717D02*
D03*
X468856D02*
D03*
X421260D02*
D03*
X435039D02*
D03*
X346858Y134443D02*
D03*
D115*
X500394Y244291D02*
D03*
Y235236D02*
D03*
Y226181D02*
D03*
X470866Y90354D02*
D03*
Y99410D02*
D03*
Y108465D02*
D03*
X227953Y185827D02*
D03*
Y176772D02*
D03*
Y167717D02*
D03*
D116*
X475984Y235236D02*
D03*
X446457Y99410D02*
D03*
X252362Y176772D02*
D03*
D117*
X261221Y143405D02*
D03*
Y140847D02*
D03*
Y138287D02*
D03*
Y135728D02*
D03*
Y133169D02*
D03*
Y130610D02*
D03*
Y128051D02*
D03*
Y125492D02*
D03*
Y122933D02*
D03*
Y120374D02*
D03*
X284055D02*
D03*
Y122933D02*
D03*
Y125492D02*
D03*
Y128051D02*
D03*
Y130610D02*
D03*
Y133169D02*
D03*
Y135728D02*
D03*
Y138287D02*
D03*
Y140847D02*
D03*
Y143405D02*
D03*
X261221Y106004D02*
D03*
Y103445D02*
D03*
Y100886D02*
D03*
Y98327D02*
D03*
Y95768D02*
D03*
Y93209D02*
D03*
Y90650D02*
D03*
Y88091D02*
D03*
Y85532D02*
D03*
Y82973D02*
D03*
X284055D02*
D03*
Y85532D02*
D03*
Y88091D02*
D03*
Y90650D02*
D03*
Y93209D02*
D03*
Y95768D02*
D03*
Y98327D02*
D03*
Y100886D02*
D03*
Y103445D02*
D03*
Y106004D02*
D03*
D118*
X276772Y50046D02*
D03*
Y57526D02*
D03*
X285433Y53786D02*
D03*
X276772Y67126D02*
D03*
Y74606D02*
D03*
X285433Y70866D02*
D03*
D119*
X132677Y191339D02*
D03*
X141732D02*
D03*
X150787D02*
D03*
D120*
X141732Y166929D02*
D03*
D121*
X261221Y103445D02*
X267815D01*
X270670Y106300D01*
X261221Y140847D02*
X265750D01*
D122*
X141732Y166929D02*
Y191339D01*
M02*
