M48
;Layer_Color=9474304
;FILE_FORMAT=2:3
INCH,TZ
;TYPE=PLATED
T01F00S00C0.010
T02F00S00C0.016
T03F00S00C0.031
T04F00S00C0.032
T05F00S00C0.039
T06F00S00C0.043
;TYPE=NON_PLATED
T07F00S00C0.022
%
T01
X4046Y2903
X4073Y2890
X4029Y2928
X4296Y2907
X4319Y2926
X4357Y2838
X4380Y2857
X4405Y2873
X4433Y2885
X4462Y2892
X4522Y2892
X4552Y2892
X4587Y2859
X4597Y2830
X4610Y2803
X4628Y2779
X4649Y2758
X4667Y2734
X4691Y2716
X4721Y2714
X4726Y2837
X4703Y2857
X4186Y2776
X4199Y2750
X4224Y2733
X4203Y3002
X4225Y3023
X4246Y3044
X4267Y3066
X4288Y3087
X4309Y3108
X4331Y3129
X4352Y3150
X4375Y3170
X4400Y3186
X4427Y3198
X4456Y3207
X4546Y3209
X4576Y3209
X4633Y3198
X4663Y3196
X4641Y3319
X4614Y3306
X4584Y3305
X4554Y3308
X4524Y3307
X4494Y3305
X4465Y3301
X4435Y3296
X4406Y3288
X4378Y3277
X4351Y3263
X4326Y3247
X4302Y3229
X4281Y3208
X4259Y3187
X4238Y3166
X4217Y3145
X4196Y3124
X4174Y3102
X4344Y2943
X4370Y2958
X4398Y2969
X4427Y2978
X4456Y2984
X4486Y2987
X4516Y2989
X4546Y2991
X4579Y2990
X4609Y2988
X4639Y2988
X4153Y3081
X4132Y3060
T02
X4185Y583
X4225
Y622
X4185
X4264Y622
X4302
Y583
X4264
X4301Y1004
X4341Y1033
X4163Y1250
X4685Y758
Y709
Y659
X4744
Y709
Y758
X4803
Y709
Y659
X4080Y625
X4114Y1250
X3720Y1240
X3665Y1323
X3469Y1344
X3355Y1342
X3199Y1329
X3041Y1329
X2963Y1358
X2919Y1270
X2911Y1132
X3041Y1053
X3088Y889
X2919Y892
X2746Y984
X2677Y817
X2686Y601
X2597
X2835Y433
X2923Y522
X3199Y1171
X3455Y1135
X3541Y1151
X3418Y1031
X2671Y1203
X2549Y1195
X2481Y1127
X2549Y817
X2589Y423
X2018Y335
X1752
X1467Y413
X1516Y643
X1516Y955
X1624Y876
X1840Y631
X758Y1634
Y1673
X739Y1933
X719Y1964
X1122Y1939
Y1900
Y1860
X1161
Y1900
Y1939
X1201
Y1900
Y1860
X1240
Y1900
Y1939
X1565Y1949
X1604
X1644
X1683
X1722
Y1890
X1683
X1644
X1604
X1565
X1604Y1831
X1644Y1831
X1683
X1722
X1653Y1576
X1654Y1516
X1688Y1451
Y1409
X1043Y1555
X1900Y2037
X1939
X1978
X2018
Y2077
Y2116
Y2156
Y2195
X1978
X1939
Y2156
X1978
Y2116
Y2077
X1939
Y2116
X1900
Y2077
Y2156
Y2195
X2303Y2224
X2372
X2335Y1970
X2297Y1971
X2303Y1900
X2254
X2205
X2156
Y1850
X2205
X2539Y1575
X2362Y2589
X2913Y2618
X3278Y2717
X3317Y2756
X3337Y2195
X3448Y2083
X3505Y2030
X3562Y1971
X3614Y1920
X3563Y1860
X3672Y1861
X3680Y1767
X3726Y1804
X3427Y1789
X3465Y1752
X3504Y1713
X3543Y1654
X3497Y1607
X3447Y1558
X3349Y1666
X3278Y1733
X3228Y1644
X3140Y1545
X3100Y1506
X3047Y1685
X2937Y1723
X2884Y1752
X3142Y1748
X3034Y1896
X3063Y1925
X3004
X3034Y1955
X3063Y1984
X3093Y2014
X3122Y1984
X3093Y1955
X2746Y2254
X4045Y1654
X4094Y1703
X4111Y1499
X4006Y1427
X4213
Y1516
X4350
Y1427
X4486
X4488Y1516
X4587
X4675Y1526
Y1575
Y1624
X4734
Y1575
Y1526
X4689Y1427
X4242Y1772
X5010Y1988
Y2028
Y2067
Y2106
X4690Y2492
X4653Y2529
X4621Y2562
X4590Y2600
X4547Y2638
X4509Y2674
X4902Y2904
X3829Y3002
X2851Y3078
X2165Y3159
Y3199
Y3238
X2106
Y3199
Y3159
X2047
Y3199
Y3238
X1476Y3022
X1378
T03
X634Y1731
Y1900
X823
Y1731
X945Y2087
Y2283
X1496Y2500
Y2697
X2238Y2135
Y1966
X2427
Y2135
T04
X5118Y931
Y1031
Y1131
Y1231
Y1331
X5236
Y1231
Y1131
Y1031
Y931
X1969Y934
Y834
Y734
X1850
Y834
Y934
Y1034
Y1134
Y1234
X1969
Y1134
Y1034
Y1364
X1850
X433
X315
Y1234
Y1134
Y1034
Y934
Y834
Y734
X433
Y834
Y934
Y1034
Y1134
Y1234
X478Y295
X578
X678
X778
X878
X978
X433Y1464
Y1564
Y1664
Y1764
Y1864
X315
Y1764
Y1664
Y1564
Y1464
X1850
Y1564
Y1664
Y1764
Y1864
X1969
Y1764
Y1664
Y1564
Y1464
X5118Y1431
X5236
Y1994
Y2094
Y2194
Y2294
Y2394
Y2494
X5118
Y2394
Y2294
Y2194
Y2094
Y1994
X1667Y3150
X1567
X1467
X1367
X1267
X1167
Y3268
X1267
X1367
X1467
X1567
X1667
X1037Y3268
Y3150
X937
X837
X737
X637
X537
Y3268
X637
X737
X837
X937
T05
X1722Y2116
X1822
X2480Y2293
X2580
X1644Y2932
Y3032
X2106Y3052
Y2952
T06
X2274Y680
Y780
Y880
Y980
Y1080
Y1180
Y1280
X2374
Y1180
Y1080
Y980
Y880
Y780
Y680
Y1380
Y1480
Y1580
X2274
Y1480
Y1380
T07
X876Y1816
X2185Y2051
M30
