G04*
G04 #@! TF.GenerationSoftware,Altium Limited,Altium Designer,24.5.2 (23)*
G04*
G04 Layer_Color=16711935*
%FSLAX25Y25*%
%MOIN*%
G70*
G04*
G04 #@! TF.SameCoordinates,C5BE965C-77EF-49D7-B31C-3167439F9788*
G04*
G04*
G04 #@! TF.FilePolarity,Positive*
G04*
G01*
G75*
%ADD129C,0.00394*%
G36*
X142323Y50748D02*
X71457D01*
Y74370D01*
X142323D01*
Y50748D01*
D02*
G37*
D129*
X-12Y271654D02*
X995Y271681D01*
X2001Y271737D01*
X3005Y271821D01*
X4007Y271934D01*
X5005Y272074D01*
X5998Y272242D01*
X6986Y272439D01*
X7969Y272662D01*
X8945Y272914D01*
X9913Y273192D01*
X10873Y273498D01*
X11824Y273830D01*
X12766Y274189D01*
X13697Y274574D01*
X14617Y274985D01*
X15525Y275422D01*
X16420Y275884D01*
X17302Y276371D01*
X18170Y276882D01*
X19024Y277418D01*
X19862Y277977D01*
X20684Y278560D01*
X21489Y279165D01*
X22277Y279793D01*
X23048Y280443D01*
X23799Y281114D01*
X24532Y281806D01*
X25245Y282518D01*
X25937Y283250D01*
X26609Y284001D01*
X27259Y284770D01*
X27888Y285558D01*
X28494Y286363D01*
X29078Y287184D01*
X29638Y288021D01*
X30174Y288874D01*
X30687Y289742D01*
X31175Y290624D01*
X31637Y291519D01*
X32075Y292426D01*
X32487Y293346D01*
X32873Y294276D01*
X33233Y295218D01*
X33566Y296168D01*
X33873Y297128D01*
X34152Y298096D01*
X34404Y299072D01*
X34629Y300054D01*
X34826Y301042D01*
X34995Y302036D01*
X35137Y303033D01*
X35250Y304034D01*
X35335Y305038D01*
X35392Y306045D01*
X35421Y307052D01*
X35421Y308059D01*
X5906Y162992D02*
X6902Y163052D01*
X7884Y163232D01*
X8837Y163529D01*
X9748Y163939D01*
X10602Y164456D01*
X11388Y165071D01*
X12094Y165777D01*
X12710Y166563D01*
X13226Y167418D01*
X13636Y168328D01*
X13933Y169281D01*
X14113Y170263D01*
X14173Y171260D01*
X14113Y172256D01*
X13933Y173238D01*
X13636Y174192D01*
X13226Y175102D01*
X12710Y175956D01*
X12094Y176742D01*
X11388Y177448D01*
X10602Y178064D01*
X9748Y178580D01*
X8837Y178990D01*
X7884Y179287D01*
X6902Y179467D01*
X5906Y179528D01*
X533465D02*
X532468Y179467D01*
X531486Y179287D01*
X530533Y178990D01*
X529622Y178580D01*
X528768Y178064D01*
X527982Y177448D01*
X527276Y176742D01*
X526660Y175956D01*
X526144Y175102D01*
X525734Y174192D01*
X525437Y173238D01*
X525257Y172256D01*
X525197Y171260D01*
X525257Y170263D01*
X525437Y169281D01*
X525734Y168328D01*
X526144Y167418D01*
X526660Y166563D01*
X527276Y165777D01*
X527982Y165071D01*
X528768Y164456D01*
X529622Y163939D01*
X530533Y163529D01*
X531486Y163232D01*
X532468Y163052D01*
X533465Y162992D01*
X35421Y34461D02*
X35421Y35468D01*
X35392Y36475D01*
X35335Y37481D01*
X35250Y38485D01*
X35137Y39487D01*
X34995Y40484D01*
X34826Y41478D01*
X34629Y42466D01*
X34404Y43448D01*
X34152Y44423D01*
X33873Y45391D01*
X33566Y46351D01*
X33233Y47302D01*
X32873Y48243D01*
X32487Y49174D01*
X32075Y50094D01*
X31637Y51001D01*
X31174Y51896D01*
X30687Y52778D01*
X30174Y53645D01*
X29638Y54498D01*
X29078Y55336D01*
X28494Y56157D01*
X27888Y56962D01*
X27259Y57749D01*
X26609Y58519D01*
X25937Y59270D01*
X25245Y60002D01*
X24532Y60714D01*
X23799Y61406D01*
X23047Y62077D01*
X22277Y62727D01*
X21489Y63354D01*
X20684Y63960D01*
X19862Y64543D01*
X19024Y65102D01*
X18170Y65638D01*
X17302Y66149D01*
X16420Y66636D01*
X15525Y67098D01*
X14617Y67535D01*
X13697Y67946D01*
X12766Y68331D01*
X11824Y68690D01*
X10873Y69022D01*
X9913Y69328D01*
X8945Y69606D01*
X7969Y69857D01*
X6986Y70081D01*
X5998Y70277D01*
X5004Y70446D01*
X4007Y70586D01*
X3005Y70698D01*
X2001Y70782D01*
X995Y70838D01*
X-12Y70866D01*
X39370Y342520D02*
X38351Y342386D01*
X37402Y341992D01*
X36586Y341367D01*
X35961Y340551D01*
X35567Y339602D01*
X35433Y338583D01*
X539382Y70866D02*
X538375Y70838D01*
X537369Y70782D01*
X536365Y70698D01*
X535363Y70586D01*
X534366Y70446D01*
X533372Y70277D01*
X532384Y70081D01*
X531401Y69857D01*
X530426Y69606D01*
X529457Y69328D01*
X528497Y69022D01*
X527546Y68690D01*
X526604Y68331D01*
X525673Y67946D01*
X524753Y67535D01*
X523845Y67098D01*
X522950Y66636D01*
X522068Y66149D01*
X521200Y65638D01*
X520346Y65102D01*
X519508Y64543D01*
X518686Y63960D01*
X517881Y63354D01*
X517093Y62727D01*
X516323Y62077D01*
X515571Y61406D01*
X514838Y60714D01*
X514126Y60002D01*
X513433Y59270D01*
X512761Y58519D01*
X512111Y57749D01*
X511482Y56962D01*
X510876Y56157D01*
X510292Y55336D01*
X509732Y54498D01*
X509196Y53645D01*
X508683Y52778D01*
X508195Y51896D01*
X507733Y51001D01*
X507295Y50094D01*
X506883Y49174D01*
X506497Y48243D01*
X506137Y47302D01*
X505804Y46351D01*
X505498Y45391D01*
X505218Y44423D01*
X504966Y43448D01*
X504741Y42466D01*
X504544Y41478D01*
X504375Y40484D01*
X504234Y39487D01*
X504120Y38485D01*
X504035Y37481D01*
X503978Y36475D01*
X503949Y35468D01*
X503949Y34461D01*
X35433Y3937D02*
X35567Y2918D01*
X35961Y1969D01*
X36586Y1153D01*
X37402Y527D01*
X38351Y134D01*
X39370Y0D01*
X503937Y338583D02*
X503803Y339602D01*
X503410Y340551D01*
X502784Y341367D01*
X501968Y341992D01*
X501019Y342386D01*
X500000Y342520D01*
Y0D02*
X501019Y134D01*
X501968Y527D01*
X502784Y1153D01*
X503410Y1969D01*
X503803Y2918D01*
X503937Y3937D01*
X503951Y308057D02*
X503951Y307050D01*
X503980Y306043D01*
X504037Y305037D01*
X504122Y304033D01*
X504235Y303032D01*
X504377Y302034D01*
X504546Y301041D01*
X504743Y300053D01*
X504967Y299071D01*
X505220Y298095D01*
X505499Y297128D01*
X505805Y296168D01*
X506139Y295217D01*
X506498Y294276D01*
X506884Y293345D01*
X507296Y292426D01*
X507734Y291518D01*
X508197Y290623D01*
X508685Y289742D01*
X509197Y288874D01*
X509733Y288021D01*
X510293Y287184D01*
X510877Y286363D01*
X511483Y285558D01*
X512112Y284771D01*
X512762Y284001D01*
X513434Y283250D01*
X514126Y282519D01*
X514839Y281806D01*
X515571Y281115D01*
X516323Y280444D01*
X517093Y279794D01*
X517881Y279166D01*
X518686Y278561D01*
X519508Y277978D01*
X520346Y277419D01*
X521200Y276883D01*
X522068Y276372D01*
X522950Y275885D01*
X523845Y275423D01*
X524753Y274986D01*
X525673Y274575D01*
X526604Y274190D01*
X527545Y273831D01*
X528497Y273499D01*
X529457Y273194D01*
X530425Y272915D01*
X531400Y272664D01*
X532383Y272440D01*
X533371Y272244D01*
X534365Y272076D01*
X535362Y271936D01*
X536363Y271823D01*
X537367Y271739D01*
X538373Y271683D01*
X539380Y271655D01*
X-12Y179539D02*
Y271654D01*
X503949Y3949D02*
Y34461D01*
X0Y70878D02*
Y162992D01*
X533465Y162992D02*
X539370D01*
X39370Y0D02*
X500000D01*
X35421Y3949D02*
Y34461D01*
X539380Y271655D02*
X539382Y271654D01*
X533465Y179527D02*
X539370D01*
X503949Y338571D02*
X503951Y308057D01*
X539370Y179527D02*
Y271645D01*
X0Y162992D02*
X5906D01*
X39370Y342520D02*
X500000D01*
X539370Y70878D02*
Y162992D01*
X0Y179528D02*
X5906D01*
X35421Y308059D02*
Y338571D01*
M02*
