G04*
G04 #@! TF.GenerationSoftware,Altium Limited,Altium Designer,24.5.2 (23)*
G04*
G04 Layer_Color=8421504*
%FSLAX44Y44*%
%MOMM*%
G71*
G04*
G04 #@! TF.SameCoordinates,164FEA2C-ADE8-48CB-B743-27DEF7324C7D*
G04*
G04*
G04 #@! TF.FilePolarity,Positive*
G04*
G01*
G75*
%ADD16R,2.2000X1.0500*%
%ADD17R,1.1000X1.0000*%
G04:AMPARAMS|DCode=18|XSize=0.55mm|YSize=1.55mm|CornerRadius=0mm|HoleSize=0mm|Usage=FLASHONLY|Rotation=45.000|XOffset=0mm|YOffset=0mm|HoleType=Round|Shape=Rectangle|*
%AMROTATEDRECTD18*
4,1,4,0.3536,-0.7425,-0.7425,0.3536,-0.3536,0.7425,0.7425,-0.3536,0.3536,-0.7425,0.0*
%
%ADD18ROTATEDRECTD18*%

%ADD19R,0.9000X1.5000*%
%ADD20R,1.5000X0.9000*%
%ADD21R,0.9000X0.9000*%
%ADD22R,0.9400X1.0200*%
%ADD23R,0.3000X0.8700*%
%ADD24R,1.0200X0.9400*%
%ADD25R,1.2000X1.3000*%
%ADD26R,1.4000X1.9000*%
%ADD27R,1.8000X1.4000*%
%ADD28R,0.8000X1.5000*%
%ADD29C,1.0000*%
%ADD30R,1.1000X1.6500*%
%ADD31R,1.5000X1.5000*%
G04:AMPARAMS|DCode=32|XSize=1.3mm|YSize=1.2mm|CornerRadius=0mm|HoleSize=0mm|Usage=FLASHONLY|Rotation=45.000|XOffset=0mm|YOffset=0mm|HoleType=Round|Shape=Rectangle|*
%AMROTATEDRECTD32*
4,1,4,-0.0354,-0.8839,-0.8839,-0.0354,0.0354,0.8839,0.8839,0.0354,-0.0354,-0.8839,0.0*
%
%ADD32ROTATEDRECTD32*%

%ADD33R,0.8700X0.3000*%
%ADD34R,1.3000X1.2000*%
%ADD35R,1.0414X4.0386*%
%ADD36R,10.7442X8.3058*%
%ADD37R,5.4000X2.9000*%
%ADD38R,2.5000X3.3000*%
%ADD39R,2.1600X1.0700*%
%ADD40R,0.7500X1.1300*%
%ADD41R,0.5800X2.1000*%
%ADD42R,0.6500X1.1300*%
%ADD43R,0.3500X0.4000*%
%ADD44R,0.3000X0.3000*%
%ADD45R,0.9700X1.0000*%
G04:AMPARAMS|DCode=46|XSize=0.94mm|YSize=1.02mm|CornerRadius=0mm|HoleSize=0mm|Usage=FLASHONLY|Rotation=225.000|XOffset=0mm|YOffset=0mm|HoleType=Round|Shape=Rectangle|*
%AMROTATEDRECTD46*
4,1,4,-0.0283,0.6930,0.6930,-0.0283,0.0283,-0.6930,-0.6930,0.0283,-0.0283,0.6930,0.0*
%
%ADD46ROTATEDRECTD46*%

G04:AMPARAMS|DCode=47|XSize=2.5mm|YSize=0.8mm|CornerRadius=0.4mm|HoleSize=0mm|Usage=FLASHONLY|Rotation=45.000|XOffset=0mm|YOffset=0mm|HoleType=Round|Shape=RoundedRectangle|*
%AMROUNDEDRECTD47*
21,1,2.5000,0.0000,0,0,45.0*
21,1,1.7000,0.8000,0,0,45.0*
1,1,0.8000,0.6010,0.6010*
1,1,0.8000,-0.6010,-0.6010*
1,1,0.8000,-0.6010,-0.6010*
1,1,0.8000,0.6010,0.6010*
%
%ADD47ROUNDEDRECTD47*%
%ADD48P,1.5556X4X90.0*%
G04:AMPARAMS|DCode=49|XSize=2.5mm|YSize=0.8mm|CornerRadius=0.4mm|HoleSize=0mm|Usage=FLASHONLY|Rotation=135.000|XOffset=0mm|YOffset=0mm|HoleType=Round|Shape=RoundedRectangle|*
%AMROUNDEDRECTD49*
21,1,2.5000,0.0000,0,0,135.0*
21,1,1.7000,0.8000,0,0,135.0*
1,1,0.8000,-0.6010,0.6010*
1,1,0.8000,0.6010,-0.6010*
1,1,0.8000,0.6010,-0.6010*
1,1,0.8000,-0.6010,0.6010*
%
%ADD49ROUNDEDRECTD49*%
G04:AMPARAMS|DCode=50|XSize=3mm|YSize=2mm|CornerRadius=0mm|HoleSize=0mm|Usage=FLASHONLY|Rotation=135.000|XOffset=0mm|YOffset=0mm|HoleType=Round|Shape=Rectangle|*
%AMROTATEDRECTD50*
4,1,4,1.7678,-0.3536,0.3536,-1.7678,-1.7678,0.3536,-0.3536,1.7678,1.7678,-0.3536,0.0*
%
%ADD50ROTATEDRECTD50*%

G36*
X208000Y714500D02*
X270000D01*
Y627500D01*
X208000D01*
Y617000D01*
X193300D01*
Y725000D01*
X208000D01*
Y714500D01*
D02*
G37*
D16*
X1207500Y719750D02*
D03*
Y690250D02*
D03*
X1197334Y842250D02*
D03*
Y812750D02*
D03*
D17*
X1191000Y705000D02*
D03*
X1180834Y827500D02*
D03*
D18*
X773545Y445896D02*
D03*
X764565Y436916D02*
D03*
X755584Y427935D02*
D03*
X746604Y418955D02*
D03*
X823396Y396045D02*
D03*
X814416Y387065D02*
D03*
X805435Y378084D02*
D03*
X796455Y369104D02*
D03*
D19*
X239900Y416750D02*
D03*
X252600D02*
D03*
X265300D02*
D03*
X278000D02*
D03*
X290700D02*
D03*
X303400D02*
D03*
X316100D02*
D03*
X328800D02*
D03*
X341500D02*
D03*
X354200D02*
D03*
X366900D02*
D03*
X379600D02*
D03*
X392300D02*
D03*
X405000D02*
D03*
Y241750D02*
D03*
X392300D02*
D03*
X379600D02*
D03*
X366900D02*
D03*
X354200D02*
D03*
X341500D02*
D03*
X328800D02*
D03*
X316100D02*
D03*
X303400D02*
D03*
X290700D02*
D03*
X278000D02*
D03*
X265300D02*
D03*
X252600D02*
D03*
X239900D02*
D03*
D20*
X417500Y399100D02*
D03*
Y386400D02*
D03*
Y373700D02*
D03*
Y361000D02*
D03*
Y348300D02*
D03*
Y335600D02*
D03*
Y322900D02*
D03*
Y310200D02*
D03*
Y297500D02*
D03*
Y284800D02*
D03*
Y272100D02*
D03*
Y259400D02*
D03*
D21*
X303100Y328250D02*
D03*
Y314250D02*
D03*
Y300250D02*
D03*
X331100Y328250D02*
D03*
Y314250D02*
D03*
Y300250D02*
D03*
X317100Y328250D02*
D03*
Y300250D02*
D03*
Y314250D02*
D03*
D22*
X407100Y163097D02*
D03*
X422900D02*
D03*
X144600Y497500D02*
D03*
X160400D02*
D03*
X342100Y164497D02*
D03*
X357900D02*
D03*
X422900Y146100D02*
D03*
X407100D02*
D03*
X520800Y22500D02*
D03*
X505000D02*
D03*
X499600Y150000D02*
D03*
X515400D02*
D03*
X615400Y672500D02*
D03*
X599600D02*
D03*
X291700Y605000D02*
D03*
X307500D02*
D03*
X329600D02*
D03*
X345400D02*
D03*
D23*
X565064Y529525D02*
D03*
X580064D02*
D03*
X585064D02*
D03*
X590064D02*
D03*
X595064D02*
D03*
X600064D02*
D03*
X605064D02*
D03*
X620064D02*
D03*
Y512225D02*
D03*
X605064D02*
D03*
X600064D02*
D03*
X595064D02*
D03*
X590064D02*
D03*
X585064D02*
D03*
X580064D02*
D03*
X565064D02*
D03*
X157500Y467300D02*
D03*
X172500D02*
D03*
X177500D02*
D03*
X182500D02*
D03*
X187500D02*
D03*
X192500D02*
D03*
X197500D02*
D03*
X212500D02*
D03*
Y450000D02*
D03*
X197500D02*
D03*
X192500D02*
D03*
X187500D02*
D03*
X182500D02*
D03*
X177500D02*
D03*
X172500D02*
D03*
X157500D02*
D03*
D24*
X245000Y449600D02*
D03*
Y465400D02*
D03*
X178000Y432900D02*
D03*
Y417100D02*
D03*
X192000Y432900D02*
D03*
Y417100D02*
D03*
X274991Y162358D02*
D03*
Y178158D02*
D03*
X297500Y162358D02*
D03*
Y178158D02*
D03*
X585000Y92900D02*
D03*
Y77100D02*
D03*
X565000D02*
D03*
Y92900D02*
D03*
X650000Y670400D02*
D03*
Y654600D02*
D03*
X667500Y654600D02*
D03*
Y670400D02*
D03*
X685000Y670400D02*
D03*
Y654600D02*
D03*
X567500Y590000D02*
D03*
Y574200D02*
D03*
X656364Y527573D02*
D03*
Y511773D02*
D03*
X1034770Y352387D02*
D03*
Y336587D02*
D03*
X1017427Y352387D02*
D03*
Y336587D02*
D03*
X971964Y325608D02*
D03*
Y309808D02*
D03*
X585000Y574600D02*
D03*
Y590400D02*
D03*
X602500Y574600D02*
D03*
Y590400D02*
D03*
X1208689Y756597D02*
D03*
Y740797D02*
D03*
X1086880Y336587D02*
D03*
Y352387D02*
D03*
X1052120Y336587D02*
D03*
Y352387D02*
D03*
X1069711Y336587D02*
D03*
Y352387D02*
D03*
X1173571Y336587D02*
D03*
Y352387D02*
D03*
X1156402Y336587D02*
D03*
Y352387D02*
D03*
X1190880Y336587D02*
D03*
Y352387D02*
D03*
X1104471Y336587D02*
D03*
Y352387D02*
D03*
X1139092Y336587D02*
D03*
Y352387D02*
D03*
X1121641Y336587D02*
D03*
Y352387D02*
D03*
X931554Y325608D02*
D03*
Y309808D02*
D03*
X897557Y325608D02*
D03*
Y309808D02*
D03*
X813049Y325608D02*
D03*
Y309808D02*
D03*
X830605Y325608D02*
D03*
Y309808D02*
D03*
X864692Y325608D02*
D03*
Y309808D02*
D03*
D25*
X172014Y272114D02*
D03*
X153014D02*
D03*
X152600Y387261D02*
D03*
X171600D02*
D03*
X171599Y289818D02*
D03*
X152599D02*
D03*
X152623Y369455D02*
D03*
X171623D02*
D03*
X171300Y307604D02*
D03*
X152300D02*
D03*
X233764Y222815D02*
D03*
X252764D02*
D03*
X340500Y147500D02*
D03*
X359500D02*
D03*
D26*
X1018750Y149250D02*
D03*
X1150250Y139250D02*
D03*
D27*
X1034750Y280750D02*
D03*
X1091750D02*
D03*
D28*
X1081650Y177750D02*
D03*
X1059650D02*
D03*
X1037650D02*
D03*
X1026650D02*
D03*
X1103650D02*
D03*
X1092650Y181750D02*
D03*
X1070650Y175750D02*
D03*
X1048650D02*
D03*
D29*
X172300Y47500D02*
D03*
X248500D02*
D03*
X197700D02*
D03*
X121500D02*
D03*
X146900D02*
D03*
X223100D02*
D03*
D30*
X437500Y101500D02*
D03*
Y13500D02*
D03*
X392500Y101500D02*
D03*
Y13500D02*
D03*
X372500Y101500D02*
D03*
Y13500D02*
D03*
X327500Y101500D02*
D03*
Y13500D02*
D03*
X670000Y101500D02*
D03*
Y13500D02*
D03*
X625000Y101500D02*
D03*
Y13500D02*
D03*
X734851Y101500D02*
D03*
Y13500D02*
D03*
X689851Y101500D02*
D03*
Y13500D02*
D03*
X245000Y186500D02*
D03*
Y98500D02*
D03*
X200000Y186500D02*
D03*
Y98500D02*
D03*
X755000Y13500D02*
D03*
Y101500D02*
D03*
X800000Y13500D02*
D03*
Y101500D02*
D03*
X179420Y186500D02*
D03*
X179422Y98500D02*
D03*
X134420Y186500D02*
D03*
X134422Y98500D02*
D03*
D31*
X274990Y107500D02*
D03*
Y142500D02*
D03*
X297500Y107500D02*
D03*
Y142500D02*
D03*
X565000Y20000D02*
D03*
Y55000D02*
D03*
X585000Y20000D02*
D03*
Y55000D02*
D03*
D32*
X814218Y478283D02*
D03*
X800782Y491717D02*
D03*
X801718Y465783D02*
D03*
X788282Y479217D02*
D03*
X841718Y413283D02*
D03*
X828282Y426717D02*
D03*
D33*
X512300Y60000D02*
D03*
Y75000D02*
D03*
Y80000D02*
D03*
Y85000D02*
D03*
Y90000D02*
D03*
Y95000D02*
D03*
Y100000D02*
D03*
Y115000D02*
D03*
X495000D02*
D03*
Y100000D02*
D03*
Y95000D02*
D03*
Y90000D02*
D03*
Y85000D02*
D03*
Y80000D02*
D03*
Y75000D02*
D03*
Y60000D02*
D03*
D34*
X189892Y579500D02*
D03*
Y560500D02*
D03*
X330000Y738000D02*
D03*
Y757000D02*
D03*
X370000Y738000D02*
D03*
Y757000D02*
D03*
X350000Y738000D02*
D03*
Y757000D02*
D03*
X210000Y560500D02*
D03*
Y579500D02*
D03*
X1226670Y759811D02*
D03*
Y740811D02*
D03*
X795950Y308208D02*
D03*
X795958Y327208D02*
D03*
X914230Y308208D02*
D03*
Y327208D02*
D03*
X780000Y748000D02*
D03*
Y767000D02*
D03*
X800000Y748000D02*
D03*
Y767000D02*
D03*
X820000Y748000D02*
D03*
Y767000D02*
D03*
X780000Y795500D02*
D03*
Y814500D02*
D03*
X820000Y795500D02*
D03*
Y814500D02*
D03*
X800000Y795500D02*
D03*
Y814500D02*
D03*
X760000Y795500D02*
D03*
Y814500D02*
D03*
Y748000D02*
D03*
Y767000D02*
D03*
X840000Y795500D02*
D03*
Y814500D02*
D03*
X860000Y795500D02*
D03*
Y814500D02*
D03*
X840000Y748000D02*
D03*
Y767000D02*
D03*
X860000Y748000D02*
D03*
Y767000D02*
D03*
X881018Y308208D02*
D03*
X881020Y327208D02*
D03*
X847524Y308208D02*
D03*
Y327208D02*
D03*
D35*
X598500Y704508D02*
D03*
X615500D02*
D03*
X632500D02*
D03*
X649500D02*
D03*
X666500D02*
D03*
D36*
X632500Y808000D02*
D03*
D37*
X117500Y531000D02*
D03*
Y630000D02*
D03*
D38*
X103500Y692500D02*
D03*
X171500D02*
D03*
D39*
X335000Y637000D02*
D03*
Y654000D02*
D03*
Y671000D02*
D03*
Y688000D02*
D03*
Y705000D02*
D03*
D40*
X877600Y277425D02*
D03*
X852200D02*
D03*
X826800D02*
D03*
X890300D02*
D03*
X864900D02*
D03*
X839500D02*
D03*
D41*
X940000Y262575D02*
D03*
Y142575D02*
D03*
X810000D02*
D03*
Y262575D02*
D03*
D42*
X899800Y277425D02*
D03*
D43*
X1158561Y827500D02*
D03*
X1152061D02*
D03*
X1158561Y747084D02*
D03*
X1152061D02*
D03*
D44*
X1143859Y821500D02*
D03*
Y827500D02*
D03*
X1167096Y821500D02*
D03*
Y827500D02*
D03*
Y741057D02*
D03*
Y747057D02*
D03*
X1143859Y741057D02*
D03*
Y747057D02*
D03*
X1174895Y741057D02*
D03*
Y747057D02*
D03*
D45*
X1190685Y756047D02*
D03*
Y741347D02*
D03*
D46*
X753086Y465586D02*
D03*
X741914Y454414D02*
D03*
D47*
X1065156Y732582D02*
D03*
X1074349Y723390D02*
D03*
X851610Y500652D02*
D03*
X842418Y509844D02*
D03*
X997274Y800465D02*
D03*
X1006466Y791272D02*
D03*
X1015659Y782080D02*
D03*
X1024851Y772888D02*
D03*
X1034043Y763695D02*
D03*
X1043236Y754503D02*
D03*
X1052428Y745310D02*
D03*
X1083541Y714198D02*
D03*
X1092733Y705005D02*
D03*
X1101926Y695813D02*
D03*
X1111118Y686621D02*
D03*
X1120311Y677428D02*
D03*
X1129503Y668236D02*
D03*
X1138695Y659043D02*
D03*
X1147888Y649851D02*
D03*
X1157080Y640659D02*
D03*
X1166272Y631466D02*
D03*
X1175465Y622274D02*
D03*
X952726Y399535D02*
D03*
X943534Y408728D02*
D03*
X934341Y417920D02*
D03*
X925149Y427112D02*
D03*
X915957Y436305D02*
D03*
X906764Y445497D02*
D03*
X897572Y454690D02*
D03*
X888380Y463882D02*
D03*
X879187Y473074D02*
D03*
X869995Y482267D02*
D03*
X860802Y491459D02*
D03*
X829690Y522572D02*
D03*
X820497Y531764D02*
D03*
X811305Y540957D02*
D03*
X802112Y550149D02*
D03*
X792920Y559341D02*
D03*
X783728Y568534D02*
D03*
X774535Y577726D02*
D03*
D48*
X960858Y430294D02*
D03*
X946716Y444436D02*
D03*
X932574Y458579D02*
D03*
X918431Y472721D02*
D03*
X904289Y486863D02*
D03*
X889440Y501712D02*
D03*
X876005Y515147D02*
D03*
X861863Y529289D02*
D03*
X847721Y543432D02*
D03*
X833579Y557574D02*
D03*
X819436Y571716D02*
D03*
X805294Y585858D02*
D03*
X975000Y444436D02*
D03*
X960858Y458579D02*
D03*
X946716Y472721D02*
D03*
X932574Y486863D02*
D03*
X918431Y501005D02*
D03*
X904289Y515147D02*
D03*
X890147Y529289D02*
D03*
X876005Y543432D02*
D03*
X861863Y557574D02*
D03*
X847721Y571716D02*
D03*
X833579Y585858D02*
D03*
X819436Y600000D02*
D03*
X969343Y571716D02*
D03*
X958029Y583029D02*
D03*
X946716Y594343D02*
D03*
X980657Y583029D02*
D03*
X969343Y594343D02*
D03*
X958029Y605657D02*
D03*
X991971Y594343D02*
D03*
X980657Y605657D02*
D03*
X969343Y616971D02*
D03*
X1003284Y605657D02*
D03*
X991971Y616971D02*
D03*
X980657Y628284D02*
D03*
D49*
X989849Y413324D02*
D03*
X999042Y422516D02*
D03*
X788324Y614849D02*
D03*
X797516Y624042D02*
D03*
X806709Y633234D02*
D03*
X815901Y642426D02*
D03*
X825093Y651619D02*
D03*
X834286Y660811D02*
D03*
X843478Y670004D02*
D03*
X852671Y679196D02*
D03*
X861863Y688388D02*
D03*
X871055Y697581D02*
D03*
X880248Y706773D02*
D03*
X889440Y715965D02*
D03*
X898633Y725158D02*
D03*
X907825Y734350D02*
D03*
X917017Y743543D02*
D03*
X926210Y752735D02*
D03*
X935402Y761927D02*
D03*
X944594Y771120D02*
D03*
X953787Y780312D02*
D03*
X962979Y789505D02*
D03*
X1164505Y587979D02*
D03*
X1155312Y578787D02*
D03*
X1146120Y569594D02*
D03*
X1136927Y560402D02*
D03*
X1127735Y551210D02*
D03*
X1118543Y542017D02*
D03*
X1109350Y532825D02*
D03*
X1100158Y523633D02*
D03*
X1090965Y514440D02*
D03*
X1081773Y505248D02*
D03*
X1072581Y496055D02*
D03*
X1063388Y486863D02*
D03*
X1054196Y477671D02*
D03*
X1045004Y468478D02*
D03*
X1035811Y459286D02*
D03*
X1026619Y450093D02*
D03*
X1017426Y440901D02*
D03*
X1008234Y431709D02*
D03*
D50*
X984900Y474135D02*
D03*
X950958Y508076D02*
D03*
X917017Y542017D02*
D03*
X883076Y575958D02*
D03*
X849135Y609899D02*
D03*
X1007527Y496762D02*
D03*
X973586Y530704D02*
D03*
X939645Y564645D02*
D03*
X905704Y598586D02*
D03*
X871762Y632527D02*
D03*
X1031569Y520804D02*
D03*
X997627Y554745D02*
D03*
X928684Y621567D02*
D03*
X895804Y656569D02*
D03*
X1054196Y543432D02*
D03*
X1020255Y577373D02*
D03*
X952373Y645255D02*
D03*
X918431Y679196D02*
D03*
X1078238Y567473D02*
D03*
X1044296Y601414D02*
D03*
X1010355Y635355D02*
D03*
X976414Y669296D02*
D03*
X942473Y703238D02*
D03*
X1100865Y590101D02*
D03*
X1066924Y624042D02*
D03*
X1032983Y657983D02*
D03*
X999042Y691924D02*
D03*
X965100Y725865D02*
D03*
M02*
