G04*
G04 #@! TF.GenerationSoftware,Altium Limited,Altium Designer,24.5.2 (23)*
G04*
G04 Layer_Color=32896*
%FSLAX25Y25*%
%MOIN*%
G70*
G04*
G04 #@! TF.SameCoordinates,C5BE965C-77EF-49D7-B31C-3167439F9788*
G04*
G04*
G04 #@! TF.FilePolarity,Positive*
G04*
G01*
G75*
%ADD10C,0.00787*%
%ADD11C,0.00500*%
%ADD12C,0.00197*%
%ADD13C,0.00800*%
%ADD129C,0.00394*%
D10*
X480315Y221457D02*
Y225394D01*
Y245079D02*
Y249016D01*
X495079D01*
X480315Y221457D02*
X495079D01*
X255906Y117397D02*
Y146140D01*
X289370Y117397D02*
Y146140D01*
X255906Y117397D02*
X289370D01*
X255906Y146140D02*
X289370D01*
X288697Y145851D02*
X289272Y144929D01*
X287667Y145971D02*
X288697Y145851D01*
X287667Y145971D02*
X289296Y144163D01*
X289380Y143708D01*
X287344Y146127D02*
X289380Y143708D01*
X255906Y79995D02*
Y108738D01*
X289370Y79995D02*
Y108738D01*
X255906Y79995D02*
X289370D01*
X255906Y108738D02*
X289370D01*
X288697Y108450D02*
X289272Y107527D01*
X287667Y108570D02*
X288697Y108450D01*
X287667Y108570D02*
X289296Y106761D01*
X289380Y106306D01*
X287344Y108725D02*
X289380Y106306D01*
X151575Y171260D02*
X155512D01*
X127953D02*
X131890D01*
X127953D02*
Y186024D01*
X155512Y171260D02*
Y186024D01*
X450787Y85630D02*
X465551D01*
X450787Y113189D02*
X465551D01*
X450787Y109252D02*
Y113189D01*
Y85630D02*
Y89567D01*
X233268Y190551D02*
X248031D01*
X233268Y162992D02*
X248031D01*
Y166929D01*
Y186614D02*
Y190551D01*
D11*
X108740Y309961D02*
Y319961D01*
X48740Y309961D02*
Y319961D01*
X108740D01*
X48740Y309961D02*
X108740D01*
X171732D02*
Y319961D01*
X111732Y309961D02*
Y319961D01*
X171732D01*
X111732Y309961D02*
X171732D01*
X108740Y321772D02*
Y331772D01*
X48740Y321772D02*
Y331772D01*
X108740D01*
X48740Y321772D02*
X108740D01*
X102835Y24528D02*
Y34528D01*
X42835Y24528D02*
Y34528D01*
X102835D01*
X42835Y24528D02*
X102835D01*
X518622Y88110D02*
X528622D01*
X518622Y148110D02*
X528622D01*
Y88110D02*
Y148110D01*
X518622Y88110D02*
Y148110D01*
X506811Y194409D02*
X516811D01*
X506811Y254410D02*
X516811D01*
Y194409D02*
Y254410D01*
X506811Y194409D02*
Y254410D01*
X518622Y194409D02*
X528622D01*
X518622Y254410D02*
X528622D01*
Y194409D02*
Y254410D01*
X518622Y194409D02*
Y254410D01*
X171732Y321772D02*
Y331772D01*
X111732Y321772D02*
Y331772D01*
X171732D01*
X111732Y321772D02*
X171732D01*
X506811Y88110D02*
X516811D01*
X506811Y148110D02*
X516811D01*
Y88110D02*
Y148110D01*
X506811Y88110D02*
Y148110D01*
D12*
X49883Y310108D02*
X50124D01*
X48857Y311134D02*
X49883Y310108D01*
X48857Y310994D02*
Y311134D01*
Y310994D02*
X49718Y310133D01*
X49554D02*
X49718D01*
X48921Y310766D02*
X49554Y310133D01*
X48921Y310652D02*
Y310766D01*
Y310652D02*
X49478Y310095D01*
X49326D02*
X49478D01*
X48895Y310526D02*
X49326Y310095D01*
X48895Y310349D02*
Y310526D01*
Y310349D02*
X49174Y310070D01*
X112875Y310108D02*
X113116D01*
X111849Y311134D02*
X112875Y310108D01*
X111849Y310994D02*
Y311134D01*
Y310994D02*
X112710Y310133D01*
X112546D02*
X112710D01*
X111913Y310766D02*
X112546Y310133D01*
X111913Y310652D02*
Y310766D01*
Y310652D02*
X112470Y310095D01*
X112318D02*
X112470D01*
X111888Y310526D02*
X112318Y310095D01*
X111888Y310349D02*
Y310526D01*
Y310349D02*
X112166Y310070D01*
X49883Y321919D02*
X50124D01*
X48857Y322945D02*
X49883Y321919D01*
X48857Y322805D02*
Y322945D01*
Y322805D02*
X49718Y321944D01*
X49554D02*
X49718D01*
X48921Y322577D02*
X49554Y321944D01*
X48921Y322463D02*
Y322577D01*
Y322463D02*
X49478Y321906D01*
X49326D02*
X49478D01*
X48895Y322337D02*
X49326Y321906D01*
X48895Y322160D02*
Y322337D01*
Y322160D02*
X49174Y321881D01*
X43978Y24675D02*
X44218D01*
X42952Y25701D02*
X43978Y24675D01*
X42952Y25561D02*
Y25701D01*
Y25561D02*
X43813Y24700D01*
X43648D02*
X43813D01*
X43015Y25333D02*
X43648Y24700D01*
X43015Y25219D02*
Y25333D01*
Y25219D02*
X43572Y24662D01*
X43421D02*
X43572D01*
X42990Y25093D02*
X43421Y24662D01*
X42990Y24915D02*
Y25093D01*
Y24915D02*
X43268Y24637D01*
X518769Y146727D02*
Y146967D01*
X519795Y147993D01*
X519656D02*
X519795D01*
X518794Y147132D02*
X519656Y147993D01*
X518794Y147132D02*
Y147297D01*
X519428Y147930D01*
X519314D02*
X519428D01*
X518756Y147373D02*
X519314Y147930D01*
X518756Y147373D02*
Y147524D01*
X519187Y147955D01*
X519010D02*
X519187D01*
X518731Y147677D02*
X519010Y147955D01*
X506958Y253026D02*
Y253266D01*
X507984Y254292D01*
X507845D02*
X507984D01*
X506984Y253431D02*
X507845Y254292D01*
X506984Y253431D02*
Y253596D01*
X507617Y254229D01*
X507503D02*
X507617D01*
X506945Y253672D02*
X507503Y254229D01*
X506945Y253672D02*
Y253823D01*
X507376Y254254D01*
X507199D02*
X507376D01*
X506920Y253976D02*
X507199Y254254D01*
X518769Y253026D02*
Y253266D01*
X519795Y254292D01*
X519656D02*
X519795D01*
X518794Y253431D02*
X519656Y254292D01*
X518794Y253431D02*
Y253596D01*
X519428Y254229D01*
X519314D02*
X519428D01*
X518756Y253672D02*
X519314Y254229D01*
X518756Y253672D02*
Y253823D01*
X519187Y254254D01*
X519010D02*
X519187D01*
X518731Y253976D02*
X519010Y254254D01*
X112875Y321919D02*
X113116D01*
X111849Y322945D02*
X112875Y321919D01*
X111849Y322805D02*
Y322945D01*
Y322805D02*
X112710Y321944D01*
X112546D02*
X112710D01*
X111913Y322577D02*
X112546Y321944D01*
X111913Y322463D02*
Y322577D01*
Y322463D02*
X112470Y321906D01*
X112318D02*
X112470D01*
X111888Y322337D02*
X112318Y321906D01*
X111888Y322160D02*
Y322337D01*
Y322160D02*
X112166Y321881D01*
X506958Y146727D02*
Y146967D01*
X507984Y147993D01*
X507845D02*
X507984D01*
X506984Y147132D02*
X507845Y147993D01*
X506984Y147132D02*
Y147297D01*
X507617Y147930D01*
X507503D02*
X507617D01*
X506945Y147373D02*
X507503Y147930D01*
X506945Y147373D02*
Y147524D01*
X507376Y147955D01*
X507199D02*
X507376D01*
X506920Y147677D02*
X507199Y147955D01*
D13*
X265810Y56571D02*
Y59570D01*
X264310D01*
X263810Y59071D01*
Y58071D01*
X264310Y57571D01*
X265810D01*
X264810D02*
X263810Y56571D01*
X262811Y59071D02*
X262311Y59570D01*
X261311D01*
X260811Y59071D01*
Y58571D01*
X261311Y58071D01*
X261811D01*
X261311D01*
X260811Y57571D01*
Y57071D01*
X261311Y56571D01*
X262311D01*
X262811Y57071D01*
X258312Y56571D02*
Y59570D01*
X259812Y58071D01*
X257812D01*
X265810Y71335D02*
Y74334D01*
X264310D01*
X263810Y73834D01*
Y72835D01*
X264310Y72335D01*
X265810D01*
X264810D02*
X263810Y71335D01*
X262811Y73834D02*
X262311Y74334D01*
X261311D01*
X260811Y73834D01*
Y73334D01*
X261311Y72835D01*
X261811D01*
X261311D01*
X260811Y72335D01*
Y71835D01*
X261311Y71335D01*
X262311D01*
X262811Y71835D01*
X257812Y71335D02*
X259812D01*
X257812Y73334D01*
Y73834D01*
X258312Y74334D01*
X259312D01*
X259812Y73834D01*
X391794Y160948D02*
X389795D01*
X390794D01*
Y157949D01*
X388795D02*
Y160948D01*
X387295D01*
X386796Y160449D01*
Y159449D01*
X387295Y158949D01*
X388795D01*
X385796Y160948D02*
X383797D01*
Y160449D01*
X385796Y158449D01*
Y157949D01*
X128422Y169103D02*
X130921D01*
X131421Y168603D01*
Y167604D01*
X130921Y167104D01*
X128422D01*
X131421Y166104D02*
Y165104D01*
Y165604D01*
X128422D01*
X128922Y166104D01*
Y163605D02*
X128422Y163105D01*
Y162105D01*
X128922Y161606D01*
X130921D01*
X131421Y162105D01*
Y163105D01*
X130921Y163605D01*
X128922D01*
X273684Y176696D02*
X271684D01*
X272684D01*
Y173697D01*
X270685D02*
Y176696D01*
X269185D01*
X268685Y176197D01*
Y175197D01*
X269185Y174697D01*
X270685D01*
X267686Y174197D02*
X267186Y173697D01*
X266186D01*
X265686Y174197D01*
Y176197D01*
X266186Y176696D01*
X267186D01*
X267686Y176197D01*
Y175697D01*
X267186Y175197D01*
X265686D01*
X340613Y198350D02*
X338614D01*
X339613D01*
Y195351D01*
X337614D02*
Y198350D01*
X336114D01*
X335614Y197850D01*
Y196850D01*
X336114Y196351D01*
X337614D01*
X334615Y197850D02*
X334115Y198350D01*
X333115D01*
X332615Y197850D01*
Y197350D01*
X333115Y196850D01*
X332615Y196351D01*
Y195851D01*
X333115Y195351D01*
X334115D01*
X334615Y195851D01*
Y196351D01*
X334115Y196850D01*
X334615Y197350D01*
Y197850D01*
X334115Y196850D02*
X333115D01*
X169276Y159480D02*
X168776Y159979D01*
Y160979D01*
X169276Y161479D01*
X171275D01*
X171775Y160979D01*
Y159979D01*
X171275Y159480D01*
X168776Y156481D02*
Y158480D01*
X170276D01*
X169776Y157480D01*
Y156981D01*
X170276Y156481D01*
X171275D01*
X171775Y156981D01*
Y157980D01*
X171275Y158480D01*
Y155481D02*
X171775Y154981D01*
Y153981D01*
X171275Y153482D01*
X169276D01*
X168776Y153981D01*
Y154981D01*
X169276Y155481D01*
X169776D01*
X170276Y154981D01*
Y153482D01*
X120063Y159480D02*
X119563Y159979D01*
Y160979D01*
X120063Y161479D01*
X122063D01*
X122563Y160979D01*
Y159979D01*
X122063Y159480D01*
X119563Y156481D02*
Y158480D01*
X121063D01*
X120563Y157480D01*
Y156981D01*
X121063Y156481D01*
X122063D01*
X122563Y156981D01*
Y157980D01*
X122063Y158480D01*
X120063Y155481D02*
X119563Y154981D01*
Y153981D01*
X120063Y153482D01*
X120563D01*
X121063Y153981D01*
X121563Y153482D01*
X122063D01*
X122563Y153981D01*
Y154981D01*
X122063Y155481D01*
X121563D01*
X121063Y154981D01*
X120563Y155481D01*
X120063D01*
X121063Y154981D02*
Y153981D01*
X112189Y159480D02*
X111689Y159979D01*
Y160979D01*
X112189Y161479D01*
X114189D01*
X114689Y160979D01*
Y159979D01*
X114189Y159480D01*
X111689Y156481D02*
Y158480D01*
X113189D01*
X112689Y157480D01*
Y156981D01*
X113189Y156481D01*
X114189D01*
X114689Y156981D01*
Y157980D01*
X114189Y158480D01*
X111689Y155481D02*
Y153482D01*
X112189D01*
X114189Y155481D01*
X114689D01*
X253468Y187068D02*
X250969D01*
X250469Y187568D01*
Y188567D01*
X250969Y189067D01*
X253468D01*
Y192066D02*
Y190067D01*
X251969D01*
X252468Y191066D01*
Y191566D01*
X251969Y192066D01*
X250969D01*
X250469Y191566D01*
Y190567D01*
X250969Y190067D01*
X209324Y178829D02*
X208824Y179328D01*
Y180328D01*
X209324Y180828D01*
X211324D01*
X211824Y180328D01*
Y179328D01*
X211324Y178829D01*
X211824Y175829D02*
Y177829D01*
X209824Y175829D01*
X209324D01*
X208824Y176329D01*
Y177329D01*
X209324Y177829D01*
X208824Y172830D02*
X209324Y173830D01*
X210324Y174830D01*
X211324D01*
X211824Y174330D01*
Y173330D01*
X211324Y172830D01*
X210824D01*
X210324Y173330D01*
Y174830D01*
X485767Y255436D02*
Y252937D01*
X485267Y252437D01*
X484267D01*
X483768Y252937D01*
Y255436D01*
X482768D02*
X480768D01*
Y254937D01*
X482768Y252937D01*
Y252437D01*
X484283Y217535D02*
X484783Y218035D01*
X485782D01*
X486282Y217535D01*
Y215536D01*
X485782Y215036D01*
X484783D01*
X484283Y215536D01*
X481284Y215036D02*
X483283D01*
X481284Y217035D01*
Y217535D01*
X481784Y218035D01*
X482783D01*
X483283Y217535D01*
X480284Y218035D02*
X478285D01*
Y217535D01*
X480284Y215536D01*
Y215036D01*
X445351Y113720D02*
X447850D01*
X448350Y113220D01*
Y112220D01*
X447850Y111720D01*
X445351D01*
X448350Y108721D02*
Y110721D01*
X446350Y108721D01*
X445851D01*
X445351Y109221D01*
Y110221D01*
X445851Y110721D01*
X452785Y81760D02*
X453285Y82260D01*
X454285D01*
X454785Y81760D01*
Y79760D01*
X454285Y79261D01*
X453285D01*
X452785Y79760D01*
X449786Y79261D02*
X451786D01*
X449786Y81260D01*
Y81760D01*
X450286Y82260D01*
X451286D01*
X451786Y81760D01*
X448787D02*
X448287Y82260D01*
X447287D01*
X446787Y81760D01*
Y79760D01*
X447287Y79261D01*
X448287D01*
X448787Y79760D01*
Y81760D01*
X288916Y114689D02*
Y112189D01*
X288417Y111689D01*
X287417D01*
X286917Y112189D01*
Y114689D01*
X283918D02*
X284918Y114189D01*
X285917Y113189D01*
Y112189D01*
X285418Y111689D01*
X284418D01*
X283918Y112189D01*
Y112689D01*
X284418Y113189D01*
X285917D01*
X429165Y92535D02*
X429665Y93035D01*
X430664D01*
X431164Y92535D01*
Y90536D01*
X430664Y90036D01*
X429665D01*
X429165Y90536D01*
X426166Y90036D02*
X428165D01*
X426166Y92035D01*
Y92535D01*
X426665Y93035D01*
X427665D01*
X428165Y92535D01*
X423666Y90036D02*
Y93035D01*
X425166Y91535D01*
X423167D01*
X429165Y85645D02*
X429665Y86145D01*
X430664D01*
X431164Y85645D01*
Y83646D01*
X430664Y83146D01*
X429665D01*
X429165Y83646D01*
X426166Y83146D02*
X428165D01*
X426166Y85145D01*
Y85645D01*
X426665Y86145D01*
X427665D01*
X428165Y85645D01*
X425166D02*
X424666Y86145D01*
X423666D01*
X423167Y85645D01*
Y85145D01*
X423666Y84646D01*
X424166D01*
X423666D01*
X423167Y84146D01*
Y83646D01*
X423666Y83146D01*
X424666D01*
X425166Y83646D01*
X429165Y77771D02*
X429665Y78271D01*
X430664D01*
X431164Y77771D01*
Y75772D01*
X430664Y75272D01*
X429665D01*
X429165Y75772D01*
X426166Y75272D02*
X428165D01*
X426166Y77271D01*
Y77771D01*
X426665Y78271D01*
X427665D01*
X428165Y77771D01*
X423167Y75272D02*
X425166D01*
X423167Y77271D01*
Y77771D01*
X423666Y78271D01*
X424666D01*
X425166Y77771D01*
X428665Y70882D02*
X429165Y71381D01*
X430164D01*
X430664Y70882D01*
Y68882D01*
X430164Y68382D01*
X429165D01*
X428665Y68882D01*
X425666Y68382D02*
X427665D01*
X425666Y70382D01*
Y70882D01*
X426166Y71381D01*
X427165D01*
X427665Y70882D01*
X424666Y68382D02*
X423666D01*
X424166D01*
Y71381D01*
X424666Y70882D01*
X288916Y152090D02*
Y149591D01*
X288417Y149091D01*
X287417D01*
X286917Y149591D01*
Y152090D01*
X284418Y149091D02*
Y152090D01*
X285917Y150591D01*
X283918D01*
X294760Y93442D02*
X297759D01*
Y94942D01*
X297259Y95442D01*
X296260D01*
X295760Y94942D01*
Y93442D01*
Y94442D02*
X294760Y95442D01*
X297259Y96441D02*
X297759Y96941D01*
Y97941D01*
X297259Y98441D01*
X296760D01*
X296260Y97941D01*
Y97441D01*
Y97941D01*
X295760Y98441D01*
X295260D01*
X294760Y97941D01*
Y96941D01*
X295260Y96441D01*
X297259Y99440D02*
X297759Y99940D01*
Y100940D01*
X297259Y101440D01*
X295260D01*
X294760Y100940D01*
Y99940D01*
X295260Y99440D01*
X297259D01*
X302634Y93442D02*
X305633D01*
Y94942D01*
X305134Y95442D01*
X304134D01*
X303634Y94942D01*
Y93442D01*
Y94442D02*
X302634Y95442D01*
Y98441D02*
Y96441D01*
X304634Y98441D01*
X305134D01*
X305633Y97941D01*
Y96941D01*
X305134Y96441D01*
X303134Y99440D02*
X302634Y99940D01*
Y100940D01*
X303134Y101440D01*
X305134D01*
X305633Y100940D01*
Y99940D01*
X305134Y99440D01*
X304634D01*
X304134Y99940D01*
Y101440D01*
X308540Y120017D02*
X311539D01*
Y121517D01*
X311039Y122016D01*
X310039D01*
X309540Y121517D01*
Y120017D01*
Y121017D02*
X308540Y122016D01*
Y125015D02*
Y123016D01*
X310539Y125015D01*
X311039D01*
X311539Y124516D01*
Y123516D01*
X311039Y123016D01*
Y126015D02*
X311539Y126515D01*
Y127515D01*
X311039Y128015D01*
X310539D01*
X310039Y127515D01*
X309540Y128015D01*
X309040D01*
X308540Y127515D01*
Y126515D01*
X309040Y126015D01*
X309540D01*
X310039Y126515D01*
X310539Y126015D01*
X311039D01*
X310039Y126515D02*
Y127515D01*
X314445Y120017D02*
X317444D01*
Y121517D01*
X316945Y122016D01*
X315945D01*
X315445Y121517D01*
Y120017D01*
Y121017D02*
X314445Y122016D01*
Y125015D02*
Y123016D01*
X316445Y125015D01*
X316945D01*
X317444Y124516D01*
Y123516D01*
X316945Y123016D01*
X317444Y126015D02*
Y128015D01*
X316945D01*
X314945Y126015D01*
X314445D01*
X295775Y58055D02*
Y60055D01*
X296275Y60555D01*
X297275D01*
X297775Y60055D01*
Y58055D01*
X297275Y57556D01*
X296275D01*
X296775Y58555D02*
X295775Y57556D01*
X296275D02*
X295775Y58055D01*
X292776Y57556D02*
X294776D01*
X292776Y59555D01*
Y60055D01*
X293276Y60555D01*
X294276D01*
X294776Y60055D01*
X294291Y75772D02*
Y77771D01*
X294791Y78271D01*
X295791D01*
X296291Y77771D01*
Y75772D01*
X295791Y75272D01*
X294791D01*
X295291Y76272D02*
X294291Y75272D01*
X294791D02*
X294291Y75772D01*
X293292Y75272D02*
X292292D01*
X292792D01*
Y78271D01*
X293292Y77771D01*
X272169Y114189D02*
X272669Y114689D01*
X273668D01*
X274168Y114189D01*
Y112189D01*
X273668Y111689D01*
X272669D01*
X272169Y112189D01*
X271169Y114189D02*
X270669Y114689D01*
X269670D01*
X269170Y114189D01*
Y113689D01*
X269670Y113189D01*
X270169D01*
X269670D01*
X269170Y112689D01*
Y112189D01*
X269670Y111689D01*
X270669D01*
X271169Y112189D01*
X268170Y111689D02*
X267170D01*
X267670D01*
Y114689D01*
X268170Y114189D01*
X259873Y158480D02*
X260373Y158980D01*
X261373D01*
X261873Y158480D01*
Y156481D01*
X261373Y155981D01*
X260373D01*
X259873Y156481D01*
X258874Y158480D02*
X258374Y158980D01*
X257374D01*
X256874Y158480D01*
Y157980D01*
X257374Y157480D01*
X257874D01*
X257374D01*
X256874Y156981D01*
Y156481D01*
X257374Y155981D01*
X258374D01*
X258874Y156481D01*
X255875Y158480D02*
X255375Y158980D01*
X254375D01*
X253875Y158480D01*
Y156481D01*
X254375Y155981D01*
X255375D01*
X255875Y156481D01*
Y158480D01*
X304149Y107253D02*
X304649Y106753D01*
Y105753D01*
X304149Y105253D01*
X302150D01*
X301650Y105753D01*
Y106753D01*
X302150Y107253D01*
X301650Y110252D02*
Y108252D01*
X303649Y110252D01*
X304149D01*
X304649Y109752D01*
Y108752D01*
X304149Y108252D01*
X302150Y111251D02*
X301650Y111751D01*
Y112751D01*
X302150Y113251D01*
X304149D01*
X304649Y112751D01*
Y111751D01*
X304149Y111251D01*
X303649D01*
X303150Y111751D01*
Y113251D01*
X302150Y146684D02*
X301650Y147184D01*
Y148184D01*
X302150Y148684D01*
X304149D01*
X304649Y148184D01*
Y147184D01*
X304149Y146684D01*
X304649Y143685D02*
Y145685D01*
X302650Y143685D01*
X302150D01*
X301650Y144185D01*
Y145185D01*
X302150Y145685D01*
Y142686D02*
X301650Y142186D01*
Y141186D01*
X302150Y140686D01*
X302650D01*
X303150Y141186D01*
X303649Y140686D01*
X304149D01*
X304649Y141186D01*
Y142186D01*
X304149Y142686D01*
X303649D01*
X303150Y142186D01*
X302650Y142686D01*
X302150D01*
X303150Y142186D02*
Y141186D01*
X44791Y325318D02*
X45791D01*
X45291D01*
Y322819D01*
X45791Y322319D01*
X46291D01*
X46791Y322819D01*
X43791Y324819D02*
X43292Y325318D01*
X42292D01*
X41792Y324819D01*
Y324319D01*
X42292Y323819D01*
X42792D01*
X42292D01*
X41792Y323319D01*
Y322819D01*
X42292Y322319D01*
X43292D01*
X43791Y322819D01*
X176681Y325318D02*
X177681D01*
X177181D01*
Y322819D01*
X177681Y322319D01*
X178180D01*
X178680Y322819D01*
X175681Y324819D02*
X175181Y325318D01*
X174182D01*
X173682Y324819D01*
Y324319D01*
X174182Y323819D01*
X173682Y323319D01*
Y322819D01*
X174182Y322319D01*
X175181D01*
X175681Y322819D01*
Y323319D01*
X175181Y323819D01*
X175681Y324319D01*
Y324819D01*
X175181Y323819D02*
X174182D01*
X176681Y313507D02*
X177681D01*
X177181D01*
Y311008D01*
X177681Y310508D01*
X178180D01*
X178680Y311008D01*
X173682Y310508D02*
X175681D01*
X173682Y312508D01*
Y313007D01*
X174182Y313507D01*
X175181D01*
X175681Y313007D01*
X46760Y22169D02*
X47759D01*
X47260D01*
Y19670D01*
X47759Y19170D01*
X48259D01*
X48759Y19670D01*
X44260Y19170D02*
Y22169D01*
X45760Y20669D01*
X43761D01*
X44291Y312523D02*
X45291D01*
X44791D01*
Y310024D01*
X45291Y309524D01*
X45791D01*
X46291Y310024D01*
X43292Y309524D02*
X42292D01*
X42792D01*
Y312523D01*
X43292Y312023D01*
X521169Y259373D02*
X522169D01*
X521669D01*
Y256874D01*
X522169Y256375D01*
X522669D01*
X523169Y256874D01*
X520169Y259373D02*
X518170D01*
Y258874D01*
X520169Y256874D01*
Y256375D01*
X510342Y259373D02*
X511342D01*
X510842D01*
Y256874D01*
X511342Y256375D01*
X511842D01*
X512342Y256874D01*
X507343Y259373D02*
X508343Y258874D01*
X509343Y257874D01*
Y256874D01*
X508843Y256375D01*
X507843D01*
X507343Y256874D01*
Y257374D01*
X507843Y257874D01*
X509343D01*
X522153Y153074D02*
X523153D01*
X522653D01*
Y150575D01*
X523153Y150075D01*
X523653D01*
X524153Y150575D01*
X519154Y153074D02*
X521154D01*
Y151575D01*
X520154Y152075D01*
X519654D01*
X519154Y151575D01*
Y150575D01*
X519654Y150075D01*
X520654D01*
X521154Y150575D01*
X509358Y153074D02*
X510358D01*
X509858D01*
Y150575D01*
X510358Y150075D01*
X510858D01*
X511357Y150575D01*
X508358D02*
X507859Y150075D01*
X506859D01*
X506359Y150575D01*
Y152575D01*
X506859Y153074D01*
X507859D01*
X508358Y152575D01*
Y152075D01*
X507859Y151575D01*
X506359D01*
D129*
X290158Y46306D02*
Y61266D01*
X272047Y46306D02*
X290158D01*
X272047D02*
Y61266D01*
X290158D01*
X290158Y63386D02*
Y78347D01*
X272047Y63386D02*
X290158D01*
X272047D02*
Y78347D01*
X290158D01*
M02*
