G04*
G04 #@! TF.GenerationSoftware,Altium Limited,Altium Designer,24.5.2 (23)*
G04*
G04 Layer_Color=255*
%FSLAX44Y44*%
%MOMM*%
G71*
G04*
G04 #@! TF.SameCoordinates,164FEA2C-ADE8-48CB-B743-27DEF7324C7D*
G04*
G04*
G04 #@! TF.FilePolarity,Positive*
G04*
G01*
G75*
%ADD22R,0.9400X1.0200*%
%ADD24R,1.0200X0.9400*%
%ADD25R,1.2000X1.3000*%
%ADD29C,1.0000*%
%ADD31R,1.5000X1.5000*%
G04:AMPARAMS|DCode=32|XSize=1.3mm|YSize=1.2mm|CornerRadius=0mm|HoleSize=0mm|Usage=FLASHONLY|Rotation=45.000|XOffset=0mm|YOffset=0mm|HoleType=Round|Shape=Rectangle|*
%AMROTATEDRECTD32*
4,1,4,-0.0354,-0.8839,-0.8839,-0.0354,0.0354,0.8839,0.8839,0.0354,-0.0354,-0.8839,0.0*
%
%ADD32ROTATEDRECTD32*%

%ADD34R,1.3000X1.2000*%
%ADD109C,1.2200*%
%ADD110R,1.2200X1.2200*%
%ADD111C,1.5000*%
%ADD112C,0.5700*%
%ADD113O,1.4000X1.1500*%
%ADD114C,1.3700*%
%ADD115R,1.3700X1.3700*%
%ADD116R,1.2200X1.2200*%
%ADD117R,1.3700X1.3700*%
%ADD118R,1.6500X1.6500*%
%ADD119C,1.6500*%
%ADD120O,1.1500X1.4000*%
G04:AMPARAMS|DCode=124|XSize=1.4mm|YSize=1.2mm|CornerRadius=0mm|HoleSize=0mm|Usage=FLASHONLY|Rotation=225.000|XOffset=0mm|YOffset=0mm|HoleType=Round|Shape=Rectangle|*
%AMROTATEDRECTD124*
4,1,4,0.0707,0.9192,0.9192,0.0707,-0.0707,-0.9192,-0.9192,-0.0707,0.0707,0.9192,0.0*
%
%ADD124ROTATEDRECTD124*%

%ADD125R,1.2000X2.2000*%
%ADD126R,3.5000X2.2000*%
%ADD127R,2.2000X1.2000*%
%ADD128R,2.2000X3.5000*%
G04:AMPARAMS|DCode=129|XSize=0.3mm|YSize=1.2mm|CornerRadius=0mm|HoleSize=0mm|Usage=FLASHONLY|Rotation=135.000|XOffset=0mm|YOffset=0mm|HoleType=Round|Shape=Rectangle|*
%AMROTATEDRECTD129*
4,1,4,0.5303,0.3182,-0.3182,-0.5303,-0.5303,-0.3182,0.3182,0.5303,0.5303,0.3182,0.0*
%
%ADD129ROTATEDRECTD129*%

G04:AMPARAMS|DCode=130|XSize=0.3mm|YSize=1.2mm|CornerRadius=0mm|HoleSize=0mm|Usage=FLASHONLY|Rotation=45.000|XOffset=0mm|YOffset=0mm|HoleType=Round|Shape=Rectangle|*
%AMROTATEDRECTD130*
4,1,4,0.3182,-0.5303,-0.5303,0.3182,-0.3182,0.5303,0.5303,-0.3182,0.3182,-0.5303,0.0*
%
%ADD130ROTATEDRECTD130*%

G04:AMPARAMS|DCode=131|XSize=0.94mm|YSize=1.02mm|CornerRadius=0mm|HoleSize=0mm|Usage=FLASHONLY|Rotation=135.000|XOffset=0mm|YOffset=0mm|HoleType=Round|Shape=Rectangle|*
%AMROTATEDRECTD131*
4,1,4,0.6930,0.0283,-0.0283,-0.6930,-0.6930,-0.0283,0.0283,0.6930,0.6930,0.0283,0.0*
%
%ADD131ROTATEDRECTD131*%

G04:AMPARAMS|DCode=132|XSize=1.3mm|YSize=1.2mm|CornerRadius=0mm|HoleSize=0mm|Usage=FLASHONLY|Rotation=315.000|XOffset=0mm|YOffset=0mm|HoleType=Round|Shape=Rectangle|*
%AMROTATEDRECTD132*
4,1,4,-0.8839,0.0354,-0.0354,0.8839,0.8839,-0.0354,0.0354,-0.8839,-0.8839,0.0354,0.0*
%
%ADD132ROTATEDRECTD132*%

%ADD133R,1.4000X1.0000*%
G04:AMPARAMS|DCode=134|XSize=1.5mm|YSize=0.45mm|CornerRadius=0.05mm|HoleSize=0mm|Usage=FLASHONLY|Rotation=180.000|XOffset=0mm|YOffset=0mm|HoleType=Round|Shape=RoundedRectangle|*
%AMROUNDEDRECTD134*
21,1,1.5000,0.3500,0,0,180.0*
21,1,1.4000,0.4500,0,0,180.0*
1,1,0.1000,-0.7000,0.1750*
1,1,0.1000,0.7000,0.1750*
1,1,0.1000,0.7000,-0.1750*
1,1,0.1000,-0.7000,-0.1750*
%
%ADD134ROUNDEDRECTD134*%
D22*
X672900Y170604D02*
D03*
X657100D02*
D03*
X672900Y130667D02*
D03*
X657100D02*
D03*
D24*
X200076Y157500D02*
D03*
Y141700D02*
D03*
X134526D02*
D03*
Y157500D02*
D03*
X467500Y145400D02*
D03*
Y129600D02*
D03*
X450000Y145400D02*
D03*
Y129600D02*
D03*
X771724Y210306D02*
D03*
Y226106D02*
D03*
X772255Y322040D02*
D03*
Y306240D02*
D03*
X753307Y226106D02*
D03*
Y210306D02*
D03*
Y322040D02*
D03*
Y306240D02*
D03*
D25*
X349931Y260372D02*
D03*
X368931D02*
D03*
X349931Y278921D02*
D03*
X368931D02*
D03*
X1250500Y550000D02*
D03*
X1269500D02*
D03*
X1167996Y205131D02*
D03*
X1186996D02*
D03*
X644650Y384243D02*
D03*
X663650D02*
D03*
X644650Y287500D02*
D03*
X663650D02*
D03*
X1044150Y233934D02*
D03*
X1063150D02*
D03*
Y215750D02*
D03*
X1044150D02*
D03*
X1063150Y197150D02*
D03*
X1044150D02*
D03*
X1063150Y179435D02*
D03*
X1044150D02*
D03*
D29*
X985000Y390000D02*
D03*
X665000Y445000D02*
D03*
X830000Y500000D02*
D03*
D31*
X110000Y313500D02*
D03*
X80000D02*
D03*
X500000D02*
D03*
X470000D02*
D03*
X110000Y473500D02*
D03*
X80000D02*
D03*
X500000D02*
D03*
X470000D02*
D03*
D32*
X269217Y230783D02*
D03*
X255783Y244217D02*
D03*
D34*
X432500Y420500D02*
D03*
Y439500D02*
D03*
X312500Y420500D02*
D03*
Y439500D02*
D03*
X292500Y420500D02*
D03*
Y439500D02*
D03*
X550000Y440500D02*
D03*
Y459500D02*
D03*
X753307Y358455D02*
D03*
Y377455D02*
D03*
Y268820D02*
D03*
Y287820D02*
D03*
D109*
X248500Y75000D02*
D03*
X223100D02*
D03*
X197700D02*
D03*
X172300D02*
D03*
X146900D02*
D03*
X321900Y830000D02*
D03*
X347300D02*
D03*
X372700D02*
D03*
X398100D02*
D03*
X423500D02*
D03*
X161900Y830000D02*
D03*
X187300D02*
D03*
X212700D02*
D03*
X238100D02*
D03*
X263500D02*
D03*
X321900Y800000D02*
D03*
X347300D02*
D03*
X372700D02*
D03*
X398100D02*
D03*
X423500D02*
D03*
X161900D02*
D03*
X187300D02*
D03*
X212700D02*
D03*
X238100D02*
D03*
X263500D02*
D03*
X1300000Y338100D02*
D03*
Y312700D02*
D03*
Y287300D02*
D03*
Y261900D02*
D03*
Y236500D02*
D03*
X1330000Y608100D02*
D03*
Y582700D02*
D03*
Y557300D02*
D03*
Y531900D02*
D03*
Y506500D02*
D03*
X1300000Y608100D02*
D03*
Y582700D02*
D03*
Y557300D02*
D03*
Y531900D02*
D03*
Y506500D02*
D03*
X1330000Y338100D02*
D03*
Y312700D02*
D03*
Y287300D02*
D03*
Y261900D02*
D03*
Y236500D02*
D03*
D110*
X121500Y75000D02*
D03*
X296500Y830000D02*
D03*
X136500Y830000D02*
D03*
X296500Y800000D02*
D03*
X136500D02*
D03*
D111*
X110000Y288100D02*
D03*
Y262700D02*
D03*
Y237300D02*
D03*
Y211900D02*
D03*
Y186500D02*
D03*
X80000Y288100D02*
D03*
Y262700D02*
D03*
Y237300D02*
D03*
Y211900D02*
D03*
Y186500D02*
D03*
X500000Y288100D02*
D03*
Y262700D02*
D03*
Y237300D02*
D03*
Y211900D02*
D03*
Y186500D02*
D03*
X470000Y288100D02*
D03*
Y262700D02*
D03*
Y237300D02*
D03*
Y211900D02*
D03*
Y186500D02*
D03*
X110000Y448100D02*
D03*
Y422700D02*
D03*
Y397300D02*
D03*
Y371900D02*
D03*
Y346500D02*
D03*
X80000Y448100D02*
D03*
Y422700D02*
D03*
Y397300D02*
D03*
Y371900D02*
D03*
Y346500D02*
D03*
X500000Y448100D02*
D03*
Y422700D02*
D03*
Y397300D02*
D03*
Y371900D02*
D03*
Y346500D02*
D03*
X470000Y448100D02*
D03*
Y422700D02*
D03*
Y397300D02*
D03*
Y371900D02*
D03*
Y346500D02*
D03*
X240000Y530000D02*
D03*
Y580000D02*
D03*
X380000Y685000D02*
D03*
Y635000D02*
D03*
D112*
X555064Y520875D02*
D03*
X147500Y458650D02*
D03*
X503650Y50000D02*
D03*
D113*
X568564Y542375D02*
D03*
X616564D02*
D03*
X568564Y499375D02*
D03*
X616564D02*
D03*
X161000Y480150D02*
D03*
X209000D02*
D03*
X161000Y437150D02*
D03*
X209000D02*
D03*
D114*
X417500Y744800D02*
D03*
X535000Y749800D02*
D03*
X462700Y537500D02*
D03*
X655200Y582500D02*
D03*
D115*
X417500Y770200D02*
D03*
X535000Y775200D02*
D03*
D116*
X1300000Y363500D02*
D03*
X1330000Y633500D02*
D03*
X1300000D02*
D03*
X1330000Y363500D02*
D03*
D117*
X437300Y537500D02*
D03*
X629800Y582500D02*
D03*
D118*
X577500Y394300D02*
D03*
D119*
X602900D02*
D03*
X577500Y368900D02*
D03*
X602900D02*
D03*
X577500Y343500D02*
D03*
X602900D02*
D03*
X577500Y318100D02*
D03*
X602900D02*
D03*
X577500Y292700D02*
D03*
X602900D02*
D03*
X577500Y267300D02*
D03*
X602900D02*
D03*
X577500Y241900D02*
D03*
X602900D02*
D03*
X577500Y216500D02*
D03*
X602900D02*
D03*
X577500Y191100D02*
D03*
X602900D02*
D03*
X577500Y165700D02*
D03*
X602900D02*
D03*
D120*
X525150Y111500D02*
D03*
Y63500D02*
D03*
X482150Y111500D02*
D03*
Y63500D02*
D03*
D124*
X326289Y287411D02*
D03*
X310732Y271854D02*
D03*
X298711Y283875D02*
D03*
X314268Y299432D02*
D03*
D125*
X337000Y486000D02*
D03*
X360000D02*
D03*
X383000D02*
D03*
D126*
X360000Y424000D02*
D03*
D127*
X1271000Y620500D02*
D03*
Y597500D02*
D03*
Y574500D02*
D03*
X579000Y422000D02*
D03*
Y445000D02*
D03*
Y468000D02*
D03*
X1196000Y275500D02*
D03*
Y252500D02*
D03*
Y229500D02*
D03*
D128*
X1209000Y597500D02*
D03*
X641000Y445000D02*
D03*
X1134000Y252500D02*
D03*
D129*
X277175Y341642D02*
D03*
X273640Y345178D02*
D03*
X270104Y348713D02*
D03*
X266569Y352249D02*
D03*
X263033Y355784D02*
D03*
X259498Y359320D02*
D03*
X255962Y362855D02*
D03*
X252426Y366391D02*
D03*
X248891Y369926D02*
D03*
X245355Y373462D02*
D03*
X241820Y376997D02*
D03*
X238284Y380533D02*
D03*
X234749Y384068D02*
D03*
X231213Y387604D02*
D03*
X227678Y391140D02*
D03*
X224142Y394675D02*
D03*
X142825Y313358D02*
D03*
X146360Y309822D02*
D03*
X149896Y306287D02*
D03*
X153432Y302751D02*
D03*
X156967Y299216D02*
D03*
X160502Y295680D02*
D03*
X164038Y292145D02*
D03*
X167574Y288609D02*
D03*
X171109Y285074D02*
D03*
X174645Y281538D02*
D03*
X178180Y278002D02*
D03*
X181716Y274467D02*
D03*
X185251Y270931D02*
D03*
X188787Y267396D02*
D03*
X192322Y263860D02*
D03*
X195858Y260325D02*
D03*
D130*
Y394675D02*
D03*
X192322Y391140D02*
D03*
X188787Y387604D02*
D03*
X185251Y384068D02*
D03*
X181716Y380533D02*
D03*
X178180Y376997D02*
D03*
X174645Y373462D02*
D03*
X171109Y369926D02*
D03*
X167574Y366391D02*
D03*
X164038Y362855D02*
D03*
X160502Y359320D02*
D03*
X156967Y355784D02*
D03*
X153432Y352249D02*
D03*
X149896Y348713D02*
D03*
X146360Y345178D02*
D03*
X142825Y341642D02*
D03*
X224142Y260325D02*
D03*
X227678Y263860D02*
D03*
X231213Y267396D02*
D03*
X234749Y270931D02*
D03*
X238284Y274467D02*
D03*
X241820Y278002D02*
D03*
X245355Y281538D02*
D03*
X248891Y285074D02*
D03*
X252426Y288609D02*
D03*
X255962Y292145D02*
D03*
X259498Y295680D02*
D03*
X263033Y299216D02*
D03*
X266569Y302751D02*
D03*
X270104Y306287D02*
D03*
X273640Y309822D02*
D03*
X277175Y313358D02*
D03*
D131*
X254867Y220602D02*
D03*
X243695Y231774D02*
D03*
X269026Y256465D02*
D03*
X280198Y245293D02*
D03*
D132*
X321718Y354797D02*
D03*
X308283Y341362D02*
D03*
X135782Y245783D02*
D03*
X149218Y259217D02*
D03*
X346373Y329596D02*
D03*
X332938Y316161D02*
D03*
X148282Y233283D02*
D03*
X161717Y246717D02*
D03*
X334160Y342365D02*
D03*
X320725Y328929D02*
D03*
D133*
X703000Y130760D02*
D03*
Y149760D02*
D03*
X725000Y140260D02*
D03*
X703000Y170500D02*
D03*
Y189500D02*
D03*
X725000Y180000D02*
D03*
D134*
X663500Y269250D02*
D03*
Y262750D02*
D03*
Y256250D02*
D03*
Y249750D02*
D03*
Y243250D02*
D03*
Y236750D02*
D03*
Y230250D02*
D03*
Y223750D02*
D03*
Y217250D02*
D03*
Y210750D02*
D03*
X721500D02*
D03*
Y217250D02*
D03*
Y223750D02*
D03*
Y230250D02*
D03*
Y236750D02*
D03*
Y243250D02*
D03*
Y249750D02*
D03*
Y256250D02*
D03*
Y262750D02*
D03*
Y269250D02*
D03*
Y364250D02*
D03*
Y357750D02*
D03*
Y351250D02*
D03*
Y344750D02*
D03*
Y338250D02*
D03*
Y331750D02*
D03*
Y325250D02*
D03*
Y318750D02*
D03*
Y312250D02*
D03*
Y305750D02*
D03*
X663500D02*
D03*
Y312250D02*
D03*
Y318750D02*
D03*
Y325250D02*
D03*
Y331750D02*
D03*
Y338250D02*
D03*
Y344750D02*
D03*
Y351250D02*
D03*
Y357750D02*
D03*
Y364250D02*
D03*
M02*
