G04*
G04 #@! TF.GenerationSoftware,Altium Limited,Altium Designer,24.5.2 (23)*
G04*
G04 Layer_Physical_Order=3*
G04 Layer_Color=16737945*
%FSLAX25Y25*%
%MOIN*%
G70*
G04*
G04 #@! TF.SameCoordinates,69DC947D-EA58-4365-B3D2-A555959503E0*
G04*
G04*
G04 #@! TF.FilePolarity,Positive*
G04*
G01*
G75*
%ADD34R,0.05906X0.05906*%
%ADD101C,0.03937*%
%ADD103C,0.05906*%
%ADD104R,0.05906X0.05906*%
%ADD105C,0.02244*%
%ADD106C,0.05512*%
%ADD107R,0.06496X0.06496*%
%ADD108C,0.06496*%
%ADD110C,0.04803*%
%ADD112C,0.02000*%
%ADD113C,0.03150*%
%ADD114C,0.02756*%
G36*
X39370Y340312D02*
X43206D01*
X43273Y340235D01*
Y291015D01*
X23744Y271486D01*
X23113Y270663D01*
X22716Y269706D01*
X22581Y268678D01*
Y173225D01*
X22648Y172718D01*
X22713Y172210D01*
X22715Y172204D01*
X22716Y172198D01*
X22912Y171725D01*
X23107Y171251D01*
X23110Y171246D01*
X23113Y171240D01*
X23425Y170834D01*
X23735Y170426D01*
X23740Y170422D01*
X23744Y170417D01*
X24151Y170105D01*
X24556Y169793D01*
X24561Y169790D01*
X24566Y169786D01*
X25040Y169590D01*
X25307Y169479D01*
X24871Y168427D01*
X24606Y167096D01*
Y165739D01*
X24871Y164408D01*
X25390Y163154D01*
X26144Y162025D01*
X26752Y161417D01*
X26144Y160809D01*
X25390Y159681D01*
X24871Y158427D01*
X24606Y157096D01*
Y155739D01*
X24871Y154408D01*
X25390Y153154D01*
X26144Y152025D01*
X26752Y151417D01*
X26144Y150809D01*
X25390Y149681D01*
X24871Y148427D01*
X24606Y147096D01*
Y145739D01*
X24871Y144408D01*
X25390Y143154D01*
X26144Y142025D01*
X26752Y141417D01*
X26144Y140809D01*
X25390Y139681D01*
X24871Y138427D01*
X24606Y137096D01*
Y135739D01*
X24871Y134408D01*
X25390Y133154D01*
X26144Y132025D01*
X27104Y131066D01*
X27225Y130985D01*
X27022Y130315D01*
X24606D01*
Y116535D01*
X24697D01*
X25086Y115953D01*
X24871Y115435D01*
X24606Y114104D01*
Y112747D01*
X24871Y111416D01*
X25390Y110162D01*
X26144Y109033D01*
X26752Y108425D01*
X26144Y107817D01*
X25390Y106689D01*
X24871Y105435D01*
X24606Y104104D01*
Y102747D01*
X24871Y101416D01*
X25390Y100162D01*
X26144Y99033D01*
X26752Y98425D01*
X26144Y97817D01*
X25390Y96689D01*
X24871Y95435D01*
X24606Y94104D01*
Y92747D01*
X24871Y91416D01*
X25390Y90162D01*
X26144Y89033D01*
X26752Y88425D01*
X26144Y87817D01*
X25390Y86689D01*
X24871Y85435D01*
X24606Y84104D01*
Y82747D01*
X24871Y81415D01*
X25390Y80162D01*
X26144Y79033D01*
X26752Y78425D01*
X26144Y77817D01*
X25390Y76689D01*
X24871Y75435D01*
X24606Y74104D01*
Y72747D01*
X24871Y71416D01*
X25390Y70162D01*
X26144Y69033D01*
X27104Y68074D01*
X28232Y67320D01*
X29486Y66800D01*
X30817Y66535D01*
X32175D01*
X32928Y66685D01*
X33049Y66394D01*
X33179Y66168D01*
X33279Y65928D01*
X33437Y65721D01*
X33567Y65496D01*
X33751Y65312D01*
X33910Y65105D01*
X34116Y64947D01*
X34301Y64763D01*
X34526Y64633D01*
X34732Y64474D01*
X34973Y64375D01*
X35198Y64245D01*
X35450Y64177D01*
X35690Y64078D01*
X35948Y64044D01*
X36200Y63976D01*
X36460D01*
X36718Y63942D01*
X44257D01*
Y41339D01*
X44393Y40311D01*
X44789Y39353D01*
X45420Y38531D01*
X46243Y37900D01*
X47201Y37503D01*
X48228Y37368D01*
X144229D01*
X144358Y37385D01*
X144489Y37376D01*
X144871Y37452D01*
X145257Y37503D01*
X145377Y37553D01*
X145505Y37578D01*
X145855Y37751D01*
X146214Y37900D01*
X146318Y37979D01*
X146435Y38037D01*
X146653Y38228D01*
X146872Y38037D01*
X146989Y37979D01*
X147093Y37900D01*
X147452Y37751D01*
X147802Y37578D01*
X147930Y37553D01*
X148050Y37503D01*
X148436Y37452D01*
X148818Y37376D01*
X148949Y37385D01*
X149078Y37368D01*
X209338D01*
X209351Y37369D01*
X209364Y37368D01*
X209865Y37437D01*
X210366Y37503D01*
X210378Y37508D01*
X210391Y37510D01*
X210857Y37706D01*
X211324Y37900D01*
X211334Y37907D01*
X211346Y37912D01*
X211745Y38223D01*
X212146Y38531D01*
X212154Y38541D01*
X212164Y38549D01*
X212656Y39047D01*
X212664Y39057D01*
X212674Y39065D01*
X212977Y39471D01*
X213282Y39873D01*
X213287Y39886D01*
X213295Y39896D01*
X213482Y40365D01*
X213672Y40834D01*
X213674Y40847D01*
X213679Y40859D01*
X213738Y41360D01*
X213801Y41862D01*
X213799Y41875D01*
X213801Y41888D01*
X213478Y66877D01*
X213481Y66886D01*
X213617Y67913D01*
Y197835D01*
X213481Y198862D01*
X213085Y199820D01*
X212454Y200643D01*
X211631Y201274D01*
X210673Y201670D01*
X209646Y201806D01*
X182121D01*
X181093Y201670D01*
X180135Y201274D01*
X179313Y200643D01*
X178682Y199820D01*
X178285Y198862D01*
X178150Y197835D01*
Y193307D01*
Y179528D01*
X178240D01*
X178629Y178946D01*
X178414Y178427D01*
X178150Y177096D01*
Y175689D01*
X153543D01*
Y175949D01*
Y197835D01*
D01*
X153408Y198862D01*
X153011Y199820D01*
X152380Y200643D01*
X151558Y201274D01*
X150600Y201670D01*
X149572Y201806D01*
X97770D01*
X97631Y202506D01*
X97752Y202556D01*
X98880Y203310D01*
X99840Y204270D01*
X100594Y205398D01*
X101113Y206652D01*
X101378Y207983D01*
Y209340D01*
X101113Y210671D01*
X100594Y211925D01*
X99840Y213053D01*
X98880Y214013D01*
X97752Y214767D01*
X96498Y215286D01*
X95167Y215551D01*
X93810D01*
X92479Y215286D01*
X91225Y214767D01*
X90096Y214013D01*
X89137Y213053D01*
X88383Y211925D01*
X87863Y210671D01*
X87598Y209340D01*
Y207983D01*
X87863Y206652D01*
X88383Y205398D01*
X89137Y204270D01*
X90096Y203310D01*
X91225Y202556D01*
X91346Y202506D01*
X91207Y201806D01*
X74622D01*
X74236Y201755D01*
X73847Y201729D01*
X73723Y201687D01*
X73594Y201670D01*
X73234Y201521D01*
X72865Y201396D01*
X72757Y201324D01*
X72636Y201274D01*
X72327Y201037D01*
X72003Y200820D01*
X71732D01*
X71408Y201037D01*
X71099Y201274D01*
X70979Y201324D01*
X70870Y201396D01*
X70501Y201521D01*
X70142Y201670D01*
X70012Y201687D01*
X69888Y201729D01*
X69500Y201755D01*
X69114Y201806D01*
X58071D01*
X57043Y201670D01*
X56085Y201274D01*
X55263Y200643D01*
X54632Y199820D01*
X54235Y198862D01*
X54100Y197835D01*
Y195160D01*
X54134Y194902D01*
X54134Y194642D01*
X54201Y194390D01*
X54235Y194132D01*
X54335Y193892D01*
X54402Y193640D01*
X54532Y193415D01*
X54632Y193174D01*
X54790Y192968D01*
X54921Y192743D01*
X55105Y192559D01*
X55263Y192352D01*
X55470Y192193D01*
X55653Y192009D01*
X55879Y191879D01*
X56085Y191721D01*
X56326Y191621D01*
X56551Y191491D01*
X56831Y191375D01*
X56693Y190679D01*
Y189360D01*
X56950Y188067D01*
X57262Y187314D01*
X57185Y186992D01*
X57152Y186934D01*
X56923Y186636D01*
X56822Y186567D01*
X56659Y186522D01*
X56590Y186513D01*
X56589Y186512D01*
X56422Y186490D01*
X56363Y186475D01*
X56330Y186461D01*
X56295Y186456D01*
X56240Y186440D01*
X56121Y186389D01*
X55995Y186362D01*
X55940Y186342D01*
X55830Y186286D01*
X55711Y186252D01*
X55656Y186229D01*
X55609Y186201D01*
X55556Y186184D01*
X55505Y186161D01*
X55402Y186095D01*
X55287Y186052D01*
X55236Y186024D01*
X55147Y185960D01*
X55142Y185956D01*
X55037Y185909D01*
X54986Y185878D01*
X54935Y185847D01*
X54755Y185700D01*
X54735Y185691D01*
X54709Y185669D01*
X54590Y185602D01*
X54543Y185567D01*
X54450Y185476D01*
X54344Y185403D01*
X54301Y185363D01*
X54296Y185357D01*
X54254Y185328D01*
X54211Y185289D01*
X54088Y185144D01*
X54084Y185140D01*
X53592Y185285D01*
X53384Y185442D01*
Y205248D01*
X71706Y223570D01*
X72337Y224393D01*
X72733Y225350D01*
X72869Y226378D01*
Y308419D01*
X73116Y308622D01*
X74365D01*
X75589Y308866D01*
X76743Y309344D01*
X77781Y310037D01*
X78259Y310515D01*
X78740Y310864D01*
X79222Y310515D01*
X79699Y310037D01*
X80738Y309344D01*
X81891Y308866D01*
X83116Y308622D01*
X84364D01*
X85589Y308866D01*
X86743Y309344D01*
X87781Y310037D01*
X88259Y310515D01*
X88740Y310864D01*
X89222Y310515D01*
X89700Y310037D01*
X90738Y309344D01*
X91891Y308866D01*
X93116Y308622D01*
X94365D01*
X95589Y308866D01*
X96743Y309344D01*
X97781Y310037D01*
X98259Y310515D01*
X98740Y310864D01*
X99222Y310515D01*
X99699Y310037D01*
X100738Y309344D01*
X101891Y308866D01*
X103116Y308622D01*
X104365D01*
X105589Y308866D01*
X106743Y309344D01*
X107781Y310037D01*
X108664Y310920D01*
X109357Y311958D01*
X109835Y313112D01*
X109879Y313334D01*
X110593D01*
X110637Y313112D01*
X111115Y311958D01*
X111809Y310920D01*
X112692Y310037D01*
X113730Y309344D01*
X114883Y308866D01*
X116108Y308622D01*
X117357D01*
X118581Y308866D01*
X119735Y309344D01*
X120773Y310037D01*
X121251Y310515D01*
X121732Y310864D01*
X122214Y310515D01*
X122692Y310037D01*
X123730Y309344D01*
X124883Y308866D01*
X126108Y308622D01*
X127357D01*
X128581Y308866D01*
X129735Y309344D01*
X130773Y310037D01*
X131251Y310515D01*
X131732Y310864D01*
X132214Y310515D01*
X132692Y310037D01*
X133730Y309344D01*
X134883Y308866D01*
X136108Y308622D01*
X137357D01*
X138581Y308866D01*
X139735Y309344D01*
X140773Y310037D01*
X141251Y310515D01*
X141732Y310864D01*
X142214Y310515D01*
X142692Y310037D01*
X143730Y309344D01*
X144883Y308866D01*
X146108Y308622D01*
X147357D01*
X148581Y308866D01*
X149735Y309344D01*
X150773Y310037D01*
X151251Y310515D01*
X151732Y310864D01*
X152214Y310515D01*
X152692Y310037D01*
X153730Y309344D01*
X154883Y308866D01*
X156108Y308622D01*
X157357D01*
X157480Y308521D01*
Y296339D01*
X157571D01*
X157960Y295757D01*
X157745Y295238D01*
X157480Y293907D01*
Y292550D01*
X157745Y291219D01*
X158265Y289965D01*
X159019Y288836D01*
X159978Y287877D01*
X161107Y287123D01*
X162360Y286603D01*
X163691Y286339D01*
X165049D01*
X166380Y286603D01*
X167634Y287123D01*
X168762Y287877D01*
X169722Y288836D01*
X170476Y289965D01*
X170995Y291219D01*
X171260Y292550D01*
Y293907D01*
X170995Y295238D01*
X170780Y295757D01*
X171169Y296339D01*
X171260D01*
Y310118D01*
X171260D01*
X171141Y310405D01*
X171656Y310920D01*
X172350Y311958D01*
X172827Y313112D01*
X173071Y314336D01*
Y315585D01*
X172827Y316810D01*
X172350Y317963D01*
X171656Y319001D01*
X170773Y319884D01*
X169902Y320466D01*
X169830Y320762D01*
Y320971D01*
X169902Y321266D01*
X170773Y321848D01*
X171656Y322731D01*
X172350Y323769D01*
X172827Y324923D01*
X173071Y326147D01*
Y327396D01*
X172827Y328621D01*
X172350Y329774D01*
X171656Y330812D01*
X170773Y331695D01*
X169735Y332389D01*
X168581Y332867D01*
X167357Y333110D01*
X166108D01*
X164883Y332867D01*
X163730Y332389D01*
X162692Y331695D01*
X162214Y331217D01*
X161732Y330868D01*
X161251Y331217D01*
X160773Y331695D01*
X159735Y332389D01*
X158581Y332867D01*
X157357Y333110D01*
X156108D01*
X154883Y332867D01*
X153730Y332389D01*
X152692Y331695D01*
X152214Y331217D01*
X151732Y330868D01*
X151251Y331217D01*
X150773Y331695D01*
X149735Y332389D01*
X148581Y332867D01*
X147357Y333110D01*
X146108D01*
X144883Y332867D01*
X143730Y332389D01*
X142692Y331695D01*
X142214Y331217D01*
X141732Y330868D01*
X141251Y331217D01*
X140773Y331695D01*
X139735Y332389D01*
X138581Y332867D01*
X137357Y333110D01*
X136108D01*
X134883Y332867D01*
X133730Y332389D01*
X132692Y331695D01*
X132214Y331217D01*
X131732Y330868D01*
X131251Y331217D01*
X130773Y331695D01*
X129735Y332389D01*
X128581Y332867D01*
X127357Y333110D01*
X126108D01*
X124883Y332867D01*
X123730Y332389D01*
X122692Y331695D01*
X122214Y331217D01*
X121732Y330868D01*
X121251Y331217D01*
X120773Y331695D01*
X119735Y332389D01*
X118581Y332867D01*
X117357Y333110D01*
X116108D01*
X114883Y332867D01*
X113730Y332389D01*
X112692Y331695D01*
X111809Y330812D01*
X111115Y329774D01*
X110637Y328621D01*
X110593Y328398D01*
X109879D01*
X109835Y328621D01*
X109357Y329774D01*
X108664Y330812D01*
X107781Y331695D01*
X106743Y332389D01*
X105589Y332867D01*
X104365Y333110D01*
X103116D01*
X101891Y332867D01*
X100738Y332389D01*
X99699Y331695D01*
X99222Y331217D01*
X98740Y330868D01*
X98259Y331217D01*
X97781Y331695D01*
X96743Y332389D01*
X95589Y332867D01*
X94365Y333110D01*
X93116D01*
X91891Y332867D01*
X90738Y332389D01*
X89700Y331695D01*
X89222Y331217D01*
X88740Y330868D01*
X88259Y331217D01*
X87781Y331695D01*
X86743Y332389D01*
X85589Y332867D01*
X84364Y333110D01*
X83116D01*
X81891Y332867D01*
X80738Y332389D01*
X79699Y331695D01*
X79222Y331217D01*
X78740Y330868D01*
X78259Y331217D01*
X77781Y331695D01*
X76743Y332389D01*
X75589Y332867D01*
X74365Y333110D01*
X73116D01*
X72869Y333313D01*
Y340235D01*
X72936Y340312D01*
X399571D01*
Y269685D01*
X399649Y269295D01*
X399870Y268964D01*
X400200Y268743D01*
X400591Y268666D01*
X448176D01*
X448565Y268083D01*
X448495Y267916D01*
Y266970D01*
X448857Y266096D01*
X449526Y265427D01*
X450400Y265065D01*
X451346D01*
X452045Y265355D01*
X452560Y264958D01*
X452610Y264889D01*
X452347Y264252D01*
Y263306D01*
X452708Y262433D01*
X453377Y261764D01*
X454251Y261402D01*
X455197D01*
X456071Y261764D01*
X456740Y262433D01*
X457102Y263306D01*
Y264252D01*
X456740Y265126D01*
X456071Y265795D01*
X455197Y266158D01*
X454251D01*
X453552Y265868D01*
X453038Y266265D01*
X452988Y266334D01*
X453251Y266970D01*
Y267916D01*
X453182Y268083D01*
X453571Y268666D01*
X537162D01*
Y181735D01*
X533465D01*
X533465Y181735D01*
Y181735D01*
X533380Y181719D01*
X531827Y181596D01*
X530231Y181213D01*
X528713Y180585D01*
X527313Y179727D01*
X526064Y178660D01*
X524998Y177411D01*
X524140Y176011D01*
X523511Y174494D01*
X523128Y172897D01*
X522999Y171260D01*
X523128Y169623D01*
X523511Y168026D01*
X524140Y166509D01*
X524998Y165109D01*
X526064Y163860D01*
X527313Y162793D01*
X528713Y161935D01*
X530231Y161307D01*
X531827Y160923D01*
X533380Y160801D01*
X533465Y160784D01*
X537162D01*
Y72948D01*
X536130Y72897D01*
X532429Y72348D01*
X528798Y71439D01*
X525275Y70178D01*
X521892Y68578D01*
X518682Y66654D01*
X515676Y64425D01*
X512903Y61912D01*
X510390Y59139D01*
X508161Y56133D01*
X506237Y52923D01*
X504637Y49540D01*
X503376Y46016D01*
X502467Y42386D01*
X501918Y38685D01*
X501734Y34947D01*
X501755Y34530D01*
X501741Y34461D01*
Y3996D01*
X501729Y3937D01*
X501729D01*
X501625Y3280D01*
X501622Y3265D01*
X501241Y2696D01*
X500672Y2315D01*
X500066Y2195D01*
X500000Y2208D01*
X39370D01*
X39304Y2195D01*
X38698Y2315D01*
X38129Y2696D01*
X37748Y3265D01*
X37745Y3280D01*
X37641Y3937D01*
X37641D01*
X37629Y3996D01*
Y34461D01*
X37615Y34530D01*
X37636Y34947D01*
X37452Y38685D01*
X36903Y42386D01*
X35994Y46016D01*
X34733Y49540D01*
X33133Y52923D01*
X31209Y56133D01*
X28980Y59139D01*
X26467Y61912D01*
X23694Y64425D01*
X20688Y66654D01*
X17478Y68578D01*
X14095Y70178D01*
X10572Y71439D01*
X6942Y72348D01*
X3240Y72897D01*
X2208Y72948D01*
Y160784D01*
X5906D01*
X5906Y160784D01*
Y160784D01*
X5990Y160801D01*
X7543Y160923D01*
X9139Y161307D01*
X10657Y161935D01*
X12057Y162793D01*
X13306Y163860D01*
X14372Y165109D01*
X15230Y166509D01*
X15859Y168026D01*
X16242Y169623D01*
X16371Y171260D01*
X16242Y172897D01*
X15859Y174494D01*
X15230Y176011D01*
X14372Y177411D01*
X13306Y178660D01*
X12057Y179727D01*
X10657Y180585D01*
X9139Y181213D01*
X7543Y181596D01*
X5990Y181719D01*
X5906Y181735D01*
X2196D01*
Y269571D01*
X3240Y269623D01*
X6942Y270172D01*
X10572Y271081D01*
X14095Y272342D01*
X17478Y273942D01*
X20688Y275866D01*
X23694Y278095D01*
X26467Y280608D01*
X28980Y283381D01*
X31209Y286387D01*
X33133Y289597D01*
X34733Y292980D01*
X35994Y296503D01*
X36903Y300133D01*
X37452Y303835D01*
X37636Y307573D01*
X37615Y307990D01*
X37629Y308059D01*
Y338523D01*
X37641Y338583D01*
X37641D01*
X37745Y339239D01*
X37748Y339254D01*
X38129Y339824D01*
X38698Y340205D01*
X39304Y340325D01*
X39370Y340312D01*
D02*
G37*
G36*
X68898Y340235D02*
Y226378D01*
X49413Y206893D01*
Y173154D01*
X26552Y173225D01*
Y268678D01*
X47244Y289370D01*
Y340235D01*
X58070Y340313D01*
X68898Y340235D01*
D02*
G37*
G36*
X209646Y67913D02*
X209493D01*
X209830Y41837D01*
X209338Y41339D01*
X149078D01*
X148893Y42266D01*
X148368Y43053D01*
X147581Y43579D01*
X146653Y43763D01*
X145726Y43579D01*
X144939Y43053D01*
X144414Y42266D01*
X144229Y41339D01*
X48228D01*
Y67913D01*
X36718D01*
X36428Y68613D01*
X36848Y69033D01*
X37602Y70162D01*
X38121Y71416D01*
X38386Y72747D01*
Y74104D01*
X38121Y75435D01*
X37602Y76689D01*
X36848Y77817D01*
X36240Y78425D01*
X36848Y79033D01*
X37052Y79338D01*
X37752D01*
X37955Y79033D01*
X38915Y78074D01*
X40044Y77320D01*
X40500Y77131D01*
X40616Y76325D01*
X40144Y75852D01*
X39624Y74951D01*
X39354Y73946D01*
Y73925D01*
X43307D01*
X47260D01*
Y73946D01*
X46990Y74951D01*
X46470Y75852D01*
X45998Y76325D01*
X46115Y77131D01*
X46571Y77320D01*
X47699Y78074D01*
X48659Y79033D01*
X49413Y80162D01*
X49932Y81415D01*
X50197Y82747D01*
Y84104D01*
X49932Y85435D01*
X49413Y86689D01*
X48659Y87817D01*
X48051Y88425D01*
X48659Y89033D01*
X49413Y90162D01*
X49932Y91416D01*
X50197Y92747D01*
Y94104D01*
X49932Y95435D01*
X49413Y96689D01*
X48659Y97817D01*
X48051Y98425D01*
X48659Y99033D01*
X49413Y100162D01*
X49932Y101416D01*
X50197Y102747D01*
Y104104D01*
X49932Y105435D01*
X49413Y106689D01*
X48659Y107817D01*
X48051Y108425D01*
X48659Y109033D01*
X49413Y110162D01*
X49932Y111416D01*
X50197Y112747D01*
Y114104D01*
X49932Y115435D01*
X49717Y115953D01*
X50106Y116535D01*
X50197D01*
Y130315D01*
X47781D01*
X47578Y130985D01*
X47699Y131066D01*
X48659Y132025D01*
X49413Y133154D01*
X49932Y134408D01*
X50197Y135739D01*
Y137096D01*
X49932Y138427D01*
X49413Y139681D01*
X48659Y140809D01*
X48436Y141032D01*
X48726Y141732D01*
X58071D01*
Y167950D01*
X58771Y168240D01*
X59119Y167892D01*
X60216Y167159D01*
X61434Y166655D01*
X62727Y166398D01*
X64045D01*
X65338Y166655D01*
X66556Y167159D01*
X67652Y167892D01*
X68585Y168824D01*
X69317Y169920D01*
X69822Y171138D01*
X70079Y172431D01*
Y173750D01*
X69822Y175043D01*
X69317Y176261D01*
X68585Y177357D01*
X67652Y178289D01*
X66556Y179022D01*
X65338Y179526D01*
X64045Y179783D01*
X63968D01*
X63968Y179784D01*
X63788Y179880D01*
X63423Y180465D01*
X63424Y180483D01*
X63431Y180537D01*
X63494Y180762D01*
X63502Y180817D01*
X63502Y180835D01*
X63507Y180853D01*
X63515Y180912D01*
X63523Y180971D01*
X63523Y181097D01*
X63525Y181103D01*
X63524Y181243D01*
X63558Y181496D01*
Y181614D01*
X63524Y181867D01*
X63525Y182007D01*
X63523Y182013D01*
X63523Y182139D01*
X63515Y182198D01*
X63507Y182257D01*
X63502Y182275D01*
X63502Y182294D01*
X63494Y182349D01*
X63431Y182573D01*
X63424Y182627D01*
X63423Y182645D01*
X63788Y183230D01*
X63968Y183327D01*
X63968Y183327D01*
X64045D01*
X65338Y183584D01*
X66556Y184089D01*
X67652Y184821D01*
X68585Y185753D01*
X69317Y186849D01*
X69822Y188067D01*
X70079Y189360D01*
Y190679D01*
X69822Y191972D01*
X69317Y193190D01*
X68585Y194286D01*
X67652Y195218D01*
X66556Y195951D01*
X65338Y196455D01*
X64045Y196713D01*
X62727D01*
X61434Y196455D01*
X60216Y195951D01*
X59119Y195218D01*
X58771Y194870D01*
X58071Y195160D01*
Y197835D01*
X69114D01*
X69581Y197135D01*
X69490Y196913D01*
Y195967D01*
X69852Y195093D01*
X70521Y194424D01*
X71395Y194062D01*
X71574Y193795D01*
X71570Y193786D01*
Y192840D01*
X71932Y191966D01*
X72601Y191297D01*
X73475Y190935D01*
X74421D01*
X74973Y191164D01*
X75590Y190679D01*
Y189360D01*
X75848Y188067D01*
X76352Y186849D01*
X77085Y185753D01*
X78017Y184821D01*
X79113Y184089D01*
X80331Y183584D01*
X81624Y183327D01*
X82943D01*
X83691Y183476D01*
X84232Y183032D01*
Y180079D01*
X83691Y179634D01*
X82943Y179783D01*
X81624D01*
X80331Y179526D01*
X79113Y179022D01*
X78017Y178289D01*
X77085Y177357D01*
X76352Y176261D01*
X75848Y175043D01*
X75590Y173750D01*
Y172431D01*
X75848Y171138D01*
X76153Y170401D01*
X75686Y169701D01*
X75314D01*
X74440Y169339D01*
X73772Y168670D01*
X73409Y167796D01*
Y166850D01*
X73772Y165976D01*
X74393Y165354D01*
X73772Y164733D01*
X73409Y163859D01*
Y162913D01*
X73772Y162039D01*
X74440Y161370D01*
X75314Y161008D01*
X76260D01*
X77134Y161370D01*
X77803Y162039D01*
X78165Y162913D01*
Y163859D01*
X77803Y164733D01*
X77182Y165354D01*
X77803Y165976D01*
X78165Y166850D01*
Y167050D01*
X78783Y167380D01*
X79113Y167159D01*
X80331Y166655D01*
X81624Y166398D01*
X82943D01*
X84236Y166655D01*
X85454Y167159D01*
X86550Y167892D01*
X87482Y168824D01*
X88215Y169920D01*
X88719Y171138D01*
X88976Y172431D01*
Y173750D01*
X88719Y175043D01*
X88215Y176261D01*
X87482Y177357D01*
X87372Y177468D01*
X87639Y178114D01*
X90551D01*
X90941Y178192D01*
X91272Y178413D01*
X91493Y178744D01*
X91571Y179134D01*
Y183677D01*
X91493Y184067D01*
X91272Y184398D01*
X90941Y184619D01*
X90551Y184697D01*
X87416D01*
X87126Y185397D01*
X87482Y185753D01*
X88215Y186849D01*
X88719Y188067D01*
X88976Y189360D01*
Y190679D01*
X88719Y191972D01*
X88215Y193190D01*
X87482Y194286D01*
X86550Y195218D01*
X85454Y195951D01*
X84236Y196455D01*
X82943Y196713D01*
X81624D01*
X80331Y196455D01*
X79113Y195951D01*
X78017Y195218D01*
X77085Y194286D01*
X76956Y194094D01*
X76166Y194172D01*
X75964Y194660D01*
X75295Y195329D01*
X74421Y195691D01*
X74242Y195959D01*
X74246Y195967D01*
Y196913D01*
X74154Y197135D01*
X74622Y197835D01*
X149572D01*
Y175689D01*
X149708Y174661D01*
X150104Y173704D01*
X150735Y172881D01*
X151558Y172250D01*
X152515Y171853D01*
X153543Y171718D01*
X178150D01*
X179177Y171853D01*
X179667Y172056D01*
X179688Y172025D01*
X180296Y171417D01*
X179688Y170809D01*
X178934Y169681D01*
X178414Y168427D01*
X178150Y167096D01*
Y165739D01*
X178414Y164408D01*
X178934Y163154D01*
X179688Y162025D01*
X180296Y161417D01*
X179688Y160809D01*
X178934Y159681D01*
X178414Y158427D01*
X178150Y157096D01*
Y155739D01*
X178414Y154408D01*
X178934Y153154D01*
X179688Y152025D01*
X180296Y151417D01*
X179688Y150809D01*
X178934Y149681D01*
X178414Y148427D01*
X178150Y147096D01*
Y145739D01*
X178414Y144408D01*
X178934Y143154D01*
X179688Y142025D01*
X180296Y141417D01*
X179688Y140809D01*
X178934Y139681D01*
X178414Y138427D01*
X178150Y137096D01*
Y135739D01*
X178414Y134408D01*
X178934Y133154D01*
X179688Y132025D01*
X180647Y131066D01*
X180768Y130985D01*
X180565Y130315D01*
X178150D01*
Y116535D01*
X178240D01*
X178629Y115953D01*
X178414Y115435D01*
X178150Y114104D01*
Y112747D01*
X178414Y111416D01*
X178934Y110162D01*
X179688Y109033D01*
X180296Y108425D01*
X179688Y107817D01*
X178934Y106689D01*
X178414Y105435D01*
X178150Y104104D01*
Y102747D01*
X178414Y101416D01*
X178934Y100162D01*
X179688Y99033D01*
X180296Y98425D01*
X179688Y97817D01*
X178934Y96689D01*
X178414Y95435D01*
X178150Y94104D01*
Y92747D01*
X178414Y91416D01*
X178934Y90162D01*
X179688Y89033D01*
X180296Y88425D01*
X179688Y87817D01*
X178934Y86689D01*
X178414Y85435D01*
X178150Y84104D01*
Y82747D01*
X178414Y81415D01*
X178934Y80162D01*
X179688Y79033D01*
X180647Y78074D01*
X181776Y77320D01*
X182232Y77131D01*
X182349Y76325D01*
X181876Y75852D01*
X181356Y74951D01*
X181087Y73946D01*
Y73925D01*
X185039D01*
X188992D01*
Y73946D01*
X188723Y74951D01*
X188202Y75852D01*
X187730Y76325D01*
X187847Y77131D01*
X188303Y77320D01*
X189431Y78074D01*
X190391Y79033D01*
X190595Y79338D01*
X191295D01*
X191499Y79033D01*
X192107Y78425D01*
X191499Y77817D01*
X190745Y76689D01*
X190225Y75435D01*
X189961Y74104D01*
Y72747D01*
X190225Y71416D01*
X190615Y70476D01*
X190934Y69879D01*
X191310Y69316D01*
X191739Y68793D01*
X191919Y68613D01*
X191908Y68587D01*
X191955Y68530D01*
X193004Y67669D01*
X194201Y67029D01*
X195500Y66635D01*
X196850Y66502D01*
X198201Y66635D01*
X199500Y67029D01*
X200697Y67669D01*
X201746Y68530D01*
X201793Y68587D01*
X201782Y68613D01*
X201961Y68793D01*
X202391Y69316D01*
X202767Y69879D01*
X203086Y70476D01*
X203475Y71416D01*
X203740Y72747D01*
Y74104D01*
X203475Y75435D01*
X202956Y76689D01*
X202202Y77817D01*
X201594Y78425D01*
X202202Y79033D01*
X202956Y80162D01*
X203475Y81415D01*
X203740Y82747D01*
Y84104D01*
X203475Y85435D01*
X202956Y86689D01*
X202202Y87817D01*
X201594Y88425D01*
X202202Y89033D01*
X202956Y90162D01*
X203475Y91416D01*
X203740Y92747D01*
Y94104D01*
X203475Y95435D01*
X202956Y96689D01*
X202202Y97817D01*
X201594Y98425D01*
X202202Y99033D01*
X202956Y100162D01*
X203475Y101416D01*
X203740Y102747D01*
Y104104D01*
X203475Y105435D01*
X202956Y106689D01*
X202202Y107817D01*
X201594Y108425D01*
X202202Y109033D01*
X202956Y110162D01*
X203475Y111416D01*
X203740Y112747D01*
Y114104D01*
X203475Y115435D01*
X203261Y115953D01*
X203649Y116535D01*
X203740D01*
Y130315D01*
X201325D01*
X201121Y130985D01*
X201242Y131066D01*
X202202Y132025D01*
X202956Y133154D01*
X203475Y134408D01*
X203740Y135739D01*
Y137096D01*
X203475Y138427D01*
X202956Y139681D01*
X202202Y140809D01*
X201594Y141417D01*
X202202Y142025D01*
X202956Y143154D01*
X203475Y144408D01*
X203740Y145739D01*
Y147096D01*
X203475Y148427D01*
X202956Y149681D01*
X202202Y150809D01*
X201594Y151417D01*
X202202Y152025D01*
X202956Y153154D01*
X203475Y154408D01*
X203740Y155739D01*
Y157096D01*
X203475Y158427D01*
X202956Y159681D01*
X202202Y160809D01*
X201594Y161417D01*
X202202Y162025D01*
X202956Y163154D01*
X203475Y164408D01*
X203740Y165739D01*
Y167096D01*
X203475Y168427D01*
X202956Y169681D01*
X202202Y170809D01*
X201594Y171417D01*
X202202Y172025D01*
X202956Y173154D01*
X203475Y174408D01*
X203740Y175739D01*
Y177096D01*
X203475Y178427D01*
X203261Y178946D01*
X203649Y179528D01*
X203740D01*
Y193307D01*
X189961D01*
Y182595D01*
X189261Y182254D01*
X189082Y182394D01*
X188992Y182515D01*
Y185917D01*
X185039D01*
Y186417D01*
X184539D01*
Y190370D01*
X182121D01*
Y197835D01*
X209646D01*
Y67913D01*
D02*
G37*
%LPC*%
G36*
X214583Y309150D02*
X211130D01*
Y305697D01*
X214583D01*
Y309150D01*
D02*
G37*
G36*
X210130D02*
X206677D01*
Y305697D01*
X210130D01*
Y309150D01*
D02*
G37*
G36*
X285460Y310396D02*
X284782D01*
X284127Y310221D01*
X283540Y309882D01*
X283061Y309402D01*
X282722Y308815D01*
X282546Y308160D01*
Y307483D01*
X282722Y306828D01*
X283061Y306241D01*
X283540Y305761D01*
X284127Y305422D01*
X284782Y305247D01*
X285460D01*
X286115Y305422D01*
X286702Y305761D01*
X287182Y306241D01*
X287521Y306828D01*
X287696Y307483D01*
Y308160D01*
X287521Y308815D01*
X287182Y309402D01*
X286702Y309882D01*
X286115Y310221D01*
X285460Y310396D01*
D02*
G37*
G36*
X210630Y305197D02*
D01*
Y304697D01*
X206677D01*
Y301244D01*
X206677Y301244D01*
X206677D01*
X206399Y300656D01*
X206238Y300549D01*
X205278Y299589D01*
X204524Y298460D01*
X204005Y297206D01*
X203740Y295875D01*
Y294518D01*
X204005Y293187D01*
X204524Y291933D01*
X205278Y290805D01*
X206238Y289845D01*
X207366Y289091D01*
X208620Y288572D01*
X209951Y288307D01*
X211309D01*
X212640Y288572D01*
X213893Y289091D01*
X215022Y289845D01*
X215982Y290805D01*
X216736Y291933D01*
X217255Y293187D01*
X217520Y294518D01*
Y295875D01*
X217255Y297206D01*
X216736Y298460D01*
X215982Y299589D01*
X215022Y300549D01*
X214865Y300653D01*
X214583Y301244D01*
X214583D01*
X214583Y301244D01*
Y304697D01*
X210630D01*
Y305197D01*
D02*
G37*
G36*
X147977Y304740D02*
X147299D01*
X146644Y304565D01*
X146057Y304226D01*
X145577Y303746D01*
X145238Y303159D01*
X145063Y302504D01*
Y301826D01*
X145238Y301171D01*
X145577Y300584D01*
X146057Y300105D01*
X146644Y299766D01*
X147299Y299590D01*
X147977D01*
X148632Y299766D01*
X149219Y300105D01*
X149698Y300584D01*
X150037Y301171D01*
X150213Y301826D01*
Y302504D01*
X150037Y303159D01*
X149698Y303746D01*
X149219Y304226D01*
X148632Y304565D01*
X147977Y304740D01*
D02*
G37*
G36*
X138134D02*
X137456D01*
X136801Y304565D01*
X136214Y304226D01*
X135735Y303746D01*
X135396Y303159D01*
X135221Y302504D01*
Y301826D01*
X135396Y301171D01*
X135735Y300584D01*
X136214Y300105D01*
X136801Y299766D01*
X137456Y299590D01*
X138134D01*
X138789Y299766D01*
X139376Y300105D01*
X139856Y300584D01*
X140195Y301171D01*
X140370Y301826D01*
Y302504D01*
X140195Y303159D01*
X139856Y303746D01*
X139376Y304226D01*
X138789Y304565D01*
X138134Y304740D01*
D02*
G37*
G36*
X383347Y302575D02*
X382401D01*
X381527Y302213D01*
X380858Y301544D01*
X380496Y300670D01*
Y299724D01*
X380858Y298850D01*
X381527Y298181D01*
X382401Y297819D01*
X383347D01*
X384221Y298181D01*
X384890Y298850D01*
X385252Y299724D01*
Y300670D01*
X384890Y301544D01*
X384221Y302213D01*
X383347Y302575D01*
D02*
G37*
G36*
X332166Y277969D02*
X331220D01*
X330346Y277607D01*
X329677Y276938D01*
X329315Y276063D01*
Y275117D01*
X329677Y274244D01*
X330346Y273575D01*
X331220Y273213D01*
X332166D01*
X333040Y273575D01*
X333709Y274244D01*
X334071Y275117D01*
Y276063D01*
X333709Y276938D01*
X333040Y277607D01*
X332166Y277969D01*
D02*
G37*
G36*
X328229Y274031D02*
X327283D01*
X326409Y273670D01*
X325740Y273001D01*
X325378Y272127D01*
Y271181D01*
X325740Y270306D01*
X326409Y269638D01*
X327283Y269276D01*
X328229D01*
X329103Y269638D01*
X329772Y270306D01*
X330134Y271181D01*
Y272127D01*
X329772Y273001D01*
X329103Y273670D01*
X328229Y274031D01*
D02*
G37*
G36*
X150285Y276575D02*
X148928D01*
X147597Y276310D01*
X146343Y275791D01*
X145214Y275037D01*
X144255Y274077D01*
X143501Y272949D01*
X142981Y271695D01*
X142717Y270364D01*
Y269006D01*
X142981Y267675D01*
X143501Y266422D01*
X144255Y265293D01*
X145214Y264333D01*
X146343Y263579D01*
X147597Y263060D01*
X148928Y262795D01*
X150285D01*
X151616Y263060D01*
X152870Y263579D01*
X153998Y264333D01*
X154958Y265293D01*
X155712Y266422D01*
X156231Y267675D01*
X156496Y269006D01*
Y270364D01*
X156231Y271695D01*
X155712Y272949D01*
X154958Y274077D01*
X153998Y275037D01*
X152870Y275791D01*
X151616Y276310D01*
X150285Y276575D01*
D02*
G37*
G36*
X291812Y264189D02*
X290866D01*
X289992Y263827D01*
X289323Y263158D01*
X288961Y262284D01*
Y261338D01*
X289323Y260464D01*
X289992Y259795D01*
X290866Y259433D01*
X291812D01*
X292686Y259795D01*
X293355Y260464D01*
X293717Y261338D01*
Y262284D01*
X293355Y263158D01*
X292686Y263827D01*
X291812Y264189D01*
D02*
G37*
G36*
X236694Y261236D02*
X235748D01*
X234874Y260874D01*
X234205Y260205D01*
X233842Y259331D01*
Y258385D01*
X234205Y257511D01*
X234874Y256842D01*
X235748Y256480D01*
X236694D01*
X237567Y256842D01*
X238236Y257511D01*
X238598Y258385D01*
Y259331D01*
X238236Y260205D01*
X237567Y260874D01*
X236694Y261236D01*
D02*
G37*
G36*
X524246Y255748D02*
X522998D01*
X521773Y255504D01*
X520620Y255027D01*
X519582Y254333D01*
X518699Y253450D01*
X518117Y252579D01*
X517821Y252507D01*
X517612D01*
X517316Y252579D01*
X516735Y253450D01*
X515852Y254333D01*
X514814Y255027D01*
X513660Y255504D01*
X512435Y255748D01*
X511187D01*
X509962Y255504D01*
X508809Y255027D01*
X507770Y254333D01*
X506887Y253450D01*
X506194Y252412D01*
X505716Y251258D01*
X505473Y250034D01*
Y248785D01*
X505716Y247561D01*
X506194Y246407D01*
X506887Y245369D01*
X507365Y244891D01*
X507715Y244409D01*
X507365Y243928D01*
X506887Y243450D01*
X506194Y242412D01*
X505716Y241258D01*
X505473Y240034D01*
Y238785D01*
X505716Y237561D01*
X506194Y236407D01*
X506887Y235369D01*
X507365Y234891D01*
X507715Y234409D01*
X507365Y233928D01*
X506887Y233450D01*
X506194Y232412D01*
X505716Y231258D01*
X505473Y230034D01*
Y228785D01*
X505716Y227561D01*
X506194Y226407D01*
X506887Y225369D01*
X507365Y224891D01*
X507715Y224410D01*
X507365Y223928D01*
X506887Y223450D01*
X506194Y222412D01*
X505716Y221258D01*
X505473Y220034D01*
Y218785D01*
X505716Y217561D01*
X506194Y216407D01*
X506887Y215369D01*
X507365Y214891D01*
X507715Y214409D01*
X507365Y213928D01*
X506887Y213450D01*
X506194Y212412D01*
X505716Y211258D01*
X505473Y210034D01*
Y208785D01*
X505716Y207561D01*
X506194Y206407D01*
X506887Y205369D01*
X507365Y204891D01*
X507715Y204409D01*
X507365Y203928D01*
X506887Y203450D01*
X506194Y202412D01*
X505716Y201258D01*
X505473Y200034D01*
Y198785D01*
X505716Y197561D01*
X506194Y196407D01*
X506887Y195369D01*
X507770Y194486D01*
X508809Y193792D01*
X509962Y193315D01*
X511187Y193071D01*
X512435D01*
X513660Y193315D01*
X514814Y193792D01*
X515852Y194486D01*
X516735Y195369D01*
X517316Y196240D01*
X517612Y196312D01*
X517821D01*
X518117Y196240D01*
X518699Y195369D01*
X519582Y194486D01*
X520620Y193792D01*
X521773Y193315D01*
X522998Y193071D01*
X524246D01*
X525471Y193315D01*
X526624Y193792D01*
X527663Y194486D01*
X528546Y195369D01*
X529239Y196407D01*
X529717Y197561D01*
X529961Y198785D01*
Y200034D01*
X529717Y201258D01*
X529239Y202412D01*
X528546Y203450D01*
X528068Y203928D01*
X527718Y204409D01*
X528068Y204891D01*
X528546Y205369D01*
X529239Y206407D01*
X529717Y207561D01*
X529961Y208785D01*
Y210034D01*
X529717Y211258D01*
X529239Y212412D01*
X528546Y213450D01*
X528068Y213928D01*
X527718Y214409D01*
X528068Y214891D01*
X528546Y215369D01*
X529239Y216407D01*
X529717Y217561D01*
X529961Y218785D01*
Y220034D01*
X529717Y221258D01*
X529239Y222412D01*
X528546Y223450D01*
X528068Y223928D01*
X527718Y224410D01*
X528068Y224891D01*
X528546Y225369D01*
X529239Y226407D01*
X529717Y227561D01*
X529961Y228785D01*
Y230034D01*
X529717Y231258D01*
X529239Y232412D01*
X528546Y233450D01*
X528068Y233928D01*
X527718Y234409D01*
X528068Y234891D01*
X528546Y235369D01*
X529239Y236407D01*
X529717Y237561D01*
X529961Y238785D01*
Y240034D01*
X529717Y241258D01*
X529239Y242412D01*
X528546Y243450D01*
X528068Y243928D01*
X527718Y244409D01*
X528068Y244891D01*
X528546Y245369D01*
X529239Y246407D01*
X529717Y247561D01*
X529961Y248785D01*
Y250034D01*
X529717Y251258D01*
X529239Y252412D01*
X528546Y253450D01*
X527663Y254333D01*
X526624Y255027D01*
X525471Y255504D01*
X524246Y255748D01*
D02*
G37*
G36*
X459471Y262415D02*
X458525D01*
X457651Y262053D01*
X456982Y261384D01*
X456620Y260510D01*
Y259564D01*
X456982Y258690D01*
X457651Y258021D01*
X458525Y257659D01*
X459342D01*
X459685Y257320D01*
X459851Y257059D01*
X459691Y256672D01*
Y255726D01*
X460053Y254852D01*
X460722Y254183D01*
X461596Y253821D01*
X462314D01*
X462731Y253470D01*
X462876Y253202D01*
Y252403D01*
X463238Y251529D01*
X463907Y250860D01*
X464781Y250498D01*
X465727D01*
X466246Y250713D01*
X466782Y250177D01*
X466577Y249683D01*
Y248737D01*
X466939Y247863D01*
X467608Y247194D01*
X468482Y246832D01*
X469428D01*
X470302Y247194D01*
X470971Y247863D01*
X471333Y248737D01*
Y249683D01*
X470971Y250557D01*
X470302Y251226D01*
X469428Y251588D01*
X468482D01*
X467963Y251373D01*
X467427Y251908D01*
X467631Y252403D01*
Y253349D01*
X467270Y254223D01*
X466601Y254891D01*
X465727Y255254D01*
X465008D01*
X464591Y255604D01*
X464447Y255873D01*
Y256672D01*
X464085Y257546D01*
X463416Y258215D01*
X462542Y258577D01*
X461724D01*
X461381Y258916D01*
X461215Y259177D01*
X461376Y259564D01*
Y260510D01*
X461014Y261384D01*
X460345Y262053D01*
X459471Y262415D01*
D02*
G37*
G36*
X150285Y256890D02*
X148928D01*
X147597Y256625D01*
X146343Y256106D01*
X145214Y255352D01*
X144255Y254392D01*
X143501Y253263D01*
X142981Y252010D01*
X142717Y250679D01*
Y249321D01*
X142981Y247990D01*
X143501Y246737D01*
X144255Y245608D01*
X145214Y244648D01*
X146343Y243894D01*
X147597Y243375D01*
X148928Y243110D01*
X150285D01*
X151616Y243375D01*
X152870Y243894D01*
X153998Y244648D01*
X154958Y245608D01*
X155712Y246737D01*
X156231Y247990D01*
X156496Y249321D01*
Y250679D01*
X156231Y252010D01*
X155712Y253263D01*
X154958Y254392D01*
X153998Y255352D01*
X152870Y256106D01*
X151616Y256625D01*
X150285Y256890D01*
D02*
G37*
G36*
X258631Y236221D02*
X257274D01*
X255943Y235956D01*
X255424Y235741D01*
X254842Y236130D01*
Y236221D01*
X241063D01*
Y222441D01*
X254842D01*
Y222532D01*
X255424Y222920D01*
X255943Y222706D01*
X257274Y222441D01*
X258631D01*
X259962Y222706D01*
X261216Y223225D01*
X262345Y223979D01*
X263304Y224939D01*
X264058Y226067D01*
X264578Y227321D01*
X264843Y228652D01*
Y230009D01*
X264578Y231340D01*
X264058Y232594D01*
X263304Y233723D01*
X262345Y234682D01*
X261216Y235436D01*
X259962Y235956D01*
X258631Y236221D01*
D02*
G37*
G36*
X275079Y227772D02*
X274133D01*
X273259Y227410D01*
X272590Y226741D01*
X272228Y225867D01*
Y224921D01*
X272590Y224047D01*
X273259Y223378D01*
X274133Y223016D01*
X275079D01*
X275953Y223378D01*
X276622Y224047D01*
X276984Y224921D01*
Y225867D01*
X276622Y226741D01*
X275953Y227410D01*
X275079Y227772D01*
D02*
G37*
G36*
X95167Y235236D02*
X93810D01*
X92479Y234971D01*
X91225Y234452D01*
X90096Y233698D01*
X89137Y232738D01*
X88383Y231610D01*
X87863Y230356D01*
X87598Y229025D01*
Y227668D01*
X87863Y226337D01*
X88383Y225083D01*
X89137Y223955D01*
X90096Y222995D01*
X91225Y222241D01*
X92479Y221722D01*
X93810Y221457D01*
X95167D01*
X96498Y221722D01*
X97752Y222241D01*
X98880Y222995D01*
X99840Y223955D01*
X100594Y225083D01*
X101113Y226337D01*
X101378Y227668D01*
Y229025D01*
X101113Y230356D01*
X100594Y231610D01*
X99840Y232738D01*
X98880Y233698D01*
X97752Y234452D01*
X96498Y234971D01*
X95167Y235236D01*
D02*
G37*
G36*
X237678Y224819D02*
X236732D01*
X235858Y224457D01*
X235189Y223788D01*
X234827Y222914D01*
Y221968D01*
X235189Y221094D01*
X235858Y220425D01*
X236732Y220063D01*
X237678D01*
X238552Y220425D01*
X239221Y221094D01*
X239583Y221968D01*
Y222914D01*
X239221Y223788D01*
X238552Y224457D01*
X237678Y224819D01*
D02*
G37*
G36*
X230788D02*
X229842D01*
X228968Y224457D01*
X228299Y223788D01*
X227937Y222914D01*
Y221968D01*
X228299Y221094D01*
X228968Y220425D01*
X229842Y220063D01*
X230788D01*
X231662Y220425D01*
X232331Y221094D01*
X232693Y221968D01*
Y222914D01*
X232331Y223788D01*
X231662Y224457D01*
X230788Y224819D01*
D02*
G37*
G36*
X334134Y221866D02*
X333188D01*
X332314Y221504D01*
X331645Y220835D01*
X331283Y219961D01*
Y219015D01*
X331645Y218141D01*
X332314Y217472D01*
X333188Y217110D01*
X334134D01*
X335008Y217472D01*
X335677Y218141D01*
X336039Y219015D01*
Y219961D01*
X335677Y220835D01*
X335008Y221504D01*
X334134Y221866D01*
D02*
G37*
G36*
X182686Y215567D02*
X182665D01*
Y212114D01*
X186118D01*
Y212135D01*
X185849Y213140D01*
X185328Y214041D01*
X184592Y214777D01*
X183691Y215298D01*
X182686Y215567D01*
D02*
G37*
G36*
X186118Y211114D02*
X182665D01*
Y207661D01*
X182686D01*
X183691Y207931D01*
X184592Y208451D01*
X185328Y209187D01*
X185849Y210088D01*
X186118Y211094D01*
Y211114D01*
D02*
G37*
G36*
X179055Y218504D02*
X165276D01*
Y204724D01*
X179055D01*
Y208220D01*
X179702Y208488D01*
X179738Y208451D01*
X180640Y207931D01*
X181645Y207661D01*
X181665D01*
Y211614D01*
Y215567D01*
X181645D01*
X180640Y215298D01*
X179738Y214777D01*
X179702Y214741D01*
X179055Y215009D01*
Y218504D01*
D02*
G37*
G36*
X243401Y220226D02*
X242083D01*
X240790Y219969D01*
X239572Y219465D01*
X238475Y218732D01*
X237543Y217800D01*
X236811Y216704D01*
X236306Y215486D01*
X236049Y214193D01*
Y212874D01*
X236306Y211581D01*
X236811Y210363D01*
X237543Y209267D01*
X238475Y208335D01*
X239572Y207602D01*
X240790Y207098D01*
X242083Y206841D01*
X242160D01*
X242160Y206840D01*
X242339Y206744D01*
X242705Y206159D01*
X242703Y206141D01*
X242696Y206087D01*
X242634Y205863D01*
X242626Y205807D01*
X242625Y205789D01*
X242621Y205771D01*
X242613Y205712D01*
X242605Y205653D01*
X242605Y205527D01*
X242603Y205521D01*
X242603Y205381D01*
X242570Y205128D01*
Y205010D01*
X242603Y204757D01*
X242603Y204617D01*
X242605Y204611D01*
X242605Y204485D01*
X242613Y204426D01*
X242621Y204367D01*
X242625Y204349D01*
X242626Y204330D01*
X242634Y204275D01*
X242696Y204051D01*
X242703Y203997D01*
X242705Y203979D01*
X242339Y203394D01*
X242160Y203297D01*
X242160Y203297D01*
X242083D01*
X240790Y203040D01*
X239572Y202536D01*
X238475Y201803D01*
X237543Y200871D01*
X236811Y199775D01*
X236306Y198557D01*
X236257Y198310D01*
X235529Y198238D01*
X235476Y198366D01*
X234807Y199035D01*
X233933Y199397D01*
X232987D01*
X232113Y199035D01*
X231600Y198521D01*
X231051Y199070D01*
X230177Y199432D01*
X229917D01*
X229775Y199775D01*
X229043Y200871D01*
X228111Y201803D01*
X227014Y202536D01*
X225797Y203040D01*
X224503Y203297D01*
X223185D01*
X222199Y203101D01*
X221591Y203495D01*
X221499Y203635D01*
Y206583D01*
X222199Y207037D01*
X223185Y206841D01*
X224503D01*
X225797Y207098D01*
X227014Y207602D01*
X228111Y208335D01*
X229043Y209267D01*
X229775Y210363D01*
X230280Y211581D01*
X230537Y212874D01*
Y214193D01*
X230280Y215486D01*
X229775Y216704D01*
X229043Y217800D01*
X228111Y218732D01*
X227014Y219465D01*
X225797Y219969D01*
X224503Y220226D01*
X223185D01*
X221892Y219969D01*
X220674Y219465D01*
X219578Y218732D01*
X218646Y217800D01*
X217913Y216704D01*
X217408Y215486D01*
X217151Y214193D01*
Y212874D01*
X217408Y211581D01*
X217913Y210363D01*
X218646Y209267D01*
X218794Y209118D01*
X218527Y208471D01*
X215180D01*
X214790Y208394D01*
X214459Y208173D01*
X214238Y207842D01*
X214160Y207452D01*
Y202908D01*
X214238Y202518D01*
X214459Y202187D01*
X214790Y201967D01*
X215180Y201889D01*
X218673D01*
X218964Y201189D01*
X218646Y200871D01*
X217913Y199775D01*
X217408Y198557D01*
X217151Y197264D01*
Y195945D01*
X217408Y194652D01*
X217913Y193434D01*
X218646Y192338D01*
X219578Y191406D01*
X220674Y190673D01*
X221892Y190169D01*
X223185Y189911D01*
X224503D01*
X225797Y190169D01*
X227014Y190673D01*
X228111Y191406D01*
X229043Y192338D01*
X229775Y193434D01*
X230280Y194652D01*
X230294Y194724D01*
X231051Y195038D01*
X231565Y195551D01*
X232113Y195003D01*
X232987Y194641D01*
X233933D01*
X234807Y195003D01*
X235404Y195600D01*
X235779Y195575D01*
X236146Y195459D01*
X236306Y194652D01*
X236811Y193434D01*
X237543Y192338D01*
X238475Y191406D01*
X239572Y190673D01*
X240790Y190169D01*
X242083Y189911D01*
X243401D01*
X244694Y190169D01*
X245912Y190673D01*
X247008Y191406D01*
X247941Y192338D01*
X248673Y193434D01*
X249178Y194652D01*
X249435Y195945D01*
Y197264D01*
X249178Y198557D01*
X248865Y199311D01*
X248943Y199632D01*
X248976Y199690D01*
X249204Y199988D01*
X249306Y200057D01*
X249468Y200102D01*
X249537Y200111D01*
X249539Y200112D01*
X249706Y200134D01*
X249765Y200149D01*
X249798Y200163D01*
X249833Y200168D01*
X249888Y200184D01*
X250007Y200235D01*
X250133Y200262D01*
X250188Y200282D01*
X250298Y200339D01*
X250416Y200372D01*
X250471Y200395D01*
X250519Y200424D01*
X250571Y200440D01*
X250622Y200463D01*
X250726Y200529D01*
X250841Y200572D01*
X250892Y200600D01*
X250981Y200664D01*
X250986Y200668D01*
X251091Y200715D01*
X251142Y200746D01*
X251193Y200777D01*
X251373Y200924D01*
X251393Y200933D01*
X251418Y200955D01*
X251537Y201022D01*
X251585Y201057D01*
X251677Y201148D01*
X251783Y201221D01*
X251827Y201261D01*
X251832Y201267D01*
X251874Y201296D01*
X251917Y201335D01*
X252039Y201480D01*
X252184Y201603D01*
X252224Y201646D01*
X252253Y201688D01*
X252259Y201693D01*
X252298Y201736D01*
X252372Y201842D01*
X252462Y201935D01*
X252498Y201982D01*
X252565Y202101D01*
X252586Y202127D01*
X252591Y202137D01*
X252696Y202256D01*
X252727Y202304D01*
X252733Y202315D01*
X252742Y202326D01*
X252773Y202377D01*
X252828Y202499D01*
X252889Y202588D01*
X252902Y202622D01*
X252975Y202730D01*
X253002Y202785D01*
X253023Y202844D01*
X253056Y202897D01*
X253080Y202948D01*
X253096Y203001D01*
X253124Y203048D01*
X253148Y203103D01*
X253181Y203222D01*
X253237Y203331D01*
X253257Y203386D01*
X253284Y203513D01*
X253336Y203631D01*
X253351Y203687D01*
X253357Y203722D01*
X253370Y203754D01*
X253386Y203814D01*
X253408Y203981D01*
X253408Y203982D01*
X253417Y204051D01*
X253480Y204275D01*
X253488Y204330D01*
X253488Y204349D01*
X253493Y204367D01*
X253501Y204426D01*
X253509Y204485D01*
X253509Y204611D01*
X253510Y204617D01*
X253510Y204757D01*
X253544Y205010D01*
Y205128D01*
X253510Y205381D01*
X253510Y205521D01*
X253509Y205527D01*
X253509Y205653D01*
X253501Y205712D01*
X253493Y205771D01*
X253488Y205789D01*
X253488Y205807D01*
X253480Y205863D01*
X253417Y206087D01*
X253408Y206156D01*
X253408Y206157D01*
X253386Y206324D01*
X253370Y206383D01*
X253357Y206416D01*
X253351Y206451D01*
X253336Y206506D01*
X253284Y206625D01*
X253257Y206751D01*
X253237Y206807D01*
X253181Y206916D01*
X253148Y207035D01*
X253124Y207090D01*
X253096Y207137D01*
X253080Y207190D01*
X253056Y207241D01*
X253023Y207294D01*
X253002Y207353D01*
X252975Y207408D01*
X252902Y207516D01*
X252889Y207550D01*
X252828Y207639D01*
X252773Y207761D01*
X252742Y207812D01*
X252733Y207822D01*
X252727Y207834D01*
X252696Y207881D01*
X252591Y208001D01*
X252586Y208011D01*
X252565Y208037D01*
X252498Y208156D01*
X252462Y208203D01*
X252372Y208296D01*
X252298Y208402D01*
X252259Y208445D01*
X252253Y208450D01*
X252224Y208492D01*
X252184Y208535D01*
X252039Y208658D01*
X251917Y208803D01*
X251874Y208842D01*
X251832Y208871D01*
X251827Y208877D01*
X251783Y208916D01*
X251677Y208990D01*
X251585Y209081D01*
X251537Y209116D01*
X251418Y209183D01*
X251393Y209205D01*
X251373Y209214D01*
X251193Y209361D01*
X251091Y209423D01*
X250986Y209470D01*
X250981Y209474D01*
X250892Y209538D01*
X250841Y209565D01*
X250726Y209609D01*
X250622Y209675D01*
X250571Y209698D01*
X250519Y209714D01*
X250471Y209742D01*
X250416Y209766D01*
X250298Y209799D01*
X250188Y209856D01*
X250133Y209875D01*
X250007Y209903D01*
X249888Y209954D01*
X249833Y209970D01*
X249798Y209975D01*
X249765Y209988D01*
X249706Y210004D01*
X249539Y210026D01*
X249537Y210027D01*
X249468Y210036D01*
X249306Y210081D01*
X249204Y210150D01*
X248976Y210448D01*
X248943Y210506D01*
X248865Y210827D01*
X249178Y211581D01*
X249435Y212874D01*
Y214193D01*
X249178Y215486D01*
X248673Y216704D01*
X247941Y217800D01*
X247008Y218732D01*
X245912Y219465D01*
X244694Y219969D01*
X243401Y220226D01*
D02*
G37*
G36*
X345226Y210628D02*
X344280D01*
X343406Y210266D01*
X342737Y209597D01*
X342375Y208723D01*
Y207778D01*
X342737Y206904D01*
X343406Y206235D01*
X344280Y205873D01*
X345226D01*
X346100Y206235D01*
X346769Y206904D01*
X347131Y207778D01*
Y208723D01*
X346769Y209597D01*
X346100Y210266D01*
X345226Y210628D01*
D02*
G37*
G36*
X350944Y205376D02*
X349998D01*
X349124Y205014D01*
X348455Y204345D01*
X348093Y203471D01*
Y202525D01*
X348455Y201651D01*
X349124Y200982D01*
X349998Y200620D01*
X350944D01*
X351818Y200982D01*
X352487Y201651D01*
X352849Y202525D01*
Y203471D01*
X352487Y204345D01*
X351818Y205014D01*
X350944Y205376D01*
D02*
G37*
G36*
X356624Y199493D02*
X355678D01*
X354803Y199131D01*
X354135Y198462D01*
X353773Y197588D01*
Y196642D01*
X354135Y195768D01*
X354803Y195099D01*
X355678Y194737D01*
X356624D01*
X357498Y195099D01*
X358167Y195768D01*
X358528Y196642D01*
Y197588D01*
X358167Y198462D01*
X357498Y199131D01*
X356624Y199493D01*
D02*
G37*
G36*
X361916Y194333D02*
X360970D01*
X360097Y193971D01*
X359428Y193302D01*
X359066Y192428D01*
Y191482D01*
X359428Y190608D01*
X360097Y189939D01*
X360970Y189577D01*
X361916D01*
X362790Y189939D01*
X363459Y190608D01*
X363821Y191482D01*
Y192428D01*
X363459Y193302D01*
X362790Y193971D01*
X361916Y194333D01*
D02*
G37*
G36*
X367628Y188431D02*
X366682D01*
X365808Y188068D01*
X365139Y187400D01*
X364777Y186526D01*
Y185580D01*
X365139Y184706D01*
X365808Y184037D01*
X366682Y183675D01*
X367628D01*
X368502Y184037D01*
X369171Y184706D01*
X369533Y185580D01*
Y186526D01*
X369171Y187400D01*
X368502Y188068D01*
X367628Y188431D01*
D02*
G37*
G36*
X356772Y188372D02*
X355826D01*
X354952Y188010D01*
X354283Y187341D01*
X353921Y186467D01*
Y185521D01*
X354283Y184647D01*
X354952Y183978D01*
X355826Y183616D01*
X356772D01*
X357646Y183978D01*
X358315Y184647D01*
X358677Y185521D01*
Y186467D01*
X358315Y187341D01*
X357646Y188010D01*
X356772Y188372D01*
D02*
G37*
G36*
X373065Y182790D02*
X372119D01*
X371245Y182428D01*
X370576Y181759D01*
X370214Y180885D01*
Y179939D01*
X370576Y179065D01*
X371245Y178396D01*
X372119Y178034D01*
X373065D01*
X373939Y178396D01*
X374607Y179065D01*
X374970Y179939D01*
Y180885D01*
X374607Y181759D01*
X373939Y182428D01*
X373065Y182790D01*
D02*
G37*
G36*
X424686Y179543D02*
X423740D01*
X422866Y179181D01*
X422197Y178512D01*
X421835Y177638D01*
Y176692D01*
X422197Y175818D01*
X422866Y175149D01*
X423740Y174787D01*
X424686D01*
X425560Y175149D01*
X426229Y175818D01*
X426590Y176692D01*
Y177638D01*
X426229Y178512D01*
X425560Y179181D01*
X424686Y179543D01*
D02*
G37*
G36*
X368499Y179082D02*
X367553D01*
X366679Y178720D01*
X366010Y178051D01*
X365648Y177177D01*
Y176231D01*
X366010Y175357D01*
X366679Y174688D01*
X367553Y174326D01*
X368499D01*
X369373Y174688D01*
X370042Y175357D01*
X370404Y176231D01*
Y177177D01*
X370042Y178051D01*
X369373Y178720D01*
X368499Y179082D01*
D02*
G37*
G36*
X409922Y172653D02*
X408976D01*
X408102Y172292D01*
X407433Y171623D01*
X407071Y170749D01*
Y169803D01*
X407433Y168929D01*
X408102Y168260D01*
X408976Y167898D01*
X409922D01*
X410796Y168260D01*
X411465Y168929D01*
X411827Y169803D01*
Y170749D01*
X411465Y171623D01*
X410796Y172292D01*
X409922Y172653D01*
D02*
G37*
G36*
X405001Y167732D02*
X404055D01*
X403181Y167370D01*
X402512Y166701D01*
X402150Y165827D01*
Y164881D01*
X402512Y164007D01*
X403181Y163338D01*
X404055Y162976D01*
X405001D01*
X405875Y163338D01*
X406543Y164007D01*
X406906Y164881D01*
Y165827D01*
X406543Y166701D01*
X405875Y167370D01*
X405001Y167732D01*
D02*
G37*
G36*
X254410Y159858D02*
X253464D01*
X252590Y159496D01*
X251921Y158827D01*
X251559Y157953D01*
Y157007D01*
X251921Y156133D01*
X252590Y155464D01*
X253464Y155102D01*
X254410D01*
X255284Y155464D01*
X255953Y156133D01*
X256315Y157007D01*
Y157953D01*
X255953Y158827D01*
X255284Y159496D01*
X254410Y159858D01*
D02*
G37*
G36*
X476378Y170310D02*
X464567D01*
X463539Y170174D01*
X462581Y169778D01*
X461759Y169147D01*
X461128Y168324D01*
X460731Y167366D01*
X460596Y166339D01*
Y153918D01*
X459896Y153637D01*
X459134Y153953D01*
X458188D01*
X457314Y153591D01*
X456645Y152922D01*
X456284Y152048D01*
Y151102D01*
X455965Y150625D01*
X451516D01*
X451197Y151102D01*
Y152048D01*
X450835Y152922D01*
X450166Y153591D01*
X449292Y153953D01*
X448346D01*
X447472Y153591D01*
X446803Y152922D01*
X446441Y152048D01*
Y151102D01*
X446122Y150625D01*
X437736D01*
X437417Y151102D01*
Y152048D01*
X437055Y152922D01*
X436386Y153591D01*
X435512Y153953D01*
X434566D01*
X433692Y153591D01*
X433023Y152922D01*
X432661Y152048D01*
Y151102D01*
X432342Y150625D01*
X423957D01*
X423638Y151102D01*
Y152048D01*
X423276Y152922D01*
X422607Y153591D01*
X421733Y153953D01*
X420787D01*
X419913Y153591D01*
X419244Y152922D01*
X418882Y152048D01*
Y151102D01*
X418563Y150625D01*
X413388D01*
X413134Y151239D01*
X412465Y151908D01*
X411591Y152270D01*
X410645D01*
X409771Y151908D01*
X409102Y151239D01*
X408848Y150625D01*
X395669D01*
X394641Y150489D01*
X393684Y150092D01*
X392861Y149461D01*
X392230Y148639D01*
X391834Y147681D01*
X391698Y146653D01*
Y138779D01*
X391834Y137752D01*
X392230Y136794D01*
X392861Y135972D01*
X393684Y135341D01*
X394641Y134944D01*
X395669Y134809D01*
X476378D01*
X477406Y134944D01*
X478363Y135341D01*
X479186Y135972D01*
X479817Y136794D01*
X480214Y137752D01*
X480349Y138779D01*
Y166339D01*
X480214Y167366D01*
X479817Y168324D01*
X479186Y169147D01*
X478363Y169778D01*
X477406Y170174D01*
X476378Y170310D01*
D02*
G37*
G36*
X524246Y149449D02*
X522998D01*
X521773Y149205D01*
X520620Y148727D01*
X519582Y148034D01*
X518699Y147151D01*
X518117Y146280D01*
X517821Y146208D01*
X517612D01*
X517316Y146280D01*
X516735Y147151D01*
X515852Y148034D01*
X514814Y148727D01*
X513660Y149205D01*
X512435Y149449D01*
X511187D01*
X509962Y149205D01*
X508809Y148727D01*
X507770Y148034D01*
X506887Y147151D01*
X506194Y146113D01*
X505716Y144959D01*
X505473Y143735D01*
Y142486D01*
X505716Y141261D01*
X506194Y140108D01*
X506887Y139070D01*
X507365Y138592D01*
X507715Y138110D01*
X507365Y137629D01*
X506887Y137151D01*
X506194Y136113D01*
X505716Y134959D01*
X505473Y133735D01*
Y132486D01*
X505716Y131261D01*
X506194Y130108D01*
X506887Y129070D01*
X507365Y128592D01*
X507715Y128110D01*
X507365Y127629D01*
X506887Y127151D01*
X506194Y126113D01*
X505716Y124959D01*
X505473Y123734D01*
Y122486D01*
X505716Y121261D01*
X506194Y120108D01*
X506887Y119070D01*
X507365Y118592D01*
X507715Y118110D01*
X507365Y117629D01*
X506887Y117151D01*
X506194Y116113D01*
X505716Y114959D01*
X505473Y113734D01*
Y112486D01*
X505716Y111261D01*
X506194Y110108D01*
X506887Y109070D01*
X507365Y108592D01*
X507715Y108110D01*
X507365Y107629D01*
X506887Y107151D01*
X506194Y106113D01*
X505716Y104959D01*
X505473Y103735D01*
Y102486D01*
X505716Y101261D01*
X506194Y100108D01*
X506887Y99070D01*
X507365Y98592D01*
X507715Y98110D01*
X507365Y97629D01*
X506887Y97151D01*
X506194Y96113D01*
X505716Y94959D01*
X505473Y93735D01*
Y92486D01*
X505716Y91261D01*
X506194Y90108D01*
X506887Y89070D01*
X507770Y88187D01*
X508809Y87493D01*
X509962Y87015D01*
X511187Y86772D01*
X512435D01*
X513660Y87015D01*
X514814Y87493D01*
X515852Y88187D01*
X516735Y89070D01*
X517316Y89941D01*
X517612Y90012D01*
X517821D01*
X518117Y89941D01*
X518699Y89070D01*
X519582Y88187D01*
X520620Y87493D01*
X521773Y87015D01*
X522998Y86772D01*
X524246D01*
X525471Y87015D01*
X526624Y87493D01*
X527663Y88187D01*
X528546Y89070D01*
X529239Y90108D01*
X529717Y91261D01*
X529961Y92486D01*
Y93735D01*
X529717Y94959D01*
X529239Y96113D01*
X528546Y97151D01*
X528068Y97629D01*
X527718Y98110D01*
X528068Y98592D01*
X528546Y99070D01*
X529239Y100108D01*
X529717Y101261D01*
X529961Y102486D01*
Y103735D01*
X529717Y104959D01*
X529239Y106113D01*
X528546Y107151D01*
X528068Y107629D01*
X527718Y108110D01*
X528068Y108592D01*
X528546Y109070D01*
X529239Y110108D01*
X529717Y111261D01*
X529961Y112486D01*
Y113734D01*
X529717Y114959D01*
X529239Y116113D01*
X528546Y117151D01*
X528068Y117629D01*
X527718Y118110D01*
X528068Y118592D01*
X528546Y119070D01*
X529239Y120108D01*
X529717Y121261D01*
X529961Y122486D01*
Y123734D01*
X529717Y124959D01*
X529239Y126113D01*
X528546Y127151D01*
X528068Y127629D01*
X527718Y128110D01*
X528068Y128592D01*
X528546Y129070D01*
X529239Y130108D01*
X529717Y131261D01*
X529961Y132486D01*
Y133735D01*
X529717Y134959D01*
X529239Y136113D01*
X528546Y137151D01*
X528068Y137629D01*
X527718Y138110D01*
X528068Y138592D01*
X528546Y139070D01*
X529239Y140108D01*
X529717Y141261D01*
X529961Y142486D01*
Y143735D01*
X529717Y144959D01*
X529239Y146113D01*
X528546Y147151D01*
X527663Y148034D01*
X526624Y148727D01*
X525471Y149205D01*
X524246Y149449D01*
D02*
G37*
G36*
X347331Y136821D02*
X346385D01*
X345511Y136459D01*
X344842Y135790D01*
X344480Y134916D01*
Y133970D01*
X344842Y133096D01*
X345511Y132427D01*
X346385Y132065D01*
X347331D01*
X348205Y132427D01*
X348874Y133096D01*
X349236Y133970D01*
Y134916D01*
X348874Y135790D01*
X348205Y136459D01*
X347331Y136821D01*
D02*
G37*
G36*
X312008Y212632D02*
X310980Y212497D01*
X310022Y212100D01*
X309200Y211469D01*
X299357Y201627D01*
X279672Y181942D01*
X269830Y172099D01*
X269199Y171277D01*
X268802Y170319D01*
X268667Y169291D01*
X268802Y168264D01*
X269199Y167306D01*
X269830Y166483D01*
X269830Y166483D01*
X285030Y151283D01*
Y127942D01*
X285047Y127813D01*
X285038Y127683D01*
X285115Y127301D01*
X285158Y126969D01*
X285115Y126636D01*
X285038Y126254D01*
X285047Y126124D01*
X285030Y125995D01*
Y115401D01*
X285064Y115143D01*
X285064Y114883D01*
X285131Y114631D01*
X285165Y114373D01*
X285265Y114133D01*
X285332Y113882D01*
X285462Y113656D01*
X285562Y113416D01*
X285720Y113209D01*
X285732Y113189D01*
X285720Y113169D01*
X285562Y112962D01*
X285462Y112722D01*
X285332Y112496D01*
X285265Y112245D01*
X285165Y112005D01*
X285131Y111747D01*
X285064Y111495D01*
Y111235D01*
X285030Y110977D01*
Y90147D01*
X285047Y90018D01*
X285038Y89887D01*
X285115Y89505D01*
X285158Y89173D01*
X285115Y88841D01*
X285038Y88459D01*
X285047Y88329D01*
X285030Y88199D01*
Y45990D01*
X284330Y45522D01*
X283938Y45685D01*
X282992D01*
X282118Y45323D01*
X281449Y44654D01*
X281087Y43780D01*
Y42834D01*
X281449Y41960D01*
X282118Y41291D01*
X282992Y40929D01*
X283938D01*
X284330Y41092D01*
X285030Y40624D01*
Y29528D01*
X285165Y28500D01*
X285562Y27542D01*
X286193Y26720D01*
X287016Y26089D01*
X287973Y25692D01*
X289001Y25557D01*
X311974D01*
X313002Y25692D01*
X313959Y26089D01*
X314782Y26720D01*
X315413Y27542D01*
X315810Y28500D01*
X315945Y29528D01*
Y97407D01*
X351378D01*
X352406Y97542D01*
X353363Y97939D01*
X354186Y98570D01*
X354817Y99392D01*
X355214Y100350D01*
X355349Y101378D01*
Y113069D01*
X355403Y113091D01*
X356071Y113760D01*
X356434Y114634D01*
Y115580D01*
X356071Y116454D01*
X355403Y117123D01*
X355349Y117145D01*
Y119095D01*
X355214Y120122D01*
X354817Y121080D01*
X354186Y121902D01*
X353363Y122534D01*
X352406Y122930D01*
X351378Y123065D01*
X335664D01*
Y131801D01*
X335983D01*
X336857Y132163D01*
X337526Y132832D01*
X337888Y133706D01*
Y134652D01*
X337526Y135526D01*
X337270Y135782D01*
X337235Y136738D01*
X361918Y161420D01*
X362564Y161152D01*
Y132283D01*
X362700Y131256D01*
X363096Y130298D01*
X363727Y129476D01*
X364550Y128844D01*
X365508Y128448D01*
X366535Y128313D01*
X367563Y128448D01*
X368521Y128844D01*
X369343Y129476D01*
X369974Y130298D01*
X370371Y131256D01*
X370506Y132283D01*
Y164173D01*
X370371Y165201D01*
X369974Y166159D01*
X369343Y166981D01*
X348477Y187847D01*
X347655Y188478D01*
X346697Y188875D01*
X345669Y189010D01*
X337275D01*
X314816Y211469D01*
X313993Y212100D01*
X313036Y212497D01*
X312008Y212632D01*
D02*
G37*
G36*
X416812Y127378D02*
X415866D01*
X414992Y127016D01*
X414323Y126347D01*
X414257Y126188D01*
X413499D01*
X413433Y126347D01*
X412764Y127016D01*
X411890Y127378D01*
X410944D01*
X410070Y127016D01*
X409401Y126347D01*
X409039Y125473D01*
Y124527D01*
X409401Y123653D01*
X410070Y122984D01*
X410944Y122622D01*
X411890D01*
X412764Y122984D01*
X413433Y123653D01*
X413499Y123812D01*
X414257D01*
X414323Y123653D01*
X414992Y122984D01*
X415866Y122622D01*
X416812D01*
X417686Y122984D01*
X418355Y123653D01*
X418716Y124527D01*
Y125473D01*
X418355Y126347D01*
X417686Y127016D01*
X416812Y127378D01*
D02*
G37*
G36*
X372520Y126394D02*
X371574D01*
X370700Y126032D01*
X370031Y125363D01*
X369669Y124489D01*
Y123543D01*
X370031Y122669D01*
X370700Y122000D01*
X371574Y121638D01*
X372520D01*
X373394Y122000D01*
X374063Y122669D01*
X374425Y123543D01*
Y124489D01*
X374063Y125363D01*
X373394Y126032D01*
X372520Y126394D01*
D02*
G37*
G36*
X267599Y122653D02*
X266653D01*
X265779Y122292D01*
X265110Y121623D01*
X264748Y120749D01*
Y119803D01*
X265110Y118929D01*
X265779Y118260D01*
X266653Y117898D01*
X267599D01*
X268473Y118260D01*
X269142Y118929D01*
X269504Y119803D01*
Y120749D01*
X269142Y121623D01*
X268473Y122292D01*
X267599Y122653D01*
D02*
G37*
G36*
X255394Y121866D02*
X254448D01*
X253574Y121504D01*
X252905Y120835D01*
X252543Y119961D01*
Y119015D01*
X252905Y118141D01*
X253574Y117472D01*
X254448Y117110D01*
X255394D01*
X256268Y117472D01*
X256937Y118141D01*
X257299Y119015D01*
Y119961D01*
X256937Y120835D01*
X256268Y121504D01*
X255394Y121866D01*
D02*
G37*
G36*
X248577Y115101D02*
X247631D01*
X246757Y114739D01*
X246088Y114070D01*
X245726Y113196D01*
Y112250D01*
X246088Y111376D01*
X246757Y110707D01*
X247631Y110345D01*
X248577D01*
X249451Y110707D01*
X250120Y111376D01*
X250482Y112250D01*
Y113196D01*
X250120Y114070D01*
X249451Y114739D01*
X248577Y115101D01*
D02*
G37*
G36*
X434528Y105724D02*
X433582D01*
X432708Y105362D01*
X432039Y104693D01*
X431677Y103820D01*
Y103079D01*
X431237Y102675D01*
X431038Y102586D01*
X430591Y102772D01*
X429645D01*
X428771Y102410D01*
X428102Y101741D01*
X427740Y100867D01*
Y99921D01*
X428102Y99047D01*
X428771Y98378D01*
X429645Y98016D01*
X430591D01*
X431465Y98378D01*
X432134Y99047D01*
X432496Y99921D01*
Y100661D01*
X432937Y101065D01*
X433135Y101154D01*
X433582Y100969D01*
X434528D01*
X435402Y101330D01*
X436071Y101999D01*
X436433Y102874D01*
Y103820D01*
X436071Y104693D01*
X435402Y105362D01*
X434528Y105724D01*
D02*
G37*
G36*
X275079Y100803D02*
X274133D01*
X273259Y100441D01*
X272590Y99772D01*
X272228Y98898D01*
Y97952D01*
X272590Y97078D01*
X273259Y96409D01*
X274133Y96047D01*
X275079D01*
X275953Y96409D01*
X276622Y97078D01*
X276984Y97952D01*
Y98898D01*
X276622Y99772D01*
X275953Y100441D01*
X275079Y100803D01*
D02*
G37*
G36*
X268190Y84071D02*
X267244D01*
X266370Y83709D01*
X265701Y83040D01*
X265339Y82166D01*
Y81220D01*
X265701Y80346D01*
X266370Y79677D01*
X267244Y79315D01*
X268190D01*
X269063Y79677D01*
X269732Y80346D01*
X270094Y81220D01*
Y82166D01*
X269732Y83040D01*
X269063Y83709D01*
X268190Y84071D01*
D02*
G37*
G36*
X255394D02*
X254448D01*
X253574Y83709D01*
X252905Y83040D01*
X252543Y82166D01*
Y81220D01*
X252905Y80346D01*
X253574Y79677D01*
X254448Y79315D01*
X255394D01*
X256268Y79677D01*
X256937Y80346D01*
X257299Y81220D01*
Y82166D01*
X256937Y83040D01*
X256268Y83709D01*
X255394Y84071D01*
D02*
G37*
G36*
X422790Y64777D02*
X422112D01*
X421457Y64602D01*
X420870Y64263D01*
X420483Y63875D01*
X420095Y64263D01*
X419508Y64602D01*
X418853Y64777D01*
X418175D01*
X417520Y64602D01*
X416933Y64263D01*
X416454Y63783D01*
X416115Y63196D01*
X415939Y62541D01*
Y61863D01*
X416115Y61209D01*
X416454Y60622D01*
X416841Y60234D01*
X416454Y59846D01*
X416115Y59259D01*
X415939Y58604D01*
Y57926D01*
X416115Y57272D01*
X416454Y56684D01*
X416933Y56205D01*
X417520Y55866D01*
X418175Y55691D01*
X418853D01*
X419508Y55866D01*
X420095Y56205D01*
X420483Y56593D01*
X420870Y56205D01*
X421457Y55866D01*
X422112Y55691D01*
X422790D01*
X423445Y55866D01*
X424032Y56205D01*
X424419Y56592D01*
X424807Y56203D01*
X425394Y55864D01*
X426049Y55689D01*
X426727D01*
X427382Y55864D01*
X427969Y56203D01*
X428278Y56513D01*
X428588Y56203D01*
X429175Y55864D01*
X429830Y55689D01*
X430508D01*
X431163Y55864D01*
X431750Y56203D01*
X432229Y56683D01*
X432568Y57270D01*
X432744Y57925D01*
Y58603D01*
X432568Y59258D01*
X432229Y59845D01*
X431842Y60232D01*
X432229Y60620D01*
X432568Y61207D01*
X432744Y61862D01*
Y62540D01*
X432568Y63195D01*
X432229Y63782D01*
X431750Y64261D01*
X431163Y64600D01*
X430508Y64776D01*
X429830D01*
X429175Y64600D01*
X428588Y64261D01*
X428278Y63952D01*
X427969Y64261D01*
X427382Y64600D01*
X426727Y64776D01*
X426049D01*
X425394Y64600D01*
X424807Y64261D01*
X424420Y63874D01*
X424032Y64263D01*
X423445Y64602D01*
X422790Y64777D01*
D02*
G37*
G36*
X234547Y165177D02*
Y165177D01*
X220177D01*
Y150807D01*
X220177D01*
X220532Y150277D01*
X220453Y150088D01*
X220177Y148700D01*
Y147284D01*
X220453Y145896D01*
X220995Y144589D01*
X221781Y143412D01*
X222201Y142992D01*
X221781Y142572D01*
X220995Y141395D01*
X220453Y140088D01*
X220177Y138700D01*
Y137285D01*
X220453Y135896D01*
X220995Y134589D01*
X221781Y133412D01*
X222201Y132992D01*
X221781Y132572D01*
X220995Y131395D01*
X220453Y130088D01*
X220177Y128700D01*
Y127285D01*
X220453Y125896D01*
X220995Y124589D01*
X221781Y123412D01*
X222201Y122992D01*
X221781Y122572D01*
X220995Y121396D01*
X220453Y120088D01*
X220177Y118700D01*
Y117285D01*
X220453Y115896D01*
X220995Y114589D01*
X221781Y113412D01*
X222201Y112992D01*
X221781Y112572D01*
X220995Y111396D01*
X220453Y110088D01*
X220177Y108700D01*
Y107284D01*
X220453Y105896D01*
X220995Y104589D01*
X221781Y103412D01*
X222201Y102992D01*
X221781Y102572D01*
X220995Y101395D01*
X220453Y100088D01*
X220177Y98700D01*
Y97285D01*
X220453Y95896D01*
X220995Y94589D01*
X221781Y93412D01*
X222201Y92992D01*
X221781Y92572D01*
X220995Y91395D01*
X220453Y90088D01*
X220177Y88700D01*
Y87284D01*
X220453Y85896D01*
X220995Y84589D01*
X221781Y83412D01*
X222201Y82992D01*
X221781Y82572D01*
X220995Y81396D01*
X220453Y80088D01*
X220177Y78700D01*
Y77284D01*
X220453Y75896D01*
X220995Y74589D01*
X221781Y73412D01*
X222201Y72992D01*
X221781Y72572D01*
X220995Y71395D01*
X220453Y70088D01*
X220177Y68700D01*
Y67285D01*
X220453Y65896D01*
X220995Y64589D01*
X221781Y63412D01*
X222782Y62411D01*
X223959Y61625D01*
X225266Y61083D01*
X226655Y60807D01*
X228070D01*
X229458Y61083D01*
X230766Y61625D01*
X231942Y62411D01*
X232362Y62831D01*
X232782Y62411D01*
X233959Y61625D01*
X235266Y61083D01*
X236654Y60807D01*
X238070D01*
X239458Y61083D01*
X240766Y61625D01*
X241942Y62411D01*
X242943Y63412D01*
X243729Y64589D01*
X244271Y65896D01*
X244547Y67285D01*
Y68700D01*
X244271Y70088D01*
X243729Y71395D01*
X242943Y72572D01*
X242523Y72992D01*
X242943Y73412D01*
X243729Y74589D01*
X244271Y75896D01*
X244547Y77284D01*
Y78700D01*
X244271Y80088D01*
X243729Y81396D01*
X242943Y82572D01*
X242523Y82992D01*
X242943Y83412D01*
X243729Y84589D01*
X244271Y85896D01*
X244547Y87284D01*
Y88700D01*
X244271Y90088D01*
X243729Y91395D01*
X242943Y92572D01*
X242523Y92992D01*
X242943Y93412D01*
X243729Y94589D01*
X244271Y95896D01*
X244547Y97285D01*
Y98700D01*
X244271Y100088D01*
X243729Y101395D01*
X242943Y102572D01*
X242523Y102992D01*
X242943Y103412D01*
X243729Y104589D01*
X244271Y105896D01*
X244547Y107284D01*
Y108700D01*
X244271Y110088D01*
X243729Y111396D01*
X242943Y112572D01*
X242523Y112992D01*
X242943Y113412D01*
X243729Y114589D01*
X244271Y115896D01*
X244547Y117285D01*
Y118700D01*
X244271Y120088D01*
X243729Y121396D01*
X242943Y122572D01*
X242523Y122992D01*
X242943Y123412D01*
X243729Y124589D01*
X244271Y125896D01*
X244547Y127285D01*
Y128700D01*
X244271Y130088D01*
X243729Y131395D01*
X242943Y132572D01*
X242523Y132992D01*
X242943Y133412D01*
X243729Y134589D01*
X244271Y135896D01*
X244547Y137285D01*
Y138700D01*
X244271Y140088D01*
X243729Y141395D01*
X242943Y142572D01*
X242523Y142992D01*
X242943Y143412D01*
X243729Y144589D01*
X244271Y145896D01*
X244547Y147284D01*
Y148700D01*
X244271Y150088D01*
X243729Y151395D01*
X242943Y152572D01*
X242523Y152992D01*
X242943Y153412D01*
X243729Y154589D01*
X244271Y155896D01*
X244547Y157284D01*
Y158700D01*
X244271Y160088D01*
X243729Y161396D01*
X242943Y162572D01*
X241942Y163573D01*
X240766Y164359D01*
X239458Y164901D01*
X238070Y165177D01*
X236654D01*
X235266Y164901D01*
X235078Y164823D01*
X234547Y165177D01*
D02*
G37*
G36*
X408458Y64852D02*
X407512D01*
X406638Y64490D01*
X405969Y63821D01*
X405607Y62947D01*
Y62001D01*
X405969Y61127D01*
X406638Y60458D01*
X407512Y60096D01*
X408458D01*
X409332Y60458D01*
X410001Y61127D01*
X410363Y62001D01*
Y62947D01*
X410001Y63821D01*
X409332Y64490D01*
X408458Y64852D01*
D02*
G37*
G36*
X269079Y62442D02*
X268133D01*
X267259Y62080D01*
X266590Y61411D01*
X266228Y60537D01*
Y59591D01*
X266590Y58717D01*
X267259Y58048D01*
X268133Y57686D01*
X269079D01*
X269953Y58048D01*
X270622Y58717D01*
X270984Y59591D01*
Y60537D01*
X270622Y61411D01*
X269953Y62080D01*
X269079Y62442D01*
D02*
G37*
G36*
X260221D02*
X259275D01*
X258401Y62080D01*
X257732Y61411D01*
X257370Y60537D01*
Y59591D01*
X257732Y58717D01*
X258401Y58048D01*
X259275Y57686D01*
X260221D01*
X261095Y58048D01*
X261764Y58717D01*
X262126Y59591D01*
Y60537D01*
X261764Y61411D01*
X261095Y62080D01*
X260221Y62442D01*
D02*
G37*
G36*
X259331Y44701D02*
X258385D01*
X257511Y44339D01*
X256842Y43670D01*
X256480Y42796D01*
Y41850D01*
X256842Y40976D01*
X257511Y40307D01*
X258385Y39945D01*
X259331D01*
X260205Y40307D01*
X260874Y40976D01*
X261236Y41850D01*
Y42796D01*
X260874Y43670D01*
X260205Y44339D01*
X259331Y44701D01*
D02*
G37*
G36*
X98459Y35866D02*
X97210D01*
X95986Y35623D01*
X94832Y35145D01*
X93794Y34451D01*
X93316Y33973D01*
X92835Y33624D01*
X92353Y33973D01*
X91875Y34451D01*
X90837Y35145D01*
X89684Y35623D01*
X88459Y35866D01*
X87210D01*
X85986Y35623D01*
X84832Y35145D01*
X83794Y34451D01*
X83316Y33973D01*
X82835Y33624D01*
X82353Y33973D01*
X81875Y34451D01*
X80837Y35145D01*
X79684Y35623D01*
X78459Y35866D01*
X77210D01*
X75986Y35623D01*
X74832Y35145D01*
X73794Y34451D01*
X73316Y33973D01*
X72835Y33624D01*
X72353Y33973D01*
X71875Y34451D01*
X70837Y35145D01*
X69684Y35623D01*
X68459Y35866D01*
X67210D01*
X65986Y35623D01*
X64832Y35145D01*
X63794Y34451D01*
X63316Y33973D01*
X62835Y33624D01*
X62353Y33973D01*
X61875Y34451D01*
X60837Y35145D01*
X59684Y35623D01*
X58459Y35866D01*
X57210D01*
X55986Y35623D01*
X54832Y35145D01*
X53794Y34451D01*
X53316Y33973D01*
X52835Y33624D01*
X52353Y33973D01*
X51875Y34451D01*
X50837Y35145D01*
X49684Y35623D01*
X48459Y35866D01*
X47210D01*
X45986Y35623D01*
X44832Y35145D01*
X43794Y34451D01*
X42911Y33568D01*
X42217Y32530D01*
X41740Y31376D01*
X41496Y30152D01*
Y28903D01*
X41740Y27679D01*
X42217Y26525D01*
X42911Y25487D01*
X43794Y24604D01*
X44832Y23910D01*
X45986Y23433D01*
X47210Y23189D01*
X48459D01*
X49684Y23433D01*
X50837Y23910D01*
X51875Y24604D01*
X52353Y25082D01*
X52835Y25431D01*
X53316Y25082D01*
X53794Y24604D01*
X54832Y23910D01*
X55986Y23433D01*
X57210Y23189D01*
X58459D01*
X59684Y23433D01*
X60837Y23910D01*
X61875Y24604D01*
X62353Y25082D01*
X62835Y25431D01*
X63316Y25082D01*
X63794Y24604D01*
X64832Y23910D01*
X65986Y23433D01*
X67210Y23189D01*
X68459D01*
X69684Y23433D01*
X70837Y23910D01*
X71875Y24604D01*
X72353Y25082D01*
X72835Y25431D01*
X73316Y25082D01*
X73794Y24604D01*
X74832Y23910D01*
X75986Y23433D01*
X77210Y23189D01*
X78459D01*
X79684Y23433D01*
X80837Y23910D01*
X81875Y24604D01*
X82353Y25082D01*
X82835Y25431D01*
X83316Y25082D01*
X83794Y24604D01*
X84832Y23910D01*
X85986Y23433D01*
X87210Y23189D01*
X88459D01*
X89684Y23433D01*
X90837Y23910D01*
X91875Y24604D01*
X92353Y25082D01*
X92835Y25431D01*
X93316Y25082D01*
X93794Y24604D01*
X94832Y23910D01*
X95986Y23433D01*
X97210Y23189D01*
X98459D01*
X99684Y23433D01*
X100837Y23910D01*
X101875Y24604D01*
X102758Y25487D01*
X103452Y26525D01*
X103930Y27679D01*
X104173Y28903D01*
Y30152D01*
X103930Y31376D01*
X103452Y32530D01*
X102758Y33568D01*
X101875Y34451D01*
X100837Y35145D01*
X99684Y35623D01*
X98459Y35866D01*
D02*
G37*
G36*
X202245Y35842D02*
X201299D01*
X200425Y35480D01*
X199756Y34812D01*
X199394Y33938D01*
Y32992D01*
X199756Y32118D01*
X200425Y31449D01*
X201299Y31087D01*
X202245D01*
X203119Y31449D01*
X203788Y32118D01*
X204150Y32992D01*
Y33938D01*
X203788Y34812D01*
X203119Y35480D01*
X202245Y35842D01*
D02*
G37*
G36*
X175670D02*
X174724D01*
X173850Y35480D01*
X173181Y34812D01*
X172819Y33938D01*
Y32992D01*
X173181Y32118D01*
X173850Y31449D01*
X174724Y31087D01*
X175670D01*
X176544Y31449D01*
X177213Y32118D01*
X177575Y32992D01*
Y33938D01*
X177213Y34812D01*
X176544Y35480D01*
X175670Y35842D01*
D02*
G37*
%LPD*%
G36*
X476378Y138779D02*
X395669D01*
Y146653D01*
X464567D01*
Y166339D01*
X476378D01*
Y138779D01*
D02*
G37*
G36*
X340598Y180072D02*
X340328Y179421D01*
Y178475D01*
X340690Y177601D01*
X341359Y176932D01*
X342233Y176570D01*
X343179D01*
X343830Y176839D01*
X344348Y176321D01*
X344079Y175670D01*
Y174724D01*
X344441Y173850D01*
X345110Y173181D01*
X345984Y172819D01*
X346930D01*
X347033Y172862D01*
X347335Y172632D01*
X347317Y171797D01*
X347176Y171690D01*
X313137Y137650D01*
X312506Y136828D01*
X312109Y135870D01*
X311974Y134843D01*
Y29528D01*
X289001D01*
Y88199D01*
X289701Y88339D01*
X289913Y87826D01*
X290582Y87157D01*
X291456Y86795D01*
X292402D01*
X293276Y87157D01*
X293945Y87826D01*
X294307Y88700D01*
Y89646D01*
X293945Y90520D01*
X293276Y91189D01*
X292402Y91551D01*
X291456D01*
X290582Y91189D01*
X289913Y90520D01*
X289701Y90008D01*
X289001Y90147D01*
Y110977D01*
X289701Y111267D01*
X289795Y111173D01*
X290669Y110811D01*
X291615D01*
X292489Y111173D01*
X293158Y111842D01*
X293520Y112716D01*
Y113662D01*
X293158Y114536D01*
X292489Y115205D01*
X291615Y115567D01*
X290669D01*
X289795Y115205D01*
X289701Y115111D01*
X289001Y115401D01*
Y125995D01*
X289701Y126134D01*
X289913Y125621D01*
X290582Y124953D01*
X291456Y124591D01*
X292402D01*
X293276Y124953D01*
X293945Y125621D01*
X294307Y126496D01*
Y127442D01*
X293945Y128315D01*
X293276Y128984D01*
X292402Y129347D01*
X291456D01*
X290582Y128984D01*
X289913Y128315D01*
X289701Y127803D01*
X289001Y127942D01*
Y152928D01*
X272638Y169291D01*
X282480Y179134D01*
X302165Y198819D01*
X312008Y208661D01*
X340598Y180072D01*
D02*
G37*
G36*
X359987Y165105D02*
X331693Y136811D01*
Y119095D01*
X351378D01*
Y101378D01*
X315945D01*
Y134843D01*
X349984Y168882D01*
X350867D01*
X351741Y169244D01*
X352410Y169913D01*
X352772Y170787D01*
Y171331D01*
X353472Y171621D01*
X359987Y165105D01*
D02*
G37*
%LPC*%
G36*
X314646Y177181D02*
X313700D01*
X312826Y176819D01*
X312157Y176150D01*
X311795Y175276D01*
Y174330D01*
X312157Y173456D01*
X312826Y172787D01*
X313700Y172425D01*
X314646D01*
X315520Y172787D01*
X316189Y173456D01*
X316551Y174330D01*
Y175276D01*
X316189Y176150D01*
X315520Y176819D01*
X314646Y177181D01*
D02*
G37*
G36*
X328268Y175651D02*
X327322D01*
X326448Y175289D01*
X325779Y174620D01*
X325417Y173746D01*
Y172800D01*
X325779Y171926D01*
X326448Y171257D01*
X327322Y170895D01*
X328268D01*
X329142Y171257D01*
X329811Y171926D01*
X330173Y172800D01*
Y173746D01*
X329811Y174620D01*
X329142Y175289D01*
X328268Y175651D01*
D02*
G37*
G36*
X294160Y174689D02*
X293214D01*
X292340Y174327D01*
X291671Y173658D01*
X291309Y172784D01*
Y171838D01*
X291671Y170964D01*
X292340Y170295D01*
X293214Y169933D01*
X294160D01*
X295034Y170295D01*
X295703Y170964D01*
X296065Y171838D01*
Y172784D01*
X295703Y173658D01*
X295034Y174327D01*
X294160Y174689D01*
D02*
G37*
G36*
X305197Y170882D02*
X304251D01*
X303377Y170520D01*
X302709Y169851D01*
X302346Y168977D01*
Y168031D01*
X302709Y167157D01*
X303377Y166488D01*
X304251Y166126D01*
X305197D01*
X306071Y166488D01*
X306740Y167157D01*
X307102Y168031D01*
Y168977D01*
X306740Y169851D01*
X306071Y170520D01*
X305197Y170882D01*
D02*
G37*
G36*
X323308Y166748D02*
X322362D01*
X321488Y166386D01*
X320819Y165717D01*
X320457Y164843D01*
Y163897D01*
X320819Y163023D01*
X321488Y162354D01*
X322362Y161992D01*
X323308D01*
X324182Y162354D01*
X324851Y163023D01*
X325213Y163897D01*
Y164843D01*
X324851Y165717D01*
X324182Y166386D01*
X323308Y166748D01*
D02*
G37*
G36*
X314449Y156905D02*
X313503D01*
X312629Y156544D01*
X311960Y155875D01*
X311598Y155001D01*
Y154055D01*
X311960Y153181D01*
X312629Y152512D01*
X313503Y152150D01*
X314449D01*
X315323Y152512D01*
X315992Y153181D01*
X316354Y154055D01*
Y155001D01*
X315992Y155875D01*
X315323Y156544D01*
X314449Y156905D01*
D02*
G37*
G36*
X310512Y152969D02*
X309566D01*
X308692Y152606D01*
X308024Y151938D01*
X307661Y151064D01*
Y150118D01*
X308024Y149244D01*
X308692Y148575D01*
X309566Y148213D01*
X310512D01*
X311386Y148575D01*
X312055Y149244D01*
X312417Y150118D01*
Y151064D01*
X312055Y151938D01*
X311386Y152606D01*
X310512Y152969D01*
D02*
G37*
G36*
X188992Y190370D02*
X185539D01*
Y186917D01*
X188992D01*
Y190370D01*
D02*
G37*
G36*
X104804Y157890D02*
X103858D01*
X102984Y157528D01*
X102315Y156859D01*
X101953Y155985D01*
Y155039D01*
X102315Y154165D01*
X102984Y153496D01*
X103858Y153134D01*
X104804D01*
X105678Y153496D01*
X106347Y154165D01*
X106709Y155039D01*
Y155985D01*
X106347Y156859D01*
X105678Y157528D01*
X104804Y157890D01*
D02*
G37*
G36*
X165827Y153953D02*
X164881D01*
X164007Y153591D01*
X163338Y152922D01*
X162976Y152048D01*
Y151102D01*
X163338Y150228D01*
X164007Y149559D01*
X164881Y149197D01*
X165827D01*
X166701Y149559D01*
X167370Y150228D01*
X167732Y151102D01*
Y152048D01*
X167370Y152922D01*
X166701Y153591D01*
X165827Y153953D01*
D02*
G37*
G36*
X169162Y147648D02*
X168484D01*
X167830Y147472D01*
X167243Y147133D01*
X166763Y146654D01*
X166424Y146067D01*
X166249Y145412D01*
Y144734D01*
X166424Y144079D01*
X166763Y143492D01*
X166794Y143461D01*
X167229Y142998D01*
X166794Y142535D01*
X166763Y142504D01*
X166424Y141917D01*
X166249Y141262D01*
Y140584D01*
X166424Y139929D01*
X166763Y139342D01*
X167243Y138863D01*
X167830Y138524D01*
X168484Y138348D01*
X169162D01*
X169817Y138524D01*
X170405Y138863D01*
X170884Y139342D01*
X171223Y139929D01*
X171398Y140584D01*
Y141262D01*
X171223Y141917D01*
X170884Y142504D01*
X170853Y142535D01*
X170418Y142998D01*
X170853Y143461D01*
X170884Y143492D01*
X171223Y144079D01*
X171398Y144734D01*
Y145412D01*
X171223Y146067D01*
X170884Y146654D01*
X170405Y147133D01*
X169817Y147472D01*
X169162Y147648D01*
D02*
G37*
G36*
X152048Y97850D02*
X151102D01*
X150228Y97488D01*
X149559Y96819D01*
X149197Y95945D01*
Y94999D01*
X149559Y94125D01*
X150228Y93457D01*
X151102Y93094D01*
X152048D01*
X152922Y93457D01*
X153591Y94125D01*
X153953Y94999D01*
Y95945D01*
X153591Y96819D01*
X152922Y97488D01*
X152048Y97850D01*
D02*
G37*
G36*
X162875Y89976D02*
X161929D01*
X161055Y89614D01*
X160386Y88945D01*
X160024Y88071D01*
Y87125D01*
X160386Y86251D01*
X161055Y85583D01*
X161929Y85220D01*
X162875D01*
X163749Y85583D01*
X164418Y86251D01*
X164779Y87125D01*
Y88071D01*
X164418Y88945D01*
X163749Y89614D01*
X162875Y89976D01*
D02*
G37*
G36*
X188992Y72925D02*
X185539D01*
Y69504D01*
X185812Y69540D01*
X186313Y69674D01*
X186791Y69872D01*
X187240Y70131D01*
X187651Y70447D01*
X188018Y70813D01*
X188110Y70934D01*
X188138D01*
X188202Y70998D01*
X188723Y71899D01*
X188992Y72905D01*
Y72925D01*
D02*
G37*
G36*
X184539D02*
X181087D01*
Y72905D01*
X181356Y71899D01*
X181876Y70998D01*
X181941Y70934D01*
X181969D01*
X182061Y70813D01*
X182428Y70447D01*
X182839Y70131D01*
X183287Y69872D01*
X183766Y69674D01*
X184267Y69540D01*
X184539Y69504D01*
Y72925D01*
D02*
G37*
G36*
X47260Y72925D02*
X43807D01*
Y69472D01*
X43828D01*
X44833Y69742D01*
X45734Y70262D01*
X46470Y70998D01*
X46990Y71899D01*
X47260Y72905D01*
Y72925D01*
D02*
G37*
G36*
X42807D02*
X39354D01*
Y72905D01*
X39624Y71899D01*
X40144Y70998D01*
X40880Y70262D01*
X41781Y69742D01*
X42787Y69472D01*
X42807D01*
Y72925D01*
D02*
G37*
G36*
X151600Y66739D02*
X150672Y66554D01*
X149886Y66029D01*
X149360Y65242D01*
X149176Y64314D01*
X149360Y63386D01*
X149886Y62600D01*
X150672Y62074D01*
X151600Y61890D01*
X152528Y62074D01*
X153314Y62600D01*
X153840Y63386D01*
X154025Y64314D01*
X153840Y65242D01*
X153314Y66029D01*
X152528Y66554D01*
X151600Y66739D01*
D02*
G37*
G36*
X184017Y65528D02*
X183089Y65343D01*
X182303Y64817D01*
X181777Y64031D01*
X181593Y63103D01*
X181777Y62175D01*
X182303Y61389D01*
X183089Y60863D01*
X184017Y60678D01*
X184945Y60863D01*
X185731Y61389D01*
X186257Y62175D01*
X186442Y63103D01*
X186257Y64031D01*
X185731Y64817D01*
X184945Y65343D01*
X184017Y65528D01*
D02*
G37*
G36*
X142323Y78341D02*
X71457D01*
X70429Y78206D01*
X69471Y77809D01*
X68649Y77178D01*
X68018Y76356D01*
X67621Y75398D01*
X67486Y74370D01*
Y67913D01*
Y50748D01*
X67621Y49720D01*
X68018Y48763D01*
X68649Y47940D01*
X69471Y47309D01*
X70429Y46912D01*
X71457Y46777D01*
X142323D01*
X143351Y46912D01*
X144308Y47309D01*
X145131Y47940D01*
X145762Y48763D01*
X146159Y49720D01*
X146294Y50748D01*
Y67913D01*
Y74370D01*
X146159Y75398D01*
X145762Y76356D01*
X145131Y77178D01*
X144308Y77809D01*
X143351Y78206D01*
X142323Y78341D01*
D02*
G37*
%LPD*%
D34*
X210630Y305197D02*
D03*
X164370Y303228D02*
D03*
X31496Y186417D02*
D03*
X43307D02*
D03*
X185039D02*
D03*
X196850D02*
D03*
X31496Y123425D02*
D03*
X43307D02*
D03*
X185039D02*
D03*
X196850D02*
D03*
D101*
X336614Y185039D02*
X345669D01*
X333071Y181496D02*
X336614Y185039D01*
X345669D02*
X366535Y164173D01*
Y132283D02*
Y164173D01*
D103*
X210630Y295197D02*
D03*
X257953Y229331D02*
D03*
X182165Y211614D02*
D03*
X164370Y293228D02*
D03*
X94488Y228346D02*
D03*
Y208661D02*
D03*
X149606Y250000D02*
D03*
Y269685D02*
D03*
X31496Y136417D02*
D03*
Y146417D02*
D03*
Y156417D02*
D03*
Y166417D02*
D03*
Y176417D02*
D03*
X43307Y136417D02*
D03*
Y146417D02*
D03*
Y156417D02*
D03*
Y166417D02*
D03*
Y176417D02*
D03*
X185039Y136417D02*
D03*
Y146417D02*
D03*
Y156417D02*
D03*
Y166417D02*
D03*
Y176417D02*
D03*
X196850Y136417D02*
D03*
Y146417D02*
D03*
Y156417D02*
D03*
Y166417D02*
D03*
Y176417D02*
D03*
X31496Y73425D02*
D03*
Y83425D02*
D03*
Y93425D02*
D03*
Y103425D02*
D03*
Y113425D02*
D03*
X43307Y73425D02*
D03*
Y83425D02*
D03*
Y93425D02*
D03*
Y103425D02*
D03*
Y113425D02*
D03*
X185039Y73425D02*
D03*
Y83425D02*
D03*
Y93425D02*
D03*
Y103425D02*
D03*
Y113425D02*
D03*
X196850Y73425D02*
D03*
Y83425D02*
D03*
Y93425D02*
D03*
Y103425D02*
D03*
Y113425D02*
D03*
D104*
X247953Y229331D02*
D03*
X172165Y211614D02*
D03*
D105*
X87598Y181555D02*
D03*
X218529Y205069D02*
D03*
D106*
X82284Y173091D02*
D03*
X63386D02*
D03*
X82284Y190020D02*
D03*
X63386D02*
D03*
X223844Y213533D02*
D03*
X242742D02*
D03*
X223844Y196604D02*
D03*
X242742D02*
D03*
D107*
X227362Y157992D02*
D03*
D108*
X237362D02*
D03*
X227362Y147992D02*
D03*
X237362D02*
D03*
X227362Y137992D02*
D03*
X237362D02*
D03*
X227362Y127992D02*
D03*
X237362D02*
D03*
X227362Y117992D02*
D03*
X237362D02*
D03*
X227362Y107992D02*
D03*
X237362D02*
D03*
X227362Y97992D02*
D03*
X237362D02*
D03*
X227362Y87992D02*
D03*
X237362D02*
D03*
X227362Y77992D02*
D03*
X237362D02*
D03*
X227362Y67992D02*
D03*
X237362D02*
D03*
D110*
X53740Y314961D02*
D03*
X63740D02*
D03*
X73740D02*
D03*
X83740D02*
D03*
X93740D02*
D03*
X103740D02*
D03*
X116732D02*
D03*
X126732D02*
D03*
X136732D02*
D03*
X146732D02*
D03*
X156732D02*
D03*
X166732D02*
D03*
X53740Y326772D02*
D03*
X63740D02*
D03*
X73740D02*
D03*
X83740D02*
D03*
X93740D02*
D03*
X103740D02*
D03*
X47835Y29528D02*
D03*
X57835D02*
D03*
X67835D02*
D03*
X77835D02*
D03*
X87835D02*
D03*
X97835D02*
D03*
X523622Y143110D02*
D03*
Y133110D02*
D03*
Y123110D02*
D03*
Y113110D02*
D03*
Y103110D02*
D03*
Y93110D02*
D03*
X511811Y249410D02*
D03*
Y239409D02*
D03*
Y229410D02*
D03*
Y219409D02*
D03*
Y209409D02*
D03*
Y199409D02*
D03*
X523622Y249410D02*
D03*
Y239409D02*
D03*
Y229410D02*
D03*
Y219409D02*
D03*
Y209409D02*
D03*
Y199409D02*
D03*
X116732Y326772D02*
D03*
X126732D02*
D03*
X136732D02*
D03*
X146732D02*
D03*
X156732D02*
D03*
X166732D02*
D03*
X511811Y143110D02*
D03*
Y133110D02*
D03*
Y123110D02*
D03*
Y113110D02*
D03*
Y103110D02*
D03*
Y93110D02*
D03*
D112*
X437474Y316979D02*
D03*
X440004Y318590D02*
D03*
X461410Y330587D02*
D03*
X422457Y302312D02*
D03*
X404622Y290293D02*
D03*
X402904Y292752D02*
D03*
X426699Y306555D02*
D03*
X442727Y319848D02*
D03*
X419567Y312363D02*
D03*
X432613Y324738D02*
D03*
X407335Y289012D02*
D03*
X435182Y315043D02*
D03*
X458412Y330500D02*
D03*
X425931Y318727D02*
D03*
X415324Y308120D02*
D03*
X446453Y330138D02*
D03*
X430247Y322893D02*
D03*
X423810Y316606D02*
D03*
X424578Y304433D02*
D03*
X443500Y329610D02*
D03*
X413203Y305999D02*
D03*
X463279Y319820D02*
D03*
X428052Y320848D02*
D03*
X433063Y312918D02*
D03*
X449429Y330521D02*
D03*
X435144Y326348D02*
D03*
X421688Y314484D02*
D03*
X440609Y328808D02*
D03*
X417446Y310242D02*
D03*
X430942Y310797D02*
D03*
X420335Y300191D02*
D03*
X466274Y319634D02*
D03*
X454559Y320854D02*
D03*
X452423Y330700D02*
D03*
X428821Y308676D02*
D03*
X457559Y320912D02*
D03*
X437818Y327709D02*
D03*
X455423Y330758D02*
D03*
X445598Y320721D02*
D03*
X464111Y331894D02*
D03*
X454572Y299059D02*
D03*
X451578Y298868D02*
D03*
X448582Y298716D02*
D03*
X445601Y298379D02*
D03*
X442655Y297811D02*
D03*
X439782Y296946D02*
D03*
X437022Y295770D02*
D03*
X434385Y294340D02*
D03*
X431923Y292626D02*
D03*
X429649Y290669D02*
D03*
X418585Y277639D02*
D03*
X419920Y274952D02*
D03*
X422444Y273331D02*
D03*
X435653Y283776D02*
D03*
X437957Y285699D02*
D03*
X440506Y287280D02*
D03*
X443259Y288472D02*
D03*
X446169Y289203D02*
D03*
X452156Y289250D02*
D03*
X455156Y289192D02*
D03*
X458697Y285863D02*
D03*
X459661Y283022D02*
D03*
X460989Y280331D02*
D03*
X462779Y277924D02*
D03*
X464930Y275833D02*
D03*
X466743Y273443D02*
D03*
X469111Y271602D02*
D03*
X472105Y271405D02*
D03*
X472570Y283713D02*
D03*
X470336Y285715D02*
D03*
X463894Y298795D02*
D03*
X460894Y298785D02*
D03*
X457899Y298958D02*
D03*
D113*
X168824Y140923D02*
D03*
Y145073D02*
D03*
X430169Y62201D02*
D03*
Y58264D02*
D03*
X137795Y302165D02*
D03*
X124016Y186024D02*
D03*
X112205D02*
D03*
Y189961D02*
D03*
Y193898D02*
D03*
X116142D02*
D03*
Y189961D02*
D03*
Y186024D02*
D03*
X120079D02*
D03*
Y189961D02*
D03*
Y193898D02*
D03*
X124016D02*
D03*
Y189961D02*
D03*
X156496Y188976D02*
D03*
Y194882D02*
D03*
X160433Y183071D02*
D03*
Y188976D02*
D03*
Y194882D02*
D03*
X168307D02*
D03*
X164370D02*
D03*
X168307Y183071D02*
D03*
X172244Y188976D02*
D03*
Y183071D02*
D03*
X168307Y188976D02*
D03*
X164370D02*
D03*
Y183071D02*
D03*
X172244Y194882D02*
D03*
X147638Y302165D02*
D03*
X204724Y323819D02*
D03*
Y319882D02*
D03*
Y315945D02*
D03*
X201772Y203740D02*
D03*
Y207677D02*
D03*
Y211614D02*
D03*
Y215551D02*
D03*
Y219488D02*
D03*
X197835Y203740D02*
D03*
Y207677D02*
D03*
Y211614D02*
D03*
Y215551D02*
D03*
Y219488D02*
D03*
X193898Y203740D02*
D03*
Y207677D02*
D03*
Y211614D02*
D03*
Y215551D02*
D03*
Y219488D02*
D03*
X189961Y203740D02*
D03*
Y207677D02*
D03*
Y211614D02*
D03*
Y215551D02*
D03*
Y219488D02*
D03*
X426388Y58264D02*
D03*
X422451Y58265D02*
D03*
X418514D02*
D03*
X426388Y62201D02*
D03*
X422451Y62202D02*
D03*
X418514D02*
D03*
X216535Y319882D02*
D03*
X210630Y323819D02*
D03*
X216535D02*
D03*
X210630Y319882D02*
D03*
Y315945D02*
D03*
X216535D02*
D03*
X285121Y307821D02*
D03*
D114*
X407985Y62474D02*
D03*
X215551Y185039D02*
D03*
X259748Y60064D02*
D03*
X268606D02*
D03*
X267717Y81693D02*
D03*
X254921D02*
D03*
X350471Y202998D02*
D03*
X341768Y103100D02*
D03*
X165354Y151575D02*
D03*
X151600Y64314D02*
D03*
X283465Y43307D02*
D03*
X258858Y42323D02*
D03*
X104331Y155512D02*
D03*
X165281Y157644D02*
D03*
X75787Y167323D02*
D03*
Y163386D02*
D03*
X184017Y63103D02*
D03*
X175197Y33465D02*
D03*
X201772D02*
D03*
X151575Y95472D02*
D03*
X146653Y41339D02*
D03*
X162402Y87598D02*
D03*
X372592Y180412D02*
D03*
X416339Y125000D02*
D03*
X434055Y103347D02*
D03*
X411417Y125000D02*
D03*
X430118Y100394D02*
D03*
X344684Y155774D02*
D03*
X349651Y160741D02*
D03*
X354331Y165354D02*
D03*
X345472Y113517D02*
D03*
X354056Y115107D02*
D03*
X71868Y196440D02*
D03*
X73948Y193313D02*
D03*
X230315Y222441D02*
D03*
X237205D02*
D03*
X304134Y105315D02*
D03*
X274606Y98425D02*
D03*
Y225394D02*
D03*
X291339Y261811D02*
D03*
X342706Y178948D02*
D03*
X300435Y192523D02*
D03*
X303388Y195476D02*
D03*
X306341Y198428D02*
D03*
X309294Y201381D02*
D03*
X303388Y189570D02*
D03*
X306341Y192523D02*
D03*
X309294Y195476D02*
D03*
X312246Y198428D02*
D03*
X327795Y173273D02*
D03*
X288386Y175197D02*
D03*
X292323Y52165D02*
D03*
X236221Y258858D02*
D03*
X372047Y124016D02*
D03*
X366535Y132283D02*
D03*
X233460Y197019D02*
D03*
X229704Y197054D02*
D03*
X304724Y168504D02*
D03*
X230315Y189961D02*
D03*
X225394D02*
D03*
X220472D02*
D03*
X215551D02*
D03*
X220472Y185039D02*
D03*
X490158Y290354D02*
D03*
X253937Y157480D02*
D03*
X400591Y142717D02*
D03*
X368026Y176704D02*
D03*
X356299Y185994D02*
D03*
X314173Y174803D02*
D03*
X293687Y172311D02*
D03*
X291929Y126969D02*
D03*
Y89173D02*
D03*
X291142Y113189D02*
D03*
X267126Y120276D02*
D03*
X254921Y119488D02*
D03*
X308846Y88879D02*
D03*
X248104Y112723D02*
D03*
X450873Y267443D02*
D03*
X462069Y256199D02*
D03*
X473425Y152559D02*
D03*
Y157480D02*
D03*
Y162402D02*
D03*
X467520D02*
D03*
Y157480D02*
D03*
Y152559D02*
D03*
X382874Y300197D02*
D03*
X500984Y198819D02*
D03*
Y202756D02*
D03*
Y206693D02*
D03*
Y210630D02*
D03*
X480315Y70866D02*
D03*
Y65945D02*
D03*
X474409D02*
D03*
X468504D02*
D03*
Y70866D02*
D03*
X480315Y75787D02*
D03*
X474409D02*
D03*
X468504D02*
D03*
X474409Y70866D02*
D03*
X304134Y132874D02*
D03*
X296260Y135827D02*
D03*
X334936Y166585D02*
D03*
X319882Y132874D02*
D03*
X331693Y275590D02*
D03*
X327756Y271654D02*
D03*
X458998Y260037D02*
D03*
X465254Y252876D02*
D03*
X404528Y165354D02*
D03*
X409449Y170276D02*
D03*
X468955Y249210D02*
D03*
X454724Y263779D02*
D03*
X322835Y164370D02*
D03*
X458661Y151575D02*
D03*
X335510Y134179D02*
D03*
X424213Y177165D02*
D03*
X411118Y149892D02*
D03*
X448819Y151575D02*
D03*
X435039D02*
D03*
X421260D02*
D03*
X346457Y175197D02*
D03*
X350394Y171260D02*
D03*
X319882Y117126D02*
D03*
X310039Y150591D02*
D03*
X313976Y154528D02*
D03*
X356151Y197115D02*
D03*
X367155Y186053D02*
D03*
X333661Y219488D02*
D03*
X344753Y208250D02*
D03*
X361443Y191955D02*
D03*
X448636Y142717D02*
D03*
X468856D02*
D03*
X421260D02*
D03*
X435039D02*
D03*
X346858Y134443D02*
D03*
M02*
