G04*
G04 #@! TF.GenerationSoftware,Altium Limited,Altium Designer,24.5.2 (23)*
G04*
G04 Layer_Color=16711935*
%FSLAX44Y44*%
%MOMM*%
G71*
G04*
G04 #@! TF.SameCoordinates,164FEA2C-ADE8-48CB-B743-27DEF7324C7D*
G04*
G04*
G04 #@! TF.FilePolarity,Positive*
G04*
G01*
G75*
%ADD13C,0.1000*%
D13*
X-30Y690000D02*
G03*
X89970Y782470I-1235J91235D01*
G01*
X15000Y414000D02*
G03*
X15000Y456000I0J21000D01*
G01*
X1355000D02*
G03*
X1355000Y414000I0J-21000D01*
G01*
X89970Y87530D02*
G03*
X-30Y180000I-91235J1235D01*
G01*
X100000Y870000D02*
G03*
X90000Y860000I0J-10000D01*
G01*
X1370030Y180000D02*
G03*
X1280030Y87530I1235J-91235D01*
G01*
X90000Y10000D02*
G03*
X100000Y0I10000J0D01*
G01*
X1280000Y860000D02*
G03*
X1270000Y870000I-10000J0D01*
G01*
Y0D02*
G03*
X1280000Y10000I0J10000D01*
G01*
X1280034Y782466D02*
G03*
X1370026Y690004I91227J-1235D01*
G01*
X-30Y456030D02*
Y690000D01*
X1280030Y10030D02*
Y87530D01*
X0Y180030D02*
Y414000D01*
X1355000Y414000D02*
X1370000D01*
X100000Y0D02*
X1270000D01*
X89970Y10030D02*
Y87530D01*
X1370026Y690004D02*
X1370030Y690000D01*
X1355000Y456000D02*
X1370000D01*
X1280030Y859970D02*
X1280034Y782466D01*
X1370000Y456000D02*
Y689978D01*
X0Y414000D02*
X15000D01*
X100000Y870000D02*
X1270000D01*
X1370000Y180030D02*
Y414000D01*
X0Y456000D02*
X15000D01*
X89970Y782470D02*
Y859970D01*
M02*
