G04*
G04 #@! TF.GenerationSoftware,Altium Limited,Altium Designer,24.5.2 (23)*
G04*
G04 Layer_Color=16711935*
%FSLAX44Y44*%
%MOMM*%
G71*
G04*
G04 #@! TF.SameCoordinates,164FEA2C-ADE8-48CB-B743-27DEF7324C7D*
G04*
G04*
G04 #@! TF.FilePolarity,Negative*
G04*
G01*
G75*
%ADD57R,1.1432X1.2232*%
%ADD59R,1.2232X1.1432*%
%ADD60R,1.4032X1.5032*%
%ADD64C,1.2032*%
%ADD66R,1.7032X1.7032*%
G04:AMPARAMS|DCode=67|XSize=1.5032mm|YSize=1.4032mm|CornerRadius=0mm|HoleSize=0mm|Usage=FLASHONLY|Rotation=45.000|XOffset=0mm|YOffset=0mm|HoleType=Round|Shape=Rectangle|*
%AMROTATEDRECTD67*
4,1,4,-0.0354,-1.0276,-1.0276,-0.0354,0.0354,1.0276,1.0276,0.0354,-0.0354,-1.0276,0.0*
%
%ADD67ROTATEDRECTD67*%

%ADD69R,1.5032X1.4032*%
%ADD86C,1.4232*%
%ADD87R,1.4232X1.4232*%
%ADD88C,1.7032*%
%ADD89C,0.7732*%
%ADD90O,1.6032X1.3532*%
%ADD91C,1.5732*%
%ADD92R,1.5732X1.5732*%
%ADD93R,1.4232X1.4232*%
%ADD94R,1.5732X1.5732*%
%ADD95R,1.8532X1.8532*%
%ADD96C,1.8532*%
%ADD97O,1.3532X1.6032*%
%ADD98C,0.9032*%
G04:AMPARAMS|DCode=137|XSize=1.6032mm|YSize=1.4032mm|CornerRadius=0mm|HoleSize=0mm|Usage=FLASHONLY|Rotation=225.000|XOffset=0mm|YOffset=0mm|HoleType=Round|Shape=Rectangle|*
%AMROTATEDRECTD137*
4,1,4,0.0707,1.0629,1.0629,0.0707,-0.0707,-1.0629,-1.0629,-0.0707,0.0707,1.0629,0.0*
%
%ADD137ROTATEDRECTD137*%

%ADD138R,1.4032X2.4032*%
%ADD139R,3.7032X2.4032*%
%ADD140R,2.4032X1.4032*%
%ADD141R,2.4032X3.7032*%
G04:AMPARAMS|DCode=142|XSize=0.5032mm|YSize=1.4032mm|CornerRadius=0mm|HoleSize=0mm|Usage=FLASHONLY|Rotation=135.000|XOffset=0mm|YOffset=0mm|HoleType=Round|Shape=Rectangle|*
%AMROTATEDRECTD142*
4,1,4,0.6740,0.3182,-0.3182,-0.6740,-0.6740,-0.3182,0.3182,0.6740,0.6740,0.3182,0.0*
%
%ADD142ROTATEDRECTD142*%

G04:AMPARAMS|DCode=143|XSize=0.5032mm|YSize=1.4032mm|CornerRadius=0mm|HoleSize=0mm|Usage=FLASHONLY|Rotation=45.000|XOffset=0mm|YOffset=0mm|HoleType=Round|Shape=Rectangle|*
%AMROTATEDRECTD143*
4,1,4,0.3182,-0.6740,-0.6740,0.3182,-0.3182,0.6740,0.6740,-0.3182,0.3182,-0.6740,0.0*
%
%ADD143ROTATEDRECTD143*%

G04:AMPARAMS|DCode=144|XSize=1.1432mm|YSize=1.2232mm|CornerRadius=0mm|HoleSize=0mm|Usage=FLASHONLY|Rotation=135.000|XOffset=0mm|YOffset=0mm|HoleType=Round|Shape=Rectangle|*
%AMROTATEDRECTD144*
4,1,4,0.8367,0.0283,-0.0283,-0.8367,-0.8367,-0.0283,0.0283,0.8367,0.8367,0.0283,0.0*
%
%ADD144ROTATEDRECTD144*%

G04:AMPARAMS|DCode=145|XSize=1.5032mm|YSize=1.4032mm|CornerRadius=0mm|HoleSize=0mm|Usage=FLASHONLY|Rotation=315.000|XOffset=0mm|YOffset=0mm|HoleType=Round|Shape=Rectangle|*
%AMROTATEDRECTD145*
4,1,4,-1.0276,0.0354,-0.0354,1.0276,1.0276,-0.0354,0.0354,-1.0276,-1.0276,0.0354,0.0*
%
%ADD145ROTATEDRECTD145*%

%ADD146R,1.6032X1.2032*%
G04:AMPARAMS|DCode=147|XSize=1.6mm|YSize=0.55mm|CornerRadius=0.1mm|HoleSize=0mm|Usage=FLASHONLY|Rotation=180.000|XOffset=0mm|YOffset=0mm|HoleType=Round|Shape=RoundedRectangle|*
%AMROUNDEDRECTD147*
21,1,1.6000,0.3500,0,0,180.0*
21,1,1.4000,0.5500,0,0,180.0*
1,1,0.2000,-0.7000,0.1750*
1,1,0.2000,0.7000,0.1750*
1,1,0.2000,0.7000,-0.1750*
1,1,0.2000,-0.7000,-0.1750*
%
%ADD147ROUNDEDRECTD147*%
G36*
X223700Y462490D02*
X223900Y462480D01*
X224100Y462450D01*
X224300Y462420D01*
X224500Y462370D01*
X224690Y462310D01*
X224880Y462240D01*
X225070Y462170D01*
X225250Y462080D01*
X225430Y461980D01*
X225600Y461880D01*
X225760Y461760D01*
X225920Y461640D01*
X226080Y461510D01*
X226220Y461370D01*
X226360Y461230D01*
X226490Y461070D01*
X226610Y460910D01*
X226730Y460750D01*
X226830Y460570D01*
X226930Y460400D01*
X227020Y460220D01*
X227090Y460030D01*
X227160Y459840D01*
X227220Y459650D01*
X227270Y459450D01*
X227300Y459250D01*
X227330Y459050D01*
X227340Y458850D01*
X227350Y458650D01*
X227340Y458450D01*
X227330Y458250D01*
X227300Y458050D01*
X227270Y457850D01*
X227220Y457650D01*
X227160Y457460D01*
X227090Y457270D01*
X227020Y457080D01*
X226930Y456900D01*
X226830Y456730D01*
X226730Y456550D01*
X226610Y456390D01*
X226490Y456230D01*
X226360Y456070D01*
X226220Y455930D01*
X226080Y455790D01*
X225920Y455660D01*
X225760Y455540D01*
X225600Y455420D01*
X225430Y455320D01*
X225250Y455220D01*
X225070Y455130D01*
X224880Y455060D01*
X224690Y454990D01*
X224500Y454930D01*
X224300Y454880D01*
X224100Y454850D01*
X223900Y454820D01*
X223700Y454810D01*
X223500Y454800D01*
X221500D01*
X221300Y454810D01*
X221100Y454820D01*
X220900Y454850D01*
X220700Y454880D01*
X220500Y454930D01*
X220310Y454990D01*
X220120Y455060D01*
X219930Y455130D01*
X219750Y455220D01*
X219570Y455320D01*
X219400Y455420D01*
X219240Y455540D01*
X219080Y455660D01*
X218920Y455790D01*
X218780Y455930D01*
X218640Y456070D01*
X218510Y456230D01*
X218390Y456390D01*
X218270Y456550D01*
X218170Y456720D01*
X218070Y456900D01*
X217980Y457080D01*
X217910Y457270D01*
X217840Y457460D01*
X217780Y457650D01*
X217730Y457850D01*
X217700Y458050D01*
X217670Y458250D01*
X217660Y458450D01*
X217650Y458650D01*
X217660Y458850D01*
X217670Y459050D01*
X217700Y459250D01*
X217730Y459450D01*
X217780Y459650D01*
X217840Y459840D01*
X217910Y460030D01*
X217980Y460220D01*
X218070Y460400D01*
X218170Y460570D01*
X218270Y460750D01*
X218390Y460910D01*
X218510Y461070D01*
X218640Y461230D01*
X218780Y461370D01*
X218920Y461510D01*
X219080Y461640D01*
X219240Y461760D01*
X219400Y461880D01*
X219580Y461980D01*
X219750Y462080D01*
X219930Y462170D01*
X220120Y462240D01*
X220310Y462310D01*
X220500Y462370D01*
X220700Y462420D01*
X220900Y462450D01*
X221100Y462480D01*
X221300Y462490D01*
X221500Y462500D01*
X223500D01*
X223700Y462490D01*
D02*
G37*
G36*
X499810Y126200D02*
X499820Y126400D01*
X499850Y126600D01*
X499880Y126800D01*
X499930Y127000D01*
X499990Y127190D01*
X500060Y127380D01*
X500130Y127570D01*
X500220Y127750D01*
X500320Y127930D01*
X500420Y128100D01*
X500540Y128260D01*
X500660Y128420D01*
X500790Y128580D01*
X500930Y128720D01*
X501070Y128860D01*
X501230Y128990D01*
X501390Y129110D01*
X501550Y129230D01*
X501730Y129330D01*
X501900Y129430D01*
X502080Y129520D01*
X502270Y129590D01*
X502460Y129660D01*
X502650Y129720D01*
X502850Y129770D01*
X503050Y129800D01*
X503250Y129830D01*
X503450Y129840D01*
X503650Y129850D01*
X503850Y129840D01*
X504050Y129830D01*
X504250Y129800D01*
X504450Y129770D01*
X504650Y129720D01*
X504840Y129660D01*
X505030Y129590D01*
X505220Y129520D01*
X505400Y129430D01*
X505570Y129330D01*
X505750Y129230D01*
X505910Y129110D01*
X506070Y128990D01*
X506230Y128860D01*
X506370Y128720D01*
X506510Y128580D01*
X506640Y128420D01*
X506760Y128260D01*
X506880Y128100D01*
X506980Y127930D01*
X507080Y127750D01*
X507170Y127570D01*
X507240Y127380D01*
X507310Y127190D01*
X507370Y127000D01*
X507420Y126800D01*
X507450Y126600D01*
X507480Y126400D01*
X507490Y126200D01*
X507500Y126000D01*
Y124000D01*
X507490Y123800D01*
X507480Y123600D01*
X507450Y123400D01*
X507420Y123200D01*
X507370Y123000D01*
X507310Y122810D01*
X507240Y122620D01*
X507170Y122430D01*
X507080Y122250D01*
X506980Y122070D01*
X506880Y121900D01*
X506760Y121740D01*
X506640Y121580D01*
X506510Y121420D01*
X506370Y121280D01*
X506230Y121140D01*
X506070Y121010D01*
X505910Y120890D01*
X505750Y120770D01*
X505580Y120670D01*
X505400Y120570D01*
X505220Y120480D01*
X505030Y120410D01*
X504840Y120340D01*
X504650Y120280D01*
X504450Y120230D01*
X504250Y120200D01*
X504050Y120170D01*
X503850Y120160D01*
X503650Y120150D01*
X503450Y120160D01*
X503250Y120170D01*
X503050Y120200D01*
X502850Y120230D01*
X502650Y120280D01*
X502460Y120340D01*
X502270Y120410D01*
X502080Y120480D01*
X501900Y120570D01*
X501730Y120670D01*
X501550Y120770D01*
X501390Y120890D01*
X501230Y121010D01*
X501070Y121140D01*
X500930Y121280D01*
X500790Y121420D01*
X500660Y121580D01*
X500540Y121740D01*
X500420Y121900D01*
X500320Y122080D01*
X500220Y122250D01*
X500130Y122430D01*
X500060Y122620D01*
X499990Y122810D01*
X499930Y123000D01*
X499880Y123200D01*
X499850Y123400D01*
X499820Y123600D01*
X499810Y123800D01*
X499800Y124000D01*
Y126000D01*
X499810Y126200D01*
D02*
G37*
G36*
X631264Y524715D02*
X631464Y524705D01*
X631664Y524675D01*
X631864Y524645D01*
X632064Y524595D01*
X632254Y524535D01*
X632444Y524465D01*
X632634Y524395D01*
X632814Y524305D01*
X632994Y524205D01*
X633164Y524105D01*
X633324Y523985D01*
X633484Y523865D01*
X633644Y523735D01*
X633784Y523595D01*
X633924Y523455D01*
X634054Y523295D01*
X634174Y523135D01*
X634294Y522975D01*
X634394Y522795D01*
X634494Y522625D01*
X634584Y522445D01*
X634654Y522255D01*
X634724Y522065D01*
X634784Y521875D01*
X634834Y521675D01*
X634864Y521475D01*
X634894Y521275D01*
X634904Y521075D01*
X634914Y520875D01*
X634904Y520675D01*
X634894Y520475D01*
X634864Y520275D01*
X634834Y520075D01*
X634784Y519875D01*
X634724Y519685D01*
X634654Y519495D01*
X634584Y519305D01*
X634494Y519125D01*
X634394Y518955D01*
X634294Y518775D01*
X634174Y518615D01*
X634054Y518455D01*
X633924Y518295D01*
X633784Y518155D01*
X633644Y518015D01*
X633484Y517885D01*
X633324Y517765D01*
X633164Y517645D01*
X632994Y517545D01*
X632814Y517445D01*
X632634Y517355D01*
X632444Y517285D01*
X632254Y517215D01*
X632064Y517155D01*
X631864Y517105D01*
X631664Y517075D01*
X631464Y517045D01*
X631264Y517035D01*
X631064Y517025D01*
X629064D01*
X628864Y517035D01*
X628664Y517045D01*
X628464Y517075D01*
X628264Y517105D01*
X628064Y517155D01*
X627874Y517215D01*
X627684Y517285D01*
X627494Y517355D01*
X627314Y517445D01*
X627134Y517545D01*
X626964Y517645D01*
X626804Y517765D01*
X626644Y517885D01*
X626484Y518015D01*
X626344Y518155D01*
X626204Y518295D01*
X626074Y518455D01*
X625954Y518615D01*
X625834Y518775D01*
X625734Y518945D01*
X625634Y519125D01*
X625544Y519305D01*
X625474Y519495D01*
X625404Y519685D01*
X625344Y519875D01*
X625294Y520075D01*
X625264Y520275D01*
X625234Y520475D01*
X625224Y520675D01*
X625214Y520875D01*
X625224Y521075D01*
X625234Y521275D01*
X625264Y521475D01*
X625294Y521675D01*
X625344Y521875D01*
X625404Y522065D01*
X625474Y522255D01*
X625544Y522445D01*
X625634Y522625D01*
X625734Y522795D01*
X625834Y522975D01*
X625954Y523135D01*
X626074Y523295D01*
X626204Y523455D01*
X626344Y523595D01*
X626484Y523735D01*
X626644Y523865D01*
X626804Y523985D01*
X626964Y524105D01*
X627144Y524205D01*
X627314Y524305D01*
X627494Y524395D01*
X627684Y524465D01*
X627874Y524535D01*
X628064Y524595D01*
X628264Y524645D01*
X628464Y524675D01*
X628664Y524705D01*
X628864Y524715D01*
X629064Y524725D01*
X631064D01*
X631264Y524715D01*
D02*
G37*
D57*
X672900Y170604D02*
D03*
X657100D02*
D03*
X672900Y130667D02*
D03*
X657100D02*
D03*
D59*
X200076Y157500D02*
D03*
Y141700D02*
D03*
X134526D02*
D03*
Y157500D02*
D03*
X467500Y145400D02*
D03*
Y129600D02*
D03*
X450000Y145400D02*
D03*
Y129600D02*
D03*
X771724Y210306D02*
D03*
Y226106D02*
D03*
X772255Y322040D02*
D03*
Y306240D02*
D03*
X753307Y226106D02*
D03*
Y210306D02*
D03*
Y322040D02*
D03*
Y306240D02*
D03*
D60*
X349931Y260372D02*
D03*
X368931D02*
D03*
X349931Y278921D02*
D03*
X368931D02*
D03*
X1250500Y550000D02*
D03*
X1269500D02*
D03*
X1167996Y205131D02*
D03*
X1186996D02*
D03*
X644650Y384243D02*
D03*
X663650D02*
D03*
X644650Y287500D02*
D03*
X663650D02*
D03*
X1044150Y233934D02*
D03*
X1063150D02*
D03*
Y215750D02*
D03*
X1044150D02*
D03*
X1063150Y197150D02*
D03*
X1044150D02*
D03*
X1063150Y179435D02*
D03*
X1044150D02*
D03*
D64*
X985000Y390000D02*
D03*
X665000Y445000D02*
D03*
X830000Y500000D02*
D03*
D66*
X110000Y313500D02*
D03*
X80000D02*
D03*
X500000D02*
D03*
X470000D02*
D03*
X110000Y473500D02*
D03*
X80000D02*
D03*
X500000D02*
D03*
X470000D02*
D03*
D67*
X269217Y230783D02*
D03*
X255783Y244217D02*
D03*
D69*
X432500Y420500D02*
D03*
Y439500D02*
D03*
X312500Y420500D02*
D03*
Y439500D02*
D03*
X292500Y420500D02*
D03*
Y439500D02*
D03*
X550000Y440500D02*
D03*
Y459500D02*
D03*
X753307Y358455D02*
D03*
Y377455D02*
D03*
Y268820D02*
D03*
Y287820D02*
D03*
D86*
X248500Y75000D02*
D03*
X223100D02*
D03*
X197700D02*
D03*
X172300D02*
D03*
X146900D02*
D03*
X321900Y830000D02*
D03*
X347300D02*
D03*
X372700D02*
D03*
X398100D02*
D03*
X423500D02*
D03*
X161900Y830000D02*
D03*
X187300D02*
D03*
X212700D02*
D03*
X238100D02*
D03*
X263500D02*
D03*
X321900Y800000D02*
D03*
X347300D02*
D03*
X372700D02*
D03*
X398100D02*
D03*
X423500D02*
D03*
X161900D02*
D03*
X187300D02*
D03*
X212700D02*
D03*
X238100D02*
D03*
X263500D02*
D03*
X1300000Y338100D02*
D03*
Y312700D02*
D03*
Y287300D02*
D03*
Y261900D02*
D03*
Y236500D02*
D03*
X1330000Y608100D02*
D03*
Y582700D02*
D03*
Y557300D02*
D03*
Y531900D02*
D03*
Y506500D02*
D03*
X1300000Y608100D02*
D03*
Y582700D02*
D03*
Y557300D02*
D03*
Y531900D02*
D03*
Y506500D02*
D03*
X1330000Y338100D02*
D03*
Y312700D02*
D03*
Y287300D02*
D03*
Y261900D02*
D03*
Y236500D02*
D03*
D87*
X121500Y75000D02*
D03*
X296500Y830000D02*
D03*
X136500Y830000D02*
D03*
X296500Y800000D02*
D03*
X136500D02*
D03*
D88*
X110000Y288100D02*
D03*
Y262700D02*
D03*
Y237300D02*
D03*
Y211900D02*
D03*
Y186500D02*
D03*
X80000Y288100D02*
D03*
Y262700D02*
D03*
Y237300D02*
D03*
Y211900D02*
D03*
Y186500D02*
D03*
X500000Y288100D02*
D03*
Y262700D02*
D03*
Y237300D02*
D03*
Y211900D02*
D03*
Y186500D02*
D03*
X470000Y288100D02*
D03*
Y262700D02*
D03*
Y237300D02*
D03*
Y211900D02*
D03*
Y186500D02*
D03*
X110000Y448100D02*
D03*
Y422700D02*
D03*
Y397300D02*
D03*
Y371900D02*
D03*
Y346500D02*
D03*
X80000Y448100D02*
D03*
Y422700D02*
D03*
Y397300D02*
D03*
Y371900D02*
D03*
Y346500D02*
D03*
X500000Y448100D02*
D03*
Y422700D02*
D03*
Y397300D02*
D03*
Y371900D02*
D03*
Y346500D02*
D03*
X470000Y448100D02*
D03*
Y422700D02*
D03*
Y397300D02*
D03*
Y371900D02*
D03*
Y346500D02*
D03*
X240000Y530000D02*
D03*
Y580000D02*
D03*
X380000Y685000D02*
D03*
Y635000D02*
D03*
D89*
X555064Y520875D02*
D03*
X147500Y458650D02*
D03*
X503650Y50000D02*
D03*
D90*
X568564Y542375D02*
D03*
X616564D02*
D03*
X568564Y499375D02*
D03*
X616564D02*
D03*
X161000Y480150D02*
D03*
X209000D02*
D03*
X161000Y437150D02*
D03*
X209000D02*
D03*
D91*
X417500Y744800D02*
D03*
X535000Y749800D02*
D03*
X462700Y537500D02*
D03*
X655200Y582500D02*
D03*
D92*
X417500Y770200D02*
D03*
X535000Y775200D02*
D03*
D93*
X1300000Y363500D02*
D03*
X1330000Y633500D02*
D03*
X1300000D02*
D03*
X1330000Y363500D02*
D03*
D94*
X437300Y537500D02*
D03*
X629800Y582500D02*
D03*
D95*
X577500Y394300D02*
D03*
D96*
X602900D02*
D03*
X577500Y368900D02*
D03*
X602900D02*
D03*
X577500Y343500D02*
D03*
X602900D02*
D03*
X577500Y318100D02*
D03*
X602900D02*
D03*
X577500Y292700D02*
D03*
X602900D02*
D03*
X577500Y267300D02*
D03*
X602900D02*
D03*
X577500Y241900D02*
D03*
X602900D02*
D03*
X577500Y216500D02*
D03*
X602900D02*
D03*
X577500Y191100D02*
D03*
X602900D02*
D03*
X577500Y165700D02*
D03*
X602900D02*
D03*
D97*
X525150Y111500D02*
D03*
Y63500D02*
D03*
X482150Y111500D02*
D03*
Y63500D02*
D03*
D98*
X325000Y262500D02*
D03*
X424246Y211746D02*
D03*
X417500Y205000D02*
D03*
D137*
X326289Y287411D02*
D03*
X310732Y271854D02*
D03*
X298711Y283875D02*
D03*
X314268Y299432D02*
D03*
D138*
X337000Y486000D02*
D03*
X360000D02*
D03*
X383000D02*
D03*
D139*
X360000Y424000D02*
D03*
D140*
X1271000Y620500D02*
D03*
Y597500D02*
D03*
Y574500D02*
D03*
X579000Y422000D02*
D03*
Y445000D02*
D03*
Y468000D02*
D03*
X1196000Y275500D02*
D03*
Y252500D02*
D03*
Y229500D02*
D03*
D141*
X1209000Y597500D02*
D03*
X641000Y445000D02*
D03*
X1134000Y252500D02*
D03*
D142*
X277175Y341642D02*
D03*
X273640Y345178D02*
D03*
X270104Y348713D02*
D03*
X266569Y352249D02*
D03*
X263033Y355784D02*
D03*
X259498Y359320D02*
D03*
X255962Y362855D02*
D03*
X252426Y366391D02*
D03*
X248891Y369926D02*
D03*
X245355Y373462D02*
D03*
X241820Y376997D02*
D03*
X238284Y380533D02*
D03*
X234749Y384068D02*
D03*
X231213Y387604D02*
D03*
X227678Y391140D02*
D03*
X224142Y394675D02*
D03*
X142825Y313358D02*
D03*
X146360Y309822D02*
D03*
X149896Y306287D02*
D03*
X153432Y302751D02*
D03*
X156967Y299216D02*
D03*
X160502Y295680D02*
D03*
X164038Y292145D02*
D03*
X167574Y288609D02*
D03*
X171109Y285074D02*
D03*
X174645Y281538D02*
D03*
X178180Y278002D02*
D03*
X181716Y274467D02*
D03*
X185251Y270931D02*
D03*
X188787Y267396D02*
D03*
X192322Y263860D02*
D03*
X195858Y260325D02*
D03*
D143*
Y394675D02*
D03*
X192322Y391140D02*
D03*
X188787Y387604D02*
D03*
X185251Y384068D02*
D03*
X181716Y380533D02*
D03*
X178180Y376997D02*
D03*
X174645Y373462D02*
D03*
X171109Y369926D02*
D03*
X167574Y366391D02*
D03*
X164038Y362855D02*
D03*
X160502Y359320D02*
D03*
X156967Y355784D02*
D03*
X153432Y352249D02*
D03*
X149896Y348713D02*
D03*
X146360Y345178D02*
D03*
X142825Y341642D02*
D03*
X224142Y260325D02*
D03*
X227678Y263860D02*
D03*
X231213Y267396D02*
D03*
X234749Y270931D02*
D03*
X238284Y274467D02*
D03*
X241820Y278002D02*
D03*
X245355Y281538D02*
D03*
X248891Y285074D02*
D03*
X252426Y288609D02*
D03*
X255962Y292145D02*
D03*
X259498Y295680D02*
D03*
X263033Y299216D02*
D03*
X266569Y302751D02*
D03*
X270104Y306287D02*
D03*
X273640Y309822D02*
D03*
X277175Y313358D02*
D03*
D144*
X254867Y220602D02*
D03*
X243695Y231774D02*
D03*
X269026Y256465D02*
D03*
X280198Y245293D02*
D03*
D145*
X321718Y354797D02*
D03*
X308283Y341362D02*
D03*
X135782Y245783D02*
D03*
X149218Y259217D02*
D03*
X346373Y329596D02*
D03*
X332938Y316161D02*
D03*
X148282Y233283D02*
D03*
X161717Y246717D02*
D03*
X334160Y342365D02*
D03*
X320725Y328929D02*
D03*
D146*
X703000Y130760D02*
D03*
Y149760D02*
D03*
X725000Y140260D02*
D03*
X703000Y170500D02*
D03*
Y189500D02*
D03*
X725000Y180000D02*
D03*
D147*
X663500Y269250D02*
D03*
Y262750D02*
D03*
Y256250D02*
D03*
Y249750D02*
D03*
Y243250D02*
D03*
Y236750D02*
D03*
Y230250D02*
D03*
Y223750D02*
D03*
Y217250D02*
D03*
Y210750D02*
D03*
X721500D02*
D03*
Y217250D02*
D03*
Y223750D02*
D03*
Y230250D02*
D03*
Y236750D02*
D03*
Y243250D02*
D03*
Y249750D02*
D03*
Y256250D02*
D03*
Y262750D02*
D03*
Y269250D02*
D03*
Y364250D02*
D03*
Y357750D02*
D03*
Y351250D02*
D03*
Y344750D02*
D03*
Y338250D02*
D03*
Y331750D02*
D03*
Y325250D02*
D03*
Y318750D02*
D03*
Y312250D02*
D03*
Y305750D02*
D03*
X663500D02*
D03*
Y312250D02*
D03*
Y318750D02*
D03*
Y325250D02*
D03*
Y331750D02*
D03*
Y338250D02*
D03*
Y344750D02*
D03*
Y351250D02*
D03*
Y357750D02*
D03*
Y364250D02*
D03*
M02*
