G04*
G04 #@! TF.GenerationSoftware,Altium Limited,Altium Designer,24.5.2 (23)*
G04*
G04 Layer_Physical_Order=2*
G04 Layer_Color=6736896*
%FSLAX25Y25*%
%MOIN*%
G70*
G04*
G04 #@! TF.SameCoordinates,91EA9AA5-0895-4C73-9A31-942236B58547*
G04*
G04*
G04 #@! TF.FilePolarity,Positive*
G04*
G01*
G75*
%ADD34R,0.05906X0.05906*%
%ADD103C,0.05906*%
%ADD104R,0.05906X0.05906*%
%ADD105C,0.02244*%
%ADD106C,0.05512*%
%ADD107R,0.06496X0.06496*%
%ADD108C,0.06496*%
%ADD110C,0.04803*%
%ADD112C,0.02000*%
%ADD113C,0.03150*%
%ADD114C,0.02756*%
G36*
X39370Y340312D02*
X499315D01*
X499300D01*
X499315Y340312D01*
X500000Y340312D01*
X500657Y340207D01*
X500672Y340204D01*
X501241Y339824D01*
X501622Y339254D01*
X501625Y339239D01*
X501729Y338583D01*
X501741Y338523D01*
X501741Y337883D01*
X501743Y308057D01*
X501756Y307988D01*
X501736Y307571D01*
X501920Y303834D01*
X502469Y300132D01*
X503378Y296502D01*
X504638Y292979D01*
X506238Y289597D01*
X508162Y286387D01*
X510391Y283381D01*
X512904Y280609D01*
X515677Y278096D01*
X518682Y275867D01*
X521892Y273943D01*
X525275Y272343D01*
X528798Y271082D01*
X532428Y270173D01*
X536129Y269624D01*
X537162Y269573D01*
Y181735D01*
X533465D01*
X533465Y181735D01*
Y181735D01*
X533380Y181719D01*
X531827Y181596D01*
X530231Y181213D01*
X528713Y180585D01*
X527313Y179727D01*
X526064Y178660D01*
X524998Y177411D01*
X524140Y176011D01*
X523511Y174494D01*
X523128Y172897D01*
X522999Y171260D01*
X523128Y169623D01*
X523511Y168026D01*
X524140Y166509D01*
X524998Y165109D01*
X526064Y163860D01*
X527313Y162793D01*
X528713Y161935D01*
X530231Y161307D01*
X531827Y160923D01*
X533380Y160801D01*
X533465Y160784D01*
X537162D01*
Y72948D01*
X536130Y72897D01*
X532429Y72348D01*
X528798Y71439D01*
X525275Y70178D01*
X521892Y68578D01*
X518682Y66654D01*
X515676Y64425D01*
X512903Y61912D01*
X510390Y59139D01*
X508161Y56133D01*
X506237Y52923D01*
X504637Y49540D01*
X503376Y46016D01*
X502467Y42386D01*
X501918Y38685D01*
X501734Y34947D01*
X501755Y34530D01*
X501741Y34461D01*
Y3996D01*
X501729Y3937D01*
X501729D01*
X501625Y3280D01*
X501622Y3265D01*
X501241Y2696D01*
X500672Y2315D01*
X500066Y2195D01*
X500000Y2208D01*
X39370D01*
X39304Y2195D01*
X38698Y2315D01*
X38129Y2696D01*
X37748Y3265D01*
X37745Y3280D01*
X37641Y3937D01*
X37641D01*
X37629Y3996D01*
Y34461D01*
X37615Y34530D01*
X37636Y34947D01*
X37452Y38685D01*
X36903Y42386D01*
X35994Y46016D01*
X34733Y49540D01*
X33133Y52923D01*
X31209Y56133D01*
X28980Y59139D01*
X26467Y61912D01*
X23694Y64425D01*
X20688Y66654D01*
X17478Y68578D01*
X14095Y70178D01*
X10572Y71439D01*
X6942Y72348D01*
X3240Y72897D01*
X2208Y72948D01*
Y160784D01*
X5906D01*
X5906Y160784D01*
Y160784D01*
X5990Y160801D01*
X7543Y160923D01*
X9139Y161307D01*
X10657Y161935D01*
X12057Y162793D01*
X13306Y163860D01*
X14372Y165109D01*
X15230Y166509D01*
X15859Y168026D01*
X16242Y169623D01*
X16371Y171260D01*
X16242Y172897D01*
X15859Y174494D01*
X15230Y176011D01*
X14372Y177411D01*
X13306Y178660D01*
X12057Y179727D01*
X10657Y180585D01*
X9139Y181213D01*
X7543Y181596D01*
X5990Y181719D01*
X5906Y181735D01*
X2196D01*
Y269571D01*
X3240Y269623D01*
X6942Y270172D01*
X10572Y271081D01*
X14095Y272342D01*
X17478Y273942D01*
X20688Y275866D01*
X23694Y278095D01*
X26467Y280608D01*
X28980Y283381D01*
X31209Y286387D01*
X33133Y289597D01*
X34733Y292980D01*
X35994Y296503D01*
X36903Y300133D01*
X37452Y303835D01*
X37636Y307573D01*
X37615Y307990D01*
X37629Y308059D01*
Y338523D01*
X37641Y338583D01*
X37641D01*
X37745Y339239D01*
X37748Y339254D01*
X38129Y339824D01*
X38698Y340205D01*
X39304Y340325D01*
X39370Y340312D01*
D02*
G37*
%LPC*%
G36*
X104365Y333110D02*
X103116D01*
X101891Y332867D01*
X100738Y332389D01*
X99699Y331695D01*
X99222Y331217D01*
X98740Y330868D01*
X98259Y331217D01*
X97781Y331695D01*
X96743Y332389D01*
X95589Y332867D01*
X94365Y333110D01*
X93116D01*
X91891Y332867D01*
X90738Y332389D01*
X89700Y331695D01*
X89222Y331217D01*
X88740Y330868D01*
X88259Y331217D01*
X87781Y331695D01*
X86743Y332389D01*
X85589Y332867D01*
X84364Y333110D01*
X83116D01*
X81891Y332867D01*
X80738Y332389D01*
X79699Y331695D01*
X79222Y331217D01*
X78740Y330868D01*
X78259Y331217D01*
X77781Y331695D01*
X76743Y332389D01*
X75589Y332867D01*
X74365Y333110D01*
X73116D01*
X71891Y332867D01*
X70738Y332389D01*
X69700Y331695D01*
X69222Y331217D01*
X68740Y330868D01*
X68259Y331217D01*
X67781Y331695D01*
X66743Y332389D01*
X65589Y332867D01*
X64364Y333110D01*
X63116D01*
X61891Y332867D01*
X60738Y332389D01*
X59699Y331695D01*
X59222Y331217D01*
X58740Y330868D01*
X58259Y331217D01*
X57781Y331695D01*
X56743Y332389D01*
X55589Y332867D01*
X54365Y333110D01*
X53116D01*
X51891Y332867D01*
X50738Y332389D01*
X49700Y331695D01*
X48817Y330812D01*
X48123Y329774D01*
X47645Y328621D01*
X47402Y327396D01*
Y326147D01*
X47645Y324923D01*
X48123Y323769D01*
X48817Y322731D01*
X49700Y321848D01*
X50570Y321266D01*
X50642Y320971D01*
Y320762D01*
X50570Y320466D01*
X49700Y319884D01*
X48817Y319001D01*
X48123Y317963D01*
X47645Y316810D01*
X47402Y315585D01*
Y314336D01*
X47645Y313112D01*
X48123Y311958D01*
X48817Y310920D01*
X49700Y310037D01*
X50738Y309344D01*
X51891Y308866D01*
X53116Y308622D01*
X54365D01*
X55589Y308866D01*
X56743Y309344D01*
X57781Y310037D01*
X58259Y310515D01*
X58740Y310864D01*
X59222Y310515D01*
X59699Y310037D01*
X60738Y309344D01*
X61891Y308866D01*
X63116Y308622D01*
X64364D01*
X65589Y308866D01*
X66743Y309344D01*
X67781Y310037D01*
X68259Y310515D01*
X68740Y310864D01*
X69222Y310515D01*
X69700Y310037D01*
X70738Y309344D01*
X71891Y308866D01*
X73116Y308622D01*
X74365D01*
X75589Y308866D01*
X76743Y309344D01*
X77781Y310037D01*
X78259Y310515D01*
X78740Y310864D01*
X79222Y310515D01*
X79699Y310037D01*
X80738Y309344D01*
X81891Y308866D01*
X83116Y308622D01*
X84364D01*
X85589Y308866D01*
X86743Y309344D01*
X87781Y310037D01*
X88259Y310515D01*
X88740Y310864D01*
X89222Y310515D01*
X89700Y310037D01*
X90738Y309344D01*
X91891Y308866D01*
X93116Y308622D01*
X94365D01*
X95589Y308866D01*
X96743Y309344D01*
X97781Y310037D01*
X98259Y310515D01*
X98740Y310864D01*
X99222Y310515D01*
X99699Y310037D01*
X100738Y309344D01*
X101891Y308866D01*
X103116Y308622D01*
X104365D01*
X105589Y308866D01*
X106743Y309344D01*
X107781Y310037D01*
X108664Y310920D01*
X109357Y311958D01*
X109835Y313112D01*
X109879Y313334D01*
X110593D01*
X110637Y313112D01*
X111115Y311958D01*
X111809Y310920D01*
X112692Y310037D01*
X113730Y309344D01*
X114883Y308866D01*
X116108Y308622D01*
X117357D01*
X118581Y308866D01*
X119735Y309344D01*
X120773Y310037D01*
X121251Y310515D01*
X121732Y310864D01*
X122214Y310515D01*
X122692Y310037D01*
X123730Y309344D01*
X124883Y308866D01*
X126108Y308622D01*
X127357D01*
X128581Y308866D01*
X129735Y309344D01*
X130773Y310037D01*
X131251Y310515D01*
X131732Y310864D01*
X132214Y310515D01*
X132692Y310037D01*
X133730Y309344D01*
X134883Y308866D01*
X136108Y308622D01*
X137357D01*
X138581Y308866D01*
X139735Y309344D01*
X140773Y310037D01*
X141251Y310515D01*
X141732Y310864D01*
X142214Y310515D01*
X142692Y310037D01*
X143730Y309344D01*
X144883Y308866D01*
X146108Y308622D01*
X147357D01*
X148581Y308866D01*
X149735Y309344D01*
X150773Y310037D01*
X151251Y310515D01*
X151732Y310864D01*
X152214Y310515D01*
X152692Y310037D01*
X153730Y309344D01*
X154883Y308866D01*
X156108Y308622D01*
X157357D01*
X157480Y308521D01*
Y296339D01*
X157571D01*
X157960Y295757D01*
X157745Y295238D01*
X157480Y293907D01*
Y292550D01*
X157745Y291219D01*
X158265Y289965D01*
X159019Y288836D01*
X159978Y287877D01*
X161107Y287123D01*
X162360Y286603D01*
X163691Y286339D01*
X165049D01*
X166380Y286603D01*
X167634Y287123D01*
X168762Y287877D01*
X169722Y288836D01*
X170476Y289965D01*
X170995Y291219D01*
X171260Y292550D01*
Y293907D01*
X170995Y295238D01*
X170780Y295757D01*
X171169Y296339D01*
X171260D01*
Y310118D01*
X171260D01*
X171141Y310405D01*
X171656Y310920D01*
X172350Y311958D01*
X172827Y313112D01*
X173071Y314336D01*
Y315585D01*
X172827Y316810D01*
X172350Y317963D01*
X171656Y319001D01*
X170773Y319884D01*
X169735Y320578D01*
X168581Y321056D01*
X167357Y321299D01*
X166108D01*
X164883Y321056D01*
X163730Y320578D01*
X162692Y319884D01*
X162214Y319406D01*
X161732Y319057D01*
X161251Y319406D01*
X160773Y319884D01*
X159735Y320578D01*
X158581Y321056D01*
X157357Y321299D01*
X156108D01*
X154883Y321056D01*
X153730Y320578D01*
X152692Y319884D01*
X152214Y319406D01*
X151732Y319057D01*
X151251Y319406D01*
X150773Y319884D01*
X149735Y320578D01*
X148581Y321056D01*
X147357Y321299D01*
X146108D01*
X144883Y321056D01*
X143730Y320578D01*
X142692Y319884D01*
X142214Y319406D01*
X141732Y319057D01*
X141251Y319406D01*
X140773Y319884D01*
X139735Y320578D01*
X138581Y321056D01*
X137357Y321299D01*
X136108D01*
X134883Y321056D01*
X133730Y320578D01*
X132692Y319884D01*
X132214Y319406D01*
X131732Y319057D01*
X131251Y319406D01*
X130773Y319884D01*
X129735Y320578D01*
X128581Y321056D01*
X127357Y321299D01*
X126108D01*
X124883Y321056D01*
X123730Y320578D01*
X122692Y319884D01*
X122214Y319406D01*
X121732Y319057D01*
X121251Y319406D01*
X120773Y319884D01*
X119735Y320578D01*
X118581Y321056D01*
X117357Y321299D01*
X116108D01*
X114883Y321056D01*
X113730Y320578D01*
X112692Y319884D01*
X111809Y319001D01*
X111115Y317963D01*
X110637Y316810D01*
X110593Y316587D01*
X109879D01*
X109835Y316810D01*
X109357Y317963D01*
X108664Y319001D01*
X107781Y319884D01*
X106910Y320466D01*
X106838Y320762D01*
Y320971D01*
X106910Y321266D01*
X107781Y321848D01*
X108664Y322731D01*
X109357Y323769D01*
X109835Y324923D01*
X110079Y326147D01*
Y327396D01*
X109835Y328621D01*
X109357Y329774D01*
X108664Y330812D01*
X107781Y331695D01*
X106743Y332389D01*
X105589Y332867D01*
X104365Y333110D01*
D02*
G37*
G36*
X127232Y330159D02*
Y327272D01*
X130120D01*
X129902Y328085D01*
X129454Y328860D01*
X128821Y329494D01*
X128045Y329941D01*
X127232Y330159D01*
D02*
G37*
G36*
X147232D02*
Y327272D01*
X150120D01*
X149902Y328085D01*
X149454Y328860D01*
X148821Y329494D01*
X148045Y329941D01*
X147232Y330159D01*
D02*
G37*
G36*
X167232D02*
Y327272D01*
X170120D01*
X169902Y328085D01*
X169454Y328860D01*
X168821Y329494D01*
X168045Y329941D01*
X167232Y330159D01*
D02*
G37*
G36*
X157232D02*
Y327272D01*
X160120D01*
X159902Y328085D01*
X159454Y328860D01*
X158821Y329494D01*
X158045Y329941D01*
X157232Y330159D01*
D02*
G37*
G36*
X117232D02*
Y327272D01*
X120120D01*
X119902Y328085D01*
X119454Y328860D01*
X118821Y329494D01*
X118045Y329941D01*
X117232Y330159D01*
D02*
G37*
G36*
X137232D02*
Y327272D01*
X140120D01*
X139902Y328085D01*
X139454Y328860D01*
X138821Y329494D01*
X138045Y329941D01*
X137232Y330159D01*
D02*
G37*
G36*
X126232Y330159D02*
X125419Y329941D01*
X124644Y329494D01*
X124010Y328860D01*
X123563Y328085D01*
X123345Y327272D01*
X126232D01*
Y330159D01*
D02*
G37*
G36*
X146232D02*
X145419Y329941D01*
X144644Y329494D01*
X144010Y328860D01*
X143562Y328085D01*
X143345Y327272D01*
X146232D01*
Y330159D01*
D02*
G37*
G36*
X166232D02*
X165419Y329941D01*
X164644Y329494D01*
X164010Y328860D01*
X163563Y328085D01*
X163345Y327272D01*
X166232D01*
Y330159D01*
D02*
G37*
G36*
X156232D02*
X155419Y329941D01*
X154644Y329494D01*
X154010Y328860D01*
X153562Y328085D01*
X153345Y327272D01*
X156232D01*
Y330159D01*
D02*
G37*
G36*
X116232D02*
X115419Y329941D01*
X114644Y329494D01*
X114010Y328860D01*
X113563Y328085D01*
X113345Y327272D01*
X116232D01*
Y330159D01*
D02*
G37*
G36*
X136232D02*
X135419Y329941D01*
X134644Y329494D01*
X134010Y328860D01*
X133563Y328085D01*
X133345Y327272D01*
X136232D01*
Y330159D01*
D02*
G37*
G36*
X170120Y326272D02*
X167232D01*
Y323384D01*
X168045Y323602D01*
X168821Y324050D01*
X169454Y324683D01*
X169902Y325459D01*
X170120Y326272D01*
D02*
G37*
G36*
X160120D02*
X157232D01*
Y323384D01*
X158045Y323602D01*
X158821Y324050D01*
X159454Y324683D01*
X159902Y325459D01*
X160120Y326272D01*
D02*
G37*
G36*
X150120D02*
X147232D01*
Y323384D01*
X148045Y323602D01*
X148821Y324050D01*
X149454Y324683D01*
X149902Y325459D01*
X150120Y326272D01*
D02*
G37*
G36*
X140120D02*
X137232D01*
Y323384D01*
X138045Y323602D01*
X138821Y324050D01*
X139454Y324683D01*
X139902Y325459D01*
X140120Y326272D01*
D02*
G37*
G36*
X130120D02*
X127232D01*
Y323384D01*
X128045Y323602D01*
X128821Y324050D01*
X129454Y324683D01*
X129902Y325459D01*
X130120Y326272D01*
D02*
G37*
G36*
X120120D02*
X117232D01*
Y323384D01*
X118045Y323602D01*
X118821Y324050D01*
X119454Y324683D01*
X119902Y325459D01*
X120120Y326272D01*
D02*
G37*
G36*
X166232D02*
X163345D01*
X163563Y325459D01*
X164010Y324683D01*
X164644Y324050D01*
X165419Y323602D01*
X166232Y323384D01*
Y326272D01*
D02*
G37*
G36*
X156232D02*
X153345D01*
X153562Y325459D01*
X154010Y324683D01*
X154644Y324050D01*
X155419Y323602D01*
X156232Y323384D01*
Y326272D01*
D02*
G37*
G36*
X146232D02*
X143345D01*
X143562Y325459D01*
X144010Y324683D01*
X144644Y324050D01*
X145419Y323602D01*
X146232Y323384D01*
Y326272D01*
D02*
G37*
G36*
X136232D02*
X133345D01*
X133563Y325459D01*
X134010Y324683D01*
X134644Y324050D01*
X135419Y323602D01*
X136232Y323384D01*
Y326272D01*
D02*
G37*
G36*
X126232D02*
X123345D01*
X123563Y325459D01*
X124010Y324683D01*
X124644Y324050D01*
X125419Y323602D01*
X126232Y323384D01*
Y326272D01*
D02*
G37*
G36*
X116232D02*
X113345D01*
X113563Y325459D01*
X114010Y324683D01*
X114644Y324050D01*
X115419Y323602D01*
X116232Y323384D01*
Y326272D01*
D02*
G37*
G36*
X477362Y329760D02*
X469488D01*
X469098Y329682D01*
X468767Y329461D01*
X468546Y329130D01*
X468469Y328740D01*
Y322835D01*
X468546Y322445D01*
X468767Y322114D01*
X469098Y321893D01*
X469488Y321815D01*
X477362D01*
X477752Y321893D01*
X478083Y322114D01*
X478304Y322445D01*
X478382Y322835D01*
Y328740D01*
X478304Y329130D01*
X478083Y329461D01*
X477752Y329682D01*
X477362Y329760D01*
D02*
G37*
G36*
X216874Y326394D02*
X216196D01*
X215542Y326218D01*
X214954Y325879D01*
X214475Y325400D01*
X214136Y324813D01*
X213961Y324158D01*
Y323480D01*
X214136Y322825D01*
X214475Y322238D01*
X214863Y321850D01*
X214475Y321463D01*
X214136Y320876D01*
X213961Y320221D01*
Y319543D01*
X214136Y318888D01*
X214475Y318301D01*
X214863Y317913D01*
X214475Y317526D01*
X214136Y316939D01*
X213961Y316284D01*
Y315606D01*
X214136Y314951D01*
X214475Y314364D01*
X214954Y313884D01*
X215542Y313546D01*
X216196Y313370D01*
X216874D01*
X217529Y313546D01*
X218116Y313884D01*
X218596Y314364D01*
X218935Y314951D01*
X219110Y315606D01*
Y316284D01*
X218935Y316939D01*
X218596Y317526D01*
X218208Y317913D01*
X218596Y318301D01*
X218935Y318888D01*
X219110Y319543D01*
Y320221D01*
X218935Y320876D01*
X218596Y321463D01*
X218208Y321850D01*
X218596Y322238D01*
X218935Y322825D01*
X219110Y323480D01*
Y324158D01*
X218935Y324813D01*
X218596Y325400D01*
X218116Y325879D01*
X217529Y326218D01*
X216874Y326394D01*
D02*
G37*
G36*
X210969D02*
X210291D01*
X209636Y326218D01*
X209049Y325879D01*
X208570Y325400D01*
X208231Y324813D01*
X208055Y324158D01*
Y323480D01*
X208231Y322825D01*
X208570Y322238D01*
X208957Y321850D01*
X208570Y321463D01*
X208231Y320876D01*
X208055Y320221D01*
Y319543D01*
X208231Y318888D01*
X208570Y318301D01*
X208957Y317913D01*
X208570Y317526D01*
X208231Y316939D01*
X208055Y316284D01*
Y315606D01*
X208231Y314951D01*
X208570Y314364D01*
X209049Y313884D01*
X209636Y313546D01*
X210291Y313370D01*
X210969D01*
X211624Y313546D01*
X212211Y313884D01*
X212690Y314364D01*
X213029Y314951D01*
X213205Y315606D01*
Y316284D01*
X213029Y316939D01*
X212690Y317526D01*
X212303Y317913D01*
X212690Y318301D01*
X213029Y318888D01*
X213205Y319543D01*
Y320221D01*
X213029Y320876D01*
X212690Y321463D01*
X212303Y321850D01*
X212690Y322238D01*
X213029Y322825D01*
X213205Y323480D01*
Y324158D01*
X213029Y324813D01*
X212690Y325400D01*
X212211Y325879D01*
X211624Y326218D01*
X210969Y326394D01*
D02*
G37*
G36*
X205063D02*
X204385D01*
X203731Y326218D01*
X203144Y325879D01*
X202664Y325400D01*
X202325Y324813D01*
X202150Y324158D01*
Y323480D01*
X202325Y322825D01*
X202664Y322238D01*
X203052Y321850D01*
X202664Y321463D01*
X202325Y320876D01*
X202150Y320221D01*
Y319543D01*
X202325Y318888D01*
X202664Y318301D01*
X203052Y317913D01*
X202664Y317526D01*
X202325Y316939D01*
X202150Y316284D01*
Y315606D01*
X202325Y314951D01*
X202664Y314364D01*
X203144Y313884D01*
X203731Y313546D01*
X204385Y313370D01*
X205063D01*
X205718Y313546D01*
X206305Y313884D01*
X206785Y314364D01*
X207124Y314951D01*
X207299Y315606D01*
Y316284D01*
X207124Y316939D01*
X206785Y317526D01*
X206397Y317913D01*
X206785Y318301D01*
X207124Y318888D01*
X207299Y319543D01*
Y320221D01*
X207124Y320876D01*
X206785Y321463D01*
X206397Y321850D01*
X206785Y322238D01*
X207124Y322825D01*
X207299Y323480D01*
Y324158D01*
X207124Y324813D01*
X206785Y325400D01*
X206305Y325879D01*
X205718Y326218D01*
X205063Y326394D01*
D02*
G37*
G36*
X285460Y310396D02*
X284782D01*
X284127Y310221D01*
X283540Y309882D01*
X283061Y309402D01*
X282722Y308815D01*
X282546Y308160D01*
Y307483D01*
X282722Y306828D01*
X283061Y306241D01*
X283540Y305761D01*
X284127Y305422D01*
X284782Y305247D01*
X285460D01*
X286115Y305422D01*
X286702Y305761D01*
X287182Y306241D01*
X287521Y306828D01*
X287696Y307483D01*
Y308160D01*
X287521Y308815D01*
X287182Y309402D01*
X286702Y309882D01*
X286115Y310221D01*
X285460Y310396D01*
D02*
G37*
G36*
X217520Y312087D02*
X203740D01*
Y298307D01*
X203831D01*
X204220Y297725D01*
X204005Y297206D01*
X203740Y295875D01*
Y294518D01*
X204005Y293187D01*
X204524Y291933D01*
X205278Y290805D01*
X206238Y289845D01*
X207366Y289091D01*
X208620Y288572D01*
X209951Y288307D01*
X211309D01*
X212640Y288572D01*
X213893Y289091D01*
X215022Y289845D01*
X215982Y290805D01*
X216736Y291933D01*
X217255Y293187D01*
X217520Y294518D01*
Y295875D01*
X217255Y297206D01*
X217040Y297725D01*
X217429Y298307D01*
X217520D01*
Y312087D01*
D02*
G37*
G36*
X490630Y292732D02*
X489684D01*
X488810Y292370D01*
X488142Y291701D01*
X487780Y290827D01*
Y289881D01*
X488142Y289007D01*
X488810Y288338D01*
X489684Y287976D01*
X490630D01*
X491504Y288338D01*
X492173Y289007D01*
X492535Y289881D01*
Y290827D01*
X492173Y291701D01*
X491504Y292370D01*
X490630Y292732D01*
D02*
G37*
G36*
X484252Y281531D02*
X476378D01*
X475988Y281454D01*
X475657Y281233D01*
X475436Y280902D01*
X475358Y280512D01*
Y274606D01*
X475436Y274216D01*
X475657Y273885D01*
X475988Y273664D01*
X476378Y273587D01*
X484252D01*
X484642Y273664D01*
X484973Y273885D01*
X485194Y274216D01*
X485272Y274606D01*
Y280512D01*
X485194Y280902D01*
X484973Y281233D01*
X484642Y281454D01*
X484252Y281531D01*
D02*
G37*
G36*
X332166Y277969D02*
X331220D01*
X330346Y277607D01*
X329677Y276938D01*
X329315Y276063D01*
Y275117D01*
X329677Y274244D01*
X330346Y273575D01*
X331220Y273213D01*
X332166D01*
X333040Y273575D01*
X333709Y274244D01*
X334071Y275117D01*
Y276063D01*
X333709Y276938D01*
X333040Y277607D01*
X332166Y277969D01*
D02*
G37*
G36*
X328229Y274031D02*
X327283D01*
X326409Y273670D01*
X325740Y273001D01*
X325378Y272127D01*
Y271181D01*
X325740Y270306D01*
X326409Y269638D01*
X327283Y269276D01*
X328229D01*
X329103Y269638D01*
X329772Y270306D01*
X330134Y271181D01*
Y272127D01*
X329772Y273001D01*
X329103Y273670D01*
X328229Y274031D01*
D02*
G37*
G36*
X150285Y276575D02*
X148928D01*
X147597Y276310D01*
X146343Y275791D01*
X145214Y275037D01*
X144255Y274077D01*
X143501Y272949D01*
X142981Y271695D01*
X142717Y270364D01*
Y269006D01*
X142981Y267675D01*
X143501Y266422D01*
X144255Y265293D01*
X145214Y264333D01*
X146343Y263579D01*
X147597Y263060D01*
X148928Y262795D01*
X150285D01*
X151616Y263060D01*
X152870Y263579D01*
X153998Y264333D01*
X154958Y265293D01*
X155712Y266422D01*
X156231Y267675D01*
X156496Y269006D01*
Y270364D01*
X156231Y271695D01*
X155712Y272949D01*
X154958Y274077D01*
X153998Y275037D01*
X152870Y275791D01*
X151616Y276310D01*
X150285Y276575D01*
D02*
G37*
G36*
X451346Y269821D02*
X450400D01*
X449526Y269459D01*
X448857Y268790D01*
X448495Y267916D01*
Y266970D01*
X448857Y266096D01*
X449526Y265427D01*
X450400Y265065D01*
X451346D01*
X452045Y265355D01*
X452560Y264958D01*
X452610Y264889D01*
X452347Y264252D01*
Y263306D01*
X452708Y262433D01*
X453377Y261764D01*
X454251Y261402D01*
X455197D01*
X456071Y261764D01*
X456740Y262433D01*
X457102Y263306D01*
Y264252D01*
X456740Y265126D01*
X456071Y265795D01*
X455197Y266158D01*
X454251D01*
X453552Y265868D01*
X453038Y266265D01*
X452988Y266334D01*
X453251Y266970D01*
Y267916D01*
X452889Y268790D01*
X452220Y269459D01*
X451346Y269821D01*
D02*
G37*
G36*
X291812Y264189D02*
X290866D01*
X289992Y263827D01*
X289323Y263158D01*
X288961Y262284D01*
Y261338D01*
X289323Y260464D01*
X289992Y259795D01*
X290866Y259433D01*
X291812D01*
X292686Y259795D01*
X293355Y260464D01*
X293717Y261338D01*
Y262284D01*
X293355Y263158D01*
X292686Y263827D01*
X291812Y264189D01*
D02*
G37*
G36*
X236694Y261236D02*
X235748D01*
X234874Y260874D01*
X234205Y260205D01*
X233842Y259331D01*
Y258385D01*
X234205Y257511D01*
X234874Y256842D01*
X235748Y256480D01*
X236694D01*
X237567Y256842D01*
X238236Y257511D01*
X238598Y258385D01*
Y259331D01*
X238236Y260205D01*
X237567Y260874D01*
X236694Y261236D01*
D02*
G37*
G36*
X150127Y253953D02*
X150106D01*
Y250500D01*
X153559D01*
Y250520D01*
X153290Y251526D01*
X152769Y252427D01*
X152033Y253163D01*
X151132Y253683D01*
X150127Y253953D01*
D02*
G37*
G36*
X149106D02*
X149086D01*
X148081Y253683D01*
X147179Y253163D01*
X146443Y252427D01*
X145923Y251526D01*
X145653Y250520D01*
Y250500D01*
X149106D01*
Y253953D01*
D02*
G37*
G36*
X512311Y252797D02*
Y249909D01*
X515199D01*
X514981Y250722D01*
X514533Y251498D01*
X513900Y252131D01*
X513124Y252579D01*
X512311Y252797D01*
D02*
G37*
G36*
X511311D02*
X510498Y252579D01*
X509722Y252131D01*
X509089Y251498D01*
X508641Y250722D01*
X508423Y249909D01*
X511311D01*
Y252797D01*
D02*
G37*
G36*
X524122D02*
Y249909D01*
X527010D01*
X526792Y250722D01*
X526344Y251498D01*
X525711Y252131D01*
X524935Y252579D01*
X524122Y252797D01*
D02*
G37*
G36*
X523122D02*
X522309Y252579D01*
X521533Y252131D01*
X520900Y251498D01*
X520452Y250722D01*
X520234Y249909D01*
X523122D01*
Y252797D01*
D02*
G37*
G36*
X459471Y262415D02*
X458525D01*
X457651Y262053D01*
X456982Y261384D01*
X456620Y260510D01*
Y259564D01*
X456982Y258690D01*
X457651Y258021D01*
X458525Y257659D01*
X459342D01*
X459685Y257320D01*
X459851Y257059D01*
X459691Y256672D01*
Y255726D01*
X460053Y254852D01*
X460722Y254183D01*
X461596Y253821D01*
X462314D01*
X462731Y253470D01*
X462876Y253202D01*
Y252403D01*
X463238Y251529D01*
X463907Y250860D01*
X464781Y250498D01*
X465727D01*
X466246Y250713D01*
X466782Y250177D01*
X466577Y249683D01*
Y248737D01*
X466939Y247863D01*
X467608Y247194D01*
X468482Y246832D01*
X469428D01*
X470302Y247194D01*
X470971Y247863D01*
X471333Y248737D01*
Y249683D01*
X470971Y250557D01*
X470302Y251226D01*
X469428Y251588D01*
X468482D01*
X467963Y251373D01*
X467427Y251908D01*
X467631Y252403D01*
Y253349D01*
X467270Y254223D01*
X466601Y254891D01*
X465727Y255254D01*
X465008D01*
X464591Y255604D01*
X464447Y255873D01*
Y256672D01*
X464085Y257546D01*
X463416Y258215D01*
X462542Y258577D01*
X461724D01*
X461381Y258916D01*
X461215Y259177D01*
X461376Y259564D01*
Y260510D01*
X461014Y261384D01*
X460345Y262053D01*
X459471Y262415D01*
D02*
G37*
G36*
X153559Y249500D02*
X150106D01*
Y246047D01*
X150127D01*
X151132Y246317D01*
X152033Y246837D01*
X152769Y247573D01*
X153290Y248474D01*
X153559Y249480D01*
Y249500D01*
D02*
G37*
G36*
X149106D02*
X145653D01*
Y249480D01*
X145923Y248474D01*
X146443Y247573D01*
X147179Y246837D01*
X148081Y246317D01*
X149086Y246047D01*
X149106D01*
Y249500D01*
D02*
G37*
G36*
X527010Y248909D02*
X524122D01*
Y246022D01*
X524935Y246240D01*
X525711Y246688D01*
X526344Y247321D01*
X526792Y248096D01*
X527010Y248909D01*
D02*
G37*
G36*
X515199Y248909D02*
X512311D01*
Y246022D01*
X513124Y246240D01*
X513900Y246688D01*
X514533Y247321D01*
X514981Y248096D01*
X515199Y248909D01*
D02*
G37*
G36*
X511311D02*
X508423D01*
X508641Y248096D01*
X509089Y247321D01*
X509722Y246688D01*
X510498Y246240D01*
X511311Y246022D01*
Y248909D01*
D02*
G37*
G36*
X523122Y248909D02*
X520234D01*
X520452Y248096D01*
X520900Y247321D01*
X521533Y246688D01*
X522309Y246240D01*
X523122Y246022D01*
Y248909D01*
D02*
G37*
G36*
X512311Y242797D02*
Y239910D01*
X515199D01*
X514981Y240722D01*
X514533Y241498D01*
X513900Y242131D01*
X513124Y242579D01*
X512311Y242797D01*
D02*
G37*
G36*
X511311D02*
X510498Y242579D01*
X509722Y242131D01*
X509089Y241498D01*
X508641Y240722D01*
X508423Y239910D01*
X511311D01*
Y242797D01*
D02*
G37*
G36*
X524122D02*
Y239909D01*
X527010D01*
X526792Y240722D01*
X526344Y241498D01*
X525711Y242131D01*
X524935Y242579D01*
X524122Y242797D01*
D02*
G37*
G36*
X523122D02*
X522309Y242579D01*
X521533Y242131D01*
X520900Y241498D01*
X520452Y240722D01*
X520234Y239909D01*
X523122D01*
Y242797D01*
D02*
G37*
G36*
X527010Y238909D02*
X524122D01*
Y236022D01*
X524935Y236240D01*
X525711Y236687D01*
X526344Y237321D01*
X526792Y238096D01*
X527010Y238909D01*
D02*
G37*
G36*
X515199Y238910D02*
X512311D01*
Y236022D01*
X513124Y236240D01*
X513900Y236687D01*
X514533Y237321D01*
X514981Y238096D01*
X515199Y238910D01*
D02*
G37*
G36*
X511311D02*
X508423D01*
X508641Y238096D01*
X509089Y237321D01*
X509722Y236687D01*
X510498Y236240D01*
X511311Y236022D01*
Y238910D01*
D02*
G37*
G36*
X523122Y238909D02*
X520234D01*
X520452Y238096D01*
X520900Y237321D01*
X521533Y236687D01*
X522309Y236240D01*
X523122Y236022D01*
Y238909D01*
D02*
G37*
G36*
X258631Y236221D02*
X257274D01*
X255943Y235956D01*
X255424Y235741D01*
X254842Y236130D01*
Y236221D01*
X241063D01*
Y222441D01*
X254842D01*
Y222532D01*
X255424Y222920D01*
X255943Y222706D01*
X257274Y222441D01*
X258631D01*
X259962Y222706D01*
X261216Y223225D01*
X262345Y223979D01*
X263304Y224939D01*
X264058Y226067D01*
X264578Y227321D01*
X264843Y228652D01*
Y230009D01*
X264578Y231340D01*
X264058Y232594D01*
X263304Y233723D01*
X262345Y234682D01*
X261216Y235436D01*
X259962Y235956D01*
X258631Y236221D01*
D02*
G37*
G36*
X512311Y232797D02*
Y229909D01*
X515199D01*
X514981Y230722D01*
X514533Y231498D01*
X513900Y232131D01*
X513124Y232579D01*
X512311Y232797D01*
D02*
G37*
G36*
X511311D02*
X510498Y232579D01*
X509722Y232131D01*
X509089Y231498D01*
X508641Y230722D01*
X508423Y229909D01*
X511311D01*
Y232797D01*
D02*
G37*
G36*
X524122D02*
Y229909D01*
X527010D01*
X526792Y230722D01*
X526344Y231498D01*
X525711Y232131D01*
X524935Y232579D01*
X524122Y232797D01*
D02*
G37*
G36*
X523122D02*
X522309Y232579D01*
X521533Y232131D01*
X520900Y231498D01*
X520452Y230722D01*
X520234Y229909D01*
X523122D01*
Y232797D01*
D02*
G37*
G36*
X95009Y232299D02*
X94988D01*
Y228847D01*
X98441D01*
Y228867D01*
X98172Y229872D01*
X97651Y230773D01*
X96915Y231509D01*
X96014Y232030D01*
X95009Y232299D01*
D02*
G37*
G36*
X93988D02*
X93968D01*
X92962Y232030D01*
X92061Y231509D01*
X91325Y230773D01*
X90805Y229872D01*
X90535Y228867D01*
Y228847D01*
X93988D01*
Y232299D01*
D02*
G37*
G36*
X527010Y228909D02*
X524122D01*
Y226022D01*
X524935Y226240D01*
X525711Y226688D01*
X526344Y227321D01*
X526792Y228097D01*
X527010Y228909D01*
D02*
G37*
G36*
X515199Y228909D02*
X512311D01*
Y226022D01*
X513124Y226240D01*
X513900Y226688D01*
X514533Y227321D01*
X514981Y228097D01*
X515199Y228909D01*
D02*
G37*
G36*
X511311D02*
X508423D01*
X508641Y228097D01*
X509089Y227321D01*
X509722Y226688D01*
X510498Y226240D01*
X511311Y226022D01*
Y228909D01*
D02*
G37*
G36*
X523122Y228909D02*
X520234D01*
X520452Y228097D01*
X520900Y227321D01*
X521533Y226688D01*
X522309Y226240D01*
X523122Y226022D01*
Y228909D01*
D02*
G37*
G36*
X98441Y227847D02*
X94988D01*
Y224394D01*
X95009D01*
X96014Y224663D01*
X96915Y225184D01*
X97651Y225919D01*
X98172Y226821D01*
X98441Y227826D01*
Y227847D01*
D02*
G37*
G36*
X93988D02*
X90535D01*
Y227826D01*
X90805Y226821D01*
X91325Y225919D01*
X92061Y225184D01*
X92962Y224663D01*
X93968Y224394D01*
X93988D01*
Y227847D01*
D02*
G37*
G36*
X275079Y227772D02*
X274133D01*
X273259Y227410D01*
X272590Y226741D01*
X272228Y225867D01*
Y224921D01*
X272590Y224047D01*
X273259Y223378D01*
X274133Y223016D01*
X275079D01*
X275953Y223378D01*
X276622Y224047D01*
X276984Y224921D01*
Y225867D01*
X276622Y226741D01*
X275953Y227410D01*
X275079Y227772D01*
D02*
G37*
G36*
X202111Y222063D02*
X201433D01*
X200778Y221887D01*
X200191Y221549D01*
X199803Y221161D01*
X199416Y221549D01*
X198828Y221887D01*
X198174Y222063D01*
X197496D01*
X196841Y221887D01*
X196254Y221549D01*
X195866Y221161D01*
X195479Y221549D01*
X194892Y221887D01*
X194237Y222063D01*
X193559D01*
X192904Y221887D01*
X192317Y221549D01*
X191929Y221161D01*
X191542Y221549D01*
X190954Y221887D01*
X190300Y222063D01*
X189622D01*
X188967Y221887D01*
X188380Y221549D01*
X187900Y221069D01*
X187561Y220482D01*
X187386Y219827D01*
Y219149D01*
X187561Y218494D01*
X187900Y217907D01*
X188288Y217520D01*
X187900Y217132D01*
X187710Y216803D01*
X186917Y216606D01*
X186557Y216966D01*
X185429Y217720D01*
X184175Y218239D01*
X182844Y218504D01*
X181487D01*
X180156Y218239D01*
X179637Y218024D01*
X179055Y218413D01*
Y218504D01*
X165276D01*
Y204724D01*
X179055D01*
Y204815D01*
X179637Y205204D01*
X180156Y204989D01*
X181487Y204724D01*
X182844D01*
X184175Y204989D01*
X185429Y205508D01*
X186557Y206262D01*
X186917Y206622D01*
X187710Y206425D01*
X187900Y206096D01*
X188288Y205709D01*
X187900Y205321D01*
X187561Y204734D01*
X187386Y204079D01*
Y203401D01*
X187561Y202746D01*
X187900Y202159D01*
X188380Y201680D01*
X188967Y201341D01*
X189622Y201165D01*
X190300D01*
X190954Y201341D01*
X191542Y201680D01*
X191929Y202067D01*
X192317Y201680D01*
X192904Y201341D01*
X193559Y201165D01*
X194237D01*
X194892Y201341D01*
X195479Y201680D01*
X195866Y202067D01*
X196254Y201680D01*
X196841Y201341D01*
X197496Y201165D01*
X198174D01*
X198828Y201341D01*
X199416Y201680D01*
X199803Y202067D01*
X200191Y201680D01*
X200778Y201341D01*
X201433Y201165D01*
X202111D01*
X202765Y201341D01*
X203353Y201680D01*
X203832Y202159D01*
X204171Y202746D01*
X204346Y203401D01*
Y204079D01*
X204171Y204734D01*
X203832Y205321D01*
X203445Y205709D01*
X203832Y206096D01*
X204171Y206683D01*
X204346Y207338D01*
Y208016D01*
X204171Y208671D01*
X203832Y209258D01*
X203445Y209646D01*
X203832Y210033D01*
X204171Y210620D01*
X204346Y211275D01*
Y211953D01*
X204171Y212608D01*
X203832Y213195D01*
X203445Y213583D01*
X203832Y213970D01*
X204171Y214557D01*
X204346Y215212D01*
Y215890D01*
X204171Y216545D01*
X203832Y217132D01*
X203445Y217520D01*
X203832Y217907D01*
X204171Y218494D01*
X204346Y219149D01*
Y219827D01*
X204171Y220482D01*
X203832Y221069D01*
X203353Y221549D01*
X202765Y221887D01*
X202111Y222063D01*
D02*
G37*
G36*
X237678Y224819D02*
X236732D01*
X235858Y224457D01*
X235189Y223788D01*
X234827Y222914D01*
Y221968D01*
X235189Y221094D01*
X235858Y220425D01*
X236732Y220063D01*
X237678D01*
X238552Y220425D01*
X239221Y221094D01*
X239583Y221968D01*
Y222914D01*
X239221Y223788D01*
X238552Y224457D01*
X237678Y224819D01*
D02*
G37*
G36*
X230788D02*
X229842D01*
X228968Y224457D01*
X228299Y223788D01*
X227937Y222914D01*
Y221968D01*
X228299Y221094D01*
X228968Y220425D01*
X229842Y220063D01*
X230788D01*
X231662Y220425D01*
X232331Y221094D01*
X232693Y221968D01*
Y222914D01*
X232331Y223788D01*
X231662Y224457D01*
X230788Y224819D01*
D02*
G37*
G36*
X512311Y222797D02*
Y219910D01*
X515199D01*
X514981Y220722D01*
X514533Y221498D01*
X513900Y222131D01*
X513124Y222579D01*
X512311Y222797D01*
D02*
G37*
G36*
X511311D02*
X510498Y222579D01*
X509722Y222131D01*
X509089Y221498D01*
X508641Y220722D01*
X508423Y219910D01*
X511311D01*
Y222797D01*
D02*
G37*
G36*
X524122D02*
Y219909D01*
X527010D01*
X526792Y220722D01*
X526344Y221498D01*
X525711Y222131D01*
X524935Y222579D01*
X524122Y222797D01*
D02*
G37*
G36*
X523122D02*
X522309Y222579D01*
X521533Y222131D01*
X520900Y221498D01*
X520452Y220722D01*
X520234Y219909D01*
X523122D01*
Y222797D01*
D02*
G37*
G36*
X334134Y221866D02*
X333188D01*
X332314Y221504D01*
X331645Y220835D01*
X331283Y219961D01*
Y219015D01*
X331645Y218141D01*
X332314Y217472D01*
X333188Y217110D01*
X334134D01*
X335008Y217472D01*
X335677Y218141D01*
X336039Y219015D01*
Y219961D01*
X335677Y220835D01*
X335008Y221504D01*
X334134Y221866D01*
D02*
G37*
G36*
X527010Y218909D02*
X524122D01*
Y216022D01*
X524935Y216240D01*
X525711Y216687D01*
X526344Y217321D01*
X526792Y218096D01*
X527010Y218909D01*
D02*
G37*
G36*
X515199Y218910D02*
X512311D01*
Y216022D01*
X513124Y216240D01*
X513900Y216687D01*
X514533Y217321D01*
X514981Y218096D01*
X515199Y218910D01*
D02*
G37*
G36*
X511311D02*
X508423D01*
X508641Y218096D01*
X509089Y217321D01*
X509722Y216687D01*
X510498Y216240D01*
X511311Y216022D01*
Y218910D01*
D02*
G37*
G36*
X523122Y218909D02*
X520234D01*
X520452Y218096D01*
X520900Y217321D01*
X521533Y216687D01*
X522309Y216240D01*
X523122Y216022D01*
Y218909D01*
D02*
G37*
G36*
X243242Y217288D02*
Y214034D01*
X246496D01*
X246242Y214983D01*
X245747Y215840D01*
X245048Y216539D01*
X244192Y217034D01*
X243242Y217288D01*
D02*
G37*
G36*
X242242D02*
X241292Y217034D01*
X240436Y216539D01*
X239736Y215840D01*
X239242Y214983D01*
X238987Y214034D01*
X242242D01*
Y217288D01*
D02*
G37*
G36*
X224344D02*
Y214034D01*
X227599D01*
X227344Y214983D01*
X226850Y215840D01*
X226150Y216539D01*
X225294Y217034D01*
X224344Y217288D01*
D02*
G37*
G36*
X223344D02*
X222394Y217034D01*
X221538Y216539D01*
X220839Y215840D01*
X220344Y214983D01*
X220090Y214034D01*
X223344D01*
Y217288D01*
D02*
G37*
G36*
X512311Y212797D02*
Y209910D01*
X515199D01*
X514981Y210722D01*
X514533Y211498D01*
X513900Y212131D01*
X513124Y212579D01*
X512311Y212797D01*
D02*
G37*
G36*
X511311D02*
X510498Y212579D01*
X509722Y212131D01*
X509089Y211498D01*
X508641Y210722D01*
X508423Y209910D01*
X511311D01*
Y212797D01*
D02*
G37*
G36*
X524122D02*
Y209909D01*
X527010D01*
X526792Y210722D01*
X526344Y211498D01*
X525711Y212131D01*
X524935Y212579D01*
X524122Y212797D01*
D02*
G37*
G36*
X523122D02*
X522309Y212579D01*
X521533Y212131D01*
X520900Y211498D01*
X520452Y210722D01*
X520234Y209909D01*
X523122D01*
Y212797D01*
D02*
G37*
G36*
X246496Y213034D02*
X243242D01*
Y209779D01*
X244192Y210034D01*
X245048Y210528D01*
X245747Y211227D01*
X246242Y212084D01*
X246496Y213034D01*
D02*
G37*
G36*
X242242D02*
X238987D01*
X239242Y212084D01*
X239736Y211227D01*
X240436Y210528D01*
X241292Y210034D01*
X242242Y209779D01*
Y213034D01*
D02*
G37*
G36*
X227599D02*
X224344D01*
Y209779D01*
X225294Y210034D01*
X226150Y210528D01*
X226850Y211227D01*
X227344Y212084D01*
X227599Y213034D01*
D02*
G37*
G36*
X223344D02*
X220090D01*
X220344Y212084D01*
X220839Y211227D01*
X221538Y210528D01*
X222394Y210034D01*
X223344Y209779D01*
Y213034D01*
D02*
G37*
G36*
X527010Y208909D02*
X524122D01*
Y206022D01*
X524935Y206240D01*
X525711Y206687D01*
X526344Y207321D01*
X526792Y208097D01*
X527010Y208909D01*
D02*
G37*
G36*
X515199Y208910D02*
X512311D01*
Y206022D01*
X513124Y206240D01*
X513900Y206687D01*
X514533Y207321D01*
X514981Y208097D01*
X515199Y208910D01*
D02*
G37*
G36*
X511311D02*
X508423D01*
X508641Y208097D01*
X509089Y207321D01*
X509722Y206687D01*
X510498Y206240D01*
X511311Y206022D01*
Y208910D01*
D02*
G37*
G36*
X523122Y208909D02*
X520234D01*
X520452Y208097D01*
X520900Y207321D01*
X521533Y206687D01*
X522309Y206240D01*
X523122Y206022D01*
Y208909D01*
D02*
G37*
G36*
X345226Y210628D02*
X344280D01*
X343406Y210266D01*
X342737Y209597D01*
X342375Y208723D01*
Y207778D01*
X342737Y206904D01*
X343406Y206235D01*
X344280Y205873D01*
X345226D01*
X346100Y206235D01*
X346769Y206904D01*
X347131Y207778D01*
Y208723D01*
X346769Y209597D01*
X346100Y210266D01*
X345226Y210628D01*
D02*
G37*
G36*
X220479Y208471D02*
X215180D01*
X214790Y208394D01*
X214459Y208173D01*
X214238Y207842D01*
X214160Y207452D01*
Y202908D01*
X214238Y202518D01*
X214459Y202187D01*
X214790Y201967D01*
X215180Y201889D01*
X220479D01*
X220869Y201967D01*
X221200Y202187D01*
X221421Y202518D01*
X221499Y202908D01*
Y207452D01*
X221421Y207842D01*
X221200Y208173D01*
X220869Y208394D01*
X220479Y208471D01*
D02*
G37*
G36*
X95167Y215551D02*
X93810D01*
X92479Y215286D01*
X91225Y214767D01*
X90096Y214013D01*
X89137Y213053D01*
X88383Y211925D01*
X87863Y210671D01*
X87598Y209340D01*
Y207983D01*
X87863Y206652D01*
X88383Y205398D01*
X89137Y204270D01*
X90096Y203310D01*
X91225Y202556D01*
X92479Y202036D01*
X93810Y201772D01*
X95167D01*
X96498Y202036D01*
X97752Y202556D01*
X98880Y203310D01*
X99840Y204270D01*
X100594Y205398D01*
X101113Y206652D01*
X101378Y207983D01*
Y209340D01*
X101113Y210671D01*
X100594Y211925D01*
X99840Y213053D01*
X98880Y214013D01*
X97752Y214767D01*
X96498Y215286D01*
X95167Y215551D01*
D02*
G37*
G36*
X350944Y205376D02*
X349998D01*
X349124Y205014D01*
X348455Y204345D01*
X348093Y203471D01*
Y202525D01*
X348455Y201651D01*
X349124Y200982D01*
X349998Y200620D01*
X350944D01*
X351818Y200982D01*
X352487Y201651D01*
X352849Y202525D01*
Y203471D01*
X352487Y204345D01*
X351818Y205014D01*
X350944Y205376D01*
D02*
G37*
G36*
X248510Y210162D02*
X247604D01*
X247343Y210128D01*
X247079Y210127D01*
X247021Y210119D01*
X246961Y210111D01*
X246943Y210107D01*
X246925Y210106D01*
X246869Y210099D01*
X246645Y210036D01*
X246576Y210027D01*
X246575Y210026D01*
X246408Y210004D01*
X246349Y209988D01*
X246316Y209975D01*
X246281Y209970D01*
X246226Y209954D01*
X246107Y209903D01*
X245981Y209875D01*
X245926Y209856D01*
X245816Y209799D01*
X245697Y209766D01*
X245642Y209742D01*
X245595Y209715D01*
X245543Y209698D01*
X245492Y209675D01*
X245388Y209609D01*
X245272Y209565D01*
X245221Y209538D01*
X245129Y209471D01*
X245128Y209470D01*
X245023Y209423D01*
X244972Y209392D01*
X244921Y209361D01*
X244741Y209214D01*
X244721Y209205D01*
X244695Y209183D01*
X244576Y209116D01*
X244529Y209080D01*
X244436Y208990D01*
X244331Y208917D01*
X244287Y208877D01*
X244282Y208871D01*
X244240Y208842D01*
X244197Y208803D01*
X244074Y208658D01*
X243930Y208535D01*
X243890Y208492D01*
X243861Y208450D01*
X243855Y208445D01*
X243816Y208402D01*
X243742Y208296D01*
X243652Y208203D01*
X243616Y208156D01*
X243549Y208037D01*
X243527Y208011D01*
X243523Y208001D01*
X243418Y207881D01*
X243386Y207834D01*
X243380Y207822D01*
X243372Y207812D01*
X243340Y207761D01*
X243286Y207639D01*
X243224Y207550D01*
X243212Y207516D01*
X243139Y207408D01*
X243111Y207353D01*
X243091Y207294D01*
X243058Y207241D01*
X243034Y207190D01*
X243018Y207137D01*
X242990Y207090D01*
X242966Y207035D01*
X242933Y206916D01*
X242876Y206806D01*
X242857Y206751D01*
X242829Y206625D01*
X242778Y206506D01*
X242762Y206451D01*
X242757Y206416D01*
X242744Y206383D01*
X242728Y206324D01*
X242706Y206157D01*
X242705Y206156D01*
X242696Y206087D01*
X242634Y205863D01*
X242626Y205807D01*
X242625Y205789D01*
X242621Y205771D01*
X242613Y205712D01*
X242605Y205653D01*
X242605Y205527D01*
X242603Y205521D01*
X242603Y205381D01*
X242570Y205128D01*
Y205010D01*
X242603Y204757D01*
X242603Y204617D01*
X242605Y204611D01*
X242605Y204485D01*
X242613Y204426D01*
X242621Y204367D01*
X242625Y204349D01*
X242626Y204330D01*
X242634Y204275D01*
X242696Y204051D01*
X242705Y203982D01*
X242706Y203981D01*
X242728Y203813D01*
X242744Y203754D01*
X242757Y203722D01*
X242762Y203687D01*
X242778Y203631D01*
X242829Y203513D01*
X242857Y203387D01*
X242876Y203332D01*
X242933Y203222D01*
X242966Y203103D01*
X242990Y203048D01*
X243018Y203000D01*
X243034Y202948D01*
X243058Y202897D01*
X243091Y202844D01*
X243111Y202785D01*
X243139Y202730D01*
X243212Y202622D01*
X243224Y202588D01*
X243286Y202499D01*
X243340Y202377D01*
X243372Y202326D01*
X243380Y202315D01*
X243386Y202304D01*
X243418Y202256D01*
X243523Y202137D01*
X243527Y202127D01*
X243549Y202101D01*
X243616Y201982D01*
X243652Y201935D01*
X243742Y201842D01*
X243816Y201736D01*
X243855Y201693D01*
X243861Y201688D01*
X243890Y201646D01*
X243930Y201603D01*
X244074Y201480D01*
X244197Y201335D01*
X244240Y201296D01*
X244282Y201267D01*
X244287Y201260D01*
X244331Y201221D01*
X244436Y201148D01*
X244529Y201058D01*
X244576Y201022D01*
X244695Y200955D01*
X244721Y200933D01*
X244741Y200924D01*
X244921Y200777D01*
X245023Y200715D01*
X245128Y200668D01*
X245129Y200667D01*
X245221Y200600D01*
X245272Y200573D01*
X245388Y200529D01*
X245492Y200463D01*
X245543Y200440D01*
X245595Y200423D01*
X245642Y200395D01*
X245697Y200372D01*
X245816Y200339D01*
X245926Y200282D01*
X245981Y200262D01*
X246107Y200235D01*
X246226Y200184D01*
X246281Y200168D01*
X246316Y200163D01*
X246349Y200149D01*
X246408Y200134D01*
X246575Y200112D01*
X246576Y200111D01*
X246645Y200102D01*
X246869Y200039D01*
X246925Y200031D01*
X246943Y200031D01*
X246961Y200026D01*
X247021Y200019D01*
X247079Y200011D01*
X247343Y200010D01*
X247604Y199976D01*
X248510D01*
X248771Y200010D01*
X249035Y200011D01*
X249093Y200019D01*
X249152Y200026D01*
X249170Y200031D01*
X249189Y200031D01*
X249244Y200039D01*
X249468Y200102D01*
X249537Y200111D01*
X249539Y200112D01*
X249706Y200134D01*
X249765Y200149D01*
X249798Y200163D01*
X249833Y200168D01*
X249888Y200184D01*
X250007Y200235D01*
X250133Y200262D01*
X250188Y200282D01*
X250298Y200339D01*
X250416Y200372D01*
X250471Y200395D01*
X250519Y200424D01*
X250571Y200440D01*
X250622Y200463D01*
X250726Y200529D01*
X250841Y200572D01*
X250892Y200600D01*
X250981Y200664D01*
X250986Y200668D01*
X251091Y200715D01*
X251142Y200746D01*
X251193Y200777D01*
X251373Y200924D01*
X251393Y200933D01*
X251418Y200955D01*
X251537Y201022D01*
X251585Y201057D01*
X251677Y201148D01*
X251783Y201221D01*
X251827Y201261D01*
X251832Y201267D01*
X251874Y201296D01*
X251917Y201335D01*
X252039Y201480D01*
X252184Y201603D01*
X252224Y201646D01*
X252253Y201688D01*
X252259Y201693D01*
X252298Y201736D01*
X252372Y201842D01*
X252462Y201935D01*
X252498Y201982D01*
X252565Y202101D01*
X252586Y202127D01*
X252591Y202137D01*
X252696Y202256D01*
X252727Y202304D01*
X252733Y202315D01*
X252742Y202326D01*
X252773Y202377D01*
X252828Y202499D01*
X252889Y202588D01*
X252902Y202622D01*
X252975Y202730D01*
X253002Y202785D01*
X253023Y202844D01*
X253056Y202897D01*
X253080Y202948D01*
X253096Y203001D01*
X253124Y203048D01*
X253148Y203103D01*
X253181Y203222D01*
X253237Y203331D01*
X253257Y203386D01*
X253284Y203513D01*
X253336Y203631D01*
X253351Y203687D01*
X253357Y203722D01*
X253370Y203754D01*
X253386Y203814D01*
X253408Y203981D01*
X253408Y203982D01*
X253417Y204051D01*
X253480Y204275D01*
X253488Y204330D01*
X253488Y204349D01*
X253493Y204367D01*
X253501Y204426D01*
X253509Y204485D01*
X253509Y204611D01*
X253510Y204617D01*
X253510Y204757D01*
X253544Y205010D01*
Y205128D01*
X253510Y205381D01*
X253510Y205521D01*
X253509Y205527D01*
X253509Y205653D01*
X253501Y205712D01*
X253493Y205771D01*
X253488Y205789D01*
X253488Y205807D01*
X253480Y205863D01*
X253417Y206087D01*
X253408Y206156D01*
X253408Y206157D01*
X253386Y206324D01*
X253370Y206383D01*
X253357Y206416D01*
X253351Y206451D01*
X253336Y206506D01*
X253284Y206625D01*
X253257Y206751D01*
X253237Y206807D01*
X253181Y206916D01*
X253148Y207035D01*
X253124Y207090D01*
X253096Y207137D01*
X253080Y207190D01*
X253056Y207241D01*
X253023Y207294D01*
X253002Y207353D01*
X252975Y207408D01*
X252902Y207516D01*
X252889Y207550D01*
X252828Y207639D01*
X252773Y207761D01*
X252742Y207812D01*
X252733Y207822D01*
X252727Y207834D01*
X252696Y207881D01*
X252591Y208001D01*
X252586Y208011D01*
X252565Y208037D01*
X252498Y208156D01*
X252462Y208203D01*
X252372Y208296D01*
X252298Y208402D01*
X252259Y208445D01*
X252253Y208450D01*
X252224Y208492D01*
X252184Y208535D01*
X252039Y208658D01*
X251917Y208803D01*
X251874Y208842D01*
X251832Y208871D01*
X251827Y208877D01*
X251783Y208916D01*
X251677Y208990D01*
X251585Y209081D01*
X251537Y209116D01*
X251418Y209183D01*
X251393Y209205D01*
X251373Y209214D01*
X251193Y209361D01*
X251091Y209423D01*
X250986Y209470D01*
X250981Y209474D01*
X250892Y209538D01*
X250841Y209565D01*
X250726Y209609D01*
X250622Y209675D01*
X250571Y209698D01*
X250519Y209714D01*
X250471Y209742D01*
X250416Y209766D01*
X250298Y209799D01*
X250188Y209856D01*
X250133Y209875D01*
X250007Y209903D01*
X249888Y209954D01*
X249833Y209970D01*
X249798Y209975D01*
X249765Y209988D01*
X249706Y210004D01*
X249539Y210026D01*
X249537Y210027D01*
X249468Y210036D01*
X249244Y210099D01*
X249189Y210106D01*
X249170Y210107D01*
X249152Y210111D01*
X249093Y210119D01*
X249035Y210127D01*
X248771Y210128D01*
X248510Y210162D01*
D02*
G37*
G36*
X512311Y202797D02*
Y199909D01*
X515199D01*
X514981Y200722D01*
X514533Y201498D01*
X513900Y202131D01*
X513124Y202579D01*
X512311Y202797D01*
D02*
G37*
G36*
X511311D02*
X510498Y202579D01*
X509722Y202131D01*
X509089Y201498D01*
X508641Y200722D01*
X508423Y199909D01*
X511311D01*
Y202797D01*
D02*
G37*
G36*
X524122D02*
Y199909D01*
X527010D01*
X526792Y200722D01*
X526344Y201498D01*
X525711Y202131D01*
X524935Y202579D01*
X524122Y202797D01*
D02*
G37*
G36*
X523122D02*
X522309Y202579D01*
X521533Y202131D01*
X520900Y201498D01*
X520452Y200722D01*
X520234Y199909D01*
X523122D01*
Y202797D01*
D02*
G37*
G36*
X243242Y200359D02*
Y197104D01*
X246496D01*
X246242Y198054D01*
X245747Y198911D01*
X245048Y199610D01*
X244192Y200104D01*
X243242Y200359D01*
D02*
G37*
G36*
X242242D02*
X241292Y200104D01*
X240436Y199610D01*
X239736Y198911D01*
X239242Y198054D01*
X238987Y197104D01*
X242242D01*
Y200359D01*
D02*
G37*
G36*
X223344D02*
X222394Y200104D01*
X221538Y199610D01*
X220839Y198911D01*
X220344Y198054D01*
X220090Y197104D01*
X223344D01*
Y200359D01*
D02*
G37*
G36*
X172583Y197457D02*
X171905D01*
X171250Y197281D01*
X170663Y196942D01*
X170276Y196555D01*
X169888Y196942D01*
X169301Y197281D01*
X168646Y197457D01*
X167968D01*
X167313Y197281D01*
X166726Y196942D01*
X166339Y196555D01*
X165951Y196942D01*
X165364Y197281D01*
X164709Y197457D01*
X164031D01*
X163376Y197281D01*
X162789Y196942D01*
X162402Y196555D01*
X162014Y196942D01*
X161427Y197281D01*
X160772Y197457D01*
X160094D01*
X159439Y197281D01*
X158852Y196942D01*
X158465Y196555D01*
X158077Y196942D01*
X157490Y197281D01*
X156835Y197457D01*
X156157D01*
X155502Y197281D01*
X154915Y196942D01*
X154436Y196463D01*
X154097Y195876D01*
X153921Y195221D01*
Y194543D01*
X154097Y193888D01*
X154436Y193301D01*
X154915Y192822D01*
X155502Y192483D01*
X156157Y192307D01*
X156835D01*
X157490Y192483D01*
X158077Y192822D01*
X158465Y193209D01*
X158852Y192822D01*
X159439Y192483D01*
X160094Y192307D01*
X160772D01*
X161427Y192483D01*
X162014Y192822D01*
X162402Y193209D01*
X162789Y192822D01*
X163376Y192483D01*
X164031Y192307D01*
X164709D01*
X165364Y192483D01*
X165951Y192822D01*
X166339Y193209D01*
X166726Y192822D01*
X167313Y192483D01*
X167968Y192307D01*
X168646D01*
X169301Y192483D01*
X169888Y192822D01*
X170276Y193209D01*
X170663Y192822D01*
X171250Y192483D01*
X171905Y192307D01*
X172583D01*
X173238Y192483D01*
X173825Y192822D01*
X174304Y193301D01*
X174643Y193888D01*
X174819Y194543D01*
Y195221D01*
X174643Y195876D01*
X174304Y196463D01*
X173825Y196942D01*
X173238Y197281D01*
X172583Y197457D01*
D02*
G37*
G36*
X501457Y213008D02*
X500511D01*
X499637Y212646D01*
X498968Y211977D01*
X498606Y211103D01*
Y210157D01*
X498968Y209283D01*
X499590Y208661D01*
X498968Y208040D01*
X498606Y207166D01*
Y206220D01*
X498968Y205346D01*
X499590Y204724D01*
X498968Y204103D01*
X498606Y203229D01*
Y202283D01*
X498968Y201409D01*
X499590Y200787D01*
X498968Y200166D01*
X498606Y199292D01*
Y198346D01*
X498968Y197472D01*
X499637Y196803D01*
X500511Y196441D01*
X501457D01*
X502331Y196803D01*
X503000Y197472D01*
X503362Y198346D01*
Y199292D01*
X503000Y200166D01*
X502379Y200787D01*
X503000Y201409D01*
X503362Y202283D01*
Y203229D01*
X503000Y204103D01*
X502379Y204724D01*
X503000Y205346D01*
X503362Y206220D01*
Y207166D01*
X503000Y208040D01*
X502379Y208661D01*
X503000Y209283D01*
X503362Y210157D01*
Y211103D01*
X503000Y211977D01*
X502331Y212646D01*
X501457Y213008D01*
D02*
G37*
G36*
X527010Y198909D02*
X524122D01*
Y196022D01*
X524935Y196240D01*
X525711Y196687D01*
X526344Y197321D01*
X526792Y198097D01*
X527010Y198909D01*
D02*
G37*
G36*
X515199Y198909D02*
X512311D01*
Y196022D01*
X513124Y196240D01*
X513900Y196687D01*
X514533Y197321D01*
X514981Y198097D01*
X515199Y198909D01*
D02*
G37*
G36*
X511311D02*
X508423D01*
X508641Y198097D01*
X509089Y197321D01*
X509722Y196687D01*
X510498Y196240D01*
X511311Y196022D01*
Y198909D01*
D02*
G37*
G36*
X523122Y198909D02*
X520234D01*
X520452Y198097D01*
X520900Y197321D01*
X521533Y196687D01*
X522309Y196240D01*
X523122Y196022D01*
Y198909D01*
D02*
G37*
G36*
X124355Y196472D02*
X123677D01*
X123022Y196297D01*
X122435Y195958D01*
X122047Y195571D01*
X121660Y195958D01*
X121073Y196297D01*
X120418Y196472D01*
X119740D01*
X119085Y196297D01*
X118498Y195958D01*
X118110Y195571D01*
X117723Y195958D01*
X117136Y196297D01*
X116481Y196472D01*
X115803D01*
X115148Y196297D01*
X114561Y195958D01*
X114173Y195571D01*
X113786Y195958D01*
X113199Y196297D01*
X112544Y196472D01*
X111866D01*
X111211Y196297D01*
X110624Y195958D01*
X110144Y195479D01*
X109805Y194892D01*
X109630Y194237D01*
Y193559D01*
X109805Y192904D01*
X110144Y192317D01*
X110532Y191929D01*
X110144Y191542D01*
X109805Y190954D01*
X109630Y190300D01*
Y189622D01*
X109805Y188967D01*
X110144Y188380D01*
X110532Y187992D01*
X110144Y187605D01*
X109805Y187018D01*
X109630Y186363D01*
Y185685D01*
X109805Y185030D01*
X110144Y184443D01*
X110624Y183963D01*
X111211Y183624D01*
X111866Y183449D01*
X112544D01*
X113199Y183624D01*
X113786Y183963D01*
X114173Y184351D01*
X114561Y183963D01*
X115148Y183624D01*
X115803Y183449D01*
X116481D01*
X117136Y183624D01*
X117723Y183963D01*
X118110Y184351D01*
X118498Y183963D01*
X119085Y183624D01*
X119740Y183449D01*
X120418D01*
X121073Y183624D01*
X121660Y183963D01*
X122047Y184351D01*
X122435Y183963D01*
X123022Y183624D01*
X123677Y183449D01*
X124355D01*
X125010Y183624D01*
X125597Y183963D01*
X126076Y184443D01*
X126415Y185030D01*
X126591Y185685D01*
Y186363D01*
X126415Y187018D01*
X126076Y187605D01*
X125689Y187992D01*
X126076Y188380D01*
X126415Y188967D01*
X126591Y189622D01*
Y190300D01*
X126415Y190954D01*
X126076Y191542D01*
X125689Y191929D01*
X126076Y192317D01*
X126415Y192904D01*
X126591Y193559D01*
Y194237D01*
X126415Y194892D01*
X126076Y195479D01*
X125597Y195958D01*
X125010Y196297D01*
X124355Y196472D01*
D02*
G37*
G36*
X356624Y199493D02*
X355678D01*
X354803Y199131D01*
X354135Y198462D01*
X353773Y197588D01*
Y196642D01*
X354135Y195768D01*
X354803Y195099D01*
X355678Y194737D01*
X356624D01*
X357498Y195099D01*
X358167Y195768D01*
X358528Y196642D01*
Y197588D01*
X358167Y198462D01*
X357498Y199131D01*
X356624Y199493D01*
D02*
G37*
G36*
X224344Y200359D02*
Y196604D01*
X223844D01*
Y196104D01*
X220090D01*
X220344Y195155D01*
X220839Y194298D01*
X221538Y193599D01*
X222394Y193104D01*
X223350Y192849D01*
X223777D01*
X224395Y192639D01*
X224395Y192639D01*
X224395D01*
X224519Y192172D01*
X224495Y192162D01*
X224047Y191977D01*
X223378Y191308D01*
X223312Y191149D01*
X222554D01*
X222488Y191308D01*
X221819Y191977D01*
X220945Y192339D01*
X219999D01*
X219125Y191977D01*
X218457Y191308D01*
X218391Y191149D01*
X217633D01*
X217567Y191308D01*
X216898Y191977D01*
X216024Y192339D01*
X215078D01*
X214204Y191977D01*
X213535Y191308D01*
X213173Y190434D01*
Y189488D01*
X213535Y188614D01*
X214204Y187945D01*
X214363Y187879D01*
Y187121D01*
X214204Y187055D01*
X213535Y186386D01*
X213173Y185512D01*
Y184566D01*
X213535Y183692D01*
X214204Y183023D01*
X215078Y182661D01*
X216024D01*
X216898Y183023D01*
X217567Y183692D01*
X217633Y183851D01*
X218391D01*
X218457Y183692D01*
X219125Y183023D01*
X219999Y182661D01*
X220945D01*
X221819Y183023D01*
X222488Y183692D01*
X222850Y184566D01*
Y185512D01*
X222488Y186386D01*
X221819Y187055D01*
X221660Y187121D01*
Y187879D01*
X221819Y187945D01*
X222488Y188614D01*
X222554Y188773D01*
X223312D01*
X223378Y188614D01*
X224047Y187945D01*
X224921Y187583D01*
X225867D01*
X226741Y187945D01*
X227410Y188614D01*
X227476Y188773D01*
X228233D01*
X228299Y188614D01*
X228968Y187945D01*
X229842Y187583D01*
X230788D01*
X231662Y187945D01*
X232331Y188614D01*
X232693Y189488D01*
Y190434D01*
X232331Y191308D01*
X231662Y191977D01*
X230788Y192339D01*
X229842D01*
X228968Y191977D01*
X228299Y191308D01*
X228233Y191149D01*
X227476D01*
X227410Y191308D01*
X226741Y191977D01*
X225867Y192339D01*
X225194D01*
X225140Y192339D01*
X225083Y192775D01*
X225544Y193249D01*
X226150Y193599D01*
X226850Y194298D01*
X227310Y195096D01*
X227411Y195167D01*
X228105Y195290D01*
X228358Y195038D01*
X229232Y194676D01*
X230177D01*
X231051Y195038D01*
X231565Y195551D01*
X232113Y195003D01*
X232987Y194641D01*
X233933D01*
X234807Y195003D01*
X235476Y195672D01*
X235838Y196546D01*
Y197492D01*
X235476Y198366D01*
X234807Y199035D01*
X233933Y199397D01*
X232987D01*
X232113Y199035D01*
X231600Y198521D01*
X231051Y199070D01*
X230177Y199432D01*
X229232D01*
X228358Y199070D01*
X227856Y198568D01*
X227195Y198559D01*
X227020Y198616D01*
X226850Y198911D01*
X226150Y199610D01*
X225294Y200104D01*
X224344Y200359D01*
D02*
G37*
G36*
X246496Y196104D02*
X243242D01*
Y192850D01*
X244192Y193104D01*
X245048Y193599D01*
X245747Y194298D01*
X246242Y195155D01*
X246496Y196104D01*
D02*
G37*
G36*
X242242D02*
X238987D01*
X239242Y195155D01*
X239736Y194298D01*
X240436Y193599D01*
X241292Y193104D01*
X242242Y192850D01*
Y196104D01*
D02*
G37*
G36*
X72341Y198818D02*
X71395D01*
X70521Y198456D01*
X69852Y197787D01*
X69490Y196913D01*
Y195967D01*
X69852Y195093D01*
X70521Y194424D01*
X71395Y194062D01*
X71574Y193795D01*
X71570Y193786D01*
Y192840D01*
X71932Y191966D01*
X72601Y191297D01*
X73475Y190935D01*
X74421D01*
X75295Y191297D01*
X75964Y191966D01*
X76326Y192840D01*
Y193786D01*
X75964Y194660D01*
X75295Y195329D01*
X74421Y195691D01*
X74242Y195959D01*
X74246Y195967D01*
Y196913D01*
X73884Y197787D01*
X73215Y198456D01*
X72341Y198818D01*
D02*
G37*
G36*
X172583Y191551D02*
X171905D01*
X171250Y191376D01*
X170663Y191037D01*
X170276Y190649D01*
X169888Y191037D01*
X169301Y191376D01*
X168646Y191551D01*
X167968D01*
X167313Y191376D01*
X166726Y191037D01*
X166339Y190649D01*
X165951Y191037D01*
X165364Y191376D01*
X164709Y191551D01*
X164031D01*
X163376Y191376D01*
X162789Y191037D01*
X162402Y190649D01*
X162014Y191037D01*
X161427Y191376D01*
X160772Y191551D01*
X160094D01*
X159439Y191376D01*
X158852Y191037D01*
X158465Y190649D01*
X158077Y191037D01*
X157490Y191376D01*
X156835Y191551D01*
X156157D01*
X155502Y191376D01*
X154915Y191037D01*
X154436Y190557D01*
X154097Y189970D01*
X153921Y189315D01*
Y188637D01*
X154097Y187982D01*
X154436Y187395D01*
X154915Y186916D01*
X155502Y186577D01*
X156157Y186402D01*
X156835D01*
X157490Y186577D01*
X158077Y186916D01*
X158465Y187304D01*
X158852Y186916D01*
X159439Y186577D01*
X160094Y186402D01*
X160772D01*
X161427Y186577D01*
X162014Y186916D01*
X162402Y187304D01*
X162789Y186916D01*
X163376Y186577D01*
X164031Y186402D01*
X164709D01*
X165364Y186577D01*
X165951Y186916D01*
X166339Y187304D01*
X166726Y186916D01*
X167313Y186577D01*
X167968Y186402D01*
X168646D01*
X169301Y186577D01*
X169888Y186916D01*
X170276Y187304D01*
X170663Y186916D01*
X171250Y186577D01*
X171905Y186402D01*
X172583D01*
X173238Y186577D01*
X173825Y186916D01*
X174304Y187395D01*
X174643Y187982D01*
X174819Y188637D01*
Y189315D01*
X174643Y189970D01*
X174304Y190557D01*
X173825Y191037D01*
X173238Y191376D01*
X172583Y191551D01*
D02*
G37*
G36*
X82784Y193774D02*
Y190520D01*
X86038D01*
X85783Y191469D01*
X85289Y192326D01*
X84590Y193025D01*
X83733Y193520D01*
X82784Y193774D01*
D02*
G37*
G36*
X63886Y193774D02*
Y190520D01*
X67140D01*
X66886Y191469D01*
X66391Y192326D01*
X65692Y193025D01*
X64836Y193520D01*
X63886Y193774D01*
D02*
G37*
G36*
X62886Y193774D02*
X61936Y193520D01*
X61080Y193025D01*
X60380Y192326D01*
X59886Y191469D01*
X59631Y190520D01*
X62886D01*
Y193774D01*
D02*
G37*
G36*
X81784Y193774D02*
X80834Y193520D01*
X79977Y193025D01*
X79278Y192326D01*
X78784Y191469D01*
X78529Y190520D01*
X81784D01*
Y193774D01*
D02*
G37*
G36*
X361916Y194333D02*
X360970D01*
X360097Y193971D01*
X359428Y193302D01*
X359066Y192428D01*
Y191482D01*
X359428Y190608D01*
X360097Y189939D01*
X360970Y189577D01*
X361916D01*
X362790Y189939D01*
X363459Y190608D01*
X363821Y191482D01*
Y192428D01*
X363459Y193302D01*
X362790Y193971D01*
X361916Y194333D01*
D02*
G37*
G36*
X309767Y203759D02*
X308821D01*
X307946Y203397D01*
X307278Y202728D01*
X306916Y201854D01*
Y201453D01*
X306828Y200894D01*
X306269Y200806D01*
X305868D01*
X304994Y200444D01*
X304325Y199776D01*
X303963Y198901D01*
Y198500D01*
X303875Y197942D01*
X303316Y197854D01*
X302915D01*
X302041Y197492D01*
X301372Y196823D01*
X301010Y195949D01*
Y195548D01*
X300922Y194989D01*
X300363Y194901D01*
X299962D01*
X299088Y194539D01*
X298419Y193870D01*
X298057Y192996D01*
Y192050D01*
X298419Y191176D01*
X299088Y190507D01*
X299962Y190145D01*
X300363D01*
X300922Y190057D01*
X301010Y189498D01*
Y189097D01*
X301372Y188223D01*
X302041Y187554D01*
X302915Y187192D01*
X303861D01*
X304735Y187554D01*
X305404Y188223D01*
X305766Y189097D01*
Y189498D01*
X305854Y190057D01*
X306413Y190145D01*
X306814D01*
X307688Y190507D01*
X308357Y191176D01*
X308719Y192050D01*
Y192451D01*
X308807Y193010D01*
X309365Y193098D01*
X309767D01*
X310641Y193460D01*
X311310Y194129D01*
X311671Y195003D01*
Y195404D01*
X311759Y195963D01*
X312318Y196051D01*
X312719D01*
X313593Y196413D01*
X314262Y197081D01*
X314624Y197955D01*
Y198901D01*
X314262Y199776D01*
X313593Y200444D01*
X312719Y200806D01*
X312318D01*
X311759Y200894D01*
X311671Y201453D01*
Y201854D01*
X311310Y202728D01*
X310641Y203397D01*
X309767Y203759D01*
D02*
G37*
G36*
X200803Y190370D02*
X197350D01*
Y186917D01*
X200803D01*
Y190370D01*
D02*
G37*
G36*
X196350D02*
X192898D01*
Y186917D01*
X196350D01*
Y190370D01*
D02*
G37*
G36*
X62886Y189520D02*
X59631D01*
X59886Y188570D01*
X60380Y187714D01*
X61080Y187014D01*
X61936Y186520D01*
X62886Y186265D01*
Y189520D01*
D02*
G37*
G36*
X86038D02*
X82784D01*
Y186265D01*
X83733Y186520D01*
X84590Y187014D01*
X85289Y187714D01*
X85783Y188570D01*
X86038Y189520D01*
D02*
G37*
G36*
X81784D02*
X78529D01*
X78784Y188570D01*
X79278Y187714D01*
X79977Y187014D01*
X80834Y186520D01*
X81784Y186265D01*
Y189520D01*
D02*
G37*
G36*
X67140D02*
X63886D01*
Y186265D01*
X64836Y186520D01*
X65692Y187014D01*
X66391Y187714D01*
X66886Y188570D01*
X67140Y189520D01*
D02*
G37*
G36*
X367628Y188431D02*
X366682D01*
X365808Y188068D01*
X365139Y187400D01*
X364777Y186526D01*
Y185580D01*
X365139Y184706D01*
X365808Y184037D01*
X366682Y183675D01*
X367628D01*
X368502Y184037D01*
X369171Y184706D01*
X369533Y185580D01*
Y186526D01*
X369171Y187400D01*
X368502Y188068D01*
X367628Y188431D01*
D02*
G37*
G36*
X356772Y188372D02*
X355826D01*
X354952Y188010D01*
X354283Y187341D01*
X353921Y186467D01*
Y185521D01*
X354283Y184647D01*
X354952Y183978D01*
X355826Y183616D01*
X356772D01*
X357646Y183978D01*
X358315Y184647D01*
X358677Y185521D01*
Y186467D01*
X358315Y187341D01*
X357646Y188010D01*
X356772Y188372D01*
D02*
G37*
G36*
X160772Y185646D02*
X160094D01*
X159439Y185470D01*
X158852Y185131D01*
X158373Y184652D01*
X158034Y184065D01*
X157858Y183410D01*
Y182732D01*
X158034Y182077D01*
X158373Y181490D01*
X158852Y181010D01*
X159439Y180672D01*
X160094Y180496D01*
X160772D01*
X161427Y180672D01*
X162014Y181010D01*
X162402Y181398D01*
X162789Y181010D01*
X163376Y180672D01*
X164031Y180496D01*
X164709D01*
X165364Y180672D01*
X165951Y181010D01*
X166339Y181398D01*
X166726Y181010D01*
X167313Y180672D01*
X167968Y180496D01*
X168646D01*
X169301Y180672D01*
X169888Y181010D01*
X170276Y181398D01*
X170663Y181010D01*
X171250Y180672D01*
X171905Y180496D01*
X172583D01*
X173238Y180672D01*
X173825Y181010D01*
X174304Y181490D01*
X174643Y182077D01*
X174819Y182732D01*
Y183410D01*
X174643Y184065D01*
X174304Y184652D01*
X173825Y185131D01*
X173238Y185470D01*
X172583Y185646D01*
X171905D01*
X171250Y185470D01*
X170663Y185131D01*
X170276Y184744D01*
X169888Y185131D01*
X169301Y185470D01*
X168646Y185646D01*
X167968D01*
X167313Y185470D01*
X166726Y185131D01*
X166339Y184744D01*
X165951Y185131D01*
X165364Y185470D01*
X164709Y185646D01*
X164031D01*
X163376Y185470D01*
X162789Y185131D01*
X162402Y184744D01*
X162014Y185131D01*
X161427Y185470D01*
X160772Y185646D01*
D02*
G37*
G36*
X90551Y184697D02*
X85252D01*
X84862Y184619D01*
X84531Y184398D01*
X84310Y184067D01*
X84232Y183677D01*
Y179134D01*
X84310Y178744D01*
X84531Y178413D01*
X84862Y178192D01*
X85252Y178114D01*
X90551D01*
X90941Y178192D01*
X91272Y178413D01*
X91493Y178744D01*
X91571Y179134D01*
Y183677D01*
X91493Y184067D01*
X91272Y184398D01*
X90941Y184619D01*
X90551Y184697D01*
D02*
G37*
G36*
X373065Y182790D02*
X372119D01*
X371245Y182428D01*
X370576Y181759D01*
X370214Y180885D01*
Y179939D01*
X370576Y179065D01*
X371245Y178396D01*
X372119Y178034D01*
X373065D01*
X373939Y178396D01*
X374607Y179065D01*
X374970Y179939D01*
Y180885D01*
X374607Y181759D01*
X373939Y182428D01*
X373065Y182790D01*
D02*
G37*
G36*
X58524Y186648D02*
X57618D01*
X57357Y186614D01*
X57093Y186613D01*
X57034Y186606D01*
X56976Y186598D01*
X56957Y186593D01*
X56939Y186592D01*
X56884Y186585D01*
X56659Y186522D01*
X56590Y186513D01*
X56589Y186512D01*
X56422Y186490D01*
X56363Y186475D01*
X56330Y186461D01*
X56295Y186456D01*
X56240Y186440D01*
X56121Y186389D01*
X55995Y186362D01*
X55940Y186342D01*
X55830Y186286D01*
X55711Y186252D01*
X55656Y186229D01*
X55609Y186201D01*
X55556Y186184D01*
X55505Y186161D01*
X55402Y186095D01*
X55287Y186052D01*
X55236Y186024D01*
X55147Y185960D01*
X55142Y185956D01*
X55037Y185909D01*
X54986Y185878D01*
X54935Y185847D01*
X54755Y185700D01*
X54735Y185691D01*
X54709Y185669D01*
X54590Y185602D01*
X54543Y185567D01*
X54450Y185476D01*
X54344Y185403D01*
X54301Y185363D01*
X54296Y185357D01*
X54254Y185328D01*
X54211Y185289D01*
X54088Y185144D01*
X53944Y185021D01*
X53904Y184978D01*
X53875Y184936D01*
X53869Y184931D01*
X53830Y184888D01*
X53756Y184782D01*
X53666Y184689D01*
X53630Y184642D01*
X53563Y184523D01*
X53541Y184497D01*
X53537Y184487D01*
X53432Y184368D01*
X53400Y184320D01*
X53395Y184309D01*
X53386Y184298D01*
X53354Y184247D01*
X53300Y184125D01*
X53238Y184037D01*
X53226Y184002D01*
X53153Y183894D01*
X53125Y183839D01*
X53105Y183780D01*
X53072Y183727D01*
X53048Y183676D01*
X53032Y183623D01*
X53004Y183576D01*
X52980Y183521D01*
X52947Y183402D01*
X52890Y183293D01*
X52871Y183238D01*
X52843Y183111D01*
X52792Y182993D01*
X52776Y182938D01*
X52771Y182902D01*
X52758Y182870D01*
X52742Y182811D01*
X52720Y182643D01*
X52719Y182642D01*
X52710Y182573D01*
X52648Y182349D01*
X52640Y182294D01*
X52640Y182275D01*
X52635Y182257D01*
X52627Y182198D01*
X52619Y182139D01*
X52619Y182013D01*
X52617Y182007D01*
X52617Y181867D01*
X52584Y181614D01*
Y181496D01*
X52617Y181243D01*
X52617Y181103D01*
X52619Y181097D01*
X52619Y180971D01*
X52627Y180912D01*
X52635Y180853D01*
X52640Y180835D01*
X52640Y180817D01*
X52648Y180762D01*
X52710Y180537D01*
X52719Y180468D01*
X52720Y180467D01*
X52742Y180300D01*
X52758Y180241D01*
X52771Y180208D01*
X52776Y180173D01*
X52792Y180118D01*
X52843Y179999D01*
X52871Y179873D01*
X52890Y179817D01*
X52947Y179708D01*
X52980Y179589D01*
X53004Y179534D01*
X53032Y179487D01*
X53048Y179434D01*
X53072Y179383D01*
X53105Y179330D01*
X53125Y179271D01*
X53153Y179216D01*
X53226Y179108D01*
X53238Y179074D01*
X53300Y178985D01*
X53354Y178864D01*
X53386Y178812D01*
X53395Y178802D01*
X53400Y178790D01*
X53432Y178743D01*
X53537Y178623D01*
X53541Y178613D01*
X53563Y178587D01*
X53630Y178468D01*
X53666Y178421D01*
X53756Y178328D01*
X53830Y178222D01*
X53869Y178179D01*
X53875Y178174D01*
X53904Y178132D01*
X53944Y178089D01*
X54088Y177966D01*
X54211Y177822D01*
X54254Y177782D01*
X54296Y177753D01*
X54301Y177747D01*
X54344Y177708D01*
X54450Y177634D01*
X54543Y177543D01*
X54590Y177508D01*
X54709Y177441D01*
X54735Y177419D01*
X54755Y177410D01*
X54935Y177264D01*
X55037Y177201D01*
X55142Y177154D01*
X55147Y177150D01*
X55236Y177086D01*
X55287Y177059D01*
X55402Y177015D01*
X55505Y176950D01*
X55556Y176926D01*
X55609Y176910D01*
X55656Y176882D01*
X55711Y176858D01*
X55830Y176825D01*
X55940Y176768D01*
X55995Y176749D01*
X56121Y176721D01*
X56240Y176670D01*
X56295Y176654D01*
X56330Y176649D01*
X56363Y176636D01*
X56422Y176620D01*
X56589Y176598D01*
X56590Y176597D01*
X56659Y176588D01*
X56884Y176526D01*
X56939Y176518D01*
X56957Y176517D01*
X56976Y176513D01*
X57034Y176505D01*
X57093Y176497D01*
X57357Y176497D01*
X57618Y176462D01*
X58524D01*
X58785Y176497D01*
X59049Y176497D01*
X59107Y176505D01*
X59166Y176513D01*
X59184Y176517D01*
X59203Y176518D01*
X59258Y176526D01*
X59483Y176588D01*
X59551Y176597D01*
X59553Y176598D01*
X59720Y176620D01*
X59779Y176636D01*
X59812Y176649D01*
X59847Y176654D01*
X59902Y176670D01*
X60021Y176721D01*
X60147Y176749D01*
X60202Y176768D01*
X60312Y176825D01*
X60431Y176858D01*
X60486Y176882D01*
X60533Y176910D01*
X60585Y176926D01*
X60636Y176950D01*
X60740Y177015D01*
X60855Y177059D01*
X60906Y177086D01*
X60999Y177153D01*
X61000Y177154D01*
X61105Y177201D01*
X61156Y177232D01*
X61207Y177264D01*
X61387Y177410D01*
X61407Y177419D01*
X61433Y177441D01*
X61552Y177508D01*
X61599Y177544D01*
X61691Y177634D01*
X61797Y177707D01*
X61840Y177747D01*
X61846Y177753D01*
X61888Y177782D01*
X61931Y177822D01*
X62053Y177966D01*
X62198Y178089D01*
X62238Y178132D01*
X62266Y178174D01*
X62273Y178179D01*
X62312Y178222D01*
X62386Y178328D01*
X62476Y178421D01*
X62512Y178468D01*
X62579Y178587D01*
X62600Y178613D01*
X62605Y178623D01*
X62710Y178743D01*
X62741Y178790D01*
X62747Y178802D01*
X62756Y178812D01*
X62787Y178864D01*
X62841Y178985D01*
X62903Y179074D01*
X62916Y179108D01*
X62989Y179216D01*
X63016Y179271D01*
X63037Y179330D01*
X63070Y179383D01*
X63094Y179434D01*
X63110Y179487D01*
X63138Y179534D01*
X63161Y179589D01*
X63195Y179708D01*
X63252Y179818D01*
X63271Y179873D01*
X63298Y179999D01*
X63350Y180118D01*
X63365Y180173D01*
X63371Y180208D01*
X63384Y180241D01*
X63400Y180300D01*
X63422Y180467D01*
X63422Y180468D01*
X63431Y180537D01*
X63494Y180762D01*
X63502Y180817D01*
X63502Y180835D01*
X63507Y180853D01*
X63515Y180912D01*
X63523Y180971D01*
X63523Y181097D01*
X63525Y181103D01*
X63524Y181243D01*
X63558Y181496D01*
Y181614D01*
X63524Y181867D01*
X63525Y182007D01*
X63523Y182013D01*
X63523Y182139D01*
X63515Y182198D01*
X63507Y182257D01*
X63502Y182275D01*
X63502Y182294D01*
X63494Y182349D01*
X63431Y182573D01*
X63422Y182642D01*
X63422Y182643D01*
X63400Y182811D01*
X63384Y182870D01*
X63371Y182902D01*
X63365Y182938D01*
X63350Y182993D01*
X63298Y183111D01*
X63271Y183237D01*
X63252Y183292D01*
X63195Y183402D01*
X63161Y183521D01*
X63138Y183577D01*
X63110Y183624D01*
X63094Y183676D01*
X63070Y183727D01*
X63037Y183780D01*
X63016Y183839D01*
X62989Y183894D01*
X62916Y184002D01*
X62903Y184037D01*
X62841Y184125D01*
X62787Y184247D01*
X62756Y184298D01*
X62747Y184309D01*
X62741Y184320D01*
X62710Y184368D01*
X62605Y184487D01*
X62600Y184497D01*
X62579Y184523D01*
X62512Y184642D01*
X62476Y184689D01*
X62386Y184782D01*
X62312Y184888D01*
X62273Y184931D01*
X62266Y184936D01*
X62238Y184978D01*
X62198Y185021D01*
X62053Y185144D01*
X61931Y185289D01*
X61888Y185328D01*
X61846Y185357D01*
X61840Y185364D01*
X61797Y185403D01*
X61691Y185476D01*
X61599Y185567D01*
X61552Y185602D01*
X61433Y185669D01*
X61407Y185691D01*
X61387Y185700D01*
X61207Y185847D01*
X61105Y185909D01*
X61000Y185956D01*
X60999Y185957D01*
X60906Y186024D01*
X60855Y186051D01*
X60740Y186095D01*
X60636Y186161D01*
X60585Y186184D01*
X60533Y186201D01*
X60486Y186229D01*
X60431Y186252D01*
X60312Y186286D01*
X60202Y186342D01*
X60147Y186362D01*
X60021Y186389D01*
X59902Y186440D01*
X59847Y186456D01*
X59812Y186461D01*
X59779Y186475D01*
X59720Y186490D01*
X59553Y186512D01*
X59551Y186513D01*
X59483Y186522D01*
X59258Y186585D01*
X59203Y186592D01*
X59184Y186593D01*
X59166Y186598D01*
X59107Y186606D01*
X59049Y186613D01*
X58785Y186614D01*
X58524Y186648D01*
D02*
G37*
G36*
X368499Y179082D02*
X367553D01*
X366679Y178720D01*
X366010Y178051D01*
X365648Y177177D01*
Y176231D01*
X366010Y175357D01*
X366679Y174688D01*
X367553Y174326D01*
X368499D01*
X369373Y174688D01*
X370042Y175357D01*
X370404Y176231D01*
Y177177D01*
X370042Y178051D01*
X369373Y178720D01*
X368499Y179082D01*
D02*
G37*
G36*
X82784Y176845D02*
Y173591D01*
X86038D01*
X85783Y174540D01*
X85289Y175397D01*
X84590Y176096D01*
X83733Y176591D01*
X82784Y176845D01*
D02*
G37*
G36*
X63886Y176845D02*
Y173591D01*
X67140D01*
X66886Y174540D01*
X66391Y175397D01*
X65692Y176096D01*
X64836Y176591D01*
X63886Y176845D01*
D02*
G37*
G36*
X62886Y176845D02*
X61936Y176591D01*
X61080Y176096D01*
X60380Y175397D01*
X59886Y174540D01*
X59631Y173591D01*
X62886D01*
Y176845D01*
D02*
G37*
G36*
X81784Y176845D02*
X80834Y176591D01*
X79977Y176096D01*
X79278Y175397D01*
X78784Y174540D01*
X78529Y173591D01*
X81784D01*
Y176845D01*
D02*
G37*
G36*
X343179Y181326D02*
X342233D01*
X341359Y180964D01*
X340690Y180295D01*
X340328Y179421D01*
Y178475D01*
X340690Y177601D01*
X341359Y176932D01*
X342233Y176570D01*
X343179D01*
X343816Y176834D01*
X344343Y176307D01*
X344079Y175670D01*
Y174724D01*
X344441Y173850D01*
X345110Y173181D01*
X345984Y172819D01*
X346930D01*
X347804Y173181D01*
X348473Y173850D01*
X348835Y174724D01*
Y175670D01*
X348473Y176544D01*
X347804Y177213D01*
X346930Y177575D01*
X345984D01*
X345346Y177311D01*
X344820Y177837D01*
X345084Y178475D01*
Y179421D01*
X344722Y180295D01*
X344053Y180964D01*
X343179Y181326D01*
D02*
G37*
G36*
X288859Y177575D02*
X287913D01*
X287039Y177213D01*
X286370Y176544D01*
X286008Y175670D01*
Y174724D01*
X286370Y173850D01*
X287039Y173181D01*
X287913Y172819D01*
X288859D01*
X289733Y173181D01*
X290402Y173850D01*
X290764Y174724D01*
Y175670D01*
X290402Y176544D01*
X289733Y177213D01*
X288859Y177575D01*
D02*
G37*
G36*
X314646Y177181D02*
X313700D01*
X312826Y176819D01*
X312157Y176150D01*
X311795Y175276D01*
Y174330D01*
X312157Y173456D01*
X312826Y172787D01*
X313700Y172425D01*
X314646D01*
X315520Y172787D01*
X316189Y173456D01*
X316551Y174330D01*
Y175276D01*
X316189Y176150D01*
X315520Y176819D01*
X314646Y177181D01*
D02*
G37*
G36*
X328268Y175651D02*
X327322D01*
X326448Y175289D01*
X325779Y174620D01*
X325417Y173746D01*
Y172800D01*
X325779Y171926D01*
X326448Y171257D01*
X327322Y170895D01*
X328268D01*
X329142Y171257D01*
X329811Y171926D01*
X330173Y172800D01*
Y173746D01*
X329811Y174620D01*
X329142Y175289D01*
X328268Y175651D01*
D02*
G37*
G36*
X294160Y174689D02*
X293214D01*
X292340Y174327D01*
X291671Y173658D01*
X291309Y172784D01*
Y171838D01*
X291671Y170964D01*
X292340Y170295D01*
X293214Y169933D01*
X294160D01*
X295034Y170295D01*
X295703Y170964D01*
X296065Y171838D01*
Y172784D01*
X295703Y173658D01*
X295034Y174327D01*
X294160Y174689D01*
D02*
G37*
G36*
X62886Y172591D02*
X59631D01*
X59886Y171641D01*
X60380Y170784D01*
X61080Y170085D01*
X61936Y169591D01*
X62886Y169336D01*
Y172591D01*
D02*
G37*
G36*
X86038D02*
X82784D01*
Y169336D01*
X83733Y169591D01*
X84590Y170085D01*
X85289Y170784D01*
X85783Y171641D01*
X86038Y172591D01*
D02*
G37*
G36*
X81784D02*
X78529D01*
X78784Y171641D01*
X79278Y170784D01*
X79977Y170085D01*
X80834Y169591D01*
X81784Y169336D01*
Y172591D01*
D02*
G37*
G36*
X67140D02*
X63886D01*
Y169336D01*
X64836Y169591D01*
X65692Y170085D01*
X66391Y170784D01*
X66886Y171641D01*
X67140Y172591D01*
D02*
G37*
G36*
X350867Y173638D02*
X349921D01*
X349047Y173276D01*
X348378Y172607D01*
X348016Y171733D01*
Y170787D01*
X348378Y169913D01*
X349047Y169244D01*
X349921Y168882D01*
X350867D01*
X351741Y169244D01*
X352410Y169913D01*
X352772Y170787D01*
Y171733D01*
X352410Y172607D01*
X351741Y173276D01*
X350867Y173638D01*
D02*
G37*
G36*
X409922Y172653D02*
X408976D01*
X408102Y172292D01*
X407433Y171623D01*
X407071Y170749D01*
Y169803D01*
X407433Y168929D01*
X408102Y168260D01*
X408976Y167898D01*
X409922D01*
X410796Y168260D01*
X411465Y168929D01*
X411827Y169803D01*
Y170749D01*
X411465Y171623D01*
X410796Y172292D01*
X409922Y172653D01*
D02*
G37*
G36*
X50197Y193307D02*
X24606D01*
Y179528D01*
X24697D01*
X25086Y178946D01*
X24871Y178427D01*
X24606Y177096D01*
Y175739D01*
X24871Y174408D01*
X25390Y173154D01*
X26144Y172025D01*
X27104Y171066D01*
X28232Y170312D01*
X28689Y170123D01*
X28805Y169317D01*
X28333Y168844D01*
X27813Y167943D01*
X27543Y166938D01*
Y166917D01*
X31496D01*
X35449D01*
Y166938D01*
X35179Y167943D01*
X34659Y168844D01*
X34187Y169317D01*
X34304Y170123D01*
X34760Y170312D01*
X35888Y171066D01*
X36848Y172025D01*
X37052Y172330D01*
X37752D01*
X37955Y172025D01*
X38915Y171066D01*
X40044Y170312D01*
X40500Y170123D01*
X40616Y169317D01*
X40144Y168844D01*
X39624Y167943D01*
X39354Y166938D01*
Y166917D01*
X43307D01*
X47260D01*
Y166938D01*
X46990Y167943D01*
X46470Y168844D01*
X45998Y169317D01*
X46115Y170123D01*
X46571Y170312D01*
X47699Y171066D01*
X48659Y172025D01*
X49413Y173154D01*
X49932Y174408D01*
X50197Y175739D01*
Y177096D01*
X49932Y178427D01*
X49717Y178946D01*
X50106Y179528D01*
X50197D01*
Y193307D01*
D02*
G37*
G36*
X305197Y170882D02*
X304251D01*
X303377Y170520D01*
X302709Y169851D01*
X302346Y168977D01*
Y168031D01*
X302709Y167157D01*
X303377Y166488D01*
X304251Y166126D01*
X305197D01*
X306071Y166488D01*
X306740Y167157D01*
X307102Y168031D01*
Y168977D01*
X306740Y169851D01*
X306071Y170520D01*
X305197Y170882D01*
D02*
G37*
G36*
X335409Y168963D02*
X334463D01*
X333589Y168601D01*
X332920Y167932D01*
X332558Y167058D01*
Y166112D01*
X332920Y165238D01*
X333589Y164569D01*
X334463Y164207D01*
X335409D01*
X336283Y164569D01*
X336952Y165238D01*
X337314Y166112D01*
Y167058D01*
X336952Y167932D01*
X336283Y168601D01*
X335409Y168963D01*
D02*
G37*
G36*
X405001Y167732D02*
X404055D01*
X403181Y167370D01*
X402512Y166701D01*
X402150Y165827D01*
Y164881D01*
X402512Y164007D01*
X403181Y163338D01*
X404055Y162976D01*
X405001D01*
X405875Y163338D01*
X406543Y164007D01*
X406906Y164881D01*
Y165827D01*
X406543Y166701D01*
X405875Y167370D01*
X405001Y167732D01*
D02*
G37*
G36*
X354804D02*
X353858D01*
X352984Y167370D01*
X352315Y166701D01*
X351953Y165827D01*
Y164881D01*
X352315Y164007D01*
X352984Y163338D01*
X353858Y162976D01*
X354804D01*
X355678Y163338D01*
X356347Y164007D01*
X356709Y164881D01*
Y165827D01*
X356347Y166701D01*
X355678Y167370D01*
X354804Y167732D01*
D02*
G37*
G36*
X47260Y165917D02*
X43807D01*
Y162465D01*
X43828D01*
X44833Y162734D01*
X45734Y163254D01*
X46470Y163990D01*
X46990Y164892D01*
X47260Y165897D01*
Y165917D01*
D02*
G37*
G36*
X42807D02*
X39354D01*
Y165897D01*
X39624Y164892D01*
X40144Y163990D01*
X40880Y163254D01*
X41781Y162734D01*
X42787Y162465D01*
X42807D01*
Y165917D01*
D02*
G37*
G36*
X35449Y165917D02*
X31996D01*
Y162465D01*
X32016D01*
X33022Y162734D01*
X33923Y163254D01*
X34659Y163990D01*
X35179Y164892D01*
X35449Y165897D01*
Y165917D01*
D02*
G37*
G36*
X30996D02*
X27543D01*
Y165897D01*
X27813Y164892D01*
X28333Y163990D01*
X29069Y163254D01*
X29970Y162734D01*
X30976Y162465D01*
X30996D01*
Y165917D01*
D02*
G37*
G36*
X76260Y169701D02*
X75314D01*
X74440Y169339D01*
X73772Y168670D01*
X73409Y167796D01*
Y166850D01*
X73772Y165976D01*
X74393Y165354D01*
X73772Y164733D01*
X73409Y163859D01*
Y162913D01*
X73772Y162039D01*
X74440Y161370D01*
X75314Y161008D01*
X76260D01*
X77134Y161370D01*
X77803Y162039D01*
X78165Y162913D01*
Y163859D01*
X77803Y164733D01*
X77182Y165354D01*
X77803Y165976D01*
X78165Y166850D01*
Y167796D01*
X77803Y168670D01*
X77134Y169339D01*
X76260Y169701D01*
D02*
G37*
G36*
X350124Y163119D02*
X349178D01*
X348304Y162757D01*
X347635Y162088D01*
X347273Y161214D01*
Y160268D01*
X347635Y159394D01*
X348304Y158725D01*
X349178Y158363D01*
X350124D01*
X350998Y158725D01*
X351667Y159394D01*
X352029Y160268D01*
Y161214D01*
X351667Y162088D01*
X350998Y162757D01*
X350124Y163119D01*
D02*
G37*
G36*
X43828Y160370D02*
X43807D01*
Y156917D01*
X47260D01*
Y156938D01*
X46990Y157943D01*
X46470Y158844D01*
X45734Y159580D01*
X44833Y160101D01*
X43828Y160370D01*
D02*
G37*
G36*
X42807D02*
X42787D01*
X41781Y160101D01*
X40880Y159580D01*
X40144Y158844D01*
X39624Y157943D01*
X39354Y156938D01*
Y156917D01*
X42807D01*
Y160370D01*
D02*
G37*
G36*
X32016D02*
X31996D01*
Y156917D01*
X35449D01*
Y156938D01*
X35179Y157943D01*
X34659Y158844D01*
X33923Y159580D01*
X33022Y160101D01*
X32016Y160370D01*
D02*
G37*
G36*
X30996D02*
X30976D01*
X29970Y160101D01*
X29069Y159580D01*
X28333Y158844D01*
X27813Y157943D01*
X27543Y156938D01*
Y156917D01*
X30996D01*
Y160370D01*
D02*
G37*
G36*
X165754Y160022D02*
X164808D01*
X163934Y159660D01*
X163265Y158991D01*
X162903Y158117D01*
Y157171D01*
X163265Y156297D01*
X163934Y155628D01*
X164808Y155266D01*
X165754D01*
X166628Y155628D01*
X167297Y156297D01*
X167659Y157171D01*
Y158117D01*
X167297Y158991D01*
X166628Y159660D01*
X165754Y160022D01*
D02*
G37*
G36*
X345157Y158152D02*
X344211D01*
X343337Y157790D01*
X342668Y157121D01*
X342306Y156247D01*
Y155301D01*
X342668Y154427D01*
X343337Y153758D01*
X344211Y153396D01*
X345157D01*
X346031Y153758D01*
X346700Y154427D01*
X347062Y155301D01*
Y156247D01*
X346700Y157121D01*
X346031Y157790D01*
X345157Y158152D01*
D02*
G37*
G36*
X104804Y157890D02*
X103858D01*
X102984Y157528D01*
X102315Y156859D01*
X101953Y155985D01*
Y155039D01*
X102315Y154165D01*
X102984Y153496D01*
X103858Y153134D01*
X104804D01*
X105678Y153496D01*
X106347Y154165D01*
X106709Y155039D01*
Y155985D01*
X106347Y156859D01*
X105678Y157528D01*
X104804Y157890D01*
D02*
G37*
G36*
X314449Y156905D02*
X313503D01*
X312629Y156544D01*
X311960Y155875D01*
X311598Y155001D01*
Y154055D01*
X311960Y153181D01*
X312629Y152512D01*
X313503Y152150D01*
X314449D01*
X315323Y152512D01*
X315992Y153181D01*
X316354Y154055D01*
Y155001D01*
X315992Y155875D01*
X315323Y156544D01*
X314449Y156905D01*
D02*
G37*
G36*
X47260Y155917D02*
X43307D01*
X39354D01*
Y155897D01*
X39624Y154892D01*
X40144Y153990D01*
X40616Y153518D01*
X40500Y152712D01*
X40044Y152523D01*
X38915Y151769D01*
X37955Y150809D01*
X37752Y150504D01*
X37052D01*
X36848Y150809D01*
X35888Y151769D01*
X34760Y152523D01*
X34304Y152712D01*
X34187Y153518D01*
X34659Y153990D01*
X35179Y154892D01*
X35449Y155897D01*
Y155917D01*
X31496D01*
X27543D01*
Y155897D01*
X27813Y154892D01*
X28333Y153990D01*
X28805Y153518D01*
X28689Y152712D01*
X28232Y152523D01*
X27104Y151769D01*
X26144Y150809D01*
X25390Y149681D01*
X24871Y148427D01*
X24606Y147096D01*
Y145739D01*
X24871Y144408D01*
X25390Y143154D01*
X26144Y142025D01*
X26752Y141417D01*
X26144Y140809D01*
X25390Y139681D01*
X24871Y138427D01*
X24606Y137096D01*
Y135739D01*
X24871Y134408D01*
X25390Y133154D01*
X26144Y132025D01*
X27104Y131066D01*
X27225Y130985D01*
X27022Y130315D01*
X24606D01*
Y116535D01*
X24697D01*
X25086Y115953D01*
X24871Y115435D01*
X24606Y114104D01*
Y112747D01*
X24871Y111416D01*
X25390Y110162D01*
X26144Y109033D01*
X26752Y108425D01*
X26144Y107817D01*
X25390Y106689D01*
X24871Y105435D01*
X24606Y104104D01*
Y102747D01*
X24871Y101416D01*
X25390Y100162D01*
X26144Y99033D01*
X26752Y98425D01*
X26144Y97817D01*
X25390Y96689D01*
X24871Y95435D01*
X24606Y94104D01*
Y92747D01*
X24871Y91416D01*
X25390Y90162D01*
X26144Y89033D01*
X26752Y88425D01*
X26144Y87817D01*
X25390Y86689D01*
X24871Y85435D01*
X24606Y84104D01*
Y82747D01*
X24871Y81415D01*
X25390Y80162D01*
X26144Y79033D01*
X27104Y78074D01*
X28232Y77320D01*
X28689Y77131D01*
X28805Y76325D01*
X28333Y75852D01*
X27813Y74951D01*
X27543Y73946D01*
Y73925D01*
X31496D01*
X35449D01*
Y73946D01*
X35179Y74951D01*
X34659Y75852D01*
X34187Y76325D01*
X34304Y77131D01*
X34760Y77320D01*
X35888Y78074D01*
X36848Y79033D01*
X37052Y79338D01*
X37752D01*
X37955Y79033D01*
X38563Y78425D01*
X37955Y77817D01*
X37201Y76689D01*
X36682Y75435D01*
X36417Y74104D01*
Y72747D01*
X36682Y71416D01*
X37201Y70162D01*
X37955Y69033D01*
X38915Y68074D01*
X40044Y67320D01*
X41297Y66800D01*
X42628Y66535D01*
X43986D01*
X45317Y66800D01*
X46571Y67320D01*
X47699Y68074D01*
X48659Y69033D01*
X49413Y70162D01*
X49932Y71416D01*
X50197Y72747D01*
Y74104D01*
X49932Y75435D01*
X49413Y76689D01*
X48659Y77817D01*
X48051Y78425D01*
X48659Y79033D01*
X49413Y80162D01*
X49932Y81415D01*
X50197Y82747D01*
Y84104D01*
X49932Y85435D01*
X49413Y86689D01*
X48659Y87817D01*
X48051Y88425D01*
X48659Y89033D01*
X49413Y90162D01*
X49932Y91416D01*
X50197Y92747D01*
Y94104D01*
X49932Y95435D01*
X49413Y96689D01*
X48659Y97817D01*
X48051Y98425D01*
X48659Y99033D01*
X49413Y100162D01*
X49932Y101416D01*
X50197Y102747D01*
Y104104D01*
X49932Y105435D01*
X49413Y106689D01*
X48659Y107817D01*
X48051Y108425D01*
X48659Y109033D01*
X49413Y110162D01*
X49932Y111416D01*
X50197Y112747D01*
Y114104D01*
X49932Y115435D01*
X49717Y115953D01*
X50106Y116535D01*
X50197D01*
Y130315D01*
X47781D01*
X47578Y130985D01*
X47699Y131066D01*
X48659Y132025D01*
X49413Y133154D01*
X49932Y134408D01*
X50197Y135739D01*
Y137096D01*
X49932Y138427D01*
X49413Y139681D01*
X48659Y140809D01*
X48051Y141417D01*
X48659Y142025D01*
X49413Y143154D01*
X49932Y144408D01*
X50197Y145739D01*
Y147096D01*
X49932Y148427D01*
X49413Y149681D01*
X48659Y150809D01*
X47699Y151769D01*
X46571Y152523D01*
X46115Y152712D01*
X45998Y153518D01*
X46470Y153990D01*
X46990Y154892D01*
X47260Y155897D01*
Y155917D01*
D02*
G37*
G36*
X473898Y164779D02*
X472952D01*
X472078Y164418D01*
X471409Y163749D01*
X471047Y162875D01*
Y161929D01*
X471409Y161055D01*
X472078Y160386D01*
X472237Y160320D01*
Y159562D01*
X472078Y159496D01*
X471409Y158827D01*
X471047Y157953D01*
Y157007D01*
X471409Y156133D01*
X472078Y155464D01*
X472237Y155398D01*
Y154641D01*
X472078Y154575D01*
X471409Y153906D01*
X471047Y153032D01*
Y152086D01*
X471409Y151212D01*
X472078Y150543D01*
X472952Y150181D01*
X473898D01*
X474772Y150543D01*
X475441Y151212D01*
X475803Y152086D01*
Y153032D01*
X475441Y153906D01*
X474772Y154575D01*
X474613Y154641D01*
Y155398D01*
X474772Y155464D01*
X475441Y156133D01*
X475803Y157007D01*
Y157953D01*
X475441Y158827D01*
X474772Y159496D01*
X474613Y159562D01*
Y160320D01*
X474772Y160386D01*
X475441Y161055D01*
X475803Y161929D01*
Y162875D01*
X475441Y163749D01*
X474772Y164418D01*
X473898Y164779D01*
D02*
G37*
G36*
X467993D02*
X467047D01*
X466173Y164418D01*
X465504Y163749D01*
X465142Y162875D01*
Y161929D01*
X465504Y161055D01*
X466173Y160386D01*
X466332Y160320D01*
Y159562D01*
X466173Y159496D01*
X465504Y158827D01*
X465142Y157953D01*
Y157007D01*
X465504Y156133D01*
X466173Y155464D01*
X466332Y155398D01*
Y154641D01*
X466173Y154575D01*
X465504Y153906D01*
X465142Y153032D01*
Y152086D01*
X465504Y151212D01*
X466173Y150543D01*
X467047Y150181D01*
X467993D01*
X468867Y150543D01*
X469536Y151212D01*
X469898Y152086D01*
Y153032D01*
X469536Y153906D01*
X468867Y154575D01*
X468708Y154641D01*
Y155398D01*
X468867Y155464D01*
X469536Y156133D01*
X469898Y157007D01*
Y157953D01*
X469536Y158827D01*
X468867Y159496D01*
X468708Y159562D01*
Y160320D01*
X468867Y160386D01*
X469536Y161055D01*
X469898Y161929D01*
Y162875D01*
X469536Y163749D01*
X468867Y164418D01*
X467993Y164779D01*
D02*
G37*
G36*
X310512Y152969D02*
X309566D01*
X308692Y152606D01*
X308024Y151938D01*
X307661Y151064D01*
Y150118D01*
X308024Y149244D01*
X308692Y148575D01*
X309566Y148213D01*
X310512D01*
X311386Y148575D01*
X312055Y149244D01*
X312417Y150118D01*
Y151064D01*
X312055Y151938D01*
X311386Y152606D01*
X310512Y152969D01*
D02*
G37*
G36*
X512311Y146498D02*
Y143610D01*
X515199D01*
X514981Y144423D01*
X514533Y145199D01*
X513900Y145832D01*
X513124Y146280D01*
X512311Y146498D01*
D02*
G37*
G36*
X511311D02*
X510498Y146280D01*
X509722Y145832D01*
X509089Y145199D01*
X508641Y144423D01*
X508423Y143610D01*
X511311D01*
Y146498D01*
D02*
G37*
G36*
X524122Y146498D02*
Y143610D01*
X527010D01*
X526792Y144423D01*
X526344Y145199D01*
X525711Y145832D01*
X524935Y146280D01*
X524122Y146498D01*
D02*
G37*
G36*
X523122Y146498D02*
X522309Y146280D01*
X521533Y145832D01*
X520900Y145199D01*
X520452Y144423D01*
X520234Y143610D01*
X523122D01*
Y146498D01*
D02*
G37*
G36*
X469329Y145095D02*
X468383D01*
X467509Y144732D01*
X466840Y144063D01*
X466478Y143190D01*
Y142244D01*
X466840Y141369D01*
X467509Y140701D01*
X468383Y140339D01*
X469329D01*
X470203Y140701D01*
X470872Y141369D01*
X471234Y142244D01*
Y143190D01*
X470872Y144063D01*
X470203Y144732D01*
X469329Y145095D01*
D02*
G37*
G36*
X449109D02*
X448163D01*
X447289Y144732D01*
X446620Y144063D01*
X446258Y143190D01*
Y142244D01*
X446620Y141369D01*
X447289Y140701D01*
X448163Y140339D01*
X449109D01*
X449983Y140701D01*
X450652Y141369D01*
X451014Y142244D01*
Y143190D01*
X450652Y144063D01*
X449983Y144732D01*
X449109Y145095D01*
D02*
G37*
G36*
X435512D02*
X434566D01*
X433692Y144732D01*
X433023Y144063D01*
X432661Y143190D01*
Y142244D01*
X433023Y141369D01*
X433692Y140701D01*
X434566Y140339D01*
X435512D01*
X436386Y140701D01*
X437055Y141369D01*
X437417Y142244D01*
Y143190D01*
X437055Y144063D01*
X436386Y144732D01*
X435512Y145095D01*
D02*
G37*
G36*
X421733D02*
X420787D01*
X419913Y144732D01*
X419244Y144063D01*
X418882Y143190D01*
Y142244D01*
X419244Y141369D01*
X419913Y140701D01*
X420787Y140339D01*
X421733D01*
X422607Y140701D01*
X423276Y141369D01*
X423638Y142244D01*
Y143190D01*
X423276Y144063D01*
X422607Y144732D01*
X421733Y145095D01*
D02*
G37*
G36*
X401063D02*
X400117D01*
X399244Y144732D01*
X398575Y144063D01*
X398213Y143190D01*
Y142244D01*
X398575Y141369D01*
X399244Y140701D01*
X400117Y140339D01*
X401063D01*
X401938Y140701D01*
X402606Y141369D01*
X402969Y142244D01*
Y143190D01*
X402606Y144063D01*
X401938Y144732D01*
X401063Y145095D01*
D02*
G37*
G36*
X527010Y142610D02*
X524122D01*
Y139723D01*
X524935Y139941D01*
X525711Y140388D01*
X526344Y141022D01*
X526792Y141797D01*
X527010Y142610D01*
D02*
G37*
G36*
X515199Y142610D02*
X512311D01*
Y139723D01*
X513124Y139941D01*
X513900Y140388D01*
X514533Y141022D01*
X514981Y141797D01*
X515199Y142610D01*
D02*
G37*
G36*
X511311D02*
X508423D01*
X508641Y141797D01*
X509089Y141022D01*
X509722Y140388D01*
X510498Y139941D01*
X511311Y139723D01*
Y142610D01*
D02*
G37*
G36*
X523122Y142610D02*
X520234D01*
X520452Y141797D01*
X520900Y141022D01*
X521533Y140388D01*
X522309Y139941D01*
X523122Y139723D01*
Y142610D01*
D02*
G37*
G36*
X169162Y147648D02*
X168484D01*
X167830Y147472D01*
X167243Y147133D01*
X166763Y146654D01*
X166424Y146067D01*
X166249Y145412D01*
Y144734D01*
X166424Y144079D01*
X166763Y143492D01*
X166794Y143461D01*
X167229Y142998D01*
X166794Y142535D01*
X166763Y142504D01*
X166424Y141917D01*
X166249Y141262D01*
Y140584D01*
X166424Y139929D01*
X166763Y139342D01*
X167243Y138863D01*
X167830Y138524D01*
X168484Y138348D01*
X169162D01*
X169817Y138524D01*
X170405Y138863D01*
X170884Y139342D01*
X171223Y139929D01*
X171398Y140584D01*
Y141262D01*
X171223Y141917D01*
X170884Y142504D01*
X170853Y142535D01*
X170418Y142998D01*
X170853Y143461D01*
X170884Y143492D01*
X171223Y144079D01*
X171398Y144734D01*
Y145412D01*
X171223Y146067D01*
X170884Y146654D01*
X170405Y147133D01*
X169817Y147472D01*
X169162Y147648D01*
D02*
G37*
G36*
X512311Y136498D02*
Y133610D01*
X515199D01*
X514981Y134423D01*
X514533Y135199D01*
X513900Y135832D01*
X513124Y136280D01*
X512311Y136498D01*
D02*
G37*
G36*
X511311D02*
X510498Y136280D01*
X509722Y135832D01*
X509089Y135199D01*
X508641Y134423D01*
X508423Y133610D01*
X511311D01*
Y136498D01*
D02*
G37*
G36*
X524122Y136498D02*
Y133610D01*
X527010D01*
X526792Y134423D01*
X526344Y135199D01*
X525711Y135832D01*
X524935Y136280D01*
X524122Y136498D01*
D02*
G37*
G36*
X523122Y136498D02*
X522309Y136280D01*
X521533Y135832D01*
X520900Y135199D01*
X520452Y134423D01*
X520234Y133610D01*
X523122D01*
Y136498D01*
D02*
G37*
G36*
X296733Y138205D02*
X295787D01*
X294913Y137843D01*
X294244Y137174D01*
X293882Y136300D01*
Y135354D01*
X294244Y134480D01*
X294913Y133811D01*
X295787Y133449D01*
X296733D01*
X297607Y133811D01*
X298276Y134480D01*
X298638Y135354D01*
Y136300D01*
X298276Y137174D01*
X297607Y137843D01*
X296733Y138205D01*
D02*
G37*
G36*
X320355Y135252D02*
X319409D01*
X318535Y134890D01*
X317866Y134221D01*
X317504Y133347D01*
Y132401D01*
X317866Y131527D01*
X318535Y130858D01*
X319409Y130496D01*
X320355D01*
X321229Y130858D01*
X321898Y131527D01*
X322260Y132401D01*
Y133347D01*
X321898Y134221D01*
X321229Y134890D01*
X320355Y135252D01*
D02*
G37*
G36*
X304607Y135252D02*
X303661D01*
X302787Y134890D01*
X302118Y134221D01*
X301756Y133347D01*
Y132401D01*
X302118Y131527D01*
X302787Y130858D01*
X303661Y130496D01*
X304607D01*
X305481Y130858D01*
X306150Y131527D01*
X306512Y132401D01*
Y133347D01*
X306150Y134221D01*
X305481Y134890D01*
X304607Y135252D01*
D02*
G37*
G36*
X367008Y134661D02*
X366062D01*
X365188Y134299D01*
X364520Y133631D01*
X364158Y132756D01*
Y131810D01*
X364520Y130937D01*
X365188Y130268D01*
X366062Y129905D01*
X367008D01*
X367882Y130268D01*
X368551Y130937D01*
X368913Y131810D01*
Y132756D01*
X368551Y133631D01*
X367882Y134299D01*
X367008Y134661D01*
D02*
G37*
G36*
X527010Y132610D02*
X524122D01*
Y129723D01*
X524935Y129940D01*
X525711Y130388D01*
X526344Y131022D01*
X526792Y131797D01*
X527010Y132610D01*
D02*
G37*
G36*
X515199Y132610D02*
X512311D01*
Y129723D01*
X513124Y129940D01*
X513900Y130388D01*
X514533Y131022D01*
X514981Y131797D01*
X515199Y132610D01*
D02*
G37*
G36*
X511311D02*
X508423D01*
X508641Y131797D01*
X509089Y131022D01*
X509722Y130388D01*
X510498Y129940D01*
X511311Y129723D01*
Y132610D01*
D02*
G37*
G36*
X523122Y132610D02*
X520234D01*
X520452Y131797D01*
X520900Y131022D01*
X521533Y130388D01*
X522309Y129940D01*
X523122Y129723D01*
Y132610D01*
D02*
G37*
G36*
X416812Y127378D02*
X415866D01*
X414992Y127016D01*
X414323Y126347D01*
X414257Y126188D01*
X413499D01*
X413433Y126347D01*
X412764Y127016D01*
X411890Y127378D01*
X410944D01*
X410070Y127016D01*
X409401Y126347D01*
X409039Y125473D01*
Y124527D01*
X409401Y123653D01*
X410070Y122984D01*
X410944Y122622D01*
X411890D01*
X412764Y122984D01*
X413433Y123653D01*
X413499Y123812D01*
X414257D01*
X414323Y123653D01*
X414992Y122984D01*
X415866Y122622D01*
X416812D01*
X417686Y122984D01*
X418355Y123653D01*
X418716Y124527D01*
Y125473D01*
X418355Y126347D01*
X417686Y127016D01*
X416812Y127378D01*
D02*
G37*
G36*
X512311Y126498D02*
Y123610D01*
X515199D01*
X514981Y124423D01*
X514533Y125199D01*
X513900Y125832D01*
X513124Y126280D01*
X512311Y126498D01*
D02*
G37*
G36*
X511311D02*
X510498Y126280D01*
X509722Y125832D01*
X509089Y125199D01*
X508641Y124423D01*
X508423Y123610D01*
X511311D01*
Y126498D01*
D02*
G37*
G36*
X524122Y126498D02*
Y123610D01*
X527010D01*
X526792Y124423D01*
X526344Y125199D01*
X525711Y125832D01*
X524935Y126280D01*
X524122Y126498D01*
D02*
G37*
G36*
X523122Y126498D02*
X522309Y126280D01*
X521533Y125832D01*
X520900Y125199D01*
X520452Y124423D01*
X520234Y123610D01*
X523122D01*
Y126498D01*
D02*
G37*
G36*
X372520Y126394D02*
X371574D01*
X370700Y126032D01*
X370031Y125363D01*
X369669Y124489D01*
Y123543D01*
X370031Y122669D01*
X370700Y122000D01*
X371574Y121638D01*
X372520D01*
X373394Y122000D01*
X374063Y122669D01*
X374425Y123543D01*
Y124489D01*
X374063Y125363D01*
X373394Y126032D01*
X372520Y126394D01*
D02*
G37*
G36*
X527010Y122610D02*
X524122D01*
Y119723D01*
X524935Y119940D01*
X525711Y120388D01*
X526344Y121022D01*
X526792Y121797D01*
X527010Y122610D01*
D02*
G37*
G36*
X515199Y122610D02*
X512311D01*
Y119723D01*
X513124Y119940D01*
X513900Y120388D01*
X514533Y121022D01*
X514981Y121797D01*
X515199Y122610D01*
D02*
G37*
G36*
X511311D02*
X508423D01*
X508641Y121797D01*
X509089Y121022D01*
X509722Y120388D01*
X510498Y119940D01*
X511311Y119723D01*
Y122610D01*
D02*
G37*
G36*
X523122Y122610D02*
X520234D01*
X520452Y121797D01*
X520900Y121022D01*
X521533Y120388D01*
X522309Y119940D01*
X523122Y119723D01*
Y122610D01*
D02*
G37*
G36*
X320355Y119504D02*
X319409D01*
X318535Y119142D01*
X317866Y118473D01*
X317504Y117599D01*
Y116653D01*
X317866Y115779D01*
X318535Y115110D01*
X319409Y114748D01*
X320355D01*
X321229Y115110D01*
X321898Y115779D01*
X322260Y116653D01*
Y117599D01*
X321898Y118473D01*
X321229Y119142D01*
X320355Y119504D01*
D02*
G37*
G36*
X512311Y116498D02*
Y113610D01*
X515199D01*
X514981Y114423D01*
X514533Y115199D01*
X513900Y115832D01*
X513124Y116280D01*
X512311Y116498D01*
D02*
G37*
G36*
X511311D02*
X510498Y116280D01*
X509722Y115832D01*
X509089Y115199D01*
X508641Y114423D01*
X508423Y113610D01*
X511311D01*
Y116498D01*
D02*
G37*
G36*
X524122Y116498D02*
Y113610D01*
X527010D01*
X526792Y114423D01*
X526344Y115199D01*
X525711Y115832D01*
X524935Y116280D01*
X524122Y116498D01*
D02*
G37*
G36*
X523122Y116498D02*
X522309Y116280D01*
X521533Y115832D01*
X520900Y115199D01*
X520452Y114423D01*
X520234Y113610D01*
X523122D01*
Y116498D01*
D02*
G37*
G36*
X345945Y115895D02*
X344999D01*
X344125Y115533D01*
X343457Y114864D01*
X343094Y113990D01*
Y113044D01*
X343457Y112170D01*
X344125Y111501D01*
X344999Y111139D01*
X345945D01*
X346819Y111501D01*
X347488Y112170D01*
X347850Y113044D01*
Y113990D01*
X347488Y114864D01*
X346819Y115533D01*
X345945Y115895D01*
D02*
G37*
G36*
X527010Y112610D02*
X524122D01*
Y109723D01*
X524935Y109941D01*
X525711Y110388D01*
X526344Y111022D01*
X526792Y111797D01*
X527010Y112610D01*
D02*
G37*
G36*
X515199Y112610D02*
X512311D01*
Y109723D01*
X513124Y109941D01*
X513900Y110388D01*
X514533Y111022D01*
X514981Y111797D01*
X515199Y112610D01*
D02*
G37*
G36*
X511311D02*
X508423D01*
X508641Y111797D01*
X509089Y111022D01*
X509722Y110388D01*
X510498Y109941D01*
X511311Y109723D01*
Y112610D01*
D02*
G37*
G36*
X523122Y112610D02*
X520234D01*
X520452Y111797D01*
X520900Y111022D01*
X521533Y110388D01*
X522309Y109941D01*
X523122Y109723D01*
Y112610D01*
D02*
G37*
G36*
X512311Y106498D02*
Y103610D01*
X515199D01*
X514981Y104423D01*
X514533Y105199D01*
X513900Y105832D01*
X513124Y106280D01*
X512311Y106498D01*
D02*
G37*
G36*
X511311D02*
X510498Y106280D01*
X509722Y105832D01*
X509089Y105199D01*
X508641Y104423D01*
X508423Y103610D01*
X511311D01*
Y106498D01*
D02*
G37*
G36*
X524122Y106498D02*
Y103610D01*
X527010D01*
X526792Y104423D01*
X526344Y105199D01*
X525711Y105832D01*
X524935Y106280D01*
X524122Y106498D01*
D02*
G37*
G36*
X523122Y106498D02*
X522309Y106280D01*
X521533Y105832D01*
X520900Y105199D01*
X520452Y104423D01*
X520234Y103610D01*
X523122D01*
Y106498D01*
D02*
G37*
G36*
X304607Y107693D02*
X303661D01*
X302787Y107331D01*
X302118Y106662D01*
X301756Y105788D01*
Y104842D01*
X302118Y103968D01*
X302787Y103299D01*
X303661Y102937D01*
X304607D01*
X305481Y103299D01*
X306150Y103968D01*
X306512Y104842D01*
Y105788D01*
X306150Y106662D01*
X305481Y107331D01*
X304607Y107693D01*
D02*
G37*
G36*
X434528Y105724D02*
X433582D01*
X432708Y105362D01*
X432039Y104693D01*
X431677Y103820D01*
Y103079D01*
X431237Y102675D01*
X431038Y102586D01*
X430591Y102772D01*
X429645D01*
X428771Y102410D01*
X428102Y101741D01*
X427740Y100867D01*
Y99921D01*
X428102Y99047D01*
X428771Y98378D01*
X429645Y98016D01*
X430591D01*
X431465Y98378D01*
X432134Y99047D01*
X432496Y99921D01*
Y100661D01*
X432937Y101065D01*
X433135Y101154D01*
X433582Y100969D01*
X434528D01*
X435402Y101330D01*
X436071Y101999D01*
X436433Y102874D01*
Y103820D01*
X436071Y104693D01*
X435402Y105362D01*
X434528Y105724D01*
D02*
G37*
G36*
X342241Y105478D02*
X341295D01*
X340421Y105116D01*
X339752Y104447D01*
X339390Y103573D01*
Y102627D01*
X339752Y101753D01*
X340421Y101084D01*
X341295Y100722D01*
X342241D01*
X343115Y101084D01*
X343784Y101753D01*
X344146Y102627D01*
Y103573D01*
X343784Y104447D01*
X343115Y105116D01*
X342241Y105478D01*
D02*
G37*
G36*
X527010Y102610D02*
X524122D01*
Y99723D01*
X524935Y99941D01*
X525711Y100388D01*
X526344Y101022D01*
X526792Y101797D01*
X527010Y102610D01*
D02*
G37*
G36*
X515199Y102610D02*
X512311D01*
Y99723D01*
X513124Y99941D01*
X513900Y100388D01*
X514533Y101022D01*
X514981Y101797D01*
X515199Y102610D01*
D02*
G37*
G36*
X511311D02*
X508423D01*
X508641Y101797D01*
X509089Y101022D01*
X509722Y100388D01*
X510498Y99941D01*
X511311Y99723D01*
Y102610D01*
D02*
G37*
G36*
X523122Y102610D02*
X520234D01*
X520452Y101797D01*
X520900Y101022D01*
X521533Y100388D01*
X522309Y99941D01*
X523122Y99723D01*
Y102610D01*
D02*
G37*
G36*
X275079Y100803D02*
X274133D01*
X273259Y100441D01*
X272590Y99772D01*
X272228Y98898D01*
Y97952D01*
X272590Y97078D01*
X273259Y96409D01*
X274133Y96047D01*
X275079D01*
X275953Y96409D01*
X276622Y97078D01*
X276984Y97952D01*
Y98898D01*
X276622Y99772D01*
X275953Y100441D01*
X275079Y100803D01*
D02*
G37*
G36*
X512311Y96498D02*
Y93610D01*
X515199D01*
X514981Y94423D01*
X514533Y95199D01*
X513900Y95832D01*
X513124Y96280D01*
X512311Y96498D01*
D02*
G37*
G36*
X511311D02*
X510498Y96280D01*
X509722Y95832D01*
X509089Y95199D01*
X508641Y94423D01*
X508423Y93610D01*
X511311D01*
Y96498D01*
D02*
G37*
G36*
X524122Y96498D02*
Y93610D01*
X527010D01*
X526792Y94423D01*
X526344Y95199D01*
X525711Y95832D01*
X524935Y96280D01*
X524122Y96498D01*
D02*
G37*
G36*
X523122Y96498D02*
X522309Y96280D01*
X521533Y95832D01*
X520900Y95199D01*
X520452Y94423D01*
X520234Y93610D01*
X523122D01*
Y96498D01*
D02*
G37*
G36*
X152048Y97850D02*
X151102D01*
X150228Y97488D01*
X149559Y96819D01*
X149197Y95945D01*
Y94999D01*
X149559Y94125D01*
X150228Y93457D01*
X151102Y93094D01*
X152048D01*
X152922Y93457D01*
X153591Y94125D01*
X153953Y94999D01*
Y95945D01*
X153591Y96819D01*
X152922Y97488D01*
X152048Y97850D01*
D02*
G37*
G36*
X527010Y92610D02*
X524122D01*
Y89723D01*
X524935Y89941D01*
X525711Y90388D01*
X526344Y91022D01*
X526792Y91797D01*
X527010Y92610D01*
D02*
G37*
G36*
X515199Y92610D02*
X512311D01*
Y89723D01*
X513124Y89941D01*
X513900Y90388D01*
X514533Y91022D01*
X514981Y91797D01*
X515199Y92610D01*
D02*
G37*
G36*
X511311D02*
X508423D01*
X508641Y91797D01*
X509089Y91022D01*
X509722Y90388D01*
X510498Y89941D01*
X511311Y89723D01*
Y92610D01*
D02*
G37*
G36*
X523122Y92610D02*
X520234D01*
X520452Y91797D01*
X520900Y91022D01*
X521533Y90388D01*
X522309Y89941D01*
X523122Y89723D01*
Y92610D01*
D02*
G37*
G36*
X309319Y91257D02*
X308373D01*
X307499Y90895D01*
X306830Y90226D01*
X306468Y89352D01*
Y88406D01*
X306830Y87532D01*
X307499Y86863D01*
X308373Y86501D01*
X309319D01*
X310193Y86863D01*
X310862Y87532D01*
X311224Y88406D01*
Y89352D01*
X310862Y90226D01*
X310193Y90895D01*
X309319Y91257D01*
D02*
G37*
G36*
X162875Y89976D02*
X161929D01*
X161055Y89614D01*
X160386Y88945D01*
X160024Y88071D01*
Y87125D01*
X160386Y86251D01*
X161055Y85583D01*
X161929Y85220D01*
X162875D01*
X163749Y85583D01*
X164418Y86251D01*
X164779Y87125D01*
Y88071D01*
X164418Y88945D01*
X163749Y89614D01*
X162875Y89976D01*
D02*
G37*
G36*
X191929Y193307D02*
X178150D01*
Y179528D01*
X178240D01*
X178629Y178946D01*
X178414Y178427D01*
X178150Y177096D01*
Y175739D01*
X178414Y174408D01*
X178934Y173154D01*
X179688Y172025D01*
X180296Y171417D01*
X179688Y170809D01*
X178934Y169681D01*
X178414Y168427D01*
X178150Y167096D01*
Y165739D01*
X178414Y164408D01*
X178934Y163154D01*
X179688Y162025D01*
X180296Y161417D01*
X179688Y160809D01*
X178934Y159681D01*
X178414Y158427D01*
X178150Y157096D01*
Y155739D01*
X178414Y154408D01*
X178934Y153154D01*
X179688Y152025D01*
X180296Y151417D01*
X179688Y150809D01*
X178934Y149681D01*
X178414Y148427D01*
X178150Y147096D01*
Y145739D01*
X178414Y144408D01*
X178934Y143154D01*
X179688Y142025D01*
X180296Y141417D01*
X179688Y140809D01*
X178934Y139681D01*
X178414Y138427D01*
X178150Y137096D01*
Y135739D01*
X178414Y134408D01*
X178934Y133154D01*
X179688Y132025D01*
X180647Y131066D01*
X180768Y130985D01*
X180565Y130315D01*
X178150D01*
Y116535D01*
X178240D01*
X178629Y115953D01*
X178414Y115435D01*
X178150Y114104D01*
Y112747D01*
X178414Y111416D01*
X178934Y110162D01*
X179688Y109033D01*
X180296Y108425D01*
X179688Y107817D01*
X178934Y106689D01*
X178414Y105435D01*
X178150Y104104D01*
Y102747D01*
X178414Y101416D01*
X178934Y100162D01*
X179688Y99033D01*
X180296Y98425D01*
X179688Y97817D01*
X178934Y96689D01*
X178414Y95435D01*
X178150Y94104D01*
Y92747D01*
X178414Y91416D01*
X178934Y90162D01*
X179688Y89033D01*
X180296Y88425D01*
X179688Y87817D01*
X178934Y86689D01*
X178414Y85435D01*
X178150Y84104D01*
Y82747D01*
X178414Y81415D01*
X178934Y80162D01*
X179688Y79033D01*
X180296Y78425D01*
X179688Y77817D01*
X178934Y76689D01*
X178414Y75435D01*
X178150Y74104D01*
Y72747D01*
X178414Y71416D01*
X178934Y70162D01*
X179688Y69033D01*
X180647Y68074D01*
X181776Y67320D01*
X183030Y66800D01*
X184361Y66535D01*
X185718D01*
X187049Y66800D01*
X188303Y67320D01*
X189431Y68074D01*
X190391Y69033D01*
X191145Y70162D01*
X191664Y71416D01*
X191929Y72747D01*
Y74104D01*
X191664Y75435D01*
X191145Y76689D01*
X190391Y77817D01*
X189783Y78425D01*
X190391Y79033D01*
X190595Y79338D01*
X191295D01*
X191499Y79033D01*
X192458Y78074D01*
X193587Y77320D01*
X194043Y77131D01*
X194160Y76325D01*
X193687Y75852D01*
X193167Y74951D01*
X192898Y73946D01*
Y73925D01*
X196850D01*
X200803D01*
Y73946D01*
X200534Y74951D01*
X200013Y75852D01*
X199541Y76325D01*
X199658Y77131D01*
X200114Y77320D01*
X201242Y78074D01*
X202202Y79033D01*
X202956Y80162D01*
X203475Y81415D01*
X203740Y82747D01*
Y84104D01*
X203475Y85435D01*
X202956Y86689D01*
X202202Y87817D01*
X201594Y88425D01*
X202202Y89033D01*
X202956Y90162D01*
X203475Y91416D01*
X203740Y92747D01*
Y94104D01*
X203475Y95435D01*
X202956Y96689D01*
X202202Y97817D01*
X201594Y98425D01*
X202202Y99033D01*
X202956Y100162D01*
X203475Y101416D01*
X203740Y102747D01*
Y104104D01*
X203475Y105435D01*
X202956Y106689D01*
X202202Y107817D01*
X201594Y108425D01*
X202202Y109033D01*
X202956Y110162D01*
X203475Y111416D01*
X203740Y112747D01*
Y114104D01*
X203475Y115435D01*
X203261Y115953D01*
X203649Y116535D01*
X203740D01*
Y130315D01*
X201325D01*
X201121Y130985D01*
X201242Y131066D01*
X202202Y132025D01*
X202956Y133154D01*
X203475Y134408D01*
X203740Y135739D01*
Y137096D01*
X203475Y138427D01*
X202956Y139681D01*
X202202Y140809D01*
X201594Y141417D01*
X202202Y142025D01*
X202956Y143154D01*
X203475Y144408D01*
X203740Y145739D01*
Y147096D01*
X203475Y148427D01*
X202956Y149681D01*
X202202Y150809D01*
X201594Y151417D01*
X202202Y152025D01*
X202956Y153154D01*
X203475Y154408D01*
X203740Y155739D01*
Y157096D01*
X203475Y158427D01*
X202956Y159681D01*
X202202Y160809D01*
X201594Y161417D01*
X202202Y162025D01*
X202956Y163154D01*
X203475Y164408D01*
X203740Y165739D01*
Y167096D01*
X203475Y168427D01*
X202956Y169681D01*
X202202Y170809D01*
X201594Y171417D01*
X202202Y172025D01*
X202956Y173154D01*
X203475Y174408D01*
X203740Y175739D01*
Y177096D01*
X203475Y178427D01*
X202956Y179681D01*
X202202Y180809D01*
X201242Y181769D01*
X201085Y181874D01*
X200803Y182465D01*
X200803D01*
X200803Y182465D01*
Y185917D01*
X196850D01*
X192898D01*
Y182515D01*
X192808Y182394D01*
X192629Y182254D01*
X191929Y182595D01*
Y193307D01*
D02*
G37*
G36*
X226862Y77492D02*
X223114D01*
Y77433D01*
X223404Y76352D01*
X223963Y75384D01*
X224754Y74593D01*
X225723Y74034D01*
X226803Y73744D01*
X226862D01*
Y77492D01*
D02*
G37*
G36*
X234547Y165177D02*
Y165177D01*
X220177D01*
Y150807D01*
X220177D01*
X220532Y150277D01*
X220453Y150088D01*
X220177Y148700D01*
Y147284D01*
X220453Y145896D01*
X220995Y144589D01*
X221781Y143412D01*
X222201Y142992D01*
X221781Y142572D01*
X220995Y141395D01*
X220453Y140088D01*
X220177Y138700D01*
Y137285D01*
X220453Y135896D01*
X220995Y134589D01*
X221781Y133412D01*
X222201Y132992D01*
X221781Y132572D01*
X220995Y131395D01*
X220453Y130088D01*
X220177Y128700D01*
Y127285D01*
X220453Y125896D01*
X220995Y124589D01*
X221781Y123412D01*
X222201Y122992D01*
X221781Y122572D01*
X220995Y121396D01*
X220453Y120088D01*
X220177Y118700D01*
Y117285D01*
X220453Y115896D01*
X220995Y114589D01*
X221781Y113412D01*
X222201Y112992D01*
X221781Y112572D01*
X220995Y111396D01*
X220453Y110088D01*
X220177Y108700D01*
Y107284D01*
X220453Y105896D01*
X220995Y104589D01*
X221781Y103412D01*
X222201Y102992D01*
X221781Y102572D01*
X220995Y101395D01*
X220453Y100088D01*
X220177Y98700D01*
Y97285D01*
X220453Y95896D01*
X220995Y94589D01*
X221781Y93412D01*
X222201Y92992D01*
X221781Y92572D01*
X220995Y91395D01*
X220453Y90088D01*
X220177Y88700D01*
Y87284D01*
X220453Y85896D01*
X220995Y84589D01*
X221781Y83412D01*
X222782Y82411D01*
X223959Y81625D01*
X224104Y81565D01*
X224241Y80878D01*
X223963Y80601D01*
X223404Y79632D01*
X223114Y78551D01*
Y78492D01*
X227362D01*
Y77992D01*
X227862D01*
Y73744D01*
X227922D01*
X229002Y74034D01*
X229971Y74593D01*
X230248Y74871D01*
X230935Y74734D01*
X230995Y74589D01*
X231781Y73412D01*
X232201Y72992D01*
X231781Y72572D01*
X230995Y71395D01*
X230935Y71250D01*
X230248Y71114D01*
X229971Y71391D01*
X229002Y71951D01*
X227922Y72240D01*
X227862D01*
Y67992D01*
Y63744D01*
X227922D01*
X229002Y64034D01*
X229971Y64593D01*
X230248Y64871D01*
X230935Y64734D01*
X230995Y64589D01*
X231781Y63412D01*
X232782Y62411D01*
X233959Y61625D01*
X235266Y61083D01*
X236654Y60807D01*
X238070D01*
X239458Y61083D01*
X240766Y61625D01*
X241942Y62411D01*
X242943Y63412D01*
X243729Y64589D01*
X244271Y65896D01*
X244547Y67285D01*
Y68700D01*
X244271Y70088D01*
X243729Y71395D01*
X242943Y72572D01*
X242523Y72992D01*
X242943Y73412D01*
X243729Y74589D01*
X244271Y75896D01*
X244547Y77284D01*
Y78700D01*
X244271Y80088D01*
X243729Y81396D01*
X242943Y82572D01*
X242523Y82992D01*
X242943Y83412D01*
X243729Y84589D01*
X244271Y85896D01*
X244547Y87284D01*
Y88700D01*
X244271Y90088D01*
X243729Y91395D01*
X242943Y92572D01*
X242523Y92992D01*
X242943Y93412D01*
X243729Y94589D01*
X244271Y95896D01*
X244547Y97285D01*
Y98700D01*
X244271Y100088D01*
X243729Y101395D01*
X242943Y102572D01*
X242523Y102992D01*
X242943Y103412D01*
X243729Y104589D01*
X244271Y105896D01*
X244547Y107284D01*
Y108700D01*
X244271Y110088D01*
X243729Y111396D01*
X242943Y112572D01*
X242523Y112992D01*
X242943Y113412D01*
X243729Y114589D01*
X244271Y115896D01*
X244547Y117285D01*
Y118700D01*
X244271Y120088D01*
X243729Y121396D01*
X242943Y122572D01*
X242523Y122992D01*
X242943Y123412D01*
X243729Y124589D01*
X244271Y125896D01*
X244547Y127285D01*
Y128700D01*
X244271Y130088D01*
X243729Y131395D01*
X242943Y132572D01*
X242523Y132992D01*
X242943Y133412D01*
X243729Y134589D01*
X244271Y135896D01*
X244547Y137285D01*
Y138700D01*
X244271Y140088D01*
X243729Y141395D01*
X242943Y142572D01*
X242523Y142992D01*
X242943Y143412D01*
X243729Y144589D01*
X244271Y145896D01*
X244547Y147284D01*
Y148700D01*
X244271Y150088D01*
X243729Y151395D01*
X242943Y152572D01*
X242523Y152992D01*
X242943Y153412D01*
X243729Y154589D01*
X244271Y155896D01*
X244547Y157284D01*
Y158700D01*
X244271Y160088D01*
X243729Y161396D01*
X242943Y162572D01*
X241942Y163573D01*
X240766Y164359D01*
X239458Y164901D01*
X238070Y165177D01*
X236654D01*
X235266Y164901D01*
X235078Y164823D01*
X234547Y165177D01*
D02*
G37*
G36*
X200803Y72925D02*
X197350D01*
Y69472D01*
X197371D01*
X198376Y69742D01*
X199277Y70262D01*
X200013Y70998D01*
X200534Y71899D01*
X200803Y72905D01*
Y72925D01*
D02*
G37*
G36*
X196350D02*
X192898D01*
Y72905D01*
X193167Y71899D01*
X193687Y70998D01*
X194423Y70262D01*
X195325Y69742D01*
X196330Y69472D01*
X196350D01*
Y72925D01*
D02*
G37*
G36*
X35449Y72925D02*
X31996D01*
Y69472D01*
X32016D01*
X33022Y69742D01*
X33923Y70262D01*
X34659Y70998D01*
X35179Y71899D01*
X35449Y72905D01*
Y72925D01*
D02*
G37*
G36*
X30996D02*
X27543D01*
Y72905D01*
X27813Y71899D01*
X28333Y70998D01*
X29069Y70262D01*
X29970Y69742D01*
X30976Y69472D01*
X30996D01*
Y72925D01*
D02*
G37*
G36*
X226862Y72240D02*
X226803D01*
X225723Y71951D01*
X224754Y71391D01*
X223963Y70600D01*
X223404Y69632D01*
X223114Y68551D01*
Y68492D01*
X226862D01*
Y72240D01*
D02*
G37*
G36*
X422790Y64777D02*
X422112D01*
X421457Y64602D01*
X420870Y64263D01*
X420483Y63875D01*
X420095Y64263D01*
X419508Y64602D01*
X418853Y64777D01*
X418175D01*
X417520Y64602D01*
X416933Y64263D01*
X416454Y63783D01*
X416115Y63196D01*
X415939Y62541D01*
Y61863D01*
X416115Y61209D01*
X416454Y60622D01*
X416841Y60234D01*
X416454Y59846D01*
X416115Y59259D01*
X415939Y58604D01*
Y57926D01*
X416115Y57272D01*
X416454Y56684D01*
X416933Y56205D01*
X417520Y55866D01*
X418175Y55691D01*
X418853D01*
X419508Y55866D01*
X420095Y56205D01*
X420483Y56593D01*
X420870Y56205D01*
X421457Y55866D01*
X422112Y55691D01*
X422790D01*
X423445Y55866D01*
X424032Y56205D01*
X424419Y56592D01*
X424807Y56203D01*
X425394Y55864D01*
X426049Y55689D01*
X426727D01*
X427382Y55864D01*
X427969Y56203D01*
X428278Y56513D01*
X428588Y56203D01*
X429175Y55864D01*
X429830Y55689D01*
X430508D01*
X431163Y55864D01*
X431750Y56203D01*
X432229Y56683D01*
X432568Y57270D01*
X432744Y57925D01*
Y58603D01*
X432568Y59258D01*
X432229Y59845D01*
X431842Y60232D01*
X432229Y60620D01*
X432568Y61207D01*
X432744Y61862D01*
Y62540D01*
X432568Y63195D01*
X432229Y63782D01*
X431750Y64261D01*
X431163Y64600D01*
X430508Y64776D01*
X429830D01*
X429175Y64600D01*
X428588Y64261D01*
X428278Y63952D01*
X427969Y64261D01*
X427382Y64600D01*
X426727Y64776D01*
X426049D01*
X425394Y64600D01*
X424807Y64261D01*
X424420Y63874D01*
X424032Y64263D01*
X423445Y64602D01*
X422790Y64777D01*
D02*
G37*
G36*
X226862Y67492D02*
X223114D01*
Y67433D01*
X223404Y66352D01*
X223963Y65384D01*
X224754Y64593D01*
X225723Y64034D01*
X226803Y63744D01*
X226862D01*
Y67492D01*
D02*
G37*
G36*
X480788Y78165D02*
X479842D01*
X478968Y77803D01*
X478299Y77134D01*
X477937Y76260D01*
Y75314D01*
X478299Y74440D01*
X478968Y73772D01*
X479127Y73706D01*
Y72948D01*
X478968Y72882D01*
X478299Y72213D01*
X477937Y71339D01*
Y70393D01*
X478299Y69519D01*
X478968Y68850D01*
X479127Y68784D01*
Y68027D01*
X478968Y67961D01*
X478299Y67292D01*
X477937Y66418D01*
Y65472D01*
X478299Y64598D01*
X478968Y63929D01*
X479842Y63567D01*
X480788D01*
X481662Y63929D01*
X482331Y64598D01*
X482693Y65472D01*
Y66418D01*
X482331Y67292D01*
X481662Y67961D01*
X481503Y68027D01*
Y68784D01*
X481662Y68850D01*
X482331Y69519D01*
X482693Y70393D01*
Y71339D01*
X482331Y72213D01*
X481662Y72882D01*
X481503Y72948D01*
Y73706D01*
X481662Y73772D01*
X482331Y74440D01*
X482693Y75314D01*
Y76260D01*
X482331Y77134D01*
X481662Y77803D01*
X480788Y78165D01*
D02*
G37*
G36*
X474882D02*
X473936D01*
X473062Y77803D01*
X472394Y77134D01*
X472031Y76260D01*
Y75314D01*
X472394Y74440D01*
X473062Y73772D01*
X473221Y73706D01*
Y72948D01*
X473062Y72882D01*
X472394Y72213D01*
X472031Y71339D01*
Y70393D01*
X472394Y69519D01*
X473062Y68850D01*
X473221Y68784D01*
Y68027D01*
X473062Y67961D01*
X472394Y67292D01*
X472031Y66418D01*
Y65472D01*
X472394Y64598D01*
X473062Y63929D01*
X473936Y63567D01*
X474882D01*
X475757Y63929D01*
X476425Y64598D01*
X476787Y65472D01*
Y66418D01*
X476425Y67292D01*
X475757Y67961D01*
X475597Y68027D01*
Y68784D01*
X475757Y68850D01*
X476425Y69519D01*
X476787Y70393D01*
Y71339D01*
X476425Y72213D01*
X475757Y72882D01*
X475597Y72948D01*
Y73706D01*
X475757Y73772D01*
X476425Y74440D01*
X476787Y75314D01*
Y76260D01*
X476425Y77134D01*
X475757Y77803D01*
X474882Y78165D01*
D02*
G37*
G36*
X468977D02*
X468031D01*
X467157Y77803D01*
X466488Y77134D01*
X466126Y76260D01*
Y75314D01*
X466488Y74440D01*
X467157Y73772D01*
X467316Y73706D01*
Y72948D01*
X467157Y72882D01*
X466488Y72213D01*
X466126Y71339D01*
Y70393D01*
X466488Y69519D01*
X467157Y68850D01*
X467316Y68784D01*
Y68027D01*
X467157Y67961D01*
X466488Y67292D01*
X466126Y66418D01*
Y65472D01*
X466488Y64598D01*
X467157Y63929D01*
X468031Y63567D01*
X468977D01*
X469851Y63929D01*
X470520Y64598D01*
X470882Y65472D01*
Y66418D01*
X470520Y67292D01*
X469851Y67961D01*
X469692Y68027D01*
Y68784D01*
X469851Y68850D01*
X470520Y69519D01*
X470882Y70393D01*
Y71339D01*
X470520Y72213D01*
X469851Y72882D01*
X469692Y72948D01*
Y73706D01*
X469851Y73772D01*
X470520Y74440D01*
X470882Y75314D01*
Y76260D01*
X470520Y77134D01*
X469851Y77803D01*
X468977Y78165D01*
D02*
G37*
G36*
X152073Y66692D02*
X151127D01*
X150253Y66330D01*
X149584Y65661D01*
X149222Y64787D01*
Y63841D01*
X149584Y62967D01*
X150253Y62298D01*
X151127Y61936D01*
X152073D01*
X152947Y62298D01*
X153616Y62967D01*
X153978Y63841D01*
Y64787D01*
X153616Y65661D01*
X152947Y66330D01*
X152073Y66692D01*
D02*
G37*
G36*
X184490Y65481D02*
X183544D01*
X182670Y65119D01*
X182001Y64450D01*
X181639Y63576D01*
Y62630D01*
X182001Y61756D01*
X182670Y61087D01*
X183544Y60725D01*
X184490D01*
X185364Y61087D01*
X186033Y61756D01*
X186395Y62630D01*
Y63576D01*
X186033Y64450D01*
X185364Y65119D01*
X184490Y65481D01*
D02*
G37*
G36*
X292796Y54543D02*
X291850D01*
X290976Y54181D01*
X290307Y53512D01*
X289945Y52638D01*
Y51692D01*
X290307Y50818D01*
X290976Y50149D01*
X291850Y49787D01*
X292796D01*
X293670Y50149D01*
X294339Y50818D01*
X294701Y51692D01*
Y52638D01*
X294339Y53512D01*
X293670Y54181D01*
X292796Y54543D01*
D02*
G37*
G36*
X142323Y78341D02*
X71457D01*
X70429Y78206D01*
X69471Y77809D01*
X68649Y77178D01*
X68018Y76356D01*
X67621Y75398D01*
X67486Y74370D01*
Y50748D01*
X67621Y49720D01*
X68018Y48763D01*
X68649Y47940D01*
X69471Y47309D01*
X70429Y46912D01*
X71457Y46777D01*
X142323D01*
X143351Y46912D01*
X144308Y47309D01*
X145131Y47940D01*
X145762Y48763D01*
X146159Y49720D01*
X146294Y50748D01*
Y74370D01*
X146159Y75398D01*
X145762Y76356D01*
X145131Y77178D01*
X144308Y77809D01*
X143351Y78206D01*
X142323Y78341D01*
D02*
G37*
G36*
X283938Y45685D02*
X282992D01*
X282118Y45323D01*
X281449Y44654D01*
X281087Y43780D01*
Y42834D01*
X281449Y41960D01*
X282118Y41291D01*
X282992Y40929D01*
X283938D01*
X284812Y41291D01*
X285480Y41960D01*
X285842Y42834D01*
Y43780D01*
X285480Y44654D01*
X284812Y45323D01*
X283938Y45685D01*
D02*
G37*
G36*
X259331Y44701D02*
X258385D01*
X257511Y44339D01*
X256842Y43670D01*
X256480Y42796D01*
Y41850D01*
X256842Y40976D01*
X257511Y40307D01*
X258385Y39945D01*
X259331D01*
X260205Y40307D01*
X260874Y40976D01*
X261236Y41850D01*
Y42796D01*
X260874Y43670D01*
X260205Y44339D01*
X259331Y44701D01*
D02*
G37*
G36*
X147126Y43716D02*
X146180D01*
X145307Y43354D01*
X144638Y42686D01*
X144276Y41812D01*
Y40866D01*
X144638Y39992D01*
X145307Y39323D01*
X146180Y38961D01*
X147126D01*
X148001Y39323D01*
X148670Y39992D01*
X149031Y40866D01*
Y41812D01*
X148670Y42686D01*
X148001Y43354D01*
X147126Y43716D01*
D02*
G37*
G36*
X98459Y35866D02*
X97210D01*
X95986Y35623D01*
X94832Y35145D01*
X93794Y34451D01*
X93316Y33973D01*
X92835Y33624D01*
X92353Y33973D01*
X91875Y34451D01*
X90837Y35145D01*
X89684Y35623D01*
X88459Y35866D01*
X87210D01*
X85986Y35623D01*
X84832Y35145D01*
X83794Y34451D01*
X83316Y33973D01*
X82835Y33624D01*
X82353Y33973D01*
X81875Y34451D01*
X80837Y35145D01*
X79684Y35623D01*
X78459Y35866D01*
X77210D01*
X75986Y35623D01*
X74832Y35145D01*
X73794Y34451D01*
X73316Y33973D01*
X72835Y33624D01*
X72353Y33973D01*
X71875Y34451D01*
X70837Y35145D01*
X69684Y35623D01*
X68459Y35866D01*
X67210D01*
X65986Y35623D01*
X64832Y35145D01*
X63794Y34451D01*
X63316Y33973D01*
X62835Y33624D01*
X62353Y33973D01*
X61875Y34451D01*
X60837Y35145D01*
X59684Y35623D01*
X58459Y35866D01*
X57210D01*
X55986Y35623D01*
X54832Y35145D01*
X53794Y34451D01*
X53316Y33973D01*
X52835Y33624D01*
X52353Y33973D01*
X51875Y34451D01*
X50837Y35145D01*
X49684Y35623D01*
X48459Y35866D01*
X47210D01*
X45986Y35623D01*
X44832Y35145D01*
X43794Y34451D01*
X42911Y33568D01*
X42217Y32530D01*
X41740Y31376D01*
X41496Y30152D01*
Y28903D01*
X41740Y27679D01*
X42217Y26525D01*
X42911Y25487D01*
X43794Y24604D01*
X44832Y23910D01*
X45986Y23433D01*
X47210Y23189D01*
X48459D01*
X49684Y23433D01*
X50837Y23910D01*
X51875Y24604D01*
X52353Y25082D01*
X52835Y25431D01*
X53316Y25082D01*
X53794Y24604D01*
X54832Y23910D01*
X55986Y23433D01*
X57210Y23189D01*
X58459D01*
X59684Y23433D01*
X60837Y23910D01*
X61875Y24604D01*
X62353Y25082D01*
X62835Y25431D01*
X63316Y25082D01*
X63794Y24604D01*
X64832Y23910D01*
X65986Y23433D01*
X67210Y23189D01*
X68459D01*
X69684Y23433D01*
X70837Y23910D01*
X71875Y24604D01*
X72353Y25082D01*
X72835Y25431D01*
X73316Y25082D01*
X73794Y24604D01*
X74832Y23910D01*
X75986Y23433D01*
X77210Y23189D01*
X78459D01*
X79684Y23433D01*
X80837Y23910D01*
X81875Y24604D01*
X82353Y25082D01*
X82835Y25431D01*
X83316Y25082D01*
X83794Y24604D01*
X84832Y23910D01*
X85986Y23433D01*
X87210Y23189D01*
X88459D01*
X89684Y23433D01*
X90837Y23910D01*
X91875Y24604D01*
X92353Y25082D01*
X92835Y25431D01*
X93316Y25082D01*
X93794Y24604D01*
X94832Y23910D01*
X95986Y23433D01*
X97210Y23189D01*
X98459D01*
X99684Y23433D01*
X100837Y23910D01*
X101875Y24604D01*
X102758Y25487D01*
X103452Y26525D01*
X103930Y27679D01*
X104173Y28903D01*
Y30152D01*
X103930Y31376D01*
X103452Y32530D01*
X102758Y33568D01*
X101875Y34451D01*
X100837Y35145D01*
X99684Y35623D01*
X98459Y35866D01*
D02*
G37*
%LPD*%
D34*
X210630Y305197D02*
D03*
X164370Y303228D02*
D03*
X31496Y186417D02*
D03*
X43307D02*
D03*
X185039D02*
D03*
X196850D02*
D03*
X31496Y123425D02*
D03*
X43307D02*
D03*
X185039D02*
D03*
X196850D02*
D03*
D103*
X210630Y295197D02*
D03*
X257953Y229331D02*
D03*
X182165Y211614D02*
D03*
X164370Y293228D02*
D03*
X94488Y228346D02*
D03*
Y208661D02*
D03*
X149606Y250000D02*
D03*
Y269685D02*
D03*
X31496Y136417D02*
D03*
Y146417D02*
D03*
Y156417D02*
D03*
Y166417D02*
D03*
Y176417D02*
D03*
X43307Y136417D02*
D03*
Y146417D02*
D03*
Y156417D02*
D03*
Y166417D02*
D03*
Y176417D02*
D03*
X185039Y136417D02*
D03*
Y146417D02*
D03*
Y156417D02*
D03*
Y166417D02*
D03*
Y176417D02*
D03*
X196850Y136417D02*
D03*
Y146417D02*
D03*
Y156417D02*
D03*
Y166417D02*
D03*
Y176417D02*
D03*
X31496Y73425D02*
D03*
Y83425D02*
D03*
Y93425D02*
D03*
Y103425D02*
D03*
Y113425D02*
D03*
X43307Y73425D02*
D03*
Y83425D02*
D03*
Y93425D02*
D03*
Y103425D02*
D03*
Y113425D02*
D03*
X185039Y73425D02*
D03*
Y83425D02*
D03*
Y93425D02*
D03*
Y103425D02*
D03*
Y113425D02*
D03*
X196850Y73425D02*
D03*
Y83425D02*
D03*
Y93425D02*
D03*
Y103425D02*
D03*
Y113425D02*
D03*
D104*
X247953Y229331D02*
D03*
X172165Y211614D02*
D03*
D105*
X87598Y181555D02*
D03*
X218529Y205069D02*
D03*
D106*
X82284Y173091D02*
D03*
X63386D02*
D03*
X82284Y190020D02*
D03*
X63386D02*
D03*
X223844Y213533D02*
D03*
X242742D02*
D03*
X223844Y196604D02*
D03*
X242742D02*
D03*
D107*
X227362Y157992D02*
D03*
D108*
X237362D02*
D03*
X227362Y147992D02*
D03*
X237362D02*
D03*
X227362Y137992D02*
D03*
X237362D02*
D03*
X227362Y127992D02*
D03*
X237362D02*
D03*
X227362Y117992D02*
D03*
X237362D02*
D03*
X227362Y107992D02*
D03*
X237362D02*
D03*
X227362Y97992D02*
D03*
X237362D02*
D03*
X227362Y87992D02*
D03*
X237362D02*
D03*
X227362Y77992D02*
D03*
X237362D02*
D03*
X227362Y67992D02*
D03*
X237362D02*
D03*
D110*
X53740Y314961D02*
D03*
X63740D02*
D03*
X73740D02*
D03*
X83740D02*
D03*
X93740D02*
D03*
X103740D02*
D03*
X116732D02*
D03*
X126732D02*
D03*
X136732D02*
D03*
X146732D02*
D03*
X156732D02*
D03*
X166732D02*
D03*
X53740Y326772D02*
D03*
X63740D02*
D03*
X73740D02*
D03*
X83740D02*
D03*
X93740D02*
D03*
X103740D02*
D03*
X47835Y29528D02*
D03*
X57835D02*
D03*
X67835D02*
D03*
X77835D02*
D03*
X87835D02*
D03*
X97835D02*
D03*
X523622Y143110D02*
D03*
Y133110D02*
D03*
Y123110D02*
D03*
Y113110D02*
D03*
Y103110D02*
D03*
Y93110D02*
D03*
X511811Y249410D02*
D03*
Y239409D02*
D03*
Y229410D02*
D03*
Y219409D02*
D03*
Y209409D02*
D03*
Y199409D02*
D03*
X523622Y249410D02*
D03*
Y239409D02*
D03*
Y229410D02*
D03*
Y219409D02*
D03*
Y209409D02*
D03*
Y199409D02*
D03*
X116732Y326772D02*
D03*
X126732D02*
D03*
X136732D02*
D03*
X146732D02*
D03*
X156732D02*
D03*
X166732D02*
D03*
X511811Y143110D02*
D03*
Y133110D02*
D03*
Y123110D02*
D03*
Y113110D02*
D03*
Y103110D02*
D03*
Y93110D02*
D03*
D112*
X437474Y316979D02*
D03*
X440004Y318590D02*
D03*
X461410Y330587D02*
D03*
X422457Y302312D02*
D03*
X404622Y290293D02*
D03*
X402904Y292752D02*
D03*
X426699Y306555D02*
D03*
X442727Y319848D02*
D03*
X419567Y312363D02*
D03*
X432613Y324738D02*
D03*
X407335Y289012D02*
D03*
X435182Y315043D02*
D03*
X458412Y330500D02*
D03*
X425931Y318727D02*
D03*
X415324Y308120D02*
D03*
X446453Y330138D02*
D03*
X430247Y322893D02*
D03*
X423810Y316606D02*
D03*
X424578Y304433D02*
D03*
X443500Y329610D02*
D03*
X413203Y305999D02*
D03*
X463279Y319820D02*
D03*
X428052Y320848D02*
D03*
X433063Y312918D02*
D03*
X449429Y330521D02*
D03*
X435144Y326348D02*
D03*
X421688Y314484D02*
D03*
X440609Y328808D02*
D03*
X417446Y310242D02*
D03*
X430942Y310797D02*
D03*
X420335Y300191D02*
D03*
X466274Y319634D02*
D03*
X454559Y320854D02*
D03*
X452423Y330700D02*
D03*
X428821Y308676D02*
D03*
X457559Y320912D02*
D03*
X437818Y327709D02*
D03*
X455423Y330758D02*
D03*
X445598Y320721D02*
D03*
X464111Y331894D02*
D03*
X454572Y299059D02*
D03*
X451578Y298868D02*
D03*
X448582Y298716D02*
D03*
X445601Y298379D02*
D03*
X442655Y297811D02*
D03*
X439782Y296946D02*
D03*
X437022Y295770D02*
D03*
X434385Y294340D02*
D03*
X431923Y292626D02*
D03*
X429649Y290669D02*
D03*
X418585Y277639D02*
D03*
X419920Y274952D02*
D03*
X422444Y273331D02*
D03*
X435653Y283776D02*
D03*
X437957Y285699D02*
D03*
X440506Y287280D02*
D03*
X443259Y288472D02*
D03*
X446169Y289203D02*
D03*
X452156Y289250D02*
D03*
X455156Y289192D02*
D03*
X458697Y285863D02*
D03*
X459661Y283022D02*
D03*
X460989Y280331D02*
D03*
X462779Y277924D02*
D03*
X464930Y275833D02*
D03*
X466743Y273443D02*
D03*
X469111Y271602D02*
D03*
X472105Y271405D02*
D03*
X472570Y283713D02*
D03*
X470336Y285715D02*
D03*
X463894Y298795D02*
D03*
X460894Y298785D02*
D03*
X457899Y298958D02*
D03*
D113*
X168824Y140923D02*
D03*
Y145073D02*
D03*
X430169Y62201D02*
D03*
Y58264D02*
D03*
X137795Y302165D02*
D03*
X124016Y186024D02*
D03*
X112205D02*
D03*
Y189961D02*
D03*
Y193898D02*
D03*
X116142D02*
D03*
Y189961D02*
D03*
Y186024D02*
D03*
X120079D02*
D03*
Y189961D02*
D03*
Y193898D02*
D03*
X124016D02*
D03*
Y189961D02*
D03*
X156496Y188976D02*
D03*
Y194882D02*
D03*
X160433Y183071D02*
D03*
Y188976D02*
D03*
Y194882D02*
D03*
X168307D02*
D03*
X164370D02*
D03*
X168307Y183071D02*
D03*
X172244Y188976D02*
D03*
Y183071D02*
D03*
X168307Y188976D02*
D03*
X164370D02*
D03*
Y183071D02*
D03*
X172244Y194882D02*
D03*
X147638Y302165D02*
D03*
X204724Y323819D02*
D03*
Y319882D02*
D03*
Y315945D02*
D03*
X201772Y203740D02*
D03*
Y207677D02*
D03*
Y211614D02*
D03*
Y215551D02*
D03*
Y219488D02*
D03*
X197835Y203740D02*
D03*
Y207677D02*
D03*
Y211614D02*
D03*
Y215551D02*
D03*
Y219488D02*
D03*
X193898Y203740D02*
D03*
Y207677D02*
D03*
Y211614D02*
D03*
Y215551D02*
D03*
Y219488D02*
D03*
X189961Y203740D02*
D03*
Y207677D02*
D03*
Y211614D02*
D03*
Y215551D02*
D03*
Y219488D02*
D03*
X426388Y58264D02*
D03*
X422451Y58265D02*
D03*
X418514D02*
D03*
X426388Y62201D02*
D03*
X422451Y62202D02*
D03*
X418514D02*
D03*
X216535Y319882D02*
D03*
X210630Y323819D02*
D03*
X216535D02*
D03*
X210630Y319882D02*
D03*
Y315945D02*
D03*
X216535D02*
D03*
X285121Y307821D02*
D03*
D114*
X407985Y62474D02*
D03*
X215551Y185039D02*
D03*
X259748Y60064D02*
D03*
X268606D02*
D03*
X267717Y81693D02*
D03*
X254921D02*
D03*
X350471Y202998D02*
D03*
X341768Y103100D02*
D03*
X165354Y151575D02*
D03*
X151600Y64314D02*
D03*
X283465Y43307D02*
D03*
X258858Y42323D02*
D03*
X104331Y155512D02*
D03*
X165281Y157644D02*
D03*
X75787Y167323D02*
D03*
Y163386D02*
D03*
X184017Y63103D02*
D03*
X175197Y33465D02*
D03*
X201772D02*
D03*
X151575Y95472D02*
D03*
X146653Y41339D02*
D03*
X162402Y87598D02*
D03*
X372592Y180412D02*
D03*
X416339Y125000D02*
D03*
X434055Y103347D02*
D03*
X411417Y125000D02*
D03*
X430118Y100394D02*
D03*
X344684Y155774D02*
D03*
X349651Y160741D02*
D03*
X354331Y165354D02*
D03*
X345472Y113517D02*
D03*
X354056Y115107D02*
D03*
X71868Y196440D02*
D03*
X73948Y193313D02*
D03*
X230315Y222441D02*
D03*
X237205D02*
D03*
X304134Y105315D02*
D03*
X274606Y98425D02*
D03*
Y225394D02*
D03*
X291339Y261811D02*
D03*
X342706Y178948D02*
D03*
X300435Y192523D02*
D03*
X303388Y195476D02*
D03*
X306341Y198428D02*
D03*
X309294Y201381D02*
D03*
X303388Y189570D02*
D03*
X306341Y192523D02*
D03*
X309294Y195476D02*
D03*
X312246Y198428D02*
D03*
X327795Y173273D02*
D03*
X288386Y175197D02*
D03*
X292323Y52165D02*
D03*
X236221Y258858D02*
D03*
X372047Y124016D02*
D03*
X366535Y132283D02*
D03*
X233460Y197019D02*
D03*
X229704Y197054D02*
D03*
X304724Y168504D02*
D03*
X230315Y189961D02*
D03*
X225394D02*
D03*
X220472D02*
D03*
X215551D02*
D03*
X220472Y185039D02*
D03*
X490158Y290354D02*
D03*
X253937Y157480D02*
D03*
X400591Y142717D02*
D03*
X368026Y176704D02*
D03*
X356299Y185994D02*
D03*
X314173Y174803D02*
D03*
X293687Y172311D02*
D03*
X291929Y126969D02*
D03*
Y89173D02*
D03*
X291142Y113189D02*
D03*
X267126Y120276D02*
D03*
X254921Y119488D02*
D03*
X308846Y88879D02*
D03*
X248104Y112723D02*
D03*
X450873Y267443D02*
D03*
X462069Y256199D02*
D03*
X473425Y152559D02*
D03*
Y157480D02*
D03*
Y162402D02*
D03*
X467520D02*
D03*
Y157480D02*
D03*
Y152559D02*
D03*
X382874Y300197D02*
D03*
X500984Y198819D02*
D03*
Y202756D02*
D03*
Y206693D02*
D03*
Y210630D02*
D03*
X480315Y70866D02*
D03*
Y65945D02*
D03*
X474409D02*
D03*
X468504D02*
D03*
Y70866D02*
D03*
X480315Y75787D02*
D03*
X474409D02*
D03*
X468504D02*
D03*
X474409Y70866D02*
D03*
X304134Y132874D02*
D03*
X296260Y135827D02*
D03*
X334936Y166585D02*
D03*
X319882Y132874D02*
D03*
X331693Y275590D02*
D03*
X327756Y271654D02*
D03*
X458998Y260037D02*
D03*
X465254Y252876D02*
D03*
X404528Y165354D02*
D03*
X409449Y170276D02*
D03*
X468955Y249210D02*
D03*
X454724Y263779D02*
D03*
X322835Y164370D02*
D03*
X458661Y151575D02*
D03*
X335510Y134179D02*
D03*
X424213Y177165D02*
D03*
X411118Y149892D02*
D03*
X448819Y151575D02*
D03*
X435039D02*
D03*
X421260D02*
D03*
X346457Y175197D02*
D03*
X350394Y171260D02*
D03*
X319882Y117126D02*
D03*
X310039Y150591D02*
D03*
X313976Y154528D02*
D03*
X356151Y197115D02*
D03*
X367155Y186053D02*
D03*
X333661Y219488D02*
D03*
X344753Y208250D02*
D03*
X361443Y191955D02*
D03*
X448636Y142717D02*
D03*
X468856D02*
D03*
X421260D02*
D03*
X435039D02*
D03*
X346858Y134443D02*
D03*
M02*
