G04*
G04 #@! TF.GenerationSoftware,Altium Limited,Altium Designer,24.5.2 (23)*
G04*
G04 Layer_Color=65535*
%FSLAX25Y25*%
%MOIN*%
G70*
G04*
G04 #@! TF.SameCoordinates,B5482E42-06F3-477E-AB0F-EC412F3FA88C*
G04*
G04*
G04 #@! TF.FilePolarity,Positive*
G04*
G01*
G75*
%ADD113C,0.03150*%
%ADD114C,0.02756*%
D113*
X285121Y307821D02*
D03*
X216535Y315945D02*
D03*
X210630D02*
D03*
Y319882D02*
D03*
X216535Y323819D02*
D03*
X210630D02*
D03*
X216535Y319882D02*
D03*
X418514Y62202D02*
D03*
X422451D02*
D03*
X426388Y62201D02*
D03*
X418514Y58265D02*
D03*
X422451D02*
D03*
X426388Y58264D02*
D03*
X189961Y219488D02*
D03*
Y215551D02*
D03*
Y211614D02*
D03*
Y207677D02*
D03*
Y203740D02*
D03*
X193898Y219488D02*
D03*
Y215551D02*
D03*
Y211614D02*
D03*
Y207677D02*
D03*
Y203740D02*
D03*
X197835Y219488D02*
D03*
Y215551D02*
D03*
Y211614D02*
D03*
Y207677D02*
D03*
Y203740D02*
D03*
X201772Y219488D02*
D03*
Y215551D02*
D03*
Y211614D02*
D03*
Y207677D02*
D03*
Y203740D02*
D03*
X204724Y315945D02*
D03*
Y319882D02*
D03*
Y323819D02*
D03*
X147638Y302165D02*
D03*
X172244Y194882D02*
D03*
X164370Y183071D02*
D03*
Y188976D02*
D03*
X168307D02*
D03*
X172244Y183071D02*
D03*
Y188976D02*
D03*
X168307Y183071D02*
D03*
X164370Y194882D02*
D03*
X168307D02*
D03*
X160433D02*
D03*
Y188976D02*
D03*
Y183071D02*
D03*
X156496Y194882D02*
D03*
Y188976D02*
D03*
X124016Y189961D02*
D03*
Y193898D02*
D03*
X120079D02*
D03*
Y189961D02*
D03*
Y186024D02*
D03*
X116142D02*
D03*
Y189961D02*
D03*
Y193898D02*
D03*
X112205D02*
D03*
Y189961D02*
D03*
Y186024D02*
D03*
X124016D02*
D03*
X137795Y302165D02*
D03*
X430169Y58264D02*
D03*
Y62201D02*
D03*
D114*
X346858Y134443D02*
D03*
X435039Y142717D02*
D03*
X421260D02*
D03*
X468856D02*
D03*
X448636D02*
D03*
X361443Y191955D02*
D03*
X344753Y208250D02*
D03*
X333661Y219488D02*
D03*
X367155Y186053D02*
D03*
X356151Y197115D02*
D03*
X313976Y154528D02*
D03*
X310039Y150591D02*
D03*
X319882Y117126D02*
D03*
X350394Y171260D02*
D03*
X346457Y175197D02*
D03*
X421260Y151575D02*
D03*
X435039D02*
D03*
X448819D02*
D03*
X411118Y149892D02*
D03*
X424213Y177165D02*
D03*
X335510Y134179D02*
D03*
X458661Y151575D02*
D03*
X322835Y164370D02*
D03*
X454724Y263779D02*
D03*
X468955Y249210D02*
D03*
X409449Y170276D02*
D03*
X404528Y165354D02*
D03*
X465254Y252876D02*
D03*
X458998Y260037D02*
D03*
X327756Y271654D02*
D03*
X331693Y275590D02*
D03*
X319882Y132874D02*
D03*
X334936Y166585D02*
D03*
X296260Y135827D02*
D03*
X304134Y132874D02*
D03*
X474409Y70866D02*
D03*
X468504Y75787D02*
D03*
X474409D02*
D03*
X480315D02*
D03*
X468504Y70866D02*
D03*
Y65945D02*
D03*
X474409D02*
D03*
X480315D02*
D03*
Y70866D02*
D03*
X500984Y210630D02*
D03*
Y206693D02*
D03*
Y202756D02*
D03*
Y198819D02*
D03*
X382874Y300197D02*
D03*
X467520Y152559D02*
D03*
Y157480D02*
D03*
Y162402D02*
D03*
X473425D02*
D03*
Y157480D02*
D03*
Y152559D02*
D03*
X462069Y256199D02*
D03*
X450873Y267443D02*
D03*
X248104Y112723D02*
D03*
X308846Y88879D02*
D03*
X254921Y119488D02*
D03*
X267126Y120276D02*
D03*
X291142Y113189D02*
D03*
X291929Y89173D02*
D03*
Y126969D02*
D03*
X293687Y172311D02*
D03*
X314173Y174803D02*
D03*
X356299Y185994D02*
D03*
X368026Y176704D02*
D03*
X400591Y142717D02*
D03*
X253937Y157480D02*
D03*
X490158Y290354D02*
D03*
X220472Y185039D02*
D03*
X215551Y189961D02*
D03*
X220472D02*
D03*
X225394D02*
D03*
X230315D02*
D03*
X304724Y168504D02*
D03*
X229704Y197054D02*
D03*
X233460Y197019D02*
D03*
X366535Y132283D02*
D03*
X372047Y124016D02*
D03*
X236221Y258858D02*
D03*
X292323Y52165D02*
D03*
X288386Y175197D02*
D03*
X327795Y173273D02*
D03*
X312246Y198428D02*
D03*
X309294Y195476D02*
D03*
X306341Y192523D02*
D03*
X303388Y189570D02*
D03*
X309294Y201381D02*
D03*
X306341Y198428D02*
D03*
X303388Y195476D02*
D03*
X300435Y192523D02*
D03*
X342706Y178948D02*
D03*
X291339Y261811D02*
D03*
X274606Y225394D02*
D03*
Y98425D02*
D03*
X304134Y105315D02*
D03*
X237205Y222441D02*
D03*
X230315D02*
D03*
X73948Y193313D02*
D03*
X71868Y196440D02*
D03*
X354056Y115107D02*
D03*
X345472Y113517D02*
D03*
X354331Y165354D02*
D03*
X349651Y160741D02*
D03*
X344684Y155774D02*
D03*
X430118Y100394D02*
D03*
X411417Y125000D02*
D03*
X434055Y103347D02*
D03*
X416339Y125000D02*
D03*
X372592Y180412D02*
D03*
X162402Y87598D02*
D03*
X146653Y41339D02*
D03*
X151575Y95472D02*
D03*
X201772Y33465D02*
D03*
X175197D02*
D03*
X184017Y63103D02*
D03*
X75787Y163386D02*
D03*
Y167323D02*
D03*
X165281Y157644D02*
D03*
X104331Y155512D02*
D03*
X258858Y42323D02*
D03*
X283465Y43307D02*
D03*
X151600Y64314D02*
D03*
X165354Y151575D02*
D03*
X341768Y103100D02*
D03*
X350471Y202998D02*
D03*
X254921Y81693D02*
D03*
X267717D02*
D03*
X268606Y60064D02*
D03*
X259748D02*
D03*
X215551Y185039D02*
D03*
X407985Y62474D02*
D03*
M02*
