G04*
G04 #@! TF.GenerationSoftware,Altium Limited,Altium Designer,24.5.2 (23)*
G04*
G04 Layer_Physical_Order=1*
G04 Layer_Color=255*
%FSLAX25Y25*%
%MOIN*%
G70*
G04*
G04 #@! TF.SameCoordinates,B5482E42-06F3-477E-AB0F-EC412F3FA88C*
G04*
G04*
G04 #@! TF.FilePolarity,Positive*
G04*
G01*
G75*
%ADD10C,0.00787*%
%ADD14R,0.01575X0.01575*%
%ADD15R,0.01181X0.03425*%
%ADD16C,0.03937*%
%ADD17R,0.08504X0.04213*%
%ADD18R,0.03819X0.03937*%
%ADD19R,0.01378X0.01575*%
%ADD20R,0.03543X0.03543*%
%ADD21R,0.03543X0.05906*%
%ADD22R,0.05906X0.03543*%
%ADD23R,0.02953X0.04449*%
%ADD24R,0.02284X0.08268*%
%ADD25R,0.02559X0.04449*%
%ADD26R,0.03150X0.05906*%
%ADD27R,0.07087X0.05512*%
%ADD28R,0.05512X0.07480*%
%ADD29R,0.05118X0.04724*%
%ADD30R,0.03701X0.04016*%
%ADD31R,0.04016X0.03701*%
%ADD32R,0.04724X0.05118*%
%ADD33R,0.05512X0.08268*%
%ADD34R,0.05906X0.05906*%
G04:AMPARAMS|DCode=35|XSize=98.43mil|YSize=31.5mil|CornerRadius=15.75mil|HoleSize=0mil|Usage=FLASHONLY|Rotation=45.000|XOffset=0mil|YOffset=0mil|HoleType=Round|Shape=RoundedRectangle|*
%AMROUNDEDRECTD35*
21,1,0.09843,0.00000,0,0,45.0*
21,1,0.06693,0.03150,0,0,45.0*
1,1,0.03150,0.02366,0.02366*
1,1,0.03150,-0.02366,-0.02366*
1,1,0.03150,-0.02366,-0.02366*
1,1,0.03150,0.02366,0.02366*
%
%ADD35ROUNDEDRECTD35*%
G04:AMPARAMS|DCode=36|XSize=98.43mil|YSize=31.5mil|CornerRadius=15.75mil|HoleSize=0mil|Usage=FLASHONLY|Rotation=135.000|XOffset=0mil|YOffset=0mil|HoleType=Round|Shape=RoundedRectangle|*
%AMROUNDEDRECTD36*
21,1,0.09843,0.00000,0,0,135.0*
21,1,0.06693,0.03150,0,0,135.0*
1,1,0.03150,-0.02366,0.02366*
1,1,0.03150,0.02366,-0.02366*
1,1,0.03150,0.02366,-0.02366*
1,1,0.03150,-0.02366,0.02366*
%
%ADD36ROUNDEDRECTD36*%
%ADD37P,0.06125X4X90.0*%
G04:AMPARAMS|DCode=38|XSize=51.18mil|YSize=47.24mil|CornerRadius=0mil|HoleSize=0mil|Usage=FLASHONLY|Rotation=45.000|XOffset=0mil|YOffset=0mil|HoleType=Round|Shape=Rectangle|*
%AMROTATEDRECTD38*
4,1,4,-0.00139,-0.03480,-0.03480,-0.00139,0.00139,0.03480,0.03480,0.00139,-0.00139,-0.03480,0.0*
%
%ADD38ROTATEDRECTD38*%

%ADD39R,0.09843X0.12992*%
%ADD40R,0.08661X0.04134*%
%ADD41R,0.04331X0.03937*%
%ADD42R,0.21260X0.11417*%
G04:AMPARAMS|DCode=43|XSize=118.11mil|YSize=78.74mil|CornerRadius=0mil|HoleSize=0mil|Usage=FLASHONLY|Rotation=135.000|XOffset=0mil|YOffset=0mil|HoleType=Round|Shape=Rectangle|*
%AMROTATEDRECTD43*
4,1,4,0.06960,-0.01392,0.01392,-0.06960,-0.06960,0.01392,-0.01392,0.06960,0.06960,-0.01392,0.0*
%
%ADD43ROTATEDRECTD43*%

G04:AMPARAMS|DCode=44|XSize=37.01mil|YSize=40.16mil|CornerRadius=0mil|HoleSize=0mil|Usage=FLASHONLY|Rotation=225.000|XOffset=0mil|YOffset=0mil|HoleType=Round|Shape=Rectangle|*
%AMROTATEDRECTD44*
4,1,4,-0.00111,0.02728,0.02728,-0.00111,0.00111,-0.02728,-0.02728,0.00111,-0.00111,0.02728,0.0*
%
%ADD44ROTATEDRECTD44*%

G04:AMPARAMS|DCode=45|XSize=21.65mil|YSize=61.02mil|CornerRadius=0mil|HoleSize=0mil|Usage=FLASHONLY|Rotation=45.000|XOffset=0mil|YOffset=0mil|HoleType=Round|Shape=Rectangle|*
%AMROTATEDRECTD45*
4,1,4,0.01392,-0.02923,-0.02923,0.01392,-0.01392,0.02923,0.02923,-0.01392,0.01392,-0.02923,0.0*
%
%ADD45ROTATEDRECTD45*%

%ADD46R,0.42300X0.32700*%
%ADD47R,0.04100X0.15900*%
%ADD94C,0.00720*%
%ADD95C,0.00728*%
%ADD96C,0.01000*%
%ADD97C,0.01968*%
%AMCUSTOMSHAPE98*
4,1,8,-0.15098,0.21260,-0.09311,0.21260,-0.09311,0.17126,0.15098,0.17126,0.15098,-0.17126,-0.09311,-0.17126,-0.09311,-0.21260,-0.15098,-0.21260,-0.15098,0.21260,0.0*%
%ADD98CUSTOMSHAPE98*%

%ADD99C,0.01575*%
%ADD100C,0.03150*%
%ADD101C,0.03937*%
%ADD102C,0.02756*%
%ADD103C,0.05906*%
%ADD104R,0.05906X0.05906*%
%ADD105C,0.02244*%
%ADD106C,0.05512*%
%ADD107R,0.06496X0.06496*%
%ADD108C,0.06496*%
%ADD109R,0.04803X0.04803*%
%ADD110C,0.04803*%
%ADD111R,0.04803X0.04803*%
%ADD112C,0.02000*%
%ADD113C,0.03150*%
%ADD114C,0.02756*%
G36*
X110236Y320866D02*
X172244D01*
X172244Y300197D01*
X156496D01*
X156496Y305118D01*
X37621D01*
Y338299D01*
Y338699D01*
X37927Y339439D01*
X38494Y340006D01*
X39234Y340313D01*
X110236D01*
Y320866D01*
D02*
G37*
G36*
X500000Y340312D02*
D01*
X500672Y340204D01*
X501241Y339824D01*
X501622Y339254D01*
X501625Y339239D01*
X501729Y338583D01*
X501741Y338523D01*
X501741Y337883D01*
X501743Y308057D01*
X501756Y307988D01*
X501736Y307571D01*
X501920Y303834D01*
X502469Y300132D01*
X503378Y296502D01*
X504638Y292979D01*
X506238Y289597D01*
X508162Y286387D01*
X510391Y283381D01*
X512904Y280609D01*
X515677Y278096D01*
X518682Y275867D01*
X521892Y273943D01*
X525275Y272343D01*
X528798Y271082D01*
X532428Y270173D01*
X536129Y269624D01*
X537162Y269573D01*
Y181735D01*
X533465D01*
X533465Y181735D01*
Y181735D01*
X533380Y181719D01*
X531827Y181596D01*
X530231Y181213D01*
X528713Y180585D01*
X527313Y179727D01*
X526064Y178660D01*
X524998Y177411D01*
X524140Y176011D01*
X523511Y174494D01*
X523128Y172897D01*
X522999Y171260D01*
X523128Y169623D01*
X523511Y168026D01*
X524140Y166509D01*
X524998Y165109D01*
X526064Y163860D01*
X527313Y162793D01*
X528713Y161935D01*
X530231Y161307D01*
X531827Y160923D01*
X533380Y160801D01*
X533465Y160784D01*
X537162D01*
Y72948D01*
X536130Y72897D01*
X532429Y72348D01*
X528798Y71439D01*
X525275Y70178D01*
X521892Y68578D01*
X518682Y66654D01*
X515676Y64425D01*
X512903Y61912D01*
X510390Y59139D01*
X508161Y56133D01*
X506237Y52923D01*
X504637Y49540D01*
X503376Y46016D01*
X502467Y42386D01*
X501918Y38685D01*
X501734Y34947D01*
X501755Y34530D01*
X501741Y34461D01*
Y3996D01*
X501729Y3937D01*
X501729D01*
X501625Y3280D01*
X501622Y3265D01*
X501241Y2696D01*
X500672Y2315D01*
X500066Y2195D01*
X500000Y2208D01*
X319685D01*
Y12795D01*
X310236D01*
Y2208D01*
X301969D01*
Y12795D01*
X284587D01*
Y2208D01*
X276319D01*
Y12795D01*
X259055D01*
Y2208D01*
X250787D01*
Y12795D01*
X241339D01*
Y2208D01*
X206496D01*
Y12795D01*
X197047D01*
Y2208D01*
X188779D01*
Y12795D01*
X170473D01*
Y2208D01*
X162205D01*
Y12795D01*
X152756D01*
Y2208D01*
X39370D01*
X39304Y2195D01*
X38698Y2315D01*
X38129Y2696D01*
X37748Y3265D01*
X37745Y3280D01*
X37641Y3937D01*
X37641D01*
X37629Y3996D01*
Y34461D01*
X37615Y34530D01*
X37636Y34947D01*
X37452Y38685D01*
X36903Y42386D01*
X35994Y46016D01*
X34733Y49540D01*
X33133Y52923D01*
X31209Y56133D01*
X28980Y59139D01*
X26467Y61912D01*
X23694Y64425D01*
X20688Y66654D01*
X17478Y68578D01*
X14095Y70178D01*
X10572Y71439D01*
X6942Y72348D01*
X3240Y72897D01*
X2208Y72948D01*
Y160784D01*
X5906D01*
X5906Y160784D01*
Y160784D01*
X5990Y160801D01*
X7543Y160923D01*
X9139Y161307D01*
X10657Y161935D01*
X12057Y162793D01*
X13306Y163860D01*
X14372Y165109D01*
X15230Y166509D01*
X15859Y168026D01*
X16242Y169623D01*
X16371Y171260D01*
X16242Y172897D01*
X15859Y174494D01*
X15230Y176011D01*
X14372Y177411D01*
X13306Y178660D01*
X12057Y179727D01*
X10657Y180585D01*
X9139Y181213D01*
X7543Y181596D01*
X5990Y181719D01*
X5906Y181735D01*
X2196D01*
Y269571D01*
X3240Y269623D01*
X6942Y270172D01*
X10572Y271081D01*
X14095Y272342D01*
X17478Y273942D01*
X20688Y275866D01*
X23694Y278095D01*
X26467Y280608D01*
X28980Y283381D01*
X31209Y286387D01*
X33133Y289597D01*
X34733Y292980D01*
X35994Y296503D01*
X36903Y300133D01*
X37064Y301220D01*
X37621Y301147D01*
X134236D01*
Y298532D01*
X137795D01*
Y297532D01*
X134236D01*
Y296934D01*
X125984D01*
X124957Y296799D01*
X123999Y296402D01*
X123176Y295771D01*
X122545Y294949D01*
X122031Y294904D01*
X121260Y295006D01*
X120489Y294904D01*
X120435Y294882D01*
X117126D01*
Y285827D01*
X118085D01*
Y272638D01*
X118186Y271867D01*
X118484Y271149D01*
X118957Y270532D01*
X120645Y268844D01*
X120588Y268511D01*
X120382Y268144D01*
X108306D01*
Y281299D01*
X108153Y282067D01*
X107718Y282718D01*
X107067Y283154D01*
X106299Y283306D01*
X85861D01*
Y285433D01*
X85725Y286461D01*
X85329Y287419D01*
X84698Y288241D01*
X83875Y288872D01*
X82917Y289269D01*
X81890Y289404D01*
X54134D01*
X53106Y289269D01*
X52148Y288872D01*
X51326Y288241D01*
X50695Y287419D01*
X50298Y286461D01*
X50163Y285433D01*
Y262829D01*
X31496D01*
X30468Y262694D01*
X29511Y262297D01*
X28688Y261666D01*
X28057Y260844D01*
X27660Y259886D01*
X27525Y258858D01*
Y234252D01*
X27660Y233224D01*
X28057Y232266D01*
X28688Y231444D01*
X29511Y230813D01*
X30468Y230416D01*
X31496Y230281D01*
X71202D01*
Y228650D01*
X74761D01*
Y227650D01*
X71202D01*
Y227396D01*
X30512D01*
X29484Y227261D01*
X28526Y226864D01*
X27704Y226233D01*
X27073Y225411D01*
X26676Y224453D01*
X26541Y223425D01*
Y199803D01*
X26676Y198775D01*
X27073Y197818D01*
X27704Y196995D01*
X28526Y196364D01*
X29484Y195967D01*
X30512Y195832D01*
X51928D01*
X52258Y195132D01*
X51909Y194609D01*
X51725Y193687D01*
Y172244D01*
X51909Y171322D01*
X52114Y171015D01*
X51740Y170315D01*
X51142D01*
Y162362D01*
X58780D01*
Y163331D01*
X60681D01*
Y166339D01*
X61181D01*
Y166839D01*
X64031D01*
Y169346D01*
X64031Y169346D01*
X64650Y169541D01*
X64836Y169591D01*
X65692Y170085D01*
X66391Y170784D01*
X66886Y171641D01*
X67140Y172591D01*
X63386D01*
Y173591D01*
X67140D01*
X67054Y173913D01*
X67480Y174469D01*
X69472D01*
Y171465D01*
X69485Y171402D01*
X69632Y169530D01*
X70086Y167642D01*
X70318Y167082D01*
X70362Y166857D01*
X70490Y166667D01*
X70574Y166464D01*
X70608Y166292D01*
X70705Y166146D01*
X70828Y165849D01*
X71068Y165458D01*
X71355Y164764D01*
X72169Y163704D01*
X72436Y163499D01*
X73062Y162766D01*
X73098Y162712D01*
X73772Y162039D01*
X73772Y162039D01*
X73866Y161944D01*
X73576Y161244D01*
X65945D01*
X65225Y161150D01*
X64555Y160872D01*
X63979Y160430D01*
X50867Y147317D01*
X50107Y147548D01*
X49932Y148427D01*
X49413Y149681D01*
X48659Y150809D01*
X47699Y151769D01*
X46571Y152523D01*
X46115Y152712D01*
X45998Y153518D01*
X46470Y153990D01*
X46990Y154892D01*
X47260Y155897D01*
Y155917D01*
X43307D01*
X39354D01*
Y155897D01*
X39624Y154892D01*
X40144Y153990D01*
X40616Y153518D01*
X40500Y152712D01*
X40044Y152523D01*
X38915Y151769D01*
X37955Y150809D01*
X37752Y150504D01*
X37052D01*
X36848Y150809D01*
X35888Y151769D01*
X34760Y152523D01*
X34304Y152712D01*
X34187Y153518D01*
X34659Y153990D01*
X35179Y154892D01*
X35449Y155897D01*
Y155917D01*
X31496D01*
X27543D01*
Y155897D01*
X27813Y154892D01*
X28333Y153990D01*
X28805Y153518D01*
X28689Y152712D01*
X28232Y152523D01*
X27104Y151769D01*
X26144Y150809D01*
X25390Y149681D01*
X24871Y148427D01*
X24606Y147096D01*
Y145739D01*
X24871Y144408D01*
X25390Y143154D01*
X26144Y142025D01*
X26752Y141417D01*
X26144Y140809D01*
X25390Y139681D01*
X24871Y138427D01*
X24606Y137096D01*
Y135739D01*
X24871Y134408D01*
X25390Y133154D01*
X26144Y132025D01*
X27104Y131066D01*
X27225Y130985D01*
X27022Y130315D01*
X24606D01*
Y116535D01*
X24697D01*
X25086Y115953D01*
X24871Y115435D01*
X24606Y114104D01*
Y112747D01*
X24871Y111416D01*
X25390Y110162D01*
X26144Y109033D01*
X26752Y108425D01*
X26144Y107817D01*
X25390Y106689D01*
X24871Y105435D01*
X24606Y104104D01*
Y102747D01*
X24871Y101416D01*
X25390Y100162D01*
X26144Y99033D01*
X26752Y98425D01*
X26144Y97817D01*
X25390Y96689D01*
X24871Y95435D01*
X24606Y94104D01*
Y92747D01*
X24871Y91416D01*
X25390Y90162D01*
X26144Y89033D01*
X26752Y88425D01*
X26144Y87817D01*
X25390Y86689D01*
X24871Y85435D01*
X24606Y84104D01*
Y82747D01*
X24871Y81415D01*
X25390Y80162D01*
X26144Y79033D01*
X27104Y78074D01*
X28232Y77320D01*
X28689Y77131D01*
X28805Y76325D01*
X28333Y75852D01*
X27813Y74951D01*
X27543Y73946D01*
Y73925D01*
X31496D01*
X35449D01*
Y73946D01*
X35179Y74951D01*
X34659Y75852D01*
X34187Y76325D01*
X34304Y77131D01*
X34760Y77320D01*
X35888Y78074D01*
X36848Y79033D01*
X37052Y79338D01*
X37752D01*
X37955Y79033D01*
X38563Y78425D01*
X37955Y77817D01*
X37201Y76689D01*
X36682Y75435D01*
X36417Y74104D01*
Y72747D01*
X36682Y71416D01*
X37201Y70162D01*
X37955Y69033D01*
X38915Y68074D01*
X40044Y67320D01*
X41297Y66800D01*
X42628Y66535D01*
X43986D01*
X45317Y66800D01*
X46571Y67320D01*
X47699Y68074D01*
X48659Y69033D01*
X49413Y70162D01*
X49932Y71416D01*
X50197Y72747D01*
Y74104D01*
X49932Y75435D01*
X49413Y76689D01*
X48659Y77817D01*
X48051Y78425D01*
X48659Y79033D01*
X49413Y80162D01*
X49932Y81415D01*
X49938Y81444D01*
X49958Y81460D01*
X50955Y82456D01*
X67520D01*
Y81496D01*
X68488D01*
Y80736D01*
X72441D01*
X76394D01*
Y81496D01*
X77362D01*
Y86496D01*
Y91496D01*
Y96496D01*
Y101496D01*
Y106496D01*
Y111496D01*
Y116496D01*
Y121496D01*
Y126496D01*
Y131496D01*
Y136496D01*
Y141496D01*
Y145236D01*
X136417D01*
Y141496D01*
Y136496D01*
Y131496D01*
Y126496D01*
Y121496D01*
Y116496D01*
Y111496D01*
Y106496D01*
Y101496D01*
Y96496D01*
Y91496D01*
Y86496D01*
Y81496D01*
X137386D01*
Y80736D01*
X141339D01*
X145291D01*
Y81496D01*
X146260D01*
Y82455D01*
X147047D01*
Y81102D01*
X148016D01*
Y78453D01*
X155134D01*
Y80039D01*
X155781Y80307D01*
X165189Y70898D01*
X165930Y70330D01*
X166792Y69973D01*
X167717Y69851D01*
X179141D01*
X179688Y69033D01*
X180647Y68074D01*
X181776Y67320D01*
X182442Y67044D01*
Y66286D01*
X182230Y66198D01*
X181490Y65630D01*
X181370Y65511D01*
X180803Y64771D01*
X180446Y63909D01*
X180330Y63032D01*
X180079D01*
Y56693D01*
X179921D01*
Y48622D01*
X179331D01*
Y48197D01*
X178953Y47654D01*
X178631Y47654D01*
X175697D01*
Y42520D01*
Y37386D01*
X178631D01*
X178953Y37386D01*
X179331Y36842D01*
Y36417D01*
X188779D01*
Y48606D01*
X191232D01*
Y52165D01*
X191732D01*
Y52665D01*
X195095D01*
Y55724D01*
X193937D01*
Y63032D01*
X193692D01*
Y68346D01*
X193570Y69271D01*
X193213Y70133D01*
X192645Y70874D01*
X191737Y71782D01*
X191929Y72747D01*
Y74104D01*
X191664Y75435D01*
X191145Y76689D01*
X190391Y77817D01*
X189783Y78425D01*
X190391Y79033D01*
X190595Y79338D01*
X191295D01*
X191499Y79033D01*
X192458Y78074D01*
X193587Y77320D01*
X194043Y77131D01*
X194160Y76325D01*
X193687Y75852D01*
X193167Y74951D01*
X192898Y73946D01*
Y73925D01*
X196850D01*
X200803D01*
Y73946D01*
X200534Y74951D01*
X200013Y75852D01*
X199541Y76325D01*
X199658Y77131D01*
X200114Y77320D01*
X201242Y78074D01*
X202202Y79033D01*
X202956Y80162D01*
X203475Y81415D01*
X203740Y82747D01*
Y84104D01*
X203475Y85435D01*
X202956Y86689D01*
X202202Y87817D01*
X201594Y88425D01*
X202202Y89033D01*
X202956Y90162D01*
X203475Y91416D01*
X203740Y92747D01*
Y94104D01*
X203475Y95435D01*
X202956Y96689D01*
X202202Y97817D01*
X201594Y98425D01*
X202202Y99033D01*
X202956Y100162D01*
X203475Y101416D01*
X203740Y102747D01*
Y104104D01*
X203475Y105435D01*
X202956Y106689D01*
X202202Y107817D01*
X201594Y108425D01*
X202202Y109033D01*
X202956Y110162D01*
X203475Y111416D01*
X203740Y112747D01*
Y114104D01*
X203475Y115435D01*
X203261Y115953D01*
X203649Y116535D01*
X203740D01*
Y130315D01*
X201325D01*
X201121Y130985D01*
X201242Y131066D01*
X202202Y132025D01*
X202956Y133154D01*
X203475Y134408D01*
X203740Y135739D01*
Y137096D01*
X203475Y138427D01*
X202956Y139681D01*
X202202Y140809D01*
X201594Y141417D01*
X202202Y142025D01*
X202956Y143154D01*
X203475Y144408D01*
X203740Y145739D01*
Y147096D01*
X203475Y148427D01*
X202956Y149681D01*
X202202Y150809D01*
X201594Y151417D01*
X202202Y152025D01*
X202956Y153154D01*
X203475Y154408D01*
X203740Y155739D01*
Y157096D01*
X203475Y158427D01*
X202956Y159681D01*
X202202Y160809D01*
X201594Y161417D01*
X202202Y162025D01*
X202956Y163154D01*
X203475Y164408D01*
X203740Y165739D01*
Y167096D01*
X203475Y168427D01*
X202956Y169681D01*
X202202Y170809D01*
X201594Y171417D01*
X202202Y172025D01*
X202956Y173154D01*
X203475Y174408D01*
X203740Y175739D01*
Y177096D01*
X203475Y178427D01*
X202956Y179681D01*
X202202Y180809D01*
X201242Y181769D01*
X201085Y181874D01*
X200803Y182465D01*
X200803D01*
X200803Y182465D01*
Y185917D01*
X196850D01*
X192898D01*
Y182515D01*
X192808Y182394D01*
X192629Y182254D01*
X191929Y182595D01*
Y193307D01*
X178184D01*
Y196198D01*
X178884Y196543D01*
X179117Y196364D01*
X180075Y195967D01*
X181102Y195832D01*
X204724Y195832D01*
X205752Y195967D01*
X206710Y196364D01*
X207532Y196995D01*
X208163Y197818D01*
X208560Y198775D01*
X208695Y199803D01*
X208695Y201772D01*
Y221457D01*
X208695Y221457D01*
X208695Y223425D01*
X208560Y224453D01*
X208163Y225411D01*
X207532Y226233D01*
X206710Y226864D01*
X205752Y227261D01*
X204724Y227396D01*
X181102D01*
X180075Y227261D01*
X179117Y226864D01*
X178295Y226233D01*
X178294Y226233D01*
X177165Y225104D01*
X176036Y226233D01*
X175214Y226864D01*
X174256Y227261D01*
X173228Y227396D01*
X165354D01*
X165354Y227396D01*
X143726D01*
Y228346D01*
X143726Y228346D01*
X143625Y229117D01*
X143327Y229836D01*
X142854Y230452D01*
X142854Y230452D01*
X139595Y233711D01*
X139803Y234213D01*
X139803D01*
Y242165D01*
X125945D01*
Y241167D01*
X124882D01*
Y242165D01*
X124041D01*
Y253688D01*
X124856Y254502D01*
X125669D01*
Y253405D01*
X126638D01*
Y251287D01*
X131890D01*
Y250787D01*
D01*
Y251287D01*
X137142D01*
Y253405D01*
X138110D01*
Y260098D01*
Y266791D01*
Y270635D01*
X140714D01*
Y260827D01*
X140849Y259799D01*
X141246Y258841D01*
X141877Y258019D01*
X142700Y257388D01*
X143657Y256991D01*
X144685Y256856D01*
X172244D01*
X173272Y256991D01*
X174230Y257388D01*
X175052Y258019D01*
X175683Y258841D01*
X176080Y259799D01*
X176215Y260827D01*
Y296260D01*
X176080Y297288D01*
X175690Y298228D01*
X176080Y299169D01*
X176215Y300197D01*
X176215Y320866D01*
X176080Y321894D01*
X175683Y322852D01*
X175052Y323674D01*
X174230Y324305D01*
X173272Y324702D01*
X172244Y324837D01*
X170243D01*
X170016Y325230D01*
X169923Y325537D01*
X170120Y326272D01*
X166732D01*
X163345D01*
X163541Y325537D01*
X163449Y325230D01*
X163221Y324837D01*
X160243D01*
X160016Y325230D01*
X159923Y325537D01*
X160120Y326272D01*
X156732D01*
X153345D01*
X153542Y325537D01*
X153448Y325230D01*
X153221Y324837D01*
X150243D01*
X150016Y325230D01*
X149923Y325537D01*
X150120Y326272D01*
X146732D01*
X143345D01*
X143542Y325537D01*
X143448Y325230D01*
X143221Y324837D01*
X140243D01*
X140016Y325230D01*
X139923Y325537D01*
X140120Y326272D01*
X136732D01*
X133345D01*
X133542Y325537D01*
X133449Y325230D01*
X133221Y324837D01*
X130243D01*
X130016Y325230D01*
X129923Y325537D01*
X130120Y326272D01*
X126732D01*
Y326772D01*
D01*
Y326272D01*
X123345D01*
X123541Y325537D01*
X123449Y325230D01*
X123221Y324837D01*
X120134D01*
Y326272D01*
X116732D01*
Y326772D01*
X116232D01*
Y330173D01*
X114207D01*
Y340312D01*
X499315D01*
X500000Y340312D01*
D02*
G37*
G36*
X172244Y260827D02*
X144685D01*
Y274606D01*
X125984Y274606D01*
Y283465D01*
Y292963D01*
X156496D01*
Y296260D01*
X172244D01*
Y260827D01*
D02*
G37*
G36*
X81890Y234252D02*
X31496D01*
Y258858D01*
X52165D01*
X54134Y260827D01*
Y285433D01*
X81890D01*
Y234252D01*
D02*
G37*
G36*
X121376Y259836D02*
X121432Y259502D01*
X118957Y257027D01*
X118484Y256410D01*
X118186Y255692D01*
X118085Y254921D01*
Y242165D01*
X117244D01*
Y241197D01*
X115343D01*
Y238189D01*
Y235181D01*
X117244D01*
Y234213D01*
X124882D01*
Y235211D01*
X125945D01*
Y234213D01*
X133006D01*
Y233110D01*
X133107Y232339D01*
X133405Y231621D01*
X133878Y231004D01*
X136840Y228043D01*
X136572Y227396D01*
X98771D01*
X98441Y227826D01*
Y227847D01*
X94488D01*
X90535D01*
Y227826D01*
X90206Y227396D01*
X86236D01*
Y227650D01*
X82677D01*
Y228650D01*
X86236D01*
Y231512D01*
X85541D01*
X85231Y232140D01*
X85329Y232266D01*
X85725Y233224D01*
X85861Y234252D01*
Y245040D01*
X106299D01*
X107067Y245193D01*
X107718Y245628D01*
X108153Y246279D01*
X108306Y247047D01*
Y260202D01*
X121169D01*
X121376Y259836D01*
D02*
G37*
G36*
X165354Y223425D02*
X173228D01*
X175197Y221457D01*
X175197D01*
Y201772D01*
X173228Y199803D01*
X30512D01*
Y223425D01*
X165354D01*
Y223425D01*
D02*
G37*
G36*
X204724Y221457D02*
X204724D01*
Y201772D01*
X204724Y199803D01*
X181102Y199803D01*
X179134Y201772D01*
Y221457D01*
X179134D01*
X181102Y223425D01*
X204724D01*
X204724Y221457D01*
D02*
G37*
G36*
X126969Y183071D02*
X109252D01*
Y196850D01*
X126969D01*
Y183071D01*
D02*
G37*
G36*
X174213Y181102D02*
X154315D01*
Y196850D01*
X174213D01*
Y181102D01*
D02*
G37*
G36*
X150344D02*
X150479Y180075D01*
X150876Y179117D01*
X151507Y178295D01*
X152330Y177663D01*
X153287Y177267D01*
X154315Y177131D01*
X174213D01*
X175240Y177267D01*
X176198Y177663D01*
X177021Y178295D01*
X177631Y179090D01*
X177669Y179122D01*
X177929Y179085D01*
X178310Y178568D01*
X178328Y178322D01*
X176014Y176008D01*
X127953D01*
X127233Y175913D01*
X126563Y175636D01*
X125987Y175194D01*
X107579Y156785D01*
X106949Y156817D01*
X106751Y156903D01*
X106355Y157418D01*
X106296Y157477D01*
X105721Y157919D01*
X105050Y158197D01*
X104331Y158291D01*
X103611Y158197D01*
X102941Y157919D01*
X102365Y157477D01*
X102311Y157407D01*
X101429D01*
X101375Y157477D01*
X98422Y160430D01*
X97847Y160872D01*
X97176Y161150D01*
X96457Y161244D01*
X77999D01*
X77709Y161944D01*
X77803Y162039D01*
X78165Y162913D01*
Y163859D01*
X77803Y164733D01*
X77182Y165354D01*
X77803Y165976D01*
X77851Y166090D01*
X78723Y165916D01*
X93522D01*
X94443Y166100D01*
X95225Y166622D01*
X98160Y169557D01*
X98682Y170338D01*
X98865Y171260D01*
Y173189D01*
X100433D01*
Y180827D01*
X99465D01*
Y182728D01*
X96457D01*
X93449D01*
Y180827D01*
X92480D01*
Y173189D01*
X94048D01*
Y172257D01*
X92524Y170733D01*
X86068D01*
X85663Y171433D01*
X85783Y171641D01*
X86038Y172591D01*
X82284D01*
Y173591D01*
X86038D01*
X85783Y174540D01*
X85289Y175397D01*
X85276Y175411D01*
X85252Y175437D01*
X85252Y175437D01*
Y178114D01*
X90551D01*
X90941Y178192D01*
X91272Y178413D01*
X91493Y178744D01*
X91571Y179134D01*
Y183677D01*
X91493Y184067D01*
X91272Y184398D01*
X90941Y184619D01*
X90551Y184697D01*
X85252D01*
Y187673D01*
X85252Y187673D01*
X85252D01*
X85276Y187699D01*
X85289Y187714D01*
X85783Y188570D01*
X86038Y189520D01*
X82284D01*
X78529D01*
X78615Y189197D01*
X78189Y188642D01*
X76197D01*
Y192528D01*
X76326Y192840D01*
X76361Y193001D01*
X76326D01*
Y193786D01*
X75964Y194660D01*
X75492Y195132D01*
X75770Y195832D01*
X105281D01*
Y183071D01*
X105416Y182043D01*
X105813Y181085D01*
X106444Y180263D01*
X107266Y179632D01*
X108224Y179235D01*
X109252Y179100D01*
X126969D01*
X127996Y179235D01*
X128954Y179632D01*
X129776Y180263D01*
X130408Y181085D01*
X130804Y182043D01*
X130939Y183071D01*
Y195832D01*
X150344D01*
Y181102D01*
D02*
G37*
G36*
X178317Y157938D02*
X178150Y157096D01*
Y155739D01*
X178414Y154408D01*
X178934Y153154D01*
X179688Y152025D01*
X180296Y151417D01*
X179688Y150809D01*
X178934Y149681D01*
X178414Y148427D01*
X178150Y147096D01*
Y145739D01*
X178414Y144408D01*
X178934Y143154D01*
X179688Y142025D01*
X180296Y141417D01*
X179688Y140809D01*
X178934Y139681D01*
X178414Y138427D01*
X178150Y137096D01*
Y135739D01*
X178414Y134408D01*
X178934Y133154D01*
X179688Y132025D01*
X180647Y131066D01*
X180768Y130985D01*
X180565Y130315D01*
X178150D01*
Y125080D01*
X177503Y124812D01*
X165113Y137202D01*
X164537Y137644D01*
X163867Y137921D01*
X163425Y137979D01*
Y139397D01*
X163638Y139485D01*
X164887Y139649D01*
X165011Y139625D01*
X166218D01*
X166271Y139635D01*
X166636Y139563D01*
X166763Y139342D01*
X167243Y138863D01*
X167830Y138524D01*
X168484Y138348D01*
X169162D01*
X169817Y138524D01*
X170405Y138863D01*
X170884Y139342D01*
X171223Y139929D01*
X171398Y140584D01*
Y141262D01*
X171223Y141917D01*
X170884Y142504D01*
X170853Y142535D01*
X170418Y142998D01*
X170853Y143461D01*
X170884Y143492D01*
X171223Y144079D01*
X171398Y144734D01*
Y145412D01*
X171223Y146067D01*
X170884Y146654D01*
X170405Y147133D01*
X169817Y147472D01*
X169162Y147648D01*
X168484D01*
X167830Y147472D01*
X167243Y147133D01*
X166763Y146654D01*
X166424Y146067D01*
X166413Y146025D01*
X166323Y145936D01*
X166295Y145893D01*
X166067Y145798D01*
X166017Y145808D01*
X165011D01*
X164887Y145784D01*
X163638Y145948D01*
X163425Y146036D01*
Y149646D01*
X162457D01*
Y151075D01*
X159606D01*
Y152075D01*
X162457D01*
Y153504D01*
X163425D01*
Y154666D01*
X165281D01*
X166052Y154768D01*
X166770Y155065D01*
X167387Y155538D01*
X167860Y156155D01*
X168158Y156873D01*
X168259Y157644D01*
X168221Y157938D01*
X168776Y158638D01*
X177777D01*
X178317Y157938D01*
D02*
G37*
%LPC*%
G36*
X476722Y334661D02*
X471891D01*
Y332095D01*
X476722D01*
Y334661D01*
D02*
G37*
G36*
X470891D02*
X466061D01*
Y332095D01*
X470891D01*
Y334661D01*
D02*
G37*
G36*
X476722Y331095D02*
X466061D01*
Y330912D01*
X464468D01*
X463652Y330805D01*
X462890Y330490D01*
X462236Y329988D01*
X462034Y329724D01*
X460761D01*
Y329724D01*
X460484Y329481D01*
X460077Y329535D01*
X458896D01*
X458101Y329430D01*
X457632Y329624D01*
X456815Y329731D01*
X455438D01*
X454847Y329654D01*
X454256Y329731D01*
X452879D01*
X452062Y329624D01*
X451625Y329443D01*
X450929Y329535D01*
X449748D01*
X448931Y329427D01*
X448556Y329272D01*
X447149Y329193D01*
X446974Y329160D01*
X446797Y329153D01*
X443866Y328655D01*
X443697Y328603D01*
X443521Y328576D01*
X440665Y327754D01*
X440502Y327683D01*
X440331Y327637D01*
X437584Y326499D01*
X437431Y326410D01*
X437266Y326346D01*
X434664Y324908D01*
X434521Y324802D01*
X434364Y324719D01*
X431940Y322999D01*
X431810Y322879D01*
X431663Y322779D01*
X429447Y320798D01*
X429385Y320726D01*
X429314Y320671D01*
X429261Y320603D01*
X429195Y320546D01*
X429190Y320541D01*
X429171Y320512D01*
X412816Y304157D01*
X412680Y304130D01*
X412473Y304116D01*
X411859Y303994D01*
X411719Y304332D01*
X411613Y304470D01*
X410556Y303413D01*
X410200Y303175D01*
X409967Y302971D01*
X409722Y302782D01*
X407355Y300416D01*
X404989Y298049D01*
X404801Y297804D01*
X404597Y297571D01*
X404359Y297215D01*
X403301Y296158D01*
X403439Y296052D01*
X403777Y295912D01*
X403655Y295298D01*
X403641Y295091D01*
X403601Y294888D01*
X403615Y294682D01*
X403601Y294476D01*
X403641Y294273D01*
X403655Y294066D01*
X403777Y293452D01*
X403844Y293256D01*
X403884Y293053D01*
X403975Y292867D01*
X404042Y292671D01*
X404157Y292499D01*
X404248Y292314D01*
X404597Y291793D01*
X404733Y291637D01*
X404848Y291465D01*
X405003Y291329D01*
X405140Y291173D01*
X405312Y291058D01*
X405467Y290922D01*
X405988Y290574D01*
X406174Y290482D01*
X406346Y290368D01*
X406542Y290301D01*
X406727Y290210D01*
X406930Y290169D01*
X407126Y290103D01*
X407741Y289980D01*
X407947Y289967D01*
X408150Y289927D01*
X408357Y289940D01*
X408563Y289927D01*
X408766Y289967D01*
X408972Y289980D01*
X409586Y290103D01*
X409726Y289764D01*
X409832Y289627D01*
X410890Y290684D01*
X411246Y290922D01*
X411478Y291126D01*
X411724Y291315D01*
X414090Y293681D01*
X416457Y296047D01*
X416645Y296293D01*
X416849Y296526D01*
X417087Y296882D01*
X418144Y297939D01*
X418007Y298045D01*
X417668Y298185D01*
X417791Y298799D01*
X417804Y299005D01*
X417831Y299141D01*
X434338Y315648D01*
X434389Y315714D01*
X436219Y317350D01*
X438283Y318815D01*
X440499Y320039D01*
X442838Y321008D01*
X445270Y321709D01*
X447766Y322133D01*
X448042Y322148D01*
X448551Y321667D01*
Y321441D01*
X452126D01*
Y321441D01*
X452623Y321877D01*
X452879Y321843D01*
X454256D01*
X454847Y321921D01*
X455438Y321843D01*
X456815D01*
X456999Y321868D01*
X457699Y321441D01*
Y321441D01*
X461274D01*
Y321850D01*
X462034D01*
X462236Y321587D01*
X462890Y321085D01*
X463652Y320770D01*
X464468Y320662D01*
X466061D01*
Y320480D01*
X476722D01*
Y322799D01*
X477295D01*
X477685Y322877D01*
X478016Y323098D01*
X478237Y323429D01*
X478315Y323819D01*
Y327756D01*
X478237Y328146D01*
X478016Y328477D01*
X477685Y328698D01*
X477295Y328776D01*
X476722D01*
Y331095D01*
D02*
G37*
G36*
X127232Y330159D02*
Y327272D01*
X130120D01*
X129902Y328085D01*
X129454Y328860D01*
X128821Y329494D01*
X128045Y329941D01*
X127232Y330159D01*
D02*
G37*
G36*
X147232D02*
Y327272D01*
X150120D01*
X149902Y328085D01*
X149454Y328860D01*
X148821Y329494D01*
X148045Y329941D01*
X147232Y330159D01*
D02*
G37*
G36*
X167232D02*
Y327272D01*
X170120D01*
X169902Y328085D01*
X169454Y328860D01*
X168821Y329494D01*
X168045Y329941D01*
X167232Y330159D01*
D02*
G37*
G36*
X157232D02*
Y327272D01*
X160120D01*
X159902Y328085D01*
X159454Y328860D01*
X158821Y329494D01*
X158045Y329941D01*
X157232Y330159D01*
D02*
G37*
G36*
X120134Y330173D02*
X117232D01*
Y327272D01*
X120134D01*
Y330173D01*
D02*
G37*
G36*
X137232Y330159D02*
Y327272D01*
X140120D01*
X139902Y328085D01*
X139454Y328860D01*
X138821Y329494D01*
X138045Y329941D01*
X137232Y330159D01*
D02*
G37*
G36*
X146232Y330159D02*
X145419Y329941D01*
X144644Y329494D01*
X144010Y328860D01*
X143562Y328085D01*
X143345Y327272D01*
X146232D01*
Y330159D01*
D02*
G37*
G36*
X126232D02*
X125419Y329941D01*
X124644Y329494D01*
X124010Y328860D01*
X123563Y328085D01*
X123345Y327272D01*
X126232D01*
Y330159D01*
D02*
G37*
G36*
X166232D02*
X165419Y329941D01*
X164644Y329494D01*
X164010Y328860D01*
X163563Y328085D01*
X163345Y327272D01*
X166232D01*
Y330159D01*
D02*
G37*
G36*
X156232D02*
X155419Y329941D01*
X154644Y329494D01*
X154010Y328860D01*
X153562Y328085D01*
X153345Y327272D01*
X156232D01*
Y330159D01*
D02*
G37*
G36*
X136232D02*
X135419Y329941D01*
X134644Y329494D01*
X134010Y328860D01*
X133563Y328085D01*
X133345Y327272D01*
X136232D01*
Y330159D01*
D02*
G37*
G36*
X416857Y332677D02*
X415820D01*
X414819Y332409D01*
X413921Y331891D01*
X413188Y331157D01*
X412670Y330260D01*
X412402Y329258D01*
Y328222D01*
X412670Y327221D01*
X413188Y326323D01*
X413921Y325590D01*
X414819Y325072D01*
X415820Y324803D01*
X416857D01*
X417858Y325072D01*
X418756Y325590D01*
X419489Y326323D01*
X420007Y327221D01*
X420276Y328222D01*
Y329258D01*
X420007Y330260D01*
X419489Y331157D01*
X418756Y331891D01*
X417858Y332409D01*
X416857Y332677D01*
D02*
G37*
G36*
X476722Y319480D02*
X471891D01*
Y316913D01*
X476722D01*
Y319480D01*
D02*
G37*
G36*
X470891D02*
X466061D01*
Y316913D01*
X470891D01*
Y319480D01*
D02*
G37*
G36*
X394994Y320107D02*
X394322Y320018D01*
X393695Y319759D01*
X393157Y319346D01*
X391145Y317334D01*
X392628Y315851D01*
X396430Y319653D01*
X396292Y319759D01*
X395666Y320018D01*
X394994Y320107D01*
D02*
G37*
G36*
X390438Y316626D02*
X388425Y314614D01*
X388012Y314076D01*
X387753Y313450D01*
X387664Y312777D01*
X387753Y312105D01*
X388012Y311479D01*
X388118Y311341D01*
X391920Y315144D01*
X390438Y316626D01*
D02*
G37*
G36*
X397137Y318946D02*
X392981Y314790D01*
X388825Y310634D01*
X388963Y310528D01*
X389589Y310269D01*
X390261Y310180D01*
X390788Y310250D01*
X391116Y310014D01*
X391353Y309685D01*
X391283Y309158D01*
X391372Y308486D01*
X391631Y307860D01*
X391737Y307722D01*
X395893Y311878D01*
X400049Y316034D01*
X399911Y316140D01*
X399285Y316399D01*
X398613Y316488D01*
X398086Y316419D01*
X397758Y316655D01*
X397521Y316983D01*
X397591Y317510D01*
X397502Y318182D01*
X397243Y318808D01*
X397137Y318946D01*
D02*
G37*
G36*
X400756Y315327D02*
X396600Y311171D01*
X392444Y307015D01*
X392582Y306909D01*
X393208Y306650D01*
X393880Y306561D01*
X394407Y306630D01*
X394736Y306395D01*
X394972Y306066D01*
X394902Y305539D01*
X394991Y304867D01*
X395250Y304241D01*
X395356Y304103D01*
X399512Y308259D01*
X403668Y312415D01*
X403530Y312521D01*
X402904Y312780D01*
X402232Y312869D01*
X401706Y312800D01*
X401377Y313036D01*
X401141Y313364D01*
X401210Y313891D01*
X401121Y314563D01*
X400862Y315189D01*
X400756Y315327D01*
D02*
G37*
G36*
X272134Y336429D02*
X225897D01*
Y303184D01*
X222967D01*
Y312992D01*
Y326772D01*
X222832Y327799D01*
X222435Y328757D01*
X221804Y329580D01*
X220982Y330211D01*
X220024Y330607D01*
X218996Y330743D01*
X202264D01*
X201236Y330607D01*
X200278Y330211D01*
X199456Y329580D01*
X198825Y328757D01*
X198428Y327799D01*
X198293Y326772D01*
Y312992D01*
Y301181D01*
X198428Y300153D01*
X198466Y300063D01*
X198354Y299213D01*
Y288386D01*
X198489Y287358D01*
X198886Y286400D01*
X199517Y285578D01*
X200339Y284947D01*
X201297Y284550D01*
X202325Y284415D01*
X231611D01*
Y267447D01*
X232244D01*
Y260787D01*
X233163D01*
Y258937D01*
X233265Y258166D01*
X233562Y257448D01*
X234036Y256831D01*
X234115Y256752D01*
X234731Y256279D01*
X235450Y255981D01*
X236221Y255880D01*
X236991Y255981D01*
X237710Y256279D01*
X238326Y256752D01*
X238800Y257369D01*
X239097Y258087D01*
X239199Y258858D01*
X239120Y259456D01*
Y260787D01*
X246102D01*
Y267447D01*
X246341D01*
Y268415D01*
Y271654D01*
X248516D01*
Y277365D01*
X249516D01*
Y271654D01*
X251690D01*
Y268415D01*
Y267447D01*
X251929D01*
Y260118D01*
X252898D01*
Y258216D01*
X255905D01*
Y257716D01*
X256405D01*
Y254866D01*
X258819D01*
Y253898D01*
X265709D01*
Y253898D01*
X273661D01*
Y260118D01*
Y267756D01*
X272663D01*
Y284415D01*
X277559D01*
X277559Y284415D01*
X278431Y284415D01*
X278818Y284466D01*
X279206Y284491D01*
X280918Y284832D01*
X281286Y284957D01*
X281663Y285057D01*
X283275Y285725D01*
X283612Y285920D01*
X283961Y286092D01*
X285412Y287062D01*
X285705Y287318D01*
X286014Y287556D01*
X287248Y288789D01*
X287485Y289098D01*
X287741Y289391D01*
X288711Y290842D01*
X288883Y291191D01*
X289078Y291529D01*
X289746Y293141D01*
X289846Y293517D01*
X289971Y293885D01*
X290149Y294778D01*
X295654Y294732D01*
Y291126D01*
X298713D01*
Y294488D01*
X299713D01*
Y291126D01*
X302772D01*
Y293497D01*
X303472Y293964D01*
X303528Y293941D01*
Y291126D01*
X306587D01*
Y294488D01*
X307587D01*
Y291126D01*
X310646D01*
Y293432D01*
X311346Y293899D01*
X311402Y293876D01*
Y291126D01*
X314461D01*
Y294488D01*
X315461D01*
Y291126D01*
X318520D01*
Y293368D01*
X319220Y293834D01*
X319276Y293811D01*
Y291126D01*
X322335D01*
Y294488D01*
X323335D01*
Y291126D01*
X326394D01*
Y293303D01*
X327094Y293769D01*
X327150Y293746D01*
Y291126D01*
X334268D01*
Y293238D01*
X334968Y293705D01*
X335024Y293681D01*
Y291126D01*
X341627Y291126D01*
X341674D01*
D01*
X341695Y291126D01*
X341729Y291044D01*
X341985Y290426D01*
X339509Y287950D01*
X331693D01*
X330730Y287758D01*
X329913Y287213D01*
X321055Y278355D01*
X321055Y278355D01*
X311950Y269249D01*
X296260D01*
X295297Y269058D01*
X294480Y268512D01*
X289559Y263591D01*
X289013Y262774D01*
X288822Y261811D01*
X289013Y260848D01*
X289559Y260031D01*
X290375Y259486D01*
X291313Y259299D01*
X291389Y259187D01*
X291645Y258641D01*
X283677Y250673D01*
X283615Y250581D01*
X282540Y249698D01*
X281216Y248991D01*
X279780Y248555D01*
X278397Y248419D01*
X278287Y248441D01*
X241462D01*
X241348Y248418D01*
X239837Y248299D01*
X238251Y247919D01*
X236745Y247295D01*
X235355Y246443D01*
X234202Y245458D01*
X234106Y245394D01*
X233522Y244810D01*
X233459Y244716D01*
X232463Y243549D01*
X231603Y242146D01*
X230973Y240625D01*
X230588Y239024D01*
X230468Y237494D01*
X230446Y237383D01*
Y236260D01*
X226339D01*
Y235134D01*
X223925D01*
Y232283D01*
X223425D01*
Y231783D01*
X220417D01*
Y229882D01*
X219449D01*
Y222244D01*
X220948D01*
X221100Y221478D01*
X221645Y220661D01*
X224317Y217989D01*
X224027Y217289D01*
X223350D01*
X222394Y217034D01*
X221538Y216539D01*
X220839Y215840D01*
X220344Y214983D01*
X220090Y214034D01*
X223844D01*
Y213034D01*
X220090D01*
X220344Y212084D01*
X220839Y211227D01*
X220851Y211213D01*
X220876Y211187D01*
X220876Y211187D01*
Y209106D01*
X220479Y208471D01*
X215180D01*
X214790Y208394D01*
X214459Y208173D01*
X214238Y207842D01*
X214160Y207452D01*
Y202908D01*
X214238Y202518D01*
X214459Y202187D01*
X214790Y201967D01*
X215180Y201889D01*
X220479D01*
X220876Y201254D01*
Y198951D01*
X220876Y198951D01*
X220876D01*
X220852Y198925D01*
X220839Y198911D01*
X220344Y198054D01*
X220090Y197104D01*
X223844D01*
Y196104D01*
X220084D01*
X219927Y195900D01*
X212598D01*
X211571Y195765D01*
X210613Y195368D01*
X209790Y194737D01*
X209159Y193915D01*
X208763Y192957D01*
X208627Y191929D01*
Y181102D01*
X208763Y180075D01*
X209159Y179117D01*
X209790Y178295D01*
X210613Y177663D01*
X211571Y177267D01*
X212598Y177131D01*
X233268D01*
X234296Y177267D01*
X235253Y177663D01*
X236076Y178295D01*
X236707Y179117D01*
X237103Y180075D01*
X237239Y181102D01*
Y188063D01*
X237939Y188456D01*
X238726Y188299D01*
X255458D01*
X256421Y188491D01*
X257238Y189036D01*
X258222Y190021D01*
X258222Y190021D01*
X260191Y191989D01*
X260736Y192806D01*
X260928Y193769D01*
Y197667D01*
X262387D01*
Y205304D01*
X261419D01*
Y207206D01*
X258411D01*
X255403D01*
Y205304D01*
X254435D01*
Y197667D01*
X255894D01*
Y194811D01*
X254663Y193580D01*
X254663Y193580D01*
X254416Y193333D01*
X245772D01*
X245482Y194033D01*
X245747Y194298D01*
X246242Y195155D01*
X246496Y196104D01*
X242742D01*
Y197104D01*
X246496D01*
X246242Y198054D01*
X245747Y198911D01*
X245735Y198925D01*
X245710Y198951D01*
X245710Y198951D01*
Y199616D01*
X245760Y199735D01*
X245808Y199804D01*
X245952Y199935D01*
X246140Y200052D01*
X246278Y200117D01*
X246408Y200134D01*
X246575Y200112D01*
X246576Y200111D01*
X246645Y200102D01*
X246869Y200039D01*
X246925Y200031D01*
X246943Y200031D01*
X246961Y200026D01*
X247021Y200019D01*
X247079Y200011D01*
X247343Y200010D01*
X247604Y199976D01*
X248510D01*
X248771Y200010D01*
X249035Y200011D01*
X249093Y200019D01*
X249152Y200026D01*
X249170Y200031D01*
X249189Y200031D01*
X249244Y200039D01*
X249468Y200102D01*
X249537Y200111D01*
X249539Y200112D01*
X249706Y200134D01*
X249765Y200149D01*
X249798Y200163D01*
X249833Y200168D01*
X249888Y200184D01*
X250007Y200235D01*
X250133Y200262D01*
X250188Y200282D01*
X250298Y200339D01*
X250416Y200372D01*
X250471Y200395D01*
X250519Y200424D01*
X250571Y200440D01*
X250622Y200463D01*
X250726Y200529D01*
X250841Y200572D01*
X250892Y200600D01*
X250981Y200664D01*
X250986Y200668D01*
X251091Y200715D01*
X251142Y200746D01*
X251193Y200777D01*
X251373Y200924D01*
X251393Y200933D01*
X251418Y200955D01*
X251537Y201022D01*
X251585Y201057D01*
X251677Y201148D01*
X251783Y201221D01*
X251827Y201261D01*
X251832Y201267D01*
X251874Y201296D01*
X251917Y201335D01*
X252039Y201480D01*
X252184Y201603D01*
X252224Y201646D01*
X252253Y201688D01*
X252259Y201693D01*
X252298Y201736D01*
X252372Y201842D01*
X252462Y201935D01*
X252498Y201982D01*
X252565Y202101D01*
X252586Y202127D01*
X252591Y202137D01*
X252696Y202256D01*
X252727Y202304D01*
X252733Y202315D01*
X252742Y202326D01*
X252773Y202377D01*
X252828Y202499D01*
X252889Y202588D01*
X252902Y202622D01*
X252975Y202730D01*
X253002Y202785D01*
X253023Y202844D01*
X253056Y202897D01*
X253080Y202948D01*
X253096Y203001D01*
X253124Y203048D01*
X253148Y203103D01*
X253181Y203222D01*
X253237Y203331D01*
X253257Y203386D01*
X253284Y203513D01*
X253336Y203631D01*
X253351Y203687D01*
X253357Y203722D01*
X253370Y203754D01*
X253386Y203814D01*
X253408Y203981D01*
X253408Y203982D01*
X253417Y204051D01*
X253480Y204275D01*
X253488Y204330D01*
X253488Y204349D01*
X253493Y204367D01*
X253501Y204426D01*
X253509Y204485D01*
X253509Y204611D01*
X253510Y204617D01*
X253510Y204757D01*
X253544Y205010D01*
Y205128D01*
X253510Y205381D01*
X253510Y205521D01*
X253509Y205527D01*
X253509Y205653D01*
X253501Y205712D01*
X253493Y205771D01*
X253488Y205789D01*
X253488Y205807D01*
X253480Y205863D01*
X253417Y206087D01*
X253408Y206156D01*
X253408Y206157D01*
X253386Y206324D01*
X253370Y206383D01*
X253357Y206416D01*
X253351Y206451D01*
X253336Y206506D01*
X253284Y206625D01*
X253257Y206751D01*
X253237Y206807D01*
X253181Y206916D01*
X253148Y207035D01*
X253124Y207090D01*
X253096Y207137D01*
X253080Y207190D01*
X253056Y207241D01*
X253023Y207294D01*
X253002Y207353D01*
X252975Y207408D01*
X252902Y207516D01*
X252889Y207550D01*
X252828Y207639D01*
X252773Y207761D01*
X252742Y207812D01*
X252733Y207822D01*
X252727Y207834D01*
X252696Y207881D01*
X252591Y208001D01*
X252586Y208011D01*
X252565Y208037D01*
X252498Y208156D01*
X252462Y208203D01*
X252372Y208296D01*
X252298Y208402D01*
X252259Y208445D01*
X252253Y208450D01*
X252224Y208492D01*
X252184Y208535D01*
X252039Y208658D01*
X251917Y208803D01*
X251874Y208842D01*
X251832Y208871D01*
X251827Y208877D01*
X251783Y208916D01*
X251677Y208990D01*
X251585Y209081D01*
X251537Y209116D01*
X251418Y209183D01*
X251393Y209205D01*
X251373Y209214D01*
X251193Y209361D01*
X251091Y209423D01*
X250986Y209470D01*
X250981Y209474D01*
X250892Y209538D01*
X250841Y209565D01*
X250726Y209609D01*
X250622Y209675D01*
X250571Y209698D01*
X250519Y209714D01*
X250471Y209742D01*
X250416Y209766D01*
X250298Y209799D01*
X250188Y209856D01*
X250133Y209875D01*
X250007Y209903D01*
X249888Y209954D01*
X249833Y209970D01*
X249798Y209975D01*
X249765Y209988D01*
X249706Y210004D01*
X249539Y210026D01*
X249537Y210027D01*
X249468Y210036D01*
X249244Y210099D01*
X249189Y210106D01*
X249170Y210107D01*
X249152Y210111D01*
X249093Y210119D01*
X249035Y210127D01*
X248771Y210128D01*
X248510Y210162D01*
X247604D01*
X247343Y210128D01*
X247079Y210127D01*
X247021Y210119D01*
X246961Y210111D01*
X246943Y210107D01*
X246925Y210106D01*
X246869Y210099D01*
X246645Y210036D01*
X246576Y210027D01*
X246575Y210026D01*
X246408Y210004D01*
X246278Y210021D01*
X246140Y210086D01*
X245952Y210203D01*
X245808Y210334D01*
X245760Y210403D01*
X245710Y210522D01*
Y211187D01*
X245710Y211187D01*
X245710D01*
X245735Y211213D01*
X245747Y211227D01*
X246242Y212084D01*
X246496Y213034D01*
X242742D01*
Y214034D01*
X246496D01*
X246242Y214983D01*
X245747Y215840D01*
X245125Y216462D01*
X245096Y216763D01*
X245201Y217259D01*
X245874Y217708D01*
X248827Y220661D01*
X249373Y221478D01*
X249564Y222441D01*
X254842D01*
Y222532D01*
X255424Y222920D01*
X255943Y222706D01*
X257274Y222441D01*
X258631D01*
X259962Y222706D01*
X261216Y223225D01*
X262345Y223979D01*
X263304Y224939D01*
X264058Y226067D01*
X264368Y226814D01*
X271809D01*
X272233Y226114D01*
X272089Y225394D01*
Y98425D01*
X272281Y97462D01*
X272827Y96645D01*
X273643Y96100D01*
X274606Y95908D01*
X275570Y96100D01*
X275677Y96172D01*
X276294Y95842D01*
Y64739D01*
X264911Y53355D01*
X229972D01*
X229009Y53164D01*
X228193Y52618D01*
X224598Y49024D01*
X223614Y48039D01*
X223068Y47223D01*
X222877Y46260D01*
Y40570D01*
X222701Y40394D01*
X218465D01*
Y32756D01*
Y26575D01*
X217520D01*
Y16732D01*
X235236D01*
Y26575D01*
X234291D01*
Y32756D01*
Y40394D01*
X230055D01*
X229879Y40570D01*
Y44780D01*
X231719Y46621D01*
X242307D01*
Y43020D01*
X246063D01*
X249819D01*
Y46621D01*
X259055D01*
Y44840D01*
X258858D01*
X257895Y44648D01*
X257079Y44102D01*
X256533Y43286D01*
X256341Y42323D01*
X256533Y41360D01*
X257079Y40543D01*
X257895Y39998D01*
X258858Y39806D01*
X259055D01*
Y36417D01*
X268504D01*
Y37386D01*
X271095D01*
Y42520D01*
Y47654D01*
X269647D01*
X269379Y48300D01*
X282292Y61212D01*
X282837Y62029D01*
X283029Y62992D01*
Y177107D01*
X295232Y189310D01*
X296054Y188488D01*
X291981Y184415D01*
X286580Y179014D01*
X286584Y179011D01*
X285578Y178005D01*
X284947Y177182D01*
X284550Y176225D01*
X284415Y175197D01*
X284550Y174169D01*
X284947Y173211D01*
X285578Y172389D01*
X286400Y171758D01*
X287358Y171361D01*
X288386Y171226D01*
X289414Y171361D01*
X290371Y171758D01*
X290609Y171940D01*
X290821Y171909D01*
X291385Y171654D01*
X291671Y170964D01*
X292266Y170369D01*
X291767Y169870D01*
X292452Y169186D01*
X291428Y168161D01*
X294292Y165296D01*
X297157Y162432D01*
X298181Y163456D01*
X298866Y162772D01*
X302831Y166736D01*
X302842Y166724D01*
X303659Y166179D01*
X304622Y165987D01*
X304724D01*
X305688Y166179D01*
X306504Y166724D01*
X307050Y167541D01*
X307241Y168504D01*
X307050Y169467D01*
X306504Y170284D01*
X306493Y170398D01*
X310252Y174158D01*
X309083Y175327D01*
X309350Y175974D01*
X311248D01*
X311381Y175860D01*
X311735Y175274D01*
X311602Y174606D01*
Y168307D01*
X311783Y167399D01*
X312298Y166628D01*
X314555Y164371D01*
Y156976D01*
X314449Y156905D01*
X313503D01*
X312629Y156544D01*
X311960Y155875D01*
X311598Y155001D01*
Y154055D01*
X311602Y154046D01*
Y153275D01*
X310902Y152807D01*
X310512Y152969D01*
X309566D01*
X308692Y152606D01*
X308024Y151938D01*
X307661Y151064D01*
Y150118D01*
X308024Y149244D01*
X308054Y149213D01*
Y148453D01*
X308235Y147544D01*
X308419Y147269D01*
X307858Y146709D01*
X314957Y139610D01*
X318493Y143145D01*
X322028Y146681D01*
X325564Y150216D01*
X329879Y154531D01*
X328658Y155752D01*
X328713Y156033D01*
X329146Y156681D01*
X329237Y156755D01*
X329226Y156766D01*
X329226Y156766D01*
X330076Y157616D01*
X331246Y156446D01*
X337649Y162849D01*
X337232Y163265D01*
X337744Y163777D01*
X338375Y164600D01*
X338772Y165557D01*
X338907Y166585D01*
X338772Y167613D01*
X338375Y168570D01*
X337744Y169393D01*
X336922Y170024D01*
X335964Y170421D01*
X334936Y170556D01*
X333908Y170421D01*
X332950Y170024D01*
X332128Y169393D01*
X331616Y168881D01*
X331524Y168973D01*
X330839Y168289D01*
X328779Y170349D01*
X328943Y171175D01*
X329142Y171257D01*
X329811Y171926D01*
X330173Y172800D01*
Y173746D01*
X329811Y174620D01*
X329142Y175289D01*
X329133Y175293D01*
X329084Y175342D01*
X328314Y175856D01*
X327406Y176037D01*
X326336D01*
X322346Y180027D01*
X321576Y180542D01*
X320668Y180722D01*
X318650D01*
X318382Y181369D01*
X320419Y183406D01*
X322582Y185569D01*
X320204Y187947D01*
X320558Y188300D01*
X320204Y188654D01*
X322721Y191170D01*
X322246Y191645D01*
X322829Y192404D01*
X323225Y193362D01*
X323361Y194390D01*
X323225Y195417D01*
X322829Y196375D01*
X322648Y196610D01*
X325108Y199070D01*
X325771Y198743D01*
X325720Y198360D01*
X325842Y197435D01*
X326199Y196573D01*
X326767Y195833D01*
X327507Y195265D01*
X328369Y194907D01*
X329294Y194786D01*
X329424Y194097D01*
X329461Y193816D01*
X329818Y192954D01*
X330386Y192213D01*
X331126Y191646D01*
X331988Y191288D01*
X332913Y191167D01*
X333242Y191210D01*
X333310Y191201D01*
X333999Y190635D01*
X334024Y190449D01*
X334283Y189823D01*
X334389Y189685D01*
X338545Y193841D01*
X339252Y193134D01*
X335096Y188978D01*
X335234Y188873D01*
X335860Y188613D01*
X336532Y188524D01*
X337059Y188594D01*
X337388Y188358D01*
X337624Y188029D01*
X337554Y187503D01*
X337643Y186830D01*
X337902Y186204D01*
X338008Y186066D01*
X342164Y190222D01*
X342871Y189515D01*
X338715Y185359D01*
X338853Y185253D01*
X339479Y184994D01*
X340151Y184906D01*
X340678Y184975D01*
X341007Y184739D01*
X341243Y184410D01*
X341173Y183883D01*
X341262Y183211D01*
X341521Y182585D01*
X341934Y182047D01*
X341960Y181658D01*
X341237Y180935D01*
X340926Y180728D01*
X340381Y179911D01*
X340189Y178948D01*
X340381Y177985D01*
X340926Y177168D01*
X341743Y176622D01*
X342706Y176431D01*
X342809D01*
X343572Y176583D01*
X343840Y176380D01*
X344024Y176174D01*
X344105Y176030D01*
X343940Y175197D01*
X344131Y174234D01*
X344677Y173417D01*
X345494Y172872D01*
X346457Y172680D01*
X346932D01*
X347651Y172823D01*
X347988Y172456D01*
X348130Y172250D01*
X348037Y171783D01*
X348016Y171733D01*
Y171678D01*
X347946Y171329D01*
X348016Y170981D01*
Y170787D01*
X348090Y170608D01*
X348138Y170366D01*
X348275Y170161D01*
X348378Y169913D01*
X348568Y169723D01*
X348684Y169550D01*
X348765Y169495D01*
X348861Y169243D01*
X348873Y168697D01*
X348834Y168574D01*
X338654Y158393D01*
X338023Y157571D01*
X337626Y156613D01*
X337491Y155586D01*
X337626Y154558D01*
X338023Y153600D01*
X338654Y152778D01*
X341581Y149851D01*
X341607Y149817D01*
X341647Y148927D01*
X327269Y134549D01*
X327255Y134529D01*
X326152Y133185D01*
X325525Y132011D01*
X324074D01*
Y132011D01*
X323076D01*
Y132658D01*
X322975Y133429D01*
X322677Y134147D01*
X322204Y134764D01*
X322204Y134764D01*
X321988Y134980D01*
X321371Y135453D01*
X320653Y135751D01*
X319882Y135852D01*
X319111Y135751D01*
X318393Y135453D01*
X317776Y134980D01*
X317303Y134363D01*
X317005Y133645D01*
X316904Y132874D01*
X316288Y132184D01*
X313869D01*
Y128822D01*
X313369D01*
Y128322D01*
X309810D01*
Y125672D01*
X308842D01*
Y117011D01*
X313682D01*
X315522Y115171D01*
X315522Y115171D01*
X316139Y114697D01*
X316857Y114400D01*
X317628Y114298D01*
X317628Y114298D01*
X318992D01*
X319111Y114249D01*
X319689Y114173D01*
X320193Y113562D01*
X320026Y113158D01*
X319464Y110819D01*
X319283Y108510D01*
X316756D01*
Y103876D01*
X318898D01*
Y103376D01*
X319398D01*
Y98242D01*
X321039D01*
Y102079D01*
X321739Y102410D01*
X322572Y101727D01*
X323845Y101046D01*
X325226Y100627D01*
X326663Y100486D01*
X326706Y100490D01*
X326860Y100470D01*
X328360Y100667D01*
X329758Y101246D01*
X330955Y102165D01*
X330954Y102166D01*
X330954Y102169D01*
X331036Y102291D01*
X331746Y103156D01*
X332341Y104271D01*
X332572Y105029D01*
X338715D01*
X339081Y104330D01*
X338891Y103871D01*
X338789Y103100D01*
X338891Y102329D01*
X339189Y101611D01*
X339662Y100994D01*
X340279Y100521D01*
X340997Y100223D01*
X341768Y100121D01*
X342493D01*
X343264Y100223D01*
X343983Y100521D01*
X344599Y100994D01*
X345027Y101421D01*
X345673Y101153D01*
Y94884D01*
X345751Y94494D01*
X345972Y94163D01*
X346303Y93942D01*
X346693Y93864D01*
X352205D01*
X352595Y93942D01*
X352926Y94163D01*
X353147Y94494D01*
X353224Y94884D01*
Y103939D01*
X353147Y104329D01*
X353147Y104330D01*
X353521Y105029D01*
X357500D01*
Y107264D01*
X359520Y107749D01*
X361543Y108587D01*
X363409Y109731D01*
X365041Y111125D01*
X365078Y111149D01*
X365078Y111150D01*
X365516Y111669D01*
X366531Y112857D01*
X367704Y114772D01*
X368564Y116847D01*
X368877Y118153D01*
X370730D01*
Y119599D01*
X370966Y119646D01*
X371783Y120192D01*
X373827Y122236D01*
X374373Y123053D01*
X374564Y124016D01*
X374373Y124979D01*
X373827Y125795D01*
X373010Y126341D01*
X372047Y126533D01*
X371430Y126410D01*
X370730Y126882D01*
Y132011D01*
X369052D01*
Y132283D01*
X368861Y133247D01*
X368315Y134063D01*
X367499Y134609D01*
X366535Y134800D01*
X365572Y134609D01*
X364756Y134063D01*
X364210Y133247D01*
X364061Y132499D01*
X363492Y132184D01*
X360433D01*
Y128822D01*
X359433D01*
Y132184D01*
X356374D01*
X356374Y132184D01*
Y132184D01*
X356374Y132184D01*
X355743Y132352D01*
Y138673D01*
X355721Y138783D01*
X355858Y140167D01*
X356294Y141604D01*
X357001Y142928D01*
X357884Y144003D01*
X357977Y144065D01*
X368489Y154578D01*
X369228Y154327D01*
X369271Y154006D01*
X369628Y153144D01*
X370196Y152404D01*
X370936Y151836D01*
X371798Y151479D01*
X372723Y151357D01*
X373648Y151479D01*
X374510Y151836D01*
X375250Y152404D01*
X379982Y157136D01*
X380550Y157877D01*
X380907Y158739D01*
X381029Y159664D01*
X380907Y160589D01*
X380550Y161451D01*
X379982Y162191D01*
X379242Y162759D01*
X378643Y163007D01*
X378501Y163717D01*
X378515Y163785D01*
X383858Y169129D01*
X389704Y174975D01*
X383858Y180821D01*
X378291Y186389D01*
X372723Y191957D01*
X367155Y197524D01*
X361587Y203092D01*
X356019Y208660D01*
X350452Y214228D01*
X344884Y219795D01*
X339316Y225363D01*
X333748Y230931D01*
X328181Y236499D01*
X322613Y242067D01*
X316767Y236221D01*
X311423Y230877D01*
X311355Y230863D01*
X310645Y231005D01*
X310397Y231605D01*
X309828Y232345D01*
X309088Y232913D01*
X308226Y233270D01*
X307301Y233391D01*
X306377Y233270D01*
X305515Y232913D01*
X304774Y232345D01*
X300042Y227612D01*
X299474Y226872D01*
X299117Y226010D01*
X298995Y225085D01*
X299117Y224160D01*
X299474Y223298D01*
X300042Y222558D01*
X300782Y221990D01*
X301644Y221633D01*
X302569Y221511D01*
X302699Y220822D01*
X302736Y220541D01*
X303093Y219679D01*
X303661Y218939D01*
X304401Y218371D01*
X305263Y218014D01*
X305544Y217977D01*
X306233Y217847D01*
X306355Y216922D01*
X306712Y216060D01*
X307280Y215320D01*
X308020Y214752D01*
X308882Y214395D01*
X309807Y214273D01*
X309937Y213584D01*
X309974Y213303D01*
X310331Y212441D01*
X310899Y211701D01*
X311639Y211133D01*
X312072Y210953D01*
X311933Y210253D01*
X306808D01*
X305845Y210062D01*
X305029Y209516D01*
X277770Y182257D01*
X277123Y182525D01*
Y225394D01*
X276980Y226114D01*
X277404Y226814D01*
X277559D01*
X278522Y227005D01*
X279339Y227551D01*
X307145Y255357D01*
X314593D01*
X314777Y255339D01*
X314996Y254807D01*
X314588Y254183D01*
X314563Y254180D01*
X313937Y253920D01*
X313799Y253814D01*
X317955Y249658D01*
X322112Y245502D01*
X322217Y245640D01*
X322477Y246266D01*
X322501Y246452D01*
X323191Y247018D01*
X323258Y247027D01*
X323587Y246984D01*
X324512Y247105D01*
X325374Y247462D01*
X326114Y248030D01*
X326682Y248771D01*
X327039Y249633D01*
X327076Y249914D01*
X327206Y250603D01*
X328131Y250724D01*
X328993Y251081D01*
X329733Y251649D01*
X330301Y252390D01*
X330658Y253252D01*
X330780Y254176D01*
X331469Y254307D01*
X331750Y254344D01*
X332612Y254700D01*
X333352Y255269D01*
X333920Y256009D01*
X334277Y256871D01*
X334314Y257152D01*
X334444Y257841D01*
X335369Y257963D01*
X336231Y258320D01*
X336971Y258888D01*
X337539Y259628D01*
X337896Y260490D01*
X338018Y261415D01*
X338707Y261545D01*
X338988Y261582D01*
X339850Y261939D01*
X340591Y262507D01*
X341158Y263247D01*
X341515Y264109D01*
X341552Y264390D01*
X341682Y265079D01*
X342607Y265201D01*
X343469Y265558D01*
X344210Y266126D01*
X344777Y266866D01*
X345134Y267728D01*
X345256Y268653D01*
X345945Y268783D01*
X346227Y268820D01*
X347088Y269177D01*
X347829Y269745D01*
X348396Y270485D01*
X348754Y271347D01*
X348791Y271628D01*
X348920Y272317D01*
X349846Y272439D01*
X350708Y272796D01*
X351448Y273364D01*
X352016Y274104D01*
X352373Y274966D01*
X352494Y275891D01*
X353183Y276021D01*
X353465Y276058D01*
X354327Y276415D01*
X355067Y276983D01*
X355635Y277723D01*
X355992Y278585D01*
X356029Y278866D01*
X356159Y279555D01*
X357084Y279677D01*
X357946Y280034D01*
X358686Y280602D01*
X359254Y281342D01*
X359611Y282204D01*
X359733Y283129D01*
X360421Y283259D01*
X360703Y283296D01*
X361565Y283653D01*
X362289Y284209D01*
X362653Y284058D01*
X363681Y283923D01*
X364709Y284058D01*
X365667Y284455D01*
X366489Y285086D01*
X372275Y290872D01*
X372888Y291671D01*
X373687Y292284D01*
X373688Y292284D01*
X379521Y298117D01*
X380152Y298940D01*
X380548Y299898D01*
X380684Y300925D01*
X380548Y301953D01*
X380152Y302911D01*
X379894Y303247D01*
X380122Y303545D01*
X380381Y304171D01*
X380406Y304357D01*
X381096Y304923D01*
X381163Y304932D01*
X381492Y304888D01*
X382417Y305010D01*
X383279Y305367D01*
X384019Y305935D01*
X384587Y306675D01*
X384944Y307537D01*
X385066Y308462D01*
X384944Y309387D01*
X384587Y310249D01*
X384019Y310989D01*
X379287Y315722D01*
X378546Y316290D01*
X377684Y316647D01*
X376759Y316769D01*
X375834Y316647D01*
X374972Y316290D01*
X374232Y315722D01*
X373664Y314982D01*
X373307Y314120D01*
X373185Y313195D01*
X373229Y312866D01*
X373220Y312799D01*
X372654Y312109D01*
X372468Y312084D01*
X371842Y311825D01*
X371608Y311646D01*
X364072Y319182D01*
X364072Y319182D01*
X363250Y319813D01*
X362292Y320210D01*
X361264Y320345D01*
X342142D01*
Y324031D01*
X339083D01*
Y320669D01*
X338083D01*
Y324031D01*
X335024D01*
Y320345D01*
X334268D01*
Y324031D01*
X331209D01*
Y320669D01*
X330209D01*
Y324031D01*
X327150D01*
Y320345D01*
X326394D01*
Y324031D01*
X323335D01*
Y320669D01*
X322335D01*
Y324031D01*
X319276D01*
Y320345D01*
X318520D01*
Y324031D01*
X315461D01*
Y320669D01*
X314461D01*
Y324031D01*
X311402D01*
Y320345D01*
X310646D01*
Y324031D01*
X307587D01*
Y320669D01*
X306587D01*
Y324031D01*
X303528D01*
Y320345D01*
X302772D01*
Y324031D01*
X299713D01*
Y320669D01*
X298713D01*
Y324031D01*
X295654D01*
Y320345D01*
X283465D01*
X283384Y320334D01*
X272638D01*
X272134Y320776D01*
Y336429D01*
D02*
G37*
G36*
X404375Y311708D02*
X400219Y307552D01*
X396063Y303396D01*
X396201Y303290D01*
X396827Y303031D01*
X397499Y302942D01*
X398026Y303011D01*
X398355Y302776D01*
X398591Y302447D01*
X398521Y301920D01*
X398610Y301248D01*
X398869Y300622D01*
X398975Y300484D01*
X403131Y304640D01*
X407287Y308796D01*
X407150Y308902D01*
X406523Y309161D01*
X405851Y309250D01*
X405325Y309180D01*
X404996Y309417D01*
X404760Y309745D01*
X404829Y310272D01*
X404740Y310944D01*
X404481Y311570D01*
X404375Y311708D01*
D02*
G37*
G36*
X486500Y302501D02*
X483441D01*
Y299638D01*
X486500D01*
Y302501D01*
D02*
G37*
G36*
X482441D02*
X479382D01*
Y301692D01*
X471885D01*
Y301593D01*
X464896D01*
Y298130D01*
X464196Y297662D01*
X463966Y297757D01*
X463149Y297865D01*
X461968D01*
X461151Y297757D01*
X461023Y297704D01*
X460896Y297757D01*
X460079Y297865D01*
X458897D01*
X458122Y297762D01*
X457634Y297965D01*
X456817Y298072D01*
X455439D01*
X454848Y297994D01*
X454258Y298072D01*
X452880D01*
X452063Y297965D01*
X451607Y297776D01*
X450930Y297865D01*
X449749D01*
X448932Y297757D01*
X448588Y297614D01*
X446753Y297511D01*
X446578Y297478D01*
X446401Y297472D01*
X443633Y297001D01*
X443464Y296949D01*
X443288Y296923D01*
X440591Y296146D01*
X440428Y296075D01*
X440257Y296029D01*
X437663Y294954D01*
X437509Y294866D01*
X437344Y294801D01*
X434887Y293443D01*
X434744Y293337D01*
X434587Y293254D01*
X432298Y291630D01*
X432168Y291509D01*
X432021Y291409D01*
X429928Y289539D01*
X429867Y289468D01*
X429795Y289412D01*
X429751Y289355D01*
X429733Y289337D01*
X429683Y289294D01*
X429680Y289291D01*
X429665Y289269D01*
X429147Y288751D01*
X428559Y288868D01*
X428401Y288995D01*
X427865Y289693D01*
X427125Y290261D01*
X426263Y290618D01*
X425338Y290739D01*
X425208Y291428D01*
X425171Y291710D01*
X424814Y292571D01*
X424246Y293312D01*
X423506Y293880D01*
X422644Y294237D01*
X421719Y294358D01*
X420794Y294237D01*
X419932Y293880D01*
X419192Y293312D01*
X414459Y288579D01*
X413891Y287839D01*
X413534Y286977D01*
X413413Y286052D01*
X413534Y285127D01*
X413891Y284265D01*
X414459Y283525D01*
X415200Y282957D01*
X416061Y282600D01*
X416343Y282563D01*
X417032Y282433D01*
X417154Y281508D01*
X417511Y280646D01*
X418078Y279906D01*
X418819Y279338D01*
X419479Y279064D01*
X419470Y279021D01*
X419484Y278814D01*
X419470Y278608D01*
X419511Y278405D01*
X419524Y278199D01*
X419647Y277584D01*
X419713Y277388D01*
X419753Y277185D01*
X419845Y277000D01*
X419911Y276804D01*
X420026Y276632D01*
X420118Y276446D01*
X420466Y275925D01*
X420602Y275770D01*
X420717Y275598D01*
X420873Y275461D01*
X421009Y275306D01*
X421181Y275191D01*
X421337Y275055D01*
X421858Y274706D01*
X422043Y274615D01*
X422215Y274500D01*
X422411Y274433D01*
X422597Y274342D01*
X422800Y274302D01*
X422996Y274235D01*
X423610Y274113D01*
X423817Y274099D01*
X424019Y274059D01*
X424226Y274073D01*
X424432Y274059D01*
X424635Y274099D01*
X424842Y274113D01*
X425454Y274235D01*
X425595Y273896D01*
X425700Y273759D01*
X426757Y274815D01*
X427115Y275055D01*
X427348Y275259D01*
X427593Y275447D01*
X429959Y277812D01*
X432326Y280180D01*
X432514Y280425D01*
X432719Y280658D01*
X432958Y281016D01*
X434013Y282071D01*
X433875Y282176D01*
X433538Y282316D01*
X433538Y282317D01*
X433660Y282931D01*
X433674Y283138D01*
X433701Y283274D01*
X434819Y284392D01*
X434862Y284448D01*
X436577Y285981D01*
X438507Y287350D01*
X440578Y288494D01*
X442764Y289400D01*
X445037Y290055D01*
X447370Y290451D01*
X448042Y290489D01*
X448551Y290008D01*
Y289770D01*
X452126D01*
Y289770D01*
X452634Y290216D01*
X452880Y290184D01*
X454258D01*
X454848Y290262D01*
X455439Y290184D01*
X456817D01*
X456999Y290208D01*
X457699Y289770D01*
Y289770D01*
X459100D01*
X459160Y288865D01*
X459200Y288663D01*
X459214Y288456D01*
X459664Y286190D01*
X459731Y285994D01*
X459771Y285791D01*
X460514Y283603D01*
X460606Y283418D01*
X460672Y283222D01*
X461694Y281149D01*
X461809Y280977D01*
X461901Y280792D01*
X462592Y279756D01*
X462618Y279694D01*
X462717Y279565D01*
X462730Y279541D01*
X462752Y279517D01*
X462847Y279351D01*
X462994Y279205D01*
X463120Y279041D01*
X465121Y277040D01*
X465142Y277012D01*
X465265Y276918D01*
X465371Y276804D01*
X466447Y275921D01*
X466710Y275758D01*
X466961Y275578D01*
X467187Y275457D01*
X467277Y274774D01*
X467592Y274013D01*
X468094Y273359D01*
X468748Y272857D01*
X469509Y272542D01*
X470326Y272434D01*
X473311D01*
Y272252D01*
X483972D01*
Y274571D01*
X484549D01*
X484939Y274649D01*
X485270Y274870D01*
X485491Y275200D01*
X485568Y275590D01*
Y279528D01*
X485491Y279918D01*
X485270Y280248D01*
X484939Y280469D01*
X484549Y280547D01*
X483972D01*
Y282866D01*
X473311D01*
Y282685D01*
X470326D01*
X469602Y282589D01*
X468447Y283744D01*
X467933Y284513D01*
X467178Y286044D01*
X467310Y286438D01*
X467529Y286744D01*
X470684D01*
X471501Y286852D01*
X472263Y287167D01*
X472917Y287669D01*
X473043Y287833D01*
X474794D01*
X474834Y287817D01*
X475862Y287681D01*
X478413D01*
Y287327D01*
X487468D01*
X487468Y287327D01*
Y287327D01*
X488038Y287018D01*
X488172Y286915D01*
X489130Y286519D01*
X490158Y286383D01*
X491185Y286519D01*
X492143Y286915D01*
X492965Y287546D01*
X493596Y288369D01*
X493993Y289327D01*
X494128Y290354D01*
X493993Y291382D01*
X493596Y292340D01*
X492965Y293162D01*
X491662Y294466D01*
X490839Y295097D01*
X489882Y295494D01*
X488854Y295629D01*
X487468D01*
Y295989D01*
X486500D01*
Y298638D01*
X482941D01*
Y299138D01*
X482441D01*
Y302501D01*
D02*
G37*
G36*
X407994Y308089D02*
X403838Y303933D01*
X399682Y299777D01*
X399820Y299671D01*
X400446Y299412D01*
X401118Y299323D01*
X401645Y299392D01*
X401974Y299156D01*
X402210Y298828D01*
X402140Y298301D01*
X402229Y297629D01*
X402488Y297003D01*
X402594Y296865D01*
X406750Y301021D01*
X410906Y305177D01*
X410769Y305283D01*
X410142Y305542D01*
X409470Y305631D01*
X408944Y305561D01*
X408615Y305797D01*
X408379Y306126D01*
X408448Y306653D01*
X408359Y307325D01*
X408100Y307951D01*
X407994Y308089D01*
D02*
G37*
G36*
X418852Y297232D02*
X415049Y293429D01*
X416532Y291947D01*
X418544Y293959D01*
X418957Y294497D01*
X419217Y295124D01*
X419305Y295796D01*
X419217Y296468D01*
X418957Y297094D01*
X418852Y297232D01*
D02*
G37*
G36*
X414342Y292722D02*
X410539Y288920D01*
X410677Y288814D01*
X411303Y288555D01*
X411975Y288466D01*
X412648Y288555D01*
X413274Y288814D01*
X413812Y289227D01*
X415825Y291239D01*
X414342Y292722D01*
D02*
G37*
G36*
X378569Y294148D02*
X375431Y291010D01*
X379961Y286481D01*
X383098Y289618D01*
X378569Y294148D01*
D02*
G37*
G36*
X483972Y286433D02*
X479142D01*
Y283866D01*
X483972D01*
Y286433D01*
D02*
G37*
G36*
X478142D02*
X473311D01*
Y283866D01*
X478142D01*
Y286433D01*
D02*
G37*
G36*
X374724Y290303D02*
X371587Y287166D01*
X376116Y282636D01*
X379254Y285774D01*
X374724Y290303D01*
D02*
G37*
G36*
X383805Y288911D02*
X380668Y285774D01*
X385197Y281244D01*
X388335Y284382D01*
X383805Y288911D01*
D02*
G37*
G36*
X369660Y285239D02*
X366523Y282102D01*
X371053Y277572D01*
X374190Y280710D01*
X369660Y285239D01*
D02*
G37*
G36*
X379961Y285067D02*
X376823Y281929D01*
X381353Y277400D01*
X384490Y280537D01*
X379961Y285067D01*
D02*
G37*
G36*
X365816Y281395D02*
X362679Y278257D01*
X367208Y273728D01*
X370345Y276865D01*
X365816Y281395D01*
D02*
G37*
G36*
X46669Y280134D02*
X41248D01*
Y273138D01*
X46669D01*
Y280134D01*
D02*
G37*
G36*
X40248D02*
X34827D01*
Y273138D01*
X40248D01*
Y280134D01*
D02*
G37*
G36*
X391932Y280785D02*
X388794Y277647D01*
X393323Y273118D01*
X396461Y276255D01*
X391932Y280785D01*
D02*
G37*
G36*
X374897Y280003D02*
X371760Y276865D01*
X376289Y272336D01*
X379426Y275473D01*
X374897Y280003D01*
D02*
G37*
G36*
X388087Y276940D02*
X384949Y273803D01*
X389479Y269273D01*
X392616Y272411D01*
X388087Y276940D01*
D02*
G37*
G36*
X483972Y271252D02*
X479142D01*
Y268685D01*
X483972D01*
Y271252D01*
D02*
G37*
G36*
X478142D02*
X473311D01*
Y268685D01*
X478142D01*
Y271252D01*
D02*
G37*
G36*
X371053Y276158D02*
X367915Y273021D01*
X372444Y268491D01*
X375582Y271629D01*
X371053Y276158D01*
D02*
G37*
G36*
X360195Y275774D02*
X357058Y272637D01*
X361587Y268107D01*
X364725Y271245D01*
X360195Y275774D01*
D02*
G37*
G36*
X397168Y275548D02*
X394031Y272411D01*
X398560Y267882D01*
X401697Y271019D01*
X397168Y275548D01*
D02*
G37*
G36*
X46669Y272138D02*
X41248D01*
Y265142D01*
X46669D01*
Y272138D01*
D02*
G37*
G36*
X40248D02*
X34827D01*
Y265142D01*
X40248D01*
Y272138D01*
D02*
G37*
G36*
X356351Y271929D02*
X353213Y268792D01*
X357743Y264263D01*
X360880Y267400D01*
X356351Y271929D01*
D02*
G37*
G36*
X383023Y271877D02*
X379886Y268739D01*
X384415Y264210D01*
X387552Y267347D01*
X383023Y271877D01*
D02*
G37*
G36*
X393323Y271704D02*
X390186Y268566D01*
X394715Y264037D01*
X397853Y267175D01*
X393323Y271704D01*
D02*
G37*
G36*
X365432Y270537D02*
X362294Y267400D01*
X366824Y262871D01*
X369961Y266008D01*
X365432Y270537D01*
D02*
G37*
G36*
X379179Y268032D02*
X376041Y264895D01*
X380571Y260365D01*
X383708Y263503D01*
X379179Y268032D01*
D02*
G37*
G36*
X405294Y267422D02*
X402157Y264285D01*
X406686Y259755D01*
X409824Y262893D01*
X405294Y267422D01*
D02*
G37*
G36*
X351287Y266865D02*
X348149Y263728D01*
X352679Y259199D01*
X355816Y262336D01*
X351287Y266865D01*
D02*
G37*
G36*
X361587Y266693D02*
X358450Y263556D01*
X362979Y259026D01*
X366117Y262163D01*
X361587Y266693D01*
D02*
G37*
G36*
X388260Y266640D02*
X385122Y263503D01*
X389651Y258973D01*
X392789Y262111D01*
X388260Y266640D01*
D02*
G37*
G36*
X16266Y265748D02*
X15230D01*
X14228Y265480D01*
X13331Y264961D01*
X12598Y264228D01*
X12079Y263331D01*
X11811Y262329D01*
Y261293D01*
X12079Y260291D01*
X12598Y259394D01*
X13331Y258661D01*
X14228Y258142D01*
X15230Y257874D01*
X16266D01*
X17268Y258142D01*
X18165Y258661D01*
X18898Y259394D01*
X19417Y260291D01*
X19685Y261293D01*
Y262329D01*
X19417Y263331D01*
X18898Y264228D01*
X18165Y264961D01*
X17268Y265480D01*
X16266Y265748D01*
D02*
G37*
G36*
X401450Y263578D02*
X398312Y260440D01*
X402842Y255911D01*
X405979Y259048D01*
X401450Y263578D01*
D02*
G37*
G36*
X347442Y263021D02*
X344305Y259883D01*
X348834Y255354D01*
X351972Y258492D01*
X347442Y263021D01*
D02*
G37*
G36*
X384415Y262795D02*
X381278Y259658D01*
X385807Y255129D01*
X388945Y258266D01*
X384415Y262795D01*
D02*
G37*
G36*
X255405Y257216D02*
X252898D01*
Y254866D01*
X255405D01*
Y257216D01*
D02*
G37*
G36*
X373558Y262411D02*
X370421Y259274D01*
X374950Y254744D01*
X378087Y257882D01*
X373558Y262411D01*
D02*
G37*
G36*
X410531Y262186D02*
X407393Y259048D01*
X411923Y254519D01*
X415060Y257656D01*
X410531Y262186D01*
D02*
G37*
G36*
X356523Y261629D02*
X353386Y258492D01*
X357915Y253962D01*
X361053Y257100D01*
X356523Y261629D01*
D02*
G37*
G36*
X313092Y253107D02*
X312986Y252970D01*
X312727Y252343D01*
X312703Y252158D01*
X312013Y251591D01*
X311945Y251583D01*
X311616Y251626D01*
X310691Y251504D01*
X309829Y251147D01*
X309089Y250579D01*
X308521Y249839D01*
X308164Y248977D01*
X308043Y248052D01*
X307354Y247922D01*
X307072Y247885D01*
X306210Y247528D01*
X305470Y246960D01*
X304902Y246220D01*
X304545Y245358D01*
X304423Y244433D01*
X304545Y243508D01*
X304902Y242646D01*
X305470Y241906D01*
X310203Y237173D01*
X310943Y236605D01*
X311805Y236248D01*
X312730Y236126D01*
X313655Y236248D01*
X314517Y236605D01*
X315257Y237173D01*
X315825Y237913D01*
X316182Y238775D01*
X316219Y239057D01*
X316349Y239745D01*
X317274Y239867D01*
X318136Y240224D01*
X318876Y240792D01*
X319444Y241532D01*
X319801Y242394D01*
X319923Y243319D01*
X319880Y243648D01*
X319888Y243716D01*
X320455Y244406D01*
X320640Y244430D01*
X321267Y244689D01*
X321404Y244795D01*
X317248Y248951D01*
X313092Y253107D01*
D02*
G37*
G36*
X369713Y258567D02*
X366576Y255429D01*
X371105Y250900D01*
X374243Y254037D01*
X369713Y258567D01*
D02*
G37*
G36*
X396386Y258514D02*
X393248Y255376D01*
X397778Y250847D01*
X400915Y253984D01*
X396386Y258514D01*
D02*
G37*
G36*
X406686Y258341D02*
X403549Y255204D01*
X408078Y250674D01*
X411215Y253812D01*
X406686Y258341D01*
D02*
G37*
G36*
X150127Y253953D02*
X150106D01*
Y250500D01*
X153559D01*
Y250520D01*
X153290Y251526D01*
X152769Y252427D01*
X152033Y253163D01*
X151132Y253683D01*
X150127Y253953D01*
D02*
G37*
G36*
X149106D02*
X149086D01*
X148081Y253683D01*
X147179Y253163D01*
X146443Y252427D01*
X145923Y251526D01*
X145653Y250520D01*
Y250500D01*
X149106D01*
Y253953D01*
D02*
G37*
G36*
X352679Y257785D02*
X349541Y254647D01*
X354071Y250118D01*
X357208Y253255D01*
X352679Y257785D01*
D02*
G37*
G36*
X515213Y252811D02*
X512311D01*
Y249909D01*
X515213D01*
Y252811D01*
D02*
G37*
G36*
X511311D02*
X508410D01*
Y249909D01*
X511311D01*
Y252811D01*
D02*
G37*
G36*
X527024D02*
X524122D01*
Y249909D01*
X527024D01*
Y252811D01*
D02*
G37*
G36*
X523122D02*
X520221D01*
Y249909D01*
X523122D01*
Y252811D01*
D02*
G37*
G36*
X341822Y257400D02*
X338684Y254263D01*
X343214Y249733D01*
X346351Y252871D01*
X341822Y257400D01*
D02*
G37*
G36*
X378795Y257175D02*
X375657Y254037D01*
X380186Y249508D01*
X383324Y252645D01*
X378795Y257175D01*
D02*
G37*
G36*
X137142Y250287D02*
X132390D01*
Y247681D01*
X137142D01*
Y250287D01*
D02*
G37*
G36*
X131390D02*
X126638D01*
Y247681D01*
X131390D01*
Y250287D01*
D02*
G37*
G36*
X392541Y254669D02*
X389404Y251532D01*
X393933Y247002D01*
X397071Y250140D01*
X392541Y254669D01*
D02*
G37*
G36*
X418657Y254060D02*
X415519Y250922D01*
X420049Y246393D01*
X423186Y249530D01*
X418657Y254060D01*
D02*
G37*
G36*
X153559Y249500D02*
X150106D01*
Y246047D01*
X150127D01*
X151132Y246317D01*
X152033Y246837D01*
X152769Y247573D01*
X153290Y248474D01*
X153559Y249480D01*
Y249500D01*
D02*
G37*
G36*
X149106D02*
X145653D01*
Y249480D01*
X145923Y248474D01*
X146443Y247573D01*
X147179Y246837D01*
X148081Y246317D01*
X149086Y246047D01*
X149106D01*
Y249500D01*
D02*
G37*
G36*
X527024Y248909D02*
X524122D01*
Y246008D01*
X527024D01*
Y248909D01*
D02*
G37*
G36*
X523122D02*
X520221D01*
Y246008D01*
X523122D01*
Y248909D01*
D02*
G37*
G36*
X515213Y248909D02*
X512311D01*
Y246008D01*
X515213D01*
Y248909D01*
D02*
G37*
G36*
X511311D02*
X508410D01*
Y246008D01*
X511311D01*
Y248909D01*
D02*
G37*
G36*
X337977Y253556D02*
X334840Y250418D01*
X339369Y245889D01*
X342507Y249026D01*
X337977Y253556D01*
D02*
G37*
G36*
X374950Y253330D02*
X371813Y250193D01*
X376342Y245663D01*
X379479Y248801D01*
X374950Y253330D01*
D02*
G37*
G36*
X401622Y253277D02*
X398485Y250140D01*
X403014Y245610D01*
X406152Y248748D01*
X401622Y253277D01*
D02*
G37*
G36*
X364232Y253085D02*
X361094Y249948D01*
X365624Y245418D01*
X368761Y248556D01*
X364232Y253085D01*
D02*
G37*
G36*
X347058Y252164D02*
X343921Y249026D01*
X348450Y244497D01*
X351588Y247634D01*
X347058Y252164D01*
D02*
G37*
G36*
X386085Y253202D02*
X380239Y247356D01*
X380924Y246671D01*
X379747Y245494D01*
X381985Y243255D01*
X381278Y242548D01*
X379039Y244787D01*
X377862Y243609D01*
X377177Y244294D01*
X371331Y238448D01*
X366877Y233993D01*
X371331Y229539D01*
X377177Y223693D01*
X381631Y219239D01*
X386085Y223693D01*
X390540Y228147D01*
X394994Y232601D01*
X400840Y238448D01*
X394994Y244294D01*
X391932Y247356D01*
X386085Y253202D01*
D02*
G37*
G36*
X414812Y250215D02*
X411675Y247078D01*
X416204Y242548D01*
X419342Y245686D01*
X414812Y250215D01*
D02*
G37*
G36*
X397778Y249433D02*
X394640Y246295D01*
X399170Y241766D01*
X402307Y244903D01*
X397778Y249433D01*
D02*
G37*
G36*
X360387Y249241D02*
X357250Y246103D01*
X361779Y241574D01*
X364917Y244711D01*
X360387Y249241D01*
D02*
G37*
G36*
X423893Y248823D02*
X420756Y245686D01*
X425285Y241156D01*
X428423Y244294D01*
X423893Y248823D01*
D02*
G37*
G36*
X332913Y248492D02*
X329776Y245354D01*
X334305Y240825D01*
X337442Y243963D01*
X332913Y248492D01*
D02*
G37*
G36*
X343214Y248319D02*
X340076Y245182D01*
X344605Y240652D01*
X347743Y243790D01*
X343214Y248319D01*
D02*
G37*
G36*
X369468Y247849D02*
X366331Y244711D01*
X370860Y240182D01*
X373998Y243319D01*
X369468Y247849D01*
D02*
G37*
G36*
X512311Y242797D02*
Y239910D01*
X515199D01*
X514981Y240722D01*
X514533Y241498D01*
X513900Y242131D01*
X513124Y242579D01*
X512311Y242797D01*
D02*
G37*
G36*
X511311D02*
X510498Y242579D01*
X509722Y242131D01*
X509089Y241498D01*
X508641Y240722D01*
X508423Y239910D01*
X511311D01*
Y242797D01*
D02*
G37*
G36*
X524122D02*
Y239909D01*
X527010D01*
X526792Y240722D01*
X526344Y241498D01*
X525711Y242131D01*
X524935Y242579D01*
X524122Y242797D01*
D02*
G37*
G36*
X523122D02*
X522309Y242579D01*
X521533Y242131D01*
X520900Y241498D01*
X520452Y240722D01*
X520234Y239909D01*
X523122D01*
Y242797D01*
D02*
G37*
G36*
X434720Y281364D02*
X430563Y277208D01*
X426407Y273052D01*
X426545Y272946D01*
X427172Y272686D01*
X427357Y272662D01*
X427923Y271972D01*
X427932Y271905D01*
X427889Y271576D01*
X428011Y270651D01*
X428368Y269789D01*
X428936Y269049D01*
X429676Y268481D01*
X430538Y268124D01*
X430819Y268087D01*
X431508Y267957D01*
X431630Y267032D01*
X431987Y266170D01*
X432555Y265430D01*
X433295Y264862D01*
X434157Y264505D01*
X435082Y264383D01*
X435212Y263694D01*
X435249Y263413D01*
X435606Y262551D01*
X436174Y261811D01*
X436914Y261243D01*
X437776Y260886D01*
X438057Y260849D01*
X438746Y260719D01*
X438868Y259794D01*
X439225Y258932D01*
X439793Y258192D01*
X440533Y257624D01*
X441395Y257267D01*
X442320Y257145D01*
X442450Y256456D01*
X442487Y256175D01*
X442844Y255313D01*
X443412Y254573D01*
X444152Y254005D01*
X445014Y253647D01*
X445295Y253610D01*
X445984Y253481D01*
X446106Y252556D01*
X446463Y251694D01*
X447031Y250954D01*
X447771Y250385D01*
X448633Y250028D01*
X449558Y249907D01*
X449688Y249218D01*
X449725Y248937D01*
X450082Y248075D01*
X450650Y247334D01*
X451390Y246766D01*
X452252Y246409D01*
X452533Y246372D01*
X453222Y246242D01*
X453344Y245318D01*
X453701Y244456D01*
X454269Y243715D01*
X455009Y243147D01*
X455871Y242790D01*
X456796Y242669D01*
X456926Y241980D01*
X456963Y241698D01*
X457320Y240837D01*
X457888Y240096D01*
X458628Y239528D01*
X459490Y239171D01*
X460415Y239050D01*
X461340Y239171D01*
X462202Y239528D01*
X462942Y240096D01*
X467675Y244829D01*
X468243Y245569D01*
X468600Y246431D01*
X468634Y246693D01*
X468955D01*
X469918Y246884D01*
X470735Y247430D01*
X471280Y248247D01*
X471472Y249210D01*
X471280Y250173D01*
X470735Y250990D01*
X469918Y251535D01*
X468955Y251727D01*
X468233D01*
X467681Y252427D01*
X467770Y252876D01*
X467579Y253839D01*
X467033Y254655D01*
X466217Y255201D01*
X465254Y255393D01*
X465134Y255369D01*
X464532Y255930D01*
X464585Y256199D01*
X464394Y257162D01*
X463848Y257979D01*
X463520Y258308D01*
X462703Y258853D01*
X461740Y259045D01*
X461456Y259745D01*
X461515Y260037D01*
X461323Y261000D01*
X460777Y261817D01*
X460442Y262151D01*
X459626Y262697D01*
X458663Y262889D01*
X457616D01*
X457172Y263430D01*
X457241Y263779D01*
X457050Y264743D01*
X456504Y265559D01*
X455688Y266105D01*
X454724Y266296D01*
X453761Y266105D01*
X453193Y266545D01*
X453123Y266660D01*
X453251Y266970D01*
Y267916D01*
X452889Y268790D01*
X452220Y269459D01*
X451346Y269821D01*
X450400D01*
X450030Y269668D01*
X449449Y269783D01*
X448486Y269592D01*
X447681Y269054D01*
X447634Y269055D01*
X447017Y269210D01*
X446922Y269714D01*
X446885Y269995D01*
X446528Y270857D01*
X445961Y271597D01*
X445220Y272165D01*
X444358Y272522D01*
X444077Y272559D01*
X443388Y272689D01*
X443266Y273614D01*
X442909Y274476D01*
X442342Y275217D01*
X441601Y275784D01*
X440739Y276141D01*
X439814Y276263D01*
X439684Y276952D01*
X439647Y277233D01*
X439290Y278095D01*
X438722Y278836D01*
X437982Y279403D01*
X437120Y279761D01*
X436195Y279882D01*
X435866Y279839D01*
X435799Y279848D01*
X435109Y280414D01*
X435085Y280600D01*
X434825Y281226D01*
X434720Y281364D01*
D02*
G37*
G36*
X409748Y245151D02*
X406611Y242014D01*
X411140Y237484D01*
X414278Y240622D01*
X409748Y245151D01*
D02*
G37*
G36*
X420049Y244979D02*
X416911Y241841D01*
X421441Y237312D01*
X424578Y240449D01*
X420049Y244979D01*
D02*
G37*
G36*
X329069Y244647D02*
X325931Y241510D01*
X330461Y236981D01*
X333598Y240118D01*
X329069Y244647D01*
D02*
G37*
G36*
X355184Y244038D02*
X352047Y240900D01*
X356576Y236371D01*
X359714Y239508D01*
X355184Y244038D01*
D02*
G37*
G36*
X365624Y244004D02*
X362486Y240867D01*
X367016Y236337D01*
X370153Y239475D01*
X365624Y244004D01*
D02*
G37*
G36*
X527010Y238909D02*
X524122D01*
Y236022D01*
X524935Y236240D01*
X525711Y236687D01*
X526344Y237321D01*
X526792Y238096D01*
X527010Y238909D01*
D02*
G37*
G36*
X515199Y238910D02*
X512311D01*
Y236022D01*
X513124Y236240D01*
X513900Y236687D01*
X514533Y237321D01*
X514981Y238096D01*
X515199Y238910D01*
D02*
G37*
G36*
X511311D02*
X508423D01*
X508641Y238096D01*
X509089Y237321D01*
X509722Y236687D01*
X510498Y236240D01*
X511311Y236022D01*
Y238910D01*
D02*
G37*
G36*
X523122Y238909D02*
X520234D01*
X520452Y238096D01*
X520900Y237321D01*
X521533Y236687D01*
X522309Y236240D01*
X523122Y236022D01*
Y238909D01*
D02*
G37*
G36*
X338150Y243255D02*
X335012Y240118D01*
X339542Y235589D01*
X342679Y238726D01*
X338150Y243255D01*
D02*
G37*
G36*
X453957Y235291D02*
X453851Y235153D01*
X453592Y234526D01*
X453567Y234341D01*
X452877Y233774D01*
X452810Y233766D01*
X452481Y233809D01*
X451556Y233687D01*
X450694Y233330D01*
X449954Y232762D01*
X449542Y232225D01*
X449439Y232239D01*
X448411Y232103D01*
X447453Y231707D01*
X446631Y231076D01*
X446631Y231075D01*
X444404Y228848D01*
X443773Y228026D01*
X443376Y227068D01*
X443241Y226040D01*
X443254Y225937D01*
X442716Y225524D01*
X442148Y224784D01*
X441791Y223922D01*
X441669Y222997D01*
X440980Y222867D01*
X440699Y222830D01*
X439837Y222473D01*
X439097Y221905D01*
X438529Y221165D01*
X438172Y220303D01*
X438135Y220022D01*
X438005Y219333D01*
X437080Y219211D01*
X436218Y218854D01*
X435478Y218286D01*
X434910Y217546D01*
X434553Y216684D01*
X434431Y215759D01*
X433742Y215629D01*
X433461Y215592D01*
X432599Y215235D01*
X431859Y214667D01*
X431291Y213927D01*
X430934Y213065D01*
X430897Y212784D01*
X430767Y212095D01*
X429842Y211973D01*
X428980Y211616D01*
X428240Y211048D01*
X427672Y210308D01*
X427315Y209446D01*
X427193Y208521D01*
X426504Y208391D01*
X426223Y208354D01*
X425361Y207997D01*
X424621Y207429D01*
X424053Y206689D01*
X423696Y205827D01*
X423659Y205545D01*
X423529Y204857D01*
X422604Y204735D01*
X421742Y204378D01*
X421001Y203810D01*
X420434Y203070D01*
X420077Y202208D01*
X419955Y201283D01*
X419266Y201153D01*
X418985Y201116D01*
X418123Y200759D01*
X417382Y200191D01*
X416815Y199451D01*
X416458Y198589D01*
X416421Y198307D01*
X416291Y197618D01*
X415366Y197497D01*
X414504Y197140D01*
X413763Y196572D01*
X413196Y195832D01*
X412839Y194970D01*
X412717Y194045D01*
X412028Y193915D01*
X411747Y193878D01*
X410885Y193521D01*
X410144Y192953D01*
X409576Y192212D01*
X409219Y191351D01*
X409182Y191069D01*
X409052Y190380D01*
X408127Y190259D01*
X407266Y189902D01*
X406525Y189334D01*
X405957Y188593D01*
X405600Y187732D01*
X405479Y186806D01*
X405522Y186478D01*
X405513Y186410D01*
X404947Y185720D01*
X404761Y185696D01*
X404135Y185437D01*
X403997Y185331D01*
X408153Y181175D01*
X412309Y177019D01*
X412415Y177156D01*
X412675Y177783D01*
X412699Y177968D01*
X413389Y178535D01*
X413456Y178543D01*
X413785Y178500D01*
X413798Y178502D01*
X415790Y176509D01*
Y167381D01*
X402808Y154399D01*
X402554Y154447D01*
X402123Y154704D01*
Y160062D01*
X401932Y161025D01*
X401386Y161842D01*
X399262Y163966D01*
X399264Y163979D01*
X399220Y164307D01*
X399229Y164375D01*
X399796Y165065D01*
X399981Y165089D01*
X400607Y165349D01*
X400745Y165454D01*
X396589Y169610D01*
X392433Y173767D01*
X392327Y173629D01*
X392068Y173003D01*
X392043Y172817D01*
X391354Y172250D01*
X391286Y172242D01*
X390957Y172285D01*
X390032Y172163D01*
X389170Y171806D01*
X388430Y171238D01*
X387862Y170498D01*
X387505Y169636D01*
X387383Y168711D01*
X386694Y168581D01*
X386413Y168544D01*
X385551Y168187D01*
X384811Y167619D01*
X384243Y166879D01*
X383886Y166017D01*
X383764Y165092D01*
X383886Y164167D01*
X384243Y163305D01*
X384811Y162565D01*
X389544Y157833D01*
X390284Y157264D01*
X391146Y156907D01*
X392071Y156786D01*
X392996Y156907D01*
X393858Y157264D01*
X394598Y157833D01*
X395166Y158573D01*
X395523Y159435D01*
X395542Y159578D01*
X396281Y159828D01*
X397089Y159020D01*
Y155570D01*
X380883Y139364D01*
X380338Y138548D01*
X380146Y137584D01*
Y132011D01*
X378687D01*
Y124373D01*
Y118153D01*
X380146D01*
Y58902D01*
X372920Y51677D01*
X372220Y51967D01*
Y55632D01*
X370079D01*
X367937D01*
Y51017D01*
X367937Y50998D01*
X367890Y50318D01*
X327225D01*
X326261Y50126D01*
X325445Y49580D01*
X320332Y44467D01*
X319685Y44735D01*
Y48622D01*
X310236D01*
Y36417D01*
X319685D01*
Y37503D01*
X320348Y37635D01*
X321164Y38181D01*
X328267Y45284D01*
X372604D01*
X373567Y45475D01*
X374383Y46021D01*
X384443Y56080D01*
X384988Y56897D01*
X385180Y57860D01*
Y118153D01*
X386639D01*
Y124373D01*
Y132011D01*
X385180D01*
Y136542D01*
X392467Y143829D01*
X392722Y143782D01*
X393152Y143524D01*
Y128937D01*
X393344Y127974D01*
X393890Y127157D01*
X399401Y121645D01*
X404865Y116182D01*
Y115256D01*
X401870D01*
Y105807D01*
X412894D01*
X412980Y105143D01*
Y99450D01*
X402514Y88984D01*
X401999Y88214D01*
X401819Y87305D01*
Y83706D01*
X401859Y83501D01*
X401959Y82743D01*
X402026Y82582D01*
X401637Y82000D01*
X401386D01*
X401181Y81959D01*
X400423Y81859D01*
X399525Y81487D01*
X398755Y80896D01*
X398164Y80125D01*
X397792Y79228D01*
X397692Y78470D01*
X397651Y78265D01*
X397692Y78060D01*
X397792Y77302D01*
X398164Y76405D01*
X398755Y75634D01*
X399525Y75043D01*
X400423Y74671D01*
X400650Y74641D01*
Y65059D01*
X412067D01*
Y65240D01*
X412882D01*
X413427Y64540D01*
X413352Y63968D01*
Y56102D01*
X413487Y55075D01*
X413884Y54117D01*
X414515Y53294D01*
X415337Y52663D01*
X416295Y52267D01*
X417323Y52131D01*
X432087D01*
X433114Y52267D01*
X434072Y52663D01*
X434895Y53294D01*
X435526Y54117D01*
X435922Y55075D01*
X436058Y56102D01*
Y63968D01*
X436006Y64359D01*
X436620Y65059D01*
X438051D01*
Y74902D01*
X436429D01*
Y102865D01*
X436433Y102874D01*
Y103820D01*
X436071Y104693D01*
X435402Y105362D01*
X434528Y105724D01*
X433582D01*
X432708Y105362D01*
X432039Y104693D01*
X431677Y103820D01*
Y103079D01*
X431287Y102722D01*
X430981Y102610D01*
X430591Y102772D01*
X429645D01*
X428771Y102410D01*
X428102Y101741D01*
X427842Y101112D01*
X427183Y100900D01*
X427057Y100907D01*
X425603Y102361D01*
Y106776D01*
X429323D01*
Y110531D01*
Y114287D01*
X428599D01*
X428331Y114934D01*
X432086Y118689D01*
X450427D01*
X451335Y118869D01*
X452106Y119384D01*
X461417Y128696D01*
X472827D01*
Y134916D01*
Y142554D01*
X471373D01*
Y142787D01*
X471182Y143750D01*
X471047Y143951D01*
X471421Y144651D01*
X476378D01*
X477406Y144786D01*
X478363Y145183D01*
X479186Y145814D01*
X479817Y146637D01*
X480214Y147594D01*
X480349Y148622D01*
Y166339D01*
X480349Y201328D01*
X480214Y202356D01*
X479817Y203314D01*
X479186Y204136D01*
X460004Y223318D01*
X460309Y223716D01*
X460666Y224577D01*
X460787Y225502D01*
X460744Y225831D01*
X460753Y225899D01*
X461319Y226589D01*
X461505Y226613D01*
X462131Y226872D01*
X462269Y226978D01*
X458113Y231134D01*
X453957Y235291D01*
D02*
G37*
G36*
X405904Y241307D02*
X402766Y238169D01*
X407296Y233640D01*
X410433Y236777D01*
X405904Y241307D01*
D02*
G37*
G36*
X432020Y240697D02*
X428882Y237560D01*
X433411Y233030D01*
X436549Y236168D01*
X432020Y240697D01*
D02*
G37*
G36*
X222925Y235134D02*
X220417D01*
Y232783D01*
X222925D01*
Y235134D01*
D02*
G37*
G36*
X351340Y240193D02*
X348202Y237056D01*
X352732Y232526D01*
X355869Y235664D01*
X351340Y240193D01*
D02*
G37*
G36*
X414985Y239915D02*
X411847Y236777D01*
X416377Y232248D01*
X419514Y235385D01*
X414985Y239915D01*
D02*
G37*
G36*
X456100Y236451D02*
X455428Y236363D01*
X454802Y236103D01*
X454664Y235998D01*
X458466Y232195D01*
X459949Y233678D01*
X457936Y235691D01*
X457399Y236103D01*
X456772Y236363D01*
X456100Y236451D01*
D02*
G37*
G36*
X334305Y239411D02*
X331168Y236273D01*
X335697Y231744D01*
X338835Y234881D01*
X334305Y239411D01*
D02*
G37*
G36*
X360421Y238801D02*
X357283Y235664D01*
X361813Y231134D01*
X364950Y234272D01*
X360421Y238801D01*
D02*
G37*
G36*
X512311Y232797D02*
Y229909D01*
X515199D01*
X514981Y230722D01*
X514533Y231498D01*
X513900Y232131D01*
X513124Y232579D01*
X512311Y232797D01*
D02*
G37*
G36*
X511311D02*
X510498Y232579D01*
X509722Y232131D01*
X509089Y231498D01*
X508641Y230722D01*
X508423Y229909D01*
X511311D01*
Y232797D01*
D02*
G37*
G36*
X524122D02*
Y229909D01*
X527010D01*
X526792Y230722D01*
X526344Y231498D01*
X525711Y232131D01*
X524935Y232579D01*
X524122Y232797D01*
D02*
G37*
G36*
X523122D02*
X522309Y232579D01*
X521533Y232131D01*
X520900Y231498D01*
X520452Y230722D01*
X520234Y229909D01*
X523122D01*
Y232797D01*
D02*
G37*
G36*
X428175Y236852D02*
X425037Y233715D01*
X429567Y229186D01*
X432704Y232323D01*
X428175Y236852D01*
D02*
G37*
G36*
X411140Y236070D02*
X408003Y232933D01*
X412532Y228403D01*
X415670Y231541D01*
X411140Y236070D01*
D02*
G37*
G36*
X400283Y235686D02*
X397146Y232549D01*
X401675Y228019D01*
X404813Y231156D01*
X400283Y235686D01*
D02*
G37*
G36*
X437256Y235461D02*
X434118Y232323D01*
X438648Y227794D01*
X441785Y230931D01*
X437256Y235461D01*
D02*
G37*
G36*
X460656Y232971D02*
X459173Y231488D01*
X462976Y227685D01*
X463082Y227823D01*
X463341Y228449D01*
X463430Y229122D01*
X463341Y229794D01*
X463082Y230420D01*
X462669Y230958D01*
X460656Y232971D01*
D02*
G37*
G36*
X346276Y235129D02*
X343138Y231992D01*
X347668Y227462D01*
X350805Y230600D01*
X346276Y235129D01*
D02*
G37*
G36*
X356576Y234957D02*
X353439Y231819D01*
X357968Y227290D01*
X361105Y230427D01*
X356576Y234957D01*
D02*
G37*
G36*
X527010Y228909D02*
X524122D01*
Y226022D01*
X524935Y226240D01*
X525711Y226688D01*
X526344Y227321D01*
X526792Y228097D01*
X527010Y228909D01*
D02*
G37*
G36*
X515199Y228909D02*
X512311D01*
Y226022D01*
X513124Y226240D01*
X513900Y226688D01*
X514533Y227321D01*
X514981Y228097D01*
X515199Y228909D01*
D02*
G37*
G36*
X511311D02*
X508423D01*
X508641Y228097D01*
X509089Y227321D01*
X509722Y226688D01*
X510498Y226240D01*
X511311Y226022D01*
Y228909D01*
D02*
G37*
G36*
X523122Y228909D02*
X520234D01*
X520452Y228097D01*
X520900Y227321D01*
X521533Y226688D01*
X522309Y226240D01*
X523122Y226022D01*
Y228909D01*
D02*
G37*
G36*
X396439Y231841D02*
X393301Y228704D01*
X397831Y224174D01*
X400968Y227312D01*
X396439Y231841D01*
D02*
G37*
G36*
X423111Y231788D02*
X419974Y228651D01*
X424503Y224122D01*
X427640Y227259D01*
X423111Y231788D01*
D02*
G37*
G36*
X433411Y231616D02*
X430274Y228479D01*
X434803Y223949D01*
X437941Y227086D01*
X433411Y231616D01*
D02*
G37*
G36*
X342431Y231285D02*
X339294Y228147D01*
X343823Y223618D01*
X346961Y226755D01*
X342431Y231285D01*
D02*
G37*
G36*
X368547Y230675D02*
X365409Y227538D01*
X369939Y223008D01*
X373076Y226146D01*
X368547Y230675D01*
D02*
G37*
G36*
X405520Y230449D02*
X402382Y227312D01*
X406912Y222783D01*
X410049Y225920D01*
X405520Y230449D01*
D02*
G37*
G36*
X351512Y229893D02*
X348375Y226755D01*
X352904Y222226D01*
X356042Y225363D01*
X351512Y229893D01*
D02*
G37*
G36*
X419267Y227944D02*
X416129Y224806D01*
X420658Y220277D01*
X423796Y223415D01*
X419267Y227944D01*
D02*
G37*
G36*
X512311Y222797D02*
Y219910D01*
X515199D01*
X514981Y220722D01*
X514533Y221498D01*
X513900Y222131D01*
X513124Y222579D01*
X512311Y222797D01*
D02*
G37*
G36*
X511311D02*
X510498Y222579D01*
X509722Y222131D01*
X509089Y221498D01*
X508641Y220722D01*
X508423Y219910D01*
X511311D01*
Y222797D01*
D02*
G37*
G36*
X524122D02*
Y219909D01*
X527010D01*
X526792Y220722D01*
X526344Y221498D01*
X525711Y222131D01*
X524935Y222579D01*
X524122Y222797D01*
D02*
G37*
G36*
X523122D02*
X522309Y222579D01*
X521533Y222131D01*
X520900Y221498D01*
X520452Y220722D01*
X520234Y219909D01*
X523122D01*
Y222797D01*
D02*
G37*
G36*
X364702Y226830D02*
X361565Y223693D01*
X366094Y219164D01*
X369232Y222301D01*
X364702Y226830D01*
D02*
G37*
G36*
X391375Y226778D02*
X388237Y223640D01*
X392767Y219111D01*
X395904Y222248D01*
X391375Y226778D01*
D02*
G37*
G36*
X401675Y226605D02*
X398538Y223467D01*
X403067Y218938D01*
X406205Y222076D01*
X401675Y226605D01*
D02*
G37*
G36*
X428348Y226552D02*
X425210Y223415D01*
X429740Y218885D01*
X432877Y222023D01*
X428348Y226552D01*
D02*
G37*
G36*
X347668Y226048D02*
X344530Y222911D01*
X349060Y218381D01*
X352197Y221519D01*
X347668Y226048D01*
D02*
G37*
G36*
X373783Y225438D02*
X370646Y222301D01*
X375175Y217772D01*
X378313Y220909D01*
X373783Y225438D01*
D02*
G37*
G36*
X527010Y218909D02*
X524122D01*
Y216022D01*
X524935Y216240D01*
X525711Y216687D01*
X526344Y217321D01*
X526792Y218096D01*
X527010Y218909D01*
D02*
G37*
G36*
X515199Y218910D02*
X512311D01*
Y216022D01*
X513124Y216240D01*
X513900Y216687D01*
X514533Y217321D01*
X514981Y218096D01*
X515199Y218910D01*
D02*
G37*
G36*
X511311D02*
X508423D01*
X508641Y218096D01*
X509089Y217321D01*
X509722Y216687D01*
X510498Y216240D01*
X511311Y216022D01*
Y218910D01*
D02*
G37*
G36*
X523122Y218909D02*
X520234D01*
X520452Y218096D01*
X520900Y217321D01*
X521533Y216687D01*
X522309Y216240D01*
X523122Y216022D01*
Y218909D01*
D02*
G37*
G36*
X387530Y222933D02*
X384393Y219796D01*
X388922Y215266D01*
X392060Y218404D01*
X387530Y222933D01*
D02*
G37*
G36*
X424503Y222708D02*
X421366Y219570D01*
X425895Y215041D01*
X429032Y218178D01*
X424503Y222708D01*
D02*
G37*
G36*
X413646Y222323D02*
X410508Y219186D01*
X415038Y214656D01*
X418175Y217794D01*
X413646Y222323D01*
D02*
G37*
G36*
X359639Y221767D02*
X356501Y218629D01*
X361030Y214100D01*
X364168Y217237D01*
X359639Y221767D01*
D02*
G37*
G36*
X369939Y221594D02*
X366801Y218457D01*
X371331Y213927D01*
X374468Y217065D01*
X369939Y221594D01*
D02*
G37*
G36*
X396611Y221541D02*
X393474Y218404D01*
X398003Y213874D01*
X401141Y217012D01*
X396611Y221541D01*
D02*
G37*
G36*
X409801Y218479D02*
X406664Y215341D01*
X411193Y210812D01*
X414331Y213949D01*
X409801Y218479D01*
D02*
G37*
G36*
X355794Y217922D02*
X352657Y214785D01*
X357186Y210255D01*
X360323Y213393D01*
X355794Y217922D01*
D02*
G37*
G36*
X392767Y217696D02*
X389629Y214559D01*
X394159Y210030D01*
X397296Y213167D01*
X392767Y217696D01*
D02*
G37*
G36*
X512311Y212797D02*
Y209910D01*
X515199D01*
X514981Y210722D01*
X514533Y211498D01*
X513900Y212131D01*
X513124Y212579D01*
X512311Y212797D01*
D02*
G37*
G36*
X511311D02*
X510498Y212579D01*
X509722Y212131D01*
X509089Y211498D01*
X508641Y210722D01*
X508423Y209910D01*
X511311D01*
Y212797D01*
D02*
G37*
G36*
X524122D02*
Y209909D01*
X527010D01*
X526792Y210722D01*
X526344Y211498D01*
X525711Y212131D01*
X524935Y212579D01*
X524122Y212797D01*
D02*
G37*
G36*
X523122D02*
X522309Y212579D01*
X521533Y212131D01*
X520900Y211498D01*
X520452Y210722D01*
X520234Y209909D01*
X523122D01*
Y212797D01*
D02*
G37*
G36*
X381910Y217312D02*
X378772Y214175D01*
X383301Y209646D01*
X386439Y212783D01*
X381910Y217312D01*
D02*
G37*
G36*
X418882Y217087D02*
X415745Y213949D01*
X420274Y209420D01*
X423412Y212558D01*
X418882Y217087D01*
D02*
G37*
G36*
X364875Y216530D02*
X361737Y213393D01*
X366267Y208863D01*
X369404Y212001D01*
X364875Y216530D01*
D02*
G37*
G36*
X261419Y210556D02*
X258911D01*
Y208206D01*
X261419D01*
Y210556D01*
D02*
G37*
G36*
X257911D02*
X255403D01*
Y208206D01*
X257911D01*
Y210556D01*
D02*
G37*
G36*
X527010Y208909D02*
X524122D01*
Y206022D01*
X524935Y206240D01*
X525711Y206687D01*
X526344Y207321D01*
X526792Y208097D01*
X527010Y208909D01*
D02*
G37*
G36*
X515199Y208910D02*
X512311D01*
Y206022D01*
X513124Y206240D01*
X513900Y206687D01*
X514533Y207321D01*
X514981Y208097D01*
X515199Y208910D01*
D02*
G37*
G36*
X511311D02*
X508423D01*
X508641Y208097D01*
X509089Y207321D01*
X509722Y206687D01*
X510498Y206240D01*
X511311Y206022D01*
Y208910D01*
D02*
G37*
G36*
X523122Y208909D02*
X520234D01*
X520452Y208097D01*
X520900Y207321D01*
X521533Y206687D01*
X522309Y206240D01*
X523122Y206022D01*
Y208909D01*
D02*
G37*
G36*
X378065Y213468D02*
X374928Y210330D01*
X379457Y205801D01*
X382594Y208939D01*
X378065Y213468D01*
D02*
G37*
G36*
X404737Y213415D02*
X401600Y210278D01*
X406130Y205748D01*
X409267Y208885D01*
X404737Y213415D01*
D02*
G37*
G36*
X415038Y213242D02*
X411900Y210105D01*
X416430Y205575D01*
X419567Y208713D01*
X415038Y213242D01*
D02*
G37*
G36*
X361030Y212685D02*
X357893Y209548D01*
X362422Y205019D01*
X365560Y208156D01*
X361030Y212685D01*
D02*
G37*
G36*
X387146Y212076D02*
X384009Y208939D01*
X388538Y204409D01*
X391675Y207546D01*
X387146Y212076D01*
D02*
G37*
G36*
X400893Y209570D02*
X397755Y206433D01*
X402285Y201903D01*
X405422Y205041D01*
X400893Y209570D01*
D02*
G37*
G36*
X373001Y208404D02*
X369864Y205266D01*
X374393Y200737D01*
X377531Y203874D01*
X373001Y208404D01*
D02*
G37*
G36*
X383301Y208231D02*
X380164Y205094D01*
X384693Y200565D01*
X387831Y203702D01*
X383301Y208231D01*
D02*
G37*
G36*
X409974Y208178D02*
X406837Y205041D01*
X411366Y200512D01*
X414503Y203649D01*
X409974Y208178D01*
D02*
G37*
G36*
X512311Y202797D02*
Y199909D01*
X515199D01*
X514981Y200722D01*
X514533Y201498D01*
X513900Y202131D01*
X513124Y202579D01*
X512311Y202797D01*
D02*
G37*
G36*
X511311D02*
X510498Y202579D01*
X509722Y202131D01*
X509089Y201498D01*
X508641Y200722D01*
X508423Y199909D01*
X511311D01*
Y202797D01*
D02*
G37*
G36*
X524122D02*
Y199909D01*
X527010D01*
X526792Y200722D01*
X526344Y201498D01*
X525711Y202131D01*
X524935Y202579D01*
X524122Y202797D01*
D02*
G37*
G36*
X523122D02*
X522309Y202579D01*
X521533Y202131D01*
X520900Y201498D01*
X520452Y200722D01*
X520234Y199909D01*
X523122D01*
Y202797D01*
D02*
G37*
G36*
X369157Y204559D02*
X366019Y201422D01*
X370549Y196892D01*
X373686Y200030D01*
X369157Y204559D01*
D02*
G37*
G36*
X406130Y204334D02*
X402992Y201196D01*
X407521Y196667D01*
X410659Y199804D01*
X406130Y204334D01*
D02*
G37*
G36*
X501457Y213008D02*
X500511D01*
X499637Y212646D01*
X498968Y211977D01*
X498606Y211103D01*
Y210157D01*
X498968Y209283D01*
X499590Y208661D01*
X498968Y208040D01*
X498606Y207166D01*
Y206220D01*
X498968Y205346D01*
X499590Y204724D01*
X498968Y204103D01*
X498606Y203229D01*
Y202283D01*
X498968Y201409D01*
X499590Y200787D01*
X498968Y200166D01*
X498606Y199292D01*
Y198346D01*
X498968Y197472D01*
X499637Y196803D01*
X500511Y196441D01*
X501457D01*
X502331Y196803D01*
X503000Y197472D01*
X503362Y198346D01*
Y199292D01*
X503000Y200166D01*
X502379Y200787D01*
X503000Y201409D01*
X503362Y202283D01*
Y203229D01*
X503000Y204103D01*
X502379Y204724D01*
X503000Y205346D01*
X503362Y206220D01*
Y207166D01*
X503000Y208040D01*
X502379Y208661D01*
X503000Y209283D01*
X503362Y210157D01*
Y211103D01*
X503000Y211977D01*
X502331Y212646D01*
X501457Y213008D01*
D02*
G37*
G36*
X395272Y203950D02*
X392135Y200812D01*
X396664Y196283D01*
X399802Y199420D01*
X395272Y203950D01*
D02*
G37*
G36*
X527010Y198909D02*
X524122D01*
Y196022D01*
X524935Y196240D01*
X525711Y196687D01*
X526344Y197321D01*
X526792Y198097D01*
X527010Y198909D01*
D02*
G37*
G36*
X515199Y198909D02*
X512311D01*
Y196022D01*
X513124Y196240D01*
X513900Y196687D01*
X514533Y197321D01*
X514981Y198097D01*
X515199Y198909D01*
D02*
G37*
G36*
X511311D02*
X508423D01*
X508641Y198097D01*
X509089Y197321D01*
X509722Y196687D01*
X510498Y196240D01*
X511311Y196022D01*
Y198909D01*
D02*
G37*
G36*
X523122Y198909D02*
X520234D01*
X520452Y198097D01*
X520900Y197321D01*
X521533Y196687D01*
X522309Y196240D01*
X523122Y196022D01*
Y198909D01*
D02*
G37*
G36*
X378238Y203167D02*
X375100Y200030D01*
X379630Y195501D01*
X382767Y198638D01*
X378238Y203167D01*
D02*
G37*
G36*
X391428Y200105D02*
X388290Y196968D01*
X392820Y192438D01*
X395957Y195576D01*
X391428Y200105D01*
D02*
G37*
G36*
X374393Y199323D02*
X371256Y196185D01*
X375785Y191656D01*
X378923Y194793D01*
X374393Y199323D01*
D02*
G37*
G36*
X400509Y198713D02*
X397371Y195576D01*
X401901Y191046D01*
X405038Y194184D01*
X400509Y198713D01*
D02*
G37*
G36*
X386364Y195041D02*
X383226Y191904D01*
X387756Y187374D01*
X390893Y190512D01*
X386364Y195041D01*
D02*
G37*
G36*
X396664Y194869D02*
X393527Y191731D01*
X398056Y187202D01*
X401194Y190339D01*
X396664Y194869D01*
D02*
G37*
G36*
X200803Y190370D02*
X197350D01*
Y186917D01*
X200803D01*
Y190370D01*
D02*
G37*
G36*
X196350D02*
X192898D01*
Y186917D01*
X196350D01*
Y190370D01*
D02*
G37*
G36*
X323428Y190463D02*
X321265Y188300D01*
X323289Y186276D01*
X325452Y188439D01*
X323428Y190463D01*
D02*
G37*
G36*
X382519Y191197D02*
X379382Y188059D01*
X383911Y183530D01*
X387049Y186667D01*
X382519Y191197D01*
D02*
G37*
G36*
X403290Y184624D02*
X403184Y184486D01*
X402925Y183860D01*
X402901Y183674D01*
X402211Y183108D01*
X402143Y183099D01*
X401814Y183142D01*
X400889Y183020D01*
X400027Y182664D01*
X399287Y182096D01*
X398719Y181355D01*
X398362Y180493D01*
X398240Y179568D01*
X397551Y179438D01*
X397270Y179402D01*
X396408Y179044D01*
X395668Y178477D01*
X395100Y177736D01*
X394743Y176874D01*
X394621Y175949D01*
X394665Y175621D01*
X394656Y175553D01*
X394089Y174863D01*
X393904Y174839D01*
X393278Y174579D01*
X393140Y174474D01*
X397296Y170318D01*
X401804Y165810D01*
X402011Y165739D01*
Y165354D01*
X402202Y164391D01*
X402748Y163575D01*
X403564Y163029D01*
X404528Y162838D01*
X405491Y163029D01*
X406307Y163575D01*
X406853Y164391D01*
X407044Y165354D01*
Y168131D01*
X407458Y168372D01*
X407744Y168446D01*
X408486Y167950D01*
X409449Y167759D01*
X410412Y167950D01*
X411229Y168496D01*
X411774Y169312D01*
X411966Y170276D01*
X411774Y171239D01*
X411630Y171455D01*
Y172270D01*
X411438Y173233D01*
X410892Y174050D01*
X410119Y174823D01*
X410121Y174836D01*
X410077Y175165D01*
X410086Y175232D01*
X410653Y175922D01*
X410838Y175946D01*
X411465Y176206D01*
X411602Y176312D01*
X407446Y180468D01*
X403290Y184624D01*
D02*
G37*
G36*
X391600Y189805D02*
X388463Y186667D01*
X392992Y182138D01*
X396130Y185275D01*
X391600Y189805D01*
D02*
G37*
G36*
X387756Y185960D02*
X384618Y182823D01*
X389148Y178293D01*
X392285Y181431D01*
X387756Y185960D01*
D02*
G37*
G36*
X50197Y193307D02*
X24606D01*
Y179528D01*
X24697D01*
X25086Y178946D01*
X24871Y178427D01*
X24606Y177096D01*
Y175739D01*
X24871Y174408D01*
X25390Y173154D01*
X26144Y172025D01*
X27104Y171066D01*
X28232Y170312D01*
X28689Y170123D01*
X28805Y169317D01*
X28333Y168844D01*
X27813Y167943D01*
X27543Y166938D01*
Y166917D01*
X31496D01*
X35449D01*
Y166938D01*
X35179Y167943D01*
X34659Y168844D01*
X34187Y169317D01*
X34304Y170123D01*
X34760Y170312D01*
X35888Y171066D01*
X36848Y172025D01*
X37052Y172330D01*
X37752D01*
X37955Y172025D01*
X38915Y171066D01*
X40044Y170312D01*
X40500Y170123D01*
X40616Y169317D01*
X40144Y168844D01*
X39624Y167943D01*
X39354Y166938D01*
Y166917D01*
X43307D01*
X47260D01*
Y166938D01*
X46990Y167943D01*
X46470Y168844D01*
X45998Y169317D01*
X46115Y170123D01*
X46571Y170312D01*
X47699Y171066D01*
X48659Y172025D01*
X49413Y173154D01*
X49932Y174408D01*
X50197Y175739D01*
Y177096D01*
X49932Y178427D01*
X49717Y178946D01*
X50106Y179528D01*
X50197D01*
Y193307D01*
D02*
G37*
G36*
X290720Y167454D02*
X289601Y166335D01*
X292112Y163824D01*
X293232Y164943D01*
X290720Y167454D01*
D02*
G37*
G36*
X64031Y165839D02*
X61681D01*
Y163331D01*
X64031D01*
Y165839D01*
D02*
G37*
G36*
X47260Y165917D02*
X43807D01*
Y162465D01*
X43828D01*
X44833Y162734D01*
X45734Y163254D01*
X46470Y163990D01*
X46990Y164892D01*
X47260Y165897D01*
Y165917D01*
D02*
G37*
G36*
X42807D02*
X39354D01*
Y165897D01*
X39624Y164892D01*
X40144Y163990D01*
X40880Y163254D01*
X41781Y162734D01*
X42787Y162465D01*
X42807D01*
Y165917D01*
D02*
G37*
G36*
X35449Y165917D02*
X31996D01*
Y162465D01*
X32016D01*
X33022Y162734D01*
X33923Y163254D01*
X34659Y163990D01*
X35179Y164892D01*
X35449Y165897D01*
Y165917D01*
D02*
G37*
G36*
X30996D02*
X27543D01*
Y165897D01*
X27813Y164892D01*
X28333Y163990D01*
X29069Y163254D01*
X29970Y162734D01*
X30976Y162465D01*
X30996D01*
Y165917D01*
D02*
G37*
G36*
X293939Y164236D02*
X292819Y163117D01*
X295331Y160606D01*
X296450Y161725D01*
X293939Y164236D01*
D02*
G37*
G36*
X43828Y160370D02*
X43807D01*
Y156917D01*
X47260D01*
Y156938D01*
X46990Y157943D01*
X46470Y158844D01*
X45734Y159580D01*
X44833Y160101D01*
X43828Y160370D01*
D02*
G37*
G36*
X42807D02*
X42787D01*
X41781Y160101D01*
X40880Y159580D01*
X40144Y158844D01*
X39624Y157943D01*
X39354Y156938D01*
Y156917D01*
X42807D01*
Y160370D01*
D02*
G37*
G36*
X32016D02*
X31996D01*
Y156917D01*
X35449D01*
Y156938D01*
X35179Y157943D01*
X34659Y158844D01*
X33923Y159580D01*
X33022Y160101D01*
X32016Y160370D01*
D02*
G37*
G36*
X30996D02*
X30976D01*
X29970Y160101D01*
X29069Y159580D01*
X28333Y158844D01*
X27813Y157943D01*
X27543Y156938D01*
Y156917D01*
X30996D01*
Y160370D01*
D02*
G37*
G36*
X515213Y146512D02*
X512311D01*
Y143610D01*
X515213D01*
Y146512D01*
D02*
G37*
G36*
X511311D02*
X508410D01*
Y143610D01*
X511311D01*
Y146512D01*
D02*
G37*
G36*
X527024D02*
X524122D01*
Y143610D01*
X527024D01*
Y146512D01*
D02*
G37*
G36*
X523122D02*
X520221D01*
Y143610D01*
X523122D01*
Y146512D01*
D02*
G37*
G36*
X527024Y142610D02*
X524122D01*
Y139709D01*
X527024D01*
Y142610D01*
D02*
G37*
G36*
X523122D02*
X520221D01*
Y139709D01*
X523122D01*
Y142610D01*
D02*
G37*
G36*
X515213Y142610D02*
X512311D01*
Y139709D01*
X515213D01*
Y142610D01*
D02*
G37*
G36*
X511311D02*
X508410D01*
Y139709D01*
X511311D01*
Y142610D01*
D02*
G37*
G36*
X512311Y136498D02*
Y133610D01*
X515199D01*
X514981Y134423D01*
X514533Y135199D01*
X513900Y135832D01*
X513124Y136280D01*
X512311Y136498D01*
D02*
G37*
G36*
X511311D02*
X510498Y136280D01*
X509722Y135832D01*
X509089Y135199D01*
X508641Y134423D01*
X508423Y133610D01*
X511311D01*
Y136498D01*
D02*
G37*
G36*
X524122Y136498D02*
Y133610D01*
X527010D01*
X526792Y134423D01*
X526344Y135199D01*
X525711Y135832D01*
X524935Y136280D01*
X524122Y136498D01*
D02*
G37*
G36*
X523122Y136498D02*
X522309Y136280D01*
X521533Y135832D01*
X520900Y135199D01*
X520452Y134423D01*
X520234Y133610D01*
X523122D01*
Y136498D01*
D02*
G37*
G36*
X296733Y138205D02*
X295787D01*
X294913Y137843D01*
X294244Y137174D01*
X293882Y136300D01*
Y135354D01*
X294244Y134480D01*
X294913Y133811D01*
X295787Y133449D01*
X296733D01*
X297607Y133811D01*
X298276Y134480D01*
X298638Y135354D01*
Y136300D01*
X298276Y137174D01*
X297607Y137843D01*
X296733Y138205D01*
D02*
G37*
G36*
X304607Y135252D02*
X303661D01*
X302787Y134890D01*
X302118Y134221D01*
X301756Y133347D01*
Y132401D01*
X302118Y131527D01*
X302787Y130858D01*
X303661Y130496D01*
X304607D01*
X305481Y130858D01*
X306150Y131527D01*
X306512Y132401D01*
Y133347D01*
X306150Y134221D01*
X305481Y134890D01*
X304607Y135252D01*
D02*
G37*
G36*
X527010Y132610D02*
X524122D01*
Y129723D01*
X524935Y129940D01*
X525711Y130388D01*
X526344Y131022D01*
X526792Y131797D01*
X527010Y132610D01*
D02*
G37*
G36*
X515199Y132610D02*
X512311D01*
Y129723D01*
X513124Y129940D01*
X513900Y130388D01*
X514533Y131022D01*
X514981Y131797D01*
X515199Y132610D01*
D02*
G37*
G36*
X511311D02*
X508423D01*
X508641Y131797D01*
X509089Y131022D01*
X509722Y130388D01*
X510498Y129940D01*
X511311Y129723D01*
Y132610D01*
D02*
G37*
G36*
X523122Y132610D02*
X520234D01*
X520452Y131797D01*
X520900Y131022D01*
X521533Y130388D01*
X522309Y129940D01*
X523122Y129723D01*
Y132610D01*
D02*
G37*
G36*
X312869Y132184D02*
X309810D01*
Y129322D01*
X312869D01*
Y132184D01*
D02*
G37*
G36*
X512311Y126498D02*
Y123610D01*
X515199D01*
X514981Y124423D01*
X514533Y125199D01*
X513900Y125832D01*
X513124Y126280D01*
X512311Y126498D01*
D02*
G37*
G36*
X511311D02*
X510498Y126280D01*
X509722Y125832D01*
X509089Y125199D01*
X508641Y124423D01*
X508423Y123610D01*
X511311D01*
Y126498D01*
D02*
G37*
G36*
X524122Y126498D02*
Y123610D01*
X527010D01*
X526792Y124423D01*
X526344Y125199D01*
X525711Y125832D01*
X524935Y126280D01*
X524122Y126498D01*
D02*
G37*
G36*
X523122Y126498D02*
X522309Y126280D01*
X521533Y125832D01*
X520900Y125199D01*
X520452Y124423D01*
X520234Y123610D01*
X523122D01*
Y126498D01*
D02*
G37*
G36*
X527010Y122610D02*
X524122D01*
Y119723D01*
X524935Y119940D01*
X525711Y120388D01*
X526344Y121022D01*
X526792Y121797D01*
X527010Y122610D01*
D02*
G37*
G36*
X515199Y122610D02*
X512311D01*
Y119723D01*
X513124Y119940D01*
X513900Y120388D01*
X514533Y121022D01*
X514981Y121797D01*
X515199Y122610D01*
D02*
G37*
G36*
X511311D02*
X508423D01*
X508641Y121797D01*
X509089Y121022D01*
X509722Y120388D01*
X510498Y119940D01*
X511311Y119723D01*
Y122610D01*
D02*
G37*
G36*
X523122Y122610D02*
X520234D01*
X520452Y121797D01*
X520900Y121022D01*
X521533Y120388D01*
X522309Y119940D01*
X523122Y119723D01*
Y122610D01*
D02*
G37*
G36*
X121079Y118913D02*
X118807D01*
Y116642D01*
X121079D01*
Y118913D01*
D02*
G37*
G36*
X106784D02*
X104512D01*
Y116642D01*
X106784D01*
Y118913D01*
D02*
G37*
G36*
X117807D02*
X113295D01*
Y116142D01*
X112295D01*
Y118913D01*
X107784D01*
Y116142D01*
X107284D01*
Y115642D01*
X104512D01*
Y113370D01*
Y111130D01*
X107284D01*
Y110130D01*
X104512D01*
Y107858D01*
Y105618D01*
X107284D01*
Y105118D01*
X107784D01*
Y102347D01*
X112295D01*
Y105118D01*
X113295D01*
Y102347D01*
X117807D01*
Y105118D01*
X118307D01*
Y105618D01*
X121079D01*
Y107858D01*
Y110130D01*
X118307D01*
Y111130D01*
X121079D01*
Y113370D01*
Y115642D01*
X118307D01*
Y116142D01*
X117807D01*
Y118913D01*
D02*
G37*
G36*
X512311Y116498D02*
Y113610D01*
X515199D01*
X514981Y114423D01*
X514533Y115199D01*
X513900Y115832D01*
X513124Y116280D01*
X512311Y116498D01*
D02*
G37*
G36*
X511311D02*
X510498Y116280D01*
X509722Y115832D01*
X509089Y115199D01*
X508641Y114423D01*
X508423Y113610D01*
X511311D01*
Y116498D01*
D02*
G37*
G36*
X524122Y116498D02*
Y113610D01*
X527010D01*
X526792Y114423D01*
X526344Y115199D01*
X525711Y115832D01*
X524935Y116280D01*
X524122Y116498D01*
D02*
G37*
G36*
X523122Y116498D02*
X522309Y116280D01*
X521533Y115832D01*
X520900Y115199D01*
X520452Y114423D01*
X520234Y113610D01*
X523122D01*
Y116498D01*
D02*
G37*
G36*
X434366Y114287D02*
X430323D01*
Y111031D01*
X434366D01*
Y114287D01*
D02*
G37*
G36*
X527010Y112610D02*
X524122D01*
Y109723D01*
X524935Y109941D01*
X525711Y110388D01*
X526344Y111022D01*
X526792Y111797D01*
X527010Y112610D01*
D02*
G37*
G36*
X515199Y112610D02*
X512311D01*
Y109723D01*
X513124Y109941D01*
X513900Y110388D01*
X514533Y111022D01*
X514981Y111797D01*
X515199Y112610D01*
D02*
G37*
G36*
X511311D02*
X508423D01*
X508641Y111797D01*
X509089Y111022D01*
X509722Y110388D01*
X510498Y109941D01*
X511311Y109723D01*
Y112610D01*
D02*
G37*
G36*
X523122Y112610D02*
X520234D01*
X520452Y111797D01*
X520900Y111022D01*
X521533Y110388D01*
X522309Y109941D01*
X523122Y109723D01*
Y112610D01*
D02*
G37*
G36*
X434366Y110031D02*
X430323D01*
Y106776D01*
X434366D01*
Y110031D01*
D02*
G37*
G36*
X372220Y108510D02*
X370579D01*
Y103876D01*
X372220D01*
Y108510D01*
D02*
G37*
G36*
X369579D02*
X367937D01*
Y103876D01*
X369579D01*
Y108510D01*
D02*
G37*
G36*
X512311Y106498D02*
Y103610D01*
X515199D01*
X514981Y104423D01*
X514533Y105199D01*
X513900Y105832D01*
X513124Y106280D01*
X512311Y106498D01*
D02*
G37*
G36*
X511311D02*
X510498Y106280D01*
X509722Y105832D01*
X509089Y105199D01*
X508641Y104423D01*
X508423Y103610D01*
X511311D01*
Y106498D01*
D02*
G37*
G36*
X524122Y106498D02*
Y103610D01*
X527010D01*
X526792Y104423D01*
X526344Y105199D01*
X525711Y105832D01*
X524935Y106280D01*
X524122Y106498D01*
D02*
G37*
G36*
X523122Y106498D02*
X522309Y106280D01*
X521533Y105832D01*
X520900Y105199D01*
X520452Y104423D01*
X520234Y103610D01*
X523122D01*
Y106498D01*
D02*
G37*
G36*
X304607Y107693D02*
X303661D01*
X302787Y107331D01*
X302118Y106662D01*
X301756Y105788D01*
Y104842D01*
X302118Y103968D01*
X302787Y103299D01*
X303661Y102937D01*
X304607D01*
X305481Y103299D01*
X306150Y103968D01*
X306512Y104842D01*
Y105788D01*
X306150Y106662D01*
X305481Y107331D01*
X304607Y107693D01*
D02*
G37*
G36*
X121079Y104618D02*
X118807D01*
Y102347D01*
X121079D01*
Y104618D01*
D02*
G37*
G36*
X106784D02*
X104512D01*
Y102347D01*
X106784D01*
Y104618D01*
D02*
G37*
G36*
X527010Y102610D02*
X524122D01*
Y99723D01*
X524935Y99941D01*
X525711Y100388D01*
X526344Y101022D01*
X526792Y101797D01*
X527010Y102610D01*
D02*
G37*
G36*
X515199Y102610D02*
X512311D01*
Y99723D01*
X513124Y99941D01*
X513900Y100388D01*
X514533Y101022D01*
X514981Y101797D01*
X515199Y102610D01*
D02*
G37*
G36*
X511311D02*
X508423D01*
X508641Y101797D01*
X509089Y101022D01*
X509722Y100388D01*
X510498Y99941D01*
X511311Y99723D01*
Y102610D01*
D02*
G37*
G36*
X523122Y102610D02*
X520234D01*
X520452Y101797D01*
X520900Y101022D01*
X521533Y100388D01*
X522309Y99941D01*
X523122Y99723D01*
Y102610D01*
D02*
G37*
G36*
X372220Y102876D02*
X370579D01*
Y98242D01*
X372220D01*
Y102876D01*
D02*
G37*
G36*
X369579D02*
X367937D01*
Y98242D01*
X369579D01*
Y102876D01*
D02*
G37*
G36*
X318398Y102876D02*
X316756D01*
Y98242D01*
X318398D01*
Y102876D01*
D02*
G37*
G36*
X512311Y96498D02*
Y93610D01*
X515199D01*
X514981Y94423D01*
X514533Y95199D01*
X513900Y95832D01*
X513124Y96280D01*
X512311Y96498D01*
D02*
G37*
G36*
X511311D02*
X510498Y96280D01*
X509722Y95832D01*
X509089Y95199D01*
X508641Y94423D01*
X508423Y93610D01*
X511311D01*
Y96498D01*
D02*
G37*
G36*
X524122Y96498D02*
Y93610D01*
X527010D01*
X526792Y94423D01*
X526344Y95199D01*
X525711Y95832D01*
X524935Y96280D01*
X524122Y96498D01*
D02*
G37*
G36*
X523122Y96498D02*
X522309Y96280D01*
X521533Y95832D01*
X520900Y95199D01*
X520452Y94423D01*
X520234Y93610D01*
X523122D01*
Y96498D01*
D02*
G37*
G36*
X527010Y92610D02*
X524122D01*
Y89723D01*
X524935Y89941D01*
X525711Y90388D01*
X526344Y91022D01*
X526792Y91797D01*
X527010Y92610D01*
D02*
G37*
G36*
X515199Y92610D02*
X512311D01*
Y89723D01*
X513124Y89941D01*
X513900Y90388D01*
X514533Y91022D01*
X514981Y91797D01*
X515199Y92610D01*
D02*
G37*
G36*
X511311D02*
X508423D01*
X508641Y91797D01*
X509089Y91022D01*
X509722Y90388D01*
X510498Y89941D01*
X511311Y89723D01*
Y92610D01*
D02*
G37*
G36*
X523122Y92610D02*
X520234D01*
X520452Y91797D01*
X520900Y91022D01*
X521533Y90388D01*
X522309Y89941D01*
X523122Y89723D01*
Y92610D01*
D02*
G37*
G36*
X309319Y91257D02*
X308373D01*
X307499Y90895D01*
X306830Y90226D01*
X306468Y89352D01*
Y88406D01*
X306830Y87532D01*
X307499Y86863D01*
X308373Y86501D01*
X309319D01*
X310193Y86863D01*
X310862Y87532D01*
X311224Y88406D01*
Y89352D01*
X310862Y90226D01*
X310193Y90895D01*
X309319Y91257D01*
D02*
G37*
G36*
X145291Y79736D02*
X141339D01*
X137386D01*
Y78341D01*
X76394D01*
Y79736D01*
X72441D01*
X68488D01*
Y77465D01*
X68488Y77465D01*
X68488D01*
X68488Y77465D01*
X68369Y76814D01*
X68018Y76356D01*
X67621Y75398D01*
X67486Y74370D01*
Y50748D01*
X67621Y49720D01*
X68018Y48763D01*
X68649Y47940D01*
X69471Y47309D01*
X70429Y46912D01*
X71457Y46777D01*
X142323D01*
X143351Y46912D01*
X144308Y47309D01*
X145131Y47940D01*
X145762Y48763D01*
X146159Y49720D01*
X146294Y50748D01*
Y74370D01*
X146159Y75398D01*
X145762Y76356D01*
X145410Y76814D01*
X145291Y77465D01*
X145291Y77465D01*
X145291Y77465D01*
Y79736D01*
D02*
G37*
G36*
X352205Y90392D02*
X346693D01*
X346303Y90314D01*
X345972Y90093D01*
X345751Y89762D01*
X345673Y89372D01*
Y77758D01*
X345751Y77368D01*
X345972Y77037D01*
X346303Y76816D01*
X346693Y76738D01*
X352205D01*
X352595Y76816D01*
X352926Y77037D01*
X353147Y77368D01*
X353224Y77758D01*
Y89372D01*
X353147Y89762D01*
X352926Y90093D01*
X352595Y90314D01*
X352205Y90392D01*
D02*
G37*
G36*
X342205D02*
X336693D01*
X336303Y90314D01*
X335972Y90093D01*
X335751Y89762D01*
X335673Y89372D01*
Y77758D01*
X335751Y77368D01*
X335972Y77037D01*
X336303Y76816D01*
X336693Y76738D01*
X342205D01*
X342595Y76816D01*
X342926Y77037D01*
X343147Y77368D01*
X343224Y77758D01*
Y89372D01*
X343147Y89762D01*
X342926Y90093D01*
X342595Y90314D01*
X342205Y90392D01*
D02*
G37*
G36*
X332205D02*
X326693D01*
X326303Y90314D01*
X325972Y90093D01*
X325751Y89762D01*
X325673Y89372D01*
Y77758D01*
X325751Y77368D01*
X325972Y77037D01*
X326303Y76816D01*
X326693Y76738D01*
X332205D01*
X332595Y76816D01*
X332926Y77037D01*
X333147Y77368D01*
X333224Y77758D01*
Y89372D01*
X333147Y89762D01*
X332926Y90093D01*
X332595Y90314D01*
X332205Y90392D01*
D02*
G37*
G36*
X155134Y77453D02*
X152075D01*
Y74591D01*
X155134D01*
Y77453D01*
D02*
G37*
G36*
X151075D02*
X148016D01*
Y74591D01*
X151075D01*
Y77453D01*
D02*
G37*
G36*
X226862Y77492D02*
X223114D01*
Y77433D01*
X223404Y76352D01*
X223963Y75384D01*
X224754Y74593D01*
X225723Y74034D01*
X226803Y73744D01*
X226862D01*
Y77492D01*
D02*
G37*
G36*
X234547Y165177D02*
Y165177D01*
X220177D01*
Y150807D01*
X220177D01*
X220532Y150277D01*
X220453Y150088D01*
X220177Y148700D01*
Y147284D01*
X220453Y145896D01*
X220995Y144589D01*
X221781Y143412D01*
X222201Y142992D01*
X221781Y142572D01*
X220995Y141395D01*
X220453Y140088D01*
X220177Y138700D01*
Y137285D01*
X220453Y135896D01*
X220995Y134589D01*
X221781Y133412D01*
X222201Y132992D01*
X221781Y132572D01*
X220995Y131395D01*
X220453Y130088D01*
X220177Y128700D01*
Y127285D01*
X220453Y125896D01*
X220995Y124589D01*
X221781Y123412D01*
X222201Y122992D01*
X221781Y122572D01*
X220995Y121396D01*
X220453Y120088D01*
X220177Y118700D01*
Y117285D01*
X220453Y115896D01*
X220995Y114589D01*
X221781Y113412D01*
X222201Y112992D01*
X221781Y112572D01*
X220995Y111396D01*
X220453Y110088D01*
X220177Y108700D01*
Y107284D01*
X220453Y105896D01*
X220995Y104589D01*
X221781Y103412D01*
X222201Y102992D01*
X221781Y102572D01*
X220995Y101395D01*
X220453Y100088D01*
X220177Y98700D01*
Y97285D01*
X220453Y95896D01*
X220995Y94589D01*
X221781Y93412D01*
X222201Y92992D01*
X221781Y92572D01*
X220995Y91395D01*
X220453Y90088D01*
X220177Y88700D01*
Y87284D01*
X220453Y85896D01*
X220995Y84589D01*
X221781Y83412D01*
X222782Y82411D01*
X223959Y81625D01*
X224104Y81565D01*
X224241Y80878D01*
X223963Y80601D01*
X223404Y79632D01*
X223114Y78551D01*
Y78492D01*
X227362D01*
Y77992D01*
X227862D01*
Y73744D01*
X227922D01*
X229002Y74034D01*
X229971Y74593D01*
X230248Y74871D01*
X230935Y74734D01*
X230995Y74589D01*
X231781Y73412D01*
X232201Y72992D01*
X231781Y72572D01*
X230995Y71395D01*
X230935Y71250D01*
X230248Y71114D01*
X229971Y71391D01*
X229002Y71951D01*
X227922Y72240D01*
X227862D01*
Y67992D01*
Y63744D01*
X227922D01*
X229002Y64034D01*
X229971Y64593D01*
X230248Y64871D01*
X230935Y64734D01*
X230995Y64589D01*
X231781Y63412D01*
X232782Y62411D01*
X233959Y61625D01*
X235266Y61083D01*
X236654Y60807D01*
X238070D01*
X239458Y61083D01*
X240766Y61625D01*
X241942Y62411D01*
X242943Y63412D01*
X243729Y64589D01*
X244271Y65896D01*
X244547Y67285D01*
Y68700D01*
X244271Y70088D01*
X243729Y71395D01*
X242943Y72572D01*
X242523Y72992D01*
X242943Y73412D01*
X243729Y74589D01*
X244271Y75896D01*
X244547Y77284D01*
Y78700D01*
X244271Y80088D01*
X243729Y81396D01*
X242943Y82572D01*
X242523Y82992D01*
X242943Y83412D01*
X243729Y84589D01*
X244271Y85896D01*
X244547Y87284D01*
Y88700D01*
X244271Y90088D01*
X243729Y91395D01*
X242943Y92572D01*
X242523Y92992D01*
X242943Y93412D01*
X243729Y94589D01*
X244271Y95896D01*
X244547Y97285D01*
Y98700D01*
X244271Y100088D01*
X243729Y101395D01*
X242943Y102572D01*
X242523Y102992D01*
X242943Y103412D01*
X243729Y104589D01*
X244271Y105896D01*
X244547Y107284D01*
Y108700D01*
X244271Y110088D01*
X243729Y111396D01*
X242943Y112572D01*
X242523Y112992D01*
X242943Y113412D01*
X243729Y114589D01*
X244271Y115896D01*
X244547Y117285D01*
Y118700D01*
X244271Y120088D01*
X243729Y121396D01*
X242943Y122572D01*
X242523Y122992D01*
X242943Y123412D01*
X243729Y124589D01*
X244271Y125896D01*
X244547Y127285D01*
Y128700D01*
X244271Y130088D01*
X243729Y131395D01*
X242943Y132572D01*
X242523Y132992D01*
X242943Y133412D01*
X243729Y134589D01*
X244271Y135896D01*
X244547Y137285D01*
Y138700D01*
X244271Y140088D01*
X243729Y141395D01*
X242943Y142572D01*
X242523Y142992D01*
X242943Y143412D01*
X243729Y144589D01*
X244271Y145896D01*
X244547Y147284D01*
Y148700D01*
X244271Y150088D01*
X243729Y151395D01*
X242943Y152572D01*
X242523Y152992D01*
X242943Y153412D01*
X243729Y154589D01*
X244271Y155896D01*
X244547Y157284D01*
Y158700D01*
X244271Y160088D01*
X243729Y161396D01*
X242943Y162572D01*
X241942Y163573D01*
X240766Y164359D01*
X239458Y164901D01*
X238070Y165177D01*
X236654D01*
X235266Y164901D01*
X235078Y164823D01*
X234547Y165177D01*
D02*
G37*
G36*
X200803Y72925D02*
X197350D01*
Y69472D01*
X197371D01*
X198376Y69742D01*
X199277Y70262D01*
X200013Y70998D01*
X200534Y71899D01*
X200803Y72905D01*
Y72925D01*
D02*
G37*
G36*
X196350D02*
X192898D01*
Y72905D01*
X193167Y71899D01*
X193687Y70998D01*
X194423Y70262D01*
X195325Y69742D01*
X196330Y69472D01*
X196350D01*
Y72925D01*
D02*
G37*
G36*
X35449Y72925D02*
X31996D01*
Y69472D01*
X32016D01*
X33022Y69742D01*
X33923Y70262D01*
X34659Y70998D01*
X35179Y71899D01*
X35449Y72905D01*
Y72925D01*
D02*
G37*
G36*
X30996D02*
X27543D01*
Y72905D01*
X27813Y71899D01*
X28333Y70998D01*
X29069Y70262D01*
X29970Y69742D01*
X30976Y69472D01*
X30996D01*
Y72925D01*
D02*
G37*
G36*
X226862Y72240D02*
X226803D01*
X225723Y71951D01*
X224754Y71391D01*
X223963Y70600D01*
X223404Y69632D01*
X223114Y68551D01*
Y68492D01*
X226862D01*
Y72240D01*
D02*
G37*
G36*
Y67492D02*
X223114D01*
Y67433D01*
X223404Y66352D01*
X223963Y65384D01*
X224754Y64593D01*
X225723Y64034D01*
X226803Y63744D01*
X226862D01*
Y67492D01*
D02*
G37*
G36*
X404839Y63500D02*
X401583D01*
Y59260D01*
X404839D01*
Y63500D01*
D02*
G37*
G36*
X400583D02*
X397327D01*
Y59260D01*
X400583D01*
Y63500D01*
D02*
G37*
G36*
X483268Y82711D02*
X465551D01*
X464523Y82576D01*
X463566Y82179D01*
X462743Y81548D01*
X462112Y80726D01*
X461716Y79768D01*
X461580Y78740D01*
Y62992D01*
X461716Y61964D01*
X462112Y61007D01*
X462743Y60184D01*
X463566Y59553D01*
X464523Y59157D01*
X465551Y59021D01*
X483268D01*
X484296Y59157D01*
X485253Y59553D01*
X486076Y60184D01*
X486707Y61007D01*
X487103Y61964D01*
X487239Y62992D01*
Y78740D01*
X487103Y79768D01*
X486707Y80726D01*
X486076Y81548D01*
X485253Y82179D01*
X484296Y82576D01*
X483268Y82711D01*
D02*
G37*
G36*
X321039Y61266D02*
X319398D01*
Y56632D01*
X321039D01*
Y61266D01*
D02*
G37*
G36*
X318398D02*
X316756D01*
Y56632D01*
X318398D01*
Y61266D01*
D02*
G37*
G36*
X372220D02*
X370579D01*
Y56632D01*
X372220D01*
Y61266D01*
D02*
G37*
G36*
X369579D02*
X367937D01*
Y56632D01*
X369579D01*
Y61266D01*
D02*
G37*
G36*
X456610Y59563D02*
X453354D01*
Y55323D01*
X456610D01*
Y59563D01*
D02*
G37*
G36*
X452354D02*
X449098D01*
Y55323D01*
X452354D01*
Y59563D01*
D02*
G37*
G36*
X404839Y58260D02*
X401583D01*
Y54020D01*
X404839D01*
Y58260D01*
D02*
G37*
G36*
X400583D02*
X397327D01*
Y54020D01*
X400583D01*
Y58260D01*
D02*
G37*
G36*
X352992Y66573D02*
X345905D01*
X345515Y66495D01*
X345185Y66274D01*
X344964Y65943D01*
X344886Y65553D01*
Y54530D01*
X344964Y54139D01*
X345185Y53809D01*
X345515Y53588D01*
X345905Y53510D01*
X352992D01*
X353382Y53588D01*
X353713Y53809D01*
X353934Y54139D01*
X354012Y54530D01*
Y65553D01*
X353934Y65943D01*
X353713Y66274D01*
X353382Y66495D01*
X352992Y66573D01*
D02*
G37*
G36*
X342992D02*
X335906D01*
X335515Y66495D01*
X335185Y66274D01*
X334963Y65943D01*
X334886Y65553D01*
Y54530D01*
X334963Y54139D01*
X335185Y53809D01*
X335515Y53588D01*
X335906Y53510D01*
X342992D01*
X343382Y53588D01*
X343713Y53809D01*
X343934Y54139D01*
X344012Y54530D01*
Y65553D01*
X343934Y65943D01*
X343713Y66274D01*
X343382Y66495D01*
X342992Y66573D01*
D02*
G37*
G36*
X332992D02*
X325905D01*
X325515Y66495D01*
X325185Y66274D01*
X324963Y65943D01*
X324886Y65553D01*
Y54530D01*
X324963Y54139D01*
X325185Y53809D01*
X325515Y53588D01*
X325905Y53510D01*
X332992D01*
X333382Y53588D01*
X333713Y53809D01*
X333934Y54139D01*
X334012Y54530D01*
Y65553D01*
X333934Y65943D01*
X333713Y66274D01*
X333382Y66495D01*
X332992Y66573D01*
D02*
G37*
G36*
X321039Y55632D02*
X319398D01*
Y50998D01*
X321039D01*
Y55632D01*
D02*
G37*
G36*
X318398D02*
X316756D01*
Y50998D01*
X318398D01*
Y55632D01*
D02*
G37*
G36*
X456610Y54323D02*
X453354D01*
Y50083D01*
X456610D01*
Y54323D01*
D02*
G37*
G36*
X452354D02*
X449098D01*
Y50083D01*
X452354D01*
Y54323D01*
D02*
G37*
G36*
X195095Y51665D02*
X192232D01*
Y48606D01*
X195095D01*
Y51665D01*
D02*
G37*
G36*
X275351Y47654D02*
X272095D01*
Y43020D01*
X275351D01*
Y47654D01*
D02*
G37*
G36*
X205528D02*
X202272D01*
Y43020D01*
X205528D01*
Y47654D01*
D02*
G37*
G36*
X201272D02*
X198016D01*
Y43020D01*
X201272D01*
Y47654D01*
D02*
G37*
G36*
X174697D02*
X171441D01*
Y43020D01*
X174697D01*
Y47654D01*
D02*
G37*
G36*
X275351Y42020D02*
X272095D01*
Y37386D01*
X275351D01*
Y42020D01*
D02*
G37*
G36*
X249819Y42020D02*
X246563D01*
Y37386D01*
X249819D01*
Y42020D01*
D02*
G37*
G36*
X245563D02*
X242307D01*
Y37386D01*
X245563D01*
Y42020D01*
D02*
G37*
G36*
X205528Y42020D02*
X202272D01*
Y37386D01*
X205528D01*
Y42020D01*
D02*
G37*
G36*
X201272D02*
X198016D01*
Y37386D01*
X201272D01*
Y42020D01*
D02*
G37*
G36*
X174697Y42020D02*
X171441D01*
Y37386D01*
X174697D01*
Y42020D01*
D02*
G37*
G36*
X292323Y54682D02*
X291360Y54491D01*
X290543Y53945D01*
X289998Y53128D01*
X289806Y52165D01*
X289998Y51202D01*
X290543Y50386D01*
X291660Y49269D01*
X291392Y48622D01*
X284587D01*
Y45824D01*
X283465D01*
X282501Y45632D01*
X281685Y45087D01*
X281139Y44270D01*
X280948Y43307D01*
X281139Y42344D01*
X281685Y41527D01*
X282501Y40982D01*
X283465Y40790D01*
X284587D01*
Y36417D01*
X301969D01*
Y48622D01*
X299292D01*
X299024Y49024D01*
X294103Y53945D01*
X293286Y54491D01*
X292323Y54682D01*
D02*
G37*
G36*
X151600Y67094D02*
X150881Y66999D01*
X150210Y66722D01*
X149635Y66280D01*
X149193Y65704D01*
X148915Y65034D01*
X148820Y64314D01*
X148915Y63595D01*
X149193Y62924D01*
X149635Y62349D01*
X154701Y57283D01*
Y48622D01*
X152756D01*
Y36417D01*
X162205D01*
Y48622D01*
X160260D01*
Y58434D01*
X160165Y59153D01*
X159888Y59824D01*
X159446Y60400D01*
X153566Y66280D01*
X152990Y66722D01*
X152320Y66999D01*
X151600Y67094D01*
D02*
G37*
G36*
X98459Y35866D02*
X97210D01*
X95986Y35623D01*
X94832Y35145D01*
X93794Y34451D01*
X93316Y33973D01*
X92835Y33624D01*
X92353Y33973D01*
X91875Y34451D01*
X90837Y35145D01*
X89684Y35623D01*
X88459Y35866D01*
X87210D01*
X85986Y35623D01*
X84832Y35145D01*
X83794Y34451D01*
X83316Y33973D01*
X82835Y33624D01*
X82353Y33973D01*
X81875Y34451D01*
X80837Y35145D01*
X79684Y35623D01*
X78459Y35866D01*
X77210D01*
X75986Y35623D01*
X74832Y35145D01*
X73794Y34451D01*
X73316Y33973D01*
X72835Y33624D01*
X72353Y33973D01*
X71875Y34451D01*
X70837Y35145D01*
X69684Y35623D01*
X68459Y35866D01*
X67210D01*
X65986Y35623D01*
X64832Y35145D01*
X63794Y34451D01*
X63316Y33973D01*
X62835Y33624D01*
X62353Y33973D01*
X61875Y34451D01*
X60837Y35145D01*
X59684Y35623D01*
X58459Y35866D01*
X57210D01*
X55986Y35623D01*
X54832Y35145D01*
X54791Y35117D01*
X54173Y35447D01*
Y35866D01*
X41496D01*
Y23189D01*
X44261D01*
Y20385D01*
X44166Y20220D01*
X43898Y19219D01*
Y18182D01*
X44166Y17181D01*
X44684Y16283D01*
X45417Y15550D01*
X46315Y15032D01*
X47316Y14764D01*
X48353D01*
X49354Y15032D01*
X50252Y15550D01*
X50985Y16283D01*
X51503Y17181D01*
X51772Y18182D01*
Y19219D01*
X51503Y20220D01*
X51408Y20385D01*
Y23189D01*
X54173D01*
X54261Y22525D01*
Y20385D01*
X54166Y20220D01*
X53898Y19219D01*
Y18182D01*
X54166Y17181D01*
X54684Y16283D01*
X55417Y15550D01*
X56315Y15032D01*
X57316Y14764D01*
X58353D01*
X59354Y15032D01*
X60252Y15550D01*
X60985Y16283D01*
X61503Y17181D01*
X61772Y18182D01*
Y19219D01*
X61503Y20220D01*
X61409Y20385D01*
Y24292D01*
X61875Y24604D01*
X62353Y25082D01*
X62835Y25431D01*
X63316Y25082D01*
X63794Y24604D01*
X64261Y24292D01*
Y20385D01*
X64166Y20220D01*
X63898Y19219D01*
Y18182D01*
X64166Y17181D01*
X64684Y16283D01*
X65417Y15550D01*
X66315Y15032D01*
X67316Y14764D01*
X68353D01*
X69354Y15032D01*
X70252Y15550D01*
X70985Y16283D01*
X71503Y17181D01*
X71772Y18182D01*
Y19219D01*
X71503Y20220D01*
X71408Y20385D01*
Y24292D01*
X71875Y24604D01*
X72353Y25082D01*
X72835Y25431D01*
X73316Y25082D01*
X73794Y24604D01*
X74261Y24292D01*
Y20510D01*
X74094Y20220D01*
X73825Y19219D01*
Y18182D01*
X74094Y17181D01*
X74612Y16283D01*
X75345Y15550D01*
X76243Y15032D01*
X77244Y14764D01*
X78281D01*
X79282Y15032D01*
X80180Y15550D01*
X80913Y16283D01*
X81431Y17181D01*
X81699Y18182D01*
Y19219D01*
X81431Y20220D01*
X81409Y20259D01*
Y24292D01*
X81875Y24604D01*
X82353Y25082D01*
X82835Y25431D01*
X83316Y25082D01*
X83794Y24604D01*
X84261Y24292D01*
Y20385D01*
X84166Y20220D01*
X83898Y19219D01*
Y18182D01*
X84166Y17181D01*
X84684Y16283D01*
X85417Y15550D01*
X86315Y15032D01*
X87316Y14764D01*
X88353D01*
X89354Y15032D01*
X90252Y15550D01*
X90985Y16283D01*
X91503Y17181D01*
X91772Y18182D01*
Y19219D01*
X91503Y20220D01*
X91408Y20385D01*
Y24292D01*
X91875Y24604D01*
X92353Y25082D01*
X92835Y25431D01*
X93316Y25082D01*
X93794Y24604D01*
X94261Y24292D01*
Y20385D01*
X94166Y20220D01*
X93898Y19219D01*
Y18182D01*
X94166Y17181D01*
X94684Y16283D01*
X95417Y15550D01*
X96315Y15032D01*
X97316Y14764D01*
X98353D01*
X99354Y15032D01*
X100252Y15550D01*
X100985Y16283D01*
X101503Y17181D01*
X101772Y18182D01*
Y19219D01*
X101503Y20220D01*
X101409Y20385D01*
Y24292D01*
X101875Y24604D01*
X102758Y25487D01*
X103452Y26525D01*
X103930Y27679D01*
X104173Y28903D01*
Y30152D01*
X103930Y31376D01*
X103452Y32530D01*
X102758Y33568D01*
X101875Y34451D01*
X100837Y35145D01*
X99684Y35623D01*
X98459Y35866D01*
D02*
G37*
G36*
X146653Y44118D02*
X145934Y44023D01*
X145264Y43746D01*
X144688Y43304D01*
X144246Y42728D01*
X143969Y42058D01*
X143874Y41339D01*
Y40394D01*
X142677D01*
Y32756D01*
Y26575D01*
X141732D01*
Y16732D01*
X151575D01*
Y26575D01*
X150630D01*
Y32756D01*
Y40394D01*
X149433D01*
Y41339D01*
X149338Y42058D01*
X149061Y42728D01*
X148619Y43304D01*
X148043Y43746D01*
X147373Y44023D01*
X146653Y44118D01*
D02*
G37*
G36*
X116660Y19685D02*
X115623D01*
X114622Y19417D01*
X113724Y18898D01*
X112991Y18165D01*
X112473Y17268D01*
X112205Y16266D01*
Y15230D01*
X112473Y14228D01*
X112991Y13331D01*
X113724Y12598D01*
X114622Y12079D01*
X115623Y11811D01*
X116660D01*
X117661Y12079D01*
X118559Y12598D01*
X119292Y13331D01*
X119810Y14228D01*
X120079Y15230D01*
Y16266D01*
X119810Y17268D01*
X119292Y18165D01*
X118559Y18898D01*
X117661Y19417D01*
X116660Y19685D01*
D02*
G37*
G36*
X221941Y11827D02*
X218488D01*
Y8374D01*
X221941D01*
Y11827D01*
D02*
G37*
G36*
X150606D02*
X147154D01*
Y8374D01*
X150606D01*
Y11827D01*
D02*
G37*
G36*
X146154D02*
X142701D01*
Y8374D01*
X146154D01*
Y11827D01*
D02*
G37*
G36*
X234268D02*
X230815D01*
Y8374D01*
X234268D01*
Y11827D01*
D02*
G37*
G36*
Y7374D02*
X230815D01*
Y3921D01*
X234268D01*
Y7374D01*
D02*
G37*
G36*
X229815Y11827D02*
X222941D01*
Y7874D01*
Y3921D01*
X229815D01*
Y7874D01*
Y11827D01*
D02*
G37*
G36*
X221941Y7374D02*
X218488D01*
Y3921D01*
X221941D01*
Y7374D01*
D02*
G37*
G36*
X150606Y7374D02*
X147154D01*
Y3921D01*
X150606D01*
Y7374D01*
D02*
G37*
G36*
X146154D02*
X142701D01*
Y3921D01*
X146154D01*
Y7374D01*
D02*
G37*
%LPD*%
G36*
X218996Y312992D02*
Y301181D01*
X202264D01*
Y312992D01*
Y326772D01*
X218996D01*
Y312992D01*
D02*
G37*
G36*
X376713Y300925D02*
X370880Y295092D01*
X357913Y308059D01*
X286417Y308057D01*
X286417Y306967D01*
X356180D01*
X369467Y293680D01*
X363681Y287894D01*
X353346Y298228D01*
X286417Y298780D01*
X286417Y297244D01*
X286417Y296372D01*
X286077Y294660D01*
X285409Y293048D01*
X284440Y291597D01*
X283206Y290363D01*
X281755Y289394D01*
X280143Y288726D01*
X278432Y288386D01*
X277559Y288386D01*
Y288386D01*
X257778D01*
Y281496D01*
X253654D01*
X253654Y299213D01*
X272638D01*
Y316363D01*
X283465D01*
Y316374D01*
X361264D01*
X376713Y300925D01*
D02*
G37*
G36*
X244368Y285410D02*
Y281496D01*
X240288D01*
Y285760D01*
X237662Y288386D01*
X202325D01*
Y299213D01*
X244368D01*
Y285410D01*
D02*
G37*
G36*
X310696Y203084D02*
X319390Y194390D01*
X318406Y193405D01*
X308563Y203248D01*
X310696Y203084D01*
D02*
G37*
G36*
X318406Y193405D02*
X307579Y182579D01*
X297736Y192421D01*
X308563Y203248D01*
X318406Y193405D01*
D02*
G37*
G36*
X233268Y181102D02*
X212598D01*
Y191929D01*
X233268D01*
Y181102D01*
D02*
G37*
G36*
X323674Y171984D02*
X323674Y171984D01*
X324071Y171719D01*
X324200Y170858D01*
X324072Y170730D01*
X326449Y168353D01*
X326096Y167999D01*
X326449Y167646D01*
X323932Y165129D01*
X325806Y163255D01*
X325121Y162571D01*
X325864Y161828D01*
X325014Y160977D01*
X325014Y160977D01*
X325004Y160988D01*
X324924Y160891D01*
X324230Y160427D01*
X324024Y160386D01*
X322780Y161630D01*
X319950Y158801D01*
X319303Y159069D01*
Y165354D01*
X319123Y166263D01*
X318608Y167033D01*
X316351Y169291D01*
Y173846D01*
X316551Y174330D01*
Y175276D01*
X316503Y175392D01*
X316892Y175974D01*
X319684D01*
X323674Y171984D01*
D02*
G37*
G36*
X366575Y174793D02*
X344414Y152633D01*
X341462Y155586D01*
X363622Y177745D01*
X366575Y174793D01*
D02*
G37*
G36*
X352982Y145318D02*
X352350Y144288D01*
X351607Y142495D01*
X351154Y140608D01*
X351007Y138736D01*
X350995Y138673D01*
Y132479D01*
X350417Y132184D01*
X347358D01*
Y128822D01*
X346358D01*
Y132184D01*
X343299D01*
X342804Y132679D01*
Y132972D01*
X342782Y133081D01*
X342919Y134466D01*
X343355Y135903D01*
X344062Y137227D01*
X344945Y138302D01*
X345038Y138364D01*
X352428Y145755D01*
X352982Y145318D01*
D02*
G37*
G36*
X355405Y117053D02*
Y117011D01*
X362519D01*
X362878Y116411D01*
X362706Y116088D01*
X361988Y115213D01*
X361520Y114709D01*
X361519Y114709D01*
X361519Y114709D01*
X361013Y114240D01*
X360189Y113564D01*
X358639Y112735D01*
X358062Y112560D01*
X357500Y112977D01*
Y113415D01*
X351004D01*
Y112447D01*
X348957D01*
Y113415D01*
X348599D01*
X348410Y114099D01*
X348828Y114752D01*
X349986D01*
Y114748D01*
X351471Y114944D01*
X352855Y115517D01*
X354044Y116429D01*
X354044Y116428D01*
X354705Y117290D01*
X355405Y117053D01*
D02*
G37*
%LPC*%
G36*
X323364Y170023D02*
X321201Y167860D01*
X323225Y165836D01*
X325388Y167999D01*
X323364Y170023D01*
D02*
G37*
%LPD*%
G36*
X427450Y189737D02*
X427385Y189246D01*
X427344Y189041D01*
X427385Y188836D01*
X427485Y188078D01*
X427856Y187181D01*
X428108Y186853D01*
X428448Y186231D01*
X427856Y185461D01*
X427485Y184563D01*
X427385Y183805D01*
X427344Y183600D01*
X427385Y183395D01*
X427485Y182637D01*
X427856Y181740D01*
X428448Y180969D01*
X429218Y180378D01*
X430116Y180006D01*
X430526Y179952D01*
X430776Y179215D01*
X430776Y179212D01*
X421471Y169907D01*
X420824Y170175D01*
Y177552D01*
X420632Y178515D01*
X420087Y179332D01*
X417935Y181483D01*
X418186Y182222D01*
X418329Y182241D01*
X419191Y182598D01*
X419931Y183166D01*
X420499Y183906D01*
X420856Y184768D01*
X420893Y185049D01*
X421023Y185738D01*
X421948Y185860D01*
X422810Y186217D01*
X423550Y186785D01*
X424118Y187525D01*
X424475Y188387D01*
X424597Y189312D01*
X425286Y189442D01*
X425567Y189479D01*
X426429Y189836D01*
X426809Y190128D01*
X427450Y189737D01*
D02*
G37*
G36*
X476378Y201328D02*
X476378Y166339D01*
Y148622D01*
X464567D01*
Y166339D01*
X464567Y208685D01*
X447212Y226040D01*
X449439Y228268D01*
X476378Y201328D01*
D02*
G37*
G36*
X459661Y205221D02*
Y142554D01*
X458059D01*
X457651Y143085D01*
Y155289D01*
Y157739D01*
X457610Y157944D01*
X457510Y158702D01*
X457138Y159599D01*
X456887Y159927D01*
X456547Y160549D01*
X457138Y161319D01*
X457510Y162216D01*
X457610Y162975D01*
X457651Y163180D01*
Y166260D01*
Y205726D01*
X457522Y206370D01*
X458168Y206715D01*
X459661Y205221D01*
D02*
G37*
G36*
X445460Y167566D02*
Y166338D01*
X439912Y160790D01*
X439397Y160019D01*
X439217Y159111D01*
Y155334D01*
Y153178D01*
X438831Y153127D01*
X437934Y152755D01*
X437163Y152164D01*
X436572Y151393D01*
X436200Y150496D01*
X436100Y149738D01*
X436060Y149533D01*
X436100Y149328D01*
X436200Y148570D01*
X436572Y147672D01*
X437163Y146902D01*
X437934Y146311D01*
X438831Y145939D01*
X439217Y145888D01*
Y143084D01*
X438807Y142554D01*
X437556D01*
Y142717D01*
X437365Y143680D01*
X436819Y144496D01*
X436002Y145042D01*
X435039Y145233D01*
X434076Y145042D01*
X433260Y144496D01*
X432714Y143680D01*
X432522Y142717D01*
Y142554D01*
X430855D01*
X430280Y142856D01*
Y153300D01*
X431068Y154088D01*
X431184Y154262D01*
X431649Y154868D01*
X432021Y155765D01*
X432148Y156728D01*
X432274Y156855D01*
X433237Y156982D01*
X434134Y157353D01*
X434741Y157819D01*
X434915Y157935D01*
X436410Y159430D01*
X436463Y159484D01*
X436463Y159484D01*
X436718Y159738D01*
X436834Y159912D01*
X437300Y160519D01*
X437671Y161416D01*
X437798Y162379D01*
X437925Y162505D01*
X438888Y162632D01*
X439785Y163004D01*
X440391Y163469D01*
X440565Y163585D01*
X443635Y166655D01*
X444814Y167834D01*
X445460Y167566D01*
D02*
G37*
G36*
X427134Y160975D02*
X426930Y160710D01*
X426559Y159813D01*
X426432Y158850D01*
X426559Y157887D01*
X426930Y156989D01*
X427071Y156807D01*
X426227Y155962D01*
X425712Y155192D01*
X425531Y154283D01*
Y143085D01*
X425122Y142554D01*
X423777D01*
Y142717D01*
X423585Y143680D01*
X423039Y144496D01*
X422223Y145042D01*
X421260Y145233D01*
X420297Y145042D01*
X419480Y144496D01*
X418935Y143680D01*
X418743Y142717D01*
Y142554D01*
X416595D01*
Y151426D01*
X419986Y154817D01*
X419986Y154817D01*
X420241Y155072D01*
X420357Y155246D01*
X420822Y155852D01*
X421194Y156750D01*
X421321Y157713D01*
X421447Y157839D01*
X422410Y157966D01*
X423308Y158338D01*
X423914Y158803D01*
X424088Y158919D01*
X426279Y161110D01*
X426606Y161437D01*
X427134Y160975D01*
D02*
G37*
G36*
X452902Y204742D02*
Y166260D01*
Y164058D01*
X452861Y164053D01*
X451964Y163681D01*
X451193Y163090D01*
X450602Y162320D01*
X450230Y161422D01*
X450131Y160664D01*
X450090Y160459D01*
X450131Y160254D01*
X450230Y159496D01*
X450602Y158599D01*
X451193Y157828D01*
X451964Y157237D01*
X452861Y156865D01*
X452902Y156860D01*
Y155289D01*
Y142554D01*
X451153D01*
Y142825D01*
X450961Y143788D01*
X450416Y144605D01*
X449599Y145150D01*
X448636Y145342D01*
X447673Y145150D01*
X446856Y144605D01*
X446311Y143788D01*
X446119Y142825D01*
Y142554D01*
X443965D01*
Y146812D01*
X443925Y147018D01*
X443825Y147775D01*
X443453Y148673D01*
X443201Y149001D01*
X442862Y149622D01*
X443453Y150393D01*
X443825Y151290D01*
X443925Y152048D01*
X443965Y152253D01*
Y155334D01*
Y158127D01*
X449514Y163675D01*
X450028Y164446D01*
X450209Y165354D01*
Y205929D01*
X450209Y205929D01*
X450081Y206573D01*
X450726Y206918D01*
X452902Y204742D01*
D02*
G37*
G36*
X422979Y72073D02*
Y63968D01*
X432087D01*
Y56102D01*
X417323D01*
Y63968D01*
X420026D01*
Y72110D01*
X422979Y72073D01*
D02*
G37*
G36*
X483268Y62992D02*
X465551D01*
Y78740D01*
X483268D01*
Y62992D01*
D02*
G37*
%LPC*%
G36*
X114343Y241197D02*
X111992D01*
Y238689D01*
X114343D01*
Y241197D01*
D02*
G37*
G36*
Y237689D02*
X111992D01*
Y235181D01*
X114343D01*
Y237689D01*
D02*
G37*
G36*
X95009Y232299D02*
X94988D01*
Y228847D01*
X98441D01*
Y228867D01*
X98172Y229872D01*
X97651Y230773D01*
X96915Y231509D01*
X96014Y232030D01*
X95009Y232299D01*
D02*
G37*
G36*
X93988D02*
X93968D01*
X92962Y232030D01*
X92061Y231509D01*
X91325Y230773D01*
X90805Y229872D01*
X90535Y228867D01*
Y228847D01*
X93988D01*
Y232299D01*
D02*
G37*
G36*
X82784Y193774D02*
Y190520D01*
X86038D01*
X85783Y191469D01*
X85289Y192326D01*
X84590Y193025D01*
X83733Y193520D01*
X82784Y193774D01*
D02*
G37*
G36*
X81784Y193774D02*
X80834Y193520D01*
X79977Y193025D01*
X79278Y192326D01*
X78784Y191469D01*
X78529Y190520D01*
X81784D01*
Y193774D01*
D02*
G37*
G36*
X99465Y186079D02*
X96957D01*
Y183728D01*
X99465D01*
Y186079D01*
D02*
G37*
G36*
X95957D02*
X93449D01*
Y183728D01*
X95957D01*
Y186079D01*
D02*
G37*
%LPD*%
D10*
X75787Y171260D02*
X78723Y168325D01*
X93522D01*
X96457Y171260D01*
Y177008D01*
X54961Y166339D02*
Y171417D01*
X54134Y172244D02*
X54961Y171417D01*
X75787Y171260D02*
Y178150D01*
X69882Y183976D02*
Y188703D01*
X68561Y190024D02*
X69882Y188703D01*
X68561Y190024D02*
Y193282D01*
X65966Y195878D02*
X68561Y193282D01*
X56324Y195878D02*
X65966D01*
X54134Y193687D02*
X56324Y195878D01*
X54134Y172244D02*
Y193687D01*
X222441Y21654D02*
Y30354D01*
X222441Y21654D02*
X222441Y21654D01*
D14*
X459487Y325984D02*
D03*
Y323228D02*
D03*
X450338Y325984D02*
D03*
Y323228D02*
D03*
X459487Y294314D02*
D03*
Y291558D02*
D03*
X450338Y294314D02*
D03*
Y291558D02*
D03*
X462557Y294314D02*
D03*
Y291558D02*
D03*
D15*
X83661Y178150D02*
D03*
X77756D02*
D03*
X75787D02*
D03*
X73819D02*
D03*
X71850D02*
D03*
X69882D02*
D03*
X67913D02*
D03*
X62008D02*
D03*
Y184961D02*
D03*
X67913D02*
D03*
X69882D02*
D03*
X71850D02*
D03*
X73819D02*
D03*
X75787D02*
D03*
X77756D02*
D03*
X83661D02*
D03*
X222466Y208474D02*
D03*
X228372D02*
D03*
X230340D02*
D03*
X232309D02*
D03*
X234277D02*
D03*
X236246D02*
D03*
X238214D02*
D03*
X244120D02*
D03*
Y201663D02*
D03*
X238214D02*
D03*
X236246D02*
D03*
X234277D02*
D03*
X232309D02*
D03*
X230340D02*
D03*
X228372D02*
D03*
X222466D02*
D03*
D16*
X416339Y328740D02*
D03*
X15748Y261811D02*
D03*
X116142Y15748D02*
D03*
X47835Y18701D02*
D03*
X57835D02*
D03*
X67835D02*
D03*
X77762D02*
D03*
X87835D02*
D03*
X97835D02*
D03*
D17*
X131890Y277559D02*
D03*
Y270866D02*
D03*
Y264173D02*
D03*
Y257480D02*
D03*
Y250787D02*
D03*
D18*
X468774Y291869D02*
D03*
Y297656D02*
D03*
D19*
X453567Y325787D02*
D03*
X456126D02*
D03*
X453568Y294128D02*
D03*
X456127D02*
D03*
D20*
X118307Y105118D02*
D03*
X112795D02*
D03*
X107283D02*
D03*
Y110630D02*
D03*
X112795D02*
D03*
X118307D02*
D03*
Y116142D02*
D03*
X112795D02*
D03*
X107283D02*
D03*
D21*
X79390Y150157D02*
D03*
X134390D02*
D03*
X129390D02*
D03*
X84390D02*
D03*
X89390D02*
D03*
X94390D02*
D03*
X99390D02*
D03*
X104390D02*
D03*
X109390D02*
D03*
X114390D02*
D03*
X119390D02*
D03*
X124390D02*
D03*
D22*
X72441Y80236D02*
D03*
Y85236D02*
D03*
Y90236D02*
D03*
Y95236D02*
D03*
Y100236D02*
D03*
Y105236D02*
D03*
Y110236D02*
D03*
Y115236D02*
D03*
Y120236D02*
D03*
Y125236D02*
D03*
Y130236D02*
D03*
Y135236D02*
D03*
Y140236D02*
D03*
Y145236D02*
D03*
X141339D02*
D03*
Y140236D02*
D03*
Y135236D02*
D03*
Y130236D02*
D03*
Y125236D02*
D03*
Y120236D02*
D03*
Y115236D02*
D03*
Y110236D02*
D03*
Y105236D02*
D03*
Y100236D02*
D03*
Y95236D02*
D03*
Y90236D02*
D03*
Y85236D02*
D03*
Y80236D02*
D03*
D23*
X345512Y109222D02*
D03*
X335512D02*
D03*
X325512D02*
D03*
X350512D02*
D03*
X340512D02*
D03*
X330512D02*
D03*
D24*
X370079Y103376D02*
D03*
Y56132D02*
D03*
X318898D02*
D03*
Y103376D02*
D03*
D25*
X354252Y109222D02*
D03*
D26*
X412854Y69193D02*
D03*
X421516D02*
D03*
X430177Y71555D02*
D03*
X434508Y69980D02*
D03*
X404193D02*
D03*
X408524D02*
D03*
X417185D02*
D03*
X425846D02*
D03*
D27*
X429823Y110531D02*
D03*
X407382D02*
D03*
D28*
X452854Y54823D02*
D03*
X401083Y58760D02*
D03*
D29*
X137795Y298031D02*
D03*
Y290551D02*
D03*
X151575Y85433D02*
D03*
Y77953D02*
D03*
X147638Y290551D02*
D03*
Y298031D02*
D03*
X74761Y220669D02*
D03*
Y228150D02*
D03*
X82677Y220669D02*
D03*
Y228150D02*
D03*
X482941Y291658D02*
D03*
Y299138D02*
D03*
X313369Y121342D02*
D03*
Y128822D02*
D03*
X333671Y121342D02*
D03*
Y128822D02*
D03*
X346858Y121342D02*
D03*
Y128822D02*
D03*
X359933Y121342D02*
D03*
Y128822D02*
D03*
X338583Y320669D02*
D03*
Y313189D02*
D03*
X330709Y320669D02*
D03*
Y313189D02*
D03*
X322835Y320669D02*
D03*
Y313189D02*
D03*
X314961Y320669D02*
D03*
Y313189D02*
D03*
X307087Y320669D02*
D03*
Y313189D02*
D03*
X299213Y320669D02*
D03*
Y313189D02*
D03*
X338583Y301969D02*
D03*
Y294488D02*
D03*
X330709Y301969D02*
D03*
Y294488D02*
D03*
X322835Y301969D02*
D03*
Y294488D02*
D03*
X314961Y301969D02*
D03*
Y294488D02*
D03*
X307087Y301969D02*
D03*
Y294488D02*
D03*
X299213Y301969D02*
D03*
Y294488D02*
D03*
D30*
X153386Y145669D02*
D03*
X159606D02*
D03*
X153386Y139764D02*
D03*
X159606D02*
D03*
X153386Y151575D02*
D03*
X159606D02*
D03*
X159606Y157480D02*
D03*
X153386D02*
D03*
X190118Y59055D02*
D03*
X183898D02*
D03*
X54961Y166339D02*
D03*
X61181D02*
D03*
X129764Y238189D02*
D03*
X135984D02*
D03*
X114842D02*
D03*
X121063D02*
D03*
X236063Y264764D02*
D03*
X242284D02*
D03*
D31*
X96457Y183228D02*
D03*
Y177008D02*
D03*
X146653Y36575D02*
D03*
Y30354D02*
D03*
X475862Y291652D02*
D03*
Y297873D02*
D03*
X223425Y232283D02*
D03*
Y226063D02*
D03*
X230315Y232441D02*
D03*
Y226220D02*
D03*
X237205Y232441D02*
D03*
Y226220D02*
D03*
X258411Y207706D02*
D03*
Y201485D02*
D03*
X366754Y128192D02*
D03*
Y121972D02*
D03*
X353369Y128192D02*
D03*
Y121972D02*
D03*
X340430Y128192D02*
D03*
Y121972D02*
D03*
X320098Y128192D02*
D03*
Y121972D02*
D03*
X327010Y128192D02*
D03*
Y121972D02*
D03*
X434831Y138735D02*
D03*
Y132515D02*
D03*
X448461Y138735D02*
D03*
Y132515D02*
D03*
X468851Y138735D02*
D03*
Y132515D02*
D03*
X400562Y138735D02*
D03*
Y132515D02*
D03*
X421146Y138735D02*
D03*
Y132515D02*
D03*
X414220Y138735D02*
D03*
Y132515D02*
D03*
X407390Y138735D02*
D03*
Y132515D02*
D03*
X462036Y138735D02*
D03*
Y132515D02*
D03*
X455276Y138735D02*
D03*
Y132515D02*
D03*
X441591Y138735D02*
D03*
Y132515D02*
D03*
X427905Y138735D02*
D03*
Y132515D02*
D03*
X230315Y36575D02*
D03*
Y30354D02*
D03*
X222441Y36575D02*
D03*
Y30354D02*
D03*
X262795Y263937D02*
D03*
Y257716D02*
D03*
X269685Y257716D02*
D03*
Y263937D02*
D03*
X255906Y257716D02*
D03*
Y263937D02*
D03*
X382663Y128192D02*
D03*
Y121972D02*
D03*
D32*
X184252Y52165D02*
D03*
X191732D02*
D03*
X128937Y290354D02*
D03*
X121457D02*
D03*
D33*
X157480Y6693D02*
D03*
X175197D02*
D03*
Y42520D02*
D03*
X157480D02*
D03*
X201772Y6693D02*
D03*
X184055D02*
D03*
Y42520D02*
D03*
X201772D02*
D03*
X297244Y6693D02*
D03*
X314961D02*
D03*
Y42520D02*
D03*
X297244D02*
D03*
X271595Y6693D02*
D03*
X289311D02*
D03*
Y42520D02*
D03*
X271595D02*
D03*
X246063Y6693D02*
D03*
X263779D02*
D03*
Y42520D02*
D03*
X246063D02*
D03*
D34*
X146653Y21654D02*
D03*
Y7874D02*
D03*
X230315Y21654D02*
D03*
Y7874D02*
D03*
X222441Y21654D02*
D03*
Y7874D02*
D03*
X210630Y305197D02*
D03*
X164370Y303228D02*
D03*
X31496Y186417D02*
D03*
X43307D02*
D03*
X185039D02*
D03*
X196850D02*
D03*
X31496Y123425D02*
D03*
X43307D02*
D03*
X185039D02*
D03*
X196850D02*
D03*
D35*
X304935Y227451D02*
D03*
X308554Y223832D02*
D03*
X312173Y220213D02*
D03*
X315792Y216594D02*
D03*
X441067Y266704D02*
D03*
X437448Y270323D02*
D03*
X433829Y273942D02*
D03*
X331660Y200726D02*
D03*
X335279Y197107D02*
D03*
X422972Y284799D02*
D03*
X419353Y288418D02*
D03*
X392628Y315144D02*
D03*
X396247Y311525D02*
D03*
X399866Y307906D02*
D03*
X403485Y304287D02*
D03*
X407104Y300667D02*
D03*
X410723Y297048D02*
D03*
X414342Y293429D02*
D03*
X426591Y281180D02*
D03*
X430210Y277561D02*
D03*
X444686Y263085D02*
D03*
X448305Y259466D02*
D03*
X451924Y255847D02*
D03*
X455543Y252228D02*
D03*
X459162Y248609D02*
D03*
X462781Y244990D02*
D03*
X375089Y157297D02*
D03*
X371470Y160916D02*
D03*
X367851Y164535D02*
D03*
X364232Y168155D02*
D03*
X360613Y171774D02*
D03*
X356994Y175393D02*
D03*
X353375Y179012D02*
D03*
X349756Y182631D02*
D03*
X346137Y186250D02*
D03*
X342518Y189869D02*
D03*
X338898Y193488D02*
D03*
X326649Y205737D02*
D03*
X323030Y209356D02*
D03*
X319411Y212975D02*
D03*
D36*
X415038Y188059D02*
D03*
X418657Y191678D02*
D03*
X422276Y195297D02*
D03*
X425895Y198916D02*
D03*
X454847Y227869D02*
D03*
X353792Y285495D02*
D03*
X350173Y281876D02*
D03*
X346554Y278257D02*
D03*
X342935Y274638D02*
D03*
X339316Y271019D02*
D03*
X313983Y245686D02*
D03*
X310364Y242067D02*
D03*
X389704Y162726D02*
D03*
X393323Y166345D02*
D03*
X317602Y249305D02*
D03*
X321221Y252924D02*
D03*
X324840Y256543D02*
D03*
X328459Y260162D02*
D03*
X332078Y263781D02*
D03*
X335697Y267400D02*
D03*
X357411Y289114D02*
D03*
X361030Y292733D02*
D03*
X364650Y296352D02*
D03*
X368268Y299971D02*
D03*
X371888Y303590D02*
D03*
X375507Y307209D02*
D03*
X379126Y310829D02*
D03*
X458466Y231488D02*
D03*
X451228Y224250D02*
D03*
X447609Y220631D02*
D03*
X443990Y217012D02*
D03*
X440371Y213393D02*
D03*
X436752Y209774D02*
D03*
X433133Y206154D02*
D03*
X429514Y202536D02*
D03*
X411419Y184440D02*
D03*
X407800Y180821D02*
D03*
X404181Y177202D02*
D03*
X400562Y173583D02*
D03*
X396942Y169964D02*
D03*
D37*
X386085Y247356D02*
D03*
X390540Y242902D02*
D03*
X394994Y238448D02*
D03*
X386085D02*
D03*
X390540Y233993D02*
D03*
X377177Y238448D02*
D03*
X381631Y233993D02*
D03*
X377177Y229539D02*
D03*
X381631Y225085D02*
D03*
X328181Y230653D02*
D03*
X339316Y219517D02*
D03*
X372723Y186110D02*
D03*
X378291Y180543D02*
D03*
X383858Y174975D02*
D03*
X317045Y230653D02*
D03*
X322613Y225085D02*
D03*
X328181Y219517D02*
D03*
X333748Y213949D02*
D03*
X339316Y208382D02*
D03*
X344884Y202814D02*
D03*
X350173Y197524D02*
D03*
X356019Y191678D02*
D03*
X372723Y174975D02*
D03*
X378291Y169407D02*
D03*
X367155Y180543D02*
D03*
X361587Y186110D02*
D03*
X367155Y191678D02*
D03*
X361587Y197246D02*
D03*
X356019Y202814D02*
D03*
X350452Y208382D02*
D03*
X344884Y213949D02*
D03*
X333748Y225085D02*
D03*
X322613Y236221D02*
D03*
X372723Y233993D02*
D03*
X386085Y229539D02*
D03*
X381631Y242902D02*
D03*
D38*
X310347Y188668D02*
D03*
X315637Y183379D02*
D03*
X315269Y193590D02*
D03*
X320558Y188300D02*
D03*
X331385Y162710D02*
D03*
X326096Y167999D02*
D03*
D39*
X40748Y272638D02*
D03*
X67520D02*
D03*
D40*
X478642Y283366D02*
D03*
Y271752D02*
D03*
X471391Y331594D02*
D03*
Y319980D02*
D03*
D41*
X472146Y277559D02*
D03*
X464895Y325787D02*
D03*
D42*
X46260Y248031D02*
D03*
Y209055D02*
D03*
D43*
X387756Y186667D02*
D03*
X374393Y200030D02*
D03*
X361030Y213393D02*
D03*
X347668Y226755D02*
D03*
X334305Y240118D02*
D03*
X396664Y195576D02*
D03*
X383301Y208938D02*
D03*
X369939Y222301D02*
D03*
X356576Y235664D02*
D03*
X343214Y249026D02*
D03*
X406129Y205041D02*
D03*
X392767Y218404D02*
D03*
X365624Y244711D02*
D03*
X352679Y258492D02*
D03*
X415038Y213949D02*
D03*
X401675Y227312D02*
D03*
X374950Y254037D02*
D03*
X361587Y267400D02*
D03*
X424503Y223415D02*
D03*
X411140Y236777D02*
D03*
X397778Y250140D02*
D03*
X384415Y263503D02*
D03*
X371052Y276865D02*
D03*
X433411Y232323D02*
D03*
X420049Y245686D02*
D03*
X406686Y259048D02*
D03*
X393323Y272411D02*
D03*
X379961Y285774D02*
D03*
D44*
X292092Y178903D02*
D03*
X296491Y183302D02*
D03*
D45*
X313565Y145317D02*
D03*
X317101Y148852D02*
D03*
X320636Y152388D02*
D03*
X324172Y155923D02*
D03*
X293939Y164943D02*
D03*
X297474Y168479D02*
D03*
X301010Y172014D02*
D03*
X304545Y175550D02*
D03*
D46*
X249016Y318110D02*
D03*
D47*
X262402Y277365D02*
D03*
X255709D02*
D03*
X249016D02*
D03*
X242323D02*
D03*
X235630D02*
D03*
D94*
X468023Y291558D02*
X468774Y291869D01*
X450330Y294294D02*
X449326Y294274D01*
X448324Y294215D01*
X447325Y294117D01*
X446330Y293980D01*
X445341Y293804D01*
X444360Y293590D01*
X443389Y293337D01*
X442427Y293046D01*
X441478Y292719D01*
X440543Y292354D01*
X439622Y291952D01*
X438718Y291515D01*
X437832Y291043D01*
X436965Y290537D01*
X436118Y289997D01*
X435293Y289425D01*
X434491Y288820D01*
X433714Y288185D01*
X432962Y287520D01*
X432236Y286826D01*
X450337Y325980D02*
X449324Y325960D01*
X448313Y325901D01*
X447305Y325801D01*
X446302Y325662D01*
X445305Y325484D01*
X444316Y325268D01*
X443336Y325012D01*
X442367Y324718D01*
X441411Y324386D01*
X440468Y324017D01*
X439540Y323611D01*
X438629Y323169D01*
X437736Y322692D01*
X436862Y322180D01*
X436009Y321634D01*
X435178Y321055D01*
X434371Y320444D01*
X433588Y319801D01*
X432831Y319128D01*
X432101Y318426D01*
X411293Y83649D02*
X410433Y82789D01*
X411408Y83649D02*
X412268Y84510D01*
Y84510D02*
X411408Y85370D01*
X410433Y86230D02*
X411293Y85370D01*
X400026Y78265D02*
X400424Y77303D01*
X401386Y76905D01*
X404193Y75545D02*
X403794Y76507D01*
X402833Y76905D01*
X404193Y83706D02*
X404591Y82744D01*
X405553Y82346D01*
X401386Y79625D02*
X400424Y79227D01*
X400026Y78265D01*
X407043Y80985D02*
X406645Y81947D01*
X405683Y82346D01*
Y79625D02*
X406645Y80024D01*
X407043Y80985D01*
X462557Y288454D02*
X462600Y287469D01*
X462729Y286491D01*
X462942Y285528D01*
X463238Y284588D01*
X463616Y283677D01*
X464071Y282803D01*
X464601Y281971D01*
X465201Y281189D01*
X465867Y280462D01*
X466384Y279945D02*
X467186Y279242D01*
X468072Y278650D01*
X469028Y278179D01*
X470037Y277837D01*
X471082Y277629D01*
X472146Y277559D01*
X333671Y121342D02*
X332973Y121808D01*
X332150Y121972D01*
X326731Y102850D02*
X327661Y102943D01*
X328530Y103284D01*
X329275Y103847D01*
X329925Y104694D01*
X330333Y105680D01*
X330472Y106738D01*
X321664Y107834D02*
X321764Y106853D01*
X322056Y105910D01*
X322526Y105043D01*
X323158Y104285D01*
X323926Y103666D01*
X324801Y103210D01*
X325748Y102934D01*
X326731Y102850D01*
X324303Y116241D02*
X324887Y117049D01*
X325440Y117878D01*
X325961Y118727D01*
X326450Y119596D01*
X326907Y120481D01*
X324227Y116172D02*
X323674Y115370D01*
X323182Y114529D01*
X322756Y113653D01*
X322396Y112748D01*
X322105Y111818D01*
X321885Y110869D01*
X321737Y109906D01*
X321662Y108934D01*
X321660Y107960D01*
X329148Y115157D02*
X328278Y115043D01*
X327468Y114707D01*
X326772Y114173D01*
X326067Y113254D01*
X325624Y112185D01*
X325472Y111037D01*
X346858Y121342D02*
X346160Y121808D01*
X345337Y121972D01*
X330616Y115157D02*
X331655Y115203D01*
X332687Y115338D01*
X333703Y115563D01*
X334696Y115876D01*
X335658Y116273D01*
X336581Y116753D01*
X337459Y117312D01*
X338285Y117945D01*
X339053Y118647D01*
Y118647D02*
X339638Y119359D01*
X340072Y120172D01*
X340339Y121054D01*
X340430Y121971D01*
X359933Y121342D02*
X359235Y121808D01*
X358412Y121972D01*
X338639Y114415D02*
X337850Y113619D01*
X337085Y112800D01*
X336343Y111959D01*
X335627Y111097D01*
X344860Y117124D02*
X343904Y117056D01*
X342961Y116884D01*
X342043Y116611D01*
X341159Y116241D01*
X340321Y115777D01*
X339538Y115225D01*
X338819Y114592D01*
X349986Y117126D02*
X350856Y117241D01*
X351666Y117576D01*
X352362Y118110D01*
X352908Y118822D01*
X353252Y119651D01*
X353369Y120541D01*
X356298Y145744D02*
X355639Y145017D01*
X355054Y144229D01*
X354550Y143387D01*
X354130Y142500D01*
X353800Y141576D01*
X353561Y140624D01*
X353417Y139653D01*
X353369Y138673D01*
X343359Y140043D02*
X342700Y139316D01*
X342115Y138528D01*
X341611Y137686D01*
X341191Y136799D01*
X340860Y135875D01*
X340622Y134923D01*
X340478Y133952D01*
X340430Y132972D01*
X328947Y132870D02*
X328273Y132081D01*
X327731Y131195D01*
X327333Y130236D01*
X327091Y129227D01*
X327010Y128192D01*
X455276Y157739D02*
X454878Y158701D01*
X453916Y159099D01*
Y161819D02*
X454878Y162218D01*
X455276Y163180D01*
X452464Y160459D02*
X452862Y159497D01*
X453824Y159099D01*
Y161819D02*
X452862Y161421D01*
X452464Y160459D01*
X441591Y146812D02*
X441193Y147774D01*
X440231Y148173D01*
X438434Y149533D02*
X438832Y148571D01*
X439794Y148173D01*
X440231Y150893D02*
X441193Y151291D01*
X441591Y152253D01*
X439794Y150893D02*
X438832Y150495D01*
X438434Y149533D01*
X429191Y159811D02*
X428792Y158850D01*
X429191Y157888D01*
X431114Y159811D02*
X430153Y160210D01*
X429191Y159811D01*
X429389Y155767D02*
X429787Y156728D01*
X429389Y157690D01*
X431312Y159614D02*
X432274Y159215D01*
X433236Y159614D01*
X434680Y165623D02*
X434282Y164662D01*
X434680Y163700D01*
X436963Y165264D02*
X437925Y164866D01*
X438886Y165264D01*
X435039Y161417D02*
X435438Y162379D01*
X435039Y163341D01*
X436604Y165623D02*
X435642Y166022D01*
X434680Y165623D01*
X420485Y160598D02*
X421447Y160200D01*
X422409Y160598D01*
X418562Y156751D02*
X418960Y157713D01*
X418562Y158674D01*
X418364Y160796D02*
X417966Y159834D01*
X418364Y158872D01*
X420288Y160796D02*
X419326Y161194D01*
X418364Y160796D01*
X430969Y171220D02*
X430016Y171640D01*
X429046Y171263D01*
X428626Y170310D01*
X429003Y169340D01*
X431016Y171171D02*
X431984Y170751D01*
X432961Y171150D01*
X425264Y163453D02*
X425663Y164400D01*
X425285Y165355D01*
X425114Y167502D02*
X424695Y166549D01*
X425072Y165579D01*
X428259Y166183D02*
X429211Y165763D01*
X430182Y166140D01*
X430601Y167093D01*
X430224Y168063D01*
X427037Y167459D02*
X426085Y167879D01*
X425114Y167502D01*
X434055Y180880D02*
X433657Y181842D01*
X432695Y182240D01*
X434245Y184960D02*
X435207Y185359D01*
X435605Y186321D01*
X429718Y183600D02*
X430117Y182639D01*
X431079Y182240D01*
Y184960D02*
X430117Y184562D01*
X429718Y183600D01*
X431079Y190401D02*
X430117Y190003D01*
X429718Y189041D01*
Y189041D02*
X430117Y188079D01*
X431079Y187681D01*
X435605Y186321D02*
X435207Y187283D01*
X434245Y187681D01*
X432695Y190401D02*
X433657Y190800D01*
X434055Y191762D01*
X433565Y178644D02*
X434055Y179827D01*
X462557Y291558D02*
X468023D01*
X459487Y294314D02*
X462557D01*
X456127Y294128D02*
X456313Y294314D01*
X459487D01*
X453381Y294314D02*
X453568Y294128D01*
X450338Y294314D02*
X453381D01*
X426591Y281180D02*
X432236Y286826D01*
X459487Y325984D02*
X459684Y325787D01*
X464895D01*
X456126Y325787D02*
X459290D01*
X459487Y325984D01*
X450338Y325984D02*
X450535Y325787D01*
X453567D01*
X410723Y297048D02*
X432101Y318426D01*
X350471Y202998D02*
Y208362D01*
X350452Y208382D02*
X350471Y208362D01*
X304545Y175550D02*
X307344Y178348D01*
X320668D02*
X325353Y173663D01*
X307344Y178348D02*
X320668D01*
X414220Y132515D02*
X421146D01*
X413915Y132209D02*
X414220Y132515D01*
X413915Y127424D02*
Y132209D01*
Y127424D02*
X416339Y125000D01*
X434055Y70433D02*
X434508Y69980D01*
X434055Y70433D02*
Y103347D01*
X407390Y132515D02*
X407480Y132424D01*
X400562Y132515D02*
X407390D01*
X400562Y132515D02*
X400562Y132515D01*
X407480Y128937D02*
Y132424D01*
Y128937D02*
X411417Y125000D01*
X430118Y71614D02*
X430177Y71555D01*
X430118Y71614D02*
Y100394D01*
X450427Y121063D02*
X461878Y132515D01*
X425846Y69980D02*
Y98760D01*
X423228Y101378D02*
X425846Y98760D01*
X431102Y121063D02*
X450427D01*
X423228Y113189D02*
X431102Y121063D01*
X423228Y101378D02*
Y113189D01*
X461878Y132515D02*
X462036D01*
X468851D01*
X455119Y132515D02*
X455276D01*
X417185Y69980D02*
Y90413D01*
X420276Y93504D01*
X445636Y123031D02*
X455119Y132515D01*
X430118Y123031D02*
X445636D01*
X420276Y93504D02*
Y113189D01*
X430118Y123031D01*
X441029Y131953D02*
X441591Y132515D01*
X437992Y126969D02*
X441029Y130006D01*
Y131953D01*
X408524Y69980D02*
Y75846D01*
X410433Y77756D01*
Y80709D01*
Y90551D02*
X417323Y97441D01*
X430118Y126969D02*
X437992D01*
X417323Y114173D02*
X430118Y126969D01*
X417323Y97441D02*
Y114173D01*
X410433Y88862D02*
Y90551D01*
Y80709D02*
Y82789D01*
X411293Y83649D02*
X411408D01*
X412268Y84510D02*
Y84510D01*
X411293Y85370D02*
X411408D01*
X410433Y86230D02*
Y88862D01*
X441591Y132515D02*
X448461D01*
X415354Y98467D02*
Y115157D01*
X427905Y127709D01*
Y132515D01*
X400026Y78265D02*
Y78265D01*
X401386Y79625D02*
X405683D01*
X401386Y76905D02*
X402833D01*
X405553Y82346D02*
X405683D01*
X404193Y69980D02*
Y75545D01*
Y83706D02*
Y87305D01*
X415354Y98467D01*
X407043Y80985D02*
Y80985D01*
X427905Y132515D02*
X427906Y132515D01*
X434831D01*
X462557Y288454D02*
Y291755D01*
X465867Y280462D02*
X466384Y279945D01*
X330472Y106738D02*
Y109213D01*
X327010Y121972D02*
X332150D01*
X320098Y121972D02*
X327010D01*
X321660Y107960D02*
X321664Y107834D01*
X324227Y116172D02*
X324303Y116241D01*
X326907Y120482D02*
X327010Y121972D01*
X325472Y109213D02*
Y111037D01*
X340430Y121972D02*
X345337D01*
X330612Y115157D02*
X330616Y115157D01*
X329148Y115157D02*
X330612D01*
X338639Y114415D02*
X338819Y114592D01*
X335472Y109213D02*
X335627Y111097D01*
X353369Y121972D02*
X358412D01*
X344860Y117124D02*
X345038Y117126D01*
X353369Y120541D02*
Y121972D01*
X345038Y117126D02*
X349986D01*
X327406Y173663D02*
X327795Y173273D01*
X325353Y173663D02*
X327406D01*
X313976Y168307D02*
Y174606D01*
X314173Y174803D01*
X297474Y168479D02*
Y168524D01*
X293687Y172311D02*
X297474Y168524D01*
X356298Y145744D02*
X371470Y160916D01*
X353369Y128192D02*
Y138673D01*
X343359Y140043D02*
X367851Y164535D01*
X340430Y128192D02*
Y132972D01*
X328947Y132870D02*
X364232Y168155D01*
X304545Y175550D02*
X304545D01*
X296793Y183302D02*
X304545Y175550D01*
X296491Y183302D02*
X296793D01*
X313976Y168307D02*
X316929Y165354D01*
Y156095D02*
Y165354D01*
X320636Y152388D02*
Y152388D01*
X316929Y156095D02*
X320636Y152388D01*
X310429Y148453D02*
Y150201D01*
X310039Y150591D02*
X310429Y150201D01*
X313565Y145317D02*
Y145317D01*
X310429Y148453D02*
X313565Y145317D01*
X313976Y151976D02*
Y154528D01*
Y151976D02*
X316405Y149548D01*
Y149548D02*
Y149548D01*
X367155Y186053D02*
Y191678D01*
X361443Y191955D02*
X361587Y192099D01*
Y197246D01*
X356019Y197246D02*
Y202814D01*
Y197246D02*
X356151Y197115D01*
X344884Y208382D02*
Y213949D01*
X344753Y208250D02*
X344884Y208382D01*
X333661Y219488D02*
X333748Y219575D01*
Y225085D01*
X455276Y163180D02*
Y166260D01*
Y155289D02*
Y157739D01*
X453824Y159099D02*
X453916D01*
X452464Y160459D02*
Y160459D01*
X453824Y161819D02*
X453916D01*
X439794Y148173D02*
X440231D01*
X439794Y150893D02*
X440231D01*
X441591Y152253D02*
Y155334D01*
X438434Y149533D02*
Y149533D01*
X441591Y144685D02*
Y146812D01*
X429134Y155512D02*
X429389Y155767D01*
X429191Y157888D02*
X429389Y157690D01*
X431114Y159811D02*
X431312Y159614D01*
X433236D02*
X434731Y161109D01*
X431312Y159614D02*
X431312Y159614D01*
X436604Y165623D02*
X436963Y165264D01*
X436963Y165264D02*
X436963Y165264D01*
X434680Y163700D02*
X435039Y163341D01*
X438886Y165264D02*
X441956Y168334D01*
X434784Y161162D02*
X435039Y161417D01*
X418364Y158872D02*
X418562Y158674D01*
X420288Y160796D02*
X420485Y160598D01*
X418307Y156496D02*
X418562Y156751D01*
X422409Y160598D02*
X424600Y162789D01*
X420485Y160598D02*
X420485Y160598D01*
X429003Y169340D02*
X430224Y168063D01*
X425114Y167502D02*
X425114Y167502D01*
X431016Y171171D02*
X431016Y171171D01*
X429003Y169340D02*
X429003Y169340D01*
X427037Y167459D02*
X428259Y166183D01*
X428259Y166183D02*
X428259Y166183D01*
X425072Y165579D02*
X425072Y165579D01*
X425114Y167502D02*
X425114Y167502D01*
X432961Y171150D02*
X435693Y173882D01*
X425072Y165579D02*
X425285Y165355D01*
X430969Y171220D02*
X430969Y171220D01*
X424988Y163177D02*
X425264Y163453D01*
X425114Y167502D02*
X425114D01*
X430969Y171220D02*
X431016Y171171D01*
X430224Y168063D02*
X430224Y168063D01*
X427037Y167459D02*
X427037Y167459D01*
X455276Y166260D02*
Y205726D01*
Y138735D02*
Y155289D01*
X441591Y155334D02*
Y159111D01*
Y138735D02*
Y144685D01*
Y159111D02*
X447835Y165354D01*
X434731Y161109D02*
X434784Y161162D01*
X427905Y154283D02*
X429134Y155512D01*
X441956Y168334D02*
X443898Y170276D01*
X414220Y152409D02*
X418307Y156496D01*
X424600Y162789D02*
X424988Y163177D01*
X435693Y173882D02*
X439961Y178150D01*
Y199327D01*
X431079Y190401D02*
X432695D01*
X431079Y187681D02*
X434245D01*
X429718Y183600D02*
Y183600D01*
X435605Y186321D02*
Y186321D01*
X431079Y182240D02*
X432695D01*
X431079Y184960D02*
X434245D01*
X434055Y180520D02*
Y180880D01*
Y191762D02*
Y193898D01*
X429718Y189041D02*
Y189041D01*
X434055Y179827D02*
Y180520D01*
X407390Y152468D02*
X433565Y178644D01*
X434055Y193898D02*
Y197994D01*
X447609Y220631D02*
X462036Y206204D01*
Y138735D02*
Y206204D01*
X443990Y217012D02*
X455276Y205726D01*
X440371Y213393D02*
X447835Y205929D01*
Y165354D02*
Y205929D01*
X443898Y170276D02*
Y202628D01*
X427905Y138735D02*
Y154283D01*
X436752Y209774D02*
X443898Y202628D01*
X433133Y206154D02*
X439961Y199327D01*
X414220Y138735D02*
Y152409D01*
X407390Y138735D02*
Y152468D01*
X429514Y202536D02*
X434055Y197994D01*
D95*
X165011Y142002D02*
X164013Y141937D01*
X163033Y141742D01*
X162086Y141421D01*
X161189Y140979D01*
X160358Y140423D01*
X159606Y139764D01*
X168817Y140929D02*
X168055Y141512D01*
X167169Y141878D01*
X166218Y142002D01*
X73947Y193312D02*
X73819Y193001D01*
X73175Y166492D02*
X73524Y165776D01*
X74063Y165191D01*
X74063D02*
X74779Y164394D01*
X71850Y171465D02*
X71895Y170519D01*
X72029Y169582D01*
X72251Y168662D01*
X72559Y167767D01*
X72805Y167202D02*
X73175Y166492D01*
X166017Y143431D02*
X167093Y143645D01*
X168005Y144254D01*
X159606Y145669D02*
X160358Y145010D01*
X161189Y144455D01*
X162086Y144012D01*
X163033Y143691D01*
X164013Y143496D01*
X165011Y143431D01*
X71850Y186489D02*
X71816Y187418D01*
X71712Y188342D01*
X71539Y189256D01*
X71298Y190155D01*
X70992Y191033D01*
X70620Y191885D01*
X73819Y172075D02*
X73901Y171025D01*
X74147Y170000D01*
X74550Y169026D01*
X75100Y168128D01*
X75784Y167326D01*
X168824Y140923D02*
X168817Y140929D01*
X72559Y167767D02*
X72805Y167202D01*
X75784Y167326D02*
X75787Y167323D01*
X141339Y140236D02*
X142479Y139764D01*
X152340Y145236D02*
X153386Y145669D01*
X71257Y195781D02*
X70457Y194905D01*
X70167Y193756D01*
X70167D02*
X70272Y192825D01*
X70581Y191941D01*
X73948Y193313D02*
X73947Y193312D01*
X236689Y225705D02*
X236037Y224961D01*
X235487Y224137D01*
X235050Y223249D01*
X234732Y222311D01*
X234539Y221340D01*
X234474Y220353D01*
X236692Y225708D02*
X236689Y225705D01*
X234007Y210311D02*
X234050Y210206D01*
X234241Y216727D02*
X234007Y216163D01*
X234050Y209022D02*
X234277Y208474D01*
X233046Y220944D02*
X232970Y221905D01*
X232745Y222843D01*
X232376Y223734D01*
X231872Y224556D01*
X231246Y225290D01*
X232536Y210206D02*
X232579Y210311D01*
X232812Y217318D02*
X232579Y216755D01*
X231926Y234052D02*
X232591Y235047D01*
X232824Y236221D01*
X231925Y234051D02*
X231926Y234052D01*
X235204Y243129D02*
X234503Y242330D01*
X233912Y241446D01*
X233442Y240493D01*
X233101Y239486D01*
X232893Y238444D01*
X232824Y237383D01*
X241462Y246063D02*
X240414Y245994D01*
X239385Y245790D01*
X238391Y245452D01*
X237449Y244988D01*
X236577Y244405D01*
X235787Y243713D01*
X326059Y262298D02*
X326379Y262061D01*
X325282Y263003D02*
X326059Y262298D01*
X327384Y261236D02*
X326379Y262061D01*
X278287Y246063D02*
X279267Y246111D01*
X280238Y246255D01*
X281190Y246494D01*
X282114Y246824D01*
X283001Y247244D01*
X283843Y247748D01*
X284631Y248333D01*
X285358Y248992D01*
X304095Y263003D02*
X303101Y262960D01*
X302114Y262830D01*
X301142Y262615D01*
X300193Y262315D01*
X299274Y261934D01*
X298391Y261475D01*
X297551Y260940D01*
X296762Y260334D01*
X296028Y259662D01*
X234252Y236221D02*
X234404Y235457D01*
X234837Y234809D01*
X236221Y242126D02*
X235536Y241324D01*
X234984Y240425D01*
X234581Y239451D01*
X234335Y238425D01*
X234252Y237374D01*
X241467Y244635D02*
X240433Y244553D01*
X239425Y244311D01*
X238467Y243915D01*
X237582Y243373D01*
X236793Y242699D01*
X320746Y260636D02*
X320083Y261146D01*
X319309Y261466D01*
X318480Y261575D01*
X304103D02*
X303123Y261527D01*
X302152Y261383D01*
X301200Y261145D01*
X300276Y260814D01*
X299389Y260394D01*
X298548Y259890D01*
X297759Y259305D01*
X297032Y258646D01*
X278295Y244635D02*
X279289Y244678D01*
X280276Y244808D01*
X281248Y245024D01*
X282197Y245323D01*
X283117Y245704D01*
X283999Y246163D01*
X284839Y246698D01*
X285628Y247304D01*
X286362Y247976D01*
X232812Y217318D02*
X233046Y217882D01*
X232309Y208474D02*
X232536Y209022D01*
X234241Y216727D02*
X234474Y217290D01*
X74779Y164394D02*
X75787Y163386D01*
X165011Y142002D02*
X166218D01*
X73819Y184961D02*
Y193001D01*
X71850Y171465D02*
Y178150D01*
X165011Y143431D02*
X166017D01*
X71850Y184961D02*
Y186489D01*
X73819Y172075D02*
Y178150D01*
X168005Y144254D02*
X168824Y145073D01*
X142479Y139764D02*
X153386D01*
X141339Y145236D02*
X152340D01*
X230315Y222441D02*
Y226220D01*
X237205Y222441D02*
Y226220D01*
X234050Y209022D02*
Y210206D01*
X234007Y210311D02*
Y216163D01*
X234474Y217290D02*
Y220353D01*
X229936Y197054D02*
Y197372D01*
X230315Y226220D02*
X231246Y225290D01*
X232536Y209022D02*
Y210206D01*
X232579Y210311D02*
Y216755D01*
X233046Y217882D02*
Y220944D01*
X236692Y225708D02*
X237205Y226220D01*
X231925Y234051D02*
X231926Y234052D01*
X230315Y232441D02*
X231925Y234051D01*
X232824Y236221D02*
Y237383D01*
X241462Y246063D02*
X278287D01*
X325282Y263003D02*
X325282D01*
X304095D02*
X325282D01*
X326379Y262061D02*
X326379Y262061D01*
X327384Y261236D02*
X328459Y260162D01*
X285358Y248992D02*
X296028Y259662D01*
X234837Y234809D02*
X237205Y232441D01*
X234252Y236221D02*
Y237374D01*
X236221Y242126D02*
X236793Y242699D01*
X241467Y244635D02*
X278295D01*
X304103Y261575D02*
X318480D01*
X320746Y260636D02*
X324840Y256543D01*
X286362Y247976D02*
X297032Y258646D01*
X235204Y243129D02*
X235787Y243713D01*
X233460Y197019D02*
Y197568D01*
X234277Y198385D02*
Y201663D01*
X233460Y197568D02*
X234277Y198385D01*
X229936Y197372D02*
X232082Y199518D01*
X229704Y197054D02*
X229936D01*
X232082Y199518D02*
Y201437D01*
X232309Y201663D01*
D96*
X457770Y289146D02*
X457956Y288696D01*
X82284Y173091D02*
X82868Y173803D01*
X83303Y174617D01*
X83571Y175499D01*
X83661Y176417D01*
Y186693D02*
X83571Y187611D01*
X83303Y188493D01*
X82868Y189307D01*
X82284Y190020D01*
X62008Y176417D02*
X62098Y175499D01*
X62366Y174617D01*
X62801Y173803D01*
X63386Y173091D01*
Y190020D02*
X62801Y189307D01*
X62366Y188493D01*
X62098Y187611D01*
X62008Y186693D01*
X475339Y297656D02*
X475862Y297873D01*
X459487Y321250D02*
X459646Y320866D01*
X335510Y134179D02*
X334870Y133429D01*
X334355Y132589D01*
X333978Y131679D01*
X333748Y130721D01*
X333671Y129738D01*
X449803Y289370D02*
X450338Y290662D01*
X449803Y320866D02*
X450338Y322158D01*
X355287Y109578D02*
X356276Y109628D01*
X357256Y109762D01*
X358221Y109981D01*
X359163Y110283D01*
X360076Y110665D01*
X360952Y111124D01*
X361785Y111657D01*
X362569Y112260D01*
X363299Y112929D01*
X363299Y112929D02*
X363972Y113663D01*
X364582Y114451D01*
X365123Y115287D01*
X365591Y116166D01*
X365984Y117082D01*
X366297Y118027D01*
X366530Y118996D01*
X366681Y119980D01*
X366748Y120974D01*
X366731Y121970D01*
X222466Y197982D02*
X223844Y196604D01*
X222466Y197982D02*
Y201663D01*
Y212156D02*
X223844Y213533D01*
X222466Y208474D02*
Y212156D01*
X459487Y290862D02*
Y291755D01*
X457770Y289146D02*
X459487Y290862D01*
X283465Y43307D02*
X287646D01*
X289370Y45031D01*
X261811Y42323D02*
X263779Y44291D01*
X258858Y42323D02*
X261811D01*
X289370Y40019D02*
Y45031D01*
X289311Y39961D02*
X289370Y40019D01*
X263779Y39961D02*
Y44291D01*
X107283Y110630D02*
X112795D01*
X83661Y176417D02*
Y178150D01*
Y184961D02*
Y186693D01*
X62008Y176417D02*
Y178150D01*
Y184961D02*
Y186693D01*
X372604Y47801D02*
X382663Y57860D01*
Y121972D01*
X327225Y47801D02*
X372604D01*
X372592Y180412D02*
X372723Y180543D01*
Y186110D01*
X230315Y21654D02*
Y30354D01*
X230315Y21654D02*
X230315Y21654D01*
X222441Y21654D02*
X223425Y20669D01*
X230340Y208474D02*
Y215526D01*
X223425Y222441D02*
X230340Y215526D01*
X223425Y222441D02*
Y226063D01*
X238726Y190816D02*
X255458D01*
X256443Y191800D01*
X258411Y193769D02*
Y201485D01*
X256443Y191800D02*
X256443D01*
X258411Y193769D01*
X236246Y198303D02*
Y201663D01*
Y195734D02*
X236338Y195827D01*
X236246Y193296D02*
Y195734D01*
Y193296D02*
X238726Y190816D01*
X236338Y195827D02*
Y198211D01*
X236246Y198303D02*
X236338Y198211D01*
X468774Y297656D02*
X475339D01*
X314961Y39961D02*
X315730Y40730D01*
X314961Y39961D02*
X319385D01*
X327225Y47801D01*
X341392Y182087D02*
X345555Y186250D01*
X346137D01*
X339567Y182087D02*
X341392D01*
X350512Y109222D02*
Y113307D01*
X351976Y114771D01*
X353720D01*
X354056Y115107D01*
X230677Y49138D02*
X266657D01*
X227362Y39528D02*
Y45823D01*
X230677Y49138D01*
X227362Y39528D02*
X230315Y36575D01*
X225394Y39528D02*
Y46260D01*
X222441Y36575D02*
X225394Y39528D01*
Y46260D02*
X226378Y47244D01*
X229972Y50839D02*
X265953D01*
X226378Y47244D02*
X229972Y50839D01*
X459487Y321250D02*
Y323425D01*
X333671Y128822D02*
Y129738D01*
X278811Y63697D02*
Y179739D01*
X266657Y49138D02*
X280512Y62992D01*
Y178150D01*
X265953Y50839D02*
X278811Y63697D01*
X297244Y39961D02*
Y47244D01*
X292323Y52165D02*
X297244Y47244D01*
X274606Y98425D02*
Y225394D01*
X278811Y179739D02*
X306808Y207736D01*
X280512Y178150D02*
X308071Y205709D01*
X257953Y229331D02*
X277559D01*
X306102Y257874D02*
X316271D01*
X277559Y229331D02*
X306102Y257874D01*
X291339Y261811D02*
X296260Y266732D01*
X312992D01*
X322835Y276575D02*
X322835D01*
X312992Y266732D02*
X322835Y276575D01*
X331693Y285433D02*
X340551D01*
X322835Y276575D02*
X331693Y285433D01*
X340551D02*
X348425Y293307D01*
X338583Y290354D02*
Y294488D01*
X353219Y293307D02*
X357411Y289114D01*
X357411D01*
X348425Y293307D02*
X353219D01*
X382663Y137584D02*
X399606Y154528D01*
X393323Y166345D02*
X399606Y160062D01*
Y154528D02*
Y160062D01*
X342706Y178948D02*
X342809D01*
X344125Y180264D01*
X315637Y183379D02*
X320558Y188300D01*
X308071Y205709D02*
X319004D01*
X322651Y209356D01*
X323030D01*
X315610Y209756D02*
X318830Y212975D01*
X313530Y207736D02*
X315550Y209756D01*
X318830Y212975D02*
X319411D01*
X306808Y207736D02*
X313530D01*
X315550Y209756D02*
X315610D01*
X74761Y228150D02*
X82677D01*
X331061Y162710D02*
X331385D01*
X331017D02*
X331061D01*
X370003Y121972D02*
X372047Y124016D01*
X366754Y121972D02*
X370003D01*
X366535Y128410D02*
Y132283D01*
Y128410D02*
X366754Y128192D01*
X301010Y172014D02*
X301112D01*
X304622Y168504D01*
X304724D01*
X316271Y257874D02*
X321221Y252924D01*
X238214Y217863D02*
X239839Y219488D01*
X244094D01*
X247047Y222441D01*
Y228425D01*
X247953Y229331D01*
X242742Y213071D02*
Y213533D01*
Y213071D02*
X244120Y211693D01*
X238214Y208474D02*
Y217863D01*
X244120Y208474D02*
Y211693D01*
X228372Y201663D02*
Y205069D01*
X238214Y201663D02*
Y205069D01*
Y208474D01*
X228372Y205069D02*
Y208474D01*
Y205069D02*
X238214D01*
X242742Y197067D02*
X244120Y198445D01*
Y201663D01*
X242742Y196604D02*
Y197067D01*
X407382Y110531D02*
Y117224D01*
X401181Y123425D02*
X407382Y117224D01*
X450338Y290662D02*
Y291755D01*
Y322158D02*
Y323425D01*
X400562Y138735D02*
X400591Y138764D01*
Y142717D01*
X367155Y178188D02*
Y180543D01*
X368026Y176704D02*
Y177179D01*
X367155Y178188D02*
X367323Y178020D01*
Y177883D02*
Y178020D01*
Y177883D02*
X368026Y177179D01*
X356299Y185994D02*
X356416Y186110D01*
X361587D01*
X461740Y256528D02*
X462069Y256199D01*
X459843Y256528D02*
X461740D01*
X455543Y252228D02*
X459843Y256528D01*
X382519Y300197D02*
X382874D01*
X375507Y307209D02*
X382519Y300197D01*
X330709Y289370D02*
Y294488D01*
X322835Y289370D02*
Y294488D01*
X314961Y289370D02*
Y294488D01*
X307087Y289370D02*
Y294488D01*
X299213Y289370D02*
Y294488D01*
X322835Y320669D02*
Y326772D01*
X330709Y320669D02*
Y326772D01*
X299213Y320669D02*
Y325787D01*
X307087Y320669D02*
Y325787D01*
X314961Y320669D02*
Y325787D01*
X298228Y326772D02*
X299213Y325787D01*
X306102Y326772D02*
X307087Y325787D01*
X313976Y326772D02*
X314961Y325787D01*
X321850Y327756D02*
X322835Y326772D01*
X329724Y327756D02*
X330709Y326772D01*
X338583Y320669D02*
Y325787D01*
X337598Y326772D02*
X338583Y325787D01*
X382663Y128192D02*
Y137584D01*
X331693Y271427D02*
X335697Y267423D01*
Y267400D02*
Y267423D01*
X331693Y271427D02*
Y275590D01*
X327756Y268103D02*
Y271654D01*
Y268103D02*
X332078Y263781D01*
Y263781D02*
Y263781D01*
X451956Y255847D02*
X456480Y260372D01*
X458663D01*
X458998Y260037D01*
X451924Y255847D02*
X451956D01*
X463327Y252773D02*
X465151D01*
X465254Y252876D01*
X459162Y248609D02*
X463327Y252773D01*
X459162Y248609D02*
X459162D01*
X455543Y252228D02*
X455543D01*
X400562Y173583D02*
X404528Y169617D01*
Y165354D02*
Y169617D01*
X404181Y177202D02*
X409113Y172270D01*
Y170612D02*
Y172270D01*
Y170612D02*
X409449Y170276D01*
X445268Y263085D02*
X449449Y267266D01*
X462781Y244990D02*
Y245041D01*
X466950Y249210D01*
X468955D01*
X448887Y259466D02*
X452865Y263444D01*
X454388D02*
X454724Y263779D01*
X452865Y263444D02*
X454388D01*
X444686Y263085D02*
X445268D01*
X448305Y259466D02*
X448887D01*
X368110Y314606D02*
Y318898D01*
Y314606D02*
X375507Y307209D01*
X326096Y167631D02*
Y167999D01*
X334646Y186024D02*
Y189235D01*
X338898Y193488D02*
Y193488D01*
X334646Y189235D02*
X338898Y193488D01*
X350597Y176234D02*
X353375Y179012D01*
X347969Y176234D02*
X350597D01*
X346932Y175197D02*
X347969Y176234D01*
X346457Y175197D02*
X346932D01*
X344125Y180264D02*
X347389D01*
X349756Y182631D01*
X352931Y171329D02*
X356994Y175393D01*
X350463Y171329D02*
X352931D01*
X418307Y166339D02*
Y177552D01*
X411419Y184440D02*
X418307Y177552D01*
X395669Y143701D02*
X418307Y166339D01*
X395669Y128937D02*
Y143701D01*
Y128937D02*
X401181Y123425D01*
X468856Y142717D02*
Y142787D01*
Y138741D02*
Y142717D01*
X448636D02*
Y142825D01*
Y138910D02*
Y142717D01*
X421146Y138735D02*
X421260Y138849D01*
Y142717D01*
X435039Y138943D02*
Y142717D01*
X434831Y138735D02*
X435039Y138943D01*
X448461Y138735D02*
X448636Y138910D01*
X468851Y138735D02*
X468856Y138741D01*
X346858Y128822D02*
Y134443D01*
X354213Y109213D02*
X355287Y109578D01*
D97*
X160002Y157644D02*
X159606Y157480D01*
X327115Y158866D02*
X327120Y158872D01*
Y158872D02*
X327115Y158866D01*
X323287Y157284D02*
X324342Y157387D01*
X325358Y157695D01*
X326294Y158194D01*
X327115Y158866D01*
X327115D02*
X326463Y158070D01*
X325979Y157162D01*
X325680Y156177D01*
X325580Y155153D01*
X407985Y62474D02*
X411331D01*
X412854Y63998D01*
Y69193D01*
X345472Y109222D02*
Y113517D01*
X341768Y103100D02*
X342493D01*
X345472Y106079D02*
Y109222D01*
X342493Y103100D02*
X345472Y106079D01*
X121260Y290354D02*
Y292028D01*
X121063Y272638D02*
Y290158D01*
X121260Y290354D01*
X137795Y298031D02*
Y302165D01*
X134390Y150157D02*
X148189D01*
X149606Y151575D01*
X153386D01*
X153386Y151575D02*
Y157480D01*
X160002Y157644D02*
X165281D01*
X141535Y85433D02*
X151575D01*
X141339Y85236D02*
X141535Y85433D01*
X122835Y270866D02*
X131890D01*
X121063Y272638D02*
X122835Y270866D01*
X242284Y264764D02*
X242303Y264784D01*
Y277346D01*
X242323Y277365D01*
X135984Y233110D02*
X140748Y228346D01*
X135984Y233110D02*
Y238189D01*
X140748Y212008D02*
Y228346D01*
X171063Y207677D02*
X171457Y208071D01*
X121063Y238189D02*
X129764D01*
X121063D02*
Y254921D01*
X123622Y257480D02*
X131890D01*
X121063Y254921D02*
X123622Y257480D01*
X261811Y257716D02*
X261811Y257716D01*
X269685D02*
X269685Y257716D01*
X261811Y257716D02*
X269685D01*
X261811Y263937D02*
X261811Y263937D01*
X262106Y264232D01*
X256890Y263937D02*
X261811D01*
X256890Y263937D02*
X256890Y263937D01*
X255906Y263937D02*
X256890D01*
X262402Y264331D02*
Y277365D01*
Y264331D02*
X262795Y263937D01*
X327120Y158872D02*
X331017Y162768D01*
X322781Y157284D02*
X323287D01*
X147638Y299016D02*
Y302165D01*
X236063Y264764D02*
X236142Y264685D01*
X235846Y264980D02*
X236063Y264764D01*
X236142Y258937D02*
Y264685D01*
Y258937D02*
X236221Y258858D01*
X235630Y277365D02*
X235846Y277149D01*
Y264980D02*
Y277149D01*
X269685Y263937D02*
Y291339D01*
X270669Y292323D01*
X320098Y128192D02*
Y132658D01*
X319882Y132874D02*
X320098Y132658D01*
X313563Y121342D02*
X317628Y117277D01*
X319731D02*
X319882Y117126D01*
X313366Y121342D02*
X313563D01*
X317628Y117277D02*
X319731D01*
D98*
X91201Y264173D02*
D03*
D99*
X31496Y113425D02*
X31728D01*
X36413Y118110D02*
X41289D01*
X31728Y113425D02*
X36413Y118110D01*
X177165Y173228D02*
X180354Y176417D01*
X127953Y173228D02*
X177165D01*
X109390Y154665D02*
X127953Y173228D01*
X64528Y145236D02*
X67251D01*
X67265Y145222D01*
X49213Y129921D02*
X64528Y145236D01*
X67265Y145222D02*
X67279Y145236D01*
X72441D01*
X151600Y64314D02*
X157480Y58434D01*
Y42520D02*
Y58434D01*
X38386Y129921D02*
X49213D01*
X104331Y155512D02*
X104390Y155453D01*
Y150157D02*
Y155453D01*
X180354Y176417D02*
X185039D01*
X109390Y150157D02*
Y154665D01*
X179134Y171260D02*
X191929D01*
X114390Y154744D02*
X128937Y169291D01*
X177165D02*
X179134Y171260D01*
X128937Y169291D02*
X177165D01*
X196850Y176181D02*
Y176417D01*
X191929Y171260D02*
X196850Y176181D01*
X114390Y150157D02*
Y154744D01*
X130000Y166417D02*
X185039D01*
X119390Y155807D02*
X130000Y166417D01*
X128937Y161417D02*
X191850D01*
X124390Y156870D02*
X128937Y161417D01*
X124390Y150157D02*
Y156870D01*
X119390Y150157D02*
Y155807D01*
X191850Y161417D02*
X196850Y166417D01*
X99390Y150157D02*
X99410Y150177D01*
Y155512D01*
X96457Y158465D02*
X99410Y155512D01*
X65945Y158465D02*
X96457D01*
X141339Y100236D02*
X163846D01*
X180657Y83425D01*
X185039D01*
X141339Y105236D02*
X164066D01*
X180795Y88507D02*
X191769D01*
X164066Y105236D02*
X180795Y88507D01*
X180638Y93425D02*
X185039D01*
X141339Y110236D02*
X163827D01*
X180638Y93425D01*
X164161Y115236D02*
X180972Y98425D01*
X141339Y115236D02*
X164161D01*
X180972Y98425D02*
X191850D01*
X141339Y120236D02*
X163521D01*
X180332Y103425D02*
X185039D01*
X163521Y120236D02*
X180332Y103425D01*
X141339Y125236D02*
X163626D01*
X180696Y108165D02*
X183076D01*
X163626Y125236D02*
X180696Y108165D01*
X141339Y130236D02*
X163386D01*
X180096Y113527D01*
X184938D01*
X141339Y135236D02*
X163147D01*
X191931Y118345D02*
X196850Y113425D01*
X163147Y135236D02*
X180039Y118345D01*
X191931D01*
X190063Y108165D02*
X193898Y104331D01*
X183076Y108165D02*
X190063D01*
X193898Y104331D02*
X195945D01*
X196850Y103425D01*
X191850Y98425D02*
X196850Y93425D01*
X191769Y88507D02*
X196850Y83425D01*
X151339Y95236D02*
X151575Y95472D01*
X141339Y95236D02*
X151339D01*
X146653Y36575D02*
Y41339D01*
X146653Y21654D02*
X146653Y21654D01*
Y30354D01*
X141339Y90236D02*
X159764D01*
X162402Y87598D01*
X43307Y136417D02*
X48100D01*
X50824Y139141D01*
X31496Y136417D02*
X36496Y141417D01*
X48897D01*
X65945Y158465D01*
X67195Y155512D02*
X93504D01*
X50824Y139141D02*
X67195Y155512D01*
X41289Y118110D02*
X41344Y118165D01*
X45270D01*
X45326Y118110D01*
X48228D01*
X50354Y120236D02*
X72441D01*
X48228Y118110D02*
X50354Y120236D01*
X49803Y115236D02*
X72441D01*
X43307Y113425D02*
X47992D01*
X49803Y115236D01*
X37402Y108268D02*
X48228D01*
X50197Y110236D01*
X72441D01*
X32559Y103425D02*
X37402Y108268D01*
X50039Y105315D02*
X72362D01*
X43307Y103425D02*
X48150D01*
X50039Y105315D01*
X49803Y85236D02*
X72441D01*
X47992Y83425D02*
X49803Y85236D01*
X43307Y83425D02*
X47992D01*
X48134Y88488D02*
X49882Y90236D01*
X72441D01*
X36559Y88488D02*
X48134D01*
X48150Y93425D02*
X49961Y95236D01*
X43307Y93425D02*
X48150D01*
X49961Y95236D02*
X72441D01*
X36496Y98425D02*
X48228D01*
X50197Y100394D02*
X72284D01*
X48228Y98425D02*
X50197Y100394D01*
X94390Y150157D02*
X94488Y150256D01*
Y154528D01*
X93504Y155512D02*
X94488Y154528D01*
X31890Y123425D02*
X38386Y129921D01*
X31496Y123425D02*
X31890D01*
X50433Y125236D02*
X72441D01*
X48622Y123425D02*
X50433Y125236D01*
X43307Y123425D02*
X48622D01*
X31496Y103425D02*
X32559D01*
X72362Y105315D02*
X72441Y105236D01*
X72284Y100394D02*
X72441Y100236D01*
X31496Y93425D02*
X36496Y98425D01*
X31496Y83425D02*
X36559Y88488D01*
D100*
X184055Y42520D02*
Y51968D01*
X185039Y73425D02*
X190118Y68346D01*
Y59055D02*
Y68346D01*
X183936Y51131D02*
Y57960D01*
X183898Y62984D02*
X184017Y63103D01*
X183898Y59055D02*
Y62984D01*
X155709Y85433D02*
X167717Y73425D01*
X151575Y85433D02*
X155709D01*
X167717Y73425D02*
X185039D01*
X87835Y18701D02*
Y29528D01*
X47835Y18701D02*
Y29528D01*
X57835Y18701D02*
Y29528D01*
X67835Y18701D02*
Y29528D01*
X77835Y18701D02*
Y29528D01*
X97835Y18701D02*
Y29528D01*
X310950Y189931D02*
X315897Y194878D01*
Y194913D01*
X310950Y189896D02*
Y189931D01*
X326614Y205701D02*
X326614D01*
X315897Y194913D02*
X324283Y203299D01*
Y203371D01*
X326614Y205701D01*
D101*
X91201Y264173D02*
X131890D01*
X288386Y175197D02*
X292092Y178903D01*
X331061Y162710D02*
X334936Y166585D01*
X482941Y291658D02*
X488854D01*
X490158Y290354D01*
X482935Y291652D02*
X482941Y291658D01*
X475862Y291652D02*
X482935D01*
X322835Y164370D02*
X326096Y167631D01*
D102*
X471280Y156339D02*
X472421Y157480D01*
X470276Y156339D02*
X471280D01*
X472421Y157480D02*
X473425D01*
X467520D02*
X469134D01*
X470276Y156339D01*
D103*
X210630Y295197D02*
D03*
X257953Y229331D02*
D03*
X182165Y211614D02*
D03*
X164370Y293228D02*
D03*
X94488Y228346D02*
D03*
Y208661D02*
D03*
X149606Y250000D02*
D03*
Y269685D02*
D03*
X31496Y136417D02*
D03*
Y146417D02*
D03*
Y156417D02*
D03*
Y166417D02*
D03*
Y176417D02*
D03*
X43307Y136417D02*
D03*
Y146417D02*
D03*
Y156417D02*
D03*
Y166417D02*
D03*
Y176417D02*
D03*
X185039Y136417D02*
D03*
Y146417D02*
D03*
Y156417D02*
D03*
Y166417D02*
D03*
Y176417D02*
D03*
X196850Y136417D02*
D03*
Y146417D02*
D03*
Y156417D02*
D03*
Y166417D02*
D03*
Y176417D02*
D03*
X31496Y73425D02*
D03*
Y83425D02*
D03*
Y93425D02*
D03*
Y103425D02*
D03*
Y113425D02*
D03*
X43307Y73425D02*
D03*
Y83425D02*
D03*
Y93425D02*
D03*
Y103425D02*
D03*
Y113425D02*
D03*
X185039Y73425D02*
D03*
Y83425D02*
D03*
Y93425D02*
D03*
Y103425D02*
D03*
Y113425D02*
D03*
X196850Y73425D02*
D03*
Y83425D02*
D03*
Y93425D02*
D03*
Y103425D02*
D03*
Y113425D02*
D03*
D104*
X247953Y229331D02*
D03*
X172165Y211614D02*
D03*
D105*
X87598Y181555D02*
D03*
X218529Y205069D02*
D03*
D106*
X82284Y173091D02*
D03*
X63386D02*
D03*
X82284Y190020D02*
D03*
X63386D02*
D03*
X223844Y213533D02*
D03*
X242742D02*
D03*
X223844Y196604D02*
D03*
X242742D02*
D03*
D107*
X227362Y157992D02*
D03*
D108*
X237362D02*
D03*
X227362Y147992D02*
D03*
X237362D02*
D03*
X227362Y137992D02*
D03*
X237362D02*
D03*
X227362Y127992D02*
D03*
X237362D02*
D03*
X227362Y117992D02*
D03*
X237362D02*
D03*
X227362Y107992D02*
D03*
X237362D02*
D03*
X227362Y97992D02*
D03*
X237362D02*
D03*
X227362Y87992D02*
D03*
X237362D02*
D03*
X227362Y77992D02*
D03*
X237362D02*
D03*
X227362Y67992D02*
D03*
X237362D02*
D03*
D109*
X53740Y314961D02*
D03*
X116732D02*
D03*
X53740Y326772D02*
D03*
X47835Y29528D02*
D03*
X116732Y326772D02*
D03*
D110*
X63740Y314961D02*
D03*
X73740D02*
D03*
X83740D02*
D03*
X93740D02*
D03*
X103740D02*
D03*
X126732D02*
D03*
X136732D02*
D03*
X146732D02*
D03*
X156732D02*
D03*
X166732D02*
D03*
X63740Y326772D02*
D03*
X73740D02*
D03*
X83740D02*
D03*
X93740D02*
D03*
X103740D02*
D03*
X57835Y29528D02*
D03*
X67835D02*
D03*
X77835D02*
D03*
X87835D02*
D03*
X97835D02*
D03*
X523622Y133110D02*
D03*
Y123110D02*
D03*
Y113110D02*
D03*
Y103110D02*
D03*
Y93110D02*
D03*
X511811Y239409D02*
D03*
Y229410D02*
D03*
Y219409D02*
D03*
Y209409D02*
D03*
Y199409D02*
D03*
X523622Y239409D02*
D03*
Y229410D02*
D03*
Y219409D02*
D03*
Y209409D02*
D03*
Y199409D02*
D03*
X126732Y326772D02*
D03*
X136732D02*
D03*
X146732D02*
D03*
X156732D02*
D03*
X166732D02*
D03*
X511811Y133110D02*
D03*
Y123110D02*
D03*
Y113110D02*
D03*
Y103110D02*
D03*
Y93110D02*
D03*
D111*
X523622Y143110D02*
D03*
X511811Y249410D02*
D03*
X523622D02*
D03*
X511811Y143110D02*
D03*
D112*
X437474Y316979D02*
D03*
X440004Y318590D02*
D03*
X461410Y330587D02*
D03*
X422457Y302312D02*
D03*
X404622Y290293D02*
D03*
X402904Y292752D02*
D03*
X426699Y306555D02*
D03*
X442727Y319848D02*
D03*
X419567Y312363D02*
D03*
X432613Y324738D02*
D03*
X407335Y289012D02*
D03*
X435182Y315043D02*
D03*
X458412Y330500D02*
D03*
X425931Y318727D02*
D03*
X415324Y308120D02*
D03*
X446453Y330138D02*
D03*
X430247Y322893D02*
D03*
X423810Y316606D02*
D03*
X424578Y304433D02*
D03*
X443500Y329610D02*
D03*
X413203Y305999D02*
D03*
X463279Y319820D02*
D03*
X428052Y320848D02*
D03*
X433063Y312918D02*
D03*
X449429Y330521D02*
D03*
X435144Y326348D02*
D03*
X421688Y314484D02*
D03*
X440609Y328808D02*
D03*
X417446Y310242D02*
D03*
X430942Y310797D02*
D03*
X420335Y300191D02*
D03*
X466274Y319634D02*
D03*
X454559Y320854D02*
D03*
X452423Y330700D02*
D03*
X428821Y308676D02*
D03*
X457559Y320912D02*
D03*
X437818Y327709D02*
D03*
X455423Y330758D02*
D03*
X445598Y320721D02*
D03*
X464111Y331894D02*
D03*
X454572Y299059D02*
D03*
X451578Y298868D02*
D03*
X448582Y298716D02*
D03*
X445601Y298379D02*
D03*
X442655Y297811D02*
D03*
X439782Y296946D02*
D03*
X437022Y295770D02*
D03*
X434385Y294340D02*
D03*
X431923Y292626D02*
D03*
X429649Y290669D02*
D03*
X418585Y277639D02*
D03*
X419920Y274952D02*
D03*
X422444Y273331D02*
D03*
X435653Y283776D02*
D03*
X437957Y285699D02*
D03*
X440506Y287280D02*
D03*
X443259Y288472D02*
D03*
X446169Y289203D02*
D03*
X452156Y289250D02*
D03*
X455156Y289192D02*
D03*
X458697Y285863D02*
D03*
X459661Y283022D02*
D03*
X460989Y280331D02*
D03*
X462779Y277924D02*
D03*
X464930Y275833D02*
D03*
X466743Y273443D02*
D03*
X469111Y271602D02*
D03*
X472105Y271405D02*
D03*
X472570Y283713D02*
D03*
X470336Y285715D02*
D03*
X463894Y298795D02*
D03*
X460894Y298785D02*
D03*
X457899Y298958D02*
D03*
D113*
X168824Y140923D02*
D03*
Y145073D02*
D03*
X430169Y62201D02*
D03*
Y58264D02*
D03*
X137795Y302165D02*
D03*
X124016Y186024D02*
D03*
X112205D02*
D03*
Y189961D02*
D03*
Y193898D02*
D03*
X116142D02*
D03*
Y189961D02*
D03*
Y186024D02*
D03*
X120079D02*
D03*
Y189961D02*
D03*
Y193898D02*
D03*
X124016D02*
D03*
Y189961D02*
D03*
X156496Y188976D02*
D03*
Y194882D02*
D03*
X160433Y183071D02*
D03*
Y188976D02*
D03*
Y194882D02*
D03*
X168307D02*
D03*
X164370D02*
D03*
X168307Y183071D02*
D03*
X172244Y188976D02*
D03*
Y183071D02*
D03*
X168307Y188976D02*
D03*
X164370D02*
D03*
Y183071D02*
D03*
X172244Y194882D02*
D03*
X147638Y302165D02*
D03*
X204724Y323819D02*
D03*
Y319882D02*
D03*
Y315945D02*
D03*
X201772Y203740D02*
D03*
Y207677D02*
D03*
Y211614D02*
D03*
Y215551D02*
D03*
Y219488D02*
D03*
X197835Y203740D02*
D03*
Y207677D02*
D03*
Y211614D02*
D03*
Y215551D02*
D03*
Y219488D02*
D03*
X193898Y203740D02*
D03*
Y207677D02*
D03*
Y211614D02*
D03*
Y215551D02*
D03*
Y219488D02*
D03*
X189961Y203740D02*
D03*
Y207677D02*
D03*
Y211614D02*
D03*
Y215551D02*
D03*
Y219488D02*
D03*
X426388Y58264D02*
D03*
X422451Y58265D02*
D03*
X418514D02*
D03*
X426388Y62201D02*
D03*
X422451Y62202D02*
D03*
X418514D02*
D03*
X216535Y319882D02*
D03*
X210630Y323819D02*
D03*
X216535D02*
D03*
X210630Y319882D02*
D03*
Y315945D02*
D03*
X216535D02*
D03*
X285121Y307821D02*
D03*
D114*
X407985Y62474D02*
D03*
X215551Y185039D02*
D03*
X259748Y60064D02*
D03*
X268606D02*
D03*
X267717Y81693D02*
D03*
X254921D02*
D03*
X350471Y202998D02*
D03*
X341768Y103100D02*
D03*
X165354Y151575D02*
D03*
X151600Y64314D02*
D03*
X283465Y43307D02*
D03*
X258858Y42323D02*
D03*
X104331Y155512D02*
D03*
X165281Y157644D02*
D03*
X75787Y167323D02*
D03*
Y163386D02*
D03*
X184017Y63103D02*
D03*
X175197Y33465D02*
D03*
X201772D02*
D03*
X151575Y95472D02*
D03*
X146653Y41339D02*
D03*
X162402Y87598D02*
D03*
X372592Y180412D02*
D03*
X416339Y125000D02*
D03*
X434055Y103347D02*
D03*
X411417Y125000D02*
D03*
X430118Y100394D02*
D03*
X344684Y155774D02*
D03*
X349651Y160741D02*
D03*
X354331Y165354D02*
D03*
X345472Y113517D02*
D03*
X354056Y115107D02*
D03*
X71868Y196440D02*
D03*
X73948Y193313D02*
D03*
X230315Y222441D02*
D03*
X237205D02*
D03*
X304134Y105315D02*
D03*
X274606Y98425D02*
D03*
Y225394D02*
D03*
X291339Y261811D02*
D03*
X342706Y178948D02*
D03*
X300435Y192523D02*
D03*
X303388Y195476D02*
D03*
X306341Y198428D02*
D03*
X309294Y201381D02*
D03*
X303388Y189570D02*
D03*
X306341Y192523D02*
D03*
X309294Y195476D02*
D03*
X312246Y198428D02*
D03*
X327795Y173273D02*
D03*
X288386Y175197D02*
D03*
X292323Y52165D02*
D03*
X236221Y258858D02*
D03*
X372047Y124016D02*
D03*
X366535Y132283D02*
D03*
X233460Y197019D02*
D03*
X229704Y197054D02*
D03*
X304724Y168504D02*
D03*
X230315Y189961D02*
D03*
X225394D02*
D03*
X220472D02*
D03*
X215551D02*
D03*
X220472Y185039D02*
D03*
X490158Y290354D02*
D03*
X253937Y157480D02*
D03*
X400591Y142717D02*
D03*
X368026Y176704D02*
D03*
X356299Y185994D02*
D03*
X314173Y174803D02*
D03*
X293687Y172311D02*
D03*
X291929Y126969D02*
D03*
Y89173D02*
D03*
X291142Y113189D02*
D03*
X267126Y120276D02*
D03*
X254921Y119488D02*
D03*
X308846Y88879D02*
D03*
X248104Y112723D02*
D03*
X450873Y267443D02*
D03*
X462069Y256199D02*
D03*
X473425Y152559D02*
D03*
Y157480D02*
D03*
Y162402D02*
D03*
X467520D02*
D03*
Y157480D02*
D03*
Y152559D02*
D03*
X382874Y300197D02*
D03*
X500984Y198819D02*
D03*
Y202756D02*
D03*
Y206693D02*
D03*
Y210630D02*
D03*
X480315Y70866D02*
D03*
Y65945D02*
D03*
X474409D02*
D03*
X468504D02*
D03*
Y70866D02*
D03*
X480315Y75787D02*
D03*
X474409D02*
D03*
X468504D02*
D03*
X474409Y70866D02*
D03*
X304134Y132874D02*
D03*
X296260Y135827D02*
D03*
X334936Y166585D02*
D03*
X319882Y132874D02*
D03*
X331693Y275590D02*
D03*
X327756Y271654D02*
D03*
X458998Y260037D02*
D03*
X465254Y252876D02*
D03*
X404528Y165354D02*
D03*
X409449Y170276D02*
D03*
X468955Y249210D02*
D03*
X454724Y263779D02*
D03*
X322835Y164370D02*
D03*
X458661Y151575D02*
D03*
X335510Y134179D02*
D03*
X424213Y177165D02*
D03*
X411118Y149892D02*
D03*
X448819Y151575D02*
D03*
X435039D02*
D03*
X421260D02*
D03*
X346457Y175197D02*
D03*
X350394Y171260D02*
D03*
X319882Y117126D02*
D03*
X310039Y150591D02*
D03*
X313976Y154528D02*
D03*
X356151Y197115D02*
D03*
X367155Y186053D02*
D03*
X333661Y219488D02*
D03*
X344753Y208250D02*
D03*
X361443Y191955D02*
D03*
X448636Y142717D02*
D03*
X468856D02*
D03*
X421260D02*
D03*
X435039D02*
D03*
X346858Y134443D02*
D03*
M02*
