M48
;Layer_Color=9474304
;FILE_FORMAT=4:4
METRIC,LZ
;TYPE=PLATED
T03F00S00C0.6500
;TYPE=NON_PLATED
%
G90
G05
T03
G00X0048215Y0006225
M15
G01Y0006475
M16
G00X0052515Y0006225
M15
G01Y0006475
M16
G00X0052515Y0011025
M15
G01Y0011275
M16
G00X0048215Y0011025
M15
G01Y0011275
M16
G00X0020775Y0043715
M15
G01X0021025
M16
G00X0020775Y0048015
M15
G01X0021025
M16
G00X0015975Y0048015
M15
G01X0016225
M16
G00X0015975Y0043715
M15
G01X0016225
M16
G00X00567314Y00499375
M15
G01X00569814
M16
G00X00567314Y00542375
M15
G01X00569814
M16
G00X00615314Y00542375
M15
G01X00617814
M16
G00X00615314Y00499375
M15
G01X00617814
M16
M17
M30
