M48
;Layer_Color=9474304
;FILE_FORMAT=4:4
METRIC,LZ
;TYPE=PLATED
T01F00S00C0.2540
T02F00S00C0.4000
T04F00S00C0.8000
T05F00S00C0.8100
T06F00S00C1.0200
T07F00S00C1.1000
;TYPE=NON_PLATED
T08F00S00C0.5700
%
T01
X0102774Y00737343
X01034631Y00734091
X01023376Y00743589
X01091308Y00738301
X01097085Y0074327
X0110656Y00720791
X0111241Y00725674
X01118886Y0072969
X01125878Y00732718
X01133268Y00734576
X01148477Y00734695
X01156095Y00734547
X0116509Y00726091
X01167539Y00718875
X01170911Y00712042
X01175459Y00705928
X01180923Y00700617
X01185526Y00694544
X01191543Y00689868
X01199146Y00689369
X01200329Y00720631
X01194654Y00725716
X01063206Y00705203
X01066597Y00698379
X01073009Y00694262
X01067652Y00762484
X0107304Y00767872
X01078428Y0077326
X01083816Y00778649
X01089205Y00784037
X01094593Y00789425
X01099981Y00794813
X01105361Y00800209
X01111183Y00805125
X0111761Y00809219
X01124527Y00812415
X01131818Y00814631
X0115458Y0081497
X01162199Y00815117
X0117673Y00812343
X01184335Y00811869
X01178841Y00843011
X01171982Y00839691
X01164365Y00839469
X01156774Y00840126
X01149155Y00839979
X01141549Y00839524
X01133991Y00838551
X0112649Y00837209
X01119147Y00835173
X01112057Y00832382
X01105266Y00828925
X01098837Y00824835
X01092829Y00820149
X01087253Y00814955
X01081865Y00809567
X01076477Y00804178
X01071088Y0079879
X010657Y00793402
X01060312Y00788014
X01103338Y00747624
X01110036Y00751256
X01117047Y00754242
X01124343Y00756439
X01131826Y00757882
X01139397Y00758738
X01147008Y00759124
X01154612Y0075961
X01163063Y00759353
X0117067Y00758915
X0117829Y00758938
X01054924Y00782626
X01049536Y00777238
T02
X01063026Y00147994
X01073026
Y00157994
X01063026
X01083026
Y00147994
X010925Y00255
X011025Y002625
X010575Y003175
X0119Y001925
Y0018
Y001675
X01205
Y0018
Y001925
X0122
Y0018
Y001675
X01053026Y00157994
Y00147994
X01045Y003175
X00945Y00315
X00931Y00336
X0088102Y00341484
X00852196Y00340814
X008125Y003375
X007725Y003375
X007525Y00345
X007415Y003225
X007395Y002875
X007725Y002675
X00784469Y00225752
X007415Y002265
X006975Y0025
X006775Y002105
X00675Y001175
X00731143Y00119442
X007425Y001325
X008125Y002975
X008775Y00288332
Y002675
X00899301Y00292371
X006785Y003055
X006475Y003035
X00630184Y00286316
X006495Y002105
X00424246Y00211746
X004175Y00205
Y002325
X004075Y001761
X00435Y001636
Y001461
X004525Y00105
X00465
X005375Y000925
Y000825
X003925Y0012
X003725Y00165
X002975Y0019
X00275Y002
X00265
X002625Y0021
X002725
X002925Y002225
X003288Y002263
X00325Y002625
X00267504Y00272865
X00286134Y00305321
X004425Y0033
X0026Y003275
X00235Y003025
X001875
X0021Y002775
Y003275
X0016
X00135
X001325Y0029954
X0013101Y00230163
X001775Y002425
X00171594Y00258556
X0025Y002625
X0025782Y00271968
X00252764Y00205264
X002Y0017
X0017942Y00169655
X0013442Y0017
X001875Y0035
X0021Y00375
Y004
X00178337Y00405131
X00170754Y00411746
X00175Y004375
X00195
X00187828Y00491015
X00182544Y00498958
X001375Y00485
X00235Y003525
X002725Y0037
X00285Y00365
X0029452Y00349947
X00295Y004725
Y004825
X00285
Y004725
Y004925
X00295
X00305
Y004825
Y004725
X00315
Y004825
Y004925
X003975Y00495
X004075
X004175
X004275
X004375
Y0048
X004275
X004175
X004075
X003975
X004075Y00465
X004175Y00465
X004275
X004375
X004825Y005175
X004925
X005025
X005125
Y005275
Y005375
Y005475
Y005575
X005025
X004925
Y005475
X005025
Y005375
Y005275
X004925
Y005375
X004825
Y005275
Y005475
Y005575
X00585Y00565
X006025
X00592989Y00500428
X0058345Y00500517
X00585Y004825
X005725
X0056
X005475
Y0047
X0056
X005725
X00585
X00645Y004
X006Y006575
X0074Y00665
X008325Y0069
X008425Y007
X008475Y005575
X00875672Y00528956
X0089Y00515
X00904622Y00500672
X00918066Y00487566
X00905Y00472425
X00932574Y00472574
X00934787Y00448828
X00946383Y00458246
X00870473Y00454527
X0088Y00445
X0089Y00435
X009Y0042
X00888114Y00408283
X00875497Y00395666
X00850737Y00423126
X00832599Y00440114
X0082Y004175
X007975Y003925
X007875Y003825
X00774Y00428
X00745965Y00437669
X007325Y00445
X00798Y00444
X00770605Y00481508
X00778105Y00489008
X00763105
X00770605Y00496508
X00778105Y00504008
X00785605Y00511508
X00793105Y00504008
X00785605Y00496508
X006975Y005725
X010275Y0042
X0104Y004325
X0104424Y00380726
X010175Y003625
X0107
Y00385
X01105
Y003625
X01139535
X0114Y00385
X01165
X011875Y003875
Y004
Y004125
X012025
Y004
Y003875
X01190895Y003625
X010775Y0045
X012725Y00505
Y00515
Y00525
Y00535
X01191146Y00632993
X01181744Y00642304
X01173654Y00650746
X01165854Y00660494
X01155Y0067
X01145218Y00679306
X01245Y007375
X009725Y007625
X00724208Y00781867
X0055Y008025
Y008125
Y008225
X00535
Y008125
Y008025
X0052
Y008125
Y008225
X0037Y007675
X0035
T04
X0024Y0053
Y0058
X0038Y00635
Y00685
T05
X013Y002365
Y002619
Y002873
Y003127
Y003381
X0133
Y003127
Y002873
Y002619
Y002365
X005Y002373
Y002627
Y002881
Y003135
X0047
Y002881
Y002627
Y002373
Y002119
Y001865
X005
Y002119
Y003465
X0047
X0011
X0008
Y003135
Y002881
Y002627
Y002373
Y002119
Y001865
X0011
Y002119
Y002373
Y002627
Y002881
Y003135
X001215Y00075
X001469
X001723
X001977
X002231
X002485
X0011Y003719
Y003973
Y004227
Y004481
Y004735
X0008
Y004481
Y004227
Y003973
Y003719
X0047
Y003973
Y004227
Y004481
Y004735
X005
Y004481
Y004227
Y003973
Y003719
X013Y003635
X0133
Y005065
Y005319
Y005573
Y005827
Y006081
Y006335
X013
Y006081
Y005827
Y005573
Y005319
Y005065
X004235Y008
X003981
X003727
X003473
X003219
X002965
Y0083
X003219
X003473
X003727
X003981
X004235
X002635Y0083
Y008
X002381
X002127
X001873
X001619
X001365
Y0083
X001619
X001873
X002127
X002381
T06
X004373Y005375
X004627
X006298Y005825
X006552
X004175Y007448
Y007702
X00535Y007752
Y007498
T07
X005775Y001657
Y001911
Y002165
Y002419
Y002673
Y002927
Y003181
Y003435
X006029
Y003181
Y002927
Y002673
Y002419
Y002165
Y001911
Y001657
Y003689
Y003943
X005775
Y003689
T08
X0050365Y0005
X001475Y0045865
X00555064Y00520875
M30
