G04*
G04 #@! TF.GenerationSoftware,Altium Limited,Altium Designer,24.5.2 (23)*
G04*
G04 Layer_Color=8388736*
%FSLAX44Y44*%
%MOMM*%
G71*
G04*
G04 #@! TF.SameCoordinates,164FEA2C-ADE8-48CB-B743-27DEF7324C7D*
G04*
G04*
G04 #@! TF.FilePolarity,Negative*
G04*
G01*
G75*
%ADD51R,2.4032X1.2532*%
%ADD52R,1.3032X1.2032*%
G04:AMPARAMS|DCode=53|XSize=0.7532mm|YSize=1.7532mm|CornerRadius=0mm|HoleSize=0mm|Usage=FLASHONLY|Rotation=45.000|XOffset=0mm|YOffset=0mm|HoleType=Round|Shape=Rectangle|*
%AMROTATEDRECTD53*
4,1,4,0.3536,-0.8862,-0.8862,0.3536,-0.3536,0.8862,0.8862,-0.3536,0.3536,-0.8862,0.0*
%
%ADD53ROTATEDRECTD53*%

%ADD54R,1.1032X1.7032*%
%ADD55R,1.7032X1.1032*%
%ADD56R,1.1032X1.1032*%
%ADD57R,1.1432X1.2232*%
%ADD58R,0.4000X0.9700*%
%ADD59R,1.2232X1.1432*%
%ADD60R,1.4032X1.5032*%
%ADD61R,1.6032X2.1032*%
%ADD62R,2.0032X1.6032*%
%ADD63R,1.0032X1.7032*%
%ADD64C,1.2032*%
%ADD65R,1.3032X1.8532*%
%ADD66R,1.7032X1.7032*%
G04:AMPARAMS|DCode=67|XSize=1.5032mm|YSize=1.4032mm|CornerRadius=0mm|HoleSize=0mm|Usage=FLASHONLY|Rotation=45.000|XOffset=0mm|YOffset=0mm|HoleType=Round|Shape=Rectangle|*
%AMROTATEDRECTD67*
4,1,4,-0.0354,-1.0276,-1.0276,-0.0354,0.0354,1.0276,1.0276,0.0354,-0.0354,-1.0276,0.0*
%
%ADD67ROTATEDRECTD67*%

%ADD68R,0.9700X0.4000*%
%ADD69R,1.5032X1.4032*%
%ADD70R,1.2446X4.2418*%
%ADD71R,10.9474X8.5090*%
%ADD72R,5.6032X3.1032*%
%ADD73R,2.7032X3.5032*%
%ADD74R,2.3632X1.2732*%
%ADD75R,0.9532X1.3332*%
%ADD76R,0.7832X2.3032*%
%ADD77R,0.8532X1.3332*%
%ADD78R,0.5532X0.6032*%
%ADD79R,0.5032X0.5032*%
%ADD80R,1.1732X1.2032*%
G04:AMPARAMS|DCode=81|XSize=1.1432mm|YSize=1.2232mm|CornerRadius=0mm|HoleSize=0mm|Usage=FLASHONLY|Rotation=225.000|XOffset=0mm|YOffset=0mm|HoleType=Round|Shape=Rectangle|*
%AMROTATEDRECTD81*
4,1,4,-0.0283,0.8367,0.8367,-0.0283,0.0283,-0.8367,-0.8367,0.0283,-0.0283,0.8367,0.0*
%
%ADD81ROTATEDRECTD81*%

G04:AMPARAMS|DCode=82|XSize=2.7032mm|YSize=1.0032mm|CornerRadius=0.5016mm|HoleSize=0mm|Usage=FLASHONLY|Rotation=45.000|XOffset=0mm|YOffset=0mm|HoleType=Round|Shape=RoundedRectangle|*
%AMROUNDEDRECTD82*
21,1,2.7032,0.0000,0,0,45.0*
21,1,1.7000,1.0032,0,0,45.0*
1,1,1.0032,0.6010,0.6010*
1,1,1.0032,-0.6010,-0.6010*
1,1,1.0032,-0.6010,-0.6010*
1,1,1.0032,0.6010,0.6010*
%
%ADD82ROUNDEDRECTD82*%
%ADD83P,1.8430X4X90.0*%
G04:AMPARAMS|DCode=84|XSize=2.7032mm|YSize=1.0032mm|CornerRadius=0.5016mm|HoleSize=0mm|Usage=FLASHONLY|Rotation=135.000|XOffset=0mm|YOffset=0mm|HoleType=Round|Shape=RoundedRectangle|*
%AMROUNDEDRECTD84*
21,1,2.7032,0.0000,0,0,135.0*
21,1,1.7000,1.0032,0,0,135.0*
1,1,1.0032,-0.6010,0.6010*
1,1,1.0032,0.6010,-0.6010*
1,1,1.0032,0.6010,-0.6010*
1,1,1.0032,-0.6010,0.6010*
%
%ADD84ROUNDEDRECTD84*%
G04:AMPARAMS|DCode=85|XSize=3.2032mm|YSize=2.2032mm|CornerRadius=0mm|HoleSize=0mm|Usage=FLASHONLY|Rotation=135.000|XOffset=0mm|YOffset=0mm|HoleType=Round|Shape=Rectangle|*
%AMROTATEDRECTD85*
4,1,4,1.9115,-0.3536,0.3536,-1.9115,-1.9115,0.3536,-0.3536,1.9115,1.9115,-0.3536,0.0*
%
%ADD85ROTATEDRECTD85*%

%ADD86C,1.4232*%
%ADD87R,1.4232X1.4232*%
%ADD88C,1.7032*%
%ADD89C,0.7732*%
%ADD90O,1.6032X1.3532*%
%ADD91C,1.5732*%
%ADD92R,1.5732X1.5732*%
%ADD93R,1.4232X1.4232*%
%ADD94R,1.5732X1.5732*%
%ADD95R,1.8532X1.8532*%
%ADD96C,1.8532*%
%ADD97O,1.3532X1.6032*%
%ADD98C,0.9032*%
G36*
X208133Y726010D02*
X208181Y726000D01*
X209000D01*
Y725181D01*
X209009Y725133D01*
X209018Y725000D01*
Y715518D01*
X270000D01*
X270133Y715509D01*
X270180Y715500D01*
X271000D01*
Y714680D01*
X271010Y714633D01*
X271018Y714500D01*
Y627500D01*
X271010Y627367D01*
X271000Y627319D01*
Y626500D01*
X270180D01*
X270133Y626491D01*
X270000Y626482D01*
X209018D01*
Y617000D01*
X209009Y616867D01*
X209000Y616819D01*
Y616000D01*
X208181D01*
X208133Y615990D01*
X208000Y615982D01*
X193300D01*
X193167Y615990D01*
X193120Y616000D01*
X192300D01*
Y616819D01*
X192290Y616867D01*
X192282Y617000D01*
Y725000D01*
X192290Y725133D01*
X192300Y725181D01*
Y726000D01*
X193120D01*
X193167Y726010D01*
X193300Y726018D01*
X208000D01*
X208133Y726010D01*
D02*
G37*
G36*
X631264Y524715D02*
X631464Y524705D01*
X631664Y524675D01*
X631864Y524645D01*
X632064Y524595D01*
X632254Y524535D01*
X632444Y524465D01*
X632634Y524395D01*
X632814Y524305D01*
X632994Y524205D01*
X633164Y524105D01*
X633324Y523985D01*
X633484Y523865D01*
X633644Y523735D01*
X633784Y523595D01*
X633924Y523455D01*
X634054Y523295D01*
X634174Y523135D01*
X634294Y522975D01*
X634394Y522795D01*
X634494Y522625D01*
X634584Y522445D01*
X634654Y522255D01*
X634724Y522065D01*
X634784Y521875D01*
X634834Y521675D01*
X634864Y521475D01*
X634894Y521275D01*
X634904Y521075D01*
X634914Y520875D01*
X634904Y520675D01*
X634894Y520475D01*
X634864Y520275D01*
X634834Y520075D01*
X634784Y519875D01*
X634724Y519685D01*
X634654Y519495D01*
X634584Y519305D01*
X634494Y519125D01*
X634394Y518955D01*
X634294Y518775D01*
X634174Y518615D01*
X634054Y518455D01*
X633924Y518295D01*
X633784Y518155D01*
X633644Y518015D01*
X633484Y517885D01*
X633324Y517765D01*
X633164Y517645D01*
X632994Y517545D01*
X632814Y517445D01*
X632634Y517355D01*
X632444Y517285D01*
X632254Y517215D01*
X632064Y517155D01*
X631864Y517105D01*
X631664Y517075D01*
X631464Y517045D01*
X631264Y517035D01*
X631064Y517025D01*
X629064D01*
X628864Y517035D01*
X628664Y517045D01*
X628464Y517075D01*
X628264Y517105D01*
X628064Y517155D01*
X627874Y517215D01*
X627684Y517285D01*
X627494Y517355D01*
X627314Y517445D01*
X627134Y517545D01*
X626964Y517645D01*
X626804Y517765D01*
X626644Y517885D01*
X626484Y518015D01*
X626344Y518155D01*
X626204Y518295D01*
X626074Y518455D01*
X625954Y518615D01*
X625834Y518775D01*
X625734Y518945D01*
X625634Y519125D01*
X625544Y519305D01*
X625474Y519495D01*
X625404Y519685D01*
X625344Y519875D01*
X625294Y520075D01*
X625264Y520275D01*
X625234Y520475D01*
X625224Y520675D01*
X625214Y520875D01*
X625224Y521075D01*
X625234Y521275D01*
X625264Y521475D01*
X625294Y521675D01*
X625344Y521875D01*
X625404Y522065D01*
X625474Y522255D01*
X625544Y522445D01*
X625634Y522625D01*
X625734Y522795D01*
X625834Y522975D01*
X625954Y523135D01*
X626074Y523295D01*
X626204Y523455D01*
X626344Y523595D01*
X626484Y523735D01*
X626644Y523865D01*
X626804Y523985D01*
X626964Y524105D01*
X627144Y524205D01*
X627314Y524305D01*
X627494Y524395D01*
X627684Y524465D01*
X627874Y524535D01*
X628064Y524595D01*
X628264Y524645D01*
X628464Y524675D01*
X628664Y524705D01*
X628864Y524715D01*
X629064Y524725D01*
X631064D01*
X631264Y524715D01*
D02*
G37*
G36*
X223700Y462490D02*
X223900Y462480D01*
X224100Y462450D01*
X224300Y462420D01*
X224500Y462370D01*
X224690Y462310D01*
X224880Y462240D01*
X225070Y462170D01*
X225250Y462080D01*
X225430Y461980D01*
X225600Y461880D01*
X225760Y461760D01*
X225920Y461640D01*
X226080Y461510D01*
X226220Y461370D01*
X226360Y461230D01*
X226490Y461070D01*
X226610Y460910D01*
X226730Y460750D01*
X226830Y460570D01*
X226930Y460400D01*
X227020Y460220D01*
X227090Y460030D01*
X227160Y459840D01*
X227220Y459650D01*
X227270Y459450D01*
X227300Y459250D01*
X227330Y459050D01*
X227340Y458850D01*
X227350Y458650D01*
X227340Y458450D01*
X227330Y458250D01*
X227300Y458050D01*
X227270Y457850D01*
X227220Y457650D01*
X227160Y457460D01*
X227090Y457270D01*
X227020Y457080D01*
X226930Y456900D01*
X226830Y456730D01*
X226730Y456550D01*
X226610Y456390D01*
X226490Y456230D01*
X226360Y456070D01*
X226220Y455930D01*
X226080Y455790D01*
X225920Y455660D01*
X225760Y455540D01*
X225600Y455420D01*
X225430Y455320D01*
X225250Y455220D01*
X225070Y455130D01*
X224880Y455060D01*
X224690Y454990D01*
X224500Y454930D01*
X224300Y454880D01*
X224100Y454850D01*
X223900Y454820D01*
X223700Y454810D01*
X223500Y454800D01*
X221500D01*
X221300Y454810D01*
X221100Y454820D01*
X220900Y454850D01*
X220700Y454880D01*
X220500Y454930D01*
X220310Y454990D01*
X220120Y455060D01*
X219930Y455130D01*
X219750Y455220D01*
X219570Y455320D01*
X219400Y455420D01*
X219240Y455540D01*
X219080Y455660D01*
X218920Y455790D01*
X218780Y455930D01*
X218640Y456070D01*
X218510Y456230D01*
X218390Y456390D01*
X218270Y456550D01*
X218170Y456720D01*
X218070Y456900D01*
X217980Y457080D01*
X217910Y457270D01*
X217840Y457460D01*
X217780Y457650D01*
X217730Y457850D01*
X217700Y458050D01*
X217670Y458250D01*
X217660Y458450D01*
X217650Y458650D01*
X217660Y458850D01*
X217670Y459050D01*
X217700Y459250D01*
X217730Y459450D01*
X217780Y459650D01*
X217840Y459840D01*
X217910Y460030D01*
X217980Y460220D01*
X218070Y460400D01*
X218170Y460570D01*
X218270Y460750D01*
X218390Y460910D01*
X218510Y461070D01*
X218640Y461230D01*
X218780Y461370D01*
X218920Y461510D01*
X219080Y461640D01*
X219240Y461760D01*
X219400Y461880D01*
X219580Y461980D01*
X219750Y462080D01*
X219930Y462170D01*
X220120Y462240D01*
X220310Y462310D01*
X220500Y462370D01*
X220700Y462420D01*
X220900Y462450D01*
X221100Y462480D01*
X221300Y462490D01*
X221500Y462500D01*
X223500D01*
X223700Y462490D01*
D02*
G37*
G36*
X503850Y129840D02*
X504050Y129830D01*
X504250Y129800D01*
X504450Y129770D01*
X504650Y129720D01*
X504840Y129660D01*
X505030Y129590D01*
X505220Y129520D01*
X505400Y129430D01*
X505570Y129330D01*
X505750Y129230D01*
X505910Y129110D01*
X506070Y128990D01*
X506230Y128860D01*
X506370Y128720D01*
X506510Y128580D01*
X506640Y128420D01*
X506760Y128260D01*
X506880Y128100D01*
X506980Y127930D01*
X507080Y127750D01*
X507170Y127570D01*
X507240Y127380D01*
X507310Y127190D01*
X507370Y127000D01*
X507420Y126800D01*
X507450Y126600D01*
X507480Y126400D01*
X507490Y126200D01*
X507500Y126000D01*
Y124000D01*
X507490Y123800D01*
X507480Y123600D01*
X507450Y123400D01*
X507420Y123200D01*
X507370Y123000D01*
X507310Y122810D01*
X507240Y122620D01*
X507170Y122430D01*
X507080Y122250D01*
X506980Y122070D01*
X506880Y121900D01*
X506760Y121740D01*
X506640Y121580D01*
X506510Y121420D01*
X506370Y121280D01*
X506230Y121140D01*
X506070Y121010D01*
X505910Y120890D01*
X505750Y120770D01*
X505580Y120670D01*
X505400Y120570D01*
X505220Y120480D01*
X505030Y120410D01*
X504840Y120340D01*
X504650Y120280D01*
X504450Y120230D01*
X504250Y120200D01*
X504050Y120170D01*
X503850Y120160D01*
X503650Y120150D01*
X503450Y120160D01*
X503250Y120170D01*
X503050Y120200D01*
X502850Y120230D01*
X502650Y120280D01*
X502460Y120340D01*
X502270Y120410D01*
X502080Y120480D01*
X501900Y120570D01*
X501730Y120670D01*
X501550Y120770D01*
X501390Y120890D01*
X501230Y121010D01*
X501070Y121140D01*
X500930Y121280D01*
X500790Y121420D01*
X500660Y121580D01*
X500540Y121740D01*
X500420Y121900D01*
X500320Y122080D01*
X500220Y122250D01*
X500130Y122430D01*
X500060Y122620D01*
X499990Y122810D01*
X499930Y123000D01*
X499880Y123200D01*
X499850Y123400D01*
X499820Y123600D01*
X499810Y123800D01*
X499800Y124000D01*
Y126000D01*
X499810Y126200D01*
X499820Y126400D01*
X499850Y126600D01*
X499880Y126800D01*
X499930Y127000D01*
X499990Y127190D01*
X500060Y127380D01*
X500130Y127570D01*
X500220Y127750D01*
X500320Y127930D01*
X500420Y128100D01*
X500540Y128260D01*
X500660Y128420D01*
X500790Y128580D01*
X500930Y128720D01*
X501070Y128860D01*
X501230Y128990D01*
X501390Y129110D01*
X501550Y129230D01*
X501730Y129330D01*
X501900Y129430D01*
X502080Y129520D01*
X502270Y129590D01*
X502460Y129660D01*
X502650Y129720D01*
X502850Y129770D01*
X503050Y129800D01*
X503250Y129830D01*
X503450Y129840D01*
X503650Y129850D01*
X503850Y129840D01*
D02*
G37*
D51*
X1207500Y719750D02*
D03*
Y690250D02*
D03*
X1197334Y842250D02*
D03*
Y812750D02*
D03*
D52*
X1191000Y705000D02*
D03*
X1180834Y827500D02*
D03*
D53*
X773545Y445896D02*
D03*
X764565Y436916D02*
D03*
X755584Y427935D02*
D03*
X746604Y418955D02*
D03*
X823396Y396045D02*
D03*
X814416Y387065D02*
D03*
X805435Y378084D02*
D03*
X796455Y369104D02*
D03*
D54*
X239900Y416750D02*
D03*
X252600D02*
D03*
X265300D02*
D03*
X278000D02*
D03*
X290700D02*
D03*
X303400D02*
D03*
X316100D02*
D03*
X328800D02*
D03*
X341500D02*
D03*
X354200D02*
D03*
X366900D02*
D03*
X379600D02*
D03*
X392300D02*
D03*
X405000D02*
D03*
Y241750D02*
D03*
X392300D02*
D03*
X379600D02*
D03*
X366900D02*
D03*
X354200D02*
D03*
X341500D02*
D03*
X328800D02*
D03*
X316100D02*
D03*
X303400D02*
D03*
X290700D02*
D03*
X278000D02*
D03*
X265300D02*
D03*
X252600D02*
D03*
X239900D02*
D03*
D55*
X417500Y399100D02*
D03*
Y386400D02*
D03*
Y373700D02*
D03*
Y361000D02*
D03*
Y348300D02*
D03*
Y335600D02*
D03*
Y322900D02*
D03*
Y310200D02*
D03*
Y297500D02*
D03*
Y284800D02*
D03*
Y272100D02*
D03*
Y259400D02*
D03*
D56*
X303100Y328250D02*
D03*
Y314250D02*
D03*
Y300250D02*
D03*
X331100Y328250D02*
D03*
Y314250D02*
D03*
Y300250D02*
D03*
X317100Y328250D02*
D03*
Y300250D02*
D03*
Y314250D02*
D03*
D57*
X407100Y163097D02*
D03*
X422900D02*
D03*
X144600Y497500D02*
D03*
X160400D02*
D03*
X342100Y164497D02*
D03*
X357900D02*
D03*
X422900Y146100D02*
D03*
X407100D02*
D03*
X520800Y22500D02*
D03*
X505000D02*
D03*
X499600Y150000D02*
D03*
X515400D02*
D03*
X615400Y672500D02*
D03*
X599600D02*
D03*
X291700Y605000D02*
D03*
X307500D02*
D03*
X329600D02*
D03*
X345400D02*
D03*
D58*
X565064Y529525D02*
D03*
X580064D02*
D03*
X585064D02*
D03*
X590064D02*
D03*
X595064D02*
D03*
X600064D02*
D03*
X605064D02*
D03*
X620064D02*
D03*
Y512225D02*
D03*
X605064D02*
D03*
X600064D02*
D03*
X595064D02*
D03*
X590064D02*
D03*
X585064D02*
D03*
X580064D02*
D03*
X565064D02*
D03*
X157500Y467300D02*
D03*
X172500D02*
D03*
X177500D02*
D03*
X182500D02*
D03*
X187500D02*
D03*
X192500D02*
D03*
X197500D02*
D03*
X212500D02*
D03*
Y450000D02*
D03*
X197500D02*
D03*
X192500D02*
D03*
X187500D02*
D03*
X182500D02*
D03*
X177500D02*
D03*
X172500D02*
D03*
X157500D02*
D03*
D59*
X245000Y449600D02*
D03*
Y465400D02*
D03*
X178000Y432900D02*
D03*
Y417100D02*
D03*
X192000Y432900D02*
D03*
Y417100D02*
D03*
X274991Y162358D02*
D03*
Y178158D02*
D03*
X297500Y162358D02*
D03*
Y178158D02*
D03*
X585000Y92900D02*
D03*
Y77100D02*
D03*
X565000D02*
D03*
Y92900D02*
D03*
X650000Y670400D02*
D03*
Y654600D02*
D03*
X667500Y654600D02*
D03*
Y670400D02*
D03*
X685000Y670400D02*
D03*
Y654600D02*
D03*
X567500Y590000D02*
D03*
Y574200D02*
D03*
X656364Y527573D02*
D03*
Y511773D02*
D03*
X1034770Y352387D02*
D03*
Y336587D02*
D03*
X1017427Y352387D02*
D03*
Y336587D02*
D03*
X971964Y325608D02*
D03*
Y309808D02*
D03*
X585000Y574600D02*
D03*
Y590400D02*
D03*
X602500Y574600D02*
D03*
Y590400D02*
D03*
X1208689Y756597D02*
D03*
Y740797D02*
D03*
X1086880Y336587D02*
D03*
Y352387D02*
D03*
X1052120Y336587D02*
D03*
Y352387D02*
D03*
X1069711Y336587D02*
D03*
Y352387D02*
D03*
X1173571Y336587D02*
D03*
Y352387D02*
D03*
X1156402Y336587D02*
D03*
Y352387D02*
D03*
X1190880Y336587D02*
D03*
Y352387D02*
D03*
X1104471Y336587D02*
D03*
Y352387D02*
D03*
X1139092Y336587D02*
D03*
Y352387D02*
D03*
X1121641Y336587D02*
D03*
Y352387D02*
D03*
X931554Y325608D02*
D03*
Y309808D02*
D03*
X897557Y325608D02*
D03*
Y309808D02*
D03*
X813049Y325608D02*
D03*
Y309808D02*
D03*
X830605Y325608D02*
D03*
Y309808D02*
D03*
X864692Y325608D02*
D03*
Y309808D02*
D03*
D60*
X172014Y272114D02*
D03*
X153014D02*
D03*
X152600Y387261D02*
D03*
X171600D02*
D03*
X171599Y289818D02*
D03*
X152599D02*
D03*
X152623Y369455D02*
D03*
X171623D02*
D03*
X171300Y307604D02*
D03*
X152300D02*
D03*
X233764Y222815D02*
D03*
X252764D02*
D03*
X340500Y147500D02*
D03*
X359500D02*
D03*
D61*
X1018750Y149250D02*
D03*
X1150250Y139250D02*
D03*
D62*
X1034750Y280750D02*
D03*
X1091750D02*
D03*
D63*
X1081650Y177750D02*
D03*
X1059650D02*
D03*
X1037650D02*
D03*
X1026650D02*
D03*
X1103650D02*
D03*
X1092650Y181750D02*
D03*
X1070650Y175750D02*
D03*
X1048650D02*
D03*
D64*
X172300Y47500D02*
D03*
X248500D02*
D03*
X197700D02*
D03*
X121500D02*
D03*
X146900D02*
D03*
X223100D02*
D03*
D65*
X437500Y101500D02*
D03*
Y13500D02*
D03*
X392500Y101500D02*
D03*
Y13500D02*
D03*
X372500Y101500D02*
D03*
Y13500D02*
D03*
X327500Y101500D02*
D03*
Y13500D02*
D03*
X670000Y101500D02*
D03*
Y13500D02*
D03*
X625000Y101500D02*
D03*
Y13500D02*
D03*
X734851Y101500D02*
D03*
Y13500D02*
D03*
X689851Y101500D02*
D03*
Y13500D02*
D03*
X245000Y186500D02*
D03*
Y98500D02*
D03*
X200000Y186500D02*
D03*
Y98500D02*
D03*
X755000Y13500D02*
D03*
Y101500D02*
D03*
X800000Y13500D02*
D03*
Y101500D02*
D03*
X179420Y186500D02*
D03*
X179422Y98500D02*
D03*
X134420Y186500D02*
D03*
X134422Y98500D02*
D03*
D66*
X274990Y107500D02*
D03*
Y142500D02*
D03*
X297500Y107500D02*
D03*
Y142500D02*
D03*
X565000Y20000D02*
D03*
Y55000D02*
D03*
X585000Y20000D02*
D03*
Y55000D02*
D03*
X110000Y313500D02*
D03*
X80000D02*
D03*
X500000D02*
D03*
X470000D02*
D03*
X110000Y473500D02*
D03*
X80000D02*
D03*
X500000D02*
D03*
X470000D02*
D03*
D67*
X814218Y478283D02*
D03*
X800782Y491717D02*
D03*
X801718Y465783D02*
D03*
X788282Y479217D02*
D03*
X841718Y413283D02*
D03*
X828282Y426717D02*
D03*
D68*
X512300Y60000D02*
D03*
Y75000D02*
D03*
Y80000D02*
D03*
Y85000D02*
D03*
Y90000D02*
D03*
Y95000D02*
D03*
Y100000D02*
D03*
Y115000D02*
D03*
X495000D02*
D03*
Y100000D02*
D03*
Y95000D02*
D03*
Y90000D02*
D03*
Y85000D02*
D03*
Y80000D02*
D03*
Y75000D02*
D03*
Y60000D02*
D03*
D69*
X189892Y579500D02*
D03*
Y560500D02*
D03*
X330000Y738000D02*
D03*
Y757000D02*
D03*
X370000Y738000D02*
D03*
Y757000D02*
D03*
X350000Y738000D02*
D03*
Y757000D02*
D03*
X210000Y560500D02*
D03*
Y579500D02*
D03*
X1226670Y759811D02*
D03*
Y740811D02*
D03*
X795950Y308208D02*
D03*
X795958Y327208D02*
D03*
X914230Y308208D02*
D03*
Y327208D02*
D03*
X780000Y748000D02*
D03*
Y767000D02*
D03*
X800000Y748000D02*
D03*
Y767000D02*
D03*
X820000Y748000D02*
D03*
Y767000D02*
D03*
X780000Y795500D02*
D03*
Y814500D02*
D03*
X820000Y795500D02*
D03*
Y814500D02*
D03*
X800000Y795500D02*
D03*
Y814500D02*
D03*
X760000Y795500D02*
D03*
Y814500D02*
D03*
Y748000D02*
D03*
Y767000D02*
D03*
X840000Y795500D02*
D03*
Y814500D02*
D03*
X860000Y795500D02*
D03*
Y814500D02*
D03*
X840000Y748000D02*
D03*
Y767000D02*
D03*
X860000Y748000D02*
D03*
Y767000D02*
D03*
X881018Y308208D02*
D03*
X881020Y327208D02*
D03*
X847524Y308208D02*
D03*
Y327208D02*
D03*
D70*
X598500Y704508D02*
D03*
X615500D02*
D03*
X632500D02*
D03*
X649500D02*
D03*
X666500D02*
D03*
D71*
X632500Y808000D02*
D03*
D72*
X117500Y531000D02*
D03*
Y630000D02*
D03*
D73*
X103500Y692500D02*
D03*
X171500D02*
D03*
D74*
X335000Y637000D02*
D03*
Y654000D02*
D03*
Y671000D02*
D03*
Y688000D02*
D03*
Y705000D02*
D03*
D75*
X877600Y277425D02*
D03*
X852200D02*
D03*
X826800D02*
D03*
X890300D02*
D03*
X864900D02*
D03*
X839500D02*
D03*
D76*
X940000Y262575D02*
D03*
Y142575D02*
D03*
X810000D02*
D03*
Y262575D02*
D03*
D77*
X899800Y277425D02*
D03*
D78*
X1158561Y827500D02*
D03*
X1152061D02*
D03*
X1158561Y747084D02*
D03*
X1152061D02*
D03*
D79*
X1143859Y821500D02*
D03*
Y827500D02*
D03*
X1167096Y821500D02*
D03*
Y827500D02*
D03*
Y741057D02*
D03*
Y747057D02*
D03*
X1143859Y741057D02*
D03*
Y747057D02*
D03*
X1174895Y741057D02*
D03*
Y747057D02*
D03*
D80*
X1190685Y756047D02*
D03*
Y741347D02*
D03*
D81*
X753086Y465586D02*
D03*
X741914Y454414D02*
D03*
D82*
X1065156Y732582D02*
D03*
X1074349Y723390D02*
D03*
X851610Y500652D02*
D03*
X842418Y509844D02*
D03*
X997274Y800465D02*
D03*
X1006466Y791272D02*
D03*
X1015659Y782080D02*
D03*
X1024851Y772888D02*
D03*
X1034043Y763695D02*
D03*
X1043236Y754503D02*
D03*
X1052428Y745310D02*
D03*
X1083541Y714198D02*
D03*
X1092733Y705005D02*
D03*
X1101926Y695813D02*
D03*
X1111118Y686621D02*
D03*
X1120311Y677428D02*
D03*
X1129503Y668236D02*
D03*
X1138695Y659043D02*
D03*
X1147888Y649851D02*
D03*
X1157080Y640659D02*
D03*
X1166272Y631466D02*
D03*
X1175465Y622274D02*
D03*
X952726Y399535D02*
D03*
X943534Y408728D02*
D03*
X934341Y417920D02*
D03*
X925149Y427112D02*
D03*
X915957Y436305D02*
D03*
X906764Y445497D02*
D03*
X897572Y454690D02*
D03*
X888380Y463882D02*
D03*
X879187Y473074D02*
D03*
X869995Y482267D02*
D03*
X860802Y491459D02*
D03*
X829690Y522572D02*
D03*
X820497Y531764D02*
D03*
X811305Y540957D02*
D03*
X802112Y550149D02*
D03*
X792920Y559341D02*
D03*
X783728Y568534D02*
D03*
X774535Y577726D02*
D03*
D83*
X960858Y430294D02*
D03*
X946716Y444436D02*
D03*
X932574Y458579D02*
D03*
X918431Y472721D02*
D03*
X904289Y486863D02*
D03*
X889440Y501712D02*
D03*
X876005Y515147D02*
D03*
X861863Y529289D02*
D03*
X847721Y543432D02*
D03*
X833579Y557574D02*
D03*
X819436Y571716D02*
D03*
X805294Y585858D02*
D03*
X975000Y444436D02*
D03*
X960858Y458579D02*
D03*
X946716Y472721D02*
D03*
X932574Y486863D02*
D03*
X918431Y501005D02*
D03*
X904289Y515147D02*
D03*
X890147Y529289D02*
D03*
X876005Y543432D02*
D03*
X861863Y557574D02*
D03*
X847721Y571716D02*
D03*
X833579Y585858D02*
D03*
X819436Y600000D02*
D03*
X969343Y571716D02*
D03*
X958029Y583029D02*
D03*
X946716Y594343D02*
D03*
X980657Y583029D02*
D03*
X969343Y594343D02*
D03*
X958029Y605657D02*
D03*
X991971Y594343D02*
D03*
X980657Y605657D02*
D03*
X969343Y616971D02*
D03*
X1003284Y605657D02*
D03*
X991971Y616971D02*
D03*
X980657Y628284D02*
D03*
D84*
X989849Y413324D02*
D03*
X999042Y422516D02*
D03*
X788324Y614849D02*
D03*
X797516Y624042D02*
D03*
X806709Y633234D02*
D03*
X815901Y642426D02*
D03*
X825093Y651619D02*
D03*
X834286Y660811D02*
D03*
X843478Y670004D02*
D03*
X852671Y679196D02*
D03*
X861863Y688388D02*
D03*
X871055Y697581D02*
D03*
X880248Y706773D02*
D03*
X889440Y715965D02*
D03*
X898633Y725158D02*
D03*
X907825Y734350D02*
D03*
X917017Y743543D02*
D03*
X926210Y752735D02*
D03*
X935402Y761927D02*
D03*
X944594Y771120D02*
D03*
X953787Y780312D02*
D03*
X962979Y789505D02*
D03*
X1164505Y587979D02*
D03*
X1155312Y578787D02*
D03*
X1146120Y569594D02*
D03*
X1136927Y560402D02*
D03*
X1127735Y551210D02*
D03*
X1118543Y542017D02*
D03*
X1109350Y532825D02*
D03*
X1100158Y523633D02*
D03*
X1090965Y514440D02*
D03*
X1081773Y505248D02*
D03*
X1072581Y496055D02*
D03*
X1063388Y486863D02*
D03*
X1054196Y477671D02*
D03*
X1045004Y468478D02*
D03*
X1035811Y459286D02*
D03*
X1026619Y450093D02*
D03*
X1017426Y440901D02*
D03*
X1008234Y431709D02*
D03*
D85*
X984900Y474135D02*
D03*
X950958Y508076D02*
D03*
X917017Y542017D02*
D03*
X883076Y575958D02*
D03*
X849135Y609899D02*
D03*
X1007527Y496762D02*
D03*
X973586Y530704D02*
D03*
X939645Y564645D02*
D03*
X905704Y598586D02*
D03*
X871762Y632527D02*
D03*
X1031569Y520804D02*
D03*
X997627Y554745D02*
D03*
X928684Y621567D02*
D03*
X895804Y656569D02*
D03*
X1054196Y543432D02*
D03*
X1020255Y577373D02*
D03*
X952373Y645255D02*
D03*
X918431Y679196D02*
D03*
X1078238Y567473D02*
D03*
X1044296Y601414D02*
D03*
X1010355Y635355D02*
D03*
X976414Y669296D02*
D03*
X942473Y703238D02*
D03*
X1100865Y590101D02*
D03*
X1066924Y624042D02*
D03*
X1032983Y657983D02*
D03*
X999042Y691924D02*
D03*
X965100Y725865D02*
D03*
D86*
X248500Y75000D02*
D03*
X223100D02*
D03*
X197700D02*
D03*
X172300D02*
D03*
X146900D02*
D03*
X321900Y830000D02*
D03*
X347300D02*
D03*
X372700D02*
D03*
X398100D02*
D03*
X423500D02*
D03*
X161900Y830000D02*
D03*
X187300D02*
D03*
X212700D02*
D03*
X238100D02*
D03*
X263500D02*
D03*
X321900Y800000D02*
D03*
X347300D02*
D03*
X372700D02*
D03*
X398100D02*
D03*
X423500D02*
D03*
X161900D02*
D03*
X187300D02*
D03*
X212700D02*
D03*
X238100D02*
D03*
X263500D02*
D03*
X1300000Y338100D02*
D03*
Y312700D02*
D03*
Y287300D02*
D03*
Y261900D02*
D03*
Y236500D02*
D03*
X1330000Y608100D02*
D03*
Y582700D02*
D03*
Y557300D02*
D03*
Y531900D02*
D03*
Y506500D02*
D03*
X1300000Y608100D02*
D03*
Y582700D02*
D03*
Y557300D02*
D03*
Y531900D02*
D03*
Y506500D02*
D03*
X1330000Y338100D02*
D03*
Y312700D02*
D03*
Y287300D02*
D03*
Y261900D02*
D03*
Y236500D02*
D03*
D87*
X121500Y75000D02*
D03*
X296500Y830000D02*
D03*
X136500Y830000D02*
D03*
X296500Y800000D02*
D03*
X136500D02*
D03*
D88*
X110000Y288100D02*
D03*
Y262700D02*
D03*
Y237300D02*
D03*
Y211900D02*
D03*
Y186500D02*
D03*
X80000Y288100D02*
D03*
Y262700D02*
D03*
Y237300D02*
D03*
Y211900D02*
D03*
Y186500D02*
D03*
X500000Y288100D02*
D03*
Y262700D02*
D03*
Y237300D02*
D03*
Y211900D02*
D03*
Y186500D02*
D03*
X470000Y288100D02*
D03*
Y262700D02*
D03*
Y237300D02*
D03*
Y211900D02*
D03*
Y186500D02*
D03*
X110000Y448100D02*
D03*
Y422700D02*
D03*
Y397300D02*
D03*
Y371900D02*
D03*
Y346500D02*
D03*
X80000Y448100D02*
D03*
Y422700D02*
D03*
Y397300D02*
D03*
Y371900D02*
D03*
Y346500D02*
D03*
X500000Y448100D02*
D03*
Y422700D02*
D03*
Y397300D02*
D03*
Y371900D02*
D03*
Y346500D02*
D03*
X470000Y448100D02*
D03*
Y422700D02*
D03*
Y397300D02*
D03*
Y371900D02*
D03*
Y346500D02*
D03*
X240000Y530000D02*
D03*
Y580000D02*
D03*
X380000Y685000D02*
D03*
Y635000D02*
D03*
D89*
X555064Y520875D02*
D03*
X147500Y458650D02*
D03*
X503650Y50000D02*
D03*
D90*
X568564Y542375D02*
D03*
X616564D02*
D03*
X568564Y499375D02*
D03*
X616564D02*
D03*
X161000Y480150D02*
D03*
X209000D02*
D03*
X161000Y437150D02*
D03*
X209000D02*
D03*
D91*
X417500Y744800D02*
D03*
X535000Y749800D02*
D03*
X462700Y537500D02*
D03*
X655200Y582500D02*
D03*
D92*
X417500Y770200D02*
D03*
X535000Y775200D02*
D03*
D93*
X1300000Y363500D02*
D03*
X1330000Y633500D02*
D03*
X1300000D02*
D03*
X1330000Y363500D02*
D03*
D94*
X437300Y537500D02*
D03*
X629800Y582500D02*
D03*
D95*
X577500Y394300D02*
D03*
D96*
X602900D02*
D03*
X577500Y368900D02*
D03*
X602900D02*
D03*
X577500Y343500D02*
D03*
X602900D02*
D03*
X577500Y318100D02*
D03*
X602900D02*
D03*
X577500Y292700D02*
D03*
X602900D02*
D03*
X577500Y267300D02*
D03*
X602900D02*
D03*
X577500Y241900D02*
D03*
X602900D02*
D03*
X577500Y216500D02*
D03*
X602900D02*
D03*
X577500Y191100D02*
D03*
X602900D02*
D03*
X577500Y165700D02*
D03*
X602900D02*
D03*
D97*
X525150Y111500D02*
D03*
Y63500D02*
D03*
X482150Y111500D02*
D03*
Y63500D02*
D03*
D98*
X325000Y262500D02*
D03*
X424246Y211746D02*
D03*
X417500Y205000D02*
D03*
M02*
